<?xml version="1.0" encoding="UTF-8" standalone="no"?><svg xmlns="http://www.w3.org/2000/svg" xmlns:xlink="http://www.w3.org/1999/xlink" contentScriptType="application/ecmascript" contentStyleType="text/css" height="1229px" preserveAspectRatio="none" style="width:1471px;height:1229px;background:#FFFFFF;" version="1.1" viewBox="0 0 1471 1229" width="1471px" zoomAndPan="magnify"><defs><filter height="300%" id="f57outsqeu7h5" width="300%" x="-1" y="-1"><feGaussianBlur result="blurOut" stdDeviation="2.0"/><feColorMatrix in="blurOut" result="blurOut2" type="matrix" values="0 0 0 0 0 0 0 0 0 0 0 0 0 0 0 0 0 0 .4 0"/><feOffset dx="4.0" dy="4.0" in="blurOut2" result="blurOut3"/><feBlend in="SourceGraphic" in2="blurOut3" mode="normal"/></filter></defs><g><rect fill="#DDDDDD" height="1217.9766" style="stroke:#A80036;stroke-width:1.0;" width="718" x="514.5" y="6"/><text fill="#000000" font-family="sans-serif" font-size="13" font-weight="bold" lengthAdjust="spacing" textLength="92" x="827.5" y="18.0669">EyeTracking</text><rect fill="#FFFFFF" filter="url(#f57outsqeu7h5)" height="1030.3828" style="stroke:#A80036;stroke-width:1.0;" width="10" x="42" y="98.2969"/><rect fill="#FFFFFF" filter="url(#f57outsqeu7h5)" height="1030.3828" style="stroke:#A80036;stroke-width:1.0;" width="10" x="441" y="98.2969"/><rect fill="#FFFFFF" filter="url(#f57outsqeu7h5)" height="116.5313" style="stroke:#A80036;stroke-width:1.0;" width="10" x="594" y="492.0234"/><rect fill="#FFFFFF" filter="url(#f57outsqeu7h5)" height="1030.3828" style="stroke:#A80036;stroke-width:1.0;" width="10" x="854" y="98.2969"/><rect fill="#FFFFFF" filter="url(#f57outsqeu7h5)" height="87.3984" style="stroke:#A80036;stroke-width:1.0;" width="10" x="1005" y="220.8281"/><rect fill="#FFFFFF" filter="url(#f57outsqeu7h5)" height="116.5313" style="stroke:#A80036;stroke-width:1.0;" width="10" x="1152.5" y="637.6875"/><rect fill="#FFFFFF" filter="url(#f57outsqeu7h5)" height="116.5313" style="stroke:#A80036;stroke-width:1.0;" width="10" x="1152.5" y="890.75"/><rect fill="#FFFFFF" filter="url(#f57outsqeu7h5)" height="29.1328" style="stroke:#A80036;stroke-width:1.0;" width="10" x="1268" y="162.5625"/><rect fill="#FFFFFF" filter="url(#f57outsqeu7h5)" height="9" style="stroke:#A80036;stroke-width:1.0;" width="10" x="1383.5" y="1119.6797"/><rect fill="#FFFFFF" filter="url(#f57outsqeu7h5)" height="341.5938" style="stroke:#000000;stroke-width:2.0;" width="1228.5" x="10" y="453.7578"/><rect fill="#FFFFFF" filter="url(#f57outsqeu7h5)" height="195.9297" style="stroke:#000000;stroke-width:2.0;" width="1228.5" x="10" y="852.4844"/><line style="stroke:#A80036;stroke-width:1.0;stroke-dasharray:5.0,5.0;" x1="47" x2="47" y1="88.2969" y2="1137.6797"/><line style="stroke:#A80036;stroke-width:1.0;stroke-dasharray:5.0,5.0;" x1="446" x2="446" y1="88.2969" y2="1137.6797"/><line style="stroke:#A80036;stroke-width:1.0;stroke-dasharray:5.0,5.0;" x1="598.5" x2="598.5" y1="88.2969" y2="1137.6797"/><line style="stroke:#A80036;stroke-width:1.0;stroke-dasharray:5.0,5.0;" x1="858.5" x2="858.5" y1="88.2969" y2="1137.6797"/><line style="stroke:#A80036;stroke-width:1.0;stroke-dasharray:5.0,5.0;" x1="1009.5" x2="1009.5" y1="88.2969" y2="1137.6797"/><line style="stroke:#A80036;stroke-width:1.0;stroke-dasharray:5.0,5.0;" x1="1157.5" x2="1157.5" y1="88.2969" y2="1137.6797"/><line style="stroke:#A80036;stroke-width:1.0;stroke-dasharray:5.0,5.0;" x1="1272.5" x2="1272.5" y1="88.2969" y2="1137.6797"/><line style="stroke:#A80036;stroke-width:1.0;stroke-dasharray:5.0,5.0;" x1="1388.5" x2="1388.5" y1="88.2969" y2="1137.6797"/><text fill="#000000" font-family="sans-serif" font-size="14" lengthAdjust="spacing" textLength="48" x="20" y="84.9951">Nutzer</text><ellipse cx="47" cy="15" fill="#FEFECE" filter="url(#f57outsqeu7h5)" rx="8" ry="8" style="stroke:#A80036;stroke-width:2.0;"/><path d="M47,23 L47,50 M34,31 L60,31 M47,50 L34,65 M47,50 L60,65 " fill="none" filter="url(#f57outsqeu7h5)" style="stroke:#A80036;stroke-width:2.0;"/><text fill="#000000" font-family="sans-serif" font-size="14" lengthAdjust="spacing" textLength="48" x="20" y="1149.6748">Nutzer</text><ellipse cx="47" cy="1162.9766" fill="#FEFECE" filter="url(#f57outsqeu7h5)" rx="8" ry="8" style="stroke:#A80036;stroke-width:2.0;"/><path d="M47,1170.9766 L47,1197.9766 M34,1178.9766 L60,1178.9766 M47,1197.9766 L34,1212.9766 M47,1197.9766 L60,1212.9766 " fill="none" filter="url(#f57outsqeu7h5)" style="stroke:#A80036;stroke-width:2.0;"/><text fill="#000000" font-family="sans-serif" font-size="14" lengthAdjust="spacing" textLength="54" x="416" y="84.9951">System</text><ellipse cx="446" cy="56" fill="#DA70D5" filter="url(#f57outsqeu7h5)" rx="12" ry="12" style="stroke:#A80036;stroke-width:2.0;"/><line style="stroke:#A80036;stroke-width:2.0;" x1="434" x2="458" y1="70" y2="70"/><text fill="#000000" font-family="sans-serif" font-size="14" lengthAdjust="spacing" textLength="54" x="416" y="1149.6748">System</text><ellipse cx="446" cy="1168.9766" fill="#DA70D5" filter="url(#f57outsqeu7h5)" rx="12" ry="12" style="stroke:#A80036;stroke-width:2.0;"/><line style="stroke:#A80036;stroke-width:2.0;" x1="434" x2="458" y1="1182.9766" y2="1182.9766"/><rect fill="#FEFECE" filter="url(#f57outsqeu7h5)" height="30.2969" style="stroke:#A80036;stroke-width:1.5;" width="157" x="518.5" y="53"/><text fill="#000000" font-family="sans-serif" font-size="14" lengthAdjust="spacing" textLength="143" x="525.5" y="72.9951">EyeTrackingTutorial</text><rect fill="#FEFECE" filter="url(#f57outsqeu7h5)" height="30.2969" style="stroke:#A80036;stroke-width:1.5;" width="157" x="518.5" y="1136.6797"/><text fill="#000000" font-family="sans-serif" font-size="14" lengthAdjust="spacing" textLength="143" x="525.5" y="1156.6748">EyeTrackingTutorial</text><rect fill="#FEFECE" filter="url(#f57outsqeu7h5)" height="30.2969" style="stroke:#A80036;stroke-width:1.5;" width="145" x="784.5" y="53"/><text fill="#000000" font-family="sans-serif" font-size="14" lengthAdjust="spacing" textLength="131" x="791.5" y="72.9951">EyeTrackingSetup</text><rect fill="#FEFECE" filter="url(#f57outsqeu7h5)" height="30.2969" style="stroke:#A80036;stroke-width:1.5;" width="145" x="784.5" y="1136.6797"/><text fill="#000000" font-family="sans-serif" font-size="14" lengthAdjust="spacing" textLength="131" x="791.5" y="1156.6748">EyeTrackingSetup</text><rect fill="#FEFECE" filter="url(#f57outsqeu7h5)" height="30.2969" style="stroke:#A80036;stroke-width:1.5;" width="129" x="943.5" y="53"/><text fill="#000000" font-family="sans-serif" font-size="14" lengthAdjust="spacing" textLength="115" x="950.5" y="72.9951">EyeTrackingBild</text><rect fill="#FEFECE" filter="url(#f57outsqeu7h5)" height="30.2969" style="stroke:#A80036;stroke-width:1.5;" width="129" x="943.5" y="1136.6797"/><text fill="#000000" font-family="sans-serif" font-size="14" lengthAdjust="spacing" textLength="115" x="950.5" y="1156.6748">EyeTrackingBild</text><rect fill="#FEFECE" filter="url(#f57outsqeu7h5)" height="30.2969" style="stroke:#A80036;stroke-width:1.5;" width="138" x="1086.5" y="53"/><text fill="#000000" font-family="sans-serif" font-size="14" lengthAdjust="spacing" textLength="124" x="1093.5" y="72.9951">EyeTrackingAuge</text><rect fill="#FEFECE" filter="url(#f57outsqeu7h5)" height="30.2969" style="stroke:#A80036;stroke-width:1.5;" width="138" x="1086.5" y="1136.6797"/><text fill="#000000" font-family="sans-serif" font-size="14" lengthAdjust="spacing" textLength="124" x="1093.5" y="1156.6748">EyeTrackingAuge</text><rect fill="#FEFECE" filter="url(#f57outsqeu7h5)" height="30.2969" style="stroke:#A80036;stroke-width:1.5;" width="61" x="1242.5" y="49"/><rect fill="#FEFECE" filter="url(#f57outsqeu7h5)" height="30.2969" style="stroke:#A80036;stroke-width:1.5;" width="61" x="1238.5" y="53"/><text fill="#000000" font-family="sans-serif" font-size="14" lengthAdjust="spacing" textLength="47" x="1245.5" y="72.9951">Config</text><rect fill="#FEFECE" filter="url(#f57outsqeu7h5)" height="30.2969" style="stroke:#A80036;stroke-width:1.5;" width="61" x="1242.5" y="1136.6797"/><rect fill="#FEFECE" filter="url(#f57outsqeu7h5)" height="30.2969" style="stroke:#A80036;stroke-width:1.5;" width="61" x="1238.5" y="1140.6797"/><text fill="#000000" font-family="sans-serif" font-size="14" lengthAdjust="spacing" textLength="47" x="1245.5" y="1160.6748">Config</text><rect fill="#FEFECE" filter="url(#f57outsqeu7h5)" height="30.2969" style="stroke:#A80036;stroke-width:1.5;" width="134" x="1321.5" y="49"/><rect fill="#FEFECE" filter="url(#f57outsqeu7h5)" height="30.2969" style="stroke:#A80036;stroke-width:1.5;" width="134" x="1317.5" y="53"/><text fill="#000000" font-family="sans-serif" font-size="14" lengthAdjust="spacing" textLength="120" x="1324.5" y="72.9951">SpeicherMedium</text><rect fill="#FEFECE" filter="url(#f57outsqeu7h5)" height="30.2969" style="stroke:#A80036;stroke-width:1.5;" width="134" x="1321.5" y="1136.6797"/><rect fill="#FEFECE" filter="url(#f57outsqeu7h5)" height="30.2969" style="stroke:#A80036;stroke-width:1.5;" width="134" x="1317.5" y="1140.6797"/><text fill="#000000" font-family="sans-serif" font-size="14" lengthAdjust="spacing" textLength="120" x="1324.5" y="1160.6748">SpeicherMedium</text><rect fill="#FFFFFF" filter="url(#f57outsqeu7h5)" height="1030.3828" style="stroke:#A80036;stroke-width:1.0;" width="10" x="42" y="98.2969"/><rect fill="#FFFFFF" filter="url(#f57outsqeu7h5)" height="1030.3828" style="stroke:#A80036;stroke-width:1.0;" width="10" x="441" y="98.2969"/><rect fill="#FFFFFF" filter="url(#f57outsqeu7h5)" height="116.5313" style="stroke:#A80036;stroke-width:1.0;" width="10" x="594" y="492.0234"/><rect fill="#FFFFFF" filter="url(#f57outsqeu7h5)" height="1030.3828" style="stroke:#A80036;stroke-width:1.0;" width="10" x="854" y="98.2969"/><rect fill="#FFFFFF" filter="url(#f57outsqeu7h5)" height="87.3984" style="stroke:#A80036;stroke-width:1.0;" width="10" x="1005" y="220.8281"/><rect fill="#FFFFFF" filter="url(#f57outsqeu7h5)" height="116.5313" style="stroke:#A80036;stroke-width:1.0;" width="10" x="1152.5" y="637.6875"/><rect fill="#FFFFFF" filter="url(#f57outsqeu7h5)" height="116.5313" style="stroke:#A80036;stroke-width:1.0;" width="10" x="1152.5" y="890.75"/><rect fill="#FFFFFF" filter="url(#f57outsqeu7h5)" height="29.1328" style="stroke:#A80036;stroke-width:1.0;" width="10" x="1268" y="162.5625"/><rect fill="#FFFFFF" filter="url(#f57outsqeu7h5)" height="9" style="stroke:#A80036;stroke-width:1.0;" width="10" x="1383.5" y="1119.6797"/><rect fill="#EEEEEE" filter="url(#f57outsqeu7h5)" height="3" style="stroke:#EEEEEE;stroke-width:1.0;" width="1464.5" x="0" y="118.8633"/><line style="stroke:#000000;stroke-width:1.0;" x1="0" x2="1464.5" y1="118.8633" y2="118.8633"/><line style="stroke:#000000;stroke-width:1.0;" x1="0" x2="1464.5" y1="121.8633" y2="121.8633"/><rect fill="#EEEEEE" filter="url(#f57outsqeu7h5)" height="23.1328" style="stroke:#000000;stroke-width:2.0;" width="137" x="663.75" y="108.2969"/><text fill="#000000" font-family="sans-serif" font-size="13" font-weight="bold" lengthAdjust="spacing" textLength="118" x="669.75" y="124.3638">Vorbereitungen</text><polygon fill="#A80036" points="1256,158.5625,1266,162.5625,1256,166.5625,1260,162.5625" style="stroke:#A80036;stroke-width:1.0;"/><line style="stroke:#A80036;stroke-width:1.0;" x1="864" x2="1262" y1="162.5625" y2="162.5625"/><text fill="#000000" font-family="sans-serif" font-size="13" lengthAdjust="spacing" textLength="62" x="871" y="157.4966">load Data</text><polygon fill="#A80036" points="875,187.6953,865,191.6953,875,195.6953,871,191.6953" style="stroke:#A80036;stroke-width:1.0;"/><line style="stroke:#A80036;stroke-width:1.0;stroke-dasharray:2.0,2.0;" x1="869" x2="1272" y1="191.6953" y2="191.6953"/><text fill="#000000" font-family="sans-serif" font-size="13" lengthAdjust="spacing" textLength="31" x="881" y="186.6294">Data</text><polygon fill="#A80036" points="993,216.8281,1003,220.8281,993,224.8281,997,220.8281" style="stroke:#A80036;stroke-width:1.0;"/><line style="stroke:#A80036;stroke-width:1.0;" x1="864" x2="999" y1="220.8281" y2="220.8281"/><text fill="#000000" font-family="sans-serif" font-size="13" lengthAdjust="spacing" textLength="110" x="871" y="215.7622">loadGrid() : int[2]</text><polygon fill="#A80036" points="462,245.9609,452,249.9609,462,253.9609,458,249.9609" style="stroke:#A80036;stroke-width:1.0;"/><line style="stroke:#A80036;stroke-width:1.0;" x1="456" x2="1004" y1="249.9609" y2="249.9609"/><text fill="#000000" font-family="sans-serif" font-size="13" lengthAdjust="spacing" textLength="119" x="468" y="244.895">erfrage screensize</text><polygon fill="#A80036" points="993,275.0938,1003,279.0938,993,283.0938,997,279.0938" style="stroke:#A80036;stroke-width:1.0;"/><line style="stroke:#A80036;stroke-width:1.0;stroke-dasharray:2.0,2.0;" x1="451" x2="999" y1="279.0938" y2="279.0938"/><text fill="#000000" font-family="sans-serif" font-size="13" lengthAdjust="spacing" textLength="115" x="458" y="274.0278">screensize : int[2]</text><polygon fill="#A80036" points="875,304.2266,865,308.2266,875,312.2266,871,308.2266" style="stroke:#A80036;stroke-width:1.0;"/><line style="stroke:#A80036;stroke-width:1.0;stroke-dasharray:2.0,2.0;" x1="869" x2="1009" y1="308.2266" y2="308.2266"/><text fill="#000000" font-family="sans-serif" font-size="13" lengthAdjust="spacing" textLength="115" x="881" y="303.1606">screensize : int[2]</text><rect fill="#EEEEEE" filter="url(#f57outsqeu7h5)" height="3" style="stroke:#EEEEEE;stroke-width:1.0;" width="1464.5" x="0" y="336.793"/><line style="stroke:#000000;stroke-width:1.0;" x1="0" x2="1464.5" y1="336.793" y2="336.793"/><line style="stroke:#000000;stroke-width:1.0;" x1="0" x2="1464.5" y1="339.793" y2="339.793"/><rect fill="#EEEEEE" filter="url(#f57outsqeu7h5)" height="23.1328" style="stroke:#000000;stroke-width:2.0;" width="81" x="691.75" y="326.2266"/><text fill="#000000" font-family="sans-serif" font-size="13" font-weight="bold" lengthAdjust="spacing" textLength="62" x="697.75" y="342.2935">Tutorial</text><polygon fill="#A80036" points="462,376.4922,452,380.4922,462,384.4922,458,380.4922" style="stroke:#A80036;stroke-width:1.0;"/><line style="stroke:#A80036;stroke-width:1.0;" x1="456" x2="853" y1="380.4922" y2="380.4922"/><text fill="#000000" font-family="sans-serif" font-size="13" lengthAdjust="spacing" textLength="96" x="468" y="375.4263">erfragt Distanz</text><polygon fill="#A80036" points="429,405.625,439,409.625,429,413.625,433,409.625" style="stroke:#A80036;stroke-width:1.0;"/><line style="stroke:#A80036;stroke-width:1.0;" x1="52" x2="435" y1="409.625" y2="409.625"/><text fill="#000000" font-family="sans-serif" font-size="13" lengthAdjust="spacing" textLength="134" x="59" y="404.5591">Eingabe per Tastatur</text><polygon fill="#A80036" points="842,434.7578,852,438.7578,842,442.7578,846,438.7578" style="stroke:#A80036;stroke-width:1.0;"/><line style="stroke:#A80036;stroke-width:1.0;stroke-dasharray:2.0,2.0;" x1="451" x2="848" y1="438.7578" y2="438.7578"/><text fill="#000000" font-family="sans-serif" font-size="13" lengthAdjust="spacing" textLength="90" x="458" y="433.6919">Distanz : float</text><path d="M10,453.7578 L88,453.7578 L88,460.7578 L78,470.7578 L10,470.7578 L10,453.7578 " fill="#EEEEEE" style="stroke:#000000;stroke-width:1.0;"/><rect fill="none" height="341.5938" style="stroke:#000000;stroke-width:2.0;" width="1228.5" x="10" y="453.7578"/><text fill="#000000" font-family="sans-serif" font-size="13" font-weight="bold" lengthAdjust="spacing" textLength="33" x="25" y="466.8247">loop</text><text fill="#000000" font-family="sans-serif" font-size="11" font-weight="bold" lengthAdjust="spacing" textLength="90" x="103" y="465.9683">[Kalibrierung]</text><polygon fill="#A80036" points="615,488.0234,605,492.0234,615,496.0234,611,492.0234" style="stroke:#A80036;stroke-width:1.0;"/><line style="stroke:#A80036;stroke-width:1.0;" x1="609" x2="853" y1="492.0234" y2="492.0234"/><text fill="#000000" font-family="sans-serif" font-size="13" lengthAdjust="spacing" textLength="231" x="621" y="486.9575">tutorialPosition(punkt : int[2]): int[2]</text><polygon fill="#A80036" points="462,517.1563,452,521.1563,462,525.1563,458,521.1563" style="stroke:#A80036;stroke-width:1.0;"/><line style="stroke:#A80036;stroke-width:1.0;" x1="456" x2="593" y1="521.1563" y2="521.1563"/><text fill="#000000" font-family="sans-serif" font-size="13" lengthAdjust="spacing" textLength="118" x="468" y="516.0903">erfragt Mausdaten</text><polygon fill="#A80036" points="429,546.2891,439,550.2891,429,554.2891,433,550.2891" style="stroke:#A80036;stroke-width:1.0;"/><line style="stroke:#A80036;stroke-width:1.0;" x1="52" x2="435" y1="550.2891" y2="550.2891"/><text fill="#000000" font-family="sans-serif" font-size="13" lengthAdjust="spacing" textLength="195" x="59" y="545.2231">Positionsbestätigung mit Maus</text><polygon fill="#A80036" points="582,575.4219,592,579.4219,582,583.4219,586,579.4219" style="stroke:#A80036;stroke-width:1.0;"/><line style="stroke:#A80036;stroke-width:1.0;stroke-dasharray:2.0,2.0;" x1="451" x2="588" y1="579.4219" y2="579.4219"/><text fill="#000000" font-family="sans-serif" font-size="13" lengthAdjust="spacing" textLength="119" x="458" y="574.356">Kalibrierungsdaten</text><polygon fill="#A80036" points="842,604.5547,852,608.5547,842,612.5547,846,608.5547" style="stroke:#A80036;stroke-width:1.0;"/><line style="stroke:#A80036;stroke-width:1.0;stroke-dasharray:2.0,2.0;" x1="599" x2="848" y1="608.5547" y2="608.5547"/><text fill="#000000" font-family="sans-serif" font-size="13" lengthAdjust="spacing" textLength="93" x="606" y="603.4888">position: int[2]</text><polygon fill="#A80036" points="1140.5,633.6875,1150.5,637.6875,1140.5,641.6875,1144.5,637.6875" style="stroke:#A80036;stroke-width:1.0;"/><line style="stroke:#A80036;stroke-width:1.0;" x1="864" x2="1146.5" y1="637.6875" y2="637.6875"/><text fill="#000000" font-family="sans-serif" font-size="13" lengthAdjust="spacing" textLength="159" x="871" y="632.6216">getPosition() : float[2][2]</text><polygon fill="#A80036" points="462,662.8203,452,666.8203,462,670.8203,458,666.8203" style="stroke:#A80036;stroke-width:1.0;"/><line style="stroke:#A80036;stroke-width:1.0;" x1="456" x2="1151.5" y1="666.8203" y2="666.8203"/><text fill="#000000" font-family="sans-serif" font-size="13" lengthAdjust="spacing" textLength="127" x="468" y="661.7544">erfrage Camstream</text><polygon fill="#A80036" points="429,691.9531,439,695.9531,429,699.9531,433,695.9531" style="stroke:#A80036;stroke-width:1.0;"/><line style="stroke:#A80036;stroke-width:1.0;" x1="52" x2="435" y1="695.9531" y2="695.9531"/><text fill="#000000" font-family="sans-serif" font-size="13" lengthAdjust="spacing" textLength="365" x="59" y="690.8872">schaut auf den Bildschirm und wird von Kamera gesehen</text><polygon fill="#A80036" points="1140.5,721.0859,1150.5,725.0859,1140.5,729.0859,1144.5,725.0859" style="stroke:#A80036;stroke-width:1.0;"/><line style="stroke:#A80036;stroke-width:1.0;stroke-dasharray:2.0,2.0;" x1="451" x2="1146.5" y1="725.0859" y2="725.0859"/><text fill="#000000" font-family="sans-serif" font-size="13" lengthAdjust="spacing" textLength="76" x="458" y="720.02">Camstream</text><polygon fill="#A80036" points="875,750.2188,865,754.2188,875,758.2188,871,754.2188" style="stroke:#A80036;stroke-width:1.0;"/><line style="stroke:#A80036;stroke-width:1.0;stroke-dasharray:2.0,2.0;" x1="869" x2="1156.5" y1="754.2188" y2="754.2188"/><text fill="#000000" font-family="sans-serif" font-size="13" lengthAdjust="spacing" textLength="128" x="881" y="749.1528">position : float[2][2]</text><polygon fill="#FFFFFF" filter="url(#f57outsqeu7h5)" points="823,767.2188,894,767.2188,904,778.2188,894,790.2188,823,790.2188,813,778.2188,823,767.2188" style="stroke:#A80036;stroke-width:1.0;"/><text fill="#000000" font-family="sans-serif" font-size="13" lengthAdjust="spacing" textLength="67" x="825" y="783.2856">calculate()</text><rect fill="#EEEEEE" filter="url(#f57outsqeu7h5)" height="3" style="stroke:#EEEEEE;stroke-width:1.0;" width="1464.5" x="0" y="822.918"/><line style="stroke:#000000;stroke-width:1.0;" x1="0" x2="1464.5" y1="822.918" y2="822.918"/><line style="stroke:#000000;stroke-width:1.0;" x1="0" x2="1464.5" y1="825.918" y2="825.918"/><rect fill="#EEEEEE" filter="url(#f57outsqeu7h5)" height="23.1328" style="stroke:#000000;stroke-width:2.0;" width="79" x="692.75" y="812.3516"/><text fill="#000000" font-family="sans-serif" font-size="13" font-weight="bold" lengthAdjust="spacing" textLength="60" x="698.75" y="828.4185">Versuch</text><path d="M10,852.4844 L88,852.4844 L88,859.4844 L78,869.4844 L10,869.4844 L10,852.4844 " fill="#EEEEEE" style="stroke:#000000;stroke-width:1.0;"/><rect fill="none" height="195.9297" style="stroke:#000000;stroke-width:2.0;" width="1228.5" x="10" y="852.4844"/><text fill="#000000" font-family="sans-serif" font-size="13" font-weight="bold" lengthAdjust="spacing" textLength="33" x="25" y="865.5513">loop</text><text fill="#000000" font-family="sans-serif" font-size="11" font-weight="bold" lengthAdjust="spacing" textLength="89" x="103" y="864.6948">[Visual input]</text><polygon fill="#A80036" points="1140.5,886.75,1150.5,890.75,1140.5,894.75,1144.5,890.75" style="stroke:#A80036;stroke-width:1.0;"/><line style="stroke:#A80036;stroke-width:1.0;" x1="864" x2="1146.5" y1="890.75" y2="890.75"/><text fill="#000000" font-family="sans-serif" font-size="13" lengthAdjust="spacing" textLength="159" x="871" y="885.6841">getPosition() : float[2][2]</text><polygon fill="#A80036" points="462,915.8828,452,919.8828,462,923.8828,458,919.8828" style="stroke:#A80036;stroke-width:1.0;"/><line style="stroke:#A80036;stroke-width:1.0;" x1="456" x2="1151.5" y1="919.8828" y2="919.8828"/><text fill="#000000" font-family="sans-serif" font-size="13" lengthAdjust="spacing" textLength="127" x="468" y="914.8169">erfrage Camstream</text><polygon fill="#A80036" points="429,945.0156,439,949.0156,429,953.0156,433,949.0156" style="stroke:#A80036;stroke-width:1.0;"/><line style="stroke:#A80036;stroke-width:1.0;" x1="52" x2="435" y1="949.0156" y2="949.0156"/><text fill="#000000" font-family="sans-serif" font-size="13" lengthAdjust="spacing" textLength="365" x="59" y="943.9497">schaut auf den Bildschirm und wird von Kamera gesehen</text><polygon fill="#A80036" points="1140.5,974.1484,1150.5,978.1484,1140.5,982.1484,1144.5,978.1484" style="stroke:#A80036;stroke-width:1.0;"/><line style="stroke:#A80036;stroke-width:1.0;stroke-dasharray:2.0,2.0;" x1="451" x2="1146.5" y1="978.1484" y2="978.1484"/><text fill="#000000" font-family="sans-serif" font-size="13" lengthAdjust="spacing" textLength="76" x="458" y="973.0825">Camstream</text><polygon fill="#A80036" points="875,1003.2813,865,1007.2813,875,1011.2813,871,1007.2813" style="stroke:#A80036;stroke-width:1.0;"/><line style="stroke:#A80036;stroke-width:1.0;stroke-dasharray:2.0,2.0;" x1="869" x2="1156.5" y1="1007.2813" y2="1007.2813"/><text fill="#000000" font-family="sans-serif" font-size="13" lengthAdjust="spacing" textLength="128" x="881" y="1002.2153">position : float[2][2]</text><polygon fill="#FFFFFF" filter="url(#f57outsqeu7h5)" points="823,1020.2813,894,1020.2813,904,1031.2813,894,1043.2813,823,1043.2813,813,1031.2813,823,1020.2813" style="stroke:#A80036;stroke-width:1.0;"/><text fill="#000000" font-family="sans-serif" font-size="13" lengthAdjust="spacing" textLength="67" x="825" y="1036.3481">calculate()</text><rect fill="#EEEEEE" filter="url(#f57outsqeu7h5)" height="3" style="stroke:#EEEEEE;stroke-width:1.0;" width="1464.5" x="0" y="1075.9805"/><line style="stroke:#000000;stroke-width:1.0;" x1="0" x2="1464.5" y1="1075.9805" y2="1075.9805"/><line style="stroke:#000000;stroke-width:1.0;" x1="0" x2="1464.5" y1="1078.9805" y2="1078.9805"/><rect fill="#EEEEEE" filter="url(#f57outsqeu7h5)" height="23.1328" style="stroke:#000000;stroke-width:2.0;" width="92" x="686.25" y="1065.4141"/><text fill="#000000" font-family="sans-serif" font-size="13" font-weight="bold" lengthAdjust="spacing" textLength="73" x="692.25" y="1081.481">Abschluss</text><polygon fill="#A80036" points="1371.5,1115.6797,1381.5,1119.6797,1371.5,1123.6797,1375.5,1119.6797" style="stroke:#A80036;stroke-width:1.0;"/><line style="stroke:#A80036;stroke-width:1.0;" x1="864" x2="1377.5" y1="1119.6797" y2="1119.6797"/><text fill="#000000" font-family="sans-serif" font-size="13" lengthAdjust="spacing" textLength="66" x="871" y="1114.6138">save Data</text><!--MD5=[77a226e0b5750ed07ee1e60f927f3e90]
@startuml
actor       Nutzer          as n
entity      System          as s    #DA70D5

box EyeTracking
participant EyeTrackingTutorial    as et
participant EyeTrackingSetup       as es
participant EyeTrackingBild        as eb
participant EyeTrackingAuge        as ea
end box

collections Config          as c
collections SpeicherMedium  as sm

== Vorbereitungen ==

activate n
activate s
activate es
es -> c : load Data
activate c
c - -> es : Data
deactivate c
es -> eb : loadGrid() : int[2]
activate eb
eb -> s : erfrage screensize
s - -> eb : screensize : int[2]
eb - -> es : screensize : int[2]
deactivate eb

== Tutorial ==
es -> s : erfragt Distanz
n -> s : Eingabe per Tastatur
s - -> es : Distanz : float
loop Kalibrierung
  es -> et : tutorialPosition(punkt : int[2]): int[2]
  activate et
  et -> s : erfragt Mausdaten
  n -> s : Positionsbestätigung mit Maus
  s - -> et : Kalibrierungsdaten
  et - -> es : position: int[2]
  deactivate et
  es -> ea : getPosition() : float[2][2]
  activate ea
  ea -> s : erfrage Camstream
  n -> s : schaut auf den Bildschirm und wird von Kamera gesehen 
  s - -> ea : Camstream
  ea - -> es : position : float[2][2]
  deactivate ea
  hnote over es #FFFFFF: calculate()
end

== Versuch ==
loop Visual input
  es -> ea : getPosition() : float[2][2]
  activate ea
  ea -> s : erfrage Camstream
  n -> s : schaut auf den Bildschirm und wird von Kamera gesehen 
  s - -> ea : Camstream
  ea - -> es : position : float[2][2]
  deactivate ea
  hnote over es #FFFFFF: calculate()
end

== Abschluss ==
es -> sm: save Data
activate sm
@enduml

PlantUML version 1.2021.15beta3(Unknown compile time)
(GPL source distribution)
Java Runtime: Java(TM) SE Runtime Environment
JVM: Java HotSpot(TM) 64-Bit Server VM
Default Encoding: UTF-8
Language: en
Country: US
--></g></svg>