<?xml version="1.0" encoding="UTF-8" standalone="no"?><svg xmlns="http://www.w3.org/2000/svg" xmlns:xlink="http://www.w3.org/1999/xlink" contentScriptType="application/ecmascript" contentStyleType="text/css" height="1106px" preserveAspectRatio="none" style="width:1461px;height:1106px;background:#FFFFFF;" version="1.1" viewBox="0 0 1461 1106" width="1461px" zoomAndPan="magnify"><defs><filter height="300%" id="f1k2skdvry3dvc" width="300%" x="-1" y="-1"><feGaussianBlur result="blurOut" stdDeviation="2.0"/><feColorMatrix in="blurOut" result="blurOut2" type="matrix" values="0 0 0 0 0 0 0 0 0 0 0 0 0 0 0 0 0 0 .4 0"/><feOffset dx="4.0" dy="4.0" in="blurOut2" result="blurOut3"/><feBlend in="SourceGraphic" in2="blurOut3" mode="normal"/></filter></defs><g><rect fill="#DDDDDD" height="1094.5781" style="stroke:#A80036;stroke-width:1.0;" width="713" x="509.5" y="6"/><text fill="#000000" font-family="sans-serif" font-size="13" font-weight="bold" lengthAdjust="spacing" textLength="92" x="820" y="18.0669">EyeTracking</text><rect fill="#FFFFFF" filter="url(#f1k2skdvry3dvc)" height="906.9844" style="stroke:#A80036;stroke-width:1.0;" width="10" x="42" y="98.2969"/><rect fill="#FFFFFF" filter="url(#f1k2skdvry3dvc)" height="906.9844" style="stroke:#A80036;stroke-width:1.0;" width="10" x="441" y="98.2969"/><rect fill="#FFFFFF" filter="url(#f1k2skdvry3dvc)" height="279.3281" style="stroke:#000000;stroke-width:2.0;" width="1218.5" x="10" y="498.0234"/><rect fill="#FFFFFF" filter="url(#f1k2skdvry3dvc)" height="133.6641" style="stroke:#000000;stroke-width:2.0;" width="464" x="764.5" y="834.4844"/><line style="stroke:#A80036;stroke-width:1.0;stroke-dasharray:5.0,5.0;" x1="47" x2="47" y1="88.2969" y2="1014.2813"/><line style="stroke:#A80036;stroke-width:1.0;stroke-dasharray:5.0,5.0;" x1="446" x2="446" y1="88.2969" y2="1014.2813"/><line style="stroke:#A80036;stroke-width:1.0;stroke-dasharray:5.0,5.0;" x1="593.5" x2="593.5" y1="88.2969" y2="1014.2813"/><line style="stroke:#A80036;stroke-width:1.0;stroke-dasharray:5.0,5.0;" x1="848.5" x2="848.5" y1="88.2969" y2="1014.2813"/><line style="stroke:#A80036;stroke-width:1.0;stroke-dasharray:5.0,5.0;" x1="999.5" x2="999.5" y1="88.2969" y2="1014.2813"/><line style="stroke:#A80036;stroke-width:1.0;stroke-dasharray:5.0,5.0;" x1="1147.5" x2="1147.5" y1="88.2969" y2="1014.2813"/><line style="stroke:#A80036;stroke-width:1.0;stroke-dasharray:5.0,5.0;" x1="1262.5" x2="1262.5" y1="88.2969" y2="1014.2813"/><line style="stroke:#A80036;stroke-width:1.0;stroke-dasharray:5.0,5.0;" x1="1378.5" x2="1378.5" y1="88.2969" y2="1014.2813"/><text fill="#000000" font-family="sans-serif" font-size="14" lengthAdjust="spacing" textLength="48" x="20" y="84.9951">Nutzer</text><ellipse cx="47" cy="15" fill="#FEFECE" filter="url(#f1k2skdvry3dvc)" rx="8" ry="8" style="stroke:#A80036;stroke-width:2.0;"/><path d="M47,23 L47,50 M34,31 L60,31 M47,50 L34,65 M47,50 L60,65 " fill="none" filter="url(#f1k2skdvry3dvc)" style="stroke:#A80036;stroke-width:2.0;"/><text fill="#000000" font-family="sans-serif" font-size="14" lengthAdjust="spacing" textLength="48" x="20" y="1026.2764">Nutzer</text><ellipse cx="47" cy="1039.5781" fill="#FEFECE" filter="url(#f1k2skdvry3dvc)" rx="8" ry="8" style="stroke:#A80036;stroke-width:2.0;"/><path d="M47,1047.5781 L47,1074.5781 M34,1055.5781 L60,1055.5781 M47,1074.5781 L34,1089.5781 M47,1074.5781 L60,1089.5781 " fill="none" filter="url(#f1k2skdvry3dvc)" style="stroke:#A80036;stroke-width:2.0;"/><text fill="#000000" font-family="sans-serif" font-size="14" lengthAdjust="spacing" textLength="54" x="416" y="84.9951">System</text><ellipse cx="446" cy="56" fill="#DA70D5" filter="url(#f1k2skdvry3dvc)" rx="12" ry="12" style="stroke:#A80036;stroke-width:2.0;"/><line style="stroke:#A80036;stroke-width:2.0;" x1="434" x2="458" y1="70" y2="70"/><text fill="#000000" font-family="sans-serif" font-size="14" lengthAdjust="spacing" textLength="54" x="416" y="1026.2764">System</text><ellipse cx="446" cy="1045.5781" fill="#DA70D5" filter="url(#f1k2skdvry3dvc)" rx="12" ry="12" style="stroke:#A80036;stroke-width:2.0;"/><line style="stroke:#A80036;stroke-width:2.0;" x1="434" x2="458" y1="1059.5781" y2="1059.5781"/><rect fill="#FEFECE" filter="url(#f1k2skdvry3dvc)" height="30.2969" style="stroke:#A80036;stroke-width:1.5;" width="157" x="513.5" y="53"/><text fill="#000000" font-family="sans-serif" font-size="14" lengthAdjust="spacing" textLength="143" x="520.5" y="72.9951">EyeTrackingTutorial</text><rect fill="#FEFECE" filter="url(#f1k2skdvry3dvc)" height="30.2969" style="stroke:#A80036;stroke-width:1.5;" width="157" x="513.5" y="1013.2813"/><text fill="#000000" font-family="sans-serif" font-size="14" lengthAdjust="spacing" textLength="143" x="520.5" y="1033.2764">EyeTrackingTutorial</text><rect fill="#FEFECE" filter="url(#f1k2skdvry3dvc)" height="30.2969" style="stroke:#A80036;stroke-width:1.5;" width="145" x="774.5" y="53"/><text fill="#000000" font-family="sans-serif" font-size="14" lengthAdjust="spacing" textLength="131" x="781.5" y="72.9951">EyeTrackingSetup</text><rect fill="#FEFECE" filter="url(#f1k2skdvry3dvc)" height="30.2969" style="stroke:#A80036;stroke-width:1.5;" width="145" x="774.5" y="1013.2813"/><text fill="#000000" font-family="sans-serif" font-size="14" lengthAdjust="spacing" textLength="131" x="781.5" y="1033.2764">EyeTrackingSetup</text><rect fill="#FEFECE" filter="url(#f1k2skdvry3dvc)" height="30.2969" style="stroke:#A80036;stroke-width:1.5;" width="129" x="933.5" y="53"/><text fill="#000000" font-family="sans-serif" font-size="14" lengthAdjust="spacing" textLength="115" x="940.5" y="72.9951">EyeTrackingBild</text><rect fill="#FEFECE" filter="url(#f1k2skdvry3dvc)" height="30.2969" style="stroke:#A80036;stroke-width:1.5;" width="129" x="933.5" y="1013.2813"/><text fill="#000000" font-family="sans-serif" font-size="14" lengthAdjust="spacing" textLength="115" x="940.5" y="1033.2764">EyeTrackingBild</text><rect fill="#FEFECE" filter="url(#f1k2skdvry3dvc)" height="30.2969" style="stroke:#A80036;stroke-width:1.5;" width="138" x="1076.5" y="53"/><text fill="#000000" font-family="sans-serif" font-size="14" lengthAdjust="spacing" textLength="124" x="1083.5" y="72.9951">EyeTrackingAuge</text><rect fill="#FEFECE" filter="url(#f1k2skdvry3dvc)" height="30.2969" style="stroke:#A80036;stroke-width:1.5;" width="138" x="1076.5" y="1013.2813"/><text fill="#000000" font-family="sans-serif" font-size="14" lengthAdjust="spacing" textLength="124" x="1083.5" y="1033.2764">EyeTrackingAuge</text><rect fill="#FEFECE" filter="url(#f1k2skdvry3dvc)" height="30.2969" style="stroke:#A80036;stroke-width:1.5;" width="61" x="1232.5" y="49"/><rect fill="#FEFECE" filter="url(#f1k2skdvry3dvc)" height="30.2969" style="stroke:#A80036;stroke-width:1.5;" width="61" x="1228.5" y="53"/><text fill="#000000" font-family="sans-serif" font-size="14" lengthAdjust="spacing" textLength="47" x="1235.5" y="72.9951">Config</text><rect fill="#FEFECE" filter="url(#f1k2skdvry3dvc)" height="30.2969" style="stroke:#A80036;stroke-width:1.5;" width="61" x="1232.5" y="1013.2813"/><rect fill="#FEFECE" filter="url(#f1k2skdvry3dvc)" height="30.2969" style="stroke:#A80036;stroke-width:1.5;" width="61" x="1228.5" y="1017.2813"/><text fill="#000000" font-family="sans-serif" font-size="14" lengthAdjust="spacing" textLength="47" x="1235.5" y="1037.2764">Config</text><rect fill="#FEFECE" filter="url(#f1k2skdvry3dvc)" height="30.2969" style="stroke:#A80036;stroke-width:1.5;" width="134" x="1311.5" y="49"/><rect fill="#FEFECE" filter="url(#f1k2skdvry3dvc)" height="30.2969" style="stroke:#A80036;stroke-width:1.5;" width="134" x="1307.5" y="53"/><text fill="#000000" font-family="sans-serif" font-size="14" lengthAdjust="spacing" textLength="120" x="1314.5" y="72.9951">SpeicherMedium</text><rect fill="#FEFECE" filter="url(#f1k2skdvry3dvc)" height="30.2969" style="stroke:#A80036;stroke-width:1.5;" width="134" x="1311.5" y="1013.2813"/><rect fill="#FEFECE" filter="url(#f1k2skdvry3dvc)" height="30.2969" style="stroke:#A80036;stroke-width:1.5;" width="134" x="1307.5" y="1017.2813"/><text fill="#000000" font-family="sans-serif" font-size="14" lengthAdjust="spacing" textLength="120" x="1314.5" y="1037.2764">SpeicherMedium</text><rect fill="#FFFFFF" filter="url(#f1k2skdvry3dvc)" height="906.9844" style="stroke:#A80036;stroke-width:1.0;" width="10" x="42" y="98.2969"/><rect fill="#FFFFFF" filter="url(#f1k2skdvry3dvc)" height="906.9844" style="stroke:#A80036;stroke-width:1.0;" width="10" x="441" y="98.2969"/><polygon fill="#A80036" points="1251,115.4297,1261,119.4297,1251,123.4297,1255,119.4297" style="stroke:#A80036;stroke-width:1.0;"/><line style="stroke:#A80036;stroke-width:1.0;" x1="849" x2="1257" y1="119.4297" y2="119.4297"/><text fill="#000000" font-family="sans-serif" font-size="13" lengthAdjust="spacing" textLength="62" x="856" y="114.3638">load Data</text><polygon fill="#A80036" points="860,144.5625,850,148.5625,860,152.5625,856,148.5625" style="stroke:#A80036;stroke-width:1.0;"/><line style="stroke:#A80036;stroke-width:1.0;stroke-dasharray:2.0,2.0;" x1="854" x2="1262" y1="148.5625" y2="148.5625"/><text fill="#000000" font-family="sans-serif" font-size="13" lengthAdjust="spacing" textLength="31" x="866" y="143.4966">Data</text><polygon fill="#A80036" points="462,173.6953,452,177.6953,462,181.6953,458,177.6953" style="stroke:#A80036;stroke-width:1.0;"/><line style="stroke:#A80036;stroke-width:1.0;" x1="456" x2="999" y1="177.6953" y2="177.6953"/><text fill="#000000" font-family="sans-serif" font-size="13" lengthAdjust="spacing" textLength="119" x="468" y="172.6294">erfrage screensize</text><polygon fill="#A80036" points="988,202.8281,998,206.8281,988,210.8281,992,206.8281" style="stroke:#A80036;stroke-width:1.0;"/><line style="stroke:#A80036;stroke-width:1.0;stroke-dasharray:2.0,2.0;" x1="451" x2="994" y1="206.8281" y2="206.8281"/><text fill="#000000" font-family="sans-serif" font-size="13" lengthAdjust="spacing" textLength="115" x="458" y="201.7622">screensize : int[2]</text><polygon fill="#A80036" points="988,231.9609,998,235.9609,988,239.9609,992,235.9609" style="stroke:#A80036;stroke-width:1.0;"/><line style="stroke:#A80036;stroke-width:1.0;" x1="849" x2="994" y1="235.9609" y2="235.9609"/><text fill="#000000" font-family="sans-serif" font-size="13" lengthAdjust="spacing" textLength="110" x="856" y="230.895">loadGrid() : int[2]</text><polygon fill="#A80036" points="860,261.0938,850,265.0938,860,269.0938,856,265.0938" style="stroke:#A80036;stroke-width:1.0;"/><line style="stroke:#A80036;stroke-width:1.0;stroke-dasharray:2.0,2.0;" x1="854" x2="999" y1="265.0938" y2="265.0938"/><text fill="#000000" font-family="sans-serif" font-size="13" lengthAdjust="spacing" textLength="115" x="866" y="260.0278">screensize : int[2]</text><polygon fill="#A80036" points="429,290.2266,439,294.2266,429,298.2266,433,294.2266" style="stroke:#A80036;stroke-width:1.0;"/><line style="stroke:#A80036;stroke-width:1.0;" x1="52" x2="435" y1="294.2266" y2="294.2266"/><text fill="#000000" font-family="sans-serif" font-size="13" lengthAdjust="spacing" textLength="365" x="59" y="289.1606">schaut auf den bildschirm und wird von Kamera gesehen</text><polygon fill="#A80036" points="462,319.3594,452,323.3594,462,327.3594,458,323.3594" style="stroke:#A80036;stroke-width:1.0;"/><line style="stroke:#A80036;stroke-width:1.0;" x1="456" x2="1146.5" y1="323.3594" y2="323.3594"/><text fill="#000000" font-family="sans-serif" font-size="13" lengthAdjust="spacing" textLength="127" x="468" y="318.2935">erfrage Camstream</text><polygon fill="#A80036" points="1135.5,348.4922,1145.5,352.4922,1135.5,356.4922,1139.5,352.4922" style="stroke:#A80036;stroke-width:1.0;"/><line style="stroke:#A80036;stroke-width:1.0;stroke-dasharray:2.0,2.0;" x1="451" x2="1141.5" y1="352.4922" y2="352.4922"/><text fill="#000000" font-family="sans-serif" font-size="13" lengthAdjust="spacing" textLength="201" x="458" y="347.4263">Camstream (sendet dauerhaft)</text><rect fill="#EEEEEE" filter="url(#f1k2skdvry3dvc)" height="3" style="stroke:#EEEEEE;stroke-width:1.0;" width="1454.5" x="0" y="381.0586"/><line style="stroke:#000000;stroke-width:1.0;" x1="0" x2="1454.5" y1="381.0586" y2="381.0586"/><line style="stroke:#000000;stroke-width:1.0;" x1="0" x2="1454.5" y1="384.0586" y2="384.0586"/><rect fill="#EEEEEE" filter="url(#f1k2skdvry3dvc)" height="23.1328" style="stroke:#000000;stroke-width:2.0;" width="81" x="686.75" y="370.4922"/><text fill="#000000" font-family="sans-serif" font-size="13" font-weight="bold" lengthAdjust="spacing" textLength="62" x="692.75" y="386.5591">Tutorial</text><polygon fill="#A80036" points="462,420.7578,452,424.7578,462,428.7578,458,424.7578" style="stroke:#A80036;stroke-width:1.0;"/><line style="stroke:#A80036;stroke-width:1.0;" x1="456" x2="848" y1="424.7578" y2="424.7578"/><text fill="#000000" font-family="sans-serif" font-size="13" lengthAdjust="spacing" textLength="96" x="468" y="419.6919">erfragt Distanz</text><polygon fill="#A80036" points="429,449.8906,439,453.8906,429,457.8906,433,453.8906" style="stroke:#A80036;stroke-width:1.0;"/><line style="stroke:#A80036;stroke-width:1.0;" x1="52" x2="435" y1="453.8906" y2="453.8906"/><text fill="#000000" font-family="sans-serif" font-size="13" lengthAdjust="spacing" textLength="134" x="59" y="448.8247">Eingabe per Tastatur</text><polygon fill="#A80036" points="837,479.0234,847,483.0234,837,487.0234,841,483.0234" style="stroke:#A80036;stroke-width:1.0;"/><line style="stroke:#A80036;stroke-width:1.0;stroke-dasharray:2.0,2.0;" x1="451" x2="843" y1="483.0234" y2="483.0234"/><text fill="#000000" font-family="sans-serif" font-size="13" lengthAdjust="spacing" textLength="90" x="458" y="477.9575">Distanz : float</text><path d="M10,498.0234 L88,498.0234 L88,505.0234 L78,515.0234 L10,515.0234 L10,498.0234 " fill="#EEEEEE" style="stroke:#000000;stroke-width:1.0;"/><rect fill="none" height="279.3281" style="stroke:#000000;stroke-width:2.0;" width="1218.5" x="10" y="498.0234"/><text fill="#000000" font-family="sans-serif" font-size="13" font-weight="bold" lengthAdjust="spacing" textLength="33" x="25" y="511.0903">loop</text><text fill="#000000" font-family="sans-serif" font-size="11" font-weight="bold" lengthAdjust="spacing" textLength="90" x="103" y="510.2339">[Kalibrierung]</text><polygon fill="#A80036" points="605,532.2891,595,536.2891,605,540.2891,601,536.2891" style="stroke:#A80036;stroke-width:1.0;"/><line style="stroke:#A80036;stroke-width:1.0;" x1="599" x2="848" y1="536.2891" y2="536.2891"/><text fill="#000000" font-family="sans-serif" font-size="13" lengthAdjust="spacing" textLength="231" x="611" y="531.2231">tutorialPosition(punkt : int[2]): int[2]</text><polygon fill="#A80036" points="462,561.4219,452,565.4219,462,569.4219,458,565.4219" style="stroke:#A80036;stroke-width:1.0;"/><line style="stroke:#A80036;stroke-width:1.0;" x1="456" x2="593" y1="565.4219" y2="565.4219"/><text fill="#000000" font-family="sans-serif" font-size="13" lengthAdjust="spacing" textLength="118" x="468" y="560.356">erfragt Mausdaten</text><polygon fill="#A80036" points="429,590.5547,439,594.5547,429,598.5547,433,594.5547" style="stroke:#A80036;stroke-width:1.0;"/><line style="stroke:#A80036;stroke-width:1.0;" x1="52" x2="435" y1="594.5547" y2="594.5547"/><text fill="#000000" font-family="sans-serif" font-size="13" lengthAdjust="spacing" textLength="195" x="59" y="589.4888">Positionsbestätigung mit Maus</text><polygon fill="#A80036" points="582,619.6875,592,623.6875,582,627.6875,586,623.6875" style="stroke:#A80036;stroke-width:1.0;"/><line style="stroke:#A80036;stroke-width:1.0;stroke-dasharray:2.0,2.0;" x1="451" x2="588" y1="623.6875" y2="623.6875"/><text fill="#000000" font-family="sans-serif" font-size="13" lengthAdjust="spacing" textLength="119" x="458" y="618.6216">Kalibrierungsdaten</text><polygon fill="#A80036" points="837,648.8203,847,652.8203,837,656.8203,841,652.8203" style="stroke:#A80036;stroke-width:1.0;"/><line style="stroke:#A80036;stroke-width:1.0;stroke-dasharray:2.0,2.0;" x1="594" x2="843" y1="652.8203" y2="652.8203"/><text fill="#000000" font-family="sans-serif" font-size="13" lengthAdjust="spacing" textLength="93" x="601" y="647.7544">position: int[2]</text><polygon fill="#A80036" points="1135.5,677.9531,1145.5,681.9531,1135.5,685.9531,1139.5,681.9531" style="stroke:#A80036;stroke-width:1.0;"/><line style="stroke:#A80036;stroke-width:1.0;" x1="849" x2="1141.5" y1="681.9531" y2="681.9531"/><text fill="#000000" font-family="sans-serif" font-size="13" lengthAdjust="spacing" textLength="115" x="856" y="676.8872">getEye() : float[2]</text><polygon fill="#A80036" points="860,707.0859,850,711.0859,860,715.0859,856,711.0859" style="stroke:#A80036;stroke-width:1.0;"/><line style="stroke:#A80036;stroke-width:1.0;stroke-dasharray:2.0,2.0;" x1="854" x2="1146.5" y1="711.0859" y2="711.0859"/><text fill="#000000" font-family="sans-serif" font-size="13" lengthAdjust="spacing" textLength="84" x="866" y="706.02">eye : float[2]</text><polygon fill="#A80036" points="1135.5,736.2188,1145.5,740.2188,1135.5,744.2188,1139.5,740.2188" style="stroke:#A80036;stroke-width:1.0;"/><line style="stroke:#A80036;stroke-width:1.0;" x1="849" x2="1141.5" y1="740.2188" y2="740.2188"/><text fill="#000000" font-family="sans-serif" font-size="13" lengthAdjust="spacing" textLength="121" x="856" y="735.1528">getPupil() : float[2]</text><polygon fill="#A80036" points="860,765.3516,850,769.3516,860,773.3516,856,769.3516" style="stroke:#A80036;stroke-width:1.0;"/><line style="stroke:#A80036;stroke-width:1.0;stroke-dasharray:2.0,2.0;" x1="854" x2="1146.5" y1="769.3516" y2="769.3516"/><text fill="#000000" font-family="sans-serif" font-size="13" lengthAdjust="spacing" textLength="90" x="866" y="764.2856">Pupil : float[2]</text><rect fill="#EEEEEE" filter="url(#f1k2skdvry3dvc)" height="3" style="stroke:#EEEEEE;stroke-width:1.0;" width="1454.5" x="0" y="804.918"/><line style="stroke:#000000;stroke-width:1.0;" x1="0" x2="1454.5" y1="804.918" y2="804.918"/><line style="stroke:#000000;stroke-width:1.0;" x1="0" x2="1454.5" y1="807.918" y2="807.918"/><rect fill="#EEEEEE" filter="url(#f1k2skdvry3dvc)" height="23.1328" style="stroke:#000000;stroke-width:2.0;" width="79" x="687.75" y="794.3516"/><text fill="#000000" font-family="sans-serif" font-size="13" font-weight="bold" lengthAdjust="spacing" textLength="60" x="693.75" y="810.4185">Versuch</text><path d="M764.5,834.4844 L842.5,834.4844 L842.5,841.4844 L832.5,851.4844 L764.5,851.4844 L764.5,834.4844 " fill="#EEEEEE" style="stroke:#000000;stroke-width:1.0;"/><rect fill="none" height="133.6641" style="stroke:#000000;stroke-width:2.0;" width="464" x="764.5" y="834.4844"/><text fill="#000000" font-family="sans-serif" font-size="13" font-weight="bold" lengthAdjust="spacing" textLength="33" x="779.5" y="847.5513">loop</text><text fill="#000000" font-family="sans-serif" font-size="11" font-weight="bold" lengthAdjust="spacing" textLength="89" x="857.5" y="846.6948">[Visual input]</text><polygon fill="#A80036" points="1135.5,868.75,1145.5,872.75,1135.5,876.75,1139.5,872.75" style="stroke:#A80036;stroke-width:1.0;"/><line style="stroke:#A80036;stroke-width:1.0;" x1="849" x2="1141.5" y1="872.75" y2="872.75"/><text fill="#000000" font-family="sans-serif" font-size="13" lengthAdjust="spacing" textLength="115" x="856" y="867.6841">getEye() : float[2]</text><polygon fill="#A80036" points="860,897.8828,850,901.8828,860,905.8828,856,901.8828" style="stroke:#A80036;stroke-width:1.0;"/><line style="stroke:#A80036;stroke-width:1.0;" x1="854" x2="1146.5" y1="901.8828" y2="901.8828"/><text fill="#000000" font-family="sans-serif" font-size="13" lengthAdjust="spacing" textLength="84" x="866" y="896.8169">eye : float[2]</text><polygon fill="#A80036" points="1135.5,927.0156,1145.5,931.0156,1135.5,935.0156,1139.5,931.0156" style="stroke:#A80036;stroke-width:1.0;"/><line style="stroke:#A80036;stroke-width:1.0;" x1="849" x2="1141.5" y1="931.0156" y2="931.0156"/><text fill="#000000" font-family="sans-serif" font-size="13" lengthAdjust="spacing" textLength="121" x="856" y="925.9497">getPupil() : float[2]</text><polygon fill="#A80036" points="860,956.1484,850,960.1484,860,964.1484,856,960.1484" style="stroke:#A80036;stroke-width:1.0;"/><line style="stroke:#A80036;stroke-width:1.0;" x1="854" x2="1146.5" y1="960.1484" y2="960.1484"/><text fill="#000000" font-family="sans-serif" font-size="13" lengthAdjust="spacing" textLength="90" x="866" y="955.0825">Pupil : float[2]</text><polygon fill="#A80036" points="1366.5,992.2813,1376.5,996.2813,1366.5,1000.2813,1370.5,996.2813" style="stroke:#A80036;stroke-width:1.0;"/><line style="stroke:#A80036;stroke-width:1.0;" x1="849" x2="1372.5" y1="996.2813" y2="996.2813"/><text fill="#000000" font-family="sans-serif" font-size="13" lengthAdjust="spacing" textLength="66" x="856" y="991.2153">save Data</text><!--MD5=[5c59501456e7b5d7e03f11611fcbb1eb]
@startuml
actor       Nutzer          as n
entity      System          as s    #DA70D5

box EyeTracking
participant EyeTrackingTutorial    as et
participant EyeTrackingSetup       as es
participant EyeTrackingBild        as eb
participant EyeTrackingAuge        as ea
end box

collections Config          as c
collections SpeicherMedium  as sm

activate n
activate s

es -> c : load Data
c - -> es : Data
eb -> s : erfrage screensize
s - -> eb : screensize : int[2]
es -> eb : loadGrid() : int[2]
eb - -> es : screensize : int[2]
n -> s : schaut auf den bildschirm und wird von Kamera gesehen 
ea -> s : erfrage Camstream
s - -> ea : Camstream (sendet dauerhaft)

== Tutorial ==
es -> s : erfragt Distanz
n -> s : Eingabe per Tastatur
s - -> es : Distanz : float
loop Kalibrierung
  es -> et : tutorialPosition(punkt : int[2]): int[2]
  et -> s : erfragt Mausdaten
  n -> s : Positionsbestätigung mit Maus
  s - -> et : Kalibrierungsdaten
  et - -> es : position: int[2]
  es -> ea : getEye() : float[2]
  ea - -> es : eye : float[2]
  es -> ea : getPupil() : float[2]
  ea - -> es : Pupil : float[2]
end

== Versuch ==
loop Visual input
  es -> ea : getEye() : float[2]
  ea -> es : eye : float[2]
  es -> ea : getPupil() : float[2]
  ea -> es : Pupil : float[2]
end
es -> sm: save Data
@enduml

PlantUML version 1.2021.14(Fri Nov 12 16:46:50 UTC 2021)
(GPL source distribution)
Java Runtime: Java(TM) SE Runtime Environment
JVM: Java HotSpot(TM) 64-Bit Server VM
Default Encoding: UTF-8
Language: en
Country: US
--></g></svg>