<?xml version="1.0" encoding="UTF-8" standalone="no"?><svg xmlns="http://www.w3.org/2000/svg" xmlns:xlink="http://www.w3.org/1999/xlink" contentScriptType="application/ecmascript" contentStyleType="text/css" height="1106px" preserveAspectRatio="none" style="width:1471px;height:1106px;background:#FFFFFF;" version="1.1" viewBox="0 0 1471 1106" width="1471px" zoomAndPan="magnify"><defs><filter height="300%" id="f1fyl9qersc7nq" width="300%" x="-1" y="-1"><feGaussianBlur result="blurOut" stdDeviation="2.0"/><feColorMatrix in="blurOut" result="blurOut2" type="matrix" values="0 0 0 0 0 0 0 0 0 0 0 0 0 0 0 0 0 0 .4 0"/><feOffset dx="4.0" dy="4.0" in="blurOut2" result="blurOut3"/><feBlend in="SourceGraphic" in2="blurOut3" mode="normal"/></filter></defs><g><rect fill="#DDDDDD" height="1094.5781" style="stroke:#A80036;stroke-width:1.0;" width="718" x="514.5" y="6"/><text fill="#000000" font-family="sans-serif" font-size="13" font-weight="bold" lengthAdjust="spacing" textLength="92" x="827.5" y="18.0669">EyeTracking</text><rect fill="#FFFFFF" filter="url(#f1fyl9qersc7nq)" height="906.9844" style="stroke:#A80036;stroke-width:1.0;" width="10" x="42" y="98.2969"/><rect fill="#FFFFFF" filter="url(#f1fyl9qersc7nq)" height="906.9844" style="stroke:#A80036;stroke-width:1.0;" width="10" x="441" y="98.2969"/><rect fill="#FFFFFF" filter="url(#f1fyl9qersc7nq)" height="116.5313" style="stroke:#A80036;stroke-width:1.0;" width="10" x="594" y="536.2891"/><rect fill="#FFFFFF" filter="url(#f1fyl9qersc7nq)" height="906.9844" style="stroke:#A80036;stroke-width:1.0;" width="10" x="854" y="98.2969"/><rect fill="#FFFFFF" filter="url(#f1fyl9qersc7nq)" height="87.3984" style="stroke:#A80036;stroke-width:1.0;" width="10" x="1005" y="177.6953"/><rect fill="#FFFFFF" filter="url(#f1fyl9qersc7nq)" height="29.1328" style="stroke:#A80036;stroke-width:1.0;" width="10" x="1152.5" y="323.3594"/><rect fill="#FFFFFF" filter="url(#f1fyl9qersc7nq)" height="29.1328" style="stroke:#A80036;stroke-width:1.0;" width="10" x="1152.5" y="681.9531"/><rect fill="#FFFFFF" filter="url(#f1fyl9qersc7nq)" height="29.1328" style="stroke:#A80036;stroke-width:1.0;" width="10" x="1152.5" y="740.2188"/><rect fill="#FFFFFF" filter="url(#f1fyl9qersc7nq)" height="29.1328" style="stroke:#A80036;stroke-width:1.0;" width="10" x="1152.5" y="872.75"/><rect fill="#FFFFFF" filter="url(#f1fyl9qersc7nq)" height="29.1328" style="stroke:#A80036;stroke-width:1.0;" width="10" x="1152.5" y="931.0156"/><rect fill="#FFFFFF" filter="url(#f1fyl9qersc7nq)" height="29.1328" style="stroke:#A80036;stroke-width:1.0;" width="10" x="1268" y="119.4297"/><rect fill="#FFFFFF" filter="url(#f1fyl9qersc7nq)" height="9" style="stroke:#A80036;stroke-width:1.0;" width="10" x="1383.5" y="996.2813"/><rect fill="#FFFFFF" filter="url(#f1fyl9qersc7nq)" height="279.3281" style="stroke:#000000;stroke-width:2.0;" width="1228.5" x="10" y="498.0234"/><rect fill="#FFFFFF" filter="url(#f1fyl9qersc7nq)" height="133.6641" style="stroke:#000000;stroke-width:2.0;" width="464" x="774.5" y="834.4844"/><line style="stroke:#A80036;stroke-width:1.0;stroke-dasharray:5.0,5.0;" x1="47" x2="47" y1="88.2969" y2="1014.2813"/><line style="stroke:#A80036;stroke-width:1.0;stroke-dasharray:5.0,5.0;" x1="446" x2="446" y1="88.2969" y2="1014.2813"/><line style="stroke:#A80036;stroke-width:1.0;stroke-dasharray:5.0,5.0;" x1="598.5" x2="598.5" y1="88.2969" y2="1014.2813"/><line style="stroke:#A80036;stroke-width:1.0;stroke-dasharray:5.0,5.0;" x1="858.5" x2="858.5" y1="88.2969" y2="1014.2813"/><line style="stroke:#A80036;stroke-width:1.0;stroke-dasharray:5.0,5.0;" x1="1009.5" x2="1009.5" y1="88.2969" y2="1014.2813"/><line style="stroke:#A80036;stroke-width:1.0;stroke-dasharray:5.0,5.0;" x1="1157.5" x2="1157.5" y1="88.2969" y2="1014.2813"/><line style="stroke:#A80036;stroke-width:1.0;stroke-dasharray:5.0,5.0;" x1="1272.5" x2="1272.5" y1="88.2969" y2="1014.2813"/><line style="stroke:#A80036;stroke-width:1.0;stroke-dasharray:5.0,5.0;" x1="1388.5" x2="1388.5" y1="88.2969" y2="1014.2813"/><text fill="#000000" font-family="sans-serif" font-size="14" lengthAdjust="spacing" textLength="48" x="20" y="84.9951">Nutzer</text><ellipse cx="47" cy="15" fill="#FEFECE" filter="url(#f1fyl9qersc7nq)" rx="8" ry="8" style="stroke:#A80036;stroke-width:2.0;"/><path d="M47,23 L47,50 M34,31 L60,31 M47,50 L34,65 M47,50 L60,65 " fill="none" filter="url(#f1fyl9qersc7nq)" style="stroke:#A80036;stroke-width:2.0;"/><text fill="#000000" font-family="sans-serif" font-size="14" lengthAdjust="spacing" textLength="48" x="20" y="1026.2764">Nutzer</text><ellipse cx="47" cy="1039.5781" fill="#FEFECE" filter="url(#f1fyl9qersc7nq)" rx="8" ry="8" style="stroke:#A80036;stroke-width:2.0;"/><path d="M47,1047.5781 L47,1074.5781 M34,1055.5781 L60,1055.5781 M47,1074.5781 L34,1089.5781 M47,1074.5781 L60,1089.5781 " fill="none" filter="url(#f1fyl9qersc7nq)" style="stroke:#A80036;stroke-width:2.0;"/><text fill="#000000" font-family="sans-serif" font-size="14" lengthAdjust="spacing" textLength="54" x="416" y="84.9951">System</text><ellipse cx="446" cy="56" fill="#DA70D5" filter="url(#f1fyl9qersc7nq)" rx="12" ry="12" style="stroke:#A80036;stroke-width:2.0;"/><line style="stroke:#A80036;stroke-width:2.0;" x1="434" x2="458" y1="70" y2="70"/><text fill="#000000" font-family="sans-serif" font-size="14" lengthAdjust="spacing" textLength="54" x="416" y="1026.2764">System</text><ellipse cx="446" cy="1045.5781" fill="#DA70D5" filter="url(#f1fyl9qersc7nq)" rx="12" ry="12" style="stroke:#A80036;stroke-width:2.0;"/><line style="stroke:#A80036;stroke-width:2.0;" x1="434" x2="458" y1="1059.5781" y2="1059.5781"/><rect fill="#FEFECE" filter="url(#f1fyl9qersc7nq)" height="30.2969" style="stroke:#A80036;stroke-width:1.5;" width="157" x="518.5" y="53"/><text fill="#000000" font-family="sans-serif" font-size="14" lengthAdjust="spacing" textLength="143" x="525.5" y="72.9951">EyeTrackingTutorial</text><rect fill="#FEFECE" filter="url(#f1fyl9qersc7nq)" height="30.2969" style="stroke:#A80036;stroke-width:1.5;" width="157" x="518.5" y="1013.2813"/><text fill="#000000" font-family="sans-serif" font-size="14" lengthAdjust="spacing" textLength="143" x="525.5" y="1033.2764">EyeTrackingTutorial</text><rect fill="#FEFECE" filter="url(#f1fyl9qersc7nq)" height="30.2969" style="stroke:#A80036;stroke-width:1.5;" width="145" x="784.5" y="53"/><text fill="#000000" font-family="sans-serif" font-size="14" lengthAdjust="spacing" textLength="131" x="791.5" y="72.9951">EyeTrackingSetup</text><rect fill="#FEFECE" filter="url(#f1fyl9qersc7nq)" height="30.2969" style="stroke:#A80036;stroke-width:1.5;" width="145" x="784.5" y="1013.2813"/><text fill="#000000" font-family="sans-serif" font-size="14" lengthAdjust="spacing" textLength="131" x="791.5" y="1033.2764">EyeTrackingSetup</text><rect fill="#FEFECE" filter="url(#f1fyl9qersc7nq)" height="30.2969" style="stroke:#A80036;stroke-width:1.5;" width="129" x="943.5" y="53"/><text fill="#000000" font-family="sans-serif" font-size="14" lengthAdjust="spacing" textLength="115" x="950.5" y="72.9951">EyeTrackingBild</text><rect fill="#FEFECE" filter="url(#f1fyl9qersc7nq)" height="30.2969" style="stroke:#A80036;stroke-width:1.5;" width="129" x="943.5" y="1013.2813"/><text fill="#000000" font-family="sans-serif" font-size="14" lengthAdjust="spacing" textLength="115" x="950.5" y="1033.2764">EyeTrackingBild</text><rect fill="#FEFECE" filter="url(#f1fyl9qersc7nq)" height="30.2969" style="stroke:#A80036;stroke-width:1.5;" width="138" x="1086.5" y="53"/><text fill="#000000" font-family="sans-serif" font-size="14" lengthAdjust="spacing" textLength="124" x="1093.5" y="72.9951">EyeTrackingAuge</text><rect fill="#FEFECE" filter="url(#f1fyl9qersc7nq)" height="30.2969" style="stroke:#A80036;stroke-width:1.5;" width="138" x="1086.5" y="1013.2813"/><text fill="#000000" font-family="sans-serif" font-size="14" lengthAdjust="spacing" textLength="124" x="1093.5" y="1033.2764">EyeTrackingAuge</text><rect fill="#FEFECE" filter="url(#f1fyl9qersc7nq)" height="30.2969" style="stroke:#A80036;stroke-width:1.5;" width="61" x="1242.5" y="49"/><rect fill="#FEFECE" filter="url(#f1fyl9qersc7nq)" height="30.2969" style="stroke:#A80036;stroke-width:1.5;" width="61" x="1238.5" y="53"/><text fill="#000000" font-family="sans-serif" font-size="14" lengthAdjust="spacing" textLength="47" x="1245.5" y="72.9951">Config</text><rect fill="#FEFECE" filter="url(#f1fyl9qersc7nq)" height="30.2969" style="stroke:#A80036;stroke-width:1.5;" width="61" x="1242.5" y="1013.2813"/><rect fill="#FEFECE" filter="url(#f1fyl9qersc7nq)" height="30.2969" style="stroke:#A80036;stroke-width:1.5;" width="61" x="1238.5" y="1017.2813"/><text fill="#000000" font-family="sans-serif" font-size="14" lengthAdjust="spacing" textLength="47" x="1245.5" y="1037.2764">Config</text><rect fill="#FEFECE" filter="url(#f1fyl9qersc7nq)" height="30.2969" style="stroke:#A80036;stroke-width:1.5;" width="134" x="1321.5" y="49"/><rect fill="#FEFECE" filter="url(#f1fyl9qersc7nq)" height="30.2969" style="stroke:#A80036;stroke-width:1.5;" width="134" x="1317.5" y="53"/><text fill="#000000" font-family="sans-serif" font-size="14" lengthAdjust="spacing" textLength="120" x="1324.5" y="72.9951">SpeicherMedium</text><rect fill="#FEFECE" filter="url(#f1fyl9qersc7nq)" height="30.2969" style="stroke:#A80036;stroke-width:1.5;" width="134" x="1321.5" y="1013.2813"/><rect fill="#FEFECE" filter="url(#f1fyl9qersc7nq)" height="30.2969" style="stroke:#A80036;stroke-width:1.5;" width="134" x="1317.5" y="1017.2813"/><text fill="#000000" font-family="sans-serif" font-size="14" lengthAdjust="spacing" textLength="120" x="1324.5" y="1037.2764">SpeicherMedium</text><rect fill="#FFFFFF" filter="url(#f1fyl9qersc7nq)" height="906.9844" style="stroke:#A80036;stroke-width:1.0;" width="10" x="42" y="98.2969"/><rect fill="#FFFFFF" filter="url(#f1fyl9qersc7nq)" height="906.9844" style="stroke:#A80036;stroke-width:1.0;" width="10" x="441" y="98.2969"/><rect fill="#FFFFFF" filter="url(#f1fyl9qersc7nq)" height="116.5313" style="stroke:#A80036;stroke-width:1.0;" width="10" x="594" y="536.2891"/><rect fill="#FFFFFF" filter="url(#f1fyl9qersc7nq)" height="906.9844" style="stroke:#A80036;stroke-width:1.0;" width="10" x="854" y="98.2969"/><rect fill="#FFFFFF" filter="url(#f1fyl9qersc7nq)" height="87.3984" style="stroke:#A80036;stroke-width:1.0;" width="10" x="1005" y="177.6953"/><rect fill="#FFFFFF" filter="url(#f1fyl9qersc7nq)" height="29.1328" style="stroke:#A80036;stroke-width:1.0;" width="10" x="1152.5" y="323.3594"/><rect fill="#FFFFFF" filter="url(#f1fyl9qersc7nq)" height="29.1328" style="stroke:#A80036;stroke-width:1.0;" width="10" x="1152.5" y="681.9531"/><rect fill="#FFFFFF" filter="url(#f1fyl9qersc7nq)" height="29.1328" style="stroke:#A80036;stroke-width:1.0;" width="10" x="1152.5" y="740.2188"/><rect fill="#FFFFFF" filter="url(#f1fyl9qersc7nq)" height="29.1328" style="stroke:#A80036;stroke-width:1.0;" width="10" x="1152.5" y="872.75"/><rect fill="#FFFFFF" filter="url(#f1fyl9qersc7nq)" height="29.1328" style="stroke:#A80036;stroke-width:1.0;" width="10" x="1152.5" y="931.0156"/><rect fill="#FFFFFF" filter="url(#f1fyl9qersc7nq)" height="29.1328" style="stroke:#A80036;stroke-width:1.0;" width="10" x="1268" y="119.4297"/><rect fill="#FFFFFF" filter="url(#f1fyl9qersc7nq)" height="9" style="stroke:#A80036;stroke-width:1.0;" width="10" x="1383.5" y="996.2813"/><polygon fill="#A80036" points="1256,115.4297,1266,119.4297,1256,123.4297,1260,119.4297" style="stroke:#A80036;stroke-width:1.0;"/><line style="stroke:#A80036;stroke-width:1.0;" x1="864" x2="1262" y1="119.4297" y2="119.4297"/><text fill="#000000" font-family="sans-serif" font-size="13" lengthAdjust="spacing" textLength="62" x="871" y="114.3638">load Data</text><polygon fill="#A80036" points="875,144.5625,865,148.5625,875,152.5625,871,148.5625" style="stroke:#A80036;stroke-width:1.0;"/><line style="stroke:#A80036;stroke-width:1.0;stroke-dasharray:2.0,2.0;" x1="869" x2="1272" y1="148.5625" y2="148.5625"/><text fill="#000000" font-family="sans-serif" font-size="13" lengthAdjust="spacing" textLength="31" x="881" y="143.4966">Data</text><polygon fill="#A80036" points="462,173.6953,452,177.6953,462,181.6953,458,177.6953" style="stroke:#A80036;stroke-width:1.0;"/><line style="stroke:#A80036;stroke-width:1.0;" x1="456" x2="1004" y1="177.6953" y2="177.6953"/><text fill="#000000" font-family="sans-serif" font-size="13" lengthAdjust="spacing" textLength="119" x="468" y="172.6294">erfrage screensize</text><polygon fill="#A80036" points="993,202.8281,1003,206.8281,993,210.8281,997,206.8281" style="stroke:#A80036;stroke-width:1.0;"/><line style="stroke:#A80036;stroke-width:1.0;stroke-dasharray:2.0,2.0;" x1="451" x2="999" y1="206.8281" y2="206.8281"/><text fill="#000000" font-family="sans-serif" font-size="13" lengthAdjust="spacing" textLength="115" x="458" y="201.7622">screensize : int[2]</text><polygon fill="#A80036" points="993,231.9609,1003,235.9609,993,239.9609,997,235.9609" style="stroke:#A80036;stroke-width:1.0;"/><line style="stroke:#A80036;stroke-width:1.0;" x1="864" x2="999" y1="235.9609" y2="235.9609"/><text fill="#000000" font-family="sans-serif" font-size="13" lengthAdjust="spacing" textLength="110" x="871" y="230.895">loadGrid() : int[2]</text><polygon fill="#A80036" points="875,261.0938,865,265.0938,875,269.0938,871,265.0938" style="stroke:#A80036;stroke-width:1.0;"/><line style="stroke:#A80036;stroke-width:1.0;stroke-dasharray:2.0,2.0;" x1="869" x2="1009" y1="265.0938" y2="265.0938"/><text fill="#000000" font-family="sans-serif" font-size="13" lengthAdjust="spacing" textLength="115" x="881" y="260.0278">screensize : int[2]</text><polygon fill="#A80036" points="429,290.2266,439,294.2266,429,298.2266,433,294.2266" style="stroke:#A80036;stroke-width:1.0;"/><line style="stroke:#A80036;stroke-width:1.0;" x1="52" x2="435" y1="294.2266" y2="294.2266"/><text fill="#000000" font-family="sans-serif" font-size="13" lengthAdjust="spacing" textLength="365" x="59" y="289.1606">schaut auf den bildschirm und wird von Kamera gesehen</text><polygon fill="#A80036" points="462,319.3594,452,323.3594,462,327.3594,458,323.3594" style="stroke:#A80036;stroke-width:1.0;"/><line style="stroke:#A80036;stroke-width:1.0;" x1="456" x2="1151.5" y1="323.3594" y2="323.3594"/><text fill="#000000" font-family="sans-serif" font-size="13" lengthAdjust="spacing" textLength="127" x="468" y="318.2935">erfrage Camstream</text><polygon fill="#A80036" points="1145.5,348.4922,1155.5,352.4922,1145.5,356.4922,1149.5,352.4922" style="stroke:#A80036;stroke-width:1.0;"/><line style="stroke:#A80036;stroke-width:1.0;stroke-dasharray:2.0,2.0;" x1="451" x2="1151.5" y1="352.4922" y2="352.4922"/><text fill="#000000" font-family="sans-serif" font-size="13" lengthAdjust="spacing" textLength="201" x="458" y="347.4263">Camstream (sendet dauerhaft)</text><rect fill="#EEEEEE" filter="url(#f1fyl9qersc7nq)" height="3" style="stroke:#EEEEEE;stroke-width:1.0;" width="1464.5" x="0" y="381.0586"/><line style="stroke:#000000;stroke-width:1.0;" x1="0" x2="1464.5" y1="381.0586" y2="381.0586"/><line style="stroke:#000000;stroke-width:1.0;" x1="0" x2="1464.5" y1="384.0586" y2="384.0586"/><rect fill="#EEEEEE" filter="url(#f1fyl9qersc7nq)" height="23.1328" style="stroke:#000000;stroke-width:2.0;" width="81" x="691.75" y="370.4922"/><text fill="#000000" font-family="sans-serif" font-size="13" font-weight="bold" lengthAdjust="spacing" textLength="62" x="697.75" y="386.5591">Tutorial</text><polygon fill="#A80036" points="462,420.7578,452,424.7578,462,428.7578,458,424.7578" style="stroke:#A80036;stroke-width:1.0;"/><line style="stroke:#A80036;stroke-width:1.0;" x1="456" x2="853" y1="424.7578" y2="424.7578"/><text fill="#000000" font-family="sans-serif" font-size="13" lengthAdjust="spacing" textLength="96" x="468" y="419.6919">erfragt Distanz</text><polygon fill="#A80036" points="429,449.8906,439,453.8906,429,457.8906,433,453.8906" style="stroke:#A80036;stroke-width:1.0;"/><line style="stroke:#A80036;stroke-width:1.0;" x1="52" x2="435" y1="453.8906" y2="453.8906"/><text fill="#000000" font-family="sans-serif" font-size="13" lengthAdjust="spacing" textLength="134" x="59" y="448.8247">Eingabe per Tastatur</text><polygon fill="#A80036" points="842,479.0234,852,483.0234,842,487.0234,846,483.0234" style="stroke:#A80036;stroke-width:1.0;"/><line style="stroke:#A80036;stroke-width:1.0;stroke-dasharray:2.0,2.0;" x1="451" x2="848" y1="483.0234" y2="483.0234"/><text fill="#000000" font-family="sans-serif" font-size="13" lengthAdjust="spacing" textLength="90" x="458" y="477.9575">Distanz : float</text><path d="M10,498.0234 L88,498.0234 L88,505.0234 L78,515.0234 L10,515.0234 L10,498.0234 " fill="#EEEEEE" style="stroke:#000000;stroke-width:1.0;"/><rect fill="none" height="279.3281" style="stroke:#000000;stroke-width:2.0;" width="1228.5" x="10" y="498.0234"/><text fill="#000000" font-family="sans-serif" font-size="13" font-weight="bold" lengthAdjust="spacing" textLength="33" x="25" y="511.0903">loop</text><text fill="#000000" font-family="sans-serif" font-size="11" font-weight="bold" lengthAdjust="spacing" textLength="90" x="103" y="510.2339">[Kalibrierung]</text><polygon fill="#A80036" points="615,532.2891,605,536.2891,615,540.2891,611,536.2891" style="stroke:#A80036;stroke-width:1.0;"/><line style="stroke:#A80036;stroke-width:1.0;" x1="609" x2="853" y1="536.2891" y2="536.2891"/><text fill="#000000" font-family="sans-serif" font-size="13" lengthAdjust="spacing" textLength="231" x="621" y="531.2231">tutorialPosition(punkt : int[2]): int[2]</text><polygon fill="#A80036" points="462,561.4219,452,565.4219,462,569.4219,458,565.4219" style="stroke:#A80036;stroke-width:1.0;"/><line style="stroke:#A80036;stroke-width:1.0;" x1="456" x2="593" y1="565.4219" y2="565.4219"/><text fill="#000000" font-family="sans-serif" font-size="13" lengthAdjust="spacing" textLength="118" x="468" y="560.356">erfragt Mausdaten</text><polygon fill="#A80036" points="429,590.5547,439,594.5547,429,598.5547,433,594.5547" style="stroke:#A80036;stroke-width:1.0;"/><line style="stroke:#A80036;stroke-width:1.0;" x1="52" x2="435" y1="594.5547" y2="594.5547"/><text fill="#000000" font-family="sans-serif" font-size="13" lengthAdjust="spacing" textLength="195" x="59" y="589.4888">Positionsbestätigung mit Maus</text><polygon fill="#A80036" points="582,619.6875,592,623.6875,582,627.6875,586,623.6875" style="stroke:#A80036;stroke-width:1.0;"/><line style="stroke:#A80036;stroke-width:1.0;stroke-dasharray:2.0,2.0;" x1="451" x2="588" y1="623.6875" y2="623.6875"/><text fill="#000000" font-family="sans-serif" font-size="13" lengthAdjust="spacing" textLength="119" x="458" y="618.6216">Kalibrierungsdaten</text><polygon fill="#A80036" points="842,648.8203,852,652.8203,842,656.8203,846,652.8203" style="stroke:#A80036;stroke-width:1.0;"/><line style="stroke:#A80036;stroke-width:1.0;stroke-dasharray:2.0,2.0;" x1="599" x2="848" y1="652.8203" y2="652.8203"/><text fill="#000000" font-family="sans-serif" font-size="13" lengthAdjust="spacing" textLength="93" x="606" y="647.7544">position: int[2]</text><polygon fill="#A80036" points="1140.5,677.9531,1150.5,681.9531,1140.5,685.9531,1144.5,681.9531" style="stroke:#A80036;stroke-width:1.0;"/><line style="stroke:#A80036;stroke-width:1.0;" x1="864" x2="1146.5" y1="681.9531" y2="681.9531"/><text fill="#000000" font-family="sans-serif" font-size="13" lengthAdjust="spacing" textLength="115" x="871" y="676.8872">getEye() : float[2]</text><polygon fill="#A80036" points="875,707.0859,865,711.0859,875,715.0859,871,711.0859" style="stroke:#A80036;stroke-width:1.0;"/><line style="stroke:#A80036;stroke-width:1.0;stroke-dasharray:2.0,2.0;" x1="869" x2="1156.5" y1="711.0859" y2="711.0859"/><text fill="#000000" font-family="sans-serif" font-size="13" lengthAdjust="spacing" textLength="84" x="881" y="706.02">eye : float[2]</text><polygon fill="#A80036" points="1140.5,736.2188,1150.5,740.2188,1140.5,744.2188,1144.5,740.2188" style="stroke:#A80036;stroke-width:1.0;"/><line style="stroke:#A80036;stroke-width:1.0;" x1="864" x2="1146.5" y1="740.2188" y2="740.2188"/><text fill="#000000" font-family="sans-serif" font-size="13" lengthAdjust="spacing" textLength="121" x="871" y="735.1528">getPupil() : float[2]</text><polygon fill="#A80036" points="875,765.3516,865,769.3516,875,773.3516,871,769.3516" style="stroke:#A80036;stroke-width:1.0;"/><line style="stroke:#A80036;stroke-width:1.0;stroke-dasharray:2.0,2.0;" x1="869" x2="1156.5" y1="769.3516" y2="769.3516"/><text fill="#000000" font-family="sans-serif" font-size="13" lengthAdjust="spacing" textLength="90" x="881" y="764.2856">Pupil : float[2]</text><rect fill="#EEEEEE" filter="url(#f1fyl9qersc7nq)" height="3" style="stroke:#EEEEEE;stroke-width:1.0;" width="1464.5" x="0" y="804.918"/><line style="stroke:#000000;stroke-width:1.0;" x1="0" x2="1464.5" y1="804.918" y2="804.918"/><line style="stroke:#000000;stroke-width:1.0;" x1="0" x2="1464.5" y1="807.918" y2="807.918"/><rect fill="#EEEEEE" filter="url(#f1fyl9qersc7nq)" height="23.1328" style="stroke:#000000;stroke-width:2.0;" width="79" x="692.75" y="794.3516"/><text fill="#000000" font-family="sans-serif" font-size="13" font-weight="bold" lengthAdjust="spacing" textLength="60" x="698.75" y="810.4185">Versuch</text><path d="M774.5,834.4844 L852.5,834.4844 L852.5,841.4844 L842.5,851.4844 L774.5,851.4844 L774.5,834.4844 " fill="#EEEEEE" style="stroke:#000000;stroke-width:1.0;"/><rect fill="none" height="133.6641" style="stroke:#000000;stroke-width:2.0;" width="464" x="774.5" y="834.4844"/><text fill="#000000" font-family="sans-serif" font-size="13" font-weight="bold" lengthAdjust="spacing" textLength="33" x="789.5" y="847.5513">loop</text><text fill="#000000" font-family="sans-serif" font-size="11" font-weight="bold" lengthAdjust="spacing" textLength="89" x="867.5" y="846.6948">[Visual input]</text><polygon fill="#A80036" points="1140.5,868.75,1150.5,872.75,1140.5,876.75,1144.5,872.75" style="stroke:#A80036;stroke-width:1.0;"/><line style="stroke:#A80036;stroke-width:1.0;" x1="864" x2="1146.5" y1="872.75" y2="872.75"/><text fill="#000000" font-family="sans-serif" font-size="13" lengthAdjust="spacing" textLength="115" x="871" y="867.6841">getEye() : float[2]</text><polygon fill="#A80036" points="875,897.8828,865,901.8828,875,905.8828,871,901.8828" style="stroke:#A80036;stroke-width:1.0;"/><line style="stroke:#A80036;stroke-width:1.0;stroke-dasharray:2.0,2.0;" x1="869" x2="1156.5" y1="901.8828" y2="901.8828"/><text fill="#000000" font-family="sans-serif" font-size="13" lengthAdjust="spacing" textLength="84" x="881" y="896.8169">eye : float[2]</text><polygon fill="#A80036" points="1140.5,927.0156,1150.5,931.0156,1140.5,935.0156,1144.5,931.0156" style="stroke:#A80036;stroke-width:1.0;"/><line style="stroke:#A80036;stroke-width:1.0;" x1="864" x2="1146.5" y1="931.0156" y2="931.0156"/><text fill="#000000" font-family="sans-serif" font-size="13" lengthAdjust="spacing" textLength="121" x="871" y="925.9497">getPupil() : float[2]</text><polygon fill="#A80036" points="875,956.1484,865,960.1484,875,964.1484,871,960.1484" style="stroke:#A80036;stroke-width:1.0;"/><line style="stroke:#A80036;stroke-width:1.0;stroke-dasharray:2.0,2.0;" x1="869" x2="1156.5" y1="960.1484" y2="960.1484"/><text fill="#000000" font-family="sans-serif" font-size="13" lengthAdjust="spacing" textLength="90" x="881" y="955.0825">Pupil : float[2]</text><polygon fill="#A80036" points="1371.5,992.2813,1381.5,996.2813,1371.5,1000.2813,1375.5,996.2813" style="stroke:#A80036;stroke-width:1.0;"/><line style="stroke:#A80036;stroke-width:1.0;" x1="864" x2="1377.5" y1="996.2813" y2="996.2813"/><text fill="#000000" font-family="sans-serif" font-size="13" lengthAdjust="spacing" textLength="66" x="871" y="991.2153">save Data</text><!--MD5=[ab0cfe48c799078934baa75433127222]
@startuml
actor       Nutzer          as n
entity      System          as s    #DA70D5

box EyeTracking
participant EyeTrackingTutorial    as et
participant EyeTrackingSetup       as es
participant EyeTrackingBild        as eb
participant EyeTrackingAuge        as ea
end box

collections Config          as c
collections SpeicherMedium  as sm

activate n
activate s

activate es
es -> c : load Data
activate c
c - -> es : Data
deactivate c
eb -> s : erfrage screensize
activate eb
s - -> eb : screensize : int[2]
es -> eb : loadGrid() : int[2]
eb - -> es : screensize : int[2]
deactivate eb
n -> s : schaut auf den bildschirm und wird von Kamera gesehen 
ea -> s : erfrage Camstream
activate ea
s - -> ea : Camstream (sendet dauerhaft)
deactivate ea

== Tutorial ==
es -> s : erfragt Distanz
n -> s : Eingabe per Tastatur
s - -> es : Distanz : float
loop Kalibrierung
  es -> et : tutorialPosition(punkt : int[2]): int[2]
  activate et
  et -> s : erfragt Mausdaten
  n -> s : Positionsbestätigung mit Maus
  s - -> et : Kalibrierungsdaten
  et - -> es : position: int[2]
  deactivate et
  es -> ea : getEye() : float[2]
  activate ea
  ea - -> es : eye : float[2]
  deactivate ea
  es -> ea : getPupil() : float[2]
  activate ea
  ea - -> es : Pupil : float[2]
  deactivate ea
end

== Versuch ==
loop Visual input
  es -> ea : getEye() : float[2]
  activate ea
  ea - -> es : eye : float[2]
  deactivate ea
  es -> ea : getPupil() : float[2]
  activate ea
  ea - -> es : Pupil : float[2]
  deactivate ea
end
es -> sm: save Data
activate sm
@enduml

PlantUML version 1.2021.14(Fri Nov 12 16:46:50 UTC 2021)
(GPL source distribution)
Java Runtime: Java(TM) SE Runtime Environment
JVM: Java HotSpot(TM) 64-Bit Server VM
Default Encoding: UTF-8
Language: en
Country: US
--></g></svg>