<?xml version="1.0" encoding="UTF-8" standalone="no"?><svg xmlns="http://www.w3.org/2000/svg" xmlns:xlink="http://www.w3.org/1999/xlink" contentScriptType="application/ecmascript" contentStyleType="text/css" height="1490px" preserveAspectRatio="none" style="width:1471px;height:1490px;background:#FFFFFF;" version="1.1" viewBox="0 0 1471 1490" width="1471px" zoomAndPan="magnify"><defs><filter height="300%" id="fg50ti77b407m" width="300%" x="-1" y="-1"><feGaussianBlur result="blurOut" stdDeviation="2.0"/><feColorMatrix in="blurOut" result="blurOut2" type="matrix" values="0 0 0 0 0 0 0 0 0 0 0 0 0 0 0 0 0 0 .4 0"/><feOffset dx="4.0" dy="4.0" in="blurOut2" result="blurOut3"/><feBlend in="SourceGraphic" in2="blurOut3" mode="normal"/></filter></defs><g><rect fill="#DDDDDD" height="1478.1719" style="stroke:#A80036;stroke-width:1.0;" width="718" x="514.5" y="6"/><text fill="#000000" font-family="sans-serif" font-size="13" font-weight="bold" lengthAdjust="spacing" textLength="92" x="827.5" y="18.0669">EyeTracking</text><rect fill="#FFFFFF" filter="url(#fg50ti77b407m)" height="1290.5781" style="stroke:#A80036;stroke-width:1.0;" width="10" x="42" y="98.2969"/><rect fill="#FFFFFF" filter="url(#fg50ti77b407m)" height="1290.5781" style="stroke:#A80036;stroke-width:1.0;" width="10" x="441" y="98.2969"/><rect fill="#FFFFFF" filter="url(#fg50ti77b407m)" height="116.5313" style="stroke:#A80036;stroke-width:1.0;" width="10" x="594" y="639.6875"/><rect fill="#FFFFFF" filter="url(#fg50ti77b407m)" height="1290.5781" style="stroke:#A80036;stroke-width:1.0;" width="10" x="854" y="98.2969"/><rect fill="#FFFFFF" filter="url(#fg50ti77b407m)" height="87.3984" style="stroke:#A80036;stroke-width:1.0;" width="10" x="1005" y="220.8281"/><rect fill="#FFFFFF" filter="url(#fg50ti77b407m)" height="58.2656" style="stroke:#A80036;stroke-width:1.0;" width="10" x="1152.5" y="390.625"/><rect fill="#FFFFFF" filter="url(#fg50ti77b407m)" height="58.2656" style="stroke:#A80036;stroke-width:1.0;" width="10" x="1152.5" y="809.4844"/><rect fill="#FFFFFF" filter="url(#fg50ti77b407m)" height="29.1328" style="stroke:#A80036;stroke-width:1.0;" width="10" x="1152.5" y="903.8828"/><rect fill="#FFFFFF" filter="url(#fg50ti77b407m)" height="29.1328" style="stroke:#A80036;stroke-width:1.0;" width="10" x="1152.5" y="962.1484"/><rect fill="#FFFFFF" filter="url(#fg50ti77b407m)" height="58.2656" style="stroke:#A80036;stroke-width:1.0;" width="10" x="1152.5" y="1118.8125"/><rect fill="#FFFFFF" filter="url(#fg50ti77b407m)" height="29.1328" style="stroke:#A80036;stroke-width:1.0;" width="10" x="1152.5" y="1213.2109"/><rect fill="#FFFFFF" filter="url(#fg50ti77b407m)" height="29.1328" style="stroke:#A80036;stroke-width:1.0;" width="10" x="1152.5" y="1271.4766"/><rect fill="#FFFFFF" filter="url(#fg50ti77b407m)" height="29.1328" style="stroke:#A80036;stroke-width:1.0;" width="10" x="1268" y="162.5625"/><rect fill="#FFFFFF" filter="url(#fg50ti77b407m)" height="9" style="stroke:#A80036;stroke-width:1.0;" width="10" x="1383.5" y="1379.875"/><rect fill="#FFFFFF" filter="url(#fg50ti77b407m)" height="104.5313" style="stroke:#000000;stroke-width:2.0;" width="832.5" x="406" y="352.3594"/><rect fill="#FFFFFF" filter="url(#fg50ti77b407m)" height="397.8594" style="stroke:#000000;stroke-width:2.0;" width="1238.5" x="10" y="601.4219"/><rect fill="#FFFFFF" filter="url(#fg50ti77b407m)" height="104.5313" style="stroke:#000000;stroke-width:2.0;" width="832.5" x="406" y="771.2188"/><rect fill="#FFFFFF" filter="url(#fg50ti77b407m)" height="252.1953" style="stroke:#000000;stroke-width:2.0;" width="852.5" x="396" y="1056.4141"/><rect fill="#FFFFFF" filter="url(#fg50ti77b407m)" height="104.5313" style="stroke:#000000;stroke-width:2.0;" width="832.5" x="406" y="1080.5469"/><line style="stroke:#A80036;stroke-width:1.0;stroke-dasharray:5.0,5.0;" x1="47" x2="47" y1="88.2969" y2="1397.875"/><line style="stroke:#A80036;stroke-width:1.0;stroke-dasharray:5.0,5.0;" x1="446" x2="446" y1="88.2969" y2="1397.875"/><line style="stroke:#A80036;stroke-width:1.0;stroke-dasharray:5.0,5.0;" x1="598.5" x2="598.5" y1="88.2969" y2="1397.875"/><line style="stroke:#A80036;stroke-width:1.0;stroke-dasharray:5.0,5.0;" x1="858.5" x2="858.5" y1="88.2969" y2="1397.875"/><line style="stroke:#A80036;stroke-width:1.0;stroke-dasharray:5.0,5.0;" x1="1009.5" x2="1009.5" y1="88.2969" y2="1397.875"/><line style="stroke:#A80036;stroke-width:1.0;stroke-dasharray:5.0,5.0;" x1="1157.5" x2="1157.5" y1="88.2969" y2="1397.875"/><line style="stroke:#A80036;stroke-width:1.0;stroke-dasharray:5.0,5.0;" x1="1272.5" x2="1272.5" y1="88.2969" y2="1397.875"/><line style="stroke:#A80036;stroke-width:1.0;stroke-dasharray:5.0,5.0;" x1="1388.5" x2="1388.5" y1="88.2969" y2="1397.875"/><text fill="#000000" font-family="sans-serif" font-size="14" lengthAdjust="spacing" textLength="48" x="20" y="84.9951">Nutzer</text><ellipse cx="47" cy="15" fill="#FEFECE" filter="url(#fg50ti77b407m)" rx="8" ry="8" style="stroke:#A80036;stroke-width:2.0;"/><path d="M47,23 L47,50 M34,31 L60,31 M47,50 L34,65 M47,50 L60,65 " fill="none" filter="url(#fg50ti77b407m)" style="stroke:#A80036;stroke-width:2.0;"/><text fill="#000000" font-family="sans-serif" font-size="14" lengthAdjust="spacing" textLength="48" x="20" y="1409.8701">Nutzer</text><ellipse cx="47" cy="1423.1719" fill="#FEFECE" filter="url(#fg50ti77b407m)" rx="8" ry="8" style="stroke:#A80036;stroke-width:2.0;"/><path d="M47,1431.1719 L47,1458.1719 M34,1439.1719 L60,1439.1719 M47,1458.1719 L34,1473.1719 M47,1458.1719 L60,1473.1719 " fill="none" filter="url(#fg50ti77b407m)" style="stroke:#A80036;stroke-width:2.0;"/><text fill="#000000" font-family="sans-serif" font-size="14" lengthAdjust="spacing" textLength="54" x="416" y="84.9951">System</text><ellipse cx="446" cy="56" fill="#DA70D5" filter="url(#fg50ti77b407m)" rx="12" ry="12" style="stroke:#A80036;stroke-width:2.0;"/><line style="stroke:#A80036;stroke-width:2.0;" x1="434" x2="458" y1="70" y2="70"/><text fill="#000000" font-family="sans-serif" font-size="14" lengthAdjust="spacing" textLength="54" x="416" y="1409.8701">System</text><ellipse cx="446" cy="1429.1719" fill="#DA70D5" filter="url(#fg50ti77b407m)" rx="12" ry="12" style="stroke:#A80036;stroke-width:2.0;"/><line style="stroke:#A80036;stroke-width:2.0;" x1="434" x2="458" y1="1443.1719" y2="1443.1719"/><rect fill="#FEFECE" filter="url(#fg50ti77b407m)" height="30.2969" style="stroke:#A80036;stroke-width:1.5;" width="157" x="518.5" y="53"/><text fill="#000000" font-family="sans-serif" font-size="14" lengthAdjust="spacing" textLength="143" x="525.5" y="72.9951">EyeTrackingTutorial</text><rect fill="#FEFECE" filter="url(#fg50ti77b407m)" height="30.2969" style="stroke:#A80036;stroke-width:1.5;" width="157" x="518.5" y="1396.875"/><text fill="#000000" font-family="sans-serif" font-size="14" lengthAdjust="spacing" textLength="143" x="525.5" y="1416.8701">EyeTrackingTutorial</text><rect fill="#FEFECE" filter="url(#fg50ti77b407m)" height="30.2969" style="stroke:#A80036;stroke-width:1.5;" width="145" x="784.5" y="53"/><text fill="#000000" font-family="sans-serif" font-size="14" lengthAdjust="spacing" textLength="131" x="791.5" y="72.9951">EyeTrackingSetup</text><rect fill="#FEFECE" filter="url(#fg50ti77b407m)" height="30.2969" style="stroke:#A80036;stroke-width:1.5;" width="145" x="784.5" y="1396.875"/><text fill="#000000" font-family="sans-serif" font-size="14" lengthAdjust="spacing" textLength="131" x="791.5" y="1416.8701">EyeTrackingSetup</text><rect fill="#FEFECE" filter="url(#fg50ti77b407m)" height="30.2969" style="stroke:#A80036;stroke-width:1.5;" width="129" x="943.5" y="53"/><text fill="#000000" font-family="sans-serif" font-size="14" lengthAdjust="spacing" textLength="115" x="950.5" y="72.9951">EyeTrackingBild</text><rect fill="#FEFECE" filter="url(#fg50ti77b407m)" height="30.2969" style="stroke:#A80036;stroke-width:1.5;" width="129" x="943.5" y="1396.875"/><text fill="#000000" font-family="sans-serif" font-size="14" lengthAdjust="spacing" textLength="115" x="950.5" y="1416.8701">EyeTrackingBild</text><rect fill="#FEFECE" filter="url(#fg50ti77b407m)" height="30.2969" style="stroke:#A80036;stroke-width:1.5;" width="138" x="1086.5" y="53"/><text fill="#000000" font-family="sans-serif" font-size="14" lengthAdjust="spacing" textLength="124" x="1093.5" y="72.9951">EyeTrackingAuge</text><rect fill="#FEFECE" filter="url(#fg50ti77b407m)" height="30.2969" style="stroke:#A80036;stroke-width:1.5;" width="138" x="1086.5" y="1396.875"/><text fill="#000000" font-family="sans-serif" font-size="14" lengthAdjust="spacing" textLength="124" x="1093.5" y="1416.8701">EyeTrackingAuge</text><rect fill="#FEFECE" filter="url(#fg50ti77b407m)" height="30.2969" style="stroke:#A80036;stroke-width:1.5;" width="61" x="1242.5" y="49"/><rect fill="#FEFECE" filter="url(#fg50ti77b407m)" height="30.2969" style="stroke:#A80036;stroke-width:1.5;" width="61" x="1238.5" y="53"/><text fill="#000000" font-family="sans-serif" font-size="14" lengthAdjust="spacing" textLength="47" x="1245.5" y="72.9951">Config</text><rect fill="#FEFECE" filter="url(#fg50ti77b407m)" height="30.2969" style="stroke:#A80036;stroke-width:1.5;" width="61" x="1242.5" y="1396.875"/><rect fill="#FEFECE" filter="url(#fg50ti77b407m)" height="30.2969" style="stroke:#A80036;stroke-width:1.5;" width="61" x="1238.5" y="1400.875"/><text fill="#000000" font-family="sans-serif" font-size="14" lengthAdjust="spacing" textLength="47" x="1245.5" y="1420.8701">Config</text><rect fill="#FEFECE" filter="url(#fg50ti77b407m)" height="30.2969" style="stroke:#A80036;stroke-width:1.5;" width="134" x="1321.5" y="49"/><rect fill="#FEFECE" filter="url(#fg50ti77b407m)" height="30.2969" style="stroke:#A80036;stroke-width:1.5;" width="134" x="1317.5" y="53"/><text fill="#000000" font-family="sans-serif" font-size="14" lengthAdjust="spacing" textLength="120" x="1324.5" y="72.9951">SpeicherMedium</text><rect fill="#FEFECE" filter="url(#fg50ti77b407m)" height="30.2969" style="stroke:#A80036;stroke-width:1.5;" width="134" x="1321.5" y="1396.875"/><rect fill="#FEFECE" filter="url(#fg50ti77b407m)" height="30.2969" style="stroke:#A80036;stroke-width:1.5;" width="134" x="1317.5" y="1400.875"/><text fill="#000000" font-family="sans-serif" font-size="14" lengthAdjust="spacing" textLength="120" x="1324.5" y="1420.8701">SpeicherMedium</text><rect fill="#FFFFFF" filter="url(#fg50ti77b407m)" height="1290.5781" style="stroke:#A80036;stroke-width:1.0;" width="10" x="42" y="98.2969"/><rect fill="#FFFFFF" filter="url(#fg50ti77b407m)" height="1290.5781" style="stroke:#A80036;stroke-width:1.0;" width="10" x="441" y="98.2969"/><rect fill="#FFFFFF" filter="url(#fg50ti77b407m)" height="116.5313" style="stroke:#A80036;stroke-width:1.0;" width="10" x="594" y="639.6875"/><rect fill="#FFFFFF" filter="url(#fg50ti77b407m)" height="1290.5781" style="stroke:#A80036;stroke-width:1.0;" width="10" x="854" y="98.2969"/><rect fill="#FFFFFF" filter="url(#fg50ti77b407m)" height="87.3984" style="stroke:#A80036;stroke-width:1.0;" width="10" x="1005" y="220.8281"/><rect fill="#FFFFFF" filter="url(#fg50ti77b407m)" height="58.2656" style="stroke:#A80036;stroke-width:1.0;" width="10" x="1152.5" y="390.625"/><rect fill="#FFFFFF" filter="url(#fg50ti77b407m)" height="58.2656" style="stroke:#A80036;stroke-width:1.0;" width="10" x="1152.5" y="809.4844"/><rect fill="#FFFFFF" filter="url(#fg50ti77b407m)" height="29.1328" style="stroke:#A80036;stroke-width:1.0;" width="10" x="1152.5" y="903.8828"/><rect fill="#FFFFFF" filter="url(#fg50ti77b407m)" height="29.1328" style="stroke:#A80036;stroke-width:1.0;" width="10" x="1152.5" y="962.1484"/><rect fill="#FFFFFF" filter="url(#fg50ti77b407m)" height="58.2656" style="stroke:#A80036;stroke-width:1.0;" width="10" x="1152.5" y="1118.8125"/><rect fill="#FFFFFF" filter="url(#fg50ti77b407m)" height="29.1328" style="stroke:#A80036;stroke-width:1.0;" width="10" x="1152.5" y="1213.2109"/><rect fill="#FFFFFF" filter="url(#fg50ti77b407m)" height="29.1328" style="stroke:#A80036;stroke-width:1.0;" width="10" x="1152.5" y="1271.4766"/><rect fill="#FFFFFF" filter="url(#fg50ti77b407m)" height="29.1328" style="stroke:#A80036;stroke-width:1.0;" width="10" x="1268" y="162.5625"/><rect fill="#FFFFFF" filter="url(#fg50ti77b407m)" height="9" style="stroke:#A80036;stroke-width:1.0;" width="10" x="1383.5" y="1379.875"/><rect fill="#EEEEEE" filter="url(#fg50ti77b407m)" height="3" style="stroke:#EEEEEE;stroke-width:1.0;" width="1464.5" x="0" y="118.8633"/><line style="stroke:#000000;stroke-width:1.0;" x1="0" x2="1464.5" y1="118.8633" y2="118.8633"/><line style="stroke:#000000;stroke-width:1.0;" x1="0" x2="1464.5" y1="121.8633" y2="121.8633"/><rect fill="#EEEEEE" filter="url(#fg50ti77b407m)" height="23.1328" style="stroke:#000000;stroke-width:2.0;" width="137" x="663.75" y="108.2969"/><text fill="#000000" font-family="sans-serif" font-size="13" font-weight="bold" lengthAdjust="spacing" textLength="118" x="669.75" y="124.3638">Vorbereitungen</text><polygon fill="#A80036" points="1256,158.5625,1266,162.5625,1256,166.5625,1260,162.5625" style="stroke:#A80036;stroke-width:1.0;"/><line style="stroke:#A80036;stroke-width:1.0;" x1="864" x2="1262" y1="162.5625" y2="162.5625"/><text fill="#000000" font-family="sans-serif" font-size="13" lengthAdjust="spacing" textLength="62" x="871" y="157.4966">load Data</text><polygon fill="#A80036" points="875,187.6953,865,191.6953,875,195.6953,871,191.6953" style="stroke:#A80036;stroke-width:1.0;"/><line style="stroke:#A80036;stroke-width:1.0;stroke-dasharray:2.0,2.0;" x1="869" x2="1272" y1="191.6953" y2="191.6953"/><text fill="#000000" font-family="sans-serif" font-size="13" lengthAdjust="spacing" textLength="31" x="881" y="186.6294">Data</text><polygon fill="#A80036" points="993,216.8281,1003,220.8281,993,224.8281,997,220.8281" style="stroke:#A80036;stroke-width:1.0;"/><line style="stroke:#A80036;stroke-width:1.0;" x1="864" x2="999" y1="220.8281" y2="220.8281"/><text fill="#000000" font-family="sans-serif" font-size="13" lengthAdjust="spacing" textLength="110" x="871" y="215.7622">loadGrid() : int[2]</text><polygon fill="#A80036" points="462,245.9609,452,249.9609,462,253.9609,458,249.9609" style="stroke:#A80036;stroke-width:1.0;"/><line style="stroke:#A80036;stroke-width:1.0;" x1="456" x2="1004" y1="249.9609" y2="249.9609"/><text fill="#000000" font-family="sans-serif" font-size="13" lengthAdjust="spacing" textLength="119" x="468" y="244.895">erfrage screensize</text><polygon fill="#A80036" points="993,275.0938,1003,279.0938,993,283.0938,997,279.0938" style="stroke:#A80036;stroke-width:1.0;"/><line style="stroke:#A80036;stroke-width:1.0;stroke-dasharray:2.0,2.0;" x1="451" x2="999" y1="279.0938" y2="279.0938"/><text fill="#000000" font-family="sans-serif" font-size="13" lengthAdjust="spacing" textLength="115" x="458" y="274.0278">screensize : int[2]</text><polygon fill="#A80036" points="875,304.2266,865,308.2266,875,312.2266,871,308.2266" style="stroke:#A80036;stroke-width:1.0;"/><line style="stroke:#A80036;stroke-width:1.0;stroke-dasharray:2.0,2.0;" x1="869" x2="1009" y1="308.2266" y2="308.2266"/><text fill="#000000" font-family="sans-serif" font-size="13" lengthAdjust="spacing" textLength="115" x="881" y="303.1606">screensize : int[2]</text><polygon fill="#A80036" points="429,333.3594,439,337.3594,429,341.3594,433,337.3594" style="stroke:#A80036;stroke-width:1.0;"/><line style="stroke:#A80036;stroke-width:1.0;" x1="52" x2="435" y1="337.3594" y2="337.3594"/><text fill="#000000" font-family="sans-serif" font-size="13" lengthAdjust="spacing" textLength="365" x="59" y="332.2935">schaut auf den bildschirm und wird von Kamera gesehen</text><path d="M406,352.3594 L472,352.3594 L472,359.3594 L462,369.3594 L406,369.3594 L406,352.3594 " fill="#EEEEEE" style="stroke:#000000;stroke-width:1.0;"/><rect fill="none" height="104.5313" style="stroke:#000000;stroke-width:2.0;" width="832.5" x="406" y="352.3594"/><text fill="#000000" font-family="sans-serif" font-size="13" font-weight="bold" lengthAdjust="spacing" textLength="21" x="421" y="365.4263">alt</text><text fill="#000000" font-family="sans-serif" font-size="11" font-weight="bold" lengthAdjust="spacing" textLength="530" x="487" y="364.5698">[Müsste dauerhaft ausgeführt werden. Genaue Umsetzung noch Verhandelbar.]</text><polygon fill="#A80036" points="1140.5,386.625,1150.5,390.625,1140.5,394.625,1144.5,390.625" style="stroke:#A80036;stroke-width:1.0;"/><line style="stroke:#A80036;stroke-width:1.0;" x1="864" x2="1146.5" y1="390.625" y2="390.625"/><text fill="#000000" font-family="sans-serif" font-size="13" lengthAdjust="spacing" textLength="127" x="871" y="385.5591">startStream() : void</text><polygon fill="#A80036" points="462,415.7578,452,419.7578,462,423.7578,458,419.7578" style="stroke:#A80036;stroke-width:1.0;"/><line style="stroke:#A80036;stroke-width:1.0;" x1="456" x2="1151.5" y1="419.7578" y2="419.7578"/><text fill="#000000" font-family="sans-serif" font-size="13" lengthAdjust="spacing" textLength="127" x="468" y="414.6919">erfrage Camstream</text><polygon fill="#A80036" points="1145.5,444.8906,1155.5,448.8906,1145.5,452.8906,1149.5,448.8906" style="stroke:#A80036;stroke-width:1.0;"/><line style="stroke:#A80036;stroke-width:1.0;stroke-dasharray:2.0,2.0;" x1="451" x2="1151.5" y1="448.8906" y2="448.8906"/><text fill="#000000" font-family="sans-serif" font-size="13" lengthAdjust="spacing" textLength="201" x="458" y="443.8247">Camstream (sendet dauerhaft)</text><rect fill="#EEEEEE" filter="url(#fg50ti77b407m)" height="3" style="stroke:#EEEEEE;stroke-width:1.0;" width="1464.5" x="0" y="484.457"/><line style="stroke:#000000;stroke-width:1.0;" x1="0" x2="1464.5" y1="484.457" y2="484.457"/><line style="stroke:#000000;stroke-width:1.0;" x1="0" x2="1464.5" y1="487.457" y2="487.457"/><rect fill="#EEEEEE" filter="url(#fg50ti77b407m)" height="23.1328" style="stroke:#000000;stroke-width:2.0;" width="81" x="691.75" y="473.8906"/><text fill="#000000" font-family="sans-serif" font-size="13" font-weight="bold" lengthAdjust="spacing" textLength="62" x="697.75" y="489.9575">Tutorial</text><polygon fill="#A80036" points="462,524.1563,452,528.1563,462,532.1563,458,528.1563" style="stroke:#A80036;stroke-width:1.0;"/><line style="stroke:#A80036;stroke-width:1.0;" x1="456" x2="853" y1="528.1563" y2="528.1563"/><text fill="#000000" font-family="sans-serif" font-size="13" lengthAdjust="spacing" textLength="96" x="468" y="523.0903">erfragt Distanz</text><polygon fill="#A80036" points="429,553.2891,439,557.2891,429,561.2891,433,557.2891" style="stroke:#A80036;stroke-width:1.0;"/><line style="stroke:#A80036;stroke-width:1.0;" x1="52" x2="435" y1="557.2891" y2="557.2891"/><text fill="#000000" font-family="sans-serif" font-size="13" lengthAdjust="spacing" textLength="134" x="59" y="552.2231">Eingabe per Tastatur</text><polygon fill="#A80036" points="842,582.4219,852,586.4219,842,590.4219,846,586.4219" style="stroke:#A80036;stroke-width:1.0;"/><line style="stroke:#A80036;stroke-width:1.0;stroke-dasharray:2.0,2.0;" x1="451" x2="848" y1="586.4219" y2="586.4219"/><text fill="#000000" font-family="sans-serif" font-size="13" lengthAdjust="spacing" textLength="90" x="458" y="581.356">Distanz : float</text><path d="M10,601.4219 L88,601.4219 L88,608.4219 L78,618.4219 L10,618.4219 L10,601.4219 " fill="#EEEEEE" style="stroke:#000000;stroke-width:1.0;"/><rect fill="none" height="397.8594" style="stroke:#000000;stroke-width:2.0;" width="1238.5" x="10" y="601.4219"/><text fill="#000000" font-family="sans-serif" font-size="13" font-weight="bold" lengthAdjust="spacing" textLength="33" x="25" y="614.4888">loop</text><text fill="#000000" font-family="sans-serif" font-size="11" font-weight="bold" lengthAdjust="spacing" textLength="90" x="103" y="613.6323">[Kalibrierung]</text><polygon fill="#A80036" points="615,635.6875,605,639.6875,615,643.6875,611,639.6875" style="stroke:#A80036;stroke-width:1.0;"/><line style="stroke:#A80036;stroke-width:1.0;" x1="609" x2="853" y1="639.6875" y2="639.6875"/><text fill="#000000" font-family="sans-serif" font-size="13" lengthAdjust="spacing" textLength="231" x="621" y="634.6216">tutorialPosition(punkt : int[2]): int[2]</text><polygon fill="#A80036" points="462,664.8203,452,668.8203,462,672.8203,458,668.8203" style="stroke:#A80036;stroke-width:1.0;"/><line style="stroke:#A80036;stroke-width:1.0;" x1="456" x2="593" y1="668.8203" y2="668.8203"/><text fill="#000000" font-family="sans-serif" font-size="13" lengthAdjust="spacing" textLength="118" x="468" y="663.7544">erfragt Mausdaten</text><polygon fill="#A80036" points="429,693.9531,439,697.9531,429,701.9531,433,697.9531" style="stroke:#A80036;stroke-width:1.0;"/><line style="stroke:#A80036;stroke-width:1.0;" x1="52" x2="435" y1="697.9531" y2="697.9531"/><text fill="#000000" font-family="sans-serif" font-size="13" lengthAdjust="spacing" textLength="195" x="59" y="692.8872">Positionsbestätigung mit Maus</text><polygon fill="#A80036" points="582,723.0859,592,727.0859,582,731.0859,586,727.0859" style="stroke:#A80036;stroke-width:1.0;"/><line style="stroke:#A80036;stroke-width:1.0;stroke-dasharray:2.0,2.0;" x1="451" x2="588" y1="727.0859" y2="727.0859"/><text fill="#000000" font-family="sans-serif" font-size="13" lengthAdjust="spacing" textLength="119" x="458" y="722.02">Kalibrierungsdaten</text><polygon fill="#A80036" points="842,752.2188,852,756.2188,842,760.2188,846,756.2188" style="stroke:#A80036;stroke-width:1.0;"/><line style="stroke:#A80036;stroke-width:1.0;stroke-dasharray:2.0,2.0;" x1="599" x2="848" y1="756.2188" y2="756.2188"/><text fill="#000000" font-family="sans-serif" font-size="13" lengthAdjust="spacing" textLength="93" x="606" y="751.1528">position: int[2]</text><path d="M406,771.2188 L472,771.2188 L472,778.2188 L462,788.2188 L406,788.2188 L406,771.2188 " fill="#EEEEEE" style="stroke:#000000;stroke-width:1.0;"/><rect fill="none" height="104.5313" style="stroke:#000000;stroke-width:2.0;" width="832.5" x="406" y="771.2188"/><text fill="#000000" font-family="sans-serif" font-size="13" font-weight="bold" lengthAdjust="spacing" textLength="21" x="421" y="784.2856">alt</text><text fill="#000000" font-family="sans-serif" font-size="11" font-weight="bold" lengthAdjust="spacing" textLength="229" x="487" y="783.4292">[Müsste dann nicht paralel laufen]</text><polygon fill="#A80036" points="1140.5,805.4844,1150.5,809.4844,1140.5,813.4844,1144.5,809.4844" style="stroke:#A80036;stroke-width:1.0;"/><line style="stroke:#A80036;stroke-width:1.0;" x1="864" x2="1146.5" y1="809.4844" y2="809.4844"/><text fill="#000000" font-family="sans-serif" font-size="13" lengthAdjust="spacing" textLength="145" x="871" y="804.4185">aktualisiereBild() : void</text><polygon fill="#A80036" points="462,834.6172,452,838.6172,462,842.6172,458,838.6172" style="stroke:#A80036;stroke-width:1.0;"/><line style="stroke:#A80036;stroke-width:1.0;" x1="456" x2="1151.5" y1="838.6172" y2="838.6172"/><text fill="#000000" font-family="sans-serif" font-size="13" lengthAdjust="spacing" textLength="127" x="468" y="833.5513">erfrage Camstream</text><polygon fill="#A80036" points="1145.5,863.75,1155.5,867.75,1145.5,871.75,1149.5,867.75" style="stroke:#A80036;stroke-width:1.0;"/><line style="stroke:#A80036;stroke-width:1.0;stroke-dasharray:2.0,2.0;" x1="451" x2="1151.5" y1="867.75" y2="867.75"/><text fill="#000000" font-family="sans-serif" font-size="13" lengthAdjust="spacing" textLength="201" x="458" y="862.6841">Camstream (sendet dauerhaft)</text><polygon fill="#A80036" points="1140.5,899.8828,1150.5,903.8828,1140.5,907.8828,1144.5,903.8828" style="stroke:#A80036;stroke-width:1.0;"/><line style="stroke:#A80036;stroke-width:1.0;" x1="864" x2="1146.5" y1="903.8828" y2="903.8828"/><text fill="#000000" font-family="sans-serif" font-size="13" lengthAdjust="spacing" textLength="115" x="871" y="898.8169">getEye() : float[2]</text><polygon fill="#A80036" points="875,929.0156,865,933.0156,875,937.0156,871,933.0156" style="stroke:#A80036;stroke-width:1.0;"/><line style="stroke:#A80036;stroke-width:1.0;stroke-dasharray:2.0,2.0;" x1="869" x2="1156.5" y1="933.0156" y2="933.0156"/><text fill="#000000" font-family="sans-serif" font-size="13" lengthAdjust="spacing" textLength="84" x="881" y="927.9497">eye : float[2]</text><polygon fill="#A80036" points="1140.5,958.1484,1150.5,962.1484,1140.5,966.1484,1144.5,962.1484" style="stroke:#A80036;stroke-width:1.0;"/><line style="stroke:#A80036;stroke-width:1.0;" x1="864" x2="1146.5" y1="962.1484" y2="962.1484"/><text fill="#000000" font-family="sans-serif" font-size="13" lengthAdjust="spacing" textLength="121" x="871" y="957.0825">getPupil() : float[2]</text><polygon fill="#A80036" points="875,987.2813,865,991.2813,875,995.2813,871,991.2813" style="stroke:#A80036;stroke-width:1.0;"/><line style="stroke:#A80036;stroke-width:1.0;stroke-dasharray:2.0,2.0;" x1="869" x2="1156.5" y1="991.2813" y2="991.2813"/><text fill="#000000" font-family="sans-serif" font-size="13" lengthAdjust="spacing" textLength="90" x="881" y="986.2153">Pupil : float[2]</text><rect fill="#EEEEEE" filter="url(#fg50ti77b407m)" height="3" style="stroke:#EEEEEE;stroke-width:1.0;" width="1464.5" x="0" y="1026.8477"/><line style="stroke:#000000;stroke-width:1.0;" x1="0" x2="1464.5" y1="1026.8477" y2="1026.8477"/><line style="stroke:#000000;stroke-width:1.0;" x1="0" x2="1464.5" y1="1029.8477" y2="1029.8477"/><rect fill="#EEEEEE" filter="url(#fg50ti77b407m)" height="23.1328" style="stroke:#000000;stroke-width:2.0;" width="79" x="692.75" y="1016.2813"/><text fill="#000000" font-family="sans-serif" font-size="13" font-weight="bold" lengthAdjust="spacing" textLength="60" x="698.75" y="1032.3481">Versuch</text><path d="M396,1056.4141 L474,1056.4141 L474,1063.4141 L464,1073.4141 L396,1073.4141 L396,1056.4141 " fill="#EEEEEE" style="stroke:#000000;stroke-width:1.0;"/><rect fill="none" height="252.1953" style="stroke:#000000;stroke-width:2.0;" width="852.5" x="396" y="1056.4141"/><text fill="#000000" font-family="sans-serif" font-size="13" font-weight="bold" lengthAdjust="spacing" textLength="33" x="411" y="1069.481">loop</text><text fill="#000000" font-family="sans-serif" font-size="11" font-weight="bold" lengthAdjust="spacing" textLength="89" x="489" y="1068.6245">[Visual input]</text><path d="M406,1080.5469 L472,1080.5469 L472,1087.5469 L462,1097.5469 L406,1097.5469 L406,1080.5469 " fill="#EEEEEE" style="stroke:#000000;stroke-width:1.0;"/><rect fill="none" height="104.5313" style="stroke:#000000;stroke-width:2.0;" width="832.5" x="406" y="1080.5469"/><text fill="#000000" font-family="sans-serif" font-size="13" font-weight="bold" lengthAdjust="spacing" textLength="21" x="421" y="1093.6138">alt</text><text fill="#000000" font-family="sans-serif" font-size="11" font-weight="bold" lengthAdjust="spacing" textLength="229" x="487" y="1092.7573">[Müsste dann nicht paralel laufen]</text><polygon fill="#A80036" points="1140.5,1114.8125,1150.5,1118.8125,1140.5,1122.8125,1144.5,1118.8125" style="stroke:#A80036;stroke-width:1.0;"/><line style="stroke:#A80036;stroke-width:1.0;" x1="864" x2="1146.5" y1="1118.8125" y2="1118.8125"/><text fill="#000000" font-family="sans-serif" font-size="13" lengthAdjust="spacing" textLength="145" x="871" y="1113.7466">aktualisiereBild() : void</text><polygon fill="#A80036" points="462,1143.9453,452,1147.9453,462,1151.9453,458,1147.9453" style="stroke:#A80036;stroke-width:1.0;"/><line style="stroke:#A80036;stroke-width:1.0;" x1="456" x2="1151.5" y1="1147.9453" y2="1147.9453"/><text fill="#000000" font-family="sans-serif" font-size="13" lengthAdjust="spacing" textLength="127" x="468" y="1142.8794">erfrage Camstream</text><polygon fill="#A80036" points="1145.5,1173.0781,1155.5,1177.0781,1145.5,1181.0781,1149.5,1177.0781" style="stroke:#A80036;stroke-width:1.0;"/><line style="stroke:#A80036;stroke-width:1.0;stroke-dasharray:2.0,2.0;" x1="451" x2="1151.5" y1="1177.0781" y2="1177.0781"/><text fill="#000000" font-family="sans-serif" font-size="13" lengthAdjust="spacing" textLength="201" x="458" y="1172.0122">Camstream (sendet dauerhaft)</text><polygon fill="#A80036" points="1140.5,1209.2109,1150.5,1213.2109,1140.5,1217.2109,1144.5,1213.2109" style="stroke:#A80036;stroke-width:1.0;"/><line style="stroke:#A80036;stroke-width:1.0;" x1="864" x2="1146.5" y1="1213.2109" y2="1213.2109"/><text fill="#000000" font-family="sans-serif" font-size="13" lengthAdjust="spacing" textLength="115" x="871" y="1208.145">getEye() : float[2]</text><polygon fill="#A80036" points="875,1238.3438,865,1242.3438,875,1246.3438,871,1242.3438" style="stroke:#A80036;stroke-width:1.0;"/><line style="stroke:#A80036;stroke-width:1.0;stroke-dasharray:2.0,2.0;" x1="869" x2="1156.5" y1="1242.3438" y2="1242.3438"/><text fill="#000000" font-family="sans-serif" font-size="13" lengthAdjust="spacing" textLength="84" x="881" y="1237.2778">eye : float[2]</text><polygon fill="#A80036" points="1140.5,1267.4766,1150.5,1271.4766,1140.5,1275.4766,1144.5,1271.4766" style="stroke:#A80036;stroke-width:1.0;"/><line style="stroke:#A80036;stroke-width:1.0;" x1="864" x2="1146.5" y1="1271.4766" y2="1271.4766"/><text fill="#000000" font-family="sans-serif" font-size="13" lengthAdjust="spacing" textLength="121" x="871" y="1266.4106">getPupil() : float[2]</text><polygon fill="#A80036" points="875,1296.6094,865,1300.6094,875,1304.6094,871,1300.6094" style="stroke:#A80036;stroke-width:1.0;"/><line style="stroke:#A80036;stroke-width:1.0;stroke-dasharray:2.0,2.0;" x1="869" x2="1156.5" y1="1300.6094" y2="1300.6094"/><text fill="#000000" font-family="sans-serif" font-size="13" lengthAdjust="spacing" textLength="90" x="881" y="1295.5435">Pupil : float[2]</text><rect fill="#EEEEEE" filter="url(#fg50ti77b407m)" height="3" style="stroke:#EEEEEE;stroke-width:1.0;" width="1464.5" x="0" y="1336.1758"/><line style="stroke:#000000;stroke-width:1.0;" x1="0" x2="1464.5" y1="1336.1758" y2="1336.1758"/><line style="stroke:#000000;stroke-width:1.0;" x1="0" x2="1464.5" y1="1339.1758" y2="1339.1758"/><rect fill="#EEEEEE" filter="url(#fg50ti77b407m)" height="23.1328" style="stroke:#000000;stroke-width:2.0;" width="92" x="686.25" y="1325.6094"/><text fill="#000000" font-family="sans-serif" font-size="13" font-weight="bold" lengthAdjust="spacing" textLength="73" x="692.25" y="1341.6763">Abschluss</text><polygon fill="#A80036" points="1371.5,1375.875,1381.5,1379.875,1371.5,1383.875,1375.5,1379.875" style="stroke:#A80036;stroke-width:1.0;"/><line style="stroke:#A80036;stroke-width:1.0;" x1="864" x2="1377.5" y1="1379.875" y2="1379.875"/><text fill="#000000" font-family="sans-serif" font-size="13" lengthAdjust="spacing" textLength="66" x="871" y="1374.8091">save Data</text><!--MD5=[a75f65e434360b6eef2c3d0e068f2cef]
@startuml
actor       Nutzer          as n
entity      System          as s    #DA70D5

box EyeTracking
participant EyeTrackingTutorial    as et
participant EyeTrackingSetup       as es
participant EyeTrackingBild        as eb
participant EyeTrackingAuge        as ea
end box

collections Config          as c
collections SpeicherMedium  as sm

== Vorbereitungen ==

activate n
activate s
activate es
es -> c : load Data
activate c
c - -> es : Data
deactivate c
es -> eb : loadGrid() : int[2]
activate eb
eb -> s : erfrage screensize
s - -> eb : screensize : int[2]
eb - -> es : screensize : int[2]
deactivate eb
n -> s : schaut auf den bildschirm und wird von Kamera gesehen 
alt Müsste dauerhaft ausgeführt werden. Genaue Umsetzung noch Verhandelbar.
  es -> ea : startStream() : void
  activate ea
  ea -> s : erfrage Camstream
  s - -> ea : Camstream (sendet dauerhaft)
  deactivate ea
end

== Tutorial ==
es -> s : erfragt Distanz
n -> s : Eingabe per Tastatur
s - -> es : Distanz : float
loop Kalibrierung
  es -> et : tutorialPosition(punkt : int[2]): int[2]
  activate et
  et -> s : erfragt Mausdaten
  n -> s : Positionsbestätigung mit Maus
  s - -> et : Kalibrierungsdaten
  et - -> es : position: int[2]
  deactivate et
  alt Müsste dann nicht paralel laufen
    es -> ea : aktualisiereBild() : void
    activate ea
    ea -> s : erfrage Camstream
    s - -> ea : Camstream (sendet dauerhaft)
    deactivate ea
  end
  es -> ea : getEye() : float[2]
  activate ea
  ea - -> es : eye : float[2]
  deactivate ea
  es -> ea : getPupil() : float[2]
  activate ea
  ea - -> es : Pupil : float[2]
  deactivate ea
end

== Versuch ==
loop Visual input
  alt Müsste dann nicht paralel laufen
    es -> ea : aktualisiereBild() : void
    activate ea
    ea -> s : erfrage Camstream
    s - -> ea : Camstream (sendet dauerhaft)
    deactivate ea
  end
  es -> ea : getEye() : float[2]
  activate ea
  ea - -> es : eye : float[2]
  deactivate ea
  es -> ea : getPupil() : float[2]
  activate ea
  ea - -> es : Pupil : float[2]
  deactivate ea
end

== Abschluss ==
es -> sm: save Data
activate sm
@enduml

PlantUML version 1.2021.15beta1(Unknown compile time)
(GPL source distribution)
Java Runtime: Java(TM) SE Runtime Environment
JVM: Java HotSpot(TM) 64-Bit Server VM
Default Encoding: UTF-8
Language: en
Country: US
--></g></svg>