<?xml version="1.0" encoding="UTF-8" standalone="no"?><svg xmlns="http://www.w3.org/2000/svg" xmlns:xlink="http://www.w3.org/1999/xlink" contentScriptType="application/ecmascript" contentStyleType="text/css" height="683px" preserveAspectRatio="none" style="width:1616px;height:683px;background:#FFFFFF;" version="1.1" viewBox="0 0 1616 683" width="1616px" zoomAndPan="magnify"><defs><filter height="300%" id="fxv0afsxci16v" width="300%" x="-1" y="-1"><feGaussianBlur result="blurOut" stdDeviation="2.0"/><feColorMatrix in="blurOut" result="blurOut2" type="matrix" values="0 0 0 0 0 0 0 0 0 0 0 0 0 0 0 0 0 0 .4 0"/><feOffset dx="4.0" dy="4.0" in="blurOut2" result="blurOut3"/><feBlend in="SourceGraphic" in2="blurOut3" mode="normal"/></filter></defs><g><!--MD5=[a55135535b5c544b99c33b17428c3b14]
cluster Util--><polygon fill="#FFFFFF" filter="url(#fxv0afsxci16v)" points="16,6,51,6,58,28.2969,453,28.2969,453,409.5,16,409.5,16,6" style="stroke:#000000;stroke-width:1.5;"/><line style="stroke:#000000;stroke-width:1.5;" x1="16" x2="58" y1="28.2969" y2="28.2969"/><text fill="#000000" font-family="sans-serif" font-size="14" font-weight="bold" lengthAdjust="spacing" textLength="29" x="20" y="20.9951">Util</text><!--MD5=[bd4ed236a13575a9dcf49b2316e757e7]
cluster CodeCharts--><polygon fill="#FFFFFF" filter="url(#fxv0afsxci16v)" points="477,187,576,187,583,209.2969,1428,209.2969,1428,676,477,676,477,187" style="stroke:#000000;stroke-width:1.5;"/><line style="stroke:#000000;stroke-width:1.5;" x1="477" x2="583" y1="209.2969" y2="209.2969"/><text fill="#000000" font-family="sans-serif" font-size="14" font-weight="bold" lengthAdjust="spacing" textLength="93" x="481" y="201.9951">CodeCharts</text><!--MD5=[fccc419d627b37790932ddb688fb7ad6]
class Tutorial--><rect codeLine="7" fill="#FEFECE" filter="url(#fxv0afsxci16v)" height="167.2422" id="Tutorial" style="stroke:#A80036;stroke-width:1.5;" width="236" x="201" y="226.5"/><ellipse cx="257.25" cy="242.5" fill="#A9DCDF" rx="11" ry="11" style="stroke:#A80036;stroke-width:1.0;"/><path d="M259.3281,244.3125 L259.7188,245.2969 L259.3281,245.2969 C258.875,245.2969 258.7656,245.3125 258.6094,245.4219 C258.3594,245.5781 258.2031,245.8594 258.2031,246.1563 C258.2031,246.4219 258.3438,246.6719 258.5625,246.8281 C258.7031,246.9531 258.9063,247 259.3281,247 L261.6875,247 C262.0469,247 262.2656,246.9688 262.4063,246.875 C262.6563,246.7344 262.8125,246.4375 262.8125,246.1563 C262.8125,245.875 262.6719,245.625 262.4531,245.4688 C262.2813,245.3281 262.125,245.2969 261.6563,245.2969 L258.2656,237.0938 L254.5938,237.0938 C254.1406,237.0938 254.0156,237.1094 253.8594,237.2031 C253.6094,237.375 253.4531,237.6563 253.4531,237.9375 C253.4531,238.2188 253.5938,238.4688 253.8125,238.6406 C253.9844,238.75 254.1563,238.7813 254.5938,238.7813 L255.6719,238.7813 L253.0313,245.2969 C252.6094,245.2969 252.4531,245.3125 252.2969,245.4219 C252.0469,245.5781 251.8906,245.8594 251.8906,246.1563 C251.8906,246.7188 252.2656,247 253.0156,247 L255.2813,247 C255.6406,247 255.8594,246.9688 255.9844,246.875 C256.25,246.7344 256.3906,246.4375 256.3906,246.1563 C256.3906,245.875 256.2656,245.625 256.0469,245.4531 C255.875,245.3281 255.7344,245.2969 255.2813,245.2969 L254.8906,245.2969 L255.2813,244.3125 L259.3281,244.3125 Z M258.625,242.6094 L255.9531,242.6094 L257.2969,239.3438 L258.625,242.6094 Z " fill="#000000"/><text fill="#000000" font-family="sans-serif" font-size="12" font-style="italic" lengthAdjust="spacing" textLength="45" x="277.75" y="246.6543">Tutorial</text><rect fill="#FFFFFF" height="15.9688" style="stroke:#000000;stroke-width:1.0;stroke-dasharray:2.0,2.0;" width="68" x="372" y="223.5"/><text fill="#000000" font-family="sans-serif" font-size="12" font-style="italic" lengthAdjust="spacing" textLength="66" x="373" y="235.6387">t: ToolType</text><line style="stroke:#A80036;stroke-width:1.5;" x1="202" x2="436" y1="258.5" y2="258.5"/><rect fill="none" height="6" style="stroke:#C82930;stroke-width:1.0;" width="6" x="209" y="266.5"/><text fill="#000000" font-family="sans-serif" font-size="11" lengthAdjust="spacing" textLength="64" x="221" y="272.7104">t: ToolType</text><ellipse cx="212" cy="299.1094" fill="#84BE84" rx="3" ry="3" style="stroke:#038048;stroke-width:1.0;"/><text fill="#000000" font-family="sans-serif" font-size="11" lengthAdjust="spacing" textLength="68" x="221" y="302.3198">start() : void</text><line style="stroke:#A80036;stroke-width:1.5;" x1="202" x2="278.5" y1="285.707" y2="285.707"/><text fill="#000000" font-family="sans-serif" font-size="11" lengthAdjust="spacing" textLength="81" x="278.5" y="289.0151">public method</text><line style="stroke:#A80036;stroke-width:1.5;" x1="359.5" x2="436" y1="285.707" y2="285.707"/><rect fill="#F24D5C" height="6" style="stroke:#C82930;stroke-width:1.0;" width="6" x="209" y="325.7188"/><text fill="#000000" font-family="sans-serif" font-size="11" lengthAdjust="spacing" textLength="151" x="221" y="331.9292">getConfigState() : boolean</text><rect fill="#F24D5C" height="6" style="stroke:#C82930;stroke-width:1.0;" width="6" x="209" y="338.5234"/><text fill="#000000" font-family="sans-serif" font-size="11" lengthAdjust="spacing" textLength="210" x="221" y="344.7339">setConfigState(state: boolean) : void</text><rect fill="#F24D5C" height="6" style="stroke:#C82930;stroke-width:1.0;" width="6" x="209" y="351.3281"/><text fill="#000000" font-family="sans-serif" font-size="11" lengthAdjust="spacing" textLength="94" x="221" y="357.5386">show() : boolean</text><line style="stroke:#A80036;stroke-width:1.5;" x1="202" x2="272" y1="315.3164" y2="315.3164"/><text fill="#000000" font-family="sans-serif" font-size="11" lengthAdjust="spacing" textLength="94" x="272" y="318.6245">private methods</text><line style="stroke:#A80036;stroke-width:1.5;" x1="366" x2="436" y1="315.3164" y2="315.3164"/><rect fill="#F24D5C" height="6" style="stroke:#C82930;stroke-width:1.0;" width="6" x="209" y="380.9375"/><text fill="#000000" font-family="sans-serif" font-size="11" font-style="italic" lengthAdjust="spacing" textLength="84" x="221" y="387.1479">tutorial() : void</text><line style="stroke:#A80036;stroke-width:1.5;" x1="202" x2="269.5" y1="370.5352" y2="370.5352"/><text fill="#000000" font-family="sans-serif" font-size="11" lengthAdjust="spacing" textLength="99" x="269.5" y="373.8433">abstract methods</text><line style="stroke:#A80036;stroke-width:1.5;" x1="368.5" x2="436" y1="370.5352" y2="370.5352"/><!--MD5=[5c39798b83ace9e75333b1274a725e6c]
class ToolType--><rect codeLine="19" fill="#FEFECE" filter="url(#fxv0afsxci16v)" height="86.4141" id="ToolType" style="stroke:#A80036;stroke-width:1.5;" width="91" x="32.5" y="47.5"/><ellipse cx="48.85" cy="63.5" fill="#EB937F" rx="11" ry="11" style="stroke:#A80036;stroke-width:1.0;"/><path d="M47.6469,64.375 L49.1,64.375 L49.1,64.4844 C49.1,64.8906 49.1313,65.0469 49.2094,65.2031 C49.3656,65.4531 49.6469,65.6094 49.9438,65.6094 C50.1938,65.6094 50.4594,65.4688 50.6156,65.25 C50.7406,65.0938 50.7719,64.9375 50.7719,64.4844 L50.7719,62.5625 C50.7719,62.4063 50.7719,62.3594 50.7563,62.2031 C50.6938,61.7344 50.3813,61.4219 49.9281,61.4219 C49.6781,61.4219 49.4125,61.5625 49.2406,61.7813 C49.1313,61.9531 49.1,62.1094 49.1,62.5625 L49.1,62.6875 L47.6469,62.6875 L47.6469,60.2813 L51.6313,60.2813 L51.6313,61.1406 C51.6313,61.5469 51.6625,61.7188 51.7406,61.875 C51.9125,62.125 52.1938,62.2813 52.475,62.2813 C52.7406,62.2813 53.0063,62.1406 53.1781,61.9219 C53.2875,61.75 53.3188,61.6094 53.3188,61.1406 L53.3188,58.5938 L45.6938,58.5938 C45.2563,58.5938 45.1313,58.6094 44.975,58.7031 C44.725,58.8594 44.5688,59.1563 44.5688,59.4375 C44.5688,59.7188 44.7094,59.9688 44.9281,60.1406 C45.0844,60.25 45.2719,60.2813 45.6938,60.2813 L45.9438,60.2813 L45.9438,66.7969 L45.6938,66.7969 C45.2875,66.7969 45.1313,66.8125 44.975,66.9219 C44.725,67.0938 44.5688,67.3594 44.5688,67.6563 C44.5688,67.9219 44.7094,68.1719 44.9281,68.3281 C45.0688,68.4531 45.3031,68.5 45.6938,68.5 L53.6938,68.5 L53.6938,65.9219 C53.6938,65.4844 53.6625,65.3438 53.5844,65.1875 C53.4125,64.9375 53.1313,64.7813 52.85,64.7813 C52.5844,64.7813 52.3188,64.8906 52.1469,65.1406 C52.0375,65.2969 52.0063,65.4375 52.0063,65.9219 L52.0063,66.7969 L47.6469,66.7969 L47.6469,64.375 Z " fill="#000000"/><text fill="#000000" font-family="sans-serif" font-size="12" lengthAdjust="spacing" textLength="56" x="63.15" y="67.6543">ToolType</text><line style="stroke:#A80036;stroke-width:1.5;" x1="33.5" x2="122.5" y1="79.5" y2="79.5"/><text fill="#000000" font-family="sans-serif" font-size="11" lengthAdjust="spacing" textLength="35" x="38.5" y="93.7104">ZOOM</text><text fill="#000000" font-family="sans-serif" font-size="11" lengthAdjust="spacing" textLength="78" x="38.5" y="106.5151">EYETRACKING</text><text fill="#000000" font-family="sans-serif" font-size="11" lengthAdjust="spacing" textLength="79" x="38.5" y="119.3198">CODECHARTS</text><line style="stroke:#A80036;stroke-width:1.5;" x1="33.5" x2="122.5" y1="125.9141" y2="125.9141"/><!--MD5=[60c9ed31c535bee25c55ce21b5b01399]
class Data--><rect codeLine="40" fill="#FEFECE" filter="url(#fxv0afsxci16v)" height="86.4141" id="Data" style="stroke:#A80036;stroke-width:1.5;" width="129" x="158.5" y="47.5"/><ellipse cx="173.5" cy="63.5" fill="#ADD1B2" rx="11" ry="11" style="stroke:#A80036;stroke-width:1.0;"/><path d="M175.8438,59.1719 C174.9063,58.7344 174.3125,58.5938 173.4375,58.5938 C170.8125,58.5938 168.8125,60.6719 168.8125,63.3906 L168.8125,64.5156 C168.8125,67.0938 170.9219,68.9844 173.8125,68.9844 C175.0313,68.9844 176.1875,68.6875 176.9375,68.1406 C177.5156,67.7344 177.8438,67.2813 177.8438,66.8906 C177.8438,66.4375 177.4531,66.0469 176.9844,66.0469 C176.7656,66.0469 176.5625,66.125 176.375,66.3125 C175.9219,66.7969 175.9219,66.7969 175.7344,66.8906 C175.3125,67.1563 174.625,67.2813 173.8594,67.2813 C171.8125,67.2813 170.5156,66.1875 170.5156,64.4844 L170.5156,63.3906 C170.5156,61.6094 171.7656,60.2969 173.5,60.2969 C174.0781,60.2969 174.6875,60.4531 175.1563,60.7031 C175.6406,60.9844 175.8125,61.2031 175.9063,61.6094 C175.9688,62.0156 176,62.1406 176.1406,62.2656 C176.2813,62.4063 176.5156,62.5156 176.7344,62.5156 C177,62.5156 177.2656,62.375 177.4375,62.1563 C177.5469,62 177.5781,61.8125 177.5781,61.3906 L177.5781,59.9688 C177.5781,59.5313 177.5625,59.4063 177.4688,59.25 C177.3125,58.9844 177.0313,58.8438 176.7344,58.8438 C176.4375,58.8438 176.2344,58.9375 176.0156,59.25 L175.8438,59.1719 Z " fill="#000000"/><text fill="#000000" font-family="sans-serif" font-size="12" lengthAdjust="spacing" textLength="27" x="187.5" y="67.6543">Data</text><rect fill="#FFFFFF" height="15.9688" style="stroke:#000000;stroke-width:1.0;stroke-dasharray:2.0,2.0;" width="68" x="222.5" y="44.5"/><text fill="#000000" font-family="sans-serif" font-size="12" font-style="italic" lengthAdjust="spacing" textLength="66" x="223.5" y="56.6387">t: ToolType</text><line style="stroke:#A80036;stroke-width:1.5;" x1="159.5" x2="286.5" y1="79.5" y2="79.5"/><ellipse cx="169.5" cy="90.5" rx="3" ry="3" style="stroke:#038048;stroke-width:1.0;fill:none;"/><text fill="#000000" font-family="sans-serif" font-size="11" lengthAdjust="spacing" textLength="64" x="178.5" y="93.7104">t: ToolType</text><ellipse cx="169.5" cy="103.3047" rx="3" ry="3" style="stroke:#038048;stroke-width:1.0;fill:none;"/><text fill="#000000" font-family="sans-serif" font-size="11" lengthAdjust="spacing" textLength="82" x="178.5" y="106.5151">data: unknown</text><ellipse cx="169.5" cy="116.1094" rx="3" ry="3" style="stroke:#038048;stroke-width:1.0;fill:none;"/><text fill="#000000" font-family="sans-serif" font-size="11" lengthAdjust="spacing" textLength="71" x="178.5" y="119.3198">config_id: int</text><line style="stroke:#A80036;stroke-width:1.5;" x1="159.5" x2="286.5" y1="125.9141" y2="125.9141"/><!--MD5=[626b00d2609f42ba755c8afb6d5f2b59]
class Bild--><rect codeLine="33" fill="#FEFECE" filter="url(#fxv0afsxci16v)" height="99.2188" id="Bild" style="stroke:#A80036;stroke-width:1.5;" width="114" x="323" y="41"/><ellipse cx="365" cy="57" fill="#A9DCDF" rx="11" ry="11" style="stroke:#A80036;stroke-width:1.0;"/><path d="M367.0781,58.8125 L367.4688,59.7969 L367.0781,59.7969 C366.625,59.7969 366.5156,59.8125 366.3594,59.9219 C366.1094,60.0781 365.9531,60.3594 365.9531,60.6563 C365.9531,60.9219 366.0938,61.1719 366.3125,61.3281 C366.4531,61.4531 366.6563,61.5 367.0781,61.5 L369.4375,61.5 C369.7969,61.5 370.0156,61.4688 370.1563,61.375 C370.4063,61.2344 370.5625,60.9375 370.5625,60.6563 C370.5625,60.375 370.4219,60.125 370.2031,59.9688 C370.0313,59.8281 369.875,59.7969 369.4063,59.7969 L366.0156,51.5938 L362.3438,51.5938 C361.8906,51.5938 361.7656,51.6094 361.6094,51.7031 C361.3594,51.875 361.2031,52.1563 361.2031,52.4375 C361.2031,52.7188 361.3438,52.9688 361.5625,53.1406 C361.7344,53.25 361.9063,53.2813 362.3438,53.2813 L363.4219,53.2813 L360.7813,59.7969 C360.3594,59.7969 360.2031,59.8125 360.0469,59.9219 C359.7969,60.0781 359.6406,60.3594 359.6406,60.6563 C359.6406,61.2188 360.0156,61.5 360.7656,61.5 L363.0313,61.5 C363.3906,61.5 363.6094,61.4688 363.7344,61.375 C364,61.2344 364.1406,60.9375 364.1406,60.6563 C364.1406,60.375 364.0156,60.125 363.7969,59.9531 C363.625,59.8281 363.4844,59.7969 363.0313,59.7969 L362.6406,59.7969 L363.0313,58.8125 L367.0781,58.8125 Z M366.375,57.1094 L363.7031,57.1094 L365.0469,53.8438 L366.375,57.1094 Z " fill="#000000"/><text fill="#000000" font-family="sans-serif" font-size="12" font-style="italic" lengthAdjust="spacing" textLength="22" x="385" y="61.1543">Bild</text><line style="stroke:#A80036;stroke-width:1.5;" x1="324" x2="436" y1="73" y2="73"/><polygon fill="none" points="334,79,338,83,334,87,330,83" style="stroke:#B38D22;stroke-width:1.0;"/><text fill="#000000" font-family="sans-serif" font-size="11" lengthAdjust="spacing" textLength="88" x="343" y="87.2104">location : String</text><line style="stroke:#A80036;stroke-width:1.5;" x1="324" x2="436" y1="93.8047" y2="93.8047"/><ellipse cx="334" cy="104.8047" fill="#84BE84" rx="3" ry="3" style="stroke:#038048;stroke-width:1.0;"/><text fill="#000000" font-family="sans-serif" font-size="11" lengthAdjust="spacing" textLength="83" x="343" y="108.0151">Bild(url: String)</text><ellipse cx="334" cy="117.6094" fill="#84BE84" rx="3" ry="3" style="stroke:#038048;stroke-width:1.0;"/><text fill="#000000" font-family="sans-serif" font-size="11" lengthAdjust="spacing" textLength="72" x="343" y="120.8198">show() : void</text><ellipse cx="334" cy="130.4141" fill="#84BE84" rx="3" ry="3" style="stroke:#038048;stroke-width:1.0;"/><text fill="#000000" font-family="sans-serif" font-size="11" lengthAdjust="spacing" textLength="68" x="343" y="133.6245">hide() : void</text><!--MD5=[81d462353594d8875238471802618d21]
class CodeChartsTutorial--><rect codeLine="51" fill="#FEFECE" filter="url(#fxv0afsxci16v)" height="60.8047" id="CodeChartsTutorial" style="stroke:#A80036;stroke-width:1.5;" width="146" x="493" y="537"/><ellipse cx="508" cy="553" fill="#ADD1B2" rx="11" ry="11" style="stroke:#A80036;stroke-width:1.0;"/><path d="M510.3438,548.6719 C509.4063,548.2344 508.8125,548.0938 507.9375,548.0938 C505.3125,548.0938 503.3125,550.1719 503.3125,552.8906 L503.3125,554.0156 C503.3125,556.5938 505.4219,558.4844 508.3125,558.4844 C509.5313,558.4844 510.6875,558.1875 511.4375,557.6406 C512.0156,557.2344 512.3438,556.7813 512.3438,556.3906 C512.3438,555.9375 511.9531,555.5469 511.4844,555.5469 C511.2656,555.5469 511.0625,555.625 510.875,555.8125 C510.4219,556.2969 510.4219,556.2969 510.2344,556.3906 C509.8125,556.6563 509.125,556.7813 508.3594,556.7813 C506.3125,556.7813 505.0156,555.6875 505.0156,553.9844 L505.0156,552.8906 C505.0156,551.1094 506.2656,549.7969 508,549.7969 C508.5781,549.7969 509.1875,549.9531 509.6563,550.2031 C510.1406,550.4844 510.3125,550.7031 510.4063,551.1094 C510.4688,551.5156 510.5,551.6406 510.6406,551.7656 C510.7813,551.9063 511.0156,552.0156 511.2344,552.0156 C511.5,552.0156 511.7656,551.875 511.9375,551.6563 C512.0469,551.5 512.0781,551.3125 512.0781,550.8906 L512.0781,549.4688 C512.0781,549.0313 512.0625,548.9063 511.9688,548.75 C511.8125,548.4844 511.5313,548.3438 511.2344,548.3438 C510.9375,548.3438 510.7344,548.4375 510.5156,548.75 L510.3438,548.6719 Z " fill="#000000"/><text fill="#000000" font-family="sans-serif" font-size="12" lengthAdjust="spacing" textLength="114" x="522" y="557.1543">CodeChartsTutorial</text><line style="stroke:#A80036;stroke-width:1.5;" x1="494" x2="638" y1="569" y2="569"/><line style="stroke:#A80036;stroke-width:1.5;" x1="494" x2="638" y1="577" y2="577"/><rect fill="#F24D5C" height="6" style="stroke:#C82930;stroke-width:1.0;" width="6" x="501" y="585"/><text fill="#000000" font-family="sans-serif" font-size="11" lengthAdjust="spacing" textLength="82" x="513" y="591.2104">tutorial() : void</text><!--MD5=[d6943c12ae734dbe1975a5489f85ab8f]
class CodeChartsCoordinator--><rect codeLine="56" fill="#FEFECE" filter="url(#fxv0afsxci16v)" height="176.0469" id="CodeChartsCoordinator" style="stroke:#A80036;stroke-width:1.5;" width="178" x="832" y="222"/><ellipse cx="849.25" cy="238" fill="#ADD1B2" rx="11" ry="11" style="stroke:#A80036;stroke-width:1.0;"/><path d="M851.5938,233.6719 C850.6563,233.2344 850.0625,233.0938 849.1875,233.0938 C846.5625,233.0938 844.5625,235.1719 844.5625,237.8906 L844.5625,239.0156 C844.5625,241.5938 846.6719,243.4844 849.5625,243.4844 C850.7813,243.4844 851.9375,243.1875 852.6875,242.6406 C853.2656,242.2344 853.5938,241.7813 853.5938,241.3906 C853.5938,240.9375 853.2031,240.5469 852.7344,240.5469 C852.5156,240.5469 852.3125,240.625 852.125,240.8125 C851.6719,241.2969 851.6719,241.2969 851.4844,241.3906 C851.0625,241.6563 850.375,241.7813 849.6094,241.7813 C847.5625,241.7813 846.2656,240.6875 846.2656,238.9844 L846.2656,237.8906 C846.2656,236.1094 847.5156,234.7969 849.25,234.7969 C849.8281,234.7969 850.4375,234.9531 850.9063,235.2031 C851.3906,235.4844 851.5625,235.7031 851.6563,236.1094 C851.7188,236.5156 851.75,236.6406 851.8906,236.7656 C852.0313,236.9063 852.2656,237.0156 852.4844,237.0156 C852.75,237.0156 853.0156,236.875 853.1875,236.6563 C853.2969,236.5 853.3281,236.3125 853.3281,235.8906 L853.3281,234.4688 C853.3281,234.0313 853.3125,233.9063 853.2188,233.75 C853.0625,233.4844 852.7813,233.3438 852.4844,233.3438 C852.1875,233.3438 851.9844,233.4375 851.7656,233.75 L851.5938,233.6719 Z " fill="#000000"/><text fill="#000000" font-family="sans-serif" font-size="12" lengthAdjust="spacing" textLength="141" x="863.75" y="242.1543">CodeChartsCoordinator</text><line style="stroke:#A80036;stroke-width:1.5;" x1="833" x2="1009" y1="254" y2="254"/><rect fill="none" height="6" style="stroke:#C82930;stroke-width:1.0;" width="6" x="840" y="262"/><text fill="#000000" font-family="sans-serif" font-size="11" lengthAdjust="spacing" textLength="80" x="852" y="268.2104">data: Util.Data</text><rect fill="none" height="6" style="stroke:#C82930;stroke-width:1.0;" width="6" x="840" y="274.8047"/><text fill="#000000" font-family="sans-serif" font-size="11" lengthAdjust="spacing" textLength="83" x="852" y="281.0151">speed: float[2]</text><rect fill="none" height="6" style="stroke:#C82930;stroke-width:1.0;" width="6" x="840" y="287.6094"/><text fill="#000000" font-family="sans-serif" font-size="11" lengthAdjust="spacing" textLength="104" x="852" y="293.8198">isTutorial: boolean</text><rect fill="none" height="6" style="stroke:#C82930;stroke-width:1.0;" width="6" x="840" y="300.4141"/><text fill="#000000" font-family="sans-serif" font-size="11" lengthAdjust="spacing" textLength="109" x="852" y="306.6245">isRelative: boolean</text><rect fill="none" height="6" style="stroke:#C82930;stroke-width:1.0;" width="6" x="840" y="313.2188"/><text fill="#000000" font-family="sans-serif" font-size="11" lengthAdjust="spacing" textLength="101" x="852" y="319.4292">dimensions: int[2]</text><rect fill="none" height="6" style="stroke:#C82930;stroke-width:1.0;" width="6" x="840" y="326.0234"/><text fill="#000000" font-family="sans-serif" font-size="11" lengthAdjust="spacing" textLength="91" x="852" y="332.2339">strings: String[..]</text><ellipse cx="843" cy="358.6328" fill="#84BE84" rx="3" ry="3" style="stroke:#038048;stroke-width:1.0;"/><text fill="#000000" font-family="sans-serif" font-size="11" lengthAdjust="spacing" textLength="134" x="852" y="361.8433">startCodeCharts() : void</text><line style="stroke:#A80036;stroke-width:1.5;" x1="833" x2="880.5" y1="345.2305" y2="345.2305"/><text fill="#000000" font-family="sans-serif" font-size="11" lengthAdjust="spacing" textLength="81" x="880.5" y="348.5386">public method</text><line style="stroke:#A80036;stroke-width:1.5;" x1="961.5" x2="1009" y1="345.2305" y2="345.2305"/><rect fill="#F24D5C" height="6" style="stroke:#C82930;stroke-width:1.0;" width="6" x="840" y="385.2422"/><text fill="#000000" font-family="sans-serif" font-size="11" lengthAdjust="spacing" textLength="152" x="852" y="391.4526">loadConfigData() : boolean</text><line style="stroke:#A80036;stroke-width:1.5;" x1="833" x2="874" y1="374.8398" y2="374.8398"/><text fill="#000000" font-family="sans-serif" font-size="11" lengthAdjust="spacing" textLength="94" x="874" y="378.1479">private methods</text><line style="stroke:#A80036;stroke-width:1.5;" x1="968" x2="1009" y1="374.8398" y2="374.8398"/><!--MD5=[48cc74a7e7e460afd8863a3fcc09bdcb]
class CodeChartsBild--><rect codeLine="70" fill="#FEFECE" filter="url(#fxv0afsxci16v)" height="48" id="CodeChartsBild" style="stroke:#A80036;stroke-width:1.5;" width="124" x="1288" y="543.5"/><ellipse cx="1303" cy="559.5" fill="#ADD1B2" rx="11" ry="11" style="stroke:#A80036;stroke-width:1.0;"/><path d="M1305.3438,555.1719 C1304.4063,554.7344 1303.8125,554.5938 1302.9375,554.5938 C1300.3125,554.5938 1298.3125,556.6719 1298.3125,559.3906 L1298.3125,560.5156 C1298.3125,563.0938 1300.4219,564.9844 1303.3125,564.9844 C1304.5313,564.9844 1305.6875,564.6875 1306.4375,564.1406 C1307.0156,563.7344 1307.3438,563.2813 1307.3438,562.8906 C1307.3438,562.4375 1306.9531,562.0469 1306.4844,562.0469 C1306.2656,562.0469 1306.0625,562.125 1305.875,562.3125 C1305.4219,562.7969 1305.4219,562.7969 1305.2344,562.8906 C1304.8125,563.1563 1304.125,563.2813 1303.3594,563.2813 C1301.3125,563.2813 1300.0156,562.1875 1300.0156,560.4844 L1300.0156,559.3906 C1300.0156,557.6094 1301.2656,556.2969 1303,556.2969 C1303.5781,556.2969 1304.1875,556.4531 1304.6563,556.7031 C1305.1406,556.9844 1305.3125,557.2031 1305.4063,557.6094 C1305.4688,558.0156 1305.5,558.1406 1305.6406,558.2656 C1305.7813,558.4063 1306.0156,558.5156 1306.2344,558.5156 C1306.5,558.5156 1306.7656,558.375 1306.9375,558.1563 C1307.0469,558 1307.0781,557.8125 1307.0781,557.3906 L1307.0781,555.9688 C1307.0781,555.5313 1307.0625,555.4063 1306.9688,555.25 C1306.8125,554.9844 1306.5313,554.8438 1306.2344,554.8438 C1305.9375,554.8438 1305.7344,554.9375 1305.5156,555.25 L1305.3438,555.1719 Z " fill="#000000"/><text fill="#000000" font-family="sans-serif" font-size="12" lengthAdjust="spacing" textLength="92" x="1317" y="563.6543">CodeChartsBild</text><line style="stroke:#A80036;stroke-width:1.5;" x1="1289" x2="1411" y1="575.5" y2="575.5"/><line style="stroke:#A80036;stroke-width:1.5;" x1="1289" x2="1411" y1="583.5" y2="583.5"/><!--MD5=[b9640045e029ffef06c931bcc3e11d89]
class CodeChartsRaster--><rect codeLine="74" fill="#FEFECE" filter="url(#fxv0afsxci16v)" height="184.8516" id="CodeChartsRaster" style="stroke:#A80036;stroke-width:1.5;" width="309" x="674.5" y="475"/><ellipse cx="770.75" cy="491" fill="#ADD1B2" rx="11" ry="11" style="stroke:#A80036;stroke-width:1.0;"/><path d="M773.0938,486.6719 C772.1563,486.2344 771.5625,486.0938 770.6875,486.0938 C768.0625,486.0938 766.0625,488.1719 766.0625,490.8906 L766.0625,492.0156 C766.0625,494.5938 768.1719,496.4844 771.0625,496.4844 C772.2813,496.4844 773.4375,496.1875 774.1875,495.6406 C774.7656,495.2344 775.0938,494.7813 775.0938,494.3906 C775.0938,493.9375 774.7031,493.5469 774.2344,493.5469 C774.0156,493.5469 773.8125,493.625 773.625,493.8125 C773.1719,494.2969 773.1719,494.2969 772.9844,494.3906 C772.5625,494.6563 771.875,494.7813 771.1094,494.7813 C769.0625,494.7813 767.7656,493.6875 767.7656,491.9844 L767.7656,490.8906 C767.7656,489.1094 769.0156,487.7969 770.75,487.7969 C771.3281,487.7969 771.9375,487.9531 772.4063,488.2031 C772.8906,488.4844 773.0625,488.7031 773.1563,489.1094 C773.2188,489.5156 773.25,489.6406 773.3906,489.7656 C773.5313,489.9063 773.7656,490.0156 773.9844,490.0156 C774.25,490.0156 774.5156,489.875 774.6875,489.6563 C774.7969,489.5 774.8281,489.3125 774.8281,488.8906 L774.8281,487.4688 C774.8281,487.0313 774.8125,486.9063 774.7188,486.75 C774.5625,486.4844 774.2813,486.3438 773.9844,486.3438 C773.6875,486.3438 773.4844,486.4375 773.2656,486.75 L773.0938,486.6719 Z " fill="#000000"/><text fill="#000000" font-family="sans-serif" font-size="12" lengthAdjust="spacing" textLength="108" x="791.25" y="495.1543">CodeChartsRaster</text><line style="stroke:#A80036;stroke-width:1.5;" x1="675.5" x2="982.5" y1="507" y2="507"/><rect fill="none" height="6" style="stroke:#C82930;stroke-width:1.0;" width="6" x="682.5" y="515"/><text fill="#000000" font-family="sans-serif" font-size="11" lengthAdjust="spacing" textLength="101" x="694.5" y="521.2104">dimensions: int[2]</text><rect fill="none" height="6" style="stroke:#C82930;stroke-width:1.0;" width="6" x="682.5" y="527.8047"/><text fill="#000000" font-family="sans-serif" font-size="11" lengthAdjust="spacing" textLength="91" x="694.5" y="534.0151">strings: String[..]</text><rect fill="none" height="6" style="stroke:#C82930;stroke-width:1.0;" width="6" x="682.5" y="540.6094"/><text fill="#000000" font-family="sans-serif" font-size="11" lengthAdjust="spacing" textLength="73" x="694.5" y="546.8198">coords: int[2]</text><text fill="#000000" font-family="sans-serif" font-size="11" lengthAdjust="spacing" textLength="105" x="694.5" y="559.6245">__public method__</text><ellipse cx="685.5" cy="569.2188" fill="#84BE84" rx="3" ry="3" style="stroke:#038048;stroke-width:1.0;"/><text fill="#000000" font-family="sans-serif" font-size="11" lengthAdjust="spacing" textLength="153" x="694.5" y="572.4292">setInput(input: String): void</text><ellipse cx="685.5" cy="582.0234" fill="#84BE84" rx="3" ry="3" style="stroke:#038048;stroke-width:1.0;"/><text fill="#000000" font-family="sans-serif" font-size="11" lengthAdjust="spacing" textLength="283" x="694.5" y="585.2339">setData(dimensions: int[2], strings: String[..]): void</text><ellipse cx="685.5" cy="594.8281" fill="#84BE84" rx="3" ry="3" style="stroke:#038048;stroke-width:1.0;"/><text fill="#000000" font-family="sans-serif" font-size="11" lengthAdjust="spacing" textLength="72" x="694.5" y="598.0386">show() : void</text><ellipse cx="685.5" cy="607.6328" fill="#84BE84" rx="3" ry="3" style="stroke:#038048;stroke-width:1.0;"/><text fill="#000000" font-family="sans-serif" font-size="11" lengthAdjust="spacing" textLength="174" x="694.5" y="610.8433">calculate(data: Util.Data) : void</text><rect fill="#F24D5C" height="6" style="stroke:#C82930;stroke-width:1.0;" width="6" x="682.5" y="634.2422"/><text fill="#000000" font-family="sans-serif" font-size="11" lengthAdjust="spacing" textLength="117" x="694.5" y="640.4526">loadPastRuns() : void</text><rect fill="#F24D5C" height="6" style="stroke:#C82930;stroke-width:1.0;" width="6" x="682.5" y="647.0469"/><text fill="#000000" font-family="sans-serif" font-size="11" lengthAdjust="spacing" textLength="98" x="694.5" y="653.2573">sendData() : void</text><line style="stroke:#A80036;stroke-width:1.5;" x1="675.5" x2="782" y1="623.8398" y2="623.8398"/><text fill="#000000" font-family="sans-serif" font-size="11" lengthAdjust="spacing" textLength="94" x="782" y="627.1479">private methods</text><line style="stroke:#A80036;stroke-width:1.5;" x1="876" x2="982.5" y1="623.8398" y2="623.8398"/><!--MD5=[a7f545f13df25b09c4dd936da65dfdd1]
class CodeChartsEingabefenster--><rect codeLine="89" fill="#FEFECE" filter="url(#fxv0afsxci16v)" height="124.8281" id="CodeChartsEingabefenster" style="stroke:#A80036;stroke-width:1.5;" width="234" x="1019" y="505"/><ellipse cx="1052.45" cy="521" fill="#ADD1B2" rx="11" ry="11" style="stroke:#A80036;stroke-width:1.0;"/><path d="M1054.7938,516.6719 C1053.8563,516.2344 1053.2625,516.0938 1052.3875,516.0938 C1049.7625,516.0938 1047.7625,518.1719 1047.7625,520.8906 L1047.7625,522.0156 C1047.7625,524.5938 1049.8719,526.4844 1052.7625,526.4844 C1053.9813,526.4844 1055.1375,526.1875 1055.8875,525.6406 C1056.4656,525.2344 1056.7938,524.7813 1056.7938,524.3906 C1056.7938,523.9375 1056.4031,523.5469 1055.9344,523.5469 C1055.7156,523.5469 1055.5125,523.625 1055.325,523.8125 C1054.8719,524.2969 1054.8719,524.2969 1054.6844,524.3906 C1054.2625,524.6563 1053.575,524.7813 1052.8094,524.7813 C1050.7625,524.7813 1049.4656,523.6875 1049.4656,521.9844 L1049.4656,520.8906 C1049.4656,519.1094 1050.7156,517.7969 1052.45,517.7969 C1053.0281,517.7969 1053.6375,517.9531 1054.1063,518.2031 C1054.5906,518.4844 1054.7625,518.7031 1054.8563,519.1094 C1054.9188,519.5156 1054.95,519.6406 1055.0906,519.7656 C1055.2313,519.9063 1055.4656,520.0156 1055.6844,520.0156 C1055.95,520.0156 1056.2156,519.875 1056.3875,519.6563 C1056.4969,519.5 1056.5281,519.3125 1056.5281,518.8906 L1056.5281,517.4688 C1056.5281,517.0313 1056.5125,516.9063 1056.4188,516.75 C1056.2625,516.4844 1055.9813,516.3438 1055.6844,516.3438 C1055.3875,516.3438 1055.1844,516.4375 1054.9656,516.75 L1054.7938,516.6719 Z " fill="#000000"/><text fill="#000000" font-family="sans-serif" font-size="12" lengthAdjust="spacing" textLength="161" x="1070.55" y="525.1543">CodeChartsEingabefenster</text><line style="stroke:#A80036;stroke-width:1.5;" x1="1020" x2="1252" y1="537" y2="537"/><ellipse cx="1030" cy="564.8047" fill="#84BE84" rx="3" ry="3" style="stroke:#038048;stroke-width:1.0;"/><text fill="#000000" font-family="sans-serif" font-size="11" lengthAdjust="spacing" textLength="81" x="1039" y="568.0151">show() : String</text><line style="stroke:#A80036;stroke-width:1.5;" x1="1020" x2="1095.5" y1="551.4023" y2="551.4023"/><text fill="#000000" font-family="sans-serif" font-size="11" lengthAdjust="spacing" textLength="81" x="1095.5" y="554.7104">public method</text><line style="stroke:#A80036;stroke-width:1.5;" x1="1176.5" x2="1252" y1="551.4023" y2="551.4023"/><rect fill="#F24D5C" height="6" style="stroke:#C82930;stroke-width:1.0;" width="6" x="1027" y="591.4141"/><text fill="#000000" font-family="sans-serif" font-size="11" lengthAdjust="spacing" textLength="135" x="1039" y="597.6245">checkButton() : boolean</text><rect fill="#F24D5C" height="6" style="stroke:#C82930;stroke-width:1.0;" width="6" x="1027" y="604.2188"/><text fill="#000000" font-family="sans-serif" font-size="11" lengthAdjust="spacing" textLength="208" x="1039" y="610.4292">validateString(input: String): boolean</text><rect fill="#F24D5C" height="6" style="stroke:#C82930;stroke-width:1.0;" width="6" x="1027" y="617.0234"/><text fill="#000000" font-family="sans-serif" font-size="11" lengthAdjust="spacing" textLength="120" x="1039" y="623.2339">ErrorMessage() : void</text><line style="stroke:#A80036;stroke-width:1.5;" x1="1020" x2="1089" y1="581.0117" y2="581.0117"/><text fill="#000000" font-family="sans-serif" font-size="11" lengthAdjust="spacing" textLength="94" x="1089" y="584.3198">private methods</text><line style="stroke:#A80036;stroke-width:1.5;" x1="1183" x2="1252" y1="581.0117" y2="581.0117"/><polygon fill="#FFFFFF" filter="url(#fxv0afsxci16v)" points="356,541,414,541,421,563.2969,428,563.2969,428,593.5938,356,593.5938,356,541" style="stroke:#000000;stroke-width:1.5;"/><line style="stroke:#000000;stroke-width:1.5;" x1="356" x2="421" y1="563.2969" y2="563.2969"/><text fill="#000000" font-family="sans-serif" font-size="14" font-weight="bold" lengthAdjust="spacing" textLength="52" x="360" y="555.9951">Config</text><polygon fill="#FFFFFF" filter="url(#fxv0afsxci16v)" points="1447,541,1585,541,1592,563.2969,1599,563.2969,1599,593.5938,1447,593.5938,1447,541" style="stroke:#000000;stroke-width:1.5;"/><line style="stroke:#000000;stroke-width:1.5;" x1="1447" x2="1592" y1="563.2969" y2="563.2969"/><text fill="#000000" font-family="sans-serif" font-size="14" font-weight="bold" lengthAdjust="spacing" textLength="132" x="1451" y="555.9951">SpeicherMedium</text><!--MD5=[e72ca73ac73eca3f18a81a671fe51a7c]
link ToolType to Tutorial--><path codeLine="26" d="M123.614,132.666 C152.816,159.021 191.741,194.15 227.159,226.115 " fill="none" id="ToolType-Tutorial" style="stroke:#A80036;stroke-width:1.0;"/><!--MD5=[9f1a00b177a5ae45176fc1e7f3c0daae]
link Data to ToolType--><path codeLine="27" d="M158.154,90.5 C146.635,90.5 135.115,90.5 123.596,90.5 " fill="none" id="Data-ToolType" style="stroke:#A80036;stroke-width:1.0;"/><!--MD5=[fc4ffdc4bb2ac5a3cd1bd4c856213de4]
link Tutorial to Config--><path codeLine="28" d="M342.6,393.601 C357.18,444.63 374.911,506.688 384.672,540.851 " fill="none" id="Tutorial-Config" style="stroke:#A80036;stroke-width:1.0;"/><!--MD5=[c900c8497a661fa4184b5bb04c49372f]
reverse link Bild to CodeChartsBild--><path codeLine="99" d="M457.628,91.246 C581.771,93.181 830.946,106.75 1027,179 C1218.91,249.722 1316.03,248.465 1414,428 C1435.57,467.528 1400.27,515.633 1374.12,543.493 " fill="none" id="Bild-backto-CodeChartsBild" style="stroke:#A80036;stroke-width:1.0;"/><polygon fill="none" points="457.293,98.243,437.373,91.018,457.45,84.244,457.293,98.243" style="stroke:#A80036;stroke-width:1.0;"/><!--MD5=[1e1b7046ac2ce77f5695cfbd942bbe9e]
reverse link Tutorial to CodeChartsTutorial--><path codeLine="100" d="M413.02,408.255 C457.334,454.094 507.025,505.496 537.415,536.931 " fill="none" id="Tutorial-backto-CodeChartsTutorial" style="stroke:#A80036;stroke-width:1.0;"/><polygon fill="none" points="407.721,412.845,398.853,393.601,417.786,403.115,407.721,412.845" style="stroke:#A80036;stroke-width:1.0;"/><!--MD5=[330c08158d1b261bc3f75486c3c78546]
link CodeChartsCoordinator to CodeChartsBild--><path codeLine="103" d="M1010.11,390.517 C1037.34,411.142 1068.47,431.364 1100,445 C1170.82,475.625 1203.89,436.92 1271,475 C1299.66,491.261 1322.88,521.991 1336.55,543.327 " fill="none" id="CodeChartsCoordinator-CodeChartsBild" style="stroke:#A80036;stroke-width:1.0;"/><polygon fill="#000000" points="1109.5284,438.6862,1102.5824,432.1897,1100.0905,437.5132,1109.5284,438.6862" style="stroke:#000000;stroke-width:1.0;"/><text fill="#000000" font-family="sans-serif" font-size="13" lengthAdjust="spacing" textLength="167" x="1114" y="441.0669">send initial data and show</text><!--MD5=[af7fa7eefc847a19c654188e611c6a01]
link CodeChartsCoordinator to CodeChartsRaster--><path codeLine="104" d="M840.329,398.219 C834.582,407.776 829.631,417.767 826,428 C820.772,442.733 818.392,458.913 817.751,474.856 " fill="none" id="CodeChartsCoordinator-CodeChartsRaster" style="stroke:#A80036;stroke-width:1.0;"/><polygon fill="#000000" points="829.587,441.3626,834.9623,433.5168,829.324,431.8557,829.587,441.3626" style="stroke:#000000;stroke-width:1.0;"/><text fill="#000000" font-family="sans-serif" font-size="13" lengthAdjust="spacing" textLength="130" x="840" y="441.0669">send data and show</text><!--MD5=[acd6e22bd1b43ca41d1e169d29f8f975]
link CodeChartsCoordinator to CodeChartsEingabefenster--><path codeLine="105" d="M975.813,398.343 C986.893,414.297 998.879,430.478 1011,445 C1028.16,465.562 1048.4,486.428 1067.53,504.93 " fill="none" id="CodeChartsCoordinator-CodeChartsEingabefenster" style="stroke:#A80036;stroke-width:1.0;"/><polygon fill="#000000" points="1019.2613,440.3564,1015.5893,431.5833,1011.1339,435.4171,1019.2613,440.3564" style="stroke:#000000;stroke-width:1.0;"/><text fill="#000000" font-family="sans-serif" font-size="13" lengthAdjust="spacing" textLength="34" x="1025" y="441.0669">show</text><!--MD5=[45be10fb9057243d989f7112dab584ae]
link CodeChartsCoordinator to CodeChartsTutorial--><path codeLine="106" d="M831.987,359.342 C779.114,389.722 711.893,431.331 657,475 C633.506,493.69 609.674,517.884 592.296,536.699 " fill="none" id="CodeChartsCoordinator-CodeChartsTutorial" style="stroke:#A80036;stroke-width:1.0;"/><polygon fill="#000000" points="719.9807,439.5405,728.9998,436.5228,725.5036,431.7978,719.9807,439.5405" style="stroke:#000000;stroke-width:1.0;"/><text fill="#000000" font-family="sans-serif" font-size="13" lengthAdjust="spacing" textLength="30" x="733" y="441.0669">start</text><!--MD5=[6420835cf827f0fe1d54714c2e96b5dd]
link CodeChartsCoordinator to SpeicherMedium--><path codeLine="109" d="M1010.02,326.857 C1115.55,348.473 1293.96,394.078 1428,475 C1457.01,492.515 1484.23,520.361 1502.03,540.738 " fill="none" id="CodeChartsCoordinator-SpeicherMedium" style="stroke:#A80036;stroke-width:1.0;"/><polygon fill="#000000" points="1373.5855,438.5598,1366.4619,432.2585,1364.1186,437.649,1373.5855,438.5598" style="stroke:#000000;stroke-width:1.0;"/><text fill="#000000" font-family="sans-serif" font-size="13" lengthAdjust="spacing" textLength="73" x="1378" y="441.0669">saves Data</text><!--MD5=[ba0b6aad62bad149f99973f5ab313e4e]
link CodeChartsCoordinator to Config--><path codeLine="110" d="M831.798,328.459 C736.754,350.398 585.354,395.215 477,475 C451.509,493.77 427.447,520.891 411.475,540.733 " fill="none" id="CodeChartsCoordinator-Config" style="stroke:#A80036;stroke-width:1.0;"/><polygon fill="#000000" points="551.4631,434.3124,542.0644,435.7666,544.7141,441.0133,551.4631,434.3124" style="stroke:#000000;stroke-width:1.0;"/><text fill="#000000" font-family="sans-serif" font-size="13" lengthAdjust="spacing" textLength="100" x="556" y="441.0669">gets Initial Data</text><!--MD5=[85d419accb2b550a005ca870ed30b259]
@startuml
' skinparam backgroundColor transparent
'() System #DA70D5
top to bottom direction

package Util {
    ' - - - TUTORIAL - - -
    abstract Tutorial<t: ToolType> {
      - t: ToolType
      __public method__
      + start() : void
      __private methods__
      - getConfigState() : boolean
      - setConfigState(state: boolean) : void
      - show() : boolean
      __abstract methods__
      - {abstract} tutorial() : void
    }

    enum ToolType {
        ZOOM
        EYETRACKING
        CODECHARTS
    }

    ' Interaktionen
    Tutorial -u- ToolType
    Data -r- ToolType
    Tutorial -d- Config


    ' - - - BILD - - -

    abstract Bild {
        # location : String
        + Bild(url: String)
        + show() : void
        + hide() : void
    }

    class Data<t: ToolType> {
        + t: ToolType
        + data: unknown
        + config_id: int
    }
}

' === CODE CHARTS ===
package CodeCharts {

    ' CodeCharts Tutorial 
    class CodeChartsTutorial {
      - tutorial() : void
    }
  
    ' CodeCharts Coordinator
    class CodeChartsCoordinator {
        - data: Util.Data
        - speed: float[2]
        - isTutorial: boolean
        - isRelative: boolean
        - dimensions: int[2]
        - strings: String[..]
        __public method__
        + startCodeCharts() : void
        __private methods__
        - loadConfigData() : boolean
    }    

    ' CodeCharts Bild
    class CodeChartsBild {
    }

    ' CodeCharts Raster
    class CodeChartsRaster {
        - dimensions: int[2]
        - strings: String[..]
        - coords: int[2]
        __public method__ 
        + setInput(input: String): void
        + setData(dimensions: int[2], strings: String[..]): void
        + show() : void
        + calculate(data: Util.Data) : void
        __private methods__
        - loadPastRuns() : void
        - sendData() : void
    }

    ' CodeCharts Eingabefenster
    class CodeChartsEingabefenster {
        __public method__
        + show() : String
        __private methods__
        - checkButton() : boolean
        - validateString(input: String): boolean
        - ErrorMessage() : void
    }

    ' Vererbungen
    Bild <|-d- CodeChartsBild
    Tutorial <|-d- CodeChartsTutorial

    ' Interaktionen 
    CodeChartsCoordinator - - CodeChartsBild : > send initial data and show
    CodeChartsCoordinator - - CodeChartsRaster : > send data and show
    CodeChartsCoordinator - - CodeChartsEingabefenster : > show
    CodeChartsCoordinator - - CodeChartsTutorial : > start

    ' Andere Module
    CodeChartsCoordinator - - SpeicherMedium : > saves Data
    CodeChartsCoordinator - - Config : < gets Initial Data
  
}

' Blackboxen / Andere Module
package Config {}

package SpeicherMedium {}
@enduml

@startuml
top to bottom direction

package Util {
    abstract Tutorial<t: ToolType> {
      - t: ToolType
      __public method__
      + start() : void
      __private methods__
      - getConfigState() : boolean
      - setConfigState(state: boolean) : void
      - show() : boolean
      __abstract methods__
      - {abstract} tutorial() : void
    }

    enum ToolType {
        ZOOM
        EYETRACKING
        CODECHARTS
    }

    Tutorial -u- ToolType
    Data -r- ToolType
    Tutorial -d- Config



    abstract Bild {
        # location : String
        + Bild(url: String)
        + show() : void
        + hide() : void
    }

    class Data<t: ToolType> {
        + t: ToolType
        + data: unknown
        + config_id: int
    }
}

package CodeCharts {

    class CodeChartsTutorial {
      - tutorial() : void
    }
  
    class CodeChartsCoordinator {
        - data: Util.Data
        - speed: float[2]
        - isTutorial: boolean
        - isRelative: boolean
        - dimensions: int[2]
        - strings: String[..]
        __public method__
        + startCodeCharts() : void
        __private methods__
        - loadConfigData() : boolean
    }    

    class CodeChartsBild {
    }

    class CodeChartsRaster {
        - dimensions: int[2]
        - strings: String[..]
        - coords: int[2]
        __public method__ 
        + setInput(input: String): void
        + setData(dimensions: int[2], strings: String[..]): void
        + show() : void
        + calculate(data: Util.Data) : void
        __private methods__
        - loadPastRuns() : void
        - sendData() : void
    }

    class CodeChartsEingabefenster {
        __public method__
        + show() : String
        __private methods__
        - checkButton() : boolean
        - validateString(input: String): boolean
        - ErrorMessage() : void
    }

    Bild <|-d- CodeChartsBild
    Tutorial <|-d- CodeChartsTutorial

    CodeChartsCoordinator - - CodeChartsBild : > send initial data and show
    CodeChartsCoordinator - - CodeChartsRaster : > send data and show
    CodeChartsCoordinator - - CodeChartsEingabefenster : > show
    CodeChartsCoordinator - - CodeChartsTutorial : > start

    CodeChartsCoordinator - - SpeicherMedium : > saves Data
    CodeChartsCoordinator - - Config : < gets Initial Data
  
}

package Config {}

package SpeicherMedium {}
@enduml

PlantUML version 1.2021.14beta4(Unknown compile time)
(GPL source distribution)
Java Runtime: Java(TM) SE Runtime Environment
JVM: Java HotSpot(TM) 64-Bit Server VM
Default Encoding: UTF-8
Language: en
Country: US
--></g></svg>