<?xml version="1.0" encoding="UTF-8" standalone="no"?><svg xmlns="http://www.w3.org/2000/svg" xmlns:xlink="http://www.w3.org/1999/xlink" contentScriptType="application/ecmascript" contentStyleType="text/css" height="478px" preserveAspectRatio="none" style="width:1440px;height:478px;background:#FFFFFF;" version="1.1" viewBox="0 0 1440 478" width="1440px" zoomAndPan="magnify"><defs><filter height="300%" id="fei0zks3w8uqc" width="300%" x="-1" y="-1"><feGaussianBlur result="blurOut" stdDeviation="2.0"/><feColorMatrix in="blurOut" result="blurOut2" type="matrix" values="0 0 0 0 0 0 0 0 0 0 0 0 0 0 0 0 0 0 .4 0"/><feOffset dx="4.0" dy="4.0" in="blurOut2" result="blurOut3"/><feBlend in="SourceGraphic" in2="blurOut3" mode="normal"/></filter></defs><g><!--MD5=[f7e826e1488aa6662a4b5ddfe29b6b3b]
class abstract--><rect codeLine="1" fill="#FEFECE" filter="url(#fei0zks3w8uqc)" height="48" id="abstract" style="stroke:#A80036;stroke-width:1.5;" width="82" x="34.5" y="7"/><ellipse cx="49.5" cy="23" fill="#A9DCDF" rx="11" ry="11" style="stroke:#A80036;stroke-width:1.0;"/><path d="M51.5781,24.8125 L51.9688,25.7969 L51.5781,25.7969 C51.125,25.7969 51.0156,25.8125 50.8594,25.9219 C50.6094,26.0781 50.4531,26.3594 50.4531,26.6563 C50.4531,26.9219 50.5938,27.1719 50.8125,27.3281 C50.9531,27.4531 51.1563,27.5 51.5781,27.5 L53.9375,27.5 C54.2969,27.5 54.5156,27.4688 54.6563,27.375 C54.9063,27.2344 55.0625,26.9375 55.0625,26.6563 C55.0625,26.375 54.9219,26.125 54.7031,25.9688 C54.5313,25.8281 54.375,25.7969 53.9063,25.7969 L50.5156,17.5938 L46.8438,17.5938 C46.3906,17.5938 46.2656,17.6094 46.1094,17.7031 C45.8594,17.875 45.7031,18.1563 45.7031,18.4375 C45.7031,18.7188 45.8438,18.9688 46.0625,19.1406 C46.2344,19.25 46.4063,19.2813 46.8438,19.2813 L47.9219,19.2813 L45.2813,25.7969 C44.8594,25.7969 44.7031,25.8125 44.5469,25.9219 C44.2969,26.0781 44.1406,26.3594 44.1406,26.6563 C44.1406,27.2188 44.5156,27.5 45.2656,27.5 L47.5313,27.5 C47.8906,27.5 48.1094,27.4688 48.2344,27.375 C48.5,27.2344 48.6406,26.9375 48.6406,26.6563 C48.6406,26.375 48.5156,26.125 48.2969,25.9531 C48.125,25.8281 47.9844,25.7969 47.5313,25.7969 L47.1406,25.7969 L47.5313,24.8125 L51.5781,24.8125 Z M50.875,23.1094 L48.2031,23.1094 L49.5469,19.8438 L50.875,23.1094 Z " fill="#000000"/><text fill="#000000" font-family="sans-serif" font-size="12" font-style="italic" lengthAdjust="spacing" textLength="50" x="63.5" y="27.1543">abstract</text><line style="stroke:#A80036;stroke-width:1.5;" x1="35.5" x2="115.5" y1="39" y2="39"/><line style="stroke:#A80036;stroke-width:1.5;" x1="35.5" x2="115.5" y1="47" y2="47"/><!--MD5=[17df400e90568e28eeaed93acf178394]
class abstract class--><rect codeLine="2" fill="#FEFECE" filter="url(#fei0zks3w8uqc)" height="48" id="abstract class" style="stroke:#A80036;stroke-width:1.5;" width="115" x="152" y="7"/><ellipse cx="167" cy="23" fill="#A9DCDF" rx="11" ry="11" style="stroke:#A80036;stroke-width:1.0;"/><path d="M169.0781,24.8125 L169.4688,25.7969 L169.0781,25.7969 C168.625,25.7969 168.5156,25.8125 168.3594,25.9219 C168.1094,26.0781 167.9531,26.3594 167.9531,26.6563 C167.9531,26.9219 168.0938,27.1719 168.3125,27.3281 C168.4531,27.4531 168.6563,27.5 169.0781,27.5 L171.4375,27.5 C171.7969,27.5 172.0156,27.4688 172.1563,27.375 C172.4063,27.2344 172.5625,26.9375 172.5625,26.6563 C172.5625,26.375 172.4219,26.125 172.2031,25.9688 C172.0313,25.8281 171.875,25.7969 171.4063,25.7969 L168.0156,17.5938 L164.3438,17.5938 C163.8906,17.5938 163.7656,17.6094 163.6094,17.7031 C163.3594,17.875 163.2031,18.1563 163.2031,18.4375 C163.2031,18.7188 163.3438,18.9688 163.5625,19.1406 C163.7344,19.25 163.9063,19.2813 164.3438,19.2813 L165.4219,19.2813 L162.7813,25.7969 C162.3594,25.7969 162.2031,25.8125 162.0469,25.9219 C161.7969,26.0781 161.6406,26.3594 161.6406,26.6563 C161.6406,27.2188 162.0156,27.5 162.7656,27.5 L165.0313,27.5 C165.3906,27.5 165.6094,27.4688 165.7344,27.375 C166,27.2344 166.1406,26.9375 166.1406,26.6563 C166.1406,26.375 166.0156,26.125 165.7969,25.9531 C165.625,25.8281 165.4844,25.7969 165.0313,25.7969 L164.6406,25.7969 L165.0313,24.8125 L169.0781,24.8125 Z M168.375,23.1094 L165.7031,23.1094 L167.0469,19.8438 L168.375,23.1094 Z " fill="#000000"/><text fill="#000000" font-family="sans-serif" font-size="12" font-style="italic" lengthAdjust="spacing" textLength="83" x="181" y="27.1543">abstract class</text><line style="stroke:#A80036;stroke-width:1.5;" x1="153" x2="266" y1="39" y2="39"/><line style="stroke:#A80036;stroke-width:1.5;" x1="153" x2="266" y1="47" y2="47"/><!--MD5=[7cb74e68c9f11cf3f5cc35e0143045f8]
class annotation--><rect codeLine="3" fill="#FEFECE" filter="url(#fei0zks3w8uqc)" height="48" id="annotation" style="stroke:#A80036;stroke-width:1.5;" width="94" x="302.5" y="7"/><ellipse cx="317.5" cy="23" fill="#E3664A" rx="11" ry="11" style="stroke:#A80036;stroke-width:1.0;"/><path d="M318.4219,20.25 C316.5156,20.3906 315.2031,21.5781 315.2031,23.1563 C315.2031,24.5625 316.4063,25.7813 317.8594,25.7813 C318.0156,25.7813 318.1563,25.7656 318.4219,25.7188 L318.4219,25.7813 L319.2188,25.7813 C319.8438,25.7813 320.1563,25.5625 320.1563,25.0781 C320.1563,24.7969 320.0313,24.6094 319.7656,24.4844 L319.7656,19.7031 C319.7656,17.8125 318.4531,16.4531 316.6094,16.4531 C314.4063,16.4531 312.7969,18.5781 312.7969,21.5156 L312.7969,24.375 C312.7969,25.625 313.0781,26.8438 313.5938,27.7656 C314.3125,29.0156 315.2344,29.5781 316.6406,29.5781 C318.25,29.5781 319.6406,28.9219 319.6406,28.125 C319.6406,27.7344 319.3438,27.4219 318.9688,27.4219 C318.7656,27.4219 318.6719,27.4688 318.4375,27.7188 C318.1094,28.0469 317.4375,28.2656 316.6875,28.2656 C315.9375,28.2656 315.4063,28 315,27.4063 C314.4219,26.6094 314.1406,25.5625 314.1406,24.2656 L314.1406,21.6094 C314.1406,19.4375 315.2031,17.7969 316.6406,17.7969 C317.6875,17.7969 318.4219,18.5781 318.4219,19.7031 L318.4219,20.25 Z M318.4219,24.3594 C318.1875,24.4063 318.0938,24.4063 317.9844,24.4063 C317.1563,24.4063 316.5469,23.875 316.5469,23.1719 C316.5469,22.3438 317.2969,21.7344 318.4219,21.625 L318.4219,24.3594 Z " fill="#000000"/><text fill="#000000" font-family="sans-serif" font-size="12" lengthAdjust="spacing" textLength="62" x="331.5" y="27.1543">annotation</text><line style="stroke:#A80036;stroke-width:1.5;" x1="303.5" x2="395.5" y1="39" y2="39"/><line style="stroke:#A80036;stroke-width:1.5;" x1="303.5" x2="395.5" y1="47" y2="47"/><!--MD5=[da456bc05ddb284180092693c9c3b3b1]
entity circle--><ellipse cx="458.5" cy="31" fill="#FEFECE" filter="url(#fei0zks3w8uqc)" rx="8" ry="8" style="stroke:#A80036;stroke-width:1.5;"/><text fill="#000000" font-family="sans-serif" font-size="14" lengthAdjust="spacing" textLength="39" x="439" y="60.9951">circle</text><!--MD5=[87adb442a9baea16d5e9c4faa47d2afb]
entity circle_short_form--><ellipse cx="75.5" cy="166" fill="#FEFECE" filter="url(#fei0zks3w8uqc)" rx="8" ry="8" style="stroke:#A80036;stroke-width:1.5;"/><text fill="#000000" font-family="sans-serif" font-size="14" lengthAdjust="spacing" textLength="126" x="12.5" y="195.9951">circle_short_form</text><!--MD5=[c4c892d05414254cdeba8adc63897f88]
class class--><rect codeLine="6" fill="#FEFECE" filter="url(#fei0zks3w8uqc)" height="48" id="class" style="stroke:#A80036;stroke-width:1.5;" width="63" x="182" y="142"/><ellipse cx="197" cy="158" fill="#ADD1B2" rx="11" ry="11" style="stroke:#A80036;stroke-width:1.0;"/><path d="M199.3438,153.6719 C198.4063,153.2344 197.8125,153.0938 196.9375,153.0938 C194.3125,153.0938 192.3125,155.1719 192.3125,157.8906 L192.3125,159.0156 C192.3125,161.5938 194.4219,163.4844 197.3125,163.4844 C198.5313,163.4844 199.6875,163.1875 200.4375,162.6406 C201.0156,162.2344 201.3438,161.7813 201.3438,161.3906 C201.3438,160.9375 200.9531,160.5469 200.4844,160.5469 C200.2656,160.5469 200.0625,160.625 199.875,160.8125 C199.4219,161.2969 199.4219,161.2969 199.2344,161.3906 C198.8125,161.6563 198.125,161.7813 197.3594,161.7813 C195.3125,161.7813 194.0156,160.6875 194.0156,158.9844 L194.0156,157.8906 C194.0156,156.1094 195.2656,154.7969 197,154.7969 C197.5781,154.7969 198.1875,154.9531 198.6563,155.2031 C199.1406,155.4844 199.3125,155.7031 199.4063,156.1094 C199.4688,156.5156 199.5,156.6406 199.6406,156.7656 C199.7813,156.9063 200.0156,157.0156 200.2344,157.0156 C200.5,157.0156 200.7656,156.875 200.9375,156.6563 C201.0469,156.5 201.0781,156.3125 201.0781,155.8906 L201.0781,154.4688 C201.0781,154.0313 201.0625,153.9063 200.9688,153.75 C200.8125,153.4844 200.5313,153.3438 200.2344,153.3438 C199.9375,153.3438 199.7344,153.4375 199.5156,153.75 L199.3438,153.6719 Z " fill="#000000"/><text fill="#000000" font-family="sans-serif" font-size="12" lengthAdjust="spacing" textLength="31" x="211" y="162.1543">class</text><line style="stroke:#A80036;stroke-width:1.5;" x1="183" x2="244" y1="174" y2="174"/><line style="stroke:#A80036;stroke-width:1.5;" x1="183" x2="244" y1="182" y2="182"/><polygon fill="#FEFECE" filter="url(#fei0zks3w8uqc)" points="292.5,154,304.5,166,292.5,178,280.5,166,292.5,154" style="stroke:#A80036;stroke-width:1.5;"/><polygon fill="#FEFECE" filter="url(#fei0zks3w8uqc)" points="351.5,154,363.5,166,351.5,178,339.5,166,351.5,154" style="stroke:#A80036;stroke-width:1.5;"/><!--MD5=[467568f20bbf29da492dca29e9e0779e]
class entity--><rect codeLine="9" fill="#FEFECE" filter="url(#fei0zks3w8uqc)" height="48" id="entity" style="stroke:#A80036;stroke-width:1.5;" width="65" x="43" y="269"/><ellipse cx="58" cy="285" fill="#ADD1B2" rx="11" ry="11" style="stroke:#A80036;stroke-width:1.0;"/><path d="M56.7969,285.875 L58.25,285.875 L58.25,285.9844 C58.25,286.3906 58.2813,286.5469 58.3594,286.7031 C58.5156,286.9531 58.7969,287.1094 59.0938,287.1094 C59.3438,287.1094 59.6094,286.9688 59.7656,286.75 C59.8906,286.5938 59.9219,286.4375 59.9219,285.9844 L59.9219,284.0625 C59.9219,283.9063 59.9219,283.8594 59.9063,283.7031 C59.8438,283.2344 59.5313,282.9219 59.0781,282.9219 C58.8281,282.9219 58.5625,283.0625 58.3906,283.2813 C58.2813,283.4531 58.25,283.6094 58.25,284.0625 L58.25,284.1875 L56.7969,284.1875 L56.7969,281.7813 L60.7813,281.7813 L60.7813,282.6406 C60.7813,283.0469 60.8125,283.2188 60.8906,283.375 C61.0625,283.625 61.3438,283.7813 61.625,283.7813 C61.8906,283.7813 62.1563,283.6406 62.3281,283.4219 C62.4375,283.25 62.4688,283.1094 62.4688,282.6406 L62.4688,280.0938 L54.8438,280.0938 C54.4063,280.0938 54.2813,280.1094 54.125,280.2031 C53.875,280.3594 53.7188,280.6563 53.7188,280.9375 C53.7188,281.2188 53.8594,281.4688 54.0781,281.6406 C54.2344,281.75 54.4219,281.7813 54.8438,281.7813 L55.0938,281.7813 L55.0938,288.2969 L54.8438,288.2969 C54.4375,288.2969 54.2813,288.3125 54.125,288.4219 C53.875,288.5938 53.7188,288.8594 53.7188,289.1563 C53.7188,289.4219 53.8594,289.6719 54.0781,289.8281 C54.2188,289.9531 54.4531,290 54.8438,290 L62.8438,290 L62.8438,287.4219 C62.8438,286.9844 62.8125,286.8438 62.7344,286.6875 C62.5625,286.4375 62.2813,286.2813 62,286.2813 C61.7344,286.2813 61.4688,286.3906 61.2969,286.6406 C61.1875,286.7969 61.1563,286.9375 61.1563,287.4219 L61.1563,288.2969 L56.7969,288.2969 L56.7969,285.875 Z " fill="#000000"/><text fill="#000000" font-family="sans-serif" font-size="12" lengthAdjust="spacing" textLength="33" x="72" y="289.1543">entity</text><line style="stroke:#A80036;stroke-width:1.5;" x1="44" x2="107" y1="301" y2="301"/><line style="stroke:#A80036;stroke-width:1.5;" x1="44" x2="107" y1="309" y2="309"/><!--MD5=[b1bf79d8358773e9ea7a3730761a57e9]
class enum--><rect codeLine="10" fill="#FEFECE" filter="url(#fei0zks3w8uqc)" height="48" id="enum" style="stroke:#A80036;stroke-width:1.5;" width="65" x="143" y="269"/><ellipse cx="158" cy="285" fill="#EB937F" rx="11" ry="11" style="stroke:#A80036;stroke-width:1.0;"/><path d="M156.7969,285.875 L158.25,285.875 L158.25,285.9844 C158.25,286.3906 158.2813,286.5469 158.3594,286.7031 C158.5156,286.9531 158.7969,287.1094 159.0938,287.1094 C159.3438,287.1094 159.6094,286.9688 159.7656,286.75 C159.8906,286.5938 159.9219,286.4375 159.9219,285.9844 L159.9219,284.0625 C159.9219,283.9063 159.9219,283.8594 159.9063,283.7031 C159.8438,283.2344 159.5313,282.9219 159.0781,282.9219 C158.8281,282.9219 158.5625,283.0625 158.3906,283.2813 C158.2813,283.4531 158.25,283.6094 158.25,284.0625 L158.25,284.1875 L156.7969,284.1875 L156.7969,281.7813 L160.7813,281.7813 L160.7813,282.6406 C160.7813,283.0469 160.8125,283.2188 160.8906,283.375 C161.0625,283.625 161.3438,283.7813 161.625,283.7813 C161.8906,283.7813 162.1563,283.6406 162.3281,283.4219 C162.4375,283.25 162.4688,283.1094 162.4688,282.6406 L162.4688,280.0938 L154.8438,280.0938 C154.4063,280.0938 154.2813,280.1094 154.125,280.2031 C153.875,280.3594 153.7188,280.6563 153.7188,280.9375 C153.7188,281.2188 153.8594,281.4688 154.0781,281.6406 C154.2344,281.75 154.4219,281.7813 154.8438,281.7813 L155.0938,281.7813 L155.0938,288.2969 L154.8438,288.2969 C154.4375,288.2969 154.2813,288.3125 154.125,288.4219 C153.875,288.5938 153.7188,288.8594 153.7188,289.1563 C153.7188,289.4219 153.8594,289.6719 154.0781,289.8281 C154.2188,289.9531 154.4531,290 154.8438,290 L162.8438,290 L162.8438,287.4219 C162.8438,286.9844 162.8125,286.8438 162.7344,286.6875 C162.5625,286.4375 162.2813,286.2813 162,286.2813 C161.7344,286.2813 161.4688,286.3906 161.2969,286.6406 C161.1875,286.7969 161.1563,286.9375 161.1563,287.4219 L161.1563,288.2969 L156.7969,288.2969 L156.7969,285.875 Z " fill="#000000"/><text fill="#000000" font-family="sans-serif" font-size="12" lengthAdjust="spacing" textLength="33" x="172" y="289.1543">enum</text><line style="stroke:#A80036;stroke-width:1.5;" x1="144" x2="207" y1="301" y2="301"/><line style="stroke:#A80036;stroke-width:1.5;" x1="144" x2="207" y1="309" y2="309"/><!--MD5=[d9847530b5dea828dbcbb50914b76f30]
class interface--><rect codeLine="11" fill="#FEFECE" filter="url(#fei0zks3w8uqc)" height="48" id="interface" style="stroke:#A80036;stroke-width:1.5;" width="85" x="243" y="269"/><ellipse cx="258" cy="285" fill="#B4A7E5" rx="11" ry="11" style="stroke:#A80036;stroke-width:1.0;"/><path d="M258.9531,281.7813 L260.6719,281.7813 C261.0625,281.7813 261.25,281.75 261.375,281.6719 C261.6406,281.5156 261.7813,281.2344 261.7813,280.9375 C261.7813,280.6719 261.6719,280.4063 261.4375,280.2344 C261.2656,280.125 261.125,280.0938 260.6719,280.0938 L255.5313,280.0938 C255.0938,280.0938 254.9688,280.1094 254.8125,280.2031 C254.5625,280.3594 254.4063,280.6563 254.4063,280.9375 C254.4063,281.2188 254.5469,281.4688 254.7656,281.6406 C254.9219,281.75 255.1094,281.7813 255.5313,281.7813 L257.25,281.7813 L257.25,288.2969 L255.5313,288.2969 C255.0938,288.2969 254.9688,288.3125 254.8125,288.4219 C254.5625,288.5781 254.4063,288.8594 254.4063,289.1563 C254.4063,289.4063 254.5469,289.6719 254.7656,289.8281 C254.9219,289.9531 255.125,290 255.5313,290 L260.6719,290 C261.4219,290 261.7813,289.7188 261.7813,289.1563 C261.7813,288.875 261.6719,288.625 261.4375,288.4531 C261.2656,288.3281 261.125,288.2969 260.6719,288.2969 L258.9531,288.2969 L258.9531,281.7813 Z " fill="#000000"/><text fill="#000000" font-family="sans-serif" font-size="12" font-style="italic" lengthAdjust="spacing" textLength="53" x="272" y="289.1543">interface</text><line style="stroke:#A80036;stroke-width:1.5;" x1="244" x2="327" y1="301" y2="301"/><line style="stroke:#A80036;stroke-width:1.5;" x1="244" x2="327" y1="309" y2="309"/><!--MD5=[b2f23c4a06b9bc4c947f037f864aea3c]
class Class01--><rect fill="#FEFECE" filter="url(#fei0zks3w8uqc)" height="48" id="Class01" style="stroke:#A80036;stroke-width:1.5;" width="79" x="521" y="7"/><ellipse cx="536" cy="23" fill="#ADD1B2" rx="11" ry="11" style="stroke:#A80036;stroke-width:1.0;"/><path d="M538.3438,18.6719 C537.4063,18.2344 536.8125,18.0938 535.9375,18.0938 C533.3125,18.0938 531.3125,20.1719 531.3125,22.8906 L531.3125,24.0156 C531.3125,26.5938 533.4219,28.4844 536.3125,28.4844 C537.5313,28.4844 538.6875,28.1875 539.4375,27.6406 C540.0156,27.2344 540.3438,26.7813 540.3438,26.3906 C540.3438,25.9375 539.9531,25.5469 539.4844,25.5469 C539.2656,25.5469 539.0625,25.625 538.875,25.8125 C538.4219,26.2969 538.4219,26.2969 538.2344,26.3906 C537.8125,26.6563 537.125,26.7813 536.3594,26.7813 C534.3125,26.7813 533.0156,25.6875 533.0156,23.9844 L533.0156,22.8906 C533.0156,21.1094 534.2656,19.7969 536,19.7969 C536.5781,19.7969 537.1875,19.9531 537.6563,20.2031 C538.1406,20.4844 538.3125,20.7031 538.4063,21.1094 C538.4688,21.5156 538.5,21.6406 538.6406,21.7656 C538.7813,21.9063 539.0156,22.0156 539.2344,22.0156 C539.5,22.0156 539.7656,21.875 539.9375,21.6563 C540.0469,21.5 540.0781,21.3125 540.0781,20.8906 L540.0781,19.4688 C540.0781,19.0313 540.0625,18.9063 539.9688,18.75 C539.8125,18.4844 539.5313,18.3438 539.2344,18.3438 C538.9375,18.3438 538.7344,18.4375 538.5156,18.75 L538.3438,18.6719 Z " fill="#000000"/><text fill="#000000" font-family="sans-serif" font-size="12" lengthAdjust="spacing" textLength="47" x="550" y="27.1543">Class01</text><line style="stroke:#A80036;stroke-width:1.5;" x1="522" x2="599" y1="39" y2="39"/><line style="stroke:#A80036;stroke-width:1.5;" x1="522" x2="599" y1="47" y2="47"/><!--MD5=[67b7f66b9c6b27d60ed6d0424460c06c]
class Class02--><rect fill="#FEFECE" filter="url(#fei0zks3w8uqc)" height="48" id="Class02" style="stroke:#A80036;stroke-width:1.5;" width="80" x="520.5" y="142"/><ellipse cx="535.5" cy="158" fill="#ADD1B2" rx="11" ry="11" style="stroke:#A80036;stroke-width:1.0;"/><path d="M537.8438,153.6719 C536.9063,153.2344 536.3125,153.0938 535.4375,153.0938 C532.8125,153.0938 530.8125,155.1719 530.8125,157.8906 L530.8125,159.0156 C530.8125,161.5938 532.9219,163.4844 535.8125,163.4844 C537.0313,163.4844 538.1875,163.1875 538.9375,162.6406 C539.5156,162.2344 539.8438,161.7813 539.8438,161.3906 C539.8438,160.9375 539.4531,160.5469 538.9844,160.5469 C538.7656,160.5469 538.5625,160.625 538.375,160.8125 C537.9219,161.2969 537.9219,161.2969 537.7344,161.3906 C537.3125,161.6563 536.625,161.7813 535.8594,161.7813 C533.8125,161.7813 532.5156,160.6875 532.5156,158.9844 L532.5156,157.8906 C532.5156,156.1094 533.7656,154.7969 535.5,154.7969 C536.0781,154.7969 536.6875,154.9531 537.1563,155.2031 C537.6406,155.4844 537.8125,155.7031 537.9063,156.1094 C537.9688,156.5156 538,156.6406 538.1406,156.7656 C538.2813,156.9063 538.5156,157.0156 538.7344,157.0156 C539,157.0156 539.2656,156.875 539.4375,156.6563 C539.5469,156.5 539.5781,156.3125 539.5781,155.8906 L539.5781,154.4688 C539.5781,154.0313 539.5625,153.9063 539.4688,153.75 C539.3125,153.4844 539.0313,153.3438 538.7344,153.3438 C538.4375,153.3438 538.2344,153.4375 538.0156,153.75 L537.8438,153.6719 Z " fill="#000000"/><text fill="#000000" font-family="sans-serif" font-size="12" lengthAdjust="spacing" textLength="48" x="549.5" y="162.1543">Class02</text><line style="stroke:#A80036;stroke-width:1.5;" x1="521.5" x2="599.5" y1="174" y2="174"/><line style="stroke:#A80036;stroke-width:1.5;" x1="521.5" x2="599.5" y1="182" y2="182"/><!--MD5=[e34eefe962fcadefcbf83660cc436420]
class Class03--><rect fill="#FEFECE" filter="url(#fei0zks3w8uqc)" height="48" id="Class03" style="stroke:#A80036;stroke-width:1.5;" width="80" x="635.5" y="7"/><ellipse cx="650.5" cy="23" fill="#ADD1B2" rx="11" ry="11" style="stroke:#A80036;stroke-width:1.0;"/><path d="M652.8438,18.6719 C651.9063,18.2344 651.3125,18.0938 650.4375,18.0938 C647.8125,18.0938 645.8125,20.1719 645.8125,22.8906 L645.8125,24.0156 C645.8125,26.5938 647.9219,28.4844 650.8125,28.4844 C652.0313,28.4844 653.1875,28.1875 653.9375,27.6406 C654.5156,27.2344 654.8438,26.7813 654.8438,26.3906 C654.8438,25.9375 654.4531,25.5469 653.9844,25.5469 C653.7656,25.5469 653.5625,25.625 653.375,25.8125 C652.9219,26.2969 652.9219,26.2969 652.7344,26.3906 C652.3125,26.6563 651.625,26.7813 650.8594,26.7813 C648.8125,26.7813 647.5156,25.6875 647.5156,23.9844 L647.5156,22.8906 C647.5156,21.1094 648.7656,19.7969 650.5,19.7969 C651.0781,19.7969 651.6875,19.9531 652.1563,20.2031 C652.6406,20.4844 652.8125,20.7031 652.9063,21.1094 C652.9688,21.5156 653,21.6406 653.1406,21.7656 C653.2813,21.9063 653.5156,22.0156 653.7344,22.0156 C654,22.0156 654.2656,21.875 654.4375,21.6563 C654.5469,21.5 654.5781,21.3125 654.5781,20.8906 L654.5781,19.4688 C654.5781,19.0313 654.5625,18.9063 654.4688,18.75 C654.3125,18.4844 654.0313,18.3438 653.7344,18.3438 C653.4375,18.3438 653.2344,18.4375 653.0156,18.75 L652.8438,18.6719 Z " fill="#000000"/><text fill="#000000" font-family="sans-serif" font-size="12" lengthAdjust="spacing" textLength="48" x="664.5" y="27.1543">Class03</text><line style="stroke:#A80036;stroke-width:1.5;" x1="636.5" x2="714.5" y1="39" y2="39"/><line style="stroke:#A80036;stroke-width:1.5;" x1="636.5" x2="714.5" y1="47" y2="47"/><!--MD5=[d53a23475d458e69a9e37a48405189e2]
class Class04--><rect fill="#FEFECE" filter="url(#fei0zks3w8uqc)" height="48" id="Class04" style="stroke:#A80036;stroke-width:1.5;" width="80" x="635.5" y="142"/><ellipse cx="650.5" cy="158" fill="#ADD1B2" rx="11" ry="11" style="stroke:#A80036;stroke-width:1.0;"/><path d="M652.8438,153.6719 C651.9063,153.2344 651.3125,153.0938 650.4375,153.0938 C647.8125,153.0938 645.8125,155.1719 645.8125,157.8906 L645.8125,159.0156 C645.8125,161.5938 647.9219,163.4844 650.8125,163.4844 C652.0313,163.4844 653.1875,163.1875 653.9375,162.6406 C654.5156,162.2344 654.8438,161.7813 654.8438,161.3906 C654.8438,160.9375 654.4531,160.5469 653.9844,160.5469 C653.7656,160.5469 653.5625,160.625 653.375,160.8125 C652.9219,161.2969 652.9219,161.2969 652.7344,161.3906 C652.3125,161.6563 651.625,161.7813 650.8594,161.7813 C648.8125,161.7813 647.5156,160.6875 647.5156,158.9844 L647.5156,157.8906 C647.5156,156.1094 648.7656,154.7969 650.5,154.7969 C651.0781,154.7969 651.6875,154.9531 652.1563,155.2031 C652.6406,155.4844 652.8125,155.7031 652.9063,156.1094 C652.9688,156.5156 653,156.6406 653.1406,156.7656 C653.2813,156.9063 653.5156,157.0156 653.7344,157.0156 C654,157.0156 654.2656,156.875 654.4375,156.6563 C654.5469,156.5 654.5781,156.3125 654.5781,155.8906 L654.5781,154.4688 C654.5781,154.0313 654.5625,153.9063 654.4688,153.75 C654.3125,153.4844 654.0313,153.3438 653.7344,153.3438 C653.4375,153.3438 653.2344,153.4375 653.0156,153.75 L652.8438,153.6719 Z " fill="#000000"/><text fill="#000000" font-family="sans-serif" font-size="12" lengthAdjust="spacing" textLength="48" x="664.5" y="162.1543">Class04</text><line style="stroke:#A80036;stroke-width:1.5;" x1="636.5" x2="714.5" y1="174" y2="174"/><line style="stroke:#A80036;stroke-width:1.5;" x1="636.5" x2="714.5" y1="182" y2="182"/><!--MD5=[21c802bf509ebb275d96eccffaf3e0b6]
class Class05--><rect fill="#FEFECE" filter="url(#fei0zks3w8uqc)" height="48" id="Class05" style="stroke:#A80036;stroke-width:1.5;" width="80" x="750.5" y="7"/><ellipse cx="765.5" cy="23" fill="#ADD1B2" rx="11" ry="11" style="stroke:#A80036;stroke-width:1.0;"/><path d="M767.8438,18.6719 C766.9063,18.2344 766.3125,18.0938 765.4375,18.0938 C762.8125,18.0938 760.8125,20.1719 760.8125,22.8906 L760.8125,24.0156 C760.8125,26.5938 762.9219,28.4844 765.8125,28.4844 C767.0313,28.4844 768.1875,28.1875 768.9375,27.6406 C769.5156,27.2344 769.8438,26.7813 769.8438,26.3906 C769.8438,25.9375 769.4531,25.5469 768.9844,25.5469 C768.7656,25.5469 768.5625,25.625 768.375,25.8125 C767.9219,26.2969 767.9219,26.2969 767.7344,26.3906 C767.3125,26.6563 766.625,26.7813 765.8594,26.7813 C763.8125,26.7813 762.5156,25.6875 762.5156,23.9844 L762.5156,22.8906 C762.5156,21.1094 763.7656,19.7969 765.5,19.7969 C766.0781,19.7969 766.6875,19.9531 767.1563,20.2031 C767.6406,20.4844 767.8125,20.7031 767.9063,21.1094 C767.9688,21.5156 768,21.6406 768.1406,21.7656 C768.2813,21.9063 768.5156,22.0156 768.7344,22.0156 C769,22.0156 769.2656,21.875 769.4375,21.6563 C769.5469,21.5 769.5781,21.3125 769.5781,20.8906 L769.5781,19.4688 C769.5781,19.0313 769.5625,18.9063 769.4688,18.75 C769.3125,18.4844 769.0313,18.3438 768.7344,18.3438 C768.4375,18.3438 768.2344,18.4375 768.0156,18.75 L767.8438,18.6719 Z " fill="#000000"/><text fill="#000000" font-family="sans-serif" font-size="12" lengthAdjust="spacing" textLength="48" x="779.5" y="27.1543">Class05</text><line style="stroke:#A80036;stroke-width:1.5;" x1="751.5" x2="829.5" y1="39" y2="39"/><line style="stroke:#A80036;stroke-width:1.5;" x1="751.5" x2="829.5" y1="47" y2="47"/><!--MD5=[247dd373b5711b206209116e093ec52c]
class Class06--><rect fill="#FEFECE" filter="url(#fei0zks3w8uqc)" height="48" id="Class06" style="stroke:#A80036;stroke-width:1.5;" width="80" x="750.5" y="142"/><ellipse cx="765.5" cy="158" fill="#ADD1B2" rx="11" ry="11" style="stroke:#A80036;stroke-width:1.0;"/><path d="M767.8438,153.6719 C766.9063,153.2344 766.3125,153.0938 765.4375,153.0938 C762.8125,153.0938 760.8125,155.1719 760.8125,157.8906 L760.8125,159.0156 C760.8125,161.5938 762.9219,163.4844 765.8125,163.4844 C767.0313,163.4844 768.1875,163.1875 768.9375,162.6406 C769.5156,162.2344 769.8438,161.7813 769.8438,161.3906 C769.8438,160.9375 769.4531,160.5469 768.9844,160.5469 C768.7656,160.5469 768.5625,160.625 768.375,160.8125 C767.9219,161.2969 767.9219,161.2969 767.7344,161.3906 C767.3125,161.6563 766.625,161.7813 765.8594,161.7813 C763.8125,161.7813 762.5156,160.6875 762.5156,158.9844 L762.5156,157.8906 C762.5156,156.1094 763.7656,154.7969 765.5,154.7969 C766.0781,154.7969 766.6875,154.9531 767.1563,155.2031 C767.6406,155.4844 767.8125,155.7031 767.9063,156.1094 C767.9688,156.5156 768,156.6406 768.1406,156.7656 C768.2813,156.9063 768.5156,157.0156 768.7344,157.0156 C769,157.0156 769.2656,156.875 769.4375,156.6563 C769.5469,156.5 769.5781,156.3125 769.5781,155.8906 L769.5781,154.4688 C769.5781,154.0313 769.5625,153.9063 769.4688,153.75 C769.3125,153.4844 769.0313,153.3438 768.7344,153.3438 C768.4375,153.3438 768.2344,153.4375 768.0156,153.75 L767.8438,153.6719 Z " fill="#000000"/><text fill="#000000" font-family="sans-serif" font-size="12" lengthAdjust="spacing" textLength="48" x="779.5" y="162.1543">Class06</text><line style="stroke:#A80036;stroke-width:1.5;" x1="751.5" x2="829.5" y1="174" y2="174"/><line style="stroke:#A80036;stroke-width:1.5;" x1="751.5" x2="829.5" y1="182" y2="182"/><!--MD5=[83017deacfdfe1c29bd0eb2a2cc9c723]
class Class07--><rect fill="#FEFECE" filter="url(#fei0zks3w8uqc)" height="48" id="Class07" style="stroke:#A80036;stroke-width:1.5;" width="80" x="865.5" y="7"/><ellipse cx="880.5" cy="23" fill="#ADD1B2" rx="11" ry="11" style="stroke:#A80036;stroke-width:1.0;"/><path d="M882.8438,18.6719 C881.9063,18.2344 881.3125,18.0938 880.4375,18.0938 C877.8125,18.0938 875.8125,20.1719 875.8125,22.8906 L875.8125,24.0156 C875.8125,26.5938 877.9219,28.4844 880.8125,28.4844 C882.0313,28.4844 883.1875,28.1875 883.9375,27.6406 C884.5156,27.2344 884.8438,26.7813 884.8438,26.3906 C884.8438,25.9375 884.4531,25.5469 883.9844,25.5469 C883.7656,25.5469 883.5625,25.625 883.375,25.8125 C882.9219,26.2969 882.9219,26.2969 882.7344,26.3906 C882.3125,26.6563 881.625,26.7813 880.8594,26.7813 C878.8125,26.7813 877.5156,25.6875 877.5156,23.9844 L877.5156,22.8906 C877.5156,21.1094 878.7656,19.7969 880.5,19.7969 C881.0781,19.7969 881.6875,19.9531 882.1563,20.2031 C882.6406,20.4844 882.8125,20.7031 882.9063,21.1094 C882.9688,21.5156 883,21.6406 883.1406,21.7656 C883.2813,21.9063 883.5156,22.0156 883.7344,22.0156 C884,22.0156 884.2656,21.875 884.4375,21.6563 C884.5469,21.5 884.5781,21.3125 884.5781,20.8906 L884.5781,19.4688 C884.5781,19.0313 884.5625,18.9063 884.4688,18.75 C884.3125,18.4844 884.0313,18.3438 883.7344,18.3438 C883.4375,18.3438 883.2344,18.4375 883.0156,18.75 L882.8438,18.6719 Z " fill="#000000"/><text fill="#000000" font-family="sans-serif" font-size="12" lengthAdjust="spacing" textLength="48" x="894.5" y="27.1543">Class07</text><line style="stroke:#A80036;stroke-width:1.5;" x1="866.5" x2="944.5" y1="39" y2="39"/><line style="stroke:#A80036;stroke-width:1.5;" x1="866.5" x2="944.5" y1="47" y2="47"/><!--MD5=[0e75c8574cc137f0f93c5ac687b4b98c]
class Class08--><rect fill="#FEFECE" filter="url(#fei0zks3w8uqc)" height="48" id="Class08" style="stroke:#A80036;stroke-width:1.5;" width="80" x="865.5" y="142"/><ellipse cx="880.5" cy="158" fill="#ADD1B2" rx="11" ry="11" style="stroke:#A80036;stroke-width:1.0;"/><path d="M882.8438,153.6719 C881.9063,153.2344 881.3125,153.0938 880.4375,153.0938 C877.8125,153.0938 875.8125,155.1719 875.8125,157.8906 L875.8125,159.0156 C875.8125,161.5938 877.9219,163.4844 880.8125,163.4844 C882.0313,163.4844 883.1875,163.1875 883.9375,162.6406 C884.5156,162.2344 884.8438,161.7813 884.8438,161.3906 C884.8438,160.9375 884.4531,160.5469 883.9844,160.5469 C883.7656,160.5469 883.5625,160.625 883.375,160.8125 C882.9219,161.2969 882.9219,161.2969 882.7344,161.3906 C882.3125,161.6563 881.625,161.7813 880.8594,161.7813 C878.8125,161.7813 877.5156,160.6875 877.5156,158.9844 L877.5156,157.8906 C877.5156,156.1094 878.7656,154.7969 880.5,154.7969 C881.0781,154.7969 881.6875,154.9531 882.1563,155.2031 C882.6406,155.4844 882.8125,155.7031 882.9063,156.1094 C882.9688,156.5156 883,156.6406 883.1406,156.7656 C883.2813,156.9063 883.5156,157.0156 883.7344,157.0156 C884,157.0156 884.2656,156.875 884.4375,156.6563 C884.5469,156.5 884.5781,156.3125 884.5781,155.8906 L884.5781,154.4688 C884.5781,154.0313 884.5625,153.9063 884.4688,153.75 C884.3125,153.4844 884.0313,153.3438 883.7344,153.3438 C883.4375,153.3438 883.2344,153.4375 883.0156,153.75 L882.8438,153.6719 Z " fill="#000000"/><text fill="#000000" font-family="sans-serif" font-size="12" lengthAdjust="spacing" textLength="48" x="894.5" y="162.1543">Class08</text><line style="stroke:#A80036;stroke-width:1.5;" x1="866.5" x2="944.5" y1="174" y2="174"/><line style="stroke:#A80036;stroke-width:1.5;" x1="866.5" x2="944.5" y1="182" y2="182"/><!--MD5=[11c0341282256c64706f32de960d439a]
class Class09--><rect fill="#FEFECE" filter="url(#fei0zks3w8uqc)" height="48" id="Class09" style="stroke:#A80036;stroke-width:1.5;" width="80" x="980.5" y="7"/><ellipse cx="995.5" cy="23" fill="#ADD1B2" rx="11" ry="11" style="stroke:#A80036;stroke-width:1.0;"/><path d="M997.8438,18.6719 C996.9063,18.2344 996.3125,18.0938 995.4375,18.0938 C992.8125,18.0938 990.8125,20.1719 990.8125,22.8906 L990.8125,24.0156 C990.8125,26.5938 992.9219,28.4844 995.8125,28.4844 C997.0313,28.4844 998.1875,28.1875 998.9375,27.6406 C999.5156,27.2344 999.8438,26.7813 999.8438,26.3906 C999.8438,25.9375 999.4531,25.5469 998.9844,25.5469 C998.7656,25.5469 998.5625,25.625 998.375,25.8125 C997.9219,26.2969 997.9219,26.2969 997.7344,26.3906 C997.3125,26.6563 996.625,26.7813 995.8594,26.7813 C993.8125,26.7813 992.5156,25.6875 992.5156,23.9844 L992.5156,22.8906 C992.5156,21.1094 993.7656,19.7969 995.5,19.7969 C996.0781,19.7969 996.6875,19.9531 997.1563,20.2031 C997.6406,20.4844 997.8125,20.7031 997.9063,21.1094 C997.9688,21.5156 998,21.6406 998.1406,21.7656 C998.2813,21.9063 998.5156,22.0156 998.7344,22.0156 C999,22.0156 999.2656,21.875 999.4375,21.6563 C999.5469,21.5 999.5781,21.3125 999.5781,20.8906 L999.5781,19.4688 C999.5781,19.0313 999.5625,18.9063 999.4688,18.75 C999.3125,18.4844 999.0313,18.3438 998.7344,18.3438 C998.4375,18.3438 998.2344,18.4375 998.0156,18.75 L997.8438,18.6719 Z " fill="#000000"/><text fill="#000000" font-family="sans-serif" font-size="12" lengthAdjust="spacing" textLength="48" x="1009.5" y="27.1543">Class09</text><line style="stroke:#A80036;stroke-width:1.5;" x1="981.5" x2="1059.5" y1="39" y2="39"/><line style="stroke:#A80036;stroke-width:1.5;" x1="981.5" x2="1059.5" y1="47" y2="47"/><!--MD5=[f0780a43e5c0af3c52b439b7f3f3994e]
class Class10--><rect fill="#FEFECE" filter="url(#fei0zks3w8uqc)" height="48" id="Class10" style="stroke:#A80036;stroke-width:1.5;" width="79" x="981" y="142"/><ellipse cx="996" cy="158" fill="#ADD1B2" rx="11" ry="11" style="stroke:#A80036;stroke-width:1.0;"/><path d="M998.3438,153.6719 C997.4063,153.2344 996.8125,153.0938 995.9375,153.0938 C993.3125,153.0938 991.3125,155.1719 991.3125,157.8906 L991.3125,159.0156 C991.3125,161.5938 993.4219,163.4844 996.3125,163.4844 C997.5313,163.4844 998.6875,163.1875 999.4375,162.6406 C1000.0156,162.2344 1000.3438,161.7813 1000.3438,161.3906 C1000.3438,160.9375 999.9531,160.5469 999.4844,160.5469 C999.2656,160.5469 999.0625,160.625 998.875,160.8125 C998.4219,161.2969 998.4219,161.2969 998.2344,161.3906 C997.8125,161.6563 997.125,161.7813 996.3594,161.7813 C994.3125,161.7813 993.0156,160.6875 993.0156,158.9844 L993.0156,157.8906 C993.0156,156.1094 994.2656,154.7969 996,154.7969 C996.5781,154.7969 997.1875,154.9531 997.6563,155.2031 C998.1406,155.4844 998.3125,155.7031 998.4063,156.1094 C998.4688,156.5156 998.5,156.6406 998.6406,156.7656 C998.7813,156.9063 999.0156,157.0156 999.2344,157.0156 C999.5,157.0156 999.7656,156.875 999.9375,156.6563 C1000.0469,156.5 1000.0781,156.3125 1000.0781,155.8906 L1000.0781,154.4688 C1000.0781,154.0313 1000.0625,153.9063 999.9688,153.75 C999.8125,153.4844 999.5313,153.3438 999.2344,153.3438 C998.9375,153.3438 998.7344,153.4375 998.5156,153.75 L998.3438,153.6719 Z " fill="#000000"/><text fill="#000000" font-family="sans-serif" font-size="12" lengthAdjust="spacing" textLength="47" x="1010" y="162.1543">Class10</text><line style="stroke:#A80036;stroke-width:1.5;" x1="982" x2="1059" y1="174" y2="174"/><line style="stroke:#A80036;stroke-width:1.5;" x1="982" x2="1059" y1="182" y2="182"/><!--MD5=[027bececee94c43c59b446c3c83d2171]
class Class101--><rect fill="#FEFECE" filter="url(#fei0zks3w8uqc)" height="48" id="Class101" style="stroke:#A80036;stroke-width:1.5;" width="86" x="1095.5" y="7"/><ellipse cx="1110.5" cy="23" fill="#ADD1B2" rx="11" ry="11" style="stroke:#A80036;stroke-width:1.0;"/><path d="M1112.8438,18.6719 C1111.9063,18.2344 1111.3125,18.0938 1110.4375,18.0938 C1107.8125,18.0938 1105.8125,20.1719 1105.8125,22.8906 L1105.8125,24.0156 C1105.8125,26.5938 1107.9219,28.4844 1110.8125,28.4844 C1112.0313,28.4844 1113.1875,28.1875 1113.9375,27.6406 C1114.5156,27.2344 1114.8438,26.7813 1114.8438,26.3906 C1114.8438,25.9375 1114.4531,25.5469 1113.9844,25.5469 C1113.7656,25.5469 1113.5625,25.625 1113.375,25.8125 C1112.9219,26.2969 1112.9219,26.2969 1112.7344,26.3906 C1112.3125,26.6563 1111.625,26.7813 1110.8594,26.7813 C1108.8125,26.7813 1107.5156,25.6875 1107.5156,23.9844 L1107.5156,22.8906 C1107.5156,21.1094 1108.7656,19.7969 1110.5,19.7969 C1111.0781,19.7969 1111.6875,19.9531 1112.1563,20.2031 C1112.6406,20.4844 1112.8125,20.7031 1112.9063,21.1094 C1112.9688,21.5156 1113,21.6406 1113.1406,21.7656 C1113.2813,21.9063 1113.5156,22.0156 1113.7344,22.0156 C1114,22.0156 1114.2656,21.875 1114.4375,21.6563 C1114.5469,21.5 1114.5781,21.3125 1114.5781,20.8906 L1114.5781,19.4688 C1114.5781,19.0313 1114.5625,18.9063 1114.4688,18.75 C1114.3125,18.4844 1114.0313,18.3438 1113.7344,18.3438 C1113.4375,18.3438 1113.2344,18.4375 1113.0156,18.75 L1112.8438,18.6719 Z " fill="#000000"/><text fill="#000000" font-family="sans-serif" font-size="12" lengthAdjust="spacing" textLength="54" x="1124.5" y="27.1543">Class101</text><line style="stroke:#A80036;stroke-width:1.5;" x1="1096.5" x2="1180.5" y1="39" y2="39"/><line style="stroke:#A80036;stroke-width:1.5;" x1="1096.5" x2="1180.5" y1="47" y2="47"/><!--MD5=[811b1ddbcbb597893e8e939d31b6a0d3]
class Class102--><rect fill="#FEFECE" filter="url(#fei0zks3w8uqc)" height="48" id="Class102" style="stroke:#A80036;stroke-width:1.5;" width="87" x="1095" y="142"/><ellipse cx="1110" cy="158" fill="#ADD1B2" rx="11" ry="11" style="stroke:#A80036;stroke-width:1.0;"/><path d="M1112.3438,153.6719 C1111.4063,153.2344 1110.8125,153.0938 1109.9375,153.0938 C1107.3125,153.0938 1105.3125,155.1719 1105.3125,157.8906 L1105.3125,159.0156 C1105.3125,161.5938 1107.4219,163.4844 1110.3125,163.4844 C1111.5313,163.4844 1112.6875,163.1875 1113.4375,162.6406 C1114.0156,162.2344 1114.3438,161.7813 1114.3438,161.3906 C1114.3438,160.9375 1113.9531,160.5469 1113.4844,160.5469 C1113.2656,160.5469 1113.0625,160.625 1112.875,160.8125 C1112.4219,161.2969 1112.4219,161.2969 1112.2344,161.3906 C1111.8125,161.6563 1111.125,161.7813 1110.3594,161.7813 C1108.3125,161.7813 1107.0156,160.6875 1107.0156,158.9844 L1107.0156,157.8906 C1107.0156,156.1094 1108.2656,154.7969 1110,154.7969 C1110.5781,154.7969 1111.1875,154.9531 1111.6563,155.2031 C1112.1406,155.4844 1112.3125,155.7031 1112.4063,156.1094 C1112.4688,156.5156 1112.5,156.6406 1112.6406,156.7656 C1112.7813,156.9063 1113.0156,157.0156 1113.2344,157.0156 C1113.5,157.0156 1113.7656,156.875 1113.9375,156.6563 C1114.0469,156.5 1114.0781,156.3125 1114.0781,155.8906 L1114.0781,154.4688 C1114.0781,154.0313 1114.0625,153.9063 1113.9688,153.75 C1113.8125,153.4844 1113.5313,153.3438 1113.2344,153.3438 C1112.9375,153.3438 1112.7344,153.4375 1112.5156,153.75 L1112.3438,153.6719 Z " fill="#000000"/><text fill="#000000" font-family="sans-serif" font-size="12" lengthAdjust="spacing" textLength="55" x="1124" y="162.1543">Class102</text><line style="stroke:#A80036;stroke-width:1.5;" x1="1096" x2="1181" y1="174" y2="174"/><line style="stroke:#A80036;stroke-width:1.5;" x1="1096" x2="1181" y1="182" y2="182"/><!--MD5=[058da53f43472c2f92a3054c5097e84d]
class Class103--><rect fill="#FEFECE" filter="url(#fei0zks3w8uqc)" height="48" id="Class103" style="stroke:#A80036;stroke-width:1.5;" width="87" x="1217" y="7"/><ellipse cx="1232" cy="23" fill="#ADD1B2" rx="11" ry="11" style="stroke:#A80036;stroke-width:1.0;"/><path d="M1234.3438,18.6719 C1233.4063,18.2344 1232.8125,18.0938 1231.9375,18.0938 C1229.3125,18.0938 1227.3125,20.1719 1227.3125,22.8906 L1227.3125,24.0156 C1227.3125,26.5938 1229.4219,28.4844 1232.3125,28.4844 C1233.5313,28.4844 1234.6875,28.1875 1235.4375,27.6406 C1236.0156,27.2344 1236.3438,26.7813 1236.3438,26.3906 C1236.3438,25.9375 1235.9531,25.5469 1235.4844,25.5469 C1235.2656,25.5469 1235.0625,25.625 1234.875,25.8125 C1234.4219,26.2969 1234.4219,26.2969 1234.2344,26.3906 C1233.8125,26.6563 1233.125,26.7813 1232.3594,26.7813 C1230.3125,26.7813 1229.0156,25.6875 1229.0156,23.9844 L1229.0156,22.8906 C1229.0156,21.1094 1230.2656,19.7969 1232,19.7969 C1232.5781,19.7969 1233.1875,19.9531 1233.6563,20.2031 C1234.1406,20.4844 1234.3125,20.7031 1234.4063,21.1094 C1234.4688,21.5156 1234.5,21.6406 1234.6406,21.7656 C1234.7813,21.9063 1235.0156,22.0156 1235.2344,22.0156 C1235.5,22.0156 1235.7656,21.875 1235.9375,21.6563 C1236.0469,21.5 1236.0781,21.3125 1236.0781,20.8906 L1236.0781,19.4688 C1236.0781,19.0313 1236.0625,18.9063 1235.9688,18.75 C1235.8125,18.4844 1235.5313,18.3438 1235.2344,18.3438 C1234.9375,18.3438 1234.7344,18.4375 1234.5156,18.75 L1234.3438,18.6719 Z " fill="#000000"/><text fill="#000000" font-family="sans-serif" font-size="12" lengthAdjust="spacing" textLength="55" x="1246" y="27.1543">Class103</text><line style="stroke:#A80036;stroke-width:1.5;" x1="1218" x2="1303" y1="39" y2="39"/><line style="stroke:#A80036;stroke-width:1.5;" x1="1218" x2="1303" y1="47" y2="47"/><!--MD5=[e529a25a3823827436f82991d4092c36]
class Class104--><rect fill="#FEFECE" filter="url(#fei0zks3w8uqc)" height="48" id="Class104" style="stroke:#A80036;stroke-width:1.5;" width="87" x="1217" y="142"/><ellipse cx="1232" cy="158" fill="#ADD1B2" rx="11" ry="11" style="stroke:#A80036;stroke-width:1.0;"/><path d="M1234.3438,153.6719 C1233.4063,153.2344 1232.8125,153.0938 1231.9375,153.0938 C1229.3125,153.0938 1227.3125,155.1719 1227.3125,157.8906 L1227.3125,159.0156 C1227.3125,161.5938 1229.4219,163.4844 1232.3125,163.4844 C1233.5313,163.4844 1234.6875,163.1875 1235.4375,162.6406 C1236.0156,162.2344 1236.3438,161.7813 1236.3438,161.3906 C1236.3438,160.9375 1235.9531,160.5469 1235.4844,160.5469 C1235.2656,160.5469 1235.0625,160.625 1234.875,160.8125 C1234.4219,161.2969 1234.4219,161.2969 1234.2344,161.3906 C1233.8125,161.6563 1233.125,161.7813 1232.3594,161.7813 C1230.3125,161.7813 1229.0156,160.6875 1229.0156,158.9844 L1229.0156,157.8906 C1229.0156,156.1094 1230.2656,154.7969 1232,154.7969 C1232.5781,154.7969 1233.1875,154.9531 1233.6563,155.2031 C1234.1406,155.4844 1234.3125,155.7031 1234.4063,156.1094 C1234.4688,156.5156 1234.5,156.6406 1234.6406,156.7656 C1234.7813,156.9063 1235.0156,157.0156 1235.2344,157.0156 C1235.5,157.0156 1235.7656,156.875 1235.9375,156.6563 C1236.0469,156.5 1236.0781,156.3125 1236.0781,155.8906 L1236.0781,154.4688 C1236.0781,154.0313 1236.0625,153.9063 1235.9688,153.75 C1235.8125,153.4844 1235.5313,153.3438 1235.2344,153.3438 C1234.9375,153.3438 1234.7344,153.4375 1234.5156,153.75 L1234.3438,153.6719 Z " fill="#000000"/><text fill="#000000" font-family="sans-serif" font-size="12" lengthAdjust="spacing" textLength="55" x="1246" y="162.1543">Class104</text><line style="stroke:#A80036;stroke-width:1.5;" x1="1218" x2="1303" y1="174" y2="174"/><line style="stroke:#A80036;stroke-width:1.5;" x1="1218" x2="1303" y1="182" y2="182"/><!--MD5=[92fca43f03027158007b0ef062f36474]
class Class105--><rect fill="#FEFECE" filter="url(#fei0zks3w8uqc)" height="48" id="Class105" style="stroke:#A80036;stroke-width:1.5;" width="87" x="1339" y="7"/><ellipse cx="1354" cy="23" fill="#ADD1B2" rx="11" ry="11" style="stroke:#A80036;stroke-width:1.0;"/><path d="M1356.3438,18.6719 C1355.4063,18.2344 1354.8125,18.0938 1353.9375,18.0938 C1351.3125,18.0938 1349.3125,20.1719 1349.3125,22.8906 L1349.3125,24.0156 C1349.3125,26.5938 1351.4219,28.4844 1354.3125,28.4844 C1355.5313,28.4844 1356.6875,28.1875 1357.4375,27.6406 C1358.0156,27.2344 1358.3438,26.7813 1358.3438,26.3906 C1358.3438,25.9375 1357.9531,25.5469 1357.4844,25.5469 C1357.2656,25.5469 1357.0625,25.625 1356.875,25.8125 C1356.4219,26.2969 1356.4219,26.2969 1356.2344,26.3906 C1355.8125,26.6563 1355.125,26.7813 1354.3594,26.7813 C1352.3125,26.7813 1351.0156,25.6875 1351.0156,23.9844 L1351.0156,22.8906 C1351.0156,21.1094 1352.2656,19.7969 1354,19.7969 C1354.5781,19.7969 1355.1875,19.9531 1355.6563,20.2031 C1356.1406,20.4844 1356.3125,20.7031 1356.4063,21.1094 C1356.4688,21.5156 1356.5,21.6406 1356.6406,21.7656 C1356.7813,21.9063 1357.0156,22.0156 1357.2344,22.0156 C1357.5,22.0156 1357.7656,21.875 1357.9375,21.6563 C1358.0469,21.5 1358.0781,21.3125 1358.0781,20.8906 L1358.0781,19.4688 C1358.0781,19.0313 1358.0625,18.9063 1357.9688,18.75 C1357.8125,18.4844 1357.5313,18.3438 1357.2344,18.3438 C1356.9375,18.3438 1356.7344,18.4375 1356.5156,18.75 L1356.3438,18.6719 Z " fill="#000000"/><text fill="#000000" font-family="sans-serif" font-size="12" lengthAdjust="spacing" textLength="55" x="1368" y="27.1543">Class105</text><line style="stroke:#A80036;stroke-width:1.5;" x1="1340" x2="1425" y1="39" y2="39"/><line style="stroke:#A80036;stroke-width:1.5;" x1="1340" x2="1425" y1="47" y2="47"/><!--MD5=[77a83b12c574f762ef70cce888d15726]
class Class106--><rect fill="#FEFECE" filter="url(#fei0zks3w8uqc)" height="48" id="Class106" style="stroke:#A80036;stroke-width:1.5;" width="87" x="1339" y="142"/><ellipse cx="1354" cy="158" fill="#ADD1B2" rx="11" ry="11" style="stroke:#A80036;stroke-width:1.0;"/><path d="M1356.3438,153.6719 C1355.4063,153.2344 1354.8125,153.0938 1353.9375,153.0938 C1351.3125,153.0938 1349.3125,155.1719 1349.3125,157.8906 L1349.3125,159.0156 C1349.3125,161.5938 1351.4219,163.4844 1354.3125,163.4844 C1355.5313,163.4844 1356.6875,163.1875 1357.4375,162.6406 C1358.0156,162.2344 1358.3438,161.7813 1358.3438,161.3906 C1358.3438,160.9375 1357.9531,160.5469 1357.4844,160.5469 C1357.2656,160.5469 1357.0625,160.625 1356.875,160.8125 C1356.4219,161.2969 1356.4219,161.2969 1356.2344,161.3906 C1355.8125,161.6563 1355.125,161.7813 1354.3594,161.7813 C1352.3125,161.7813 1351.0156,160.6875 1351.0156,158.9844 L1351.0156,157.8906 C1351.0156,156.1094 1352.2656,154.7969 1354,154.7969 C1354.5781,154.7969 1355.1875,154.9531 1355.6563,155.2031 C1356.1406,155.4844 1356.3125,155.7031 1356.4063,156.1094 C1356.4688,156.5156 1356.5,156.6406 1356.6406,156.7656 C1356.7813,156.9063 1357.0156,157.0156 1357.2344,157.0156 C1357.5,157.0156 1357.7656,156.875 1357.9375,156.6563 C1358.0469,156.5 1358.0781,156.3125 1358.0781,155.8906 L1358.0781,154.4688 C1358.0781,154.0313 1358.0625,153.9063 1357.9688,153.75 C1357.8125,153.4844 1357.5313,153.3438 1357.2344,153.3438 C1356.9375,153.3438 1356.7344,153.4375 1356.5156,153.75 L1356.3438,153.6719 Z " fill="#000000"/><text fill="#000000" font-family="sans-serif" font-size="12" lengthAdjust="spacing" textLength="55" x="1368" y="162.1543">Class106</text><line style="stroke:#A80036;stroke-width:1.5;" x1="1340" x2="1425" y1="174" y2="174"/><line style="stroke:#A80036;stroke-width:1.5;" x1="1340" x2="1425" y1="182" y2="182"/><!--MD5=[c54ba4f61d01a424743e5a1fa0f9e38e]
class Dummy--><rect codeLine="35" fill="#FEFECE" filter="url(#fei0zks3w8uqc)" height="73.6094" id="Dummy" style="stroke:#A80036;stroke-width:1.5;" width="98" x="363.5" y="256"/><ellipse cx="387.95" cy="272" fill="#ADD1B2" rx="11" ry="11" style="stroke:#A80036;stroke-width:1.0;"/><path d="M390.2938,267.6719 C389.3563,267.2344 388.7625,267.0938 387.8875,267.0938 C385.2625,267.0938 383.2625,269.1719 383.2625,271.8906 L383.2625,273.0156 C383.2625,275.5938 385.3719,277.4844 388.2625,277.4844 C389.4813,277.4844 390.6375,277.1875 391.3875,276.6406 C391.9656,276.2344 392.2938,275.7813 392.2938,275.3906 C392.2938,274.9375 391.9031,274.5469 391.4344,274.5469 C391.2156,274.5469 391.0125,274.625 390.825,274.8125 C390.3719,275.2969 390.3719,275.2969 390.1844,275.3906 C389.7625,275.6563 389.075,275.7813 388.3094,275.7813 C386.2625,275.7813 384.9656,274.6875 384.9656,272.9844 L384.9656,271.8906 C384.9656,270.1094 386.2156,268.7969 387.95,268.7969 C388.5281,268.7969 389.1375,268.9531 389.6063,269.2031 C390.0906,269.4844 390.2625,269.7031 390.3563,270.1094 C390.4188,270.5156 390.45,270.6406 390.5906,270.7656 C390.7313,270.9063 390.9656,271.0156 391.1844,271.0156 C391.45,271.0156 391.7156,270.875 391.8875,270.6563 C391.9969,270.5 392.0281,270.3125 392.0281,269.8906 L392.0281,268.4688 C392.0281,268.0313 392.0125,267.9063 391.9188,267.75 C391.7625,267.4844 391.4813,267.3438 391.1844,267.3438 C390.8875,267.3438 390.6844,267.4375 390.4656,267.75 L390.2938,267.6719 Z " fill="#000000"/><text fill="#000000" font-family="sans-serif" font-size="12" lengthAdjust="spacing" textLength="45" x="404.05" y="276.1543">Dummy</text><line style="stroke:#A80036;stroke-width:1.5;" x1="364.5" x2="460.5" y1="288" y2="288"/><text fill="#000000" font-family="sans-serif" font-size="11" lengthAdjust="spacing" textLength="62" x="369.5" y="302.2104">String data</text><line style="stroke:#A80036;stroke-width:1.5;" x1="364.5" x2="460.5" y1="308.8047" y2="308.8047"/><text fill="#000000" font-family="sans-serif" font-size="11" lengthAdjust="spacing" textLength="86" x="369.5" y="323.0151">void methods()</text><!--MD5=[bd6e5d4dd3d7814cbdc3148d3ed1ec4b]
class Flight--><rect codeLine="40" fill="#FEFECE" filter="url(#fei0zks3w8uqc)" height="73.6094" id="Flight" style="stroke:#A80036;stroke-width:1.5;" width="137" x="7" y="391"/><ellipse cx="55.25" cy="407" fill="#ADD1B2" rx="11" ry="11" style="stroke:#A80036;stroke-width:1.0;"/><path d="M57.5938,402.6719 C56.6563,402.2344 56.0625,402.0938 55.1875,402.0938 C52.5625,402.0938 50.5625,404.1719 50.5625,406.8906 L50.5625,408.0156 C50.5625,410.5938 52.6719,412.4844 55.5625,412.4844 C56.7813,412.4844 57.9375,412.1875 58.6875,411.6406 C59.2656,411.2344 59.5938,410.7813 59.5938,410.3906 C59.5938,409.9375 59.2031,409.5469 58.7344,409.5469 C58.5156,409.5469 58.3125,409.625 58.125,409.8125 C57.6719,410.2969 57.6719,410.2969 57.4844,410.3906 C57.0625,410.6563 56.375,410.7813 55.6094,410.7813 C53.5625,410.7813 52.2656,409.6875 52.2656,407.9844 L52.2656,406.8906 C52.2656,405.1094 53.5156,403.7969 55.25,403.7969 C55.8281,403.7969 56.4375,403.9531 56.9063,404.2031 C57.3906,404.4844 57.5625,404.7031 57.6563,405.1094 C57.7188,405.5156 57.75,405.6406 57.8906,405.7656 C58.0313,405.9063 58.2656,406.0156 58.4844,406.0156 C58.75,406.0156 59.0156,405.875 59.1875,405.6563 C59.2969,405.5 59.3281,405.3125 59.3281,404.8906 L59.3281,403.4688 C59.3281,403.0313 59.3125,402.9063 59.2188,402.75 C59.0625,402.4844 58.7813,402.3438 58.4844,402.3438 C58.1875,402.3438 57.9844,402.4375 57.7656,402.75 L57.5938,402.6719 Z " fill="#000000"/><text fill="#000000" font-family="sans-serif" font-size="12" lengthAdjust="spacing" textLength="32" x="75.75" y="411.1543">Flight</text><line style="stroke:#A80036;stroke-width:1.5;" x1="8" x2="143" y1="423" y2="423"/><text fill="#000000" font-family="sans-serif" font-size="11" lengthAdjust="spacing" textLength="125" x="13" y="437.2104">flightNumber : Integer</text><text fill="#000000" font-family="sans-serif" font-size="11" lengthAdjust="spacing" textLength="124" x="13" y="450.0151">departureTime : Date</text><line style="stroke:#A80036;stroke-width:1.5;" x1="8" x2="143" y1="456.6094" y2="456.6094"/><!--MD5=[3ab52052fd7925c5f64fca5d41d6866e]
reverse link Class01 to Class02--><path codeLine="13" d="M535.791,74.807 C532.786,96.988 534.176,123.215 539.961,141.652 " fill="none" id="Class01-backto-Class02" style="stroke:#A80036;stroke-width:1.0;"/><polygon fill="none" points="528.966,73.246,540.018,55.167,542.653,76.192,528.966,73.246" style="stroke:#A80036;stroke-width:1.0;"/><!--MD5=[3ab52052fd7925c5f64fca5d41d6866e]
reverse link Class01 to Class02--><path codeLine="19" d="M560.5,75.495 C560.5,97.528 560.5,123.405 560.5,141.652 " fill="none" id="Class01-backto-Class02-1" style="stroke:#A80036;stroke-width:1.0;stroke-dasharray:7.0,7.0;"/><polygon fill="none" points="553.5,75.167,560.5,55.167,567.5,75.167,553.5,75.167" style="stroke:#A80036;stroke-width:1.0;"/><!--MD5=[3ab52052fd7925c5f64fca5d41d6866e]
reverse link Class01 to Class02--><path codeLine="25" d="M582.409,60.173 C588.622,84.402 588.166,118.938 581.039,141.652 " fill="none" id="Class01-backto-Class02-2" style="stroke:#A80036;stroke-width:1.0;"/><rect fill="#FFFFFF" height="10" style="stroke:#A80036;stroke-width:1.5;" width="10" x="575.982" y="50.167"/><!--MD5=[0815ca07f8d628dc1a46a48ef0cd4c01]
reverse link Class03 to Class04--><path codeLine="14" d="M651.86,68.089 C647.546,91.498 648.58,121.314 654.961,141.652 " fill="none" id="Class03-backto-Class04" style="stroke:#A80036;stroke-width:1.0;"/><polygon fill="#A80036" points="655.018,55.167,649.7081,60.0461,652.1697,66.8241,657.4795,61.945,655.018,55.167" style="stroke:#A80036;stroke-width:1.0;"/><!--MD5=[9f26e4cf005c83b204cebe9e5c293d65]
link Class03 to Class04--><path codeLine="20" d="M675.5,55.167 C675.5,77.818 675.5,112.35 675.5,136.634 " fill="none" id="Class03-to-Class04" style="stroke:#A80036;stroke-width:1.0;"/><polygon fill="#A80036" points="675.5,141.652,679.5,132.652,675.5,136.652,671.5,132.652,675.5,141.652" style="stroke:#A80036;stroke-width:1.0;"/><!--MD5=[0815ca07f8d628dc1a46a48ef0cd4c01]
reverse link Class03 to Class04--><path codeLine="26" d="M697.409,60.173 C703.622,84.402 703.166,118.938 696.039,141.652 " fill="none" id="Class03-backto-Class04-1" style="stroke:#A80036;stroke-width:1.0;"/><path d="M693.5067,61.0723 L703.3941,66.5714 M701.2,58.8782 L695.7009,68.7656 " fill="none" style="stroke:#A80036;stroke-width:1.0;"/><!--MD5=[07ec844cc9d193d99f69abe09e63aa9e]
reverse link Class05 to Class06--><path codeLine="15" d="M766.86,68.089 C762.546,91.498 763.58,121.314 769.961,141.652 " fill="none" id="Class05-backto-Class06" style="stroke:#A80036;stroke-width:1.0;"/><polygon fill="#FFFFFF" points="770.018,55.167,764.7081,60.0461,767.1697,66.8241,772.4795,61.945,770.018,55.167" style="stroke:#A80036;stroke-width:1.0;"/><!--MD5=[ac2e3bbd3e9b11a609828bf89cc0adda]
link Class05 to Class06--><path codeLine="21" d="M790.5,55.167 C790.5,77.818 790.5,112.35 790.5,136.634 " fill="none" id="Class05-to-Class06" style="stroke:#A80036;stroke-width:1.0;stroke-dasharray:7.0,7.0;"/><polygon fill="#A80036" points="790.5,141.652,794.5,132.652,790.5,136.652,786.5,132.652,790.5,141.652" style="stroke:#A80036;stroke-width:1.0;"/><!--MD5=[07ec844cc9d193d99f69abe09e63aa9e]
reverse link Class05 to Class06--><path codeLine="27" d="M813.083,62.953 C818.579,86.986 817.897,119.794 811.039,141.652 " fill="none" id="Class05-backto-Class06-1" style="stroke:#A80036;stroke-width:1.0;"/><line style="stroke:#A80036;stroke-width:1.0;" x1="813.0665" x2="803.2583" y1="62.8907" y2="55.167"/><line style="stroke:#A80036;stroke-width:1.0;" x1="813.0665" x2="818.7057" y1="62.8907" y2="55.167"/><line style="stroke:#A80036;stroke-width:1.0;" x1="813.0665" x2="810.982" y1="62.8907" y2="55.167"/><!--MD5=[cd6c6022d9f7be31b268d5c573778c45]
link Class07 to Class08--><path codeLine="16" d="M885.018,55.167 C877.346,79.429 877.327,117.323 884.961,141.652 " fill="none" id="Class07-Class08" style="stroke:#A80036;stroke-width:1.0;stroke-dasharray:7.0,7.0;"/><!--MD5=[cd6c6022d9f7be31b268d5c573778c45]
link Class07 to Class08--><path codeLine="22" d="M905.5,55.167 C905.5,73.458 905.5,99.497 905.5,121.631 " fill="none" id="Class07-to-Class08" style="stroke:#A80036;stroke-width:1.0;stroke-dasharray:7.0,7.0;"/><polygon fill="none" points="912.5,121.652,905.5,141.652,898.5,121.652,912.5,121.652" style="stroke:#A80036;stroke-width:1.0;"/><!--MD5=[91a7850ad04b5abec4fb2225ea7edbc1]
reverse link Class07 to Class08--><path codeLine="28" d="M929.49,70.073 C933.392,93.162 932.241,121.884 926.039,141.652 " fill="none" id="Class07-backto-Class08" style="stroke:#A80036;stroke-width:1.0;"/><ellipse cx="927.8151" cy="62.9542" fill="#FFFFFF" rx="8" ry="8" style="stroke:#A80036;stroke-width:1.0;"/><line style="stroke:#A80036;stroke-width:1.0;" x1="929.6482" x2="925.982" y1="70.7413" y2="55.167"/><line style="stroke:#A80036;stroke-width:1.0;" x1="920.0279" x2="935.6022" y1="64.7872" y2="61.1211"/><!--MD5=[012abb55b9b004b4a603a60db8edb83a]
link Class09 to Class10--><path codeLine="17" d="M1000.018,55.167 C992.346,79.429 992.327,117.323 999.961,141.652 " fill="none" id="Class09-Class10" style="stroke:#A80036;stroke-width:1.0;"/><!--MD5=[012abb55b9b004b4a603a60db8edb83a]
link Class09 to Class10--><path codeLine="23" d="M1020.5,68.418 C1020.5,87.123 1020.5,129.652 1020.5,129.652 " fill="none" id="Class09-Class10-1" style="stroke:#A80036;stroke-width:1.0;"/><polygon fill="#A80036" points="1020.5,141.652,1024.5,135.652,1020.5,129.652,1016.5,135.652,1020.5,141.652" style="stroke:#A80036;stroke-width:1.0;"/><polygon fill="#A80036" points="1020.5,55.167,1016.5,64.167,1020.5,60.167,1024.5,64.167,1020.5,55.167" style="stroke:#A80036;stroke-width:1.0;"/><line style="stroke:#A80036;stroke-width:1.0;" x1="1020.5" x2="1020.5" y1="60.167" y2="68.167"/><!--MD5=[80a79cd21d9a8d6cb7be8cc913bdb2ee]
reverse link Class09 to Class10--><path codeLine="29" d="M1045.21,74.807 C1048.21,96.988 1046.82,123.215 1041.04,141.652 " fill="none" id="Class09-backto-Class10" style="stroke:#A80036;stroke-width:1.0;"/><polygon fill="none" points="1038.35,76.192,1040.98,55.167,1052.03,73.246,1038.35,76.192" style="stroke:#A80036;stroke-width:1.0;"/><!--MD5=[42af6c2f11a57bee4542e6a19af27ef7]
reverse link Class101 to Class102--><path codeLine="31" d="M1138.5,68.418 C1138.5,91.776 1138.5,121.409 1138.5,141.652 " fill="none" id="Class101-backto-Class102" style="stroke:#A80036;stroke-width:1.0;"/><polygon fill="#A80036" points="1138.5,55.167,1134.5,61.167,1138.5,67.167,1142.5,61.167,1138.5,55.167" style="stroke:#A80036;stroke-width:1.0;"/><text fill="#000000" font-family="sans-serif" font-size="13" lengthAdjust="spacing" textLength="54" x="1139.5" y="103.0669">contains</text><text fill="#000000" font-family="sans-serif" font-size="13" lengthAdjust="spacing" textLength="8" x="1129.525" y="74.9689">1</text><text fill="#000000" font-family="sans-serif" font-size="13" lengthAdjust="spacing" textLength="37" x="1096.9906" y="130.9721">many</text><!--MD5=[f0cabe160d324ec317fd7db55136901a]
reverse link Class103 to Class104--><path codeLine="32" d="M1260.5,68.418 C1260.5,91.776 1260.5,121.409 1260.5,141.652 " fill="none" id="Class103-backto-Class104" style="stroke:#A80036;stroke-width:1.0;"/><polygon fill="#FFFFFF" points="1260.5,55.167,1256.5,61.167,1260.5,67.167,1264.5,61.167,1260.5,55.167" style="stroke:#A80036;stroke-width:1.0;"/><text fill="#000000" font-family="sans-serif" font-size="13" lengthAdjust="spacing" textLength="77" x="1261.5" y="103.0669">aggregation</text><!--MD5=[902a65d3951b8366686d889597a08e10]
link Class105 to Class106--><path codeLine="33" d="M1382.5,55.167 C1382.5,77.818 1382.5,112.35 1382.5,136.634 " fill="none" id="Class105-to-Class106" style="stroke:#A80036;stroke-width:1.0;"/><polygon fill="#A80036" points="1382.5,141.652,1386.5,132.652,1382.5,136.652,1378.5,132.652,1382.5,141.652" style="stroke:#A80036;stroke-width:1.0;"/><text fill="#000000" font-family="sans-serif" font-size="13" lengthAdjust="spacing" textLength="8" x="1373.525" y="130.9721">1</text><!--MD5=[c2193004f231c60c24e4cf76d93b5c44]
link abstract to abstract class--><!--MD5=[ec80576a69947398aef5bf7ad39de10a]
link abstract class to annotation--><!--MD5=[ef4a468cae6ab875f5ce8231ea8d47f5]
link annotation to circle--><!--MD5=[7256df22adc07412f2b73460d11bca4a]
link abstract to circle_short_form--><!--MD5=[047c343ec413a9c1ea5490f892065234]
link circle_short_form to class--><!--MD5=[fa89cf951331deeed68e2fae3c5dbf33]
link class to diamond--><!--MD5=[b3bd91185526d7d4c967ba383223dfe3]
link diamond to diamond_short_form--><!--MD5=[229a35adfdb89a04f1a8b5b1319762ea]
link circle_short_form to entity--><!--MD5=[618b745e99ea7afd87d21d7b87e33cd4]
link entity to enum--><!--MD5=[962711ed0014f7949e8379abbf402d9b]
link enum to interface--><!--MD5=[8f155e5ec84e83196e2da91e4c8c7a8f]
link interface to Dummy--><!--MD5=[d8d9f2ea81c39a8e249ab5c9b51b92b4]
link entity to Flight--><!--MD5=[3d9e2ceaf11fb8b1dc95ae8783a28fe6]
@startuml
abstract        abstract
abstract class  "abstract class"
annotation      annotation
circle          circle
()              circle_short_form
class           class
diamond         diamond
<>              diamond_short_form
entity          entity
enum            enum
interface       interface

Class01 <|- - Class02
Class03 *- - Class04
Class05 o- - Class06
Class07 .. Class08
Class09 - - Class10

Class01 <|.. Class02
Class03 - -> Class04
Class05 ..> Class06
Class07 ..|> Class08
Class09 <- -* Class10

Class01 #- - Class02
Class03 x- - Class04
Class05 }- - Class06
Class07 +- - Class08
Class09 ^- - Class10

Class101 "1" *- - "many" Class102 : contains
Class103 o- - Class104 : aggregation
Class105 - -> "1" Class106

class Dummy {
  String data
  void methods()
}

class Flight {
   flightNumber : Integer
   departureTime : Date
}
@enduml

PlantUML version 1.2021.13beta8(Unknown compile time)
(GPL source distribution)
Java Runtime: Java(TM) SE Runtime Environment
JVM: Java HotSpot(TM) 64-Bit Server VM
Default Encoding: UTF-8
Language: en
Country: US
--></g></svg>