<?xml version="1.0" encoding="UTF-8" standalone="no"?><svg xmlns="http://www.w3.org/2000/svg" xmlns:xlink="http://www.w3.org/1999/xlink" contentScriptType="application/ecmascript" contentStyleType="text/css" height="1170px" preserveAspectRatio="none" style="width:1422px;height:1170px;background:#FFFFFF;" version="1.1" viewBox="0 0 1422 1170" width="1422px" zoomAndPan="magnify"><defs><filter height="300%" id="f1bh96xba8ta0v" width="300%" x="-1" y="-1"><feGaussianBlur result="blurOut" stdDeviation="2.0"/><feColorMatrix in="blurOut" result="blurOut2" type="matrix" values="0 0 0 0 0 0 0 0 0 0 0 0 0 0 0 0 0 0 .4 0"/><feOffset dx="4.0" dy="4.0" in="blurOut2" result="blurOut3"/><feBlend in="SourceGraphic" in2="blurOut3" mode="normal"/></filter></defs><g><!--MD5=[a55135535b5c544b99c33b17428c3b14]
cluster Util--><polygon fill="#FFFFFF" filter="url(#f1bh96xba8ta0v)" points="16,6,51,6,58,28.2969,486,28.2969,486,398.5,16,398.5,16,6" style="stroke:#000000;stroke-width:1.5;"/><line style="stroke:#000000;stroke-width:1.5;" x1="16" x2="58" y1="28.2969" y2="28.2969"/><text fill="#000000" font-family="sans-serif" font-size="14" font-weight="bold" lengthAdjust="spacing" textLength="29" x="20" y="20.9951">Util</text><!--MD5=[bd4ed236a13575a9dcf49b2316e757e7]
cluster CodeCharts--><polygon fill="#FFFFFF" filter="url(#f1bh96xba8ta0v)" points="510,174,609,174,616,196.2969,1405,196.2969,1405,1048,510,1048,510,174" style="stroke:#000000;stroke-width:1.5;"/><line style="stroke:#000000;stroke-width:1.5;" x1="510" x2="616" y1="196.2969" y2="196.2969"/><text fill="#000000" font-family="sans-serif" font-size="14" font-weight="bold" lengthAdjust="spacing" textLength="93" x="514" y="188.9951">CodeCharts</text><!--MD5=[fccc419d627b37790932ddb688fb7ad6]
class Tutorial--><rect codeLine="7" fill="#FEFECE" filter="url(#f1bh96xba8ta0v)" height="167.2422" id="Tutorial" style="stroke:#A80036;stroke-width:1.5;" width="236" x="234" y="215.5"/><ellipse cx="290.25" cy="231.5" fill="#A9DCDF" rx="11" ry="11" style="stroke:#A80036;stroke-width:1.0;"/><path d="M292.3281,233.3125 L292.7188,234.2969 L292.3281,234.2969 C291.875,234.2969 291.7656,234.3125 291.6094,234.4219 C291.3594,234.5781 291.2031,234.8594 291.2031,235.1563 C291.2031,235.4219 291.3438,235.6719 291.5625,235.8281 C291.7031,235.9531 291.9063,236 292.3281,236 L294.6875,236 C295.0469,236 295.2656,235.9688 295.4063,235.875 C295.6563,235.7344 295.8125,235.4375 295.8125,235.1563 C295.8125,234.875 295.6719,234.625 295.4531,234.4688 C295.2813,234.3281 295.125,234.2969 294.6563,234.2969 L291.2656,226.0938 L287.5938,226.0938 C287.1406,226.0938 287.0156,226.1094 286.8594,226.2031 C286.6094,226.375 286.4531,226.6563 286.4531,226.9375 C286.4531,227.2188 286.5938,227.4688 286.8125,227.6406 C286.9844,227.75 287.1563,227.7813 287.5938,227.7813 L288.6719,227.7813 L286.0313,234.2969 C285.6094,234.2969 285.4531,234.3125 285.2969,234.4219 C285.0469,234.5781 284.8906,234.8594 284.8906,235.1563 C284.8906,235.7188 285.2656,236 286.0156,236 L288.2813,236 C288.6406,236 288.8594,235.9688 288.9844,235.875 C289.25,235.7344 289.3906,235.4375 289.3906,235.1563 C289.3906,234.875 289.2656,234.625 289.0469,234.4531 C288.875,234.3281 288.7344,234.2969 288.2813,234.2969 L287.8906,234.2969 L288.2813,233.3125 L292.3281,233.3125 Z M291.625,231.6094 L288.9531,231.6094 L290.2969,228.3438 L291.625,231.6094 Z " fill="#000000"/><text fill="#000000" font-family="sans-serif" font-size="12" font-style="italic" lengthAdjust="spacing" textLength="45" x="310.75" y="235.6543">Tutorial</text><rect fill="#FFFFFF" height="15.9688" style="stroke:#000000;stroke-width:1.0;stroke-dasharray:2.0,2.0;" width="68" x="405" y="212.5"/><text fill="#000000" font-family="sans-serif" font-size="12" font-style="italic" lengthAdjust="spacing" textLength="66" x="406" y="224.6387">t: ToolType</text><line style="stroke:#A80036;stroke-width:1.5;" x1="235" x2="469" y1="247.5" y2="247.5"/><rect fill="none" height="6" style="stroke:#C82930;stroke-width:1.0;" width="6" x="242" y="255.5"/><text fill="#000000" font-family="sans-serif" font-size="11" lengthAdjust="spacing" textLength="64" x="254" y="261.7104">t: ToolType</text><ellipse cx="245" cy="288.1094" fill="#84BE84" rx="3" ry="3" style="stroke:#038048;stroke-width:1.0;"/><text fill="#000000" font-family="sans-serif" font-size="11" lengthAdjust="spacing" textLength="68" x="254" y="291.3198">start() : void</text><line style="stroke:#A80036;stroke-width:1.5;" x1="235" x2="311.5" y1="274.707" y2="274.707"/><text fill="#000000" font-family="sans-serif" font-size="11" lengthAdjust="spacing" textLength="81" x="311.5" y="278.0151">public method</text><line style="stroke:#A80036;stroke-width:1.5;" x1="392.5" x2="469" y1="274.707" y2="274.707"/><rect fill="#F24D5C" height="6" style="stroke:#C82930;stroke-width:1.0;" width="6" x="242" y="314.7188"/><text fill="#000000" font-family="sans-serif" font-size="11" lengthAdjust="spacing" textLength="151" x="254" y="320.9292">getConfigState() : boolean</text><rect fill="#F24D5C" height="6" style="stroke:#C82930;stroke-width:1.0;" width="6" x="242" y="327.5234"/><text fill="#000000" font-family="sans-serif" font-size="11" lengthAdjust="spacing" textLength="210" x="254" y="333.7339">setConfigState(state: boolean) : void</text><rect fill="#F24D5C" height="6" style="stroke:#C82930;stroke-width:1.0;" width="6" x="242" y="340.3281"/><text fill="#000000" font-family="sans-serif" font-size="11" lengthAdjust="spacing" textLength="94" x="254" y="346.5386">show() : boolean</text><line style="stroke:#A80036;stroke-width:1.5;" x1="235" x2="305" y1="304.3164" y2="304.3164"/><text fill="#000000" font-family="sans-serif" font-size="11" lengthAdjust="spacing" textLength="94" x="305" y="307.6245">private methods</text><line style="stroke:#A80036;stroke-width:1.5;" x1="399" x2="469" y1="304.3164" y2="304.3164"/><rect fill="#F24D5C" height="6" style="stroke:#C82930;stroke-width:1.0;" width="6" x="242" y="369.9375"/><text fill="#000000" font-family="sans-serif" font-size="11" font-style="italic" lengthAdjust="spacing" textLength="84" x="254" y="376.1479">tutorial() : void</text><line style="stroke:#A80036;stroke-width:1.5;" x1="235" x2="302.5" y1="359.5352" y2="359.5352"/><text fill="#000000" font-family="sans-serif" font-size="11" lengthAdjust="spacing" textLength="99" x="302.5" y="362.8433">abstract methods</text><line style="stroke:#A80036;stroke-width:1.5;" x1="401.5" x2="469" y1="359.5352" y2="359.5352"/><!--MD5=[5c39798b83ace9e75333b1274a725e6c]
class ToolType--><rect codeLine="19" fill="#FEFECE" filter="url(#f1bh96xba8ta0v)" height="86.4141" id="ToolType" style="stroke:#A80036;stroke-width:1.5;" width="91" x="32.5" y="41"/><ellipse cx="48.85" cy="57" fill="#EB937F" rx="11" ry="11" style="stroke:#A80036;stroke-width:1.0;"/><path d="M47.6469,57.875 L49.1,57.875 L49.1,57.9844 C49.1,58.3906 49.1313,58.5469 49.2094,58.7031 C49.3656,58.9531 49.6469,59.1094 49.9438,59.1094 C50.1938,59.1094 50.4594,58.9688 50.6156,58.75 C50.7406,58.5938 50.7719,58.4375 50.7719,57.9844 L50.7719,56.0625 C50.7719,55.9063 50.7719,55.8594 50.7563,55.7031 C50.6938,55.2344 50.3813,54.9219 49.9281,54.9219 C49.6781,54.9219 49.4125,55.0625 49.2406,55.2813 C49.1313,55.4531 49.1,55.6094 49.1,56.0625 L49.1,56.1875 L47.6469,56.1875 L47.6469,53.7813 L51.6313,53.7813 L51.6313,54.6406 C51.6313,55.0469 51.6625,55.2188 51.7406,55.375 C51.9125,55.625 52.1938,55.7813 52.475,55.7813 C52.7406,55.7813 53.0063,55.6406 53.1781,55.4219 C53.2875,55.25 53.3188,55.1094 53.3188,54.6406 L53.3188,52.0938 L45.6938,52.0938 C45.2563,52.0938 45.1313,52.1094 44.975,52.2031 C44.725,52.3594 44.5688,52.6563 44.5688,52.9375 C44.5688,53.2188 44.7094,53.4688 44.9281,53.6406 C45.0844,53.75 45.2719,53.7813 45.6938,53.7813 L45.9438,53.7813 L45.9438,60.2969 L45.6938,60.2969 C45.2875,60.2969 45.1313,60.3125 44.975,60.4219 C44.725,60.5938 44.5688,60.8594 44.5688,61.1563 C44.5688,61.4219 44.7094,61.6719 44.9281,61.8281 C45.0688,61.9531 45.3031,62 45.6938,62 L53.6938,62 L53.6938,59.4219 C53.6938,58.9844 53.6625,58.8438 53.5844,58.6875 C53.4125,58.4375 53.1313,58.2813 52.85,58.2813 C52.5844,58.2813 52.3188,58.3906 52.1469,58.6406 C52.0375,58.7969 52.0063,58.9375 52.0063,59.4219 L52.0063,60.2969 L47.6469,60.2969 L47.6469,57.875 Z " fill="#000000"/><text fill="#000000" font-family="sans-serif" font-size="12" lengthAdjust="spacing" textLength="56" x="63.15" y="61.1543">ToolType</text><line style="stroke:#A80036;stroke-width:1.5;" x1="33.5" x2="122.5" y1="73" y2="73"/><text fill="#000000" font-family="sans-serif" font-size="11" lengthAdjust="spacing" textLength="35" x="38.5" y="87.2104">ZOOM</text><text fill="#000000" font-family="sans-serif" font-size="11" lengthAdjust="spacing" textLength="78" x="38.5" y="100.0151">EYETRACKING</text><text fill="#000000" font-family="sans-serif" font-size="11" lengthAdjust="spacing" textLength="79" x="38.5" y="112.8198">CODECHARTS</text><line style="stroke:#A80036;stroke-width:1.5;" x1="33.5" x2="122.5" y1="119.4141" y2="119.4141"/><!--MD5=[60c9ed31c535bee25c55ce21b5b01399]
class Data--><rect codeLine="38" fill="#FEFECE" filter="url(#f1bh96xba8ta0v)" height="86.4141" id="Data" style="stroke:#A80036;stroke-width:1.5;" width="129" x="158.5" y="41"/><ellipse cx="173.5" cy="57" fill="#ADD1B2" rx="11" ry="11" style="stroke:#A80036;stroke-width:1.0;"/><path d="M175.8438,52.6719 C174.9063,52.2344 174.3125,52.0938 173.4375,52.0938 C170.8125,52.0938 168.8125,54.1719 168.8125,56.8906 L168.8125,58.0156 C168.8125,60.5938 170.9219,62.4844 173.8125,62.4844 C175.0313,62.4844 176.1875,62.1875 176.9375,61.6406 C177.5156,61.2344 177.8438,60.7813 177.8438,60.3906 C177.8438,59.9375 177.4531,59.5469 176.9844,59.5469 C176.7656,59.5469 176.5625,59.625 176.375,59.8125 C175.9219,60.2969 175.9219,60.2969 175.7344,60.3906 C175.3125,60.6563 174.625,60.7813 173.8594,60.7813 C171.8125,60.7813 170.5156,59.6875 170.5156,57.9844 L170.5156,56.8906 C170.5156,55.1094 171.7656,53.7969 173.5,53.7969 C174.0781,53.7969 174.6875,53.9531 175.1563,54.2031 C175.6406,54.4844 175.8125,54.7031 175.9063,55.1094 C175.9688,55.5156 176,55.6406 176.1406,55.7656 C176.2813,55.9063 176.5156,56.0156 176.7344,56.0156 C177,56.0156 177.2656,55.875 177.4375,55.6563 C177.5469,55.5 177.5781,55.3125 177.5781,54.8906 L177.5781,53.4688 C177.5781,53.0313 177.5625,52.9063 177.4688,52.75 C177.3125,52.4844 177.0313,52.3438 176.7344,52.3438 C176.4375,52.3438 176.2344,52.4375 176.0156,52.75 L175.8438,52.6719 Z " fill="#000000"/><text fill="#000000" font-family="sans-serif" font-size="12" lengthAdjust="spacing" textLength="27" x="187.5" y="61.1543">Data</text><rect fill="#FFFFFF" height="15.9688" style="stroke:#000000;stroke-width:1.0;stroke-dasharray:2.0,2.0;" width="68" x="222.5" y="38"/><text fill="#000000" font-family="sans-serif" font-size="12" font-style="italic" lengthAdjust="spacing" textLength="66" x="223.5" y="50.1387">t: ToolType</text><line style="stroke:#A80036;stroke-width:1.5;" x1="159.5" x2="286.5" y1="73" y2="73"/><ellipse cx="169.5" cy="84" rx="3" ry="3" style="stroke:#038048;stroke-width:1.0;fill:none;"/><text fill="#000000" font-family="sans-serif" font-size="11" lengthAdjust="spacing" textLength="64" x="178.5" y="87.2104">t: ToolType</text><ellipse cx="169.5" cy="96.8047" rx="3" ry="3" style="stroke:#038048;stroke-width:1.0;fill:none;"/><text fill="#000000" font-family="sans-serif" font-size="11" lengthAdjust="spacing" textLength="82" x="178.5" y="100.0151">data: unknown</text><ellipse cx="169.5" cy="109.6094" rx="3" ry="3" style="stroke:#038048;stroke-width:1.0;fill:none;"/><text fill="#000000" font-family="sans-serif" font-size="11" lengthAdjust="spacing" textLength="71" x="178.5" y="112.8198">config_id: int</text><line style="stroke:#A80036;stroke-width:1.5;" x1="159.5" x2="286.5" y1="119.4141" y2="119.4141"/><!--MD5=[626b00d2609f42ba755c8afb6d5f2b59]
class Bild--><rect codeLine="33" fill="#FEFECE" filter="url(#f1bh96xba8ta0v)" height="73.6094" id="Bild" style="stroke:#A80036;stroke-width:1.5;" width="147" x="322.5" y="47"/><ellipse cx="380.75" cy="63" fill="#A9DCDF" rx="11" ry="11" style="stroke:#A80036;stroke-width:1.0;"/><path d="M382.8281,64.8125 L383.2188,65.7969 L382.8281,65.7969 C382.375,65.7969 382.2656,65.8125 382.1094,65.9219 C381.8594,66.0781 381.7031,66.3594 381.7031,66.6563 C381.7031,66.9219 381.8438,67.1719 382.0625,67.3281 C382.2031,67.4531 382.4063,67.5 382.8281,67.5 L385.1875,67.5 C385.5469,67.5 385.7656,67.4688 385.9063,67.375 C386.1563,67.2344 386.3125,66.9375 386.3125,66.6563 C386.3125,66.375 386.1719,66.125 385.9531,65.9688 C385.7813,65.8281 385.625,65.7969 385.1563,65.7969 L381.7656,57.5938 L378.0938,57.5938 C377.6406,57.5938 377.5156,57.6094 377.3594,57.7031 C377.1094,57.875 376.9531,58.1563 376.9531,58.4375 C376.9531,58.7188 377.0938,58.9688 377.3125,59.1406 C377.4844,59.25 377.6563,59.2813 378.0938,59.2813 L379.1719,59.2813 L376.5313,65.7969 C376.1094,65.7969 375.9531,65.8125 375.7969,65.9219 C375.5469,66.0781 375.3906,66.3594 375.3906,66.6563 C375.3906,67.2188 375.7656,67.5 376.5156,67.5 L378.7813,67.5 C379.1406,67.5 379.3594,67.4688 379.4844,67.375 C379.75,67.2344 379.8906,66.9375 379.8906,66.6563 C379.8906,66.375 379.7656,66.125 379.5469,65.9531 C379.375,65.8281 379.2344,65.7969 378.7813,65.7969 L378.3906,65.7969 L378.7813,64.8125 L382.8281,64.8125 Z M382.125,63.1094 L379.4531,63.1094 L380.7969,59.8438 L382.125,63.1094 Z " fill="#000000"/><text fill="#000000" font-family="sans-serif" font-size="12" font-style="italic" lengthAdjust="spacing" textLength="22" x="401.25" y="67.1543">Bild</text><line style="stroke:#A80036;stroke-width:1.5;" x1="323.5" x2="468.5" y1="79" y2="79"/><line style="stroke:#A80036;stroke-width:1.5;" x1="323.5" x2="468.5" y1="87" y2="87"/><ellipse cx="333.5" cy="98" fill="#84BE84" rx="3" ry="3" style="stroke:#038048;stroke-width:1.0;"/><text fill="#000000" font-family="sans-serif" font-size="11" lengthAdjust="spacing" textLength="121" x="342.5" y="101.2104">load(url: String) : void</text><ellipse cx="333.5" cy="110.8047" fill="#84BE84" rx="3" ry="3" style="stroke:#038048;stroke-width:1.0;"/><text fill="#000000" font-family="sans-serif" font-size="11" lengthAdjust="spacing" textLength="72" x="342.5" y="114.0151">show() : void</text><!--MD5=[81d462353594d8875238471802618d21]
class CodeChartsTutorial--><rect codeLine="49" fill="#FEFECE" filter="url(#f1bh96xba8ta0v)" height="60.8047" id="CodeChartsTutorial" style="stroke:#A80036;stroke-width:1.5;" width="146" x="526" y="498"/><ellipse cx="541" cy="514" fill="#ADD1B2" rx="11" ry="11" style="stroke:#A80036;stroke-width:1.0;"/><path d="M543.3438,509.6719 C542.4063,509.2344 541.8125,509.0938 540.9375,509.0938 C538.3125,509.0938 536.3125,511.1719 536.3125,513.8906 L536.3125,515.0156 C536.3125,517.5938 538.4219,519.4844 541.3125,519.4844 C542.5313,519.4844 543.6875,519.1875 544.4375,518.6406 C545.0156,518.2344 545.3438,517.7813 545.3438,517.3906 C545.3438,516.9375 544.9531,516.5469 544.4844,516.5469 C544.2656,516.5469 544.0625,516.625 543.875,516.8125 C543.4219,517.2969 543.4219,517.2969 543.2344,517.3906 C542.8125,517.6563 542.125,517.7813 541.3594,517.7813 C539.3125,517.7813 538.0156,516.6875 538.0156,514.9844 L538.0156,513.8906 C538.0156,512.1094 539.2656,510.7969 541,510.7969 C541.5781,510.7969 542.1875,510.9531 542.6563,511.2031 C543.1406,511.4844 543.3125,511.7031 543.4063,512.1094 C543.4688,512.5156 543.5,512.6406 543.6406,512.7656 C543.7813,512.9063 544.0156,513.0156 544.2344,513.0156 C544.5,513.0156 544.7656,512.875 544.9375,512.6563 C545.0469,512.5 545.0781,512.3125 545.0781,511.8906 L545.0781,510.4688 C545.0781,510.0313 545.0625,509.9063 544.9688,509.75 C544.8125,509.4844 544.5313,509.3438 544.2344,509.3438 C543.9375,509.3438 543.7344,509.4375 543.5156,509.75 L543.3438,509.6719 Z " fill="#000000"/><text fill="#000000" font-family="sans-serif" font-size="12" lengthAdjust="spacing" textLength="114" x="555" y="518.1543">CodeChartsTutorial</text><line style="stroke:#A80036;stroke-width:1.5;" x1="527" x2="671" y1="530" y2="530"/><line style="stroke:#A80036;stroke-width:1.5;" x1="527" x2="671" y1="538" y2="538"/><rect fill="#F24D5C" height="6" style="stroke:#C82930;stroke-width:1.0;" width="6" x="534" y="546"/><text fill="#000000" font-family="sans-serif" font-size="11" lengthAdjust="spacing" textLength="82" x="546" y="552.2104">tutorial() : void</text><!--MD5=[d6943c12ae734dbe1975a5489f85ab8f]
class CodeChartsCoordinator--><rect codeLine="54" fill="#FEFECE" filter="url(#f1bh96xba8ta0v)" height="176.0469" id="CodeChartsCoordinator" style="stroke:#A80036;stroke-width:1.5;" width="178" x="820" y="213"/><ellipse cx="837.25" cy="229" fill="#ADD1B2" rx="11" ry="11" style="stroke:#A80036;stroke-width:1.0;"/><path d="M839.5938,224.6719 C838.6563,224.2344 838.0625,224.0938 837.1875,224.0938 C834.5625,224.0938 832.5625,226.1719 832.5625,228.8906 L832.5625,230.0156 C832.5625,232.5938 834.6719,234.4844 837.5625,234.4844 C838.7813,234.4844 839.9375,234.1875 840.6875,233.6406 C841.2656,233.2344 841.5938,232.7813 841.5938,232.3906 C841.5938,231.9375 841.2031,231.5469 840.7344,231.5469 C840.5156,231.5469 840.3125,231.625 840.125,231.8125 C839.6719,232.2969 839.6719,232.2969 839.4844,232.3906 C839.0625,232.6563 838.375,232.7813 837.6094,232.7813 C835.5625,232.7813 834.2656,231.6875 834.2656,229.9844 L834.2656,228.8906 C834.2656,227.1094 835.5156,225.7969 837.25,225.7969 C837.8281,225.7969 838.4375,225.9531 838.9063,226.2031 C839.3906,226.4844 839.5625,226.7031 839.6563,227.1094 C839.7188,227.5156 839.75,227.6406 839.8906,227.7656 C840.0313,227.9063 840.2656,228.0156 840.4844,228.0156 C840.75,228.0156 841.0156,227.875 841.1875,227.6563 C841.2969,227.5 841.3281,227.3125 841.3281,226.8906 L841.3281,225.4688 C841.3281,225.0313 841.3125,224.9063 841.2188,224.75 C841.0625,224.4844 840.7813,224.3438 840.4844,224.3438 C840.1875,224.3438 839.9844,224.4375 839.7656,224.75 L839.5938,224.6719 Z " fill="#000000"/><text fill="#000000" font-family="sans-serif" font-size="12" lengthAdjust="spacing" textLength="141" x="851.75" y="233.1543">CodeChartsCoordinator</text><line style="stroke:#A80036;stroke-width:1.5;" x1="821" x2="997" y1="245" y2="245"/><rect fill="none" height="6" style="stroke:#C82930;stroke-width:1.0;" width="6" x="828" y="253"/><text fill="#000000" font-family="sans-serif" font-size="11" lengthAdjust="spacing" textLength="83" x="840" y="259.2104">speed: float[2]</text><rect fill="none" height="6" style="stroke:#C82930;stroke-width:1.0;" width="6" x="828" y="265.8047"/><text fill="#000000" font-family="sans-serif" font-size="11" lengthAdjust="spacing" textLength="104" x="840" y="272.0151">isTutorial: boolean</text><rect fill="none" height="6" style="stroke:#C82930;stroke-width:1.0;" width="6" x="828" y="278.6094"/><text fill="#000000" font-family="sans-serif" font-size="11" lengthAdjust="spacing" textLength="109" x="840" y="284.8198">isRelative: boolean</text><rect fill="none" height="6" style="stroke:#C82930;stroke-width:1.0;" width="6" x="828" y="291.4141"/><text fill="#000000" font-family="sans-serif" font-size="11" lengthAdjust="spacing" textLength="101" x="840" y="297.6245">dimensions: int[2]</text><rect fill="none" height="6" style="stroke:#C82930;stroke-width:1.0;" width="6" x="828" y="304.2188"/><text fill="#000000" font-family="sans-serif" font-size="11" lengthAdjust="spacing" textLength="91" x="840" y="310.4292">strings: String[..]</text><ellipse cx="831" cy="336.8281" fill="#84BE84" rx="3" ry="3" style="stroke:#038048;stroke-width:1.0;"/><text fill="#000000" font-family="sans-serif" font-size="11" lengthAdjust="spacing" textLength="134" x="840" y="340.0386">startCodeCharts() : void</text><line style="stroke:#A80036;stroke-width:1.5;" x1="821" x2="868.5" y1="323.4258" y2="323.4258"/><text fill="#000000" font-family="sans-serif" font-size="11" lengthAdjust="spacing" textLength="81" x="868.5" y="326.7339">public method</text><line style="stroke:#A80036;stroke-width:1.5;" x1="949.5" x2="997" y1="323.4258" y2="323.4258"/><rect fill="#F24D5C" height="6" style="stroke:#C82930;stroke-width:1.0;" width="6" x="828" y="363.4375"/><text fill="#000000" font-family="sans-serif" font-size="11" lengthAdjust="spacing" textLength="152" x="840" y="369.6479">loadConfigData() : boolean</text><rect fill="#F24D5C" height="6" style="stroke:#C82930;stroke-width:1.0;" width="6" x="828" y="376.2422"/><text fill="#000000" font-family="sans-serif" font-size="11" lengthAdjust="spacing" textLength="100" x="840" y="382.4526">tryTutorial() : void</text><line style="stroke:#A80036;stroke-width:1.5;" x1="821" x2="862" y1="353.0352" y2="353.0352"/><text fill="#000000" font-family="sans-serif" font-size="11" lengthAdjust="spacing" textLength="94" x="862" y="356.3433">private methods</text><line style="stroke:#A80036;stroke-width:1.5;" x1="956" x2="997" y1="353.0352" y2="353.0352"/><!--MD5=[716079bcf736c8b229d38dedc298d2f0]
class CodeChartsInternerSpeicher--><rect codeLine="68" fill="#FEFECE" filter="url(#f1bh96xba8ta0v)" height="95.2188" id="CodeChartsInternerSpeicher" style="stroke:#A80036;stroke-width:1.5;" width="333" x="977.5" y="934"/><ellipse cx="1054.25" cy="950" fill="#ADD1B2" rx="11" ry="11" style="stroke:#A80036;stroke-width:1.0;"/><path d="M1056.5938,945.6719 C1055.6563,945.2344 1055.0625,945.0938 1054.1875,945.0938 C1051.5625,945.0938 1049.5625,947.1719 1049.5625,949.8906 L1049.5625,951.0156 C1049.5625,953.5938 1051.6719,955.4844 1054.5625,955.4844 C1055.7813,955.4844 1056.9375,955.1875 1057.6875,954.6406 C1058.2656,954.2344 1058.5938,953.7813 1058.5938,953.3906 C1058.5938,952.9375 1058.2031,952.5469 1057.7344,952.5469 C1057.5156,952.5469 1057.3125,952.625 1057.125,952.8125 C1056.6719,953.2969 1056.6719,953.2969 1056.4844,953.3906 C1056.0625,953.6563 1055.375,953.7813 1054.6094,953.7813 C1052.5625,953.7813 1051.2656,952.6875 1051.2656,950.9844 L1051.2656,949.8906 C1051.2656,948.1094 1052.5156,946.7969 1054.25,946.7969 C1054.8281,946.7969 1055.4375,946.9531 1055.9063,947.2031 C1056.3906,947.4844 1056.5625,947.7031 1056.6563,948.1094 C1056.7188,948.5156 1056.75,948.6406 1056.8906,948.7656 C1057.0313,948.9063 1057.2656,949.0156 1057.4844,949.0156 C1057.75,949.0156 1058.0156,948.875 1058.1875,948.6563 C1058.2969,948.5 1058.3281,948.3125 1058.3281,947.8906 L1058.3281,946.4688 C1058.3281,946.0313 1058.3125,945.9063 1058.2188,945.75 C1058.0625,945.4844 1057.7813,945.3438 1057.4844,945.3438 C1057.1875,945.3438 1056.9844,945.4375 1056.7656,945.75 L1056.5938,945.6719 Z " fill="#000000"/><text fill="#000000" font-family="sans-serif" font-size="12" lengthAdjust="spacing" textLength="171" x="1074.75" y="954.1543">CodeChartsInternerSpeicher</text><line style="stroke:#A80036;stroke-width:1.5;" x1="978.5" x2="1309.5" y1="966" y2="966"/><ellipse cx="988.5" cy="993.8047" fill="#84BE84" rx="3" ry="3" style="stroke:#038048;stroke-width:1.0;"/><text fill="#000000" font-family="sans-serif" font-size="11" lengthAdjust="spacing" textLength="133" x="997.5" y="997.0151">addPic(url: String) : void</text><ellipse cx="988.5" cy="1006.6094" fill="#84BE84" rx="3" ry="3" style="stroke:#038048;stroke-width:1.0;"/><text fill="#000000" font-family="sans-serif" font-size="11" lengthAdjust="spacing" textLength="307" x="997.5" y="1009.8198">addSizeAndCord(size: int[2], coordinates: int[2]) : void</text><ellipse cx="988.5" cy="1019.4141" fill="#84BE84" rx="3" ry="3" style="stroke:#038048;stroke-width:1.0;"/><text fill="#000000" font-family="sans-serif" font-size="11" lengthAdjust="spacing" textLength="120" x="997.5" y="1022.6245">saveData() : boolean</text><line style="stroke:#A80036;stroke-width:1.5;" x1="978.5" x2="1103.5" y1="980.4023" y2="980.4023"/><text fill="#000000" font-family="sans-serif" font-size="11" lengthAdjust="spacing" textLength="81" x="1103.5" y="983.7104">public method</text><line style="stroke:#A80036;stroke-width:1.5;" x1="1184.5" x2="1309.5" y1="980.4023" y2="980.4023"/><!--MD5=[48cc74a7e7e460afd8863a3fcc09bdcb]
class CodeChartsBild--><rect codeLine="76" fill="#FEFECE" filter="url(#f1bh96xba8ta0v)" height="48" id="CodeChartsBild" style="stroke:#A80036;stroke-width:1.5;" width="124" x="1265" y="504.5"/><ellipse cx="1280" cy="520.5" fill="#ADD1B2" rx="11" ry="11" style="stroke:#A80036;stroke-width:1.0;"/><path d="M1282.3438,516.1719 C1281.4063,515.7344 1280.8125,515.5938 1279.9375,515.5938 C1277.3125,515.5938 1275.3125,517.6719 1275.3125,520.3906 L1275.3125,521.5156 C1275.3125,524.0938 1277.4219,525.9844 1280.3125,525.9844 C1281.5313,525.9844 1282.6875,525.6875 1283.4375,525.1406 C1284.0156,524.7344 1284.3438,524.2813 1284.3438,523.8906 C1284.3438,523.4375 1283.9531,523.0469 1283.4844,523.0469 C1283.2656,523.0469 1283.0625,523.125 1282.875,523.3125 C1282.4219,523.7969 1282.4219,523.7969 1282.2344,523.8906 C1281.8125,524.1563 1281.125,524.2813 1280.3594,524.2813 C1278.3125,524.2813 1277.0156,523.1875 1277.0156,521.4844 L1277.0156,520.3906 C1277.0156,518.6094 1278.2656,517.2969 1280,517.2969 C1280.5781,517.2969 1281.1875,517.4531 1281.6563,517.7031 C1282.1406,517.9844 1282.3125,518.2031 1282.4063,518.6094 C1282.4688,519.0156 1282.5,519.1406 1282.6406,519.2656 C1282.7813,519.4063 1283.0156,519.5156 1283.2344,519.5156 C1283.5,519.5156 1283.7656,519.375 1283.9375,519.1563 C1284.0469,519 1284.0781,518.8125 1284.0781,518.3906 L1284.0781,516.9688 C1284.0781,516.5313 1284.0625,516.4063 1283.9688,516.25 C1283.8125,515.9844 1283.5313,515.8438 1283.2344,515.8438 C1282.9375,515.8438 1282.7344,515.9375 1282.5156,516.25 L1282.3438,516.1719 Z " fill="#000000"/><text fill="#000000" font-family="sans-serif" font-size="12" lengthAdjust="spacing" textLength="92" x="1294" y="524.6543">CodeChartsBild</text><line style="stroke:#A80036;stroke-width:1.5;" x1="1266" x2="1388" y1="536.5" y2="536.5"/><line style="stroke:#A80036;stroke-width:1.5;" x1="1266" x2="1388" y1="544.5" y2="544.5"/><!--MD5=[b9640045e029ffef06c931bcc3e11d89]
class CodeChartsRaster--><rect codeLine="80" fill="#FEFECE" filter="url(#f1bh96xba8ta0v)" height="184.8516" id="CodeChartsRaster" style="stroke:#A80036;stroke-width:1.5;" width="309" x="879.5" y="668"/><ellipse cx="975.75" cy="684" fill="#ADD1B2" rx="11" ry="11" style="stroke:#A80036;stroke-width:1.0;"/><path d="M978.0938,679.6719 C977.1563,679.2344 976.5625,679.0938 975.6875,679.0938 C973.0625,679.0938 971.0625,681.1719 971.0625,683.8906 L971.0625,685.0156 C971.0625,687.5938 973.1719,689.4844 976.0625,689.4844 C977.2813,689.4844 978.4375,689.1875 979.1875,688.6406 C979.7656,688.2344 980.0938,687.7813 980.0938,687.3906 C980.0938,686.9375 979.7031,686.5469 979.2344,686.5469 C979.0156,686.5469 978.8125,686.625 978.625,686.8125 C978.1719,687.2969 978.1719,687.2969 977.9844,687.3906 C977.5625,687.6563 976.875,687.7813 976.1094,687.7813 C974.0625,687.7813 972.7656,686.6875 972.7656,684.9844 L972.7656,683.8906 C972.7656,682.1094 974.0156,680.7969 975.75,680.7969 C976.3281,680.7969 976.9375,680.9531 977.4063,681.2031 C977.8906,681.4844 978.0625,681.7031 978.1563,682.1094 C978.2188,682.5156 978.25,682.6406 978.3906,682.7656 C978.5313,682.9063 978.7656,683.0156 978.9844,683.0156 C979.25,683.0156 979.5156,682.875 979.6875,682.6563 C979.7969,682.5 979.8281,682.3125 979.8281,681.8906 L979.8281,680.4688 C979.8281,680.0313 979.8125,679.9063 979.7188,679.75 C979.5625,679.4844 979.2813,679.3438 978.9844,679.3438 C978.6875,679.3438 978.4844,679.4375 978.2656,679.75 L978.0938,679.6719 Z " fill="#000000"/><text fill="#000000" font-family="sans-serif" font-size="12" lengthAdjust="spacing" textLength="108" x="996.25" y="688.1543">CodeChartsRaster</text><line style="stroke:#A80036;stroke-width:1.5;" x1="880.5" x2="1187.5" y1="700" y2="700"/><rect fill="none" height="6" style="stroke:#C82930;stroke-width:1.0;" width="6" x="887.5" y="708"/><text fill="#000000" font-family="sans-serif" font-size="11" lengthAdjust="spacing" textLength="101" x="899.5" y="714.2104">dimensions: int[2]</text><rect fill="none" height="6" style="stroke:#C82930;stroke-width:1.0;" width="6" x="887.5" y="720.8047"/><text fill="#000000" font-family="sans-serif" font-size="11" lengthAdjust="spacing" textLength="91" x="899.5" y="727.0151">strings: String[..]</text><rect fill="none" height="6" style="stroke:#C82930;stroke-width:1.0;" width="6" x="887.5" y="733.6094"/><text fill="#000000" font-family="sans-serif" font-size="11" lengthAdjust="spacing" textLength="73" x="899.5" y="739.8198">coords: int[2]</text><text fill="#000000" font-family="sans-serif" font-size="11" lengthAdjust="spacing" textLength="105" x="899.5" y="752.6245">__public method__</text><ellipse cx="890.5" cy="762.2188" fill="#84BE84" rx="3" ry="3" style="stroke:#038048;stroke-width:1.0;"/><text fill="#000000" font-family="sans-serif" font-size="11" lengthAdjust="spacing" textLength="153" x="899.5" y="765.4292">setInput(input: String): void</text><ellipse cx="890.5" cy="775.0234" fill="#84BE84" rx="3" ry="3" style="stroke:#038048;stroke-width:1.0;"/><text fill="#000000" font-family="sans-serif" font-size="11" lengthAdjust="spacing" textLength="283" x="899.5" y="778.2339">setData(dimensions: int[2], strings: String[..]): void</text><ellipse cx="890.5" cy="787.8281" fill="#84BE84" rx="3" ry="3" style="stroke:#038048;stroke-width:1.0;"/><text fill="#000000" font-family="sans-serif" font-size="11" lengthAdjust="spacing" textLength="72" x="899.5" y="791.0386">show() : void</text><ellipse cx="890.5" cy="800.6328" fill="#84BE84" rx="3" ry="3" style="stroke:#038048;stroke-width:1.0;"/><text fill="#000000" font-family="sans-serif" font-size="11" lengthAdjust="spacing" textLength="94" x="899.5" y="803.8433">calculate() : void</text><rect fill="#F24D5C" height="6" style="stroke:#C82930;stroke-width:1.0;" width="6" x="887.5" y="827.2422"/><text fill="#000000" font-family="sans-serif" font-size="11" lengthAdjust="spacing" textLength="117" x="899.5" y="833.4526">loadPastRuns() : void</text><rect fill="#F24D5C" height="6" style="stroke:#C82930;stroke-width:1.0;" width="6" x="887.5" y="840.0469"/><text fill="#000000" font-family="sans-serif" font-size="11" lengthAdjust="spacing" textLength="98" x="899.5" y="846.2573">sendData() : void</text><line style="stroke:#A80036;stroke-width:1.5;" x1="880.5" x2="987" y1="816.8398" y2="816.8398"/><text fill="#000000" font-family="sans-serif" font-size="11" lengthAdjust="spacing" textLength="94" x="987" y="820.1479">private methods</text><line style="stroke:#A80036;stroke-width:1.5;" x1="1081" x2="1187.5" y1="816.8398" y2="816.8398"/><!--MD5=[a7f545f13df25b09c4dd936da65dfdd1]
class CodeChartsEingabefenster--><rect codeLine="96" fill="#FEFECE" filter="url(#f1bh96xba8ta0v)" height="124.8281" id="CodeChartsEingabefenster" style="stroke:#A80036;stroke-width:1.5;" width="234" x="959" y="466"/><ellipse cx="992.45" cy="482" fill="#ADD1B2" rx="11" ry="11" style="stroke:#A80036;stroke-width:1.0;"/><path d="M994.7938,477.6719 C993.8563,477.2344 993.2625,477.0938 992.3875,477.0938 C989.7625,477.0938 987.7625,479.1719 987.7625,481.8906 L987.7625,483.0156 C987.7625,485.5938 989.8719,487.4844 992.7625,487.4844 C993.9813,487.4844 995.1375,487.1875 995.8875,486.6406 C996.4656,486.2344 996.7938,485.7813 996.7938,485.3906 C996.7938,484.9375 996.4031,484.5469 995.9344,484.5469 C995.7156,484.5469 995.5125,484.625 995.325,484.8125 C994.8719,485.2969 994.8719,485.2969 994.6844,485.3906 C994.2625,485.6563 993.575,485.7813 992.8094,485.7813 C990.7625,485.7813 989.4656,484.6875 989.4656,482.9844 L989.4656,481.8906 C989.4656,480.1094 990.7156,478.7969 992.45,478.7969 C993.0281,478.7969 993.6375,478.9531 994.1063,479.2031 C994.5906,479.4844 994.7625,479.7031 994.8563,480.1094 C994.9188,480.5156 994.95,480.6406 995.0906,480.7656 C995.2313,480.9063 995.4656,481.0156 995.6844,481.0156 C995.95,481.0156 996.2156,480.875 996.3875,480.6563 C996.4969,480.5 996.5281,480.3125 996.5281,479.8906 L996.5281,478.4688 C996.5281,478.0313 996.5125,477.9063 996.4188,477.75 C996.2625,477.4844 995.9813,477.3438 995.6844,477.3438 C995.3875,477.3438 995.1844,477.4375 994.9656,477.75 L994.7938,477.6719 Z " fill="#000000"/><text fill="#000000" font-family="sans-serif" font-size="12" lengthAdjust="spacing" textLength="161" x="1010.55" y="486.1543">CodeChartsEingabefenster</text><line style="stroke:#A80036;stroke-width:1.5;" x1="960" x2="1192" y1="498" y2="498"/><ellipse cx="970" cy="525.8047" fill="#84BE84" rx="3" ry="3" style="stroke:#038048;stroke-width:1.0;"/><text fill="#000000" font-family="sans-serif" font-size="11" lengthAdjust="spacing" textLength="81" x="979" y="529.0151">show() : String</text><line style="stroke:#A80036;stroke-width:1.5;" x1="960" x2="1035.5" y1="512.4023" y2="512.4023"/><text fill="#000000" font-family="sans-serif" font-size="11" lengthAdjust="spacing" textLength="81" x="1035.5" y="515.7104">public method</text><line style="stroke:#A80036;stroke-width:1.5;" x1="1116.5" x2="1192" y1="512.4023" y2="512.4023"/><rect fill="#F24D5C" height="6" style="stroke:#C82930;stroke-width:1.0;" width="6" x="967" y="552.4141"/><text fill="#000000" font-family="sans-serif" font-size="11" lengthAdjust="spacing" textLength="135" x="979" y="558.6245">checkButton() : boolean</text><rect fill="#F24D5C" height="6" style="stroke:#C82930;stroke-width:1.0;" width="6" x="967" y="565.2188"/><text fill="#000000" font-family="sans-serif" font-size="11" lengthAdjust="spacing" textLength="208" x="979" y="571.4292">validateString(input: String): boolean</text><rect fill="#F24D5C" height="6" style="stroke:#C82930;stroke-width:1.0;" width="6" x="967" y="578.0234"/><text fill="#000000" font-family="sans-serif" font-size="11" lengthAdjust="spacing" textLength="120" x="979" y="584.2339">ErrorMessage() : void</text><line style="stroke:#A80036;stroke-width:1.5;" x1="960" x2="1029" y1="542.0117" y2="542.0117"/><text fill="#000000" font-family="sans-serif" font-size="11" lengthAdjust="spacing" textLength="94" x="1029" y="545.3198">private methods</text><line style="stroke:#A80036;stroke-width:1.5;" x1="1123" x2="1192" y1="542.0117" y2="542.0117"/><polygon fill="#FFFFFF" filter="url(#f1bh96xba8ta0v)" points="316,502,374,502,381,524.2969,388,524.2969,388,554.5938,316,554.5938,316,502" style="stroke:#000000;stroke-width:1.5;"/><line style="stroke:#000000;stroke-width:1.5;" x1="316" x2="381" y1="524.2969" y2="524.2969"/><text fill="#000000" font-family="sans-serif" font-size="14" font-weight="bold" lengthAdjust="spacing" textLength="52" x="320" y="516.9951">Config</text><polygon fill="#FFFFFF" filter="url(#f1bh96xba8ta0v)" points="1069,1111,1207,1111,1214,1133.2969,1221,1133.2969,1221,1163.5938,1069,1163.5938,1069,1111" style="stroke:#000000;stroke-width:1.5;"/><line style="stroke:#000000;stroke-width:1.5;" x1="1069" x2="1214" y1="1133.2969" y2="1133.2969"/><text fill="#000000" font-family="sans-serif" font-size="14" font-weight="bold" lengthAdjust="spacing" textLength="132" x="1073" y="1125.9951">SpeicherMedium</text><!--MD5=[e72ca73ac73eca3f18a81a671fe51a7c]
link ToolType to Tutorial--><path codeLine="26" d="M123.553,120.41 C156.803,146.26 203.279,182.388 245.637,215.316 " fill="none" id="ToolType-Tutorial" style="stroke:#A80036;stroke-width:1.0;"/><!--MD5=[9f1a00b177a5ae45176fc1e7f3c0daae]
link Data to ToolType--><path codeLine="27" d="M158.154,84 C146.635,84 135.115,84 123.596,84 " fill="none" id="Data-ToolType" style="stroke:#A80036;stroke-width:1.0;"/><!--MD5=[fc4ffdc4bb2ac5a3cd1bd4c856213de4]
link Tutorial to Config--><path codeLine="28" d="M339.68,382.776 C338.486,424.829 339.78,472.995 343.563,501.794 " fill="none" id="Tutorial-Config" style="stroke:#A80036;stroke-width:1.0;"/><!--MD5=[fc4ffdc4bb2ac5a3cd1bd4c856213de4]
link Tutorial to Config--><path codeLine="110" d="M365.045,382.776 C366.309,424.829 364.939,472.995 360.934,501.794 " fill="none" id="Tutorial-Config-1" style="stroke:#A80036;stroke-width:1.0;"/><!--MD5=[c900c8497a661fa4184b5bb04c49372f]
reverse link Bild to CodeChartsBild--><path codeLine="106" d="M489.799,91.57 C640.348,103.03 928.674,129.05 1024,166 C1206.68,236.809 1294.57,245.194 1385,419 C1400.38,448.559 1375.48,482.383 1353.68,504.298 " fill="none" id="Bild-backto-CodeChartsBild" style="stroke:#A80036;stroke-width:1.0;"/><polygon fill="none" points="488.926,98.52,469.505,90.05,489.972,84.56,488.926,98.52" style="stroke:#A80036;stroke-width:1.0;"/><!--MD5=[1e1b7046ac2ce77f5695cfbd942bbe9e]
reverse link Tutorial to CodeChartsTutorial--><path codeLine="107" d="M403.474,399.524 C412.62,412.634 422.837,425.234 434,436 C460.761,461.808 496.226,482.717 527.417,497.999 " fill="none" id="Tutorial-backto-CodeChartsTutorial" style="stroke:#A80036;stroke-width:1.0;"/><polygon fill="none" points="397.585,403.309,392.469,382.746,409.291,395.631,397.585,403.309" style="stroke:#A80036;stroke-width:1.0;"/><!--MD5=[330c08158d1b261bc3f75486c3c78546]
link CodeChartsCoordinator to CodeChartsBild--><path codeLine="111" d="M1006.15,340.215 C1055.56,361.765 1115.99,389.839 1168,419 C1200.69,437.326 1207.03,444.904 1238,466 C1256.47,478.582 1277,492.756 1293.68,504.323 " fill="none" id="CodeChartsCoordinator-CodeChartsBild" style="stroke:#A80036;stroke-width:1.0;"/><polygon fill="#000000" points="1204.3425,430.0449,1197.9437,423.0088,1195.03,428.1137,1204.3425,430.0449" style="stroke:#000000;stroke-width:1.0;"/><text fill="#000000" font-family="sans-serif" font-size="13" lengthAdjust="spacing" textLength="167" x="1209" y="432.0669">send initial data and show</text><!--MD5=[af7fa7eefc847a19c654188e611c6a01]
link CodeChartsCoordinator to CodeChartsRaster--><path codeLine="112" d="M811.944,383.745 C790.419,407.885 770.58,435.912 759,466 C739.045,517.848 731.853,542.529 759,591 C785.745,638.753 832.16,674.606 879.325,700.684 " fill="none" id="CodeChartsCoordinator-CodeChartsRaster" style="stroke:#A80036;stroke-width:1.0;"/><polygon fill="#000000" points="765.0398,533.4571,766.0335,523.9986,760.2841,525.2209,765.0398,533.4571" style="stroke:#000000;stroke-width:1.0;"/><text fill="#000000" font-family="sans-serif" font-size="13" lengthAdjust="spacing" textLength="167" x="773" y="533.0669">send initial data and show</text><!--MD5=[acd6e22bd1b43ca41d1e169d29f8f975]
link CodeChartsCoordinator to CodeChartsEingabefenster--><path codeLine="113" d="M999,335 C1056.32,335 1072.12,409.492 1075.88,465.797 " fill="none" id="CodeChartsCoordinator-CodeChartsEingabefenster" style="stroke:#A80036;stroke-width:1.0;"/><polygon fill="#000000" points="1079.5336,431.8769,1077.4839,422.5899,1072.4166,425.5684,1079.5336,431.8769" style="stroke:#000000;stroke-width:1.0;"/><text fill="#000000" font-family="sans-serif" font-size="13" lengthAdjust="spacing" textLength="34" x="1086" y="432.0669">show</text><!--MD5=[352d2a78a40821fe66095c41811c6ec4]
link CodeChartsCoordinator to CodeChartsInternerSpeicher--><path codeLine="114" d="M999,363 C1019.76,363 999.528,393.869 1016,406.5 C1036.05,421.874 1104.98,411.165 1129,419 C1148.97,425.513 1200.47,447.827 1211,466 C1220.8,482.913 1218.82,699.782 1206,853 C1204.24,874.046 1206.74,880.349 1199,900 C1194.99,910.194 1189.47,920.369 1183.46,929.877 " fill="none" id="CodeChartsCoordinator-CodeChartsInternerSpeicher" style="stroke:#A80036;stroke-width:1.0;"/><polygon fill="#000000" points="1222.5471,634.321,1222.543,624.8105,1216.9536,626.6292,1222.5471,634.321" style="stroke:#000000;stroke-width:1.0;"/><text fill="#000000" font-family="sans-serif" font-size="13" lengthAdjust="spacing" textLength="79" x="1230" y="634.0669">send picture</text><!--MD5=[45be10fb9057243d989f7112dab584ae]
link CodeChartsCoordinator to CodeChartsTutorial--><path codeLine="115" d="M819,375 C775.66,375 660.285,389.008 629,419 C607.838,439.287 601.176,473.051 599.286,497.533 " fill="none" id="CodeChartsCoordinator-CodeChartsTutorial" style="stroke:#A80036;stroke-width:1.0;"/><polygon fill="#000000" points="629.6332,430.0018,638.9643,428.1629,636.1014,423.0294,629.6332,430.0018" style="stroke:#000000;stroke-width:1.0;"/><text fill="#000000" font-family="sans-serif" font-size="13" lengthAdjust="spacing" textLength="89" x="643" y="432.0669">start Tutorial?</text><!--MD5=[430173a8cceee07f962d4a39f48ec6f9]
link CodeChartsRaster to CodeChartsInternerSpeicher--><path codeLine="116" d="M1015,853.192 C1015.39,869.462 1018.44,885.743 1026,900 C1031.97,911.262 1040.31,921.23 1049.84,929.969 " fill="none" id="CodeChartsRaster-CodeChartsInternerSpeicher" style="stroke:#A80036;stroke-width:1.0;"/><polygon fill="#000000" points="1028.9339,887.0133,1029.9953,896.4644,1035.3478,894.0355,1028.9339,887.0133" style="stroke:#000000;stroke-width:1.0;"/><text fill="#000000" font-family="sans-serif" font-size="13" lengthAdjust="spacing" textLength="60" x="1040" y="896.0669">load data</text><!--MD5=[430173a8cceee07f962d4a39f48ec6f9]
link CodeChartsRaster to CodeChartsInternerSpeicher--><path codeLine="117" d="M1089.52,853.271 C1094.95,863.197 1100.22,873.237 1105,883 C1112.31,897.914 1119.37,914.559 1125.44,929.791 " fill="none" id="CodeChartsRaster-CodeChartsInternerSpeicher-1" style="stroke:#A80036;stroke-width:1.0;"/><polygon fill="#000000" points="1119.1247,896.0925,1117.9415,886.6559,1112.6207,889.1535,1119.1247,896.0925" style="stroke:#000000;stroke-width:1.0;"/><text fill="#000000" font-family="sans-serif" font-size="13" lengthAdjust="spacing" textLength="64" x="1126" y="896.0669">save data</text><!--MD5=[785a98a2d4f001b3a7e96305a4636287]
link CodeChartsEingabefenster to CodeChartsRaster--><path codeLine="118" d="M1064.74,591.136 C1060.44,614.688 1055.44,642.078 1050.74,667.836 " fill="none" id="CodeChartsEingabefenster-CodeChartsRaster" style="stroke:#A80036;stroke-width:1.0;"/><polygon fill="#000000" points="1062.1022,634.4851,1066.6175,626.1148,1060.8352,625.0593,1062.1022,634.4851" style="stroke:#000000;stroke-width:1.0;"/><text fill="#000000" font-family="sans-serif" font-size="13" lengthAdjust="spacing" textLength="67" x="1072" y="634.0669">send Input</text><!--MD5=[98ba0babc1f2c9ceb0957566289f4661]
link CodeChartsInternerSpeicher to SpeicherMedium--><path codeLine="121" d="M1312,1018 C1375.72,1018 1268.33,1076.0974 1198.21,1110.9332 " fill="none" id="CodeChartsInternerSpeicher-SpeicherMedium" style="stroke:#A80036;stroke-width:1.0;"/><polygon fill="#000000" points="1284.1274,1075.7292,1292.992,1072.2839,1289.274,1067.7314,1284.1274,1075.7292" style="stroke:#000000;stroke-width:1.0;"/><text fill="#000000" font-family="sans-serif" font-size="13" lengthAdjust="spacing" textLength="73" x="1297" y="1077.0669">saves Data</text><!--MD5=[ba0b6aad62bad149f99973f5ab313e4e]
link CodeChartsCoordinator to Config--><path codeLine="122" d="M819,335 C669.809,335 628.164,353.746 494,419 C449.638,440.577 405.605,477.206 378.604,501.866 " fill="none" id="CodeChartsCoordinator-Config" style="stroke:#A80036;stroke-width:1.0;"/><polygon fill="#000000" points="503.6756,425.7948,494.176,426.2514,496.2587,431.7479,503.6756,425.7948" style="stroke:#000000;stroke-width:1.0;"/><text fill="#000000" font-family="sans-serif" font-size="13" lengthAdjust="spacing" textLength="100" x="508" y="432.0669">gets Initial Data</text><!--MD5=[13b08e88a5680a47881db254d4936f84]
@startuml
' skinparam backgroundColor transparent
'() System #DA70D5
top to bottom direction

package Util {
    ' - - - TUTORIAL - - -
    abstract Tutorial<t: ToolType> {
      - t: ToolType
      __public method__
      + start() : void
      __private methods__
      - getConfigState() : boolean
      - setConfigState(state: boolean) : void
      - show() : boolean
      __abstract methods__
      - {abstract} tutorial() : void
    }

    enum ToolType {
      ZOOM
      EYETRACKING
      CODECHARTS
    }

    ' Interaktionen
    Tutorial -u- ToolType
    Data -r- ToolType
    Tutorial -d- Config


    ' - - - BILD - - -

    abstract Bild {
      + load(url: String) : void
      + show() : void
    }

    class Data<t: ToolType> {
        + t: ToolType
        + data: unknown
        + config_id: int
    }
}

' === CODE CHARTS ===
package CodeCharts {

    ' CodeCharts Tutorial 
    class CodeChartsTutorial {
      - tutorial() : void
    }
  
    ' CodeCharts Coordinator
    class CodeChartsCoordinator {
        - speed: float[2]
        - isTutorial: boolean
        - isRelative: boolean
        - dimensions: int[2]
        - strings: String[..]
        __public method__
        + startCodeCharts() : void
        __private methods__
        - loadConfigData() : boolean
        - tryTutorial() : void
    }    

    ' CodeCharts Interner Speicher
    class CodeChartsInternerSpeicher {
        __public method__
        + addPic(url: String) : void
        + addSizeAndCord(size: int[2], coordinates: int[2]) : void
        + saveData() : boolean
    }

    ' CodeCharts Bild
    class CodeChartsBild {
    }

    ' CodeCharts Raster
    class CodeChartsRaster {
        ' Unsicher ob es sinnvoll ist alle vorherigen Durchläufe auf einmal zu laden
        - dimensions: int[2]
        - strings: String[..]
        - coords: int[2]
        __public method__ 
        + setInput(input: String): void
        + setData(dimensions: int[2], strings: String[..]): void
        + show() : void
        + calculate() : void
        __private methods__
        - loadPastRuns() : void
        - sendData() : void
    }

    ' CodeCharts Eingabefenster
    class CodeChartsEingabefenster {
        __public method__
        + show() : String
        __private methods__
        - checkButton() : boolean
        - validateString(input: String): boolean
        - ErrorMessage() : void
    }

  ' Vererbungen
  Bild <|-d- CodeChartsBild
  Tutorial <|-d- CodeChartsTutorial

  ' Interaktionen 
  Tutorial -d- Config
  CodeChartsCoordinator - - CodeChartsBild : > send initial data and show
  CodeChartsCoordinator - - CodeChartsRaster : > send initial data and show
  CodeChartsCoordinator::startCodeCharts - - CodeChartsEingabefenster : > show
  CodeChartsCoordinator::loadConfigData - - CodeChartsInternerSpeicher : > send picture
  CodeChartsCoordinator::tryTutorial - - CodeChartsTutorial : > start Tutorial?
  CodeChartsRaster - - CodeChartsInternerSpeicher : < load data
  CodeChartsRaster - - CodeChartsInternerSpeicher : > save data
  CodeChartsEingabefenster - - CodeChartsRaster : > send Input

  ' Andere Module
  CodeChartsInternerSpeicher::saveData - - SpeicherMedium : > saves Data
  CodeChartsCoordinator::startCodeCharts - - Config : < gets Initial Data
  
}

' Blackboxen / Andere Module
package Config {}

package SpeicherMedium {}
@enduml

@startuml
top to bottom direction

package Util {
    abstract Tutorial<t: ToolType> {
      - t: ToolType
      __public method__
      + start() : void
      __private methods__
      - getConfigState() : boolean
      - setConfigState(state: boolean) : void
      - show() : boolean
      __abstract methods__
      - {abstract} tutorial() : void
    }

    enum ToolType {
      ZOOM
      EYETRACKING
      CODECHARTS
    }

    Tutorial -u- ToolType
    Data -r- ToolType
    Tutorial -d- Config



    abstract Bild {
      + load(url: String) : void
      + show() : void
    }

    class Data<t: ToolType> {
        + t: ToolType
        + data: unknown
        + config_id: int
    }
}

package CodeCharts {

    class CodeChartsTutorial {
      - tutorial() : void
    }
  
    class CodeChartsCoordinator {
        - speed: float[2]
        - isTutorial: boolean
        - isRelative: boolean
        - dimensions: int[2]
        - strings: String[..]
        __public method__
        + startCodeCharts() : void
        __private methods__
        - loadConfigData() : boolean
        - tryTutorial() : void
    }    

    class CodeChartsInternerSpeicher {
        __public method__
        + addPic(url: String) : void
        + addSizeAndCord(size: int[2], coordinates: int[2]) : void
        + saveData() : boolean
    }

    class CodeChartsBild {
    }

    class CodeChartsRaster {
        - dimensions: int[2]
        - strings: String[..]
        - coords: int[2]
        __public method__ 
        + setInput(input: String): void
        + setData(dimensions: int[2], strings: String[..]): void
        + show() : void
        + calculate() : void
        __private methods__
        - loadPastRuns() : void
        - sendData() : void
    }

    class CodeChartsEingabefenster {
        __public method__
        + show() : String
        __private methods__
        - checkButton() : boolean
        - validateString(input: String): boolean
        - ErrorMessage() : void
    }

  Bild <|-d- CodeChartsBild
  Tutorial <|-d- CodeChartsTutorial

  Tutorial -d- Config
  CodeChartsCoordinator - - CodeChartsBild : > send initial data and show
  CodeChartsCoordinator - - CodeChartsRaster : > send initial data and show
  CodeChartsCoordinator::startCodeCharts - - CodeChartsEingabefenster : > show
  CodeChartsCoordinator::loadConfigData - - CodeChartsInternerSpeicher : > send picture
  CodeChartsCoordinator::tryTutorial - - CodeChartsTutorial : > start Tutorial?
  CodeChartsRaster - - CodeChartsInternerSpeicher : < load data
  CodeChartsRaster - - CodeChartsInternerSpeicher : > save data
  CodeChartsEingabefenster - - CodeChartsRaster : > send Input

  CodeChartsInternerSpeicher::saveData - - SpeicherMedium : > saves Data
  CodeChartsCoordinator::startCodeCharts - - Config : < gets Initial Data
  
}

package Config {}

package SpeicherMedium {}
@enduml

PlantUML version 1.2021.14beta3(Unknown compile time)
(GPL source distribution)
Java Runtime: Java(TM) SE Runtime Environment
JVM: Java HotSpot(TM) 64-Bit Server VM
Default Encoding: UTF-8
Language: en
Country: US
--></g></svg>