<?xml version="1.0" encoding="UTF-8" standalone="no"?><svg xmlns="http://www.w3.org/2000/svg" xmlns:xlink="http://www.w3.org/1999/xlink" contentScriptType="application/ecmascript" contentStyleType="text/css" height="1027px" preserveAspectRatio="none" style="width:1425px;height:1027px;background:#FFFFFF;" version="1.1" viewBox="0 0 1425 1027" width="1425px" zoomAndPan="magnify"><defs><filter height="300%" id="fu60og1vn8q3i" width="300%" x="-1" y="-1"><feGaussianBlur result="blurOut" stdDeviation="2.0"/><feColorMatrix in="blurOut" result="blurOut2" type="matrix" values="0 0 0 0 0 0 0 0 0 0 0 0 0 0 0 0 0 0 .4 0"/><feOffset dx="4.0" dy="4.0" in="blurOut2" result="blurOut3"/><feBlend in="SourceGraphic" in2="blurOut3" mode="normal"/></filter></defs><g><!--MD5=[bd4ed236a13575a9dcf49b2316e757e7]
cluster CodeCharts--><polygon fill="#FFFFFF" filter="url(#fu60og1vn8q3i)" points="170.5,6,269.5,6,276.5,28.2969,1010.5,28.2969,1010.5,905,170.5,905,170.5,6" style="stroke:#000000;stroke-width:1.5;"/><line style="stroke:#000000;stroke-width:1.5;" x1="170.5" x2="276.5" y1="28.2969" y2="28.2969"/><text fill="#000000" font-family="sans-serif" font-size="14" font-weight="bold" lengthAdjust="spacing" textLength="93" x="174.5" y="20.9951">CodeCharts</text><!--MD5=[81d462353594d8875238471802618d21]
class CodeChartsTutorial--><rect codeLine="40" fill="#FEFECE" filter="url(#fu60og1vn8q3i)" height="167.2422" id="CodeChartsTutorial" style="stroke:#A80036;stroke-width:1.5;" width="236" x="758.5" y="298"/><ellipse cx="815.25" cy="314" fill="#ADD1B2" rx="11" ry="11" style="stroke:#A80036;stroke-width:1.0;"/><path d="M817.5938,309.6719 C816.6563,309.2344 816.0625,309.0938 815.1875,309.0938 C812.5625,309.0938 810.5625,311.1719 810.5625,313.8906 L810.5625,315.0156 C810.5625,317.5938 812.6719,319.4844 815.5625,319.4844 C816.7813,319.4844 817.9375,319.1875 818.6875,318.6406 C819.2656,318.2344 819.5938,317.7813 819.5938,317.3906 C819.5938,316.9375 819.2031,316.5469 818.7344,316.5469 C818.5156,316.5469 818.3125,316.625 818.125,316.8125 C817.6719,317.2969 817.6719,317.2969 817.4844,317.3906 C817.0625,317.6563 816.375,317.7813 815.6094,317.7813 C813.5625,317.7813 812.2656,316.6875 812.2656,314.9844 L812.2656,313.8906 C812.2656,312.1094 813.5156,310.7969 815.25,310.7969 C815.8281,310.7969 816.4375,310.9531 816.9063,311.2031 C817.3906,311.4844 817.5625,311.7031 817.6563,312.1094 C817.7188,312.5156 817.75,312.6406 817.8906,312.7656 C818.0313,312.9063 818.2656,313.0156 818.4844,313.0156 C818.75,313.0156 819.0156,312.875 819.1875,312.6563 C819.2969,312.5 819.3281,312.3125 819.3281,311.8906 L819.3281,310.4688 C819.3281,310.0313 819.3125,309.9063 819.2188,309.75 C819.0625,309.4844 818.7813,309.3438 818.4844,309.3438 C818.1875,309.3438 817.9844,309.4375 817.7656,309.75 L817.5938,309.6719 Z " fill="#000000"/><text fill="#000000" font-family="sans-serif" font-size="12" lengthAdjust="spacing" textLength="114" x="835.75" y="318.1543">CodeChartsTutorial</text><line style="stroke:#A80036;stroke-width:1.5;" x1="759.5" x2="993.5" y1="330" y2="330"/><rect fill="none" height="6" style="stroke:#C82930;stroke-width:1.0;" width="6" x="766.5" y="338"/><text fill="#000000" font-family="sans-serif" font-size="11" lengthAdjust="spacing" textLength="82" x="778.5" y="344.2104">t: TutorialType</text><ellipse cx="769.5" cy="370.6094" fill="#84BE84" rx="3" ry="3" style="stroke:#038048;stroke-width:1.0;"/><text fill="#000000" font-family="sans-serif" font-size="11" lengthAdjust="spacing" textLength="68" x="778.5" y="373.8198">start() : void</text><line style="stroke:#A80036;stroke-width:1.5;" x1="759.5" x2="836" y1="357.207" y2="357.207"/><text fill="#000000" font-family="sans-serif" font-size="11" lengthAdjust="spacing" textLength="81" x="836" y="360.5151">public method</text><line style="stroke:#A80036;stroke-width:1.5;" x1="917" x2="993.5" y1="357.207" y2="357.207"/><rect fill="#F24D5C" height="6" style="stroke:#C82930;stroke-width:1.0;" width="6" x="766.5" y="397.2188"/><text fill="#000000" font-family="sans-serif" font-size="11" lengthAdjust="spacing" textLength="151" x="778.5" y="403.4292">getConfigState() : boolean</text><rect fill="#F24D5C" height="6" style="stroke:#C82930;stroke-width:1.0;" width="6" x="766.5" y="410.0234"/><text fill="#000000" font-family="sans-serif" font-size="11" lengthAdjust="spacing" textLength="210" x="778.5" y="416.2339">setConfigState(state: boolean) : void</text><rect fill="#F24D5C" height="6" style="stroke:#C82930;stroke-width:1.0;" width="6" x="766.5" y="422.8281"/><text fill="#000000" font-family="sans-serif" font-size="11" lengthAdjust="spacing" textLength="94" x="778.5" y="429.0386">show() : boolean</text><line style="stroke:#A80036;stroke-width:1.5;" x1="759.5" x2="829.5" y1="386.8164" y2="386.8164"/><text fill="#000000" font-family="sans-serif" font-size="11" lengthAdjust="spacing" textLength="94" x="829.5" y="390.1245">private methods</text><line style="stroke:#A80036;stroke-width:1.5;" x1="923.5" x2="993.5" y1="386.8164" y2="386.8164"/><rect fill="#F24D5C" height="6" style="stroke:#C82930;stroke-width:1.0;" width="6" x="766.5" y="452.4375"/><text fill="#000000" font-family="sans-serif" font-size="11" font-style="italic" lengthAdjust="spacing" textLength="84" x="778.5" y="458.6479">tutorial() : void</text><line style="stroke:#A80036;stroke-width:1.5;" x1="759.5" x2="827" y1="442.0352" y2="442.0352"/><text fill="#000000" font-family="sans-serif" font-size="11" lengthAdjust="spacing" textLength="99" x="827" y="445.3433">abstract methods</text><line style="stroke:#A80036;stroke-width:1.5;" x1="926" x2="993.5" y1="442.0352" y2="442.0352"/><!--MD5=[d6943c12ae734dbe1975a5489f85ab8f]
class CodeChartsCoordinator--><rect codeLine="53" fill="#FEFECE" filter="url(#fu60og1vn8q3i)" height="176.0469" id="CodeChartsCoordinator" style="stroke:#A80036;stroke-width:1.5;" width="178" x="594.5" y="45"/><ellipse cx="611.75" cy="61" fill="#ADD1B2" rx="11" ry="11" style="stroke:#A80036;stroke-width:1.0;"/><path d="M614.0938,56.6719 C613.1563,56.2344 612.5625,56.0938 611.6875,56.0938 C609.0625,56.0938 607.0625,58.1719 607.0625,60.8906 L607.0625,62.0156 C607.0625,64.5938 609.1719,66.4844 612.0625,66.4844 C613.2813,66.4844 614.4375,66.1875 615.1875,65.6406 C615.7656,65.2344 616.0938,64.7813 616.0938,64.3906 C616.0938,63.9375 615.7031,63.5469 615.2344,63.5469 C615.0156,63.5469 614.8125,63.625 614.625,63.8125 C614.1719,64.2969 614.1719,64.2969 613.9844,64.3906 C613.5625,64.6563 612.875,64.7813 612.1094,64.7813 C610.0625,64.7813 608.7656,63.6875 608.7656,61.9844 L608.7656,60.8906 C608.7656,59.1094 610.0156,57.7969 611.75,57.7969 C612.3281,57.7969 612.9375,57.9531 613.4063,58.2031 C613.8906,58.4844 614.0625,58.7031 614.1563,59.1094 C614.2188,59.5156 614.25,59.6406 614.3906,59.7656 C614.5313,59.9063 614.7656,60.0156 614.9844,60.0156 C615.25,60.0156 615.5156,59.875 615.6875,59.6563 C615.7969,59.5 615.8281,59.3125 615.8281,58.8906 L615.8281,57.4688 C615.8281,57.0313 615.8125,56.9063 615.7188,56.75 C615.5625,56.4844 615.2813,56.3438 614.9844,56.3438 C614.6875,56.3438 614.4844,56.4375 614.2656,56.75 L614.0938,56.6719 Z " fill="#000000"/><text fill="#000000" font-family="sans-serif" font-size="12" lengthAdjust="spacing" textLength="141" x="626.25" y="65.1543">CodeChartsCoordinator</text><line style="stroke:#A80036;stroke-width:1.5;" x1="595.5" x2="771.5" y1="77" y2="77"/><rect fill="none" height="6" style="stroke:#C82930;stroke-width:1.0;" width="6" x="602.5" y="85"/><text fill="#000000" font-family="sans-serif" font-size="11" lengthAdjust="spacing" textLength="83" x="614.5" y="91.2104">speed: float[2]</text><rect fill="none" height="6" style="stroke:#C82930;stroke-width:1.0;" width="6" x="602.5" y="97.8047"/><text fill="#000000" font-family="sans-serif" font-size="11" lengthAdjust="spacing" textLength="104" x="614.5" y="104.0151">isTutorial: boolean</text><rect fill="none" height="6" style="stroke:#C82930;stroke-width:1.0;" width="6" x="602.5" y="110.6094"/><text fill="#000000" font-family="sans-serif" font-size="11" lengthAdjust="spacing" textLength="109" x="614.5" y="116.8198">isRelative: boolean</text><rect fill="none" height="6" style="stroke:#C82930;stroke-width:1.0;" width="6" x="602.5" y="123.4141"/><text fill="#000000" font-family="sans-serif" font-size="11" lengthAdjust="spacing" textLength="101" x="614.5" y="129.6245">dimensions: int[2]</text><rect fill="none" height="6" style="stroke:#C82930;stroke-width:1.0;" width="6" x="602.5" y="136.2188"/><text fill="#000000" font-family="sans-serif" font-size="11" lengthAdjust="spacing" textLength="91" x="614.5" y="142.4292">strings: String[..]</text><ellipse cx="605.5" cy="168.8281" fill="#84BE84" rx="3" ry="3" style="stroke:#038048;stroke-width:1.0;"/><text fill="#000000" font-family="sans-serif" font-size="11" lengthAdjust="spacing" textLength="134" x="614.5" y="172.0386">startCodeCharts() : void</text><line style="stroke:#A80036;stroke-width:1.5;" x1="595.5" x2="643" y1="155.4258" y2="155.4258"/><text fill="#000000" font-family="sans-serif" font-size="11" lengthAdjust="spacing" textLength="81" x="643" y="158.7339">public method</text><line style="stroke:#A80036;stroke-width:1.5;" x1="724" x2="771.5" y1="155.4258" y2="155.4258"/><rect fill="#F24D5C" height="6" style="stroke:#C82930;stroke-width:1.0;" width="6" x="602.5" y="195.4375"/><text fill="#000000" font-family="sans-serif" font-size="11" lengthAdjust="spacing" textLength="152" x="614.5" y="201.6479">loadConfigData() : boolean</text><rect fill="#F24D5C" height="6" style="stroke:#C82930;stroke-width:1.0;" width="6" x="602.5" y="208.2422"/><text fill="#000000" font-family="sans-serif" font-size="11" lengthAdjust="spacing" textLength="100" x="614.5" y="214.4526">tryTutorial() : void</text><line style="stroke:#A80036;stroke-width:1.5;" x1="595.5" x2="636.5" y1="185.0352" y2="185.0352"/><text fill="#000000" font-family="sans-serif" font-size="11" lengthAdjust="spacing" textLength="94" x="636.5" y="188.3433">private methods</text><line style="stroke:#A80036;stroke-width:1.5;" x1="730.5" x2="771.5" y1="185.0352" y2="185.0352"/><!--MD5=[716079bcf736c8b229d38dedc298d2f0]
class CodeChartsInternerSpeicher--><rect codeLine="67" fill="#FEFECE" filter="url(#fu60og1vn8q3i)" height="95.2188" id="CodeChartsInternerSpeicher" style="stroke:#A80036;stroke-width:1.5;" width="332" x="508.5" y="791"/><ellipse cx="584.75" cy="807" fill="#ADD1B2" rx="11" ry="11" style="stroke:#A80036;stroke-width:1.0;"/><path d="M587.0938,802.6719 C586.1563,802.2344 585.5625,802.0938 584.6875,802.0938 C582.0625,802.0938 580.0625,804.1719 580.0625,806.8906 L580.0625,808.0156 C580.0625,810.5938 582.1719,812.4844 585.0625,812.4844 C586.2813,812.4844 587.4375,812.1875 588.1875,811.6406 C588.7656,811.2344 589.0938,810.7813 589.0938,810.3906 C589.0938,809.9375 588.7031,809.5469 588.2344,809.5469 C588.0156,809.5469 587.8125,809.625 587.625,809.8125 C587.1719,810.2969 587.1719,810.2969 586.9844,810.3906 C586.5625,810.6563 585.875,810.7813 585.1094,810.7813 C583.0625,810.7813 581.7656,809.6875 581.7656,807.9844 L581.7656,806.8906 C581.7656,805.1094 583.0156,803.7969 584.75,803.7969 C585.3281,803.7969 585.9375,803.9531 586.4063,804.2031 C586.8906,804.4844 587.0625,804.7031 587.1563,805.1094 C587.2188,805.5156 587.25,805.6406 587.3906,805.7656 C587.5313,805.9063 587.7656,806.0156 587.9844,806.0156 C588.25,806.0156 588.5156,805.875 588.6875,805.6563 C588.7969,805.5 588.8281,805.3125 588.8281,804.8906 L588.8281,803.4688 C588.8281,803.0313 588.8125,802.9063 588.7188,802.75 C588.5625,802.4844 588.2813,802.3438 587.9844,802.3438 C587.6875,802.3438 587.4844,802.4375 587.2656,802.75 L587.0938,802.6719 Z " fill="#000000"/><text fill="#000000" font-family="sans-serif" font-size="12" lengthAdjust="spacing" textLength="171" x="605.25" y="811.1543">CodeChartsInternerSpeicher</text><line style="stroke:#A80036;stroke-width:1.5;" x1="509.5" x2="839.5" y1="823" y2="823"/><ellipse cx="519.5" cy="850.8047" fill="#84BE84" rx="3" ry="3" style="stroke:#038048;stroke-width:1.0;"/><text fill="#000000" font-family="sans-serif" font-size="11" lengthAdjust="spacing" textLength="152" x="528.5" y="854.0151">addPic(pic: unknown) : void</text><ellipse cx="519.5" cy="863.6094" fill="#84BE84" rx="3" ry="3" style="stroke:#038048;stroke-width:1.0;"/><text fill="#000000" font-family="sans-serif" font-size="11" lengthAdjust="spacing" textLength="306" x="528.5" y="866.8198">addSizeAndKord(size: int[2], coordinates: int[2]) : void</text><ellipse cx="519.5" cy="876.4141" fill="#84BE84" rx="3" ry="3" style="stroke:#038048;stroke-width:1.0;"/><text fill="#000000" font-family="sans-serif" font-size="11" lengthAdjust="spacing" textLength="120" x="528.5" y="879.6245">saveData() : boolean</text><line style="stroke:#A80036;stroke-width:1.5;" x1="509.5" x2="634" y1="837.4023" y2="837.4023"/><text fill="#000000" font-family="sans-serif" font-size="11" lengthAdjust="spacing" textLength="81" x="634" y="840.7104">public method</text><line style="stroke:#A80036;stroke-width:1.5;" x1="715" x2="839.5" y1="837.4023" y2="837.4023"/><!--MD5=[48cc74a7e7e460afd8863a3fcc09bdcb]
class CodeChartsBild--><rect codeLine="75" fill="#FEFECE" filter="url(#fu60og1vn8q3i)" height="73.6094" id="CodeChartsBild" style="stroke:#A80036;stroke-width:1.5;" width="147" x="187" y="344.5"/><ellipse cx="212.35" cy="360.5" fill="#ADD1B2" rx="11" ry="11" style="stroke:#A80036;stroke-width:1.0;"/><path d="M214.6938,356.1719 C213.7563,355.7344 213.1625,355.5938 212.2875,355.5938 C209.6625,355.5938 207.6625,357.6719 207.6625,360.3906 L207.6625,361.5156 C207.6625,364.0938 209.7719,365.9844 212.6625,365.9844 C213.8813,365.9844 215.0375,365.6875 215.7875,365.1406 C216.3656,364.7344 216.6938,364.2813 216.6938,363.8906 C216.6938,363.4375 216.3031,363.0469 215.8344,363.0469 C215.6156,363.0469 215.4125,363.125 215.225,363.3125 C214.7719,363.7969 214.7719,363.7969 214.5844,363.8906 C214.1625,364.1563 213.475,364.2813 212.7094,364.2813 C210.6625,364.2813 209.3656,363.1875 209.3656,361.4844 L209.3656,360.3906 C209.3656,358.6094 210.6156,357.2969 212.35,357.2969 C212.9281,357.2969 213.5375,357.4531 214.0063,357.7031 C214.4906,357.9844 214.6625,358.2031 214.7563,358.6094 C214.8188,359.0156 214.85,359.1406 214.9906,359.2656 C215.1313,359.4063 215.3656,359.5156 215.5844,359.5156 C215.85,359.5156 216.1156,359.375 216.2875,359.1563 C216.3969,359 216.4281,358.8125 216.4281,358.3906 L216.4281,356.9688 C216.4281,356.5313 216.4125,356.4063 216.3188,356.25 C216.1625,355.9844 215.8813,355.8438 215.5844,355.8438 C215.2875,355.8438 215.0844,355.9375 214.8656,356.25 L214.6938,356.1719 Z " fill="#000000"/><text fill="#000000" font-family="sans-serif" font-size="12" lengthAdjust="spacing" textLength="92" x="228.65" y="364.6543">CodeChartsBild</text><line style="stroke:#A80036;stroke-width:1.5;" x1="188" x2="333" y1="376.5" y2="376.5"/><line style="stroke:#A80036;stroke-width:1.5;" x1="188" x2="333" y1="384.5" y2="384.5"/><ellipse cx="198" cy="395.5" fill="#84BE84" rx="3" ry="3" style="stroke:#038048;stroke-width:1.0;"/><text fill="#000000" font-family="sans-serif" font-size="11" lengthAdjust="spacing" textLength="121" x="207" y="398.7104">load(url: String) : void</text><ellipse cx="198" cy="408.3047" fill="#84BE84" rx="3" ry="3" style="stroke:#038048;stroke-width:1.0;"/><text fill="#000000" font-family="sans-serif" font-size="11" lengthAdjust="spacing" textLength="72" x="207" y="411.5151">show() : void</text><!--MD5=[b9640045e029ffef06c931bcc3e11d89]
class CodeChartsRaster--><rect codeLine="82" fill="#FEFECE" filter="url(#fu60og1vn8q3i)" height="172.0469" id="CodeChartsRaster" style="stroke:#A80036;stroke-width:1.5;" width="305" x="381" y="538"/><ellipse cx="475.25" cy="554" fill="#ADD1B2" rx="11" ry="11" style="stroke:#A80036;stroke-width:1.0;"/><path d="M477.5938,549.6719 C476.6563,549.2344 476.0625,549.0938 475.1875,549.0938 C472.5625,549.0938 470.5625,551.1719 470.5625,553.8906 L470.5625,555.0156 C470.5625,557.5938 472.6719,559.4844 475.5625,559.4844 C476.7813,559.4844 477.9375,559.1875 478.6875,558.6406 C479.2656,558.2344 479.5938,557.7813 479.5938,557.3906 C479.5938,556.9375 479.2031,556.5469 478.7344,556.5469 C478.5156,556.5469 478.3125,556.625 478.125,556.8125 C477.6719,557.2969 477.6719,557.2969 477.4844,557.3906 C477.0625,557.6563 476.375,557.7813 475.6094,557.7813 C473.5625,557.7813 472.2656,556.6875 472.2656,554.9844 L472.2656,553.8906 C472.2656,552.1094 473.5156,550.7969 475.25,550.7969 C475.8281,550.7969 476.4375,550.9531 476.9063,551.2031 C477.3906,551.4844 477.5625,551.7031 477.6563,552.1094 C477.7188,552.5156 477.75,552.6406 477.8906,552.7656 C478.0313,552.9063 478.2656,553.0156 478.4844,553.0156 C478.75,553.0156 479.0156,552.875 479.1875,552.6563 C479.2969,552.5 479.3281,552.3125 479.3281,551.8906 L479.3281,550.4688 C479.3281,550.0313 479.3125,549.9063 479.2188,549.75 C479.0625,549.4844 478.7813,549.3438 478.4844,549.3438 C478.1875,549.3438 477.9844,549.4375 477.7656,549.75 L477.5938,549.6719 Z " fill="#000000"/><text fill="#000000" font-family="sans-serif" font-size="12" lengthAdjust="spacing" textLength="108" x="495.75" y="558.1543">CodeChartsRaster</text><line style="stroke:#A80036;stroke-width:1.5;" x1="382" x2="685" y1="570" y2="570"/><rect fill="none" height="6" style="stroke:#C82930;stroke-width:1.0;" width="6" x="389" y="578"/><text fill="#000000" font-family="sans-serif" font-size="11" lengthAdjust="spacing" textLength="101" x="401" y="584.2104">dimensions: int[2]</text><rect fill="none" height="6" style="stroke:#C82930;stroke-width:1.0;" width="6" x="389" y="590.8047"/><text fill="#000000" font-family="sans-serif" font-size="11" lengthAdjust="spacing" textLength="91" x="401" y="597.0151">strings: String[..]</text><rect fill="none" height="6" style="stroke:#C82930;stroke-width:1.0;" width="6" x="389" y="603.6094"/><text fill="#000000" font-family="sans-serif" font-size="11" lengthAdjust="spacing" textLength="66" x="401" y="609.8198">kords: int[2]</text><text fill="#000000" font-family="sans-serif" font-size="11" lengthAdjust="spacing" textLength="105" x="401" y="622.6245">__public method__</text><ellipse cx="392" cy="632.2188" fill="#84BE84" rx="3" ry="3" style="stroke:#038048;stroke-width:1.0;"/><text fill="#000000" font-family="sans-serif" font-size="11" lengthAdjust="spacing" textLength="279" x="401" y="635.4292">setData(dimensions: int[2], strings: String[..]):void</text><ellipse cx="392" cy="645.0234" fill="#84BE84" rx="3" ry="3" style="stroke:#038048;stroke-width:1.0;"/><text fill="#000000" font-family="sans-serif" font-size="11" lengthAdjust="spacing" textLength="72" x="401" y="648.2339">show() : void</text><ellipse cx="392" cy="657.8281" fill="#84BE84" rx="3" ry="3" style="stroke:#038048;stroke-width:1.0;"/><text fill="#000000" font-family="sans-serif" font-size="11" lengthAdjust="spacing" textLength="94" x="401" y="661.0386">calculate() : void</text><rect fill="#F24D5C" height="6" style="stroke:#C82930;stroke-width:1.0;" width="6" x="389" y="684.4375"/><text fill="#000000" font-family="sans-serif" font-size="11" lengthAdjust="spacing" textLength="117" x="401" y="690.6479">loadPastRuns() : void</text><rect fill="#F24D5C" height="6" style="stroke:#C82930;stroke-width:1.0;" width="6" x="389" y="697.2422"/><text fill="#000000" font-family="sans-serif" font-size="11" lengthAdjust="spacing" textLength="98" x="401" y="703.4526">sendData() : void</text><line style="stroke:#A80036;stroke-width:1.5;" x1="382" x2="486.5" y1="674.0352" y2="674.0352"/><text fill="#000000" font-family="sans-serif" font-size="11" lengthAdjust="spacing" textLength="94" x="486.5" y="677.3433">private methods</text><line style="stroke:#A80036;stroke-width:1.5;" x1="580.5" x2="685" y1="674.0352" y2="674.0352"/><!--MD5=[a7f545f13df25b09c4dd936da65dfdd1]
class CodeChartsEingabefenster--><rect codeLine="97" fill="#FEFECE" filter="url(#fu60og1vn8q3i)" height="124.8281" id="CodeChartsEingabefenster" style="stroke:#A80036;stroke-width:1.5;" width="234" x="452.5" y="319"/><ellipse cx="485.95" cy="335" fill="#ADD1B2" rx="11" ry="11" style="stroke:#A80036;stroke-width:1.0;"/><path d="M488.2938,330.6719 C487.3563,330.2344 486.7625,330.0938 485.8875,330.0938 C483.2625,330.0938 481.2625,332.1719 481.2625,334.8906 L481.2625,336.0156 C481.2625,338.5938 483.3719,340.4844 486.2625,340.4844 C487.4813,340.4844 488.6375,340.1875 489.3875,339.6406 C489.9656,339.2344 490.2938,338.7813 490.2938,338.3906 C490.2938,337.9375 489.9031,337.5469 489.4344,337.5469 C489.2156,337.5469 489.0125,337.625 488.825,337.8125 C488.3719,338.2969 488.3719,338.2969 488.1844,338.3906 C487.7625,338.6563 487.075,338.7813 486.3094,338.7813 C484.2625,338.7813 482.9656,337.6875 482.9656,335.9844 L482.9656,334.8906 C482.9656,333.1094 484.2156,331.7969 485.95,331.7969 C486.5281,331.7969 487.1375,331.9531 487.6063,332.2031 C488.0906,332.4844 488.2625,332.7031 488.3563,333.1094 C488.4188,333.5156 488.45,333.6406 488.5906,333.7656 C488.7313,333.9063 488.9656,334.0156 489.1844,334.0156 C489.45,334.0156 489.7156,333.875 489.8875,333.6563 C489.9969,333.5 490.0281,333.3125 490.0281,332.8906 L490.0281,331.4688 C490.0281,331.0313 490.0125,330.9063 489.9188,330.75 C489.7625,330.4844 489.4813,330.3438 489.1844,330.3438 C488.8875,330.3438 488.6844,330.4375 488.4656,330.75 L488.2938,330.6719 Z " fill="#000000"/><text fill="#000000" font-family="sans-serif" font-size="12" lengthAdjust="spacing" textLength="161" x="504.05" y="339.1543">CodeChartsEingabefenster</text><line style="stroke:#A80036;stroke-width:1.5;" x1="453.5" x2="685.5" y1="351" y2="351"/><ellipse cx="463.5" cy="378.8047" fill="#84BE84" rx="3" ry="3" style="stroke:#038048;stroke-width:1.0;"/><text fill="#000000" font-family="sans-serif" font-size="11" lengthAdjust="spacing" textLength="81" x="472.5" y="382.0151">show() : String</text><line style="stroke:#A80036;stroke-width:1.5;" x1="453.5" x2="529" y1="365.4023" y2="365.4023"/><text fill="#000000" font-family="sans-serif" font-size="11" lengthAdjust="spacing" textLength="81" x="529" y="368.7104">public method</text><line style="stroke:#A80036;stroke-width:1.5;" x1="610" x2="685.5" y1="365.4023" y2="365.4023"/><rect fill="#F24D5C" height="6" style="stroke:#C82930;stroke-width:1.0;" width="6" x="460.5" y="405.4141"/><text fill="#000000" font-family="sans-serif" font-size="11" lengthAdjust="spacing" textLength="135" x="472.5" y="411.6245">checkButton() : boolean</text><rect fill="#F24D5C" height="6" style="stroke:#C82930;stroke-width:1.0;" width="6" x="460.5" y="418.2188"/><text fill="#000000" font-family="sans-serif" font-size="11" lengthAdjust="spacing" textLength="208" x="472.5" y="424.4292">validateString(input: String): boolean</text><rect fill="#F24D5C" height="6" style="stroke:#C82930;stroke-width:1.0;" width="6" x="460.5" y="431.0234"/><text fill="#000000" font-family="sans-serif" font-size="11" lengthAdjust="spacing" textLength="120" x="472.5" y="437.2339">ErrorMessage() : void</text><line style="stroke:#A80036;stroke-width:1.5;" x1="453.5" x2="522.5" y1="395.0117" y2="395.0117"/><text fill="#000000" font-family="sans-serif" font-size="11" lengthAdjust="spacing" textLength="94" x="522.5" y="398.3198">private methods</text><line style="stroke:#A80036;stroke-width:1.5;" x1="616.5" x2="685.5" y1="395.0117" y2="395.0117"/><polygon fill="#FFFFFF" filter="url(#fu60og1vn8q3i)" points="1086.5,355,1144.5,355,1151.5,377.2969,1158.5,377.2969,1158.5,407.5938,1086.5,407.5938,1086.5,355" style="stroke:#000000;stroke-width:1.5;"/><line style="stroke:#000000;stroke-width:1.5;" x1="1086.5" x2="1151.5" y1="377.2969" y2="377.2969"/><text fill="#000000" font-family="sans-serif" font-size="14" font-weight="bold" lengthAdjust="spacing" textLength="52" x="1090.5" y="369.9951">Config</text><polygon fill="#FFFFFF" filter="url(#fu60og1vn8q3i)" points="598.5,968,736.5,968,743.5,990.2969,750.5,990.2969,750.5,1020.5938,598.5,1020.5938,598.5,968" style="stroke:#000000;stroke-width:1.5;"/><line style="stroke:#000000;stroke-width:1.5;" x1="598.5" x2="743.5" y1="990.2969" y2="990.2969"/><text fill="#000000" font-family="sans-serif" font-size="14" font-weight="bold" lengthAdjust="spacing" textLength="132" x="602.5" y="982.9951">SpeicherMedium</text><!--MD5=[fccc419d627b37790932ddb688fb7ad6]
class Tutorial--><rect codeLine="6" fill="#FEFECE" filter="url(#fu60og1vn8q3i)" height="167.2422" id="Tutorial" style="stroke:#A80036;stroke-width:1.5;" width="236" x="1175.5" y="48"/><ellipse cx="1221.25" cy="64" fill="#A9DCDF" rx="11" ry="11" style="stroke:#A80036;stroke-width:1.0;"/><path d="M1223.3281,65.8125 L1223.7188,66.7969 L1223.3281,66.7969 C1222.875,66.7969 1222.7656,66.8125 1222.6094,66.9219 C1222.3594,67.0781 1222.2031,67.3594 1222.2031,67.6563 C1222.2031,67.9219 1222.3438,68.1719 1222.5625,68.3281 C1222.7031,68.4531 1222.9063,68.5 1223.3281,68.5 L1225.6875,68.5 C1226.0469,68.5 1226.2656,68.4688 1226.4063,68.375 C1226.6563,68.2344 1226.8125,67.9375 1226.8125,67.6563 C1226.8125,67.375 1226.6719,67.125 1226.4531,66.9688 C1226.2813,66.8281 1226.125,66.7969 1225.6563,66.7969 L1222.2656,58.5938 L1218.5938,58.5938 C1218.1406,58.5938 1218.0156,58.6094 1217.8594,58.7031 C1217.6094,58.875 1217.4531,59.1563 1217.4531,59.4375 C1217.4531,59.7188 1217.5938,59.9688 1217.8125,60.1406 C1217.9844,60.25 1218.1563,60.2813 1218.5938,60.2813 L1219.6719,60.2813 L1217.0313,66.7969 C1216.6094,66.7969 1216.4531,66.8125 1216.2969,66.9219 C1216.0469,67.0781 1215.8906,67.3594 1215.8906,67.6563 C1215.8906,68.2188 1216.2656,68.5 1217.0156,68.5 L1219.2813,68.5 C1219.6406,68.5 1219.8594,68.4688 1219.9844,68.375 C1220.25,68.2344 1220.3906,67.9375 1220.3906,67.6563 C1220.3906,67.375 1220.2656,67.125 1220.0469,66.9531 C1219.875,66.8281 1219.7344,66.7969 1219.2813,66.7969 L1218.8906,66.7969 L1219.2813,65.8125 L1223.3281,65.8125 Z M1222.625,64.1094 L1219.9531,64.1094 L1221.2969,60.8438 L1222.625,64.1094 Z " fill="#000000"/><text fill="#000000" font-family="sans-serif" font-size="12" font-style="italic" lengthAdjust="spacing" textLength="45" x="1241.75" y="68.1543">Tutorial</text><rect fill="#FFFFFF" height="15.9688" style="stroke:#000000;stroke-width:1.0;stroke-dasharray:2.0,2.0;" width="89" x="1325.5" y="45"/><text fill="#000000" font-family="sans-serif" font-size="12" font-style="italic" lengthAdjust="spacing" textLength="87" x="1326.5" y="57.1387">t: TutorialType</text><line style="stroke:#A80036;stroke-width:1.5;" x1="1176.5" x2="1410.5" y1="80" y2="80"/><rect fill="none" height="6" style="stroke:#C82930;stroke-width:1.0;" width="6" x="1183.5" y="88"/><text fill="#000000" font-family="sans-serif" font-size="11" lengthAdjust="spacing" textLength="82" x="1195.5" y="94.2104">t: TutorialType</text><ellipse cx="1186.5" cy="120.6094" fill="#84BE84" rx="3" ry="3" style="stroke:#038048;stroke-width:1.0;"/><text fill="#000000" font-family="sans-serif" font-size="11" lengthAdjust="spacing" textLength="68" x="1195.5" y="123.8198">start() : void</text><line style="stroke:#A80036;stroke-width:1.5;" x1="1176.5" x2="1253" y1="107.207" y2="107.207"/><text fill="#000000" font-family="sans-serif" font-size="11" lengthAdjust="spacing" textLength="81" x="1253" y="110.5151">public method</text><line style="stroke:#A80036;stroke-width:1.5;" x1="1334" x2="1410.5" y1="107.207" y2="107.207"/><rect fill="#F24D5C" height="6" style="stroke:#C82930;stroke-width:1.0;" width="6" x="1183.5" y="147.2188"/><text fill="#000000" font-family="sans-serif" font-size="11" lengthAdjust="spacing" textLength="151" x="1195.5" y="153.4292">getConfigState() : boolean</text><rect fill="#F24D5C" height="6" style="stroke:#C82930;stroke-width:1.0;" width="6" x="1183.5" y="160.0234"/><text fill="#000000" font-family="sans-serif" font-size="11" lengthAdjust="spacing" textLength="210" x="1195.5" y="166.2339">setConfigState(state: boolean) : void</text><rect fill="#F24D5C" height="6" style="stroke:#C82930;stroke-width:1.0;" width="6" x="1183.5" y="172.8281"/><text fill="#000000" font-family="sans-serif" font-size="11" lengthAdjust="spacing" textLength="94" x="1195.5" y="179.0386">show() : boolean</text><line style="stroke:#A80036;stroke-width:1.5;" x1="1176.5" x2="1246.5" y1="136.8164" y2="136.8164"/><text fill="#000000" font-family="sans-serif" font-size="11" lengthAdjust="spacing" textLength="94" x="1246.5" y="140.1245">private methods</text><line style="stroke:#A80036;stroke-width:1.5;" x1="1340.5" x2="1410.5" y1="136.8164" y2="136.8164"/><rect fill="#F24D5C" height="6" style="stroke:#C82930;stroke-width:1.0;" width="6" x="1183.5" y="202.4375"/><text fill="#000000" font-family="sans-serif" font-size="11" font-style="italic" lengthAdjust="spacing" textLength="84" x="1195.5" y="208.6479">tutorial() : void</text><line style="stroke:#A80036;stroke-width:1.5;" x1="1176.5" x2="1244" y1="192.0352" y2="192.0352"/><text fill="#000000" font-family="sans-serif" font-size="11" lengthAdjust="spacing" textLength="99" x="1244" y="195.3433">abstract methods</text><line style="stroke:#A80036;stroke-width:1.5;" x1="1343" x2="1410.5" y1="192.0352" y2="192.0352"/><!--MD5=[b51717a605764d924c74fe29f3a07c77]
class TutorialType--><rect codeLine="18" fill="#FEFECE" filter="url(#fu60og1vn8q3i)" height="86.4141" id="TutorialType" style="stroke:#A80036;stroke-width:1.5;" width="106" x="1026.5" y="88"/><ellipse cx="1041.5" cy="104" fill="#EB937F" rx="11" ry="11" style="stroke:#A80036;stroke-width:1.0;"/><path d="M1040.2969,104.875 L1041.75,104.875 L1041.75,104.9844 C1041.75,105.3906 1041.7813,105.5469 1041.8594,105.7031 C1042.0156,105.9531 1042.2969,106.1094 1042.5938,106.1094 C1042.8438,106.1094 1043.1094,105.9688 1043.2656,105.75 C1043.3906,105.5938 1043.4219,105.4375 1043.4219,104.9844 L1043.4219,103.0625 C1043.4219,102.9063 1043.4219,102.8594 1043.4063,102.7031 C1043.3438,102.2344 1043.0313,101.9219 1042.5781,101.9219 C1042.3281,101.9219 1042.0625,102.0625 1041.8906,102.2813 C1041.7813,102.4531 1041.75,102.6094 1041.75,103.0625 L1041.75,103.1875 L1040.2969,103.1875 L1040.2969,100.7813 L1044.2813,100.7813 L1044.2813,101.6406 C1044.2813,102.0469 1044.3125,102.2188 1044.3906,102.375 C1044.5625,102.625 1044.8438,102.7813 1045.125,102.7813 C1045.3906,102.7813 1045.6563,102.6406 1045.8281,102.4219 C1045.9375,102.25 1045.9688,102.1094 1045.9688,101.6406 L1045.9688,99.0938 L1038.3438,99.0938 C1037.9063,99.0938 1037.7813,99.1094 1037.625,99.2031 C1037.375,99.3594 1037.2188,99.6563 1037.2188,99.9375 C1037.2188,100.2188 1037.3594,100.4688 1037.5781,100.6406 C1037.7344,100.75 1037.9219,100.7813 1038.3438,100.7813 L1038.5938,100.7813 L1038.5938,107.2969 L1038.3438,107.2969 C1037.9375,107.2969 1037.7813,107.3125 1037.625,107.4219 C1037.375,107.5938 1037.2188,107.8594 1037.2188,108.1563 C1037.2188,108.4219 1037.3594,108.6719 1037.5781,108.8281 C1037.7188,108.9531 1037.9531,109 1038.3438,109 L1046.3438,109 L1046.3438,106.4219 C1046.3438,105.9844 1046.3125,105.8438 1046.2344,105.6875 C1046.0625,105.4375 1045.7813,105.2813 1045.5,105.2813 C1045.2344,105.2813 1044.9688,105.3906 1044.7969,105.6406 C1044.6875,105.7969 1044.6563,105.9375 1044.6563,106.4219 L1044.6563,107.2969 L1040.2969,107.2969 L1040.2969,104.875 Z " fill="#000000"/><text fill="#000000" font-family="sans-serif" font-size="12" lengthAdjust="spacing" textLength="74" x="1055.5" y="108.1543">TutorialType</text><line style="stroke:#A80036;stroke-width:1.5;" x1="1027.5" x2="1131.5" y1="120" y2="120"/><text fill="#000000" font-family="sans-serif" font-size="11" lengthAdjust="spacing" textLength="35" x="1032.5" y="134.2104">ZOOM</text><text fill="#000000" font-family="sans-serif" font-size="11" lengthAdjust="spacing" textLength="78" x="1032.5" y="147.0151">EYETRACKING</text><text fill="#000000" font-family="sans-serif" font-size="11" lengthAdjust="spacing" textLength="79" x="1032.5" y="159.8198">CODECHARTS</text><line style="stroke:#A80036;stroke-width:1.5;" x1="1027.5" x2="1131.5" y1="166.4141" y2="166.4141"/><!--MD5=[626b00d2609f42ba755c8afb6d5f2b59]
class Bild--><rect codeLine="31" fill="#FEFECE" filter="url(#fu60og1vn8q3i)" height="73.6094" id="Bild" style="stroke:#A80036;stroke-width:1.5;" width="147" x="7" y="94"/><ellipse cx="65.25" cy="110" fill="#A9DCDF" rx="11" ry="11" style="stroke:#A80036;stroke-width:1.0;"/><path d="M67.3281,111.8125 L67.7188,112.7969 L67.3281,112.7969 C66.875,112.7969 66.7656,112.8125 66.6094,112.9219 C66.3594,113.0781 66.2031,113.3594 66.2031,113.6563 C66.2031,113.9219 66.3438,114.1719 66.5625,114.3281 C66.7031,114.4531 66.9063,114.5 67.3281,114.5 L69.6875,114.5 C70.0469,114.5 70.2656,114.4688 70.4063,114.375 C70.6563,114.2344 70.8125,113.9375 70.8125,113.6563 C70.8125,113.375 70.6719,113.125 70.4531,112.9688 C70.2813,112.8281 70.125,112.7969 69.6563,112.7969 L66.2656,104.5938 L62.5938,104.5938 C62.1406,104.5938 62.0156,104.6094 61.8594,104.7031 C61.6094,104.875 61.4531,105.1563 61.4531,105.4375 C61.4531,105.7188 61.5938,105.9688 61.8125,106.1406 C61.9844,106.25 62.1563,106.2813 62.5938,106.2813 L63.6719,106.2813 L61.0313,112.7969 C60.6094,112.7969 60.4531,112.8125 60.2969,112.9219 C60.0469,113.0781 59.8906,113.3594 59.8906,113.6563 C59.8906,114.2188 60.2656,114.5 61.0156,114.5 L63.2813,114.5 C63.6406,114.5 63.8594,114.4688 63.9844,114.375 C64.25,114.2344 64.3906,113.9375 64.3906,113.6563 C64.3906,113.375 64.2656,113.125 64.0469,112.9531 C63.875,112.8281 63.7344,112.7969 63.2813,112.7969 L62.8906,112.7969 L63.2813,111.8125 L67.3281,111.8125 Z M66.625,110.1094 L63.9531,110.1094 L65.2969,106.8438 L66.625,110.1094 Z " fill="#000000"/><text fill="#000000" font-family="sans-serif" font-size="12" font-style="italic" lengthAdjust="spacing" textLength="22" x="85.75" y="114.1543">Bild</text><line style="stroke:#A80036;stroke-width:1.5;" x1="8" x2="153" y1="126" y2="126"/><line style="stroke:#A80036;stroke-width:1.5;" x1="8" x2="153" y1="134" y2="134"/><ellipse cx="18" cy="145" fill="#84BE84" rx="3" ry="3" style="stroke:#038048;stroke-width:1.0;"/><text fill="#000000" font-family="sans-serif" font-size="11" lengthAdjust="spacing" textLength="121" x="27" y="148.2104">load(url: String) : void</text><ellipse cx="18" cy="157.8047" fill="#84BE84" rx="3" ry="3" style="stroke:#038048;stroke-width:1.0;"/><text fill="#000000" font-family="sans-serif" font-size="11" lengthAdjust="spacing" textLength="72" x="27" y="161.0151">show() : void</text><!--MD5=[9bdf74ba08b45b42d4b5e25d73cb2a49]
link TutorialType to Tutorial--><path codeLine="25" d="M1132.5,99.509 C1142.63,95.294 1153.52,91.959 1164.46,90.628 " fill="none" id="TutorialType-Tutorial" style="stroke:#A80036;stroke-width:1.0;"/><line style="stroke:#A80036;stroke-width:1.0;" x1="1164.46" x2="1174.5" y1="90.628" y2="90"/><!--MD5=[fc4ffdc4bb2ac5a3cd1bd4c856213de4]
link Tutorial to Config--><path codeLine="26" d="M1234.17,218.216 C1201.09,266.298 1162.21,322.79 1140.15,354.845 " fill="none" id="Tutorial-Config" style="stroke:#A80036;stroke-width:1.0;"/><!--MD5=[c900c8497a661fa4184b5bb04c49372f]
reverse link Bild to CodeChartsBild--><path codeLine="108" d="M118.482,184.436 C153.261,232.45 203.82,302.25 234.295,344.322 " fill="none" id="Bild-backto-CodeChartsBild" style="stroke:#A80036;stroke-width:1.0;"/><polygon fill="none" points="112.737,188.438,106.6735,168.134,124.075,180.225,112.737,188.438" style="stroke:#A80036;stroke-width:1.0;"/><!--MD5=[1e1b7046ac2ce77f5695cfbd942bbe9e]
reverse link Tutorial to CodeChartsTutorial--><path codeLine="109" d="M1150.46,228.898 C1129.54,242.348 1108.1,255.743 1087.5,268 C1057.89,285.617 1025.3,303.636 994.773,319.945 " fill="none" id="Tutorial-backto-CodeChartsTutorial" style="stroke:#A80036;stroke-width:1.0;"/><polygon fill="none" points="1146.9,222.865,1167.49,217.867,1154.51,234.615,1146.9,222.865" style="stroke:#A80036;stroke-width:1.0;"/><!--MD5=[330c08158d1b261bc3f75486c3c78546]
link CodeChartsCoordinator to CodeChartsBild--><path codeLine="113" d="M586.382,158.418 C524.668,178.004 444.938,208.663 382.5,251 C344.791,276.569 310.035,315.664 287.347,344.211 " fill="none" id="CodeChartsCoordinator-CodeChartsBild" style="stroke:#A80036;stroke-width:1.0;"/><polygon fill="#000000" points="383.253,262.1387,392.4869,259.8616,389.3849,254.8689,383.253,262.1387" style="stroke:#000000;stroke-width:1.0;"/><!--MD5=[af7fa7eefc847a19c654188e611c6a01]
link CodeChartsCoordinator to CodeChartsRaster--><path codeLine="114" d="M586.393,165.658 C527.225,191.789 456.479,234.429 421.5,298 C385.719,363.028 398.976,394.278 421.5,465 C429.663,490.63 443.661,515.671 459.051,537.988 " fill="none" id="CodeChartsCoordinator-CodeChartsRaster" style="stroke:#A80036;stroke-width:1.0;"/><polygon fill="#000000" points="424.8819,386.231,430.5898,378.6236,425.0282,376.7215,424.8819,386.231" style="stroke:#000000;stroke-width:1.0;"/><!--MD5=[acd6e22bd1b43ca41d1e169d29f8f975]
link CodeChartsCoordinator to CodeChartsEingabefenster--><path codeLine="115" d="M593.5,167 C531.956,167 539.776,255.692 553.112,318.747 " fill="none" id="CodeChartsCoordinator-CodeChartsEingabefenster" style="stroke:#A80036;stroke-width:1.0;"/><polygon fill="#000000" points="549.214,264.3318,554.3805,256.3469,548.7003,254.8351,549.214,264.3318" style="stroke:#000000;stroke-width:1.0;"/><!--MD5=[352d2a78a40821fe66095c41811c6ec4]
link CodeChartsCoordinator to CodeChartsInternerSpeicher--><path codeLine="116" d="M773.5,195 C785.064,195 774.98,209.705 772.5,221 C764.552,257.197 749.371,262.018 740.5,298 C696.492,476.503 732.251,528.414 703.5,710 C699.45,735.577 693.222,763.68 687.574,786.934 " fill="none" id="CodeChartsCoordinator-CodeChartsInternerSpeicher" style="stroke:#A80036;stroke-width:1.0;"/><polygon fill="#000000" points="720.7817,506.4481,724.9895,497.9191,719.1727,497.0747,720.7817,506.4481" style="stroke:#000000;stroke-width:1.0;"/><!--MD5=[45be10fb9057243d989f7112dab584ae]
link CodeChartsCoordinator to CodeChartsTutorial--><path codeLine="117" d="M773.5,207 C819.739,207 845.679,253.128 859.959,297.815 " fill="none" id="CodeChartsCoordinator-CodeChartsTutorial" style="stroke:#A80036;stroke-width:1.0;"/><polygon fill="#000000" points="854.9476,263.1213,850.8394,254.5438,846.5823,258.5968,854.9476,263.1213" style="stroke:#000000;stroke-width:1.0;"/><!--MD5=[430173a8cceee07f962d4a39f48ec6f9]
link CodeChartsRaster to CodeChartsInternerSpeicher--><path codeLine="119" d="M590.038,710.007 C607.353,736.041 625.839,763.835 641.088,786.763 " fill="none" id="CodeChartsRaster-CodeChartsInternerSpeicher" style="stroke:#A80036;stroke-width:1.0;"/><text fill="#000000" font-family="sans-serif" font-size="13" lengthAdjust="spacing" textLength="20" x="622.5" y="753.0669">&lt;&gt;</text><!--MD5=[785a98a2d4f001b3a7e96305a4636287]
link CodeChartsEingabefenster to CodeChartsRaster--><path codeLine="120" d="M560.276,444.122 C556.005,472.653 550.862,507.013 546.229,537.961 " fill="none" id="CodeChartsEingabefenster-CodeChartsRaster" style="stroke:#A80036;stroke-width:1.0;"/><polygon fill="#000000" points="557.7598,506.4449,562.0054,497.9346,556.1923,497.0644,557.7598,506.4449" style="stroke:#000000;stroke-width:1.0;"/><!--MD5=[98ba0babc1f2c9ceb0957566289f4661]
link CodeChartsInternerSpeicher to SpeicherMedium--><path codeLine="125" d="M841.5,875 C905.224,875 797.834,933.0974 727.714,967.9332 " fill="none" id="CodeChartsInternerSpeicher-SpeicherMedium" style="stroke:#A80036;stroke-width:1.0;"/><polygon fill="#000000" points="814.6275,932.7292,823.492,929.2838,819.7739,924.7314,814.6275,932.7292" style="stroke:#000000;stroke-width:1.0;"/><text fill="#000000" font-family="sans-serif" font-size="13" lengthAdjust="spacing" textLength="73" x="827.5" y="934.0669">saves Data</text><!--MD5=[ba0b6aad62bad149f99973f5ab313e4e]
link CodeChartsCoordinator to Config--><path codeLine="127" d="M773.5,167 C915.912,167 1049.33,297.962 1100.48,354.747 " fill="none" id="CodeChartsCoordinator-Config" style="stroke:#A80036;stroke-width:1.0;"/><polygon fill="#000000" points="1009.1639,257.0767,1015.5445,264.1293,1018.4714,259.0319,1009.1639,257.0767" style="stroke:#000000;stroke-width:1.0;"/><text fill="#000000" font-family="sans-serif" font-size="13" lengthAdjust="spacing" textLength="100" x="1022.5" y="264.0669">gets Initial Data</text><!--MD5=[0441c36bfbc6c729b76f3ae318c1bee5]
@startuml
' skinparam backgroundColor transparent
'() System #DA70D5
top to bottom direction

' - - - TUTORIAL - - -
abstract Tutorial<t: TutorialType> {
  - t: TutorialType
  __public method__
  + start() : void
  __private methods__
  - getConfigState() : boolean
  - setConfigState(state: boolean) : void
  - show() : boolean
  __abstract methods__
  - {abstract} tutorial() : void
}

enum TutorialType {
  ZOOM
  EYETRACKING
  CODECHARTS
}

' Interaktionen
Tutorial::t -l- TutorialType
Tutorial -d- Config


' - - - BILD - - -

abstract Bild {
  + load(url: String) : void
  + show() : void
}

' === CODE CHARTS ===
package CodeCharts {

    ' CodeCharts Tutorial 
    class CodeChartsTutorial {
      - t: TutorialType
      __public method__
      + start() : void
      __private methods__
      - getConfigState() : boolean
      - setConfigState(state: boolean) : void
      - show() : boolean
      __abstract methods__
      - {abstract} tutorial() : void
    }
  
    ' CodeCharts Coordinator
    class CodeChartsCoordinator {
        - speed: float[2]
        - isTutorial: boolean
        - isRelative: boolean
        - dimensions: int[2]
        - strings: String[..]
        __public method__
        + startCodeCharts() : void
        __private methods__
        - loadConfigData() : boolean
        - tryTutorial() : void
    }

    ' CodeCharts Interner Speicher
    class CodeChartsInternerSpeicher {
        __public method__
        + addPic(pic: unknown) : void
        + addSizeAndKord(size: int[2], coordinates: int[2]) : void
        + saveData() : boolean
    }

    ' CodeCharts Bild
    class CodeChartsBild {
        ' Unsicher ob es sinnvoll ist das Bild vorzuladen
        + load(url: String) : void
        + show() : void
    }

    ' CodeCharts Raster
    class CodeChartsRaster {
        ' Unsicher ob es sinnvoll ist alle vorherigen Durchläufe auf einmal zu laden
        - dimensions: int[2]
        - strings: String[..]
        - kords: int[2]
        __public method__ 
        + setData(dimensions: int[2], strings: String[..]):void
        + show() : void
        + calculate() : void
        __private methods__
        - loadPastRuns() : void
        - sendData() : void
    }

    ' CodeCharts Eingabefenster
    class CodeChartsEingabefenster {
        __public method__
        + show() : String
        __private methods__
        - checkButton() : boolean
        - validateString(input: String): boolean
        - ErrorMessage() : void
    }


    ' Vererbungen
    Bild <|-d- CodeChartsBild
    Tutorial <|-d- CodeChartsTutorial

    ' Interaktionen
    ' Bild & Raster mehrere Anbindungen (startCodeCharts, loadConfigData)
    CodeChartsCoordinator - - CodeChartsBild : >
    CodeChartsCoordinator - - CodeChartsRaster : >
    CodeChartsCoordinator::startCodeCharts - - CodeChartsEingabefenster : >
    CodeChartsCoordinator::loadConfigData - - CodeChartsInternerSpeicher : >
    CodeChartsCoordinator::tryTutorial - - CodeChartsTutorial : >
    ' load & send Kante?
    CodeChartsRaster - - CodeChartsInternerSpeicher : <>
    CodeChartsEingabefenster - - CodeChartsRaster : >



    ' Andere Module
    CodeChartsInternerSpeicher::saveData - - SpeicherMedium : > saves Data
    ' von startCodeCharts oder von loadConfigData
    CodeChartsCoordinator::startCodeCharts - - Config : < gets Initial Data
  
}

' Blackboxen / Andere Module
package Config {}

package SpeicherMedium {}
@enduml

@startuml
top to bottom direction

abstract Tutorial<t: TutorialType> {
  - t: TutorialType
  __public method__
  + start() : void
  __private methods__
  - getConfigState() : boolean
  - setConfigState(state: boolean) : void
  - show() : boolean
  __abstract methods__
  - {abstract} tutorial() : void
}

enum TutorialType {
  ZOOM
  EYETRACKING
  CODECHARTS
}

Tutorial::t -l- TutorialType
Tutorial -d- Config



abstract Bild {
  + load(url: String) : void
  + show() : void
}

package CodeCharts {

    class CodeChartsTutorial {
      - t: TutorialType
      __public method__
      + start() : void
      __private methods__
      - getConfigState() : boolean
      - setConfigState(state: boolean) : void
      - show() : boolean
      __abstract methods__
      - {abstract} tutorial() : void
    }
  
    class CodeChartsCoordinator {
        - speed: float[2]
        - isTutorial: boolean
        - isRelative: boolean
        - dimensions: int[2]
        - strings: String[..]
        __public method__
        + startCodeCharts() : void
        __private methods__
        - loadConfigData() : boolean
        - tryTutorial() : void
    }

    class CodeChartsInternerSpeicher {
        __public method__
        + addPic(pic: unknown) : void
        + addSizeAndKord(size: int[2], coordinates: int[2]) : void
        + saveData() : boolean
    }

    class CodeChartsBild {
        + load(url: String) : void
        + show() : void
    }

    class CodeChartsRaster {
        - dimensions: int[2]
        - strings: String[..]
        - kords: int[2]
        __public method__ 
        + setData(dimensions: int[2], strings: String[..]):void
        + show() : void
        + calculate() : void
        __private methods__
        - loadPastRuns() : void
        - sendData() : void
    }

    class CodeChartsEingabefenster {
        __public method__
        + show() : String
        __private methods__
        - checkButton() : boolean
        - validateString(input: String): boolean
        - ErrorMessage() : void
    }


    Bild <|-d- CodeChartsBild
    Tutorial <|-d- CodeChartsTutorial

    CodeChartsCoordinator - - CodeChartsBild : >
    CodeChartsCoordinator - - CodeChartsRaster : >
    CodeChartsCoordinator::startCodeCharts - - CodeChartsEingabefenster : >
    CodeChartsCoordinator::loadConfigData - - CodeChartsInternerSpeicher : >
    CodeChartsCoordinator::tryTutorial - - CodeChartsTutorial : >
    CodeChartsRaster - - CodeChartsInternerSpeicher : <>
    CodeChartsEingabefenster - - CodeChartsRaster : >



    CodeChartsInternerSpeicher::saveData - - SpeicherMedium : > saves Data
    CodeChartsCoordinator::startCodeCharts - - Config : < gets Initial Data
  
}

package Config {}

package SpeicherMedium {}
@enduml

PlantUML version 1.2021.13beta8(Unknown compile time)
(GPL source distribution)
Java Runtime: Java(TM) SE Runtime Environment
JVM: Java HotSpot(TM) 64-Bit Server VM
Default Encoding: UTF-8
Language: en
Country: US
--></g></svg>