<?xml version="1.0" encoding="UTF-8" standalone="no"?><svg xmlns="http://www.w3.org/2000/svg" xmlns:xlink="http://www.w3.org/1999/xlink" contentScriptType="application/ecmascript" contentStyleType="text/css" height="1044px" preserveAspectRatio="none" style="width:1594px;height:1044px;background:#FFFFFF;" version="1.1" viewBox="0 0 1594 1044" width="1594px" zoomAndPan="magnify"><defs><filter height="300%" id="f1smq88zt0nedh" width="300%" x="-1" y="-1"><feGaussianBlur result="blurOut" stdDeviation="2.0"/><feColorMatrix in="blurOut" result="blurOut2" type="matrix" values="0 0 0 0 0 0 0 0 0 0 0 0 0 0 0 0 0 0 .4 0"/><feOffset dx="4.0" dy="4.0" in="blurOut2" result="blurOut3"/><feBlend in="SourceGraphic" in2="blurOut3" mode="normal"/></filter></defs><g><!--MD5=[bd4ed236a13575a9dcf49b2316e757e7]
cluster CodeCharts--><polygon fill="#FFFFFF" filter="url(#f1smq88zt0nedh)" points="170.5,6,269.5,6,276.5,28.2969,1179.5,28.2969,1179.5,922,170.5,922,170.5,6" style="stroke:#000000;stroke-width:1.5;"/><line style="stroke:#000000;stroke-width:1.5;" x1="170.5" x2="276.5" y1="28.2969" y2="28.2969"/><text fill="#000000" font-family="sans-serif" font-size="14" font-weight="bold" lengthAdjust="spacing" textLength="93" x="174.5" y="20.9951">CodeCharts</text><!--MD5=[81d462353594d8875238471802618d21]
class CodeChartsTutorial--><rect codeLine="40" fill="#FEFECE" filter="url(#f1smq88zt0nedh)" height="167.2422" id="CodeChartsTutorial" style="stroke:#A80036;stroke-width:1.5;" width="236" x="927.5" y="298"/><ellipse cx="984.25" cy="314" fill="#ADD1B2" rx="11" ry="11" style="stroke:#A80036;stroke-width:1.0;"/><path d="M986.5938,309.6719 C985.6563,309.2344 985.0625,309.0938 984.1875,309.0938 C981.5625,309.0938 979.5625,311.1719 979.5625,313.8906 L979.5625,315.0156 C979.5625,317.5938 981.6719,319.4844 984.5625,319.4844 C985.7813,319.4844 986.9375,319.1875 987.6875,318.6406 C988.2656,318.2344 988.5938,317.7813 988.5938,317.3906 C988.5938,316.9375 988.2031,316.5469 987.7344,316.5469 C987.5156,316.5469 987.3125,316.625 987.125,316.8125 C986.6719,317.2969 986.6719,317.2969 986.4844,317.3906 C986.0625,317.6563 985.375,317.7813 984.6094,317.7813 C982.5625,317.7813 981.2656,316.6875 981.2656,314.9844 L981.2656,313.8906 C981.2656,312.1094 982.5156,310.7969 984.25,310.7969 C984.8281,310.7969 985.4375,310.9531 985.9063,311.2031 C986.3906,311.4844 986.5625,311.7031 986.6563,312.1094 C986.7188,312.5156 986.75,312.6406 986.8906,312.7656 C987.0313,312.9063 987.2656,313.0156 987.4844,313.0156 C987.75,313.0156 988.0156,312.875 988.1875,312.6563 C988.2969,312.5 988.3281,312.3125 988.3281,311.8906 L988.3281,310.4688 C988.3281,310.0313 988.3125,309.9063 988.2188,309.75 C988.0625,309.4844 987.7813,309.3438 987.4844,309.3438 C987.1875,309.3438 986.9844,309.4375 986.7656,309.75 L986.5938,309.6719 Z " fill="#000000"/><text fill="#000000" font-family="sans-serif" font-size="12" lengthAdjust="spacing" textLength="114" x="1004.75" y="318.1543">CodeChartsTutorial</text><line style="stroke:#A80036;stroke-width:1.5;" x1="928.5" x2="1162.5" y1="330" y2="330"/><rect fill="none" height="6" style="stroke:#C82930;stroke-width:1.0;" width="6" x="935.5" y="338"/><text fill="#000000" font-family="sans-serif" font-size="11" lengthAdjust="spacing" textLength="82" x="947.5" y="344.2104">t: TutorialType</text><ellipse cx="938.5" cy="370.6094" fill="#84BE84" rx="3" ry="3" style="stroke:#038048;stroke-width:1.0;"/><text fill="#000000" font-family="sans-serif" font-size="11" lengthAdjust="spacing" textLength="68" x="947.5" y="373.8198">start() : void</text><line style="stroke:#A80036;stroke-width:1.5;" x1="928.5" x2="1005" y1="357.207" y2="357.207"/><text fill="#000000" font-family="sans-serif" font-size="11" lengthAdjust="spacing" textLength="81" x="1005" y="360.5151">public method</text><line style="stroke:#A80036;stroke-width:1.5;" x1="1086" x2="1162.5" y1="357.207" y2="357.207"/><rect fill="#F24D5C" height="6" style="stroke:#C82930;stroke-width:1.0;" width="6" x="935.5" y="397.2188"/><text fill="#000000" font-family="sans-serif" font-size="11" lengthAdjust="spacing" textLength="151" x="947.5" y="403.4292">getConfigState() : boolean</text><rect fill="#F24D5C" height="6" style="stroke:#C82930;stroke-width:1.0;" width="6" x="935.5" y="410.0234"/><text fill="#000000" font-family="sans-serif" font-size="11" lengthAdjust="spacing" textLength="210" x="947.5" y="416.2339">setConfigState(state: boolean) : void</text><rect fill="#F24D5C" height="6" style="stroke:#C82930;stroke-width:1.0;" width="6" x="935.5" y="422.8281"/><text fill="#000000" font-family="sans-serif" font-size="11" lengthAdjust="spacing" textLength="94" x="947.5" y="429.0386">show() : boolean</text><line style="stroke:#A80036;stroke-width:1.5;" x1="928.5" x2="998.5" y1="386.8164" y2="386.8164"/><text fill="#000000" font-family="sans-serif" font-size="11" lengthAdjust="spacing" textLength="94" x="998.5" y="390.1245">private methods</text><line style="stroke:#A80036;stroke-width:1.5;" x1="1092.5" x2="1162.5" y1="386.8164" y2="386.8164"/><rect fill="#F24D5C" height="6" style="stroke:#C82930;stroke-width:1.0;" width="6" x="935.5" y="452.4375"/><text fill="#000000" font-family="sans-serif" font-size="11" font-style="italic" lengthAdjust="spacing" textLength="84" x="947.5" y="458.6479">tutorial() : void</text><line style="stroke:#A80036;stroke-width:1.5;" x1="928.5" x2="996" y1="442.0352" y2="442.0352"/><text fill="#000000" font-family="sans-serif" font-size="11" lengthAdjust="spacing" textLength="99" x="996" y="445.3433">abstract methods</text><line style="stroke:#A80036;stroke-width:1.5;" x1="1095" x2="1162.5" y1="442.0352" y2="442.0352"/><!--MD5=[d6943c12ae734dbe1975a5489f85ab8f]
class CodeChartsCoordinator--><rect codeLine="53" fill="#FEFECE" filter="url(#f1smq88zt0nedh)" height="176.0469" id="CodeChartsCoordinator" style="stroke:#A80036;stroke-width:1.5;" width="178" x="750.5" y="45"/><ellipse cx="767.75" cy="61" fill="#ADD1B2" rx="11" ry="11" style="stroke:#A80036;stroke-width:1.0;"/><path d="M770.0938,56.6719 C769.1563,56.2344 768.5625,56.0938 767.6875,56.0938 C765.0625,56.0938 763.0625,58.1719 763.0625,60.8906 L763.0625,62.0156 C763.0625,64.5938 765.1719,66.4844 768.0625,66.4844 C769.2813,66.4844 770.4375,66.1875 771.1875,65.6406 C771.7656,65.2344 772.0938,64.7813 772.0938,64.3906 C772.0938,63.9375 771.7031,63.5469 771.2344,63.5469 C771.0156,63.5469 770.8125,63.625 770.625,63.8125 C770.1719,64.2969 770.1719,64.2969 769.9844,64.3906 C769.5625,64.6563 768.875,64.7813 768.1094,64.7813 C766.0625,64.7813 764.7656,63.6875 764.7656,61.9844 L764.7656,60.8906 C764.7656,59.1094 766.0156,57.7969 767.75,57.7969 C768.3281,57.7969 768.9375,57.9531 769.4063,58.2031 C769.8906,58.4844 770.0625,58.7031 770.1563,59.1094 C770.2188,59.5156 770.25,59.6406 770.3906,59.7656 C770.5313,59.9063 770.7656,60.0156 770.9844,60.0156 C771.25,60.0156 771.5156,59.875 771.6875,59.6563 C771.7969,59.5 771.8281,59.3125 771.8281,58.8906 L771.8281,57.4688 C771.8281,57.0313 771.8125,56.9063 771.7188,56.75 C771.5625,56.4844 771.2813,56.3438 770.9844,56.3438 C770.6875,56.3438 770.4844,56.4375 770.2656,56.75 L770.0938,56.6719 Z " fill="#000000"/><text fill="#000000" font-family="sans-serif" font-size="12" lengthAdjust="spacing" textLength="141" x="782.25" y="65.1543">CodeChartsCoordinator</text><line style="stroke:#A80036;stroke-width:1.5;" x1="751.5" x2="927.5" y1="77" y2="77"/><rect fill="none" height="6" style="stroke:#C82930;stroke-width:1.0;" width="6" x="758.5" y="85"/><text fill="#000000" font-family="sans-serif" font-size="11" lengthAdjust="spacing" textLength="83" x="770.5" y="91.2104">speed: float[2]</text><rect fill="none" height="6" style="stroke:#C82930;stroke-width:1.0;" width="6" x="758.5" y="97.8047"/><text fill="#000000" font-family="sans-serif" font-size="11" lengthAdjust="spacing" textLength="104" x="770.5" y="104.0151">isTutorial: boolean</text><rect fill="none" height="6" style="stroke:#C82930;stroke-width:1.0;" width="6" x="758.5" y="110.6094"/><text fill="#000000" font-family="sans-serif" font-size="11" lengthAdjust="spacing" textLength="109" x="770.5" y="116.8198">isRelative: boolean</text><rect fill="none" height="6" style="stroke:#C82930;stroke-width:1.0;" width="6" x="758.5" y="123.4141"/><text fill="#000000" font-family="sans-serif" font-size="11" lengthAdjust="spacing" textLength="101" x="770.5" y="129.6245">dimensions: int[2]</text><rect fill="none" height="6" style="stroke:#C82930;stroke-width:1.0;" width="6" x="758.5" y="136.2188"/><text fill="#000000" font-family="sans-serif" font-size="11" lengthAdjust="spacing" textLength="91" x="770.5" y="142.4292">strings: String[..]</text><ellipse cx="761.5" cy="168.8281" fill="#84BE84" rx="3" ry="3" style="stroke:#038048;stroke-width:1.0;"/><text fill="#000000" font-family="sans-serif" font-size="11" lengthAdjust="spacing" textLength="134" x="770.5" y="172.0386">startCodeCharts() : void</text><line style="stroke:#A80036;stroke-width:1.5;" x1="751.5" x2="799" y1="155.4258" y2="155.4258"/><text fill="#000000" font-family="sans-serif" font-size="11" lengthAdjust="spacing" textLength="81" x="799" y="158.7339">public method</text><line style="stroke:#A80036;stroke-width:1.5;" x1="880" x2="927.5" y1="155.4258" y2="155.4258"/><rect fill="#F24D5C" height="6" style="stroke:#C82930;stroke-width:1.0;" width="6" x="758.5" y="195.4375"/><text fill="#000000" font-family="sans-serif" font-size="11" lengthAdjust="spacing" textLength="152" x="770.5" y="201.6479">loadConfigData() : boolean</text><rect fill="#F24D5C" height="6" style="stroke:#C82930;stroke-width:1.0;" width="6" x="758.5" y="208.2422"/><text fill="#000000" font-family="sans-serif" font-size="11" lengthAdjust="spacing" textLength="100" x="770.5" y="214.4526">tryTutorial() : void</text><line style="stroke:#A80036;stroke-width:1.5;" x1="751.5" x2="792.5" y1="185.0352" y2="185.0352"/><text fill="#000000" font-family="sans-serif" font-size="11" lengthAdjust="spacing" textLength="94" x="792.5" y="188.3433">private methods</text><line style="stroke:#A80036;stroke-width:1.5;" x1="886.5" x2="927.5" y1="185.0352" y2="185.0352"/><!--MD5=[716079bcf736c8b229d38dedc298d2f0]
class CodeChartsInternerSpeicher--><rect codeLine="67" fill="#FEFECE" filter="url(#f1smq88zt0nedh)" height="95.2188" id="CodeChartsInternerSpeicher" style="stroke:#A80036;stroke-width:1.5;" width="333" x="640" y="808"/><ellipse cx="716.75" cy="824" fill="#ADD1B2" rx="11" ry="11" style="stroke:#A80036;stroke-width:1.0;"/><path d="M719.0938,819.6719 C718.1563,819.2344 717.5625,819.0938 716.6875,819.0938 C714.0625,819.0938 712.0625,821.1719 712.0625,823.8906 L712.0625,825.0156 C712.0625,827.5938 714.1719,829.4844 717.0625,829.4844 C718.2813,829.4844 719.4375,829.1875 720.1875,828.6406 C720.7656,828.2344 721.0938,827.7813 721.0938,827.3906 C721.0938,826.9375 720.7031,826.5469 720.2344,826.5469 C720.0156,826.5469 719.8125,826.625 719.625,826.8125 C719.1719,827.2969 719.1719,827.2969 718.9844,827.3906 C718.5625,827.6563 717.875,827.7813 717.1094,827.7813 C715.0625,827.7813 713.7656,826.6875 713.7656,824.9844 L713.7656,823.8906 C713.7656,822.1094 715.0156,820.7969 716.75,820.7969 C717.3281,820.7969 717.9375,820.9531 718.4063,821.2031 C718.8906,821.4844 719.0625,821.7031 719.1563,822.1094 C719.2188,822.5156 719.25,822.6406 719.3906,822.7656 C719.5313,822.9063 719.7656,823.0156 719.9844,823.0156 C720.25,823.0156 720.5156,822.875 720.6875,822.6563 C720.7969,822.5 720.8281,822.3125 720.8281,821.8906 L720.8281,820.4688 C720.8281,820.0313 720.8125,819.9063 720.7188,819.75 C720.5625,819.4844 720.2813,819.3438 719.9844,819.3438 C719.6875,819.3438 719.4844,819.4375 719.2656,819.75 L719.0938,819.6719 Z " fill="#000000"/><text fill="#000000" font-family="sans-serif" font-size="12" lengthAdjust="spacing" textLength="171" x="737.25" y="828.1543">CodeChartsInternerSpeicher</text><line style="stroke:#A80036;stroke-width:1.5;" x1="641" x2="972" y1="840" y2="840"/><ellipse cx="651" cy="867.8047" fill="#84BE84" rx="3" ry="3" style="stroke:#038048;stroke-width:1.0;"/><text fill="#000000" font-family="sans-serif" font-size="11" lengthAdjust="spacing" textLength="133" x="660" y="871.0151">addPic(url: String) : void</text><ellipse cx="651" cy="880.6094" fill="#84BE84" rx="3" ry="3" style="stroke:#038048;stroke-width:1.0;"/><text fill="#000000" font-family="sans-serif" font-size="11" lengthAdjust="spacing" textLength="307" x="660" y="883.8198">addSizeAndCord(size: int[2], coordinates: int[2]) : void</text><ellipse cx="651" cy="893.4141" fill="#84BE84" rx="3" ry="3" style="stroke:#038048;stroke-width:1.0;"/><text fill="#000000" font-family="sans-serif" font-size="11" lengthAdjust="spacing" textLength="120" x="660" y="896.6245">saveData() : boolean</text><line style="stroke:#A80036;stroke-width:1.5;" x1="641" x2="766" y1="854.4023" y2="854.4023"/><text fill="#000000" font-family="sans-serif" font-size="11" lengthAdjust="spacing" textLength="81" x="766" y="857.7104">public method</text><line style="stroke:#A80036;stroke-width:1.5;" x1="847" x2="972" y1="854.4023" y2="854.4023"/><!--MD5=[48cc74a7e7e460afd8863a3fcc09bdcb]
class CodeChartsBild--><rect codeLine="75" fill="#FEFECE" filter="url(#f1smq88zt0nedh)" height="73.6094" id="CodeChartsBild" style="stroke:#A80036;stroke-width:1.5;" width="147" x="187" y="344.5"/><ellipse cx="212.35" cy="360.5" fill="#ADD1B2" rx="11" ry="11" style="stroke:#A80036;stroke-width:1.0;"/><path d="M214.6938,356.1719 C213.7563,355.7344 213.1625,355.5938 212.2875,355.5938 C209.6625,355.5938 207.6625,357.6719 207.6625,360.3906 L207.6625,361.5156 C207.6625,364.0938 209.7719,365.9844 212.6625,365.9844 C213.8813,365.9844 215.0375,365.6875 215.7875,365.1406 C216.3656,364.7344 216.6938,364.2813 216.6938,363.8906 C216.6938,363.4375 216.3031,363.0469 215.8344,363.0469 C215.6156,363.0469 215.4125,363.125 215.225,363.3125 C214.7719,363.7969 214.7719,363.7969 214.5844,363.8906 C214.1625,364.1563 213.475,364.2813 212.7094,364.2813 C210.6625,364.2813 209.3656,363.1875 209.3656,361.4844 L209.3656,360.3906 C209.3656,358.6094 210.6156,357.2969 212.35,357.2969 C212.9281,357.2969 213.5375,357.4531 214.0063,357.7031 C214.4906,357.9844 214.6625,358.2031 214.7563,358.6094 C214.8188,359.0156 214.85,359.1406 214.9906,359.2656 C215.1313,359.4063 215.3656,359.5156 215.5844,359.5156 C215.85,359.5156 216.1156,359.375 216.2875,359.1563 C216.3969,359 216.4281,358.8125 216.4281,358.3906 L216.4281,356.9688 C216.4281,356.5313 216.4125,356.4063 216.3188,356.25 C216.1625,355.9844 215.8813,355.8438 215.5844,355.8438 C215.2875,355.8438 215.0844,355.9375 214.8656,356.25 L214.6938,356.1719 Z " fill="#000000"/><text fill="#000000" font-family="sans-serif" font-size="12" lengthAdjust="spacing" textLength="92" x="228.65" y="364.6543">CodeChartsBild</text><line style="stroke:#A80036;stroke-width:1.5;" x1="188" x2="333" y1="376.5" y2="376.5"/><line style="stroke:#A80036;stroke-width:1.5;" x1="188" x2="333" y1="384.5" y2="384.5"/><ellipse cx="198" cy="395.5" fill="#84BE84" rx="3" ry="3" style="stroke:#038048;stroke-width:1.0;"/><text fill="#000000" font-family="sans-serif" font-size="11" lengthAdjust="spacing" textLength="121" x="207" y="398.7104">load(url: String) : void</text><ellipse cx="198" cy="408.3047" fill="#84BE84" rx="3" ry="3" style="stroke:#038048;stroke-width:1.0;"/><text fill="#000000" font-family="sans-serif" font-size="11" lengthAdjust="spacing" textLength="72" x="207" y="411.5151">show() : void</text><!--MD5=[b9640045e029ffef06c931bcc3e11d89]
class CodeChartsRaster--><rect codeLine="81" fill="#FEFECE" filter="url(#f1smq88zt0nedh)" height="184.8516" id="CodeChartsRaster" style="stroke:#A80036;stroke-width:1.5;" width="309" x="542" y="542"/><ellipse cx="638.25" cy="558" fill="#ADD1B2" rx="11" ry="11" style="stroke:#A80036;stroke-width:1.0;"/><path d="M640.5938,553.6719 C639.6563,553.2344 639.0625,553.0938 638.1875,553.0938 C635.5625,553.0938 633.5625,555.1719 633.5625,557.8906 L633.5625,559.0156 C633.5625,561.5938 635.6719,563.4844 638.5625,563.4844 C639.7813,563.4844 640.9375,563.1875 641.6875,562.6406 C642.2656,562.2344 642.5938,561.7813 642.5938,561.3906 C642.5938,560.9375 642.2031,560.5469 641.7344,560.5469 C641.5156,560.5469 641.3125,560.625 641.125,560.8125 C640.6719,561.2969 640.6719,561.2969 640.4844,561.3906 C640.0625,561.6563 639.375,561.7813 638.6094,561.7813 C636.5625,561.7813 635.2656,560.6875 635.2656,558.9844 L635.2656,557.8906 C635.2656,556.1094 636.5156,554.7969 638.25,554.7969 C638.8281,554.7969 639.4375,554.9531 639.9063,555.2031 C640.3906,555.4844 640.5625,555.7031 640.6563,556.1094 C640.7188,556.5156 640.75,556.6406 640.8906,556.7656 C641.0313,556.9063 641.2656,557.0156 641.4844,557.0156 C641.75,557.0156 642.0156,556.875 642.1875,556.6563 C642.2969,556.5 642.3281,556.3125 642.3281,555.8906 L642.3281,554.4688 C642.3281,554.0313 642.3125,553.9063 642.2188,553.75 C642.0625,553.4844 641.7813,553.3438 641.4844,553.3438 C641.1875,553.3438 640.9844,553.4375 640.7656,553.75 L640.5938,553.6719 Z " fill="#000000"/><text fill="#000000" font-family="sans-serif" font-size="12" lengthAdjust="spacing" textLength="108" x="658.75" y="562.1543">CodeChartsRaster</text><line style="stroke:#A80036;stroke-width:1.5;" x1="543" x2="850" y1="574" y2="574"/><rect fill="none" height="6" style="stroke:#C82930;stroke-width:1.0;" width="6" x="550" y="582"/><text fill="#000000" font-family="sans-serif" font-size="11" lengthAdjust="spacing" textLength="101" x="562" y="588.2104">dimensions: int[2]</text><rect fill="none" height="6" style="stroke:#C82930;stroke-width:1.0;" width="6" x="550" y="594.8047"/><text fill="#000000" font-family="sans-serif" font-size="11" lengthAdjust="spacing" textLength="91" x="562" y="601.0151">strings: String[..]</text><rect fill="none" height="6" style="stroke:#C82930;stroke-width:1.0;" width="6" x="550" y="607.6094"/><text fill="#000000" font-family="sans-serif" font-size="11" lengthAdjust="spacing" textLength="73" x="562" y="613.8198">coords: int[2]</text><text fill="#000000" font-family="sans-serif" font-size="11" lengthAdjust="spacing" textLength="105" x="562" y="626.6245">__public method__</text><ellipse cx="553" cy="636.2188" fill="#84BE84" rx="3" ry="3" style="stroke:#038048;stroke-width:1.0;"/><text fill="#000000" font-family="sans-serif" font-size="11" lengthAdjust="spacing" textLength="153" x="562" y="639.4292">setInput(input: String): void</text><ellipse cx="553" cy="649.0234" fill="#84BE84" rx="3" ry="3" style="stroke:#038048;stroke-width:1.0;"/><text fill="#000000" font-family="sans-serif" font-size="11" lengthAdjust="spacing" textLength="283" x="562" y="652.2339">setData(dimensions: int[2], strings: String[..]): void</text><ellipse cx="553" cy="661.8281" fill="#84BE84" rx="3" ry="3" style="stroke:#038048;stroke-width:1.0;"/><text fill="#000000" font-family="sans-serif" font-size="11" lengthAdjust="spacing" textLength="72" x="562" y="665.0386">show() : void</text><ellipse cx="553" cy="674.6328" fill="#84BE84" rx="3" ry="3" style="stroke:#038048;stroke-width:1.0;"/><text fill="#000000" font-family="sans-serif" font-size="11" lengthAdjust="spacing" textLength="94" x="562" y="677.8433">calculate() : void</text><rect fill="#F24D5C" height="6" style="stroke:#C82930;stroke-width:1.0;" width="6" x="550" y="701.2422"/><text fill="#000000" font-family="sans-serif" font-size="11" lengthAdjust="spacing" textLength="117" x="562" y="707.4526">loadPastRuns() : void</text><rect fill="#F24D5C" height="6" style="stroke:#C82930;stroke-width:1.0;" width="6" x="550" y="714.0469"/><text fill="#000000" font-family="sans-serif" font-size="11" lengthAdjust="spacing" textLength="98" x="562" y="720.2573">sendData() : void</text><line style="stroke:#A80036;stroke-width:1.5;" x1="543" x2="649.5" y1="690.8398" y2="690.8398"/><text fill="#000000" font-family="sans-serif" font-size="11" lengthAdjust="spacing" textLength="94" x="649.5" y="694.1479">private methods</text><line style="stroke:#A80036;stroke-width:1.5;" x1="743.5" x2="850" y1="690.8398" y2="690.8398"/><!--MD5=[a7f545f13df25b09c4dd936da65dfdd1]
class CodeChartsEingabefenster--><rect codeLine="97" fill="#FEFECE" filter="url(#f1smq88zt0nedh)" height="124.8281" id="CodeChartsEingabefenster" style="stroke:#A80036;stroke-width:1.5;" width="234" x="621.5" y="319"/><ellipse cx="654.95" cy="335" fill="#ADD1B2" rx="11" ry="11" style="stroke:#A80036;stroke-width:1.0;"/><path d="M657.2938,330.6719 C656.3563,330.2344 655.7625,330.0938 654.8875,330.0938 C652.2625,330.0938 650.2625,332.1719 650.2625,334.8906 L650.2625,336.0156 C650.2625,338.5938 652.3719,340.4844 655.2625,340.4844 C656.4813,340.4844 657.6375,340.1875 658.3875,339.6406 C658.9656,339.2344 659.2938,338.7813 659.2938,338.3906 C659.2938,337.9375 658.9031,337.5469 658.4344,337.5469 C658.2156,337.5469 658.0125,337.625 657.825,337.8125 C657.3719,338.2969 657.3719,338.2969 657.1844,338.3906 C656.7625,338.6563 656.075,338.7813 655.3094,338.7813 C653.2625,338.7813 651.9656,337.6875 651.9656,335.9844 L651.9656,334.8906 C651.9656,333.1094 653.2156,331.7969 654.95,331.7969 C655.5281,331.7969 656.1375,331.9531 656.6063,332.2031 C657.0906,332.4844 657.2625,332.7031 657.3563,333.1094 C657.4188,333.5156 657.45,333.6406 657.5906,333.7656 C657.7313,333.9063 657.9656,334.0156 658.1844,334.0156 C658.45,334.0156 658.7156,333.875 658.8875,333.6563 C658.9969,333.5 659.0281,333.3125 659.0281,332.8906 L659.0281,331.4688 C659.0281,331.0313 659.0125,330.9063 658.9188,330.75 C658.7625,330.4844 658.4813,330.3438 658.1844,330.3438 C657.8875,330.3438 657.6844,330.4375 657.4656,330.75 L657.2938,330.6719 Z " fill="#000000"/><text fill="#000000" font-family="sans-serif" font-size="12" lengthAdjust="spacing" textLength="161" x="673.05" y="339.1543">CodeChartsEingabefenster</text><line style="stroke:#A80036;stroke-width:1.5;" x1="622.5" x2="854.5" y1="351" y2="351"/><ellipse cx="632.5" cy="378.8047" fill="#84BE84" rx="3" ry="3" style="stroke:#038048;stroke-width:1.0;"/><text fill="#000000" font-family="sans-serif" font-size="11" lengthAdjust="spacing" textLength="81" x="641.5" y="382.0151">show() : String</text><line style="stroke:#A80036;stroke-width:1.5;" x1="622.5" x2="698" y1="365.4023" y2="365.4023"/><text fill="#000000" font-family="sans-serif" font-size="11" lengthAdjust="spacing" textLength="81" x="698" y="368.7104">public method</text><line style="stroke:#A80036;stroke-width:1.5;" x1="779" x2="854.5" y1="365.4023" y2="365.4023"/><rect fill="#F24D5C" height="6" style="stroke:#C82930;stroke-width:1.0;" width="6" x="629.5" y="405.4141"/><text fill="#000000" font-family="sans-serif" font-size="11" lengthAdjust="spacing" textLength="135" x="641.5" y="411.6245">checkButton() : boolean</text><rect fill="#F24D5C" height="6" style="stroke:#C82930;stroke-width:1.0;" width="6" x="629.5" y="418.2188"/><text fill="#000000" font-family="sans-serif" font-size="11" lengthAdjust="spacing" textLength="208" x="641.5" y="424.4292">validateString(input: String): boolean</text><rect fill="#F24D5C" height="6" style="stroke:#C82930;stroke-width:1.0;" width="6" x="629.5" y="431.0234"/><text fill="#000000" font-family="sans-serif" font-size="11" lengthAdjust="spacing" textLength="120" x="641.5" y="437.2339">ErrorMessage() : void</text><line style="stroke:#A80036;stroke-width:1.5;" x1="622.5" x2="691.5" y1="395.0117" y2="395.0117"/><text fill="#000000" font-family="sans-serif" font-size="11" lengthAdjust="spacing" textLength="94" x="691.5" y="398.3198">private methods</text><line style="stroke:#A80036;stroke-width:1.5;" x1="785.5" x2="854.5" y1="395.0117" y2="395.0117"/><polygon fill="#FFFFFF" filter="url(#f1smq88zt0nedh)" points="1208.5,355,1266.5,355,1273.5,377.2969,1280.5,377.2969,1280.5,407.5938,1208.5,407.5938,1208.5,355" style="stroke:#000000;stroke-width:1.5;"/><line style="stroke:#000000;stroke-width:1.5;" x1="1208.5" x2="1273.5" y1="377.2969" y2="377.2969"/><text fill="#000000" font-family="sans-serif" font-size="14" font-weight="bold" lengthAdjust="spacing" textLength="52" x="1212.5" y="369.9951">Config</text><polygon fill="#FFFFFF" filter="url(#f1smq88zt0nedh)" points="731.5,985,869.5,985,876.5,1007.2969,883.5,1007.2969,883.5,1037.5938,731.5,1037.5938,731.5,985" style="stroke:#000000;stroke-width:1.5;"/><line style="stroke:#000000;stroke-width:1.5;" x1="731.5" x2="876.5" y1="1007.2969" y2="1007.2969"/><text fill="#000000" font-family="sans-serif" font-size="14" font-weight="bold" lengthAdjust="spacing" textLength="132" x="735.5" y="999.9951">SpeicherMedium</text><!--MD5=[fccc419d627b37790932ddb688fb7ad6]
class Tutorial--><rect codeLine="6" fill="#FEFECE" filter="url(#f1smq88zt0nedh)" height="167.2422" id="Tutorial" style="stroke:#A80036;stroke-width:1.5;" width="236" x="1344.5" y="48"/><ellipse cx="1390.25" cy="64" fill="#A9DCDF" rx="11" ry="11" style="stroke:#A80036;stroke-width:1.0;"/><path d="M1392.3281,65.8125 L1392.7188,66.7969 L1392.3281,66.7969 C1391.875,66.7969 1391.7656,66.8125 1391.6094,66.9219 C1391.3594,67.0781 1391.2031,67.3594 1391.2031,67.6563 C1391.2031,67.9219 1391.3438,68.1719 1391.5625,68.3281 C1391.7031,68.4531 1391.9063,68.5 1392.3281,68.5 L1394.6875,68.5 C1395.0469,68.5 1395.2656,68.4688 1395.4063,68.375 C1395.6563,68.2344 1395.8125,67.9375 1395.8125,67.6563 C1395.8125,67.375 1395.6719,67.125 1395.4531,66.9688 C1395.2813,66.8281 1395.125,66.7969 1394.6563,66.7969 L1391.2656,58.5938 L1387.5938,58.5938 C1387.1406,58.5938 1387.0156,58.6094 1386.8594,58.7031 C1386.6094,58.875 1386.4531,59.1563 1386.4531,59.4375 C1386.4531,59.7188 1386.5938,59.9688 1386.8125,60.1406 C1386.9844,60.25 1387.1563,60.2813 1387.5938,60.2813 L1388.6719,60.2813 L1386.0313,66.7969 C1385.6094,66.7969 1385.4531,66.8125 1385.2969,66.9219 C1385.0469,67.0781 1384.8906,67.3594 1384.8906,67.6563 C1384.8906,68.2188 1385.2656,68.5 1386.0156,68.5 L1388.2813,68.5 C1388.6406,68.5 1388.8594,68.4688 1388.9844,68.375 C1389.25,68.2344 1389.3906,67.9375 1389.3906,67.6563 C1389.3906,67.375 1389.2656,67.125 1389.0469,66.9531 C1388.875,66.8281 1388.7344,66.7969 1388.2813,66.7969 L1387.8906,66.7969 L1388.2813,65.8125 L1392.3281,65.8125 Z M1391.625,64.1094 L1388.9531,64.1094 L1390.2969,60.8438 L1391.625,64.1094 Z " fill="#000000"/><text fill="#000000" font-family="sans-serif" font-size="12" font-style="italic" lengthAdjust="spacing" textLength="45" x="1410.75" y="68.1543">Tutorial</text><rect fill="#FFFFFF" height="15.9688" style="stroke:#000000;stroke-width:1.0;stroke-dasharray:2.0,2.0;" width="89" x="1494.5" y="45"/><text fill="#000000" font-family="sans-serif" font-size="12" font-style="italic" lengthAdjust="spacing" textLength="87" x="1495.5" y="57.1387">t: TutorialType</text><line style="stroke:#A80036;stroke-width:1.5;" x1="1345.5" x2="1579.5" y1="80" y2="80"/><rect fill="none" height="6" style="stroke:#C82930;stroke-width:1.0;" width="6" x="1352.5" y="88"/><text fill="#000000" font-family="sans-serif" font-size="11" lengthAdjust="spacing" textLength="82" x="1364.5" y="94.2104">t: TutorialType</text><ellipse cx="1355.5" cy="120.6094" fill="#84BE84" rx="3" ry="3" style="stroke:#038048;stroke-width:1.0;"/><text fill="#000000" font-family="sans-serif" font-size="11" lengthAdjust="spacing" textLength="68" x="1364.5" y="123.8198">start() : void</text><line style="stroke:#A80036;stroke-width:1.5;" x1="1345.5" x2="1422" y1="107.207" y2="107.207"/><text fill="#000000" font-family="sans-serif" font-size="11" lengthAdjust="spacing" textLength="81" x="1422" y="110.5151">public method</text><line style="stroke:#A80036;stroke-width:1.5;" x1="1503" x2="1579.5" y1="107.207" y2="107.207"/><rect fill="#F24D5C" height="6" style="stroke:#C82930;stroke-width:1.0;" width="6" x="1352.5" y="147.2188"/><text fill="#000000" font-family="sans-serif" font-size="11" lengthAdjust="spacing" textLength="151" x="1364.5" y="153.4292">getConfigState() : boolean</text><rect fill="#F24D5C" height="6" style="stroke:#C82930;stroke-width:1.0;" width="6" x="1352.5" y="160.0234"/><text fill="#000000" font-family="sans-serif" font-size="11" lengthAdjust="spacing" textLength="210" x="1364.5" y="166.2339">setConfigState(state: boolean) : void</text><rect fill="#F24D5C" height="6" style="stroke:#C82930;stroke-width:1.0;" width="6" x="1352.5" y="172.8281"/><text fill="#000000" font-family="sans-serif" font-size="11" lengthAdjust="spacing" textLength="94" x="1364.5" y="179.0386">show() : boolean</text><line style="stroke:#A80036;stroke-width:1.5;" x1="1345.5" x2="1415.5" y1="136.8164" y2="136.8164"/><text fill="#000000" font-family="sans-serif" font-size="11" lengthAdjust="spacing" textLength="94" x="1415.5" y="140.1245">private methods</text><line style="stroke:#A80036;stroke-width:1.5;" x1="1509.5" x2="1579.5" y1="136.8164" y2="136.8164"/><rect fill="#F24D5C" height="6" style="stroke:#C82930;stroke-width:1.0;" width="6" x="1352.5" y="202.4375"/><text fill="#000000" font-family="sans-serif" font-size="11" font-style="italic" lengthAdjust="spacing" textLength="84" x="1364.5" y="208.6479">tutorial() : void</text><line style="stroke:#A80036;stroke-width:1.5;" x1="1345.5" x2="1413" y1="192.0352" y2="192.0352"/><text fill="#000000" font-family="sans-serif" font-size="11" lengthAdjust="spacing" textLength="99" x="1413" y="195.3433">abstract methods</text><line style="stroke:#A80036;stroke-width:1.5;" x1="1512" x2="1579.5" y1="192.0352" y2="192.0352"/><!--MD5=[b51717a605764d924c74fe29f3a07c77]
class TutorialType--><rect codeLine="18" fill="#FEFECE" filter="url(#f1smq88zt0nedh)" height="86.4141" id="TutorialType" style="stroke:#A80036;stroke-width:1.5;" width="106" x="1195.5" y="88"/><ellipse cx="1210.5" cy="104" fill="#EB937F" rx="11" ry="11" style="stroke:#A80036;stroke-width:1.0;"/><path d="M1209.2969,104.875 L1210.75,104.875 L1210.75,104.9844 C1210.75,105.3906 1210.7813,105.5469 1210.8594,105.7031 C1211.0156,105.9531 1211.2969,106.1094 1211.5938,106.1094 C1211.8438,106.1094 1212.1094,105.9688 1212.2656,105.75 C1212.3906,105.5938 1212.4219,105.4375 1212.4219,104.9844 L1212.4219,103.0625 C1212.4219,102.9063 1212.4219,102.8594 1212.4063,102.7031 C1212.3438,102.2344 1212.0313,101.9219 1211.5781,101.9219 C1211.3281,101.9219 1211.0625,102.0625 1210.8906,102.2813 C1210.7813,102.4531 1210.75,102.6094 1210.75,103.0625 L1210.75,103.1875 L1209.2969,103.1875 L1209.2969,100.7813 L1213.2813,100.7813 L1213.2813,101.6406 C1213.2813,102.0469 1213.3125,102.2188 1213.3906,102.375 C1213.5625,102.625 1213.8438,102.7813 1214.125,102.7813 C1214.3906,102.7813 1214.6563,102.6406 1214.8281,102.4219 C1214.9375,102.25 1214.9688,102.1094 1214.9688,101.6406 L1214.9688,99.0938 L1207.3438,99.0938 C1206.9063,99.0938 1206.7813,99.1094 1206.625,99.2031 C1206.375,99.3594 1206.2188,99.6563 1206.2188,99.9375 C1206.2188,100.2188 1206.3594,100.4688 1206.5781,100.6406 C1206.7344,100.75 1206.9219,100.7813 1207.3438,100.7813 L1207.5938,100.7813 L1207.5938,107.2969 L1207.3438,107.2969 C1206.9375,107.2969 1206.7813,107.3125 1206.625,107.4219 C1206.375,107.5938 1206.2188,107.8594 1206.2188,108.1563 C1206.2188,108.4219 1206.3594,108.6719 1206.5781,108.8281 C1206.7188,108.9531 1206.9531,109 1207.3438,109 L1215.3438,109 L1215.3438,106.4219 C1215.3438,105.9844 1215.3125,105.8438 1215.2344,105.6875 C1215.0625,105.4375 1214.7813,105.2813 1214.5,105.2813 C1214.2344,105.2813 1213.9688,105.3906 1213.7969,105.6406 C1213.6875,105.7969 1213.6563,105.9375 1213.6563,106.4219 L1213.6563,107.2969 L1209.2969,107.2969 L1209.2969,104.875 Z " fill="#000000"/><text fill="#000000" font-family="sans-serif" font-size="12" lengthAdjust="spacing" textLength="74" x="1224.5" y="108.1543">TutorialType</text><line style="stroke:#A80036;stroke-width:1.5;" x1="1196.5" x2="1300.5" y1="120" y2="120"/><text fill="#000000" font-family="sans-serif" font-size="11" lengthAdjust="spacing" textLength="35" x="1201.5" y="134.2104">ZOOM</text><text fill="#000000" font-family="sans-serif" font-size="11" lengthAdjust="spacing" textLength="78" x="1201.5" y="147.0151">EYETRACKING</text><text fill="#000000" font-family="sans-serif" font-size="11" lengthAdjust="spacing" textLength="79" x="1201.5" y="159.8198">CODECHARTS</text><line style="stroke:#A80036;stroke-width:1.5;" x1="1196.5" x2="1300.5" y1="166.4141" y2="166.4141"/><!--MD5=[626b00d2609f42ba755c8afb6d5f2b59]
class Bild--><rect codeLine="31" fill="#FEFECE" filter="url(#f1smq88zt0nedh)" height="73.6094" id="Bild" style="stroke:#A80036;stroke-width:1.5;" width="147" x="7" y="94"/><ellipse cx="65.25" cy="110" fill="#A9DCDF" rx="11" ry="11" style="stroke:#A80036;stroke-width:1.0;"/><path d="M67.3281,111.8125 L67.7188,112.7969 L67.3281,112.7969 C66.875,112.7969 66.7656,112.8125 66.6094,112.9219 C66.3594,113.0781 66.2031,113.3594 66.2031,113.6563 C66.2031,113.9219 66.3438,114.1719 66.5625,114.3281 C66.7031,114.4531 66.9063,114.5 67.3281,114.5 L69.6875,114.5 C70.0469,114.5 70.2656,114.4688 70.4063,114.375 C70.6563,114.2344 70.8125,113.9375 70.8125,113.6563 C70.8125,113.375 70.6719,113.125 70.4531,112.9688 C70.2813,112.8281 70.125,112.7969 69.6563,112.7969 L66.2656,104.5938 L62.5938,104.5938 C62.1406,104.5938 62.0156,104.6094 61.8594,104.7031 C61.6094,104.875 61.4531,105.1563 61.4531,105.4375 C61.4531,105.7188 61.5938,105.9688 61.8125,106.1406 C61.9844,106.25 62.1563,106.2813 62.5938,106.2813 L63.6719,106.2813 L61.0313,112.7969 C60.6094,112.7969 60.4531,112.8125 60.2969,112.9219 C60.0469,113.0781 59.8906,113.3594 59.8906,113.6563 C59.8906,114.2188 60.2656,114.5 61.0156,114.5 L63.2813,114.5 C63.6406,114.5 63.8594,114.4688 63.9844,114.375 C64.25,114.2344 64.3906,113.9375 64.3906,113.6563 C64.3906,113.375 64.2656,113.125 64.0469,112.9531 C63.875,112.8281 63.7344,112.7969 63.2813,112.7969 L62.8906,112.7969 L63.2813,111.8125 L67.3281,111.8125 Z M66.625,110.1094 L63.9531,110.1094 L65.2969,106.8438 L66.625,110.1094 Z " fill="#000000"/><text fill="#000000" font-family="sans-serif" font-size="12" font-style="italic" lengthAdjust="spacing" textLength="22" x="85.75" y="114.1543">Bild</text><line style="stroke:#A80036;stroke-width:1.5;" x1="8" x2="153" y1="126" y2="126"/><line style="stroke:#A80036;stroke-width:1.5;" x1="8" x2="153" y1="134" y2="134"/><ellipse cx="18" cy="145" fill="#84BE84" rx="3" ry="3" style="stroke:#038048;stroke-width:1.0;"/><text fill="#000000" font-family="sans-serif" font-size="11" lengthAdjust="spacing" textLength="121" x="27" y="148.2104">load(url: String) : void</text><ellipse cx="18" cy="157.8047" fill="#84BE84" rx="3" ry="3" style="stroke:#038048;stroke-width:1.0;"/><text fill="#000000" font-family="sans-serif" font-size="11" lengthAdjust="spacing" textLength="72" x="27" y="161.0151">show() : void</text><!--MD5=[9bdf74ba08b45b42d4b5e25d73cb2a49]
link TutorialType to Tutorial--><path codeLine="25" d="M1301.5,99.509 C1311.63,95.294 1322.52,91.959 1333.46,90.628 " fill="none" id="TutorialType-Tutorial" style="stroke:#A80036;stroke-width:1.0;"/><line style="stroke:#A80036;stroke-width:1.0;" x1="1333.46" x2="1343.5" y1="90.628" y2="90"/><!--MD5=[fc4ffdc4bb2ac5a3cd1bd4c856213de4]
link Tutorial to Config--><path codeLine="26" d="M1386.87,218.216 C1344.69,266.298 1295.13,322.79 1267.01,354.845 " fill="none" id="Tutorial-Config" style="stroke:#A80036;stroke-width:1.0;"/><!--MD5=[c900c8497a661fa4184b5bb04c49372f]
reverse link Bild to CodeChartsBild--><path codeLine="107" d="M118.318,184.623 C136.486,209.866 158.588,240.525 178.5,268 C197.009,293.539 217.956,322.274 234.046,344.311 " fill="none" id="Bild-backto-CodeChartsBild" style="stroke:#A80036;stroke-width:1.0;"/><polygon fill="none" points="112.442,188.441,106.4448,168.118,123.807,180.265,112.442,188.441" style="stroke:#A80036;stroke-width:1.0;"/><!--MD5=[1e1b7046ac2ce77f5695cfbd942bbe9e]
reverse link Tutorial to CodeChartsTutorial--><path codeLine="108" d="M1331.19,229.191 C1310.06,243.042 1288.04,256.476 1266.5,268 C1234.48,285.131 1223.25,282.315 1190.5,298 C1181.75,302.191 1172.81,306.698 1163.87,311.366 " fill="none" id="Tutorial-backto-CodeChartsTutorial" style="stroke:#A80036;stroke-width:1.0;"/><polygon fill="none" points="1327.4,223.303,1347.92,218.022,1335.18,234.948,1327.4,223.303" style="stroke:#A80036;stroke-width:1.0;"/><!--MD5=[330c08158d1b261bc3f75486c3c78546]
link CodeChartsCoordinator to CodeChartsBild--><path codeLine="111" d="M742.413,136.051 C584.703,144.893 283.848,171.941 218.5,251 C196.44,277.689 213.383,316.241 231.913,344.339 " fill="none" id="CodeChartsCoordinator-CodeChartsBild" style="stroke:#A80036;stroke-width:1.0;"/><polygon fill="#000000" points="218.8705,261.4553,228.3556,260.7594,226.1351,255.3171,218.8705,261.4553" style="stroke:#000000;stroke-width:1.0;"/><text fill="#000000" font-family="sans-serif" font-size="13" lengthAdjust="spacing" textLength="167" x="232.5" y="264.0669">send initial data and show</text><!--MD5=[af7fa7eefc847a19c654188e611c6a01]
link CodeChartsCoordinator to CodeChartsRaster--><path codeLine="112" d="M742.388,140.114 C642.899,154.192 492.984,192.697 421.5,298 C379.813,359.409 385.232,400.242 421.5,465 C448.245,512.753 494.66,548.606 541.825,574.684 " fill="none" id="CodeChartsCoordinator-CodeChartsRaster" style="stroke:#A80036;stroke-width:1.0;"/><polygon fill="#000000" points="424.4048,386.1062,430.8635,379.1252,425.5266,376.6621,424.4048,386.1062" style="stroke:#000000;stroke-width:1.0;"/><text fill="#000000" font-family="sans-serif" font-size="13" lengthAdjust="spacing" textLength="167" x="435.5" y="386.0669">send initial data and show</text><!--MD5=[acd6e22bd1b43ca41d1e169d29f8f975]
link CodeChartsCoordinator to CodeChartsEingabefenster--><path codeLine="113" d="M749.5,167 C688.26,167 701.393,255.692 718.467,318.747 " fill="none" id="CodeChartsCoordinator-CodeChartsEingabefenster" style="stroke:#A80036;stroke-width:1.0;"/><polygon fill="#000000" points="711.4982,264.465,716.1898,256.1922,710.4311,255.0145,711.4982,264.465" style="stroke:#000000;stroke-width:1.0;"/><text fill="#000000" font-family="sans-serif" font-size="13" lengthAdjust="spacing" textLength="34" x="721.5" y="264.0669">show</text><!--MD5=[352d2a78a40821fe66095c41811c6ec4]
link CodeChartsCoordinator to CodeChartsInternerSpeicher--><path codeLine="114" d="M929.5,195 C941.064,195 930.116,209.549 928.5,221 C923.575,255.903 915.415,263.251 909.5,298 C877.36,486.82 889.741,536.646 868.5,727 C866.165,747.929 870.092,754.358 862.5,774 C858.588,784.121 853.132,794.181 847.149,803.578 " fill="none" id="CodeChartsCoordinator-CodeChartsInternerSpeicher" style="stroke:#A80036;stroke-width:1.0;"/><polygon fill="#000000" points="890.8295,508.5212,894.9548,499.9519,889.13,499.1638,890.8295,508.5212" style="stroke:#000000;stroke-width:1.0;"/><text fill="#000000" font-family="sans-serif" font-size="13" lengthAdjust="spacing" textLength="79" x="900.5" y="508.0669">send picture</text><!--MD5=[45be10fb9057243d989f7112dab584ae]
link CodeChartsCoordinator to CodeChartsTutorial--><path codeLine="115" d="M929.5,207 C953.414,207 983.508,253.128 1007.05,297.815 " fill="none" id="CodeChartsCoordinator-CodeChartsTutorial" style="stroke:#A80036;stroke-width:1.0;"/><polygon fill="#000000" points="995.7469,263.3687,992.1081,254.5818,987.6382,258.3988,995.7469,263.3687" style="stroke:#000000;stroke-width:1.0;"/><text fill="#000000" font-family="sans-serif" font-size="13" lengthAdjust="spacing" textLength="89" x="1001.5" y="264.0669">start Tutorial?</text><!--MD5=[430173a8cceee07f962d4a39f48ec6f9]
link CodeChartsRaster to CodeChartsInternerSpeicher--><path codeLine="116" d="M677.497,727.192 C677.887,743.462 680.941,759.743 688.5,774 C694.471,785.262 702.815,795.23 712.335,803.969 " fill="none" id="CodeChartsRaster-CodeChartsInternerSpeicher" style="stroke:#A80036;stroke-width:1.0;"/><polygon fill="#000000" points="691.434,761.0132,692.4952,770.4644,697.8478,768.0356,691.434,761.0132" style="stroke:#000000;stroke-width:1.0;"/><text fill="#000000" font-family="sans-serif" font-size="13" lengthAdjust="spacing" textLength="60" x="702.5" y="770.0669">load data</text><!--MD5=[430173a8cceee07f962d4a39f48ec6f9]
link CodeChartsRaster to CodeChartsInternerSpeicher--><path codeLine="117" d="M752.015,727.271 C757.451,737.197 762.717,747.237 767.5,757 C774.807,771.914 781.873,788.559 787.936,803.791 " fill="none" id="CodeChartsRaster-CodeChartsInternerSpeicher-1" style="stroke:#A80036;stroke-width:1.0;"/><polygon fill="#000000" points="782.6247,770.0925,781.4415,760.6558,776.1207,763.1536,782.6247,770.0925" style="stroke:#000000;stroke-width:1.0;"/><text fill="#000000" font-family="sans-serif" font-size="13" lengthAdjust="spacing" textLength="64" x="789.5" y="770.0669">save data</text><!--MD5=[785a98a2d4f001b3a7e96305a4636287]
link CodeChartsEingabefenster to CodeChartsRaster--><path codeLine="118" d="M728.172,444.223 C723.266,473.544 717.301,509.191 711.876,541.608 " fill="none" id="CodeChartsEingabefenster-CodeChartsRaster" style="stroke:#A80036;stroke-width:1.0;"/><polygon fill="#000000" points="723.6748,508.4978,728.0662,500.0618,722.269,499.0917,723.6748,508.4978" style="stroke:#000000;stroke-width:1.0;"/><text fill="#000000" font-family="sans-serif" font-size="13" lengthAdjust="spacing" textLength="67" x="733.5" y="508.0669">send Input</text><!--MD5=[98ba0babc1f2c9ceb0957566289f4661]
link CodeChartsInternerSpeicher to SpeicherMedium--><path codeLine="123" d="M974.5,892 C1038.22,892 930.834,950.0974 860.714,984.9332 " fill="none" id="CodeChartsInternerSpeicher-SpeicherMedium" style="stroke:#A80036;stroke-width:1.0;"/><polygon fill="#000000" points="947.6275,949.7292,956.492,946.2838,952.7739,941.7314,947.6275,949.7292" style="stroke:#000000;stroke-width:1.0;"/><text fill="#000000" font-family="sans-serif" font-size="13" lengthAdjust="spacing" textLength="73" x="960.5" y="951.0669">saves Data</text><!--MD5=[ba0b6aad62bad149f99973f5ab313e4e]
link CodeChartsCoordinator to Config--><path codeLine="124" d="M929.5,167 C1054.94,167 1084.97,215.538 1179.5,298 C1198.6,314.662 1216.12,337.552 1228.15,354.995 " fill="none" id="CodeChartsCoordinator-Config" style="stroke:#A80036;stroke-width:1.0;"/><polygon fill="#000000" points="1144.2686,256.9028,1150.3577,264.2085,1153.4889,259.2341,1144.2686,256.9028" style="stroke:#000000;stroke-width:1.0;"/><text fill="#000000" font-family="sans-serif" font-size="13" lengthAdjust="spacing" textLength="100" x="1157.5" y="264.0669">gets Initial Data</text><!--MD5=[4bc2ae1320b1f18590b5b5b17023d724]
@startuml
' skinparam backgroundColor transparent
'() System #DA70D5
top to bottom direction

' - - - TUTORIAL - - -
abstract Tutorial<t: TutorialType> {
  - t: TutorialType
  __public method__
  + start() : void
  __private methods__
  - getConfigState() : boolean
  - setConfigState(state: boolean) : void
  - show() : boolean
  __abstract methods__
  - {abstract} tutorial() : void
}

enum TutorialType {
  ZOOM
  EYETRACKING
  CODECHARTS
}

' Interaktionen
Tutorial::t -l- TutorialType
Tutorial -d- Config


' - - - BILD - - -

abstract Bild {
  + load(url: String) : void
  + show() : void
}

' === CODE CHARTS ===
package CodeCharts {

    ' CodeCharts Tutorial 
    class CodeChartsTutorial {
      - t: TutorialType
      __public method__
      + start() : void
      __private methods__
      - getConfigState() : boolean
      - setConfigState(state: boolean) : void
      - show() : boolean
      __abstract methods__
      - {abstract} tutorial() : void
    }
  
    ' CodeCharts Coordinator
    class CodeChartsCoordinator {
        - speed: float[2]
        - isTutorial: boolean
        - isRelative: boolean
        - dimensions: int[2]
        - strings: String[..]
        __public method__
        + startCodeCharts() : void
        __private methods__
        - loadConfigData() : boolean
        - tryTutorial() : void
    }    

    ' CodeCharts Interner Speicher
    class CodeChartsInternerSpeicher {
        __public method__
        + addPic(url: String) : void
        + addSizeAndCord(size: int[2], coordinates: int[2]) : void
        + saveData() : boolean
    }

    ' CodeCharts Bild
    class CodeChartsBild {
        + load(url: String) : void
        + show() : void
    }

    ' CodeCharts Raster
    class CodeChartsRaster {
        ' Unsicher ob es sinnvoll ist alle vorherigen Durchläufe auf einmal zu laden
        - dimensions: int[2]
        - strings: String[..]
        - coords: int[2]
        __public method__ 
        + setInput(input: String): void
        + setData(dimensions: int[2], strings: String[..]): void
        + show() : void
        + calculate() : void
        __private methods__
        - loadPastRuns() : void
        - sendData() : void
    }

    ' CodeCharts Eingabefenster
    class CodeChartsEingabefenster {
        __public method__
        + show() : String
        __private methods__
        - checkButton() : boolean
        - validateString(input: String): boolean
        - ErrorMessage() : void
    }

    ' Vererbungen
    Bild <|-d- CodeChartsBild
    Tutorial <|-d- CodeChartsTutorial

    ' Interaktionen
    CodeChartsCoordinator - - CodeChartsBild : > send initial data and show
    CodeChartsCoordinator - - CodeChartsRaster : > send initial data and show
    CodeChartsCoordinator::startCodeCharts - - CodeChartsEingabefenster : > show
    CodeChartsCoordinator::loadConfigData - - CodeChartsInternerSpeicher : > send picture
    CodeChartsCoordinator::tryTutorial - - CodeChartsTutorial : > start Tutorial?
    CodeChartsRaster - - CodeChartsInternerSpeicher : < load data
    CodeChartsRaster - - CodeChartsInternerSpeicher : > save data
    CodeChartsEingabefenster - - CodeChartsRaster : > send Input



    ' Andere Module
    CodeChartsInternerSpeicher::saveData - - SpeicherMedium : > saves Data
    CodeChartsCoordinator::startCodeCharts - - Config : < gets Initial Data
  
}

' Blackboxen / Andere Module
package Config {}

package SpeicherMedium {}
@enduml

@startuml
top to bottom direction

abstract Tutorial<t: TutorialType> {
  - t: TutorialType
  __public method__
  + start() : void
  __private methods__
  - getConfigState() : boolean
  - setConfigState(state: boolean) : void
  - show() : boolean
  __abstract methods__
  - {abstract} tutorial() : void
}

enum TutorialType {
  ZOOM
  EYETRACKING
  CODECHARTS
}

Tutorial::t -l- TutorialType
Tutorial -d- Config



abstract Bild {
  + load(url: String) : void
  + show() : void
}

package CodeCharts {

    class CodeChartsTutorial {
      - t: TutorialType
      __public method__
      + start() : void
      __private methods__
      - getConfigState() : boolean
      - setConfigState(state: boolean) : void
      - show() : boolean
      __abstract methods__
      - {abstract} tutorial() : void
    }
  
    class CodeChartsCoordinator {
        - speed: float[2]
        - isTutorial: boolean
        - isRelative: boolean
        - dimensions: int[2]
        - strings: String[..]
        __public method__
        + startCodeCharts() : void
        __private methods__
        - loadConfigData() : boolean
        - tryTutorial() : void
    }    

    class CodeChartsInternerSpeicher {
        __public method__
        + addPic(url: String) : void
        + addSizeAndCord(size: int[2], coordinates: int[2]) : void
        + saveData() : boolean
    }

    class CodeChartsBild {
        + load(url: String) : void
        + show() : void
    }

    class CodeChartsRaster {
        - dimensions: int[2]
        - strings: String[..]
        - coords: int[2]
        __public method__ 
        + setInput(input: String): void
        + setData(dimensions: int[2], strings: String[..]): void
        + show() : void
        + calculate() : void
        __private methods__
        - loadPastRuns() : void
        - sendData() : void
    }

    class CodeChartsEingabefenster {
        __public method__
        + show() : String
        __private methods__
        - checkButton() : boolean
        - validateString(input: String): boolean
        - ErrorMessage() : void
    }

    Bild <|-d- CodeChartsBild
    Tutorial <|-d- CodeChartsTutorial

    CodeChartsCoordinator - - CodeChartsBild : > send initial data and show
    CodeChartsCoordinator - - CodeChartsRaster : > send initial data and show
    CodeChartsCoordinator::startCodeCharts - - CodeChartsEingabefenster : > show
    CodeChartsCoordinator::loadConfigData - - CodeChartsInternerSpeicher : > send picture
    CodeChartsCoordinator::tryTutorial - - CodeChartsTutorial : > start Tutorial?
    CodeChartsRaster - - CodeChartsInternerSpeicher : < load data
    CodeChartsRaster - - CodeChartsInternerSpeicher : > save data
    CodeChartsEingabefenster - - CodeChartsRaster : > send Input



    CodeChartsInternerSpeicher::saveData - - SpeicherMedium : > saves Data
    CodeChartsCoordinator::startCodeCharts - - Config : < gets Initial Data
  
}

package Config {}

package SpeicherMedium {}
@enduml

PlantUML version 1.2021.14beta3(Unknown compile time)
(GPL source distribution)
Java Runtime: Java(TM) SE Runtime Environment
JVM: Java HotSpot(TM) 64-Bit Server VM
Default Encoding: UTF-8
Language: en
Country: US
--></g></svg>