<?xml version="1.0" encoding="UTF-8" standalone="no"?><svg xmlns="http://www.w3.org/2000/svg" xmlns:xlink="http://www.w3.org/1999/xlink" contentScriptType="application/ecmascript" contentStyleType="text/css" height="999px" preserveAspectRatio="none" style="width:1342px;height:999px;background:#FFFFFF;" version="1.1" viewBox="0 0 1342 999" width="1342px" zoomAndPan="magnify"><defs><filter height="300%" id="fpw6c2y6srwhf" width="300%" x="-1" y="-1"><feGaussianBlur result="blurOut" stdDeviation="2.0"/><feColorMatrix in="blurOut" result="blurOut2" type="matrix" values="0 0 0 0 0 0 0 0 0 0 0 0 0 0 0 0 0 0 .4 0"/><feOffset dx="4.0" dy="4.0" in="blurOut2" result="blurOut3"/><feBlend in="SourceGraphic" in2="blurOut3" mode="normal"/></filter></defs><g><!--MD5=[bd4ed236a13575a9dcf49b2316e757e7]
cluster CodeCharts--><polygon fill="#FFFFFF" filter="url(#fpw6c2y6srwhf)" points="170.5,6,269.5,6,276.5,28.2969,927.5,28.2969,927.5,877,170.5,877,170.5,6" style="stroke:#000000;stroke-width:1.5;"/><line style="stroke:#000000;stroke-width:1.5;" x1="170.5" x2="276.5" y1="28.2969" y2="28.2969"/><text fill="#000000" font-family="sans-serif" font-size="14" font-weight="bold" lengthAdjust="spacing" textLength="93" x="174.5" y="20.9951">CodeCharts</text><!--MD5=[81d462353594d8875238471802618d21]
class CodeChartsTutorial--><rect codeLine="40" fill="#FEFECE" filter="url(#fpw6c2y6srwhf)" height="167.2422" id="CodeChartsTutorial" style="stroke:#A80036;stroke-width:1.5;" width="236" x="675.5" y="298"/><ellipse cx="732.25" cy="314" fill="#ADD1B2" rx="11" ry="11" style="stroke:#A80036;stroke-width:1.0;"/><path d="M734.5938,309.6719 C733.6563,309.2344 733.0625,309.0938 732.1875,309.0938 C729.5625,309.0938 727.5625,311.1719 727.5625,313.8906 L727.5625,315.0156 C727.5625,317.5938 729.6719,319.4844 732.5625,319.4844 C733.7813,319.4844 734.9375,319.1875 735.6875,318.6406 C736.2656,318.2344 736.5938,317.7813 736.5938,317.3906 C736.5938,316.9375 736.2031,316.5469 735.7344,316.5469 C735.5156,316.5469 735.3125,316.625 735.125,316.8125 C734.6719,317.2969 734.6719,317.2969 734.4844,317.3906 C734.0625,317.6563 733.375,317.7813 732.6094,317.7813 C730.5625,317.7813 729.2656,316.6875 729.2656,314.9844 L729.2656,313.8906 C729.2656,312.1094 730.5156,310.7969 732.25,310.7969 C732.8281,310.7969 733.4375,310.9531 733.9063,311.2031 C734.3906,311.4844 734.5625,311.7031 734.6563,312.1094 C734.7188,312.5156 734.75,312.6406 734.8906,312.7656 C735.0313,312.9063 735.2656,313.0156 735.4844,313.0156 C735.75,313.0156 736.0156,312.875 736.1875,312.6563 C736.2969,312.5 736.3281,312.3125 736.3281,311.8906 L736.3281,310.4688 C736.3281,310.0313 736.3125,309.9063 736.2188,309.75 C736.0625,309.4844 735.7813,309.3438 735.4844,309.3438 C735.1875,309.3438 734.9844,309.4375 734.7656,309.75 L734.5938,309.6719 Z " fill="#000000"/><text fill="#000000" font-family="sans-serif" font-size="12" lengthAdjust="spacing" textLength="114" x="752.75" y="318.1543">CodeChartsTutorial</text><line style="stroke:#A80036;stroke-width:1.5;" x1="676.5" x2="910.5" y1="330" y2="330"/><rect fill="none" height="6" style="stroke:#C82930;stroke-width:1.0;" width="6" x="683.5" y="338"/><text fill="#000000" font-family="sans-serif" font-size="11" lengthAdjust="spacing" textLength="82" x="695.5" y="344.2104">t: TutorialType</text><ellipse cx="686.5" cy="370.6094" fill="#84BE84" rx="3" ry="3" style="stroke:#038048;stroke-width:1.0;"/><text fill="#000000" font-family="sans-serif" font-size="11" lengthAdjust="spacing" textLength="68" x="695.5" y="373.8198">start() : void</text><line style="stroke:#A80036;stroke-width:1.5;" x1="676.5" x2="753" y1="357.207" y2="357.207"/><text fill="#000000" font-family="sans-serif" font-size="11" lengthAdjust="spacing" textLength="81" x="753" y="360.5151">public method</text><line style="stroke:#A80036;stroke-width:1.5;" x1="834" x2="910.5" y1="357.207" y2="357.207"/><rect fill="#F24D5C" height="6" style="stroke:#C82930;stroke-width:1.0;" width="6" x="683.5" y="397.2188"/><text fill="#000000" font-family="sans-serif" font-size="11" lengthAdjust="spacing" textLength="151" x="695.5" y="403.4292">getConfigState() : boolean</text><rect fill="#F24D5C" height="6" style="stroke:#C82930;stroke-width:1.0;" width="6" x="683.5" y="410.0234"/><text fill="#000000" font-family="sans-serif" font-size="11" lengthAdjust="spacing" textLength="210" x="695.5" y="416.2339">setConfigState(state: boolean) : void</text><rect fill="#F24D5C" height="6" style="stroke:#C82930;stroke-width:1.0;" width="6" x="683.5" y="422.8281"/><text fill="#000000" font-family="sans-serif" font-size="11" lengthAdjust="spacing" textLength="94" x="695.5" y="429.0386">show() : boolean</text><line style="stroke:#A80036;stroke-width:1.5;" x1="676.5" x2="746.5" y1="386.8164" y2="386.8164"/><text fill="#000000" font-family="sans-serif" font-size="11" lengthAdjust="spacing" textLength="94" x="746.5" y="390.1245">private methods</text><line style="stroke:#A80036;stroke-width:1.5;" x1="840.5" x2="910.5" y1="386.8164" y2="386.8164"/><rect fill="#F24D5C" height="6" style="stroke:#C82930;stroke-width:1.0;" width="6" x="683.5" y="452.4375"/><text fill="#000000" font-family="sans-serif" font-size="11" font-style="italic" lengthAdjust="spacing" textLength="84" x="695.5" y="458.6479">tutorial() : void</text><line style="stroke:#A80036;stroke-width:1.5;" x1="676.5" x2="744" y1="442.0352" y2="442.0352"/><text fill="#000000" font-family="sans-serif" font-size="11" lengthAdjust="spacing" textLength="99" x="744" y="445.3433">abstract methods</text><line style="stroke:#A80036;stroke-width:1.5;" x1="843" x2="910.5" y1="442.0352" y2="442.0352"/><!--MD5=[d6943c12ae734dbe1975a5489f85ab8f]
class CodeChartsCoordinator--><rect codeLine="53" fill="#FEFECE" filter="url(#fpw6c2y6srwhf)" height="176.0469" id="CodeChartsCoordinator" style="stroke:#A80036;stroke-width:1.5;" width="178" x="434.5" y="45"/><ellipse cx="451.75" cy="61" fill="#ADD1B2" rx="11" ry="11" style="stroke:#A80036;stroke-width:1.0;"/><path d="M454.0938,56.6719 C453.1563,56.2344 452.5625,56.0938 451.6875,56.0938 C449.0625,56.0938 447.0625,58.1719 447.0625,60.8906 L447.0625,62.0156 C447.0625,64.5938 449.1719,66.4844 452.0625,66.4844 C453.2813,66.4844 454.4375,66.1875 455.1875,65.6406 C455.7656,65.2344 456.0938,64.7813 456.0938,64.3906 C456.0938,63.9375 455.7031,63.5469 455.2344,63.5469 C455.0156,63.5469 454.8125,63.625 454.625,63.8125 C454.1719,64.2969 454.1719,64.2969 453.9844,64.3906 C453.5625,64.6563 452.875,64.7813 452.1094,64.7813 C450.0625,64.7813 448.7656,63.6875 448.7656,61.9844 L448.7656,60.8906 C448.7656,59.1094 450.0156,57.7969 451.75,57.7969 C452.3281,57.7969 452.9375,57.9531 453.4063,58.2031 C453.8906,58.4844 454.0625,58.7031 454.1563,59.1094 C454.2188,59.5156 454.25,59.6406 454.3906,59.7656 C454.5313,59.9063 454.7656,60.0156 454.9844,60.0156 C455.25,60.0156 455.5156,59.875 455.6875,59.6563 C455.7969,59.5 455.8281,59.3125 455.8281,58.8906 L455.8281,57.4688 C455.8281,57.0313 455.8125,56.9063 455.7188,56.75 C455.5625,56.4844 455.2813,56.3438 454.9844,56.3438 C454.6875,56.3438 454.4844,56.4375 454.2656,56.75 L454.0938,56.6719 Z " fill="#000000"/><text fill="#000000" font-family="sans-serif" font-size="12" lengthAdjust="spacing" textLength="141" x="466.25" y="65.1543">CodeChartsCoordinator</text><line style="stroke:#A80036;stroke-width:1.5;" x1="435.5" x2="611.5" y1="77" y2="77"/><rect fill="none" height="6" style="stroke:#C82930;stroke-width:1.0;" width="6" x="442.5" y="85"/><text fill="#000000" font-family="sans-serif" font-size="11" lengthAdjust="spacing" textLength="83" x="454.5" y="91.2104">speed: float[2]</text><rect fill="none" height="6" style="stroke:#C82930;stroke-width:1.0;" width="6" x="442.5" y="97.8047"/><text fill="#000000" font-family="sans-serif" font-size="11" lengthAdjust="spacing" textLength="104" x="454.5" y="104.0151">isTutorial: boolean</text><rect fill="none" height="6" style="stroke:#C82930;stroke-width:1.0;" width="6" x="442.5" y="110.6094"/><text fill="#000000" font-family="sans-serif" font-size="11" lengthAdjust="spacing" textLength="109" x="454.5" y="116.8198">isRelative: boolean</text><rect fill="none" height="6" style="stroke:#C82930;stroke-width:1.0;" width="6" x="442.5" y="123.4141"/><text fill="#000000" font-family="sans-serif" font-size="11" lengthAdjust="spacing" textLength="101" x="454.5" y="129.6245">dimensions: int[2]</text><rect fill="none" height="6" style="stroke:#C82930;stroke-width:1.0;" width="6" x="442.5" y="136.2188"/><text fill="#000000" font-family="sans-serif" font-size="11" lengthAdjust="spacing" textLength="91" x="454.5" y="142.4292">strings: String[..]</text><ellipse cx="445.5" cy="168.8281" fill="#84BE84" rx="3" ry="3" style="stroke:#038048;stroke-width:1.0;"/><text fill="#000000" font-family="sans-serif" font-size="11" lengthAdjust="spacing" textLength="134" x="454.5" y="172.0386">startCodeCharts() : void</text><line style="stroke:#A80036;stroke-width:1.5;" x1="435.5" x2="483" y1="155.4258" y2="155.4258"/><text fill="#000000" font-family="sans-serif" font-size="11" lengthAdjust="spacing" textLength="81" x="483" y="158.7339">public method</text><line style="stroke:#A80036;stroke-width:1.5;" x1="564" x2="611.5" y1="155.4258" y2="155.4258"/><rect fill="#F24D5C" height="6" style="stroke:#C82930;stroke-width:1.0;" width="6" x="442.5" y="195.4375"/><text fill="#000000" font-family="sans-serif" font-size="11" lengthAdjust="spacing" textLength="152" x="454.5" y="201.6479">loadConfigData() : boolean</text><rect fill="#F24D5C" height="6" style="stroke:#C82930;stroke-width:1.0;" width="6" x="442.5" y="208.2422"/><text fill="#000000" font-family="sans-serif" font-size="11" lengthAdjust="spacing" textLength="100" x="454.5" y="214.4526">tryTutorial() : void</text><line style="stroke:#A80036;stroke-width:1.5;" x1="435.5" x2="476.5" y1="185.0352" y2="185.0352"/><text fill="#000000" font-family="sans-serif" font-size="11" lengthAdjust="spacing" textLength="94" x="476.5" y="188.3433">private methods</text><line style="stroke:#A80036;stroke-width:1.5;" x1="570.5" x2="611.5" y1="185.0352" y2="185.0352"/><!--MD5=[716079bcf736c8b229d38dedc298d2f0]
class CodeChartsInternerSpeicher--><rect codeLine="67" fill="#FEFECE" filter="url(#fpw6c2y6srwhf)" height="95.2188" id="CodeChartsInternerSpeicher" style="stroke:#A80036;stroke-width:1.5;" width="332" x="244.5" y="763"/><ellipse cx="320.75" cy="779" fill="#ADD1B2" rx="11" ry="11" style="stroke:#A80036;stroke-width:1.0;"/><path d="M323.0938,774.6719 C322.1563,774.2344 321.5625,774.0938 320.6875,774.0938 C318.0625,774.0938 316.0625,776.1719 316.0625,778.8906 L316.0625,780.0156 C316.0625,782.5938 318.1719,784.4844 321.0625,784.4844 C322.2813,784.4844 323.4375,784.1875 324.1875,783.6406 C324.7656,783.2344 325.0938,782.7813 325.0938,782.3906 C325.0938,781.9375 324.7031,781.5469 324.2344,781.5469 C324.0156,781.5469 323.8125,781.625 323.625,781.8125 C323.1719,782.2969 323.1719,782.2969 322.9844,782.3906 C322.5625,782.6563 321.875,782.7813 321.1094,782.7813 C319.0625,782.7813 317.7656,781.6875 317.7656,779.9844 L317.7656,778.8906 C317.7656,777.1094 319.0156,775.7969 320.75,775.7969 C321.3281,775.7969 321.9375,775.9531 322.4063,776.2031 C322.8906,776.4844 323.0625,776.7031 323.1563,777.1094 C323.2188,777.5156 323.25,777.6406 323.3906,777.7656 C323.5313,777.9063 323.7656,778.0156 323.9844,778.0156 C324.25,778.0156 324.5156,777.875 324.6875,777.6563 C324.7969,777.5 324.8281,777.3125 324.8281,776.8906 L324.8281,775.4688 C324.8281,775.0313 324.8125,774.9063 324.7188,774.75 C324.5625,774.4844 324.2813,774.3438 323.9844,774.3438 C323.6875,774.3438 323.4844,774.4375 323.2656,774.75 L323.0938,774.6719 Z " fill="#000000"/><text fill="#000000" font-family="sans-serif" font-size="12" lengthAdjust="spacing" textLength="171" x="341.25" y="783.1543">CodeChartsInternerSpeicher</text><line style="stroke:#A80036;stroke-width:1.5;" x1="245.5" x2="575.5" y1="795" y2="795"/><ellipse cx="255.5" cy="822.8047" fill="#84BE84" rx="3" ry="3" style="stroke:#038048;stroke-width:1.0;"/><text fill="#000000" font-family="sans-serif" font-size="11" lengthAdjust="spacing" textLength="152" x="264.5" y="826.0151">addPic(pic: unknown) : void</text><ellipse cx="255.5" cy="835.6094" fill="#84BE84" rx="3" ry="3" style="stroke:#038048;stroke-width:1.0;"/><text fill="#000000" font-family="sans-serif" font-size="11" lengthAdjust="spacing" textLength="306" x="264.5" y="838.8198">addSizeAndKord(size: int[2], coordinates: int[2]) : void</text><ellipse cx="255.5" cy="848.4141" fill="#84BE84" rx="3" ry="3" style="stroke:#038048;stroke-width:1.0;"/><text fill="#000000" font-family="sans-serif" font-size="11" lengthAdjust="spacing" textLength="120" x="264.5" y="851.6245">saveData() : boolean</text><line style="stroke:#A80036;stroke-width:1.5;" x1="245.5" x2="370" y1="809.4023" y2="809.4023"/><text fill="#000000" font-family="sans-serif" font-size="11" lengthAdjust="spacing" textLength="81" x="370" y="812.7104">public method</text><line style="stroke:#A80036;stroke-width:1.5;" x1="451" x2="575.5" y1="809.4023" y2="809.4023"/><!--MD5=[48cc74a7e7e460afd8863a3fcc09bdcb]
class CodeChartsBild--><rect codeLine="75" fill="#FEFECE" filter="url(#fpw6c2y6srwhf)" height="73.6094" id="CodeChartsBild" style="stroke:#A80036;stroke-width:1.5;" width="147" x="187" y="344.5"/><ellipse cx="212.35" cy="360.5" fill="#ADD1B2" rx="11" ry="11" style="stroke:#A80036;stroke-width:1.0;"/><path d="M214.6938,356.1719 C213.7563,355.7344 213.1625,355.5938 212.2875,355.5938 C209.6625,355.5938 207.6625,357.6719 207.6625,360.3906 L207.6625,361.5156 C207.6625,364.0938 209.7719,365.9844 212.6625,365.9844 C213.8813,365.9844 215.0375,365.6875 215.7875,365.1406 C216.3656,364.7344 216.6938,364.2813 216.6938,363.8906 C216.6938,363.4375 216.3031,363.0469 215.8344,363.0469 C215.6156,363.0469 215.4125,363.125 215.225,363.3125 C214.7719,363.7969 214.7719,363.7969 214.5844,363.8906 C214.1625,364.1563 213.475,364.2813 212.7094,364.2813 C210.6625,364.2813 209.3656,363.1875 209.3656,361.4844 L209.3656,360.3906 C209.3656,358.6094 210.6156,357.2969 212.35,357.2969 C212.9281,357.2969 213.5375,357.4531 214.0063,357.7031 C214.4906,357.9844 214.6625,358.2031 214.7563,358.6094 C214.8188,359.0156 214.85,359.1406 214.9906,359.2656 C215.1313,359.4063 215.3656,359.5156 215.5844,359.5156 C215.85,359.5156 216.1156,359.375 216.2875,359.1563 C216.3969,359 216.4281,358.8125 216.4281,358.3906 L216.4281,356.9688 C216.4281,356.5313 216.4125,356.4063 216.3188,356.25 C216.1625,355.9844 215.8813,355.8438 215.5844,355.8438 C215.2875,355.8438 215.0844,355.9375 214.8656,356.25 L214.6938,356.1719 Z " fill="#000000"/><text fill="#000000" font-family="sans-serif" font-size="12" lengthAdjust="spacing" textLength="92" x="228.65" y="364.6543">CodeChartsBild</text><line style="stroke:#A80036;stroke-width:1.5;" x1="188" x2="333" y1="376.5" y2="376.5"/><line style="stroke:#A80036;stroke-width:1.5;" x1="188" x2="333" y1="384.5" y2="384.5"/><ellipse cx="198" cy="395.5" fill="#84BE84" rx="3" ry="3" style="stroke:#038048;stroke-width:1.0;"/><text fill="#000000" font-family="sans-serif" font-size="11" lengthAdjust="spacing" textLength="121" x="207" y="398.7104">load(url: String) : void</text><ellipse cx="198" cy="408.3047" fill="#84BE84" rx="3" ry="3" style="stroke:#038048;stroke-width:1.0;"/><text fill="#000000" font-family="sans-serif" font-size="11" lengthAdjust="spacing" textLength="72" x="207" y="411.5151">show() : void</text><!--MD5=[b9640045e029ffef06c931bcc3e11d89]
class CodeChartsRaster--><rect codeLine="82" fill="#FEFECE" filter="url(#fpw6c2y6srwhf)" height="172.0469" id="CodeChartsRaster" style="stroke:#A80036;stroke-width:1.5;" width="305" x="258" y="526"/><ellipse cx="352.25" cy="542" fill="#ADD1B2" rx="11" ry="11" style="stroke:#A80036;stroke-width:1.0;"/><path d="M354.5938,537.6719 C353.6563,537.2344 353.0625,537.0938 352.1875,537.0938 C349.5625,537.0938 347.5625,539.1719 347.5625,541.8906 L347.5625,543.0156 C347.5625,545.5938 349.6719,547.4844 352.5625,547.4844 C353.7813,547.4844 354.9375,547.1875 355.6875,546.6406 C356.2656,546.2344 356.5938,545.7813 356.5938,545.3906 C356.5938,544.9375 356.2031,544.5469 355.7344,544.5469 C355.5156,544.5469 355.3125,544.625 355.125,544.8125 C354.6719,545.2969 354.6719,545.2969 354.4844,545.3906 C354.0625,545.6563 353.375,545.7813 352.6094,545.7813 C350.5625,545.7813 349.2656,544.6875 349.2656,542.9844 L349.2656,541.8906 C349.2656,540.1094 350.5156,538.7969 352.25,538.7969 C352.8281,538.7969 353.4375,538.9531 353.9063,539.2031 C354.3906,539.4844 354.5625,539.7031 354.6563,540.1094 C354.7188,540.5156 354.75,540.6406 354.8906,540.7656 C355.0313,540.9063 355.2656,541.0156 355.4844,541.0156 C355.75,541.0156 356.0156,540.875 356.1875,540.6563 C356.2969,540.5 356.3281,540.3125 356.3281,539.8906 L356.3281,538.4688 C356.3281,538.0313 356.3125,537.9063 356.2188,537.75 C356.0625,537.4844 355.7813,537.3438 355.4844,537.3438 C355.1875,537.3438 354.9844,537.4375 354.7656,537.75 L354.5938,537.6719 Z " fill="#000000"/><text fill="#000000" font-family="sans-serif" font-size="12" lengthAdjust="spacing" textLength="108" x="372.75" y="546.1543">CodeChartsRaster</text><line style="stroke:#A80036;stroke-width:1.5;" x1="259" x2="562" y1="558" y2="558"/><rect fill="none" height="6" style="stroke:#C82930;stroke-width:1.0;" width="6" x="266" y="566"/><text fill="#000000" font-family="sans-serif" font-size="11" lengthAdjust="spacing" textLength="101" x="278" y="572.2104">dimensions: int[2]</text><rect fill="none" height="6" style="stroke:#C82930;stroke-width:1.0;" width="6" x="266" y="578.8047"/><text fill="#000000" font-family="sans-serif" font-size="11" lengthAdjust="spacing" textLength="91" x="278" y="585.0151">strings: String[..]</text><rect fill="none" height="6" style="stroke:#C82930;stroke-width:1.0;" width="6" x="266" y="591.6094"/><text fill="#000000" font-family="sans-serif" font-size="11" lengthAdjust="spacing" textLength="66" x="278" y="597.8198">kords: int[2]</text><text fill="#000000" font-family="sans-serif" font-size="11" lengthAdjust="spacing" textLength="105" x="278" y="610.6245">__public method__</text><ellipse cx="269" cy="620.2188" fill="#84BE84" rx="3" ry="3" style="stroke:#038048;stroke-width:1.0;"/><text fill="#000000" font-family="sans-serif" font-size="11" lengthAdjust="spacing" textLength="279" x="278" y="623.4292">setData(dimensions: int[2], strings: String[..]):void</text><ellipse cx="269" cy="633.0234" fill="#84BE84" rx="3" ry="3" style="stroke:#038048;stroke-width:1.0;"/><text fill="#000000" font-family="sans-serif" font-size="11" lengthAdjust="spacing" textLength="72" x="278" y="636.2339">show() : void</text><ellipse cx="269" cy="645.8281" fill="#84BE84" rx="3" ry="3" style="stroke:#038048;stroke-width:1.0;"/><text fill="#000000" font-family="sans-serif" font-size="11" lengthAdjust="spacing" textLength="94" x="278" y="649.0386">calculate() : void</text><rect fill="#F24D5C" height="6" style="stroke:#C82930;stroke-width:1.0;" width="6" x="266" y="672.4375"/><text fill="#000000" font-family="sans-serif" font-size="11" lengthAdjust="spacing" textLength="117" x="278" y="678.6479">loadPastRuns() : void</text><rect fill="#F24D5C" height="6" style="stroke:#C82930;stroke-width:1.0;" width="6" x="266" y="685.2422"/><text fill="#000000" font-family="sans-serif" font-size="11" lengthAdjust="spacing" textLength="98" x="278" y="691.4526">sendData() : void</text><line style="stroke:#A80036;stroke-width:1.5;" x1="259" x2="363.5" y1="662.0352" y2="662.0352"/><text fill="#000000" font-family="sans-serif" font-size="11" lengthAdjust="spacing" textLength="94" x="363.5" y="665.3433">private methods</text><line style="stroke:#A80036;stroke-width:1.5;" x1="457.5" x2="562" y1="662.0352" y2="662.0352"/><!--MD5=[a7f545f13df25b09c4dd936da65dfdd1]
class CodeChartsEingabefenster--><rect codeLine="97" fill="#FEFECE" filter="url(#fpw6c2y6srwhf)" height="124.8281" id="CodeChartsEingabefenster" style="stroke:#A80036;stroke-width:1.5;" width="234" x="406.5" y="319"/><ellipse cx="439.95" cy="335" fill="#ADD1B2" rx="11" ry="11" style="stroke:#A80036;stroke-width:1.0;"/><path d="M442.2938,330.6719 C441.3563,330.2344 440.7625,330.0938 439.8875,330.0938 C437.2625,330.0938 435.2625,332.1719 435.2625,334.8906 L435.2625,336.0156 C435.2625,338.5938 437.3719,340.4844 440.2625,340.4844 C441.4813,340.4844 442.6375,340.1875 443.3875,339.6406 C443.9656,339.2344 444.2938,338.7813 444.2938,338.3906 C444.2938,337.9375 443.9031,337.5469 443.4344,337.5469 C443.2156,337.5469 443.0125,337.625 442.825,337.8125 C442.3719,338.2969 442.3719,338.2969 442.1844,338.3906 C441.7625,338.6563 441.075,338.7813 440.3094,338.7813 C438.2625,338.7813 436.9656,337.6875 436.9656,335.9844 L436.9656,334.8906 C436.9656,333.1094 438.2156,331.7969 439.95,331.7969 C440.5281,331.7969 441.1375,331.9531 441.6063,332.2031 C442.0906,332.4844 442.2625,332.7031 442.3563,333.1094 C442.4188,333.5156 442.45,333.6406 442.5906,333.7656 C442.7313,333.9063 442.9656,334.0156 443.1844,334.0156 C443.45,334.0156 443.7156,333.875 443.8875,333.6563 C443.9969,333.5 444.0281,333.3125 444.0281,332.8906 L444.0281,331.4688 C444.0281,331.0313 444.0125,330.9063 443.9188,330.75 C443.7625,330.4844 443.4813,330.3438 443.1844,330.3438 C442.8875,330.3438 442.6844,330.4375 442.4656,330.75 L442.2938,330.6719 Z " fill="#000000"/><text fill="#000000" font-family="sans-serif" font-size="12" lengthAdjust="spacing" textLength="161" x="458.05" y="339.1543">CodeChartsEingabefenster</text><line style="stroke:#A80036;stroke-width:1.5;" x1="407.5" x2="639.5" y1="351" y2="351"/><ellipse cx="417.5" cy="378.8047" fill="#84BE84" rx="3" ry="3" style="stroke:#038048;stroke-width:1.0;"/><text fill="#000000" font-family="sans-serif" font-size="11" lengthAdjust="spacing" textLength="81" x="426.5" y="382.0151">show() : String</text><line style="stroke:#A80036;stroke-width:1.5;" x1="407.5" x2="483" y1="365.4023" y2="365.4023"/><text fill="#000000" font-family="sans-serif" font-size="11" lengthAdjust="spacing" textLength="81" x="483" y="368.7104">public method</text><line style="stroke:#A80036;stroke-width:1.5;" x1="564" x2="639.5" y1="365.4023" y2="365.4023"/><rect fill="#F24D5C" height="6" style="stroke:#C82930;stroke-width:1.0;" width="6" x="414.5" y="405.4141"/><text fill="#000000" font-family="sans-serif" font-size="11" lengthAdjust="spacing" textLength="135" x="426.5" y="411.6245">checkButton() : boolean</text><rect fill="#F24D5C" height="6" style="stroke:#C82930;stroke-width:1.0;" width="6" x="414.5" y="418.2188"/><text fill="#000000" font-family="sans-serif" font-size="11" lengthAdjust="spacing" textLength="208" x="426.5" y="424.4292">validateString(input: String): boolean</text><rect fill="#F24D5C" height="6" style="stroke:#C82930;stroke-width:1.0;" width="6" x="414.5" y="431.0234"/><text fill="#000000" font-family="sans-serif" font-size="11" lengthAdjust="spacing" textLength="120" x="426.5" y="437.2339">ErrorMessage() : void</text><line style="stroke:#A80036;stroke-width:1.5;" x1="407.5" x2="476.5" y1="395.0117" y2="395.0117"/><text fill="#000000" font-family="sans-serif" font-size="11" lengthAdjust="spacing" textLength="94" x="476.5" y="398.3198">private methods</text><line style="stroke:#A80036;stroke-width:1.5;" x1="570.5" x2="639.5" y1="395.0117" y2="395.0117"/><polygon fill="#FFFFFF" filter="url(#fpw6c2y6srwhf)" points="1003.5,355,1061.5,355,1068.5,377.2969,1075.5,377.2969,1075.5,407.5938,1003.5,407.5938,1003.5,355" style="stroke:#000000;stroke-width:1.5;"/><line style="stroke:#000000;stroke-width:1.5;" x1="1003.5" x2="1068.5" y1="377.2969" y2="377.2969"/><text fill="#000000" font-family="sans-serif" font-size="14" font-weight="bold" lengthAdjust="spacing" textLength="52" x="1007.5" y="369.9951">Config</text><polygon fill="#FFFFFF" filter="url(#fpw6c2y6srwhf)" points="334.5,940,472.5,940,479.5,962.2969,486.5,962.2969,486.5,992.5938,334.5,992.5938,334.5,940" style="stroke:#000000;stroke-width:1.5;"/><line style="stroke:#000000;stroke-width:1.5;" x1="334.5" x2="479.5" y1="962.2969" y2="962.2969"/><text fill="#000000" font-family="sans-serif" font-size="14" font-weight="bold" lengthAdjust="spacing" textLength="132" x="338.5" y="954.9951">SpeicherMedium</text><!--MD5=[fccc419d627b37790932ddb688fb7ad6]
class Tutorial--><rect codeLine="6" fill="#FEFECE" filter="url(#fpw6c2y6srwhf)" height="167.2422" id="Tutorial" style="stroke:#A80036;stroke-width:1.5;" width="236" x="1092.5" y="48"/><ellipse cx="1138.25" cy="64" fill="#A9DCDF" rx="11" ry="11" style="stroke:#A80036;stroke-width:1.0;"/><path d="M1140.3281,65.8125 L1140.7188,66.7969 L1140.3281,66.7969 C1139.875,66.7969 1139.7656,66.8125 1139.6094,66.9219 C1139.3594,67.0781 1139.2031,67.3594 1139.2031,67.6563 C1139.2031,67.9219 1139.3438,68.1719 1139.5625,68.3281 C1139.7031,68.4531 1139.9063,68.5 1140.3281,68.5 L1142.6875,68.5 C1143.0469,68.5 1143.2656,68.4688 1143.4063,68.375 C1143.6563,68.2344 1143.8125,67.9375 1143.8125,67.6563 C1143.8125,67.375 1143.6719,67.125 1143.4531,66.9688 C1143.2813,66.8281 1143.125,66.7969 1142.6563,66.7969 L1139.2656,58.5938 L1135.5938,58.5938 C1135.1406,58.5938 1135.0156,58.6094 1134.8594,58.7031 C1134.6094,58.875 1134.4531,59.1563 1134.4531,59.4375 C1134.4531,59.7188 1134.5938,59.9688 1134.8125,60.1406 C1134.9844,60.25 1135.1563,60.2813 1135.5938,60.2813 L1136.6719,60.2813 L1134.0313,66.7969 C1133.6094,66.7969 1133.4531,66.8125 1133.2969,66.9219 C1133.0469,67.0781 1132.8906,67.3594 1132.8906,67.6563 C1132.8906,68.2188 1133.2656,68.5 1134.0156,68.5 L1136.2813,68.5 C1136.6406,68.5 1136.8594,68.4688 1136.9844,68.375 C1137.25,68.2344 1137.3906,67.9375 1137.3906,67.6563 C1137.3906,67.375 1137.2656,67.125 1137.0469,66.9531 C1136.875,66.8281 1136.7344,66.7969 1136.2813,66.7969 L1135.8906,66.7969 L1136.2813,65.8125 L1140.3281,65.8125 Z M1139.625,64.1094 L1136.9531,64.1094 L1138.2969,60.8438 L1139.625,64.1094 Z " fill="#000000"/><text fill="#000000" font-family="sans-serif" font-size="12" font-style="italic" lengthAdjust="spacing" textLength="45" x="1158.75" y="68.1543">Tutorial</text><rect fill="#FFFFFF" height="15.9688" style="stroke:#000000;stroke-width:1.0;stroke-dasharray:2.0,2.0;" width="89" x="1242.5" y="45"/><text fill="#000000" font-family="sans-serif" font-size="12" font-style="italic" lengthAdjust="spacing" textLength="87" x="1243.5" y="57.1387">t: TutorialType</text><line style="stroke:#A80036;stroke-width:1.5;" x1="1093.5" x2="1327.5" y1="80" y2="80"/><rect fill="none" height="6" style="stroke:#C82930;stroke-width:1.0;" width="6" x="1100.5" y="88"/><text fill="#000000" font-family="sans-serif" font-size="11" lengthAdjust="spacing" textLength="82" x="1112.5" y="94.2104">t: TutorialType</text><ellipse cx="1103.5" cy="120.6094" fill="#84BE84" rx="3" ry="3" style="stroke:#038048;stroke-width:1.0;"/><text fill="#000000" font-family="sans-serif" font-size="11" lengthAdjust="spacing" textLength="68" x="1112.5" y="123.8198">start() : void</text><line style="stroke:#A80036;stroke-width:1.5;" x1="1093.5" x2="1170" y1="107.207" y2="107.207"/><text fill="#000000" font-family="sans-serif" font-size="11" lengthAdjust="spacing" textLength="81" x="1170" y="110.5151">public method</text><line style="stroke:#A80036;stroke-width:1.5;" x1="1251" x2="1327.5" y1="107.207" y2="107.207"/><rect fill="#F24D5C" height="6" style="stroke:#C82930;stroke-width:1.0;" width="6" x="1100.5" y="147.2188"/><text fill="#000000" font-family="sans-serif" font-size="11" lengthAdjust="spacing" textLength="151" x="1112.5" y="153.4292">getConfigState() : boolean</text><rect fill="#F24D5C" height="6" style="stroke:#C82930;stroke-width:1.0;" width="6" x="1100.5" y="160.0234"/><text fill="#000000" font-family="sans-serif" font-size="11" lengthAdjust="spacing" textLength="210" x="1112.5" y="166.2339">setConfigState(state: boolean) : void</text><rect fill="#F24D5C" height="6" style="stroke:#C82930;stroke-width:1.0;" width="6" x="1100.5" y="172.8281"/><text fill="#000000" font-family="sans-serif" font-size="11" lengthAdjust="spacing" textLength="94" x="1112.5" y="179.0386">show() : boolean</text><line style="stroke:#A80036;stroke-width:1.5;" x1="1093.5" x2="1163.5" y1="136.8164" y2="136.8164"/><text fill="#000000" font-family="sans-serif" font-size="11" lengthAdjust="spacing" textLength="94" x="1163.5" y="140.1245">private methods</text><line style="stroke:#A80036;stroke-width:1.5;" x1="1257.5" x2="1327.5" y1="136.8164" y2="136.8164"/><rect fill="#F24D5C" height="6" style="stroke:#C82930;stroke-width:1.0;" width="6" x="1100.5" y="202.4375"/><text fill="#000000" font-family="sans-serif" font-size="11" font-style="italic" lengthAdjust="spacing" textLength="84" x="1112.5" y="208.6479">tutorial() : void</text><line style="stroke:#A80036;stroke-width:1.5;" x1="1093.5" x2="1161" y1="192.0352" y2="192.0352"/><text fill="#000000" font-family="sans-serif" font-size="11" lengthAdjust="spacing" textLength="99" x="1161" y="195.3433">abstract methods</text><line style="stroke:#A80036;stroke-width:1.5;" x1="1260" x2="1327.5" y1="192.0352" y2="192.0352"/><!--MD5=[b51717a605764d924c74fe29f3a07c77]
class TutorialType--><rect codeLine="18" fill="#FEFECE" filter="url(#fpw6c2y6srwhf)" height="86.4141" id="TutorialType" style="stroke:#A80036;stroke-width:1.5;" width="106" x="943.5" y="88"/><ellipse cx="958.5" cy="104" fill="#EB937F" rx="11" ry="11" style="stroke:#A80036;stroke-width:1.0;"/><path d="M957.2969,104.875 L958.75,104.875 L958.75,104.9844 C958.75,105.3906 958.7813,105.5469 958.8594,105.7031 C959.0156,105.9531 959.2969,106.1094 959.5938,106.1094 C959.8438,106.1094 960.1094,105.9688 960.2656,105.75 C960.3906,105.5938 960.4219,105.4375 960.4219,104.9844 L960.4219,103.0625 C960.4219,102.9063 960.4219,102.8594 960.4063,102.7031 C960.3438,102.2344 960.0313,101.9219 959.5781,101.9219 C959.3281,101.9219 959.0625,102.0625 958.8906,102.2813 C958.7813,102.4531 958.75,102.6094 958.75,103.0625 L958.75,103.1875 L957.2969,103.1875 L957.2969,100.7813 L961.2813,100.7813 L961.2813,101.6406 C961.2813,102.0469 961.3125,102.2188 961.3906,102.375 C961.5625,102.625 961.8438,102.7813 962.125,102.7813 C962.3906,102.7813 962.6563,102.6406 962.8281,102.4219 C962.9375,102.25 962.9688,102.1094 962.9688,101.6406 L962.9688,99.0938 L955.3438,99.0938 C954.9063,99.0938 954.7813,99.1094 954.625,99.2031 C954.375,99.3594 954.2188,99.6563 954.2188,99.9375 C954.2188,100.2188 954.3594,100.4688 954.5781,100.6406 C954.7344,100.75 954.9219,100.7813 955.3438,100.7813 L955.5938,100.7813 L955.5938,107.2969 L955.3438,107.2969 C954.9375,107.2969 954.7813,107.3125 954.625,107.4219 C954.375,107.5938 954.2188,107.8594 954.2188,108.1563 C954.2188,108.4219 954.3594,108.6719 954.5781,108.8281 C954.7188,108.9531 954.9531,109 955.3438,109 L963.3438,109 L963.3438,106.4219 C963.3438,105.9844 963.3125,105.8438 963.2344,105.6875 C963.0625,105.4375 962.7813,105.2813 962.5,105.2813 C962.2344,105.2813 961.9688,105.3906 961.7969,105.6406 C961.6875,105.7969 961.6563,105.9375 961.6563,106.4219 L961.6563,107.2969 L957.2969,107.2969 L957.2969,104.875 Z " fill="#000000"/><text fill="#000000" font-family="sans-serif" font-size="12" lengthAdjust="spacing" textLength="74" x="972.5" y="108.1543">TutorialType</text><line style="stroke:#A80036;stroke-width:1.5;" x1="944.5" x2="1048.5" y1="120" y2="120"/><text fill="#000000" font-family="sans-serif" font-size="11" lengthAdjust="spacing" textLength="35" x="949.5" y="134.2104">ZOOM</text><text fill="#000000" font-family="sans-serif" font-size="11" lengthAdjust="spacing" textLength="78" x="949.5" y="147.0151">EYETRACKING</text><text fill="#000000" font-family="sans-serif" font-size="11" lengthAdjust="spacing" textLength="79" x="949.5" y="159.8198">CODECHARTS</text><line style="stroke:#A80036;stroke-width:1.5;" x1="944.5" x2="1048.5" y1="166.4141" y2="166.4141"/><!--MD5=[626b00d2609f42ba755c8afb6d5f2b59]
class Bild--><rect codeLine="31" fill="#FEFECE" filter="url(#fpw6c2y6srwhf)" height="73.6094" id="Bild" style="stroke:#A80036;stroke-width:1.5;" width="147" x="7" y="94"/><ellipse cx="65.25" cy="110" fill="#A9DCDF" rx="11" ry="11" style="stroke:#A80036;stroke-width:1.0;"/><path d="M67.3281,111.8125 L67.7188,112.7969 L67.3281,112.7969 C66.875,112.7969 66.7656,112.8125 66.6094,112.9219 C66.3594,113.0781 66.2031,113.3594 66.2031,113.6563 C66.2031,113.9219 66.3438,114.1719 66.5625,114.3281 C66.7031,114.4531 66.9063,114.5 67.3281,114.5 L69.6875,114.5 C70.0469,114.5 70.2656,114.4688 70.4063,114.375 C70.6563,114.2344 70.8125,113.9375 70.8125,113.6563 C70.8125,113.375 70.6719,113.125 70.4531,112.9688 C70.2813,112.8281 70.125,112.7969 69.6563,112.7969 L66.2656,104.5938 L62.5938,104.5938 C62.1406,104.5938 62.0156,104.6094 61.8594,104.7031 C61.6094,104.875 61.4531,105.1563 61.4531,105.4375 C61.4531,105.7188 61.5938,105.9688 61.8125,106.1406 C61.9844,106.25 62.1563,106.2813 62.5938,106.2813 L63.6719,106.2813 L61.0313,112.7969 C60.6094,112.7969 60.4531,112.8125 60.2969,112.9219 C60.0469,113.0781 59.8906,113.3594 59.8906,113.6563 C59.8906,114.2188 60.2656,114.5 61.0156,114.5 L63.2813,114.5 C63.6406,114.5 63.8594,114.4688 63.9844,114.375 C64.25,114.2344 64.3906,113.9375 64.3906,113.6563 C64.3906,113.375 64.2656,113.125 64.0469,112.9531 C63.875,112.8281 63.7344,112.7969 63.2813,112.7969 L62.8906,112.7969 L63.2813,111.8125 L67.3281,111.8125 Z M66.625,110.1094 L63.9531,110.1094 L65.2969,106.8438 L66.625,110.1094 Z " fill="#000000"/><text fill="#000000" font-family="sans-serif" font-size="12" font-style="italic" lengthAdjust="spacing" textLength="22" x="85.75" y="114.1543">Bild</text><line style="stroke:#A80036;stroke-width:1.5;" x1="8" x2="153" y1="126" y2="126"/><line style="stroke:#A80036;stroke-width:1.5;" x1="8" x2="153" y1="134" y2="134"/><ellipse cx="18" cy="145" fill="#84BE84" rx="3" ry="3" style="stroke:#038048;stroke-width:1.0;"/><text fill="#000000" font-family="sans-serif" font-size="11" lengthAdjust="spacing" textLength="121" x="27" y="148.2104">load(url: String) : void</text><ellipse cx="18" cy="157.8047" fill="#84BE84" rx="3" ry="3" style="stroke:#038048;stroke-width:1.0;"/><text fill="#000000" font-family="sans-serif" font-size="11" lengthAdjust="spacing" textLength="72" x="27" y="161.0151">show() : void</text><!--MD5=[9bdf74ba08b45b42d4b5e25d73cb2a49]
link TutorialType to Tutorial--><path codeLine="25" d="M1049.5,99.509 C1059.63,95.294 1070.52,91.959 1081.46,90.628 " fill="none" id="TutorialType-Tutorial" style="stroke:#A80036;stroke-width:1.0;"/><line style="stroke:#A80036;stroke-width:1.0;" x1="1081.46" x2="1091.5" y1="90.628" y2="90"/><!--MD5=[fc4ffdc4bb2ac5a3cd1bd4c856213de4]
link Tutorial to Config--><path codeLine="26" d="M1151.17,218.216 C1118.09,266.298 1079.21,322.79 1057.15,354.845 " fill="none" id="Tutorial-Config" style="stroke:#A80036;stroke-width:1.0;"/><!--MD5=[c900c8497a661fa4184b5bb04c49372f]
reverse link Bild to CodeChartsBild--><path codeLine="108" d="M118.482,184.436 C153.261,232.45 203.82,302.25 234.295,344.322 " fill="none" id="Bild-backto-CodeChartsBild" style="stroke:#A80036;stroke-width:1.0;"/><polygon fill="none" points="112.737,188.438,106.6735,168.134,124.075,180.225,112.737,188.438" style="stroke:#A80036;stroke-width:1.0;"/><!--MD5=[1e1b7046ac2ce77f5695cfbd942bbe9e]
reverse link Tutorial to CodeChartsTutorial--><path codeLine="109" d="M1067.11,221.166 C1007.03,257.242 955.944,287.099 911.621,312.76 " fill="none" id="Tutorial-backto-CodeChartsTutorial" style="stroke:#A80036;stroke-width:1.0;"/><polygon fill="none" points="1063.56,215.137,1084.3,210.824,1070.77,227.133,1063.56,215.137" style="stroke:#A80036;stroke-width:1.0;"/><!--MD5=[330c08158d1b261bc3f75486c3c78546]
link CodeChartsCoordinator to CodeChartsBild--><path codeLine="112" d="M433.5,167 C343.334,167 292.008,283.37 271.319,344.283 " fill="none" id="CodeChartsCoordinator-CodeChartsBild" style="stroke:#A80036;stroke-width:1.0;"/><!--MD5=[af7fa7eefc847a19c654188e611c6a01]
link CodeChartsCoordinator to CodeChartsRaster--><path codeLine="113" d="M433.5,195 C383.544,195 398.716,249.1 388.5,298 C372.626,373.985 381.241,462.36 392,525.788 " fill="none" id="CodeChartsCoordinator-CodeChartsRaster" style="stroke:#A80036;stroke-width:1.0;"/><!--MD5=[acd6e22bd1b43ca41d1e169d29f8f975]
link CodeChartsCoordinator to CodeChartsEingabefenster--><path codeLine="114" d="M613.5,167 C679.871,167 623.298,255.692 574.691,318.747 " fill="none" id="CodeChartsCoordinator-CodeChartsEingabefenster" style="stroke:#A80036;stroke-width:1.0;"/><!--MD5=[45be10fb9057243d989f7112dab584ae]
link CodeChartsCoordinator to CodeChartsTutorial--><path codeLine="115" d="M613.5,207 C642.146,207 689.108,253.128 727.88,297.815 " fill="none" id="CodeChartsCoordinator-CodeChartsTutorial" style="stroke:#A80036;stroke-width:1.0;"/><!--MD5=[430173a8cceee07f962d4a39f48ec6f9]
link CodeChartsRaster to CodeChartsInternerSpeicher--><path codeLine="117" d="M410.5,698.113 C410.5,718.879 410.5,740.43 410.5,758.949 " fill="none" id="CodeChartsRaster-CodeChartsInternerSpeicher" style="stroke:#A80036;stroke-width:1.0;"/><!--MD5=[785a98a2d4f001b3a7e96305a4636287]
link CodeChartsEingabefenster to CodeChartsRaster--><path codeLine="118" d="M493.069,444.034 C480.649,469.149 466.077,498.617 452.659,525.749 " fill="none" id="CodeChartsEingabefenster-CodeChartsRaster" style="stroke:#A80036;stroke-width:1.0;"/><!--MD5=[98ba0babc1f2c9ceb0957566289f4661]
link CodeChartsInternerSpeicher to SpeicherMedium--><path codeLine="123" d="M577.5,847 C641.224,847 533.834,905.0974 463.714,939.9332 " fill="none" id="CodeChartsInternerSpeicher-SpeicherMedium" style="stroke:#A80036;stroke-width:1.0;"/><polygon fill="#000000" points="550.6275,904.7292,559.492,901.2838,555.7739,896.7314,550.6275,904.7292" style="stroke:#000000;stroke-width:1.0;"/><text fill="#000000" font-family="sans-serif" font-size="13" lengthAdjust="spacing" textLength="73" x="563.5" y="906.0669">saves Data</text><!--MD5=[ba0b6aad62bad149f99973f5ab313e4e]
link CodeChartsCoordinator to Config--><path codeLine="125" d="M613.5,167 C779.367,167 946.73,297.962 1011.5,354.747 " fill="none" id="CodeChartsCoordinator-Config" style="stroke:#A80036;stroke-width:1.0;"/><polygon fill="#000000" points="896.9779,257.4332,903.9046,263.9502,906.4123,258.6342,896.9779,257.4332" style="stroke:#000000;stroke-width:1.0;"/><text fill="#000000" font-family="sans-serif" font-size="13" lengthAdjust="spacing" textLength="100" x="910.5" y="264.0669">gets Initial Data</text><!--MD5=[9e25de838fe4198c1aaef3c3f4923d07]
@startuml
' skinparam backgroundColor transparent
'() System #DA70D5
top to bottom direction

' - - - TUTORIAL - - -
abstract Tutorial<t: TutorialType> {
  - t: TutorialType
  __public method__
  + start() : void
  __private methods__
  - getConfigState() : boolean
  - setConfigState(state: boolean) : void
  - show() : boolean
  __abstract methods__
  - {abstract} tutorial() : void
}

enum TutorialType {
  ZOOM
  EYETRACKING
  CODECHARTS
}

' Interaktionen
Tutorial::t -l- TutorialType
Tutorial -d- Config


' - - - BILD - - -

abstract Bild {
  + load(url: String) : void
  + show() : void
}

' === CODE CHARTS ===
package CodeCharts {

    ' CodeCharts Tutorial 
    class CodeChartsTutorial {
      - t: TutorialType
      __public method__
      + start() : void
      __private methods__
      - getConfigState() : boolean
      - setConfigState(state: boolean) : void
      - show() : boolean
      __abstract methods__
      - {abstract} tutorial() : void
    }
  
    ' CodeCharts Coordinator
    class CodeChartsCoordinator {
        - speed: float[2]
        - isTutorial: boolean
        - isRelative: boolean
        - dimensions: int[2]
        - strings: String[..]
        __public method__
        + startCodeCharts() : void
        __private methods__
        - loadConfigData() : boolean
        - tryTutorial() : void
    }

    ' CodeCharts Interner Speicher
    class CodeChartsInternerSpeicher {
        __public method__
        + addPic(pic: unknown) : void
        + addSizeAndKord(size: int[2], coordinates: int[2]) : void
        + saveData() : boolean
    }

    ' CodeCharts Bild
    class CodeChartsBild {
        ' Unsicher ob es sinnvoll ist das Bild vorzuladen
        + load(url: String) : void
        + show() : void
    }

    ' CodeCharts Raster
    class CodeChartsRaster {
        ' Unsicher ob es sinnvoll ist alle vorherigen Durchläufe auf einmal zu laden
        - dimensions: int[2]
        - strings: String[..]
        - kords: int[2]
        __public method__ 
        + setData(dimensions: int[2], strings: String[..]):void
        + show() : void
        + calculate() : void
        __private methods__
        - loadPastRuns() : void
        - sendData() : void
    }

    ' CodeCharts Eingabefenster
    class CodeChartsEingabefenster {
        __public method__
        + show() : String
        __private methods__
        - checkButton() : boolean
        - validateString(input: String): boolean
        - ErrorMessage() : void
    }


    ' Vererbungen
    Bild <|-d- CodeChartsBild
    Tutorial <|-d- CodeChartsTutorial

    ' Interaktionen
    CodeChartsCoordinator::startCodeCharts - - CodeChartsBild
    CodeChartsCoordinator::loadConfigData - - CodeChartsRaster
    CodeChartsCoordinator::startCodeCharts - - CodeChartsEingabefenster
    CodeChartsCoordinator::tryTutorial - - CodeChartsTutorial
    ' load & send Kante?
    CodeChartsRaster - - CodeChartsInternerSpeicher
    CodeChartsEingabefenster - - CodeChartsRaster



    ' Andere Module
    CodeChartsInternerSpeicher::saveData - - SpeicherMedium : > saves Data
    ' von startCodeCharts oder von loadConfigData
    CodeChartsCoordinator::startCodeCharts - - Config : < gets Initial Data
  
}

' Blackboxen / Andere Module
package Config {}

package SpeicherMedium {}
@enduml

@startuml
top to bottom direction

abstract Tutorial<t: TutorialType> {
  - t: TutorialType
  __public method__
  + start() : void
  __private methods__
  - getConfigState() : boolean
  - setConfigState(state: boolean) : void
  - show() : boolean
  __abstract methods__
  - {abstract} tutorial() : void
}

enum TutorialType {
  ZOOM
  EYETRACKING
  CODECHARTS
}

Tutorial::t -l- TutorialType
Tutorial -d- Config



abstract Bild {
  + load(url: String) : void
  + show() : void
}

package CodeCharts {

    class CodeChartsTutorial {
      - t: TutorialType
      __public method__
      + start() : void
      __private methods__
      - getConfigState() : boolean
      - setConfigState(state: boolean) : void
      - show() : boolean
      __abstract methods__
      - {abstract} tutorial() : void
    }
  
    class CodeChartsCoordinator {
        - speed: float[2]
        - isTutorial: boolean
        - isRelative: boolean
        - dimensions: int[2]
        - strings: String[..]
        __public method__
        + startCodeCharts() : void
        __private methods__
        - loadConfigData() : boolean
        - tryTutorial() : void
    }

    class CodeChartsInternerSpeicher {
        __public method__
        + addPic(pic: unknown) : void
        + addSizeAndKord(size: int[2], coordinates: int[2]) : void
        + saveData() : boolean
    }

    class CodeChartsBild {
        + load(url: String) : void
        + show() : void
    }

    class CodeChartsRaster {
        - dimensions: int[2]
        - strings: String[..]
        - kords: int[2]
        __public method__ 
        + setData(dimensions: int[2], strings: String[..]):void
        + show() : void
        + calculate() : void
        __private methods__
        - loadPastRuns() : void
        - sendData() : void
    }

    class CodeChartsEingabefenster {
        __public method__
        + show() : String
        __private methods__
        - checkButton() : boolean
        - validateString(input: String): boolean
        - ErrorMessage() : void
    }


    Bild <|-d- CodeChartsBild
    Tutorial <|-d- CodeChartsTutorial

    CodeChartsCoordinator::startCodeCharts - - CodeChartsBild
    CodeChartsCoordinator::loadConfigData - - CodeChartsRaster
    CodeChartsCoordinator::startCodeCharts - - CodeChartsEingabefenster
    CodeChartsCoordinator::tryTutorial - - CodeChartsTutorial
    CodeChartsRaster - - CodeChartsInternerSpeicher
    CodeChartsEingabefenster - - CodeChartsRaster



    CodeChartsInternerSpeicher::saveData - - SpeicherMedium : > saves Data
    CodeChartsCoordinator::startCodeCharts - - Config : < gets Initial Data
  
}

package Config {}

package SpeicherMedium {}
@enduml

PlantUML version 1.2021.13beta8(Unknown compile time)
(GPL source distribution)
Java Runtime: Java(TM) SE Runtime Environment
JVM: Java HotSpot(TM) 64-Bit Server VM
Default Encoding: UTF-8
Language: en
Country: US
--></g></svg>