<?xml version="1.0" encoding="UTF-8" standalone="no"?><svg xmlns="http://www.w3.org/2000/svg" xmlns:xlink="http://www.w3.org/1999/xlink" contentScriptType="application/ecmascript" contentStyleType="text/css" height="679px" preserveAspectRatio="none" style="width:1662px;height:679px;background:#FFFFFF;" version="1.1" viewBox="0 0 1662 679" width="1662px" zoomAndPan="magnify"><defs><filter height="300%" id="frxdh95t2k16g" width="300%" x="-1" y="-1"><feGaussianBlur result="blurOut" stdDeviation="2.0"/><feColorMatrix in="blurOut" result="blurOut2" type="matrix" values="0 0 0 0 0 0 0 0 0 0 0 0 0 0 0 0 0 0 .4 0"/><feOffset dx="4.0" dy="4.0" in="blurOut2" result="blurOut3"/><feBlend in="SourceGraphic" in2="blurOut3" mode="normal"/></filter></defs><g><!--MD5=[a55135535b5c544b99c33b17428c3b14]
cluster Util--><polygon fill="#FFFFFF" filter="url(#frxdh95t2k16g)" points="16,6,51,6,58,28.2969,499,28.2969,499,405.5,16,405.5,16,6" style="stroke:#000000;stroke-width:1.5;"/><line style="stroke:#000000;stroke-width:1.5;" x1="16" x2="58" y1="28.2969" y2="28.2969"/><text fill="#000000" font-family="sans-serif" font-size="14" font-weight="bold" lengthAdjust="spacing" textLength="29" x="20" y="20.9951">Util</text><!--MD5=[bd4ed236a13575a9dcf49b2316e757e7]
cluster CodeCharts--><polygon fill="#FFFFFF" filter="url(#frxdh95t2k16g)" points="523,183,622,183,629,205.2969,1474,205.2969,1474,672,523,672,523,183" style="stroke:#000000;stroke-width:1.5;"/><line style="stroke:#000000;stroke-width:1.5;" x1="523" x2="629" y1="205.2969" y2="205.2969"/><text fill="#000000" font-family="sans-serif" font-size="14" font-weight="bold" lengthAdjust="spacing" textLength="93" x="527" y="197.9951">CodeCharts</text><!--MD5=[fccc419d627b37790932ddb688fb7ad6]
class Tutorial--><rect codeLine="7" fill="#FEFECE" filter="url(#frxdh95t2k16g)" height="167.2422" id="Tutorial" style="stroke:#A80036;stroke-width:1.5;" width="236" x="247" y="222.5"/><ellipse cx="303.25" cy="238.5" fill="#A9DCDF" rx="11" ry="11" style="stroke:#A80036;stroke-width:1.0;"/><path d="M305.3281,240.3125 L305.7188,241.2969 L305.3281,241.2969 C304.875,241.2969 304.7656,241.3125 304.6094,241.4219 C304.3594,241.5781 304.2031,241.8594 304.2031,242.1563 C304.2031,242.4219 304.3438,242.6719 304.5625,242.8281 C304.7031,242.9531 304.9063,243 305.3281,243 L307.6875,243 C308.0469,243 308.2656,242.9688 308.4063,242.875 C308.6563,242.7344 308.8125,242.4375 308.8125,242.1563 C308.8125,241.875 308.6719,241.625 308.4531,241.4688 C308.2813,241.3281 308.125,241.2969 307.6563,241.2969 L304.2656,233.0938 L300.5938,233.0938 C300.1406,233.0938 300.0156,233.1094 299.8594,233.2031 C299.6094,233.375 299.4531,233.6563 299.4531,233.9375 C299.4531,234.2188 299.5938,234.4688 299.8125,234.6406 C299.9844,234.75 300.1563,234.7813 300.5938,234.7813 L301.6719,234.7813 L299.0313,241.2969 C298.6094,241.2969 298.4531,241.3125 298.2969,241.4219 C298.0469,241.5781 297.8906,241.8594 297.8906,242.1563 C297.8906,242.7188 298.2656,243 299.0156,243 L301.2813,243 C301.6406,243 301.8594,242.9688 301.9844,242.875 C302.25,242.7344 302.3906,242.4375 302.3906,242.1563 C302.3906,241.875 302.2656,241.625 302.0469,241.4531 C301.875,241.3281 301.7344,241.2969 301.2813,241.2969 L300.8906,241.2969 L301.2813,240.3125 L305.3281,240.3125 Z M304.625,238.6094 L301.9531,238.6094 L303.2969,235.3438 L304.625,238.6094 Z " fill="#000000"/><text fill="#000000" font-family="sans-serif" font-size="12" font-style="italic" lengthAdjust="spacing" textLength="45" x="323.75" y="242.6543">Tutorial</text><rect fill="#FFFFFF" height="15.9688" style="stroke:#000000;stroke-width:1.0;stroke-dasharray:2.0,2.0;" width="68" x="418" y="219.5"/><text fill="#000000" font-family="sans-serif" font-size="12" font-style="italic" lengthAdjust="spacing" textLength="66" x="419" y="231.6387">t: ToolType</text><line style="stroke:#A80036;stroke-width:1.5;" x1="248" x2="482" y1="254.5" y2="254.5"/><rect fill="none" height="6" style="stroke:#C82930;stroke-width:1.0;" width="6" x="255" y="262.5"/><text fill="#000000" font-family="sans-serif" font-size="11" lengthAdjust="spacing" textLength="64" x="267" y="268.7104">t: ToolType</text><ellipse cx="258" cy="295.1094" fill="#84BE84" rx="3" ry="3" style="stroke:#038048;stroke-width:1.0;"/><text fill="#000000" font-family="sans-serif" font-size="11" lengthAdjust="spacing" textLength="68" x="267" y="298.3198">start() : void</text><line style="stroke:#A80036;stroke-width:1.5;" x1="248" x2="324.5" y1="281.707" y2="281.707"/><text fill="#000000" font-family="sans-serif" font-size="11" lengthAdjust="spacing" textLength="81" x="324.5" y="285.0151">public method</text><line style="stroke:#A80036;stroke-width:1.5;" x1="405.5" x2="482" y1="281.707" y2="281.707"/><rect fill="#F24D5C" height="6" style="stroke:#C82930;stroke-width:1.0;" width="6" x="255" y="321.7188"/><text fill="#000000" font-family="sans-serif" font-size="11" lengthAdjust="spacing" textLength="151" x="267" y="327.9292">getConfigState() : boolean</text><rect fill="#F24D5C" height="6" style="stroke:#C82930;stroke-width:1.0;" width="6" x="255" y="334.5234"/><text fill="#000000" font-family="sans-serif" font-size="11" lengthAdjust="spacing" textLength="210" x="267" y="340.7339">setConfigState(state: boolean) : void</text><rect fill="#F24D5C" height="6" style="stroke:#C82930;stroke-width:1.0;" width="6" x="255" y="347.3281"/><text fill="#000000" font-family="sans-serif" font-size="11" lengthAdjust="spacing" textLength="94" x="267" y="353.5386">show() : boolean</text><line style="stroke:#A80036;stroke-width:1.5;" x1="248" x2="318" y1="311.3164" y2="311.3164"/><text fill="#000000" font-family="sans-serif" font-size="11" lengthAdjust="spacing" textLength="94" x="318" y="314.6245">private methods</text><line style="stroke:#A80036;stroke-width:1.5;" x1="412" x2="482" y1="311.3164" y2="311.3164"/><rect fill="#F24D5C" height="6" style="stroke:#C82930;stroke-width:1.0;" width="6" x="255" y="376.9375"/><text fill="#000000" font-family="sans-serif" font-size="11" font-style="italic" lengthAdjust="spacing" textLength="84" x="267" y="383.1479">tutorial() : void</text><line style="stroke:#A80036;stroke-width:1.5;" x1="248" x2="315.5" y1="366.5352" y2="366.5352"/><text fill="#000000" font-family="sans-serif" font-size="11" lengthAdjust="spacing" textLength="99" x="315.5" y="369.8433">abstract methods</text><line style="stroke:#A80036;stroke-width:1.5;" x1="414.5" x2="482" y1="366.5352" y2="366.5352"/><!--MD5=[5c39798b83ace9e75333b1274a725e6c]
class ToolType--><rect codeLine="19" fill="#FEFECE" filter="url(#frxdh95t2k16g)" height="86.4141" id="ToolType" style="stroke:#A80036;stroke-width:1.5;" width="91" x="32.5" y="45.5"/><ellipse cx="48.85" cy="61.5" fill="#EB937F" rx="11" ry="11" style="stroke:#A80036;stroke-width:1.0;"/><path d="M47.6469,62.375 L49.1,62.375 L49.1,62.4844 C49.1,62.8906 49.1313,63.0469 49.2094,63.2031 C49.3656,63.4531 49.6469,63.6094 49.9438,63.6094 C50.1938,63.6094 50.4594,63.4688 50.6156,63.25 C50.7406,63.0938 50.7719,62.9375 50.7719,62.4844 L50.7719,60.5625 C50.7719,60.4063 50.7719,60.3594 50.7563,60.2031 C50.6938,59.7344 50.3813,59.4219 49.9281,59.4219 C49.6781,59.4219 49.4125,59.5625 49.2406,59.7813 C49.1313,59.9531 49.1,60.1094 49.1,60.5625 L49.1,60.6875 L47.6469,60.6875 L47.6469,58.2813 L51.6313,58.2813 L51.6313,59.1406 C51.6313,59.5469 51.6625,59.7188 51.7406,59.875 C51.9125,60.125 52.1938,60.2813 52.475,60.2813 C52.7406,60.2813 53.0063,60.1406 53.1781,59.9219 C53.2875,59.75 53.3188,59.6094 53.3188,59.1406 L53.3188,56.5938 L45.6938,56.5938 C45.2563,56.5938 45.1313,56.6094 44.975,56.7031 C44.725,56.8594 44.5688,57.1563 44.5688,57.4375 C44.5688,57.7188 44.7094,57.9688 44.9281,58.1406 C45.0844,58.25 45.2719,58.2813 45.6938,58.2813 L45.9438,58.2813 L45.9438,64.7969 L45.6938,64.7969 C45.2875,64.7969 45.1313,64.8125 44.975,64.9219 C44.725,65.0938 44.5688,65.3594 44.5688,65.6563 C44.5688,65.9219 44.7094,66.1719 44.9281,66.3281 C45.0688,66.4531 45.3031,66.5 45.6938,66.5 L53.6938,66.5 L53.6938,63.9219 C53.6938,63.4844 53.6625,63.3438 53.5844,63.1875 C53.4125,62.9375 53.1313,62.7813 52.85,62.7813 C52.5844,62.7813 52.3188,62.8906 52.1469,63.1406 C52.0375,63.2969 52.0063,63.4375 52.0063,63.9219 L52.0063,64.7969 L47.6469,64.7969 L47.6469,62.375 Z " fill="#000000"/><text fill="#000000" font-family="sans-serif" font-size="12" lengthAdjust="spacing" textLength="56" x="63.15" y="65.6543">ToolType</text><line style="stroke:#A80036;stroke-width:1.5;" x1="33.5" x2="122.5" y1="77.5" y2="77.5"/><text fill="#000000" font-family="sans-serif" font-size="11" lengthAdjust="spacing" textLength="35" x="38.5" y="91.7104">ZOOM</text><text fill="#000000" font-family="sans-serif" font-size="11" lengthAdjust="spacing" textLength="78" x="38.5" y="104.5151">EYETRACKING</text><text fill="#000000" font-family="sans-serif" font-size="11" lengthAdjust="spacing" textLength="79" x="38.5" y="117.3198">CODECHARTS</text><line style="stroke:#A80036;stroke-width:1.5;" x1="33.5" x2="122.5" y1="123.9141" y2="123.9141"/><!--MD5=[60c9ed31c535bee25c55ce21b5b01399]
class Data--><rect codeLine="40" fill="#FEFECE" filter="url(#frxdh95t2k16g)" height="86.4141" id="Data" style="stroke:#A80036;stroke-width:1.5;" width="129" x="158.5" y="45.5"/><ellipse cx="173.5" cy="61.5" fill="#ADD1B2" rx="11" ry="11" style="stroke:#A80036;stroke-width:1.0;"/><path d="M175.8438,57.1719 C174.9063,56.7344 174.3125,56.5938 173.4375,56.5938 C170.8125,56.5938 168.8125,58.6719 168.8125,61.3906 L168.8125,62.5156 C168.8125,65.0938 170.9219,66.9844 173.8125,66.9844 C175.0313,66.9844 176.1875,66.6875 176.9375,66.1406 C177.5156,65.7344 177.8438,65.2813 177.8438,64.8906 C177.8438,64.4375 177.4531,64.0469 176.9844,64.0469 C176.7656,64.0469 176.5625,64.125 176.375,64.3125 C175.9219,64.7969 175.9219,64.7969 175.7344,64.8906 C175.3125,65.1563 174.625,65.2813 173.8594,65.2813 C171.8125,65.2813 170.5156,64.1875 170.5156,62.4844 L170.5156,61.3906 C170.5156,59.6094 171.7656,58.2969 173.5,58.2969 C174.0781,58.2969 174.6875,58.4531 175.1563,58.7031 C175.6406,58.9844 175.8125,59.2031 175.9063,59.6094 C175.9688,60.0156 176,60.1406 176.1406,60.2656 C176.2813,60.4063 176.5156,60.5156 176.7344,60.5156 C177,60.5156 177.2656,60.375 177.4375,60.1563 C177.5469,60 177.5781,59.8125 177.5781,59.3906 L177.5781,57.9688 C177.5781,57.5313 177.5625,57.4063 177.4688,57.25 C177.3125,56.9844 177.0313,56.8438 176.7344,56.8438 C176.4375,56.8438 176.2344,56.9375 176.0156,57.25 L175.8438,57.1719 Z " fill="#000000"/><text fill="#000000" font-family="sans-serif" font-size="12" lengthAdjust="spacing" textLength="27" x="187.5" y="65.6543">Data</text><rect fill="#FFFFFF" height="15.9688" style="stroke:#000000;stroke-width:1.0;stroke-dasharray:2.0,2.0;" width="68" x="222.5" y="42.5"/><text fill="#000000" font-family="sans-serif" font-size="12" font-style="italic" lengthAdjust="spacing" textLength="66" x="223.5" y="54.6387">t: ToolType</text><line style="stroke:#A80036;stroke-width:1.5;" x1="159.5" x2="286.5" y1="77.5" y2="77.5"/><ellipse cx="169.5" cy="88.5" rx="3" ry="3" style="stroke:#038048;stroke-width:1.0;fill:none;"/><text fill="#000000" font-family="sans-serif" font-size="11" lengthAdjust="spacing" textLength="64" x="178.5" y="91.7104">t: ToolType</text><ellipse cx="169.5" cy="101.3047" rx="3" ry="3" style="stroke:#038048;stroke-width:1.0;fill:none;"/><text fill="#000000" font-family="sans-serif" font-size="11" lengthAdjust="spacing" textLength="82" x="178.5" y="104.5151">data: unknown</text><ellipse cx="169.5" cy="114.1094" rx="3" ry="3" style="stroke:#038048;stroke-width:1.0;fill:none;"/><text fill="#000000" font-family="sans-serif" font-size="11" lengthAdjust="spacing" textLength="71" x="178.5" y="117.3198">config_id: int</text><line style="stroke:#A80036;stroke-width:1.5;" x1="159.5" x2="286.5" y1="123.9141" y2="123.9141"/><!--MD5=[626b00d2609f42ba755c8afb6d5f2b59]
class Bild--><rect codeLine="33" fill="#FEFECE" filter="url(#frxdh95t2k16g)" height="95.2188" id="Bild" style="stroke:#A80036;stroke-width:1.5;" width="160" x="323" y="41"/><ellipse cx="387.75" cy="57" fill="#A9DCDF" rx="11" ry="11" style="stroke:#A80036;stroke-width:1.0;"/><path d="M389.8281,58.8125 L390.2188,59.7969 L389.8281,59.7969 C389.375,59.7969 389.2656,59.8125 389.1094,59.9219 C388.8594,60.0781 388.7031,60.3594 388.7031,60.6563 C388.7031,60.9219 388.8438,61.1719 389.0625,61.3281 C389.2031,61.4531 389.4063,61.5 389.8281,61.5 L392.1875,61.5 C392.5469,61.5 392.7656,61.4688 392.9063,61.375 C393.1563,61.2344 393.3125,60.9375 393.3125,60.6563 C393.3125,60.375 393.1719,60.125 392.9531,59.9688 C392.7813,59.8281 392.625,59.7969 392.1563,59.7969 L388.7656,51.5938 L385.0938,51.5938 C384.6406,51.5938 384.5156,51.6094 384.3594,51.7031 C384.1094,51.875 383.9531,52.1563 383.9531,52.4375 C383.9531,52.7188 384.0938,52.9688 384.3125,53.1406 C384.4844,53.25 384.6563,53.2813 385.0938,53.2813 L386.1719,53.2813 L383.5313,59.7969 C383.1094,59.7969 382.9531,59.8125 382.7969,59.9219 C382.5469,60.0781 382.3906,60.3594 382.3906,60.6563 C382.3906,61.2188 382.7656,61.5 383.5156,61.5 L385.7813,61.5 C386.1406,61.5 386.3594,61.4688 386.4844,61.375 C386.75,61.2344 386.8906,60.9375 386.8906,60.6563 C386.8906,60.375 386.7656,60.125 386.5469,59.9531 C386.375,59.8281 386.2344,59.7969 385.7813,59.7969 L385.3906,59.7969 L385.7813,58.8125 L389.8281,58.8125 Z M389.125,57.1094 L386.4531,57.1094 L387.7969,53.8438 L389.125,57.1094 Z " fill="#000000"/><text fill="#000000" font-family="sans-serif" font-size="12" font-style="italic" lengthAdjust="spacing" textLength="22" x="408.25" y="61.1543">Bild</text><line style="stroke:#A80036;stroke-width:1.5;" x1="324" x2="482" y1="73" y2="73"/><rect fill="none" height="6" style="stroke:#C82930;stroke-width:1.0;" width="6" x="331" y="81"/><text fill="#000000" font-family="sans-serif" font-size="11" lengthAdjust="spacing" textLength="84" x="343" y="87.2104">location: String</text><ellipse cx="334" cy="113.6094" fill="#84BE84" rx="3" ry="3" style="stroke:#038048;stroke-width:1.0;"/><text fill="#000000" font-family="sans-serif" font-size="11" lengthAdjust="spacing" textLength="134" x="343" y="116.8198">create(url: String) : void</text><ellipse cx="334" cy="126.4141" fill="#84BE84" rx="3" ry="3" style="stroke:#038048;stroke-width:1.0;"/><text fill="#000000" font-family="sans-serif" font-size="11" lengthAdjust="spacing" textLength="72" x="343" y="129.6245">show() : void</text><line style="stroke:#A80036;stroke-width:1.5;" x1="324" x2="362.5" y1="100.207" y2="100.207"/><text fill="#000000" font-family="sans-serif" font-size="11" lengthAdjust="spacing" textLength="81" x="362.5" y="103.5151">public method</text><line style="stroke:#A80036;stroke-width:1.5;" x1="443.5" x2="482" y1="100.207" y2="100.207"/><!--MD5=[81d462353594d8875238471802618d21]
class CodeChartsTutorial--><rect codeLine="51" fill="#FEFECE" filter="url(#frxdh95t2k16g)" height="60.8047" id="CodeChartsTutorial" style="stroke:#A80036;stroke-width:1.5;" width="146" x="539" y="533"/><ellipse cx="554" cy="549" fill="#ADD1B2" rx="11" ry="11" style="stroke:#A80036;stroke-width:1.0;"/><path d="M556.3438,544.6719 C555.4063,544.2344 554.8125,544.0938 553.9375,544.0938 C551.3125,544.0938 549.3125,546.1719 549.3125,548.8906 L549.3125,550.0156 C549.3125,552.5938 551.4219,554.4844 554.3125,554.4844 C555.5313,554.4844 556.6875,554.1875 557.4375,553.6406 C558.0156,553.2344 558.3438,552.7813 558.3438,552.3906 C558.3438,551.9375 557.9531,551.5469 557.4844,551.5469 C557.2656,551.5469 557.0625,551.625 556.875,551.8125 C556.4219,552.2969 556.4219,552.2969 556.2344,552.3906 C555.8125,552.6563 555.125,552.7813 554.3594,552.7813 C552.3125,552.7813 551.0156,551.6875 551.0156,549.9844 L551.0156,548.8906 C551.0156,547.1094 552.2656,545.7969 554,545.7969 C554.5781,545.7969 555.1875,545.9531 555.6563,546.2031 C556.1406,546.4844 556.3125,546.7031 556.4063,547.1094 C556.4688,547.5156 556.5,547.6406 556.6406,547.7656 C556.7813,547.9063 557.0156,548.0156 557.2344,548.0156 C557.5,548.0156 557.7656,547.875 557.9375,547.6563 C558.0469,547.5 558.0781,547.3125 558.0781,546.8906 L558.0781,545.4688 C558.0781,545.0313 558.0625,544.9063 557.9688,544.75 C557.8125,544.4844 557.5313,544.3438 557.2344,544.3438 C556.9375,544.3438 556.7344,544.4375 556.5156,544.75 L556.3438,544.6719 Z " fill="#000000"/><text fill="#000000" font-family="sans-serif" font-size="12" lengthAdjust="spacing" textLength="114" x="568" y="553.1543">CodeChartsTutorial</text><line style="stroke:#A80036;stroke-width:1.5;" x1="540" x2="684" y1="565" y2="565"/><line style="stroke:#A80036;stroke-width:1.5;" x1="540" x2="684" y1="573" y2="573"/><rect fill="#F24D5C" height="6" style="stroke:#C82930;stroke-width:1.0;" width="6" x="547" y="581"/><text fill="#000000" font-family="sans-serif" font-size="11" lengthAdjust="spacing" textLength="82" x="559" y="587.2104">tutorial() : void</text><!--MD5=[d6943c12ae734dbe1975a5489f85ab8f]
class CodeChartsCoordinator--><rect codeLine="56" fill="#FEFECE" filter="url(#frxdh95t2k16g)" height="176.0469" id="CodeChartsCoordinator" style="stroke:#A80036;stroke-width:1.5;" width="178" x="878" y="218"/><ellipse cx="895.25" cy="234" fill="#ADD1B2" rx="11" ry="11" style="stroke:#A80036;stroke-width:1.0;"/><path d="M897.5938,229.6719 C896.6563,229.2344 896.0625,229.0938 895.1875,229.0938 C892.5625,229.0938 890.5625,231.1719 890.5625,233.8906 L890.5625,235.0156 C890.5625,237.5938 892.6719,239.4844 895.5625,239.4844 C896.7813,239.4844 897.9375,239.1875 898.6875,238.6406 C899.2656,238.2344 899.5938,237.7813 899.5938,237.3906 C899.5938,236.9375 899.2031,236.5469 898.7344,236.5469 C898.5156,236.5469 898.3125,236.625 898.125,236.8125 C897.6719,237.2969 897.6719,237.2969 897.4844,237.3906 C897.0625,237.6563 896.375,237.7813 895.6094,237.7813 C893.5625,237.7813 892.2656,236.6875 892.2656,234.9844 L892.2656,233.8906 C892.2656,232.1094 893.5156,230.7969 895.25,230.7969 C895.8281,230.7969 896.4375,230.9531 896.9063,231.2031 C897.3906,231.4844 897.5625,231.7031 897.6563,232.1094 C897.7188,232.5156 897.75,232.6406 897.8906,232.7656 C898.0313,232.9063 898.2656,233.0156 898.4844,233.0156 C898.75,233.0156 899.0156,232.875 899.1875,232.6563 C899.2969,232.5 899.3281,232.3125 899.3281,231.8906 L899.3281,230.4688 C899.3281,230.0313 899.3125,229.9063 899.2188,229.75 C899.0625,229.4844 898.7813,229.3438 898.4844,229.3438 C898.1875,229.3438 897.9844,229.4375 897.7656,229.75 L897.5938,229.6719 Z " fill="#000000"/><text fill="#000000" font-family="sans-serif" font-size="12" lengthAdjust="spacing" textLength="141" x="909.75" y="238.1543">CodeChartsCoordinator</text><line style="stroke:#A80036;stroke-width:1.5;" x1="879" x2="1055" y1="250" y2="250"/><rect fill="none" height="6" style="stroke:#C82930;stroke-width:1.0;" width="6" x="886" y="258"/><text fill="#000000" font-family="sans-serif" font-size="11" lengthAdjust="spacing" textLength="80" x="898" y="264.2104">data: Util.Data</text><rect fill="none" height="6" style="stroke:#C82930;stroke-width:1.0;" width="6" x="886" y="270.8047"/><text fill="#000000" font-family="sans-serif" font-size="11" lengthAdjust="spacing" textLength="83" x="898" y="277.0151">speed: float[2]</text><rect fill="none" height="6" style="stroke:#C82930;stroke-width:1.0;" width="6" x="886" y="283.6094"/><text fill="#000000" font-family="sans-serif" font-size="11" lengthAdjust="spacing" textLength="104" x="898" y="289.8198">isTutorial: boolean</text><rect fill="none" height="6" style="stroke:#C82930;stroke-width:1.0;" width="6" x="886" y="296.4141"/><text fill="#000000" font-family="sans-serif" font-size="11" lengthAdjust="spacing" textLength="109" x="898" y="302.6245">isRelative: boolean</text><rect fill="none" height="6" style="stroke:#C82930;stroke-width:1.0;" width="6" x="886" y="309.2188"/><text fill="#000000" font-family="sans-serif" font-size="11" lengthAdjust="spacing" textLength="101" x="898" y="315.4292">dimensions: int[2]</text><rect fill="none" height="6" style="stroke:#C82930;stroke-width:1.0;" width="6" x="886" y="322.0234"/><text fill="#000000" font-family="sans-serif" font-size="11" lengthAdjust="spacing" textLength="91" x="898" y="328.2339">strings: String[..]</text><ellipse cx="889" cy="354.6328" fill="#84BE84" rx="3" ry="3" style="stroke:#038048;stroke-width:1.0;"/><text fill="#000000" font-family="sans-serif" font-size="11" lengthAdjust="spacing" textLength="134" x="898" y="357.8433">startCodeCharts() : void</text><line style="stroke:#A80036;stroke-width:1.5;" x1="879" x2="926.5" y1="341.2305" y2="341.2305"/><text fill="#000000" font-family="sans-serif" font-size="11" lengthAdjust="spacing" textLength="81" x="926.5" y="344.5386">public method</text><line style="stroke:#A80036;stroke-width:1.5;" x1="1007.5" x2="1055" y1="341.2305" y2="341.2305"/><rect fill="#F24D5C" height="6" style="stroke:#C82930;stroke-width:1.0;" width="6" x="886" y="381.2422"/><text fill="#000000" font-family="sans-serif" font-size="11" lengthAdjust="spacing" textLength="152" x="898" y="387.4526">loadConfigData() : boolean</text><line style="stroke:#A80036;stroke-width:1.5;" x1="879" x2="920" y1="370.8398" y2="370.8398"/><text fill="#000000" font-family="sans-serif" font-size="11" lengthAdjust="spacing" textLength="94" x="920" y="374.1479">private methods</text><line style="stroke:#A80036;stroke-width:1.5;" x1="1014" x2="1055" y1="370.8398" y2="370.8398"/><!--MD5=[48cc74a7e7e460afd8863a3fcc09bdcb]
class CodeChartsBild--><rect codeLine="70" fill="#FEFECE" filter="url(#frxdh95t2k16g)" height="48" id="CodeChartsBild" style="stroke:#A80036;stroke-width:1.5;" width="124" x="1334" y="539.5"/><ellipse cx="1349" cy="555.5" fill="#ADD1B2" rx="11" ry="11" style="stroke:#A80036;stroke-width:1.0;"/><path d="M1351.3438,551.1719 C1350.4063,550.7344 1349.8125,550.5938 1348.9375,550.5938 C1346.3125,550.5938 1344.3125,552.6719 1344.3125,555.3906 L1344.3125,556.5156 C1344.3125,559.0938 1346.4219,560.9844 1349.3125,560.9844 C1350.5313,560.9844 1351.6875,560.6875 1352.4375,560.1406 C1353.0156,559.7344 1353.3438,559.2813 1353.3438,558.8906 C1353.3438,558.4375 1352.9531,558.0469 1352.4844,558.0469 C1352.2656,558.0469 1352.0625,558.125 1351.875,558.3125 C1351.4219,558.7969 1351.4219,558.7969 1351.2344,558.8906 C1350.8125,559.1563 1350.125,559.2813 1349.3594,559.2813 C1347.3125,559.2813 1346.0156,558.1875 1346.0156,556.4844 L1346.0156,555.3906 C1346.0156,553.6094 1347.2656,552.2969 1349,552.2969 C1349.5781,552.2969 1350.1875,552.4531 1350.6563,552.7031 C1351.1406,552.9844 1351.3125,553.2031 1351.4063,553.6094 C1351.4688,554.0156 1351.5,554.1406 1351.6406,554.2656 C1351.7813,554.4063 1352.0156,554.5156 1352.2344,554.5156 C1352.5,554.5156 1352.7656,554.375 1352.9375,554.1563 C1353.0469,554 1353.0781,553.8125 1353.0781,553.3906 L1353.0781,551.9688 C1353.0781,551.5313 1353.0625,551.4063 1352.9688,551.25 C1352.8125,550.9844 1352.5313,550.8438 1352.2344,550.8438 C1351.9375,550.8438 1351.7344,550.9375 1351.5156,551.25 L1351.3438,551.1719 Z " fill="#000000"/><text fill="#000000" font-family="sans-serif" font-size="12" lengthAdjust="spacing" textLength="92" x="1363" y="559.6543">CodeChartsBild</text><line style="stroke:#A80036;stroke-width:1.5;" x1="1335" x2="1457" y1="571.5" y2="571.5"/><line style="stroke:#A80036;stroke-width:1.5;" x1="1335" x2="1457" y1="579.5" y2="579.5"/><!--MD5=[b9640045e029ffef06c931bcc3e11d89]
class CodeChartsRaster--><rect codeLine="74" fill="#FEFECE" filter="url(#frxdh95t2k16g)" height="184.8516" id="CodeChartsRaster" style="stroke:#A80036;stroke-width:1.5;" width="309" x="720.5" y="471"/><ellipse cx="816.75" cy="487" fill="#ADD1B2" rx="11" ry="11" style="stroke:#A80036;stroke-width:1.0;"/><path d="M819.0938,482.6719 C818.1563,482.2344 817.5625,482.0938 816.6875,482.0938 C814.0625,482.0938 812.0625,484.1719 812.0625,486.8906 L812.0625,488.0156 C812.0625,490.5938 814.1719,492.4844 817.0625,492.4844 C818.2813,492.4844 819.4375,492.1875 820.1875,491.6406 C820.7656,491.2344 821.0938,490.7813 821.0938,490.3906 C821.0938,489.9375 820.7031,489.5469 820.2344,489.5469 C820.0156,489.5469 819.8125,489.625 819.625,489.8125 C819.1719,490.2969 819.1719,490.2969 818.9844,490.3906 C818.5625,490.6563 817.875,490.7813 817.1094,490.7813 C815.0625,490.7813 813.7656,489.6875 813.7656,487.9844 L813.7656,486.8906 C813.7656,485.1094 815.0156,483.7969 816.75,483.7969 C817.3281,483.7969 817.9375,483.9531 818.4063,484.2031 C818.8906,484.4844 819.0625,484.7031 819.1563,485.1094 C819.2188,485.5156 819.25,485.6406 819.3906,485.7656 C819.5313,485.9063 819.7656,486.0156 819.9844,486.0156 C820.25,486.0156 820.5156,485.875 820.6875,485.6563 C820.7969,485.5 820.8281,485.3125 820.8281,484.8906 L820.8281,483.4688 C820.8281,483.0313 820.8125,482.9063 820.7188,482.75 C820.5625,482.4844 820.2813,482.3438 819.9844,482.3438 C819.6875,482.3438 819.4844,482.4375 819.2656,482.75 L819.0938,482.6719 Z " fill="#000000"/><text fill="#000000" font-family="sans-serif" font-size="12" lengthAdjust="spacing" textLength="108" x="837.25" y="491.1543">CodeChartsRaster</text><line style="stroke:#A80036;stroke-width:1.5;" x1="721.5" x2="1028.5" y1="503" y2="503"/><rect fill="none" height="6" style="stroke:#C82930;stroke-width:1.0;" width="6" x="728.5" y="511"/><text fill="#000000" font-family="sans-serif" font-size="11" lengthAdjust="spacing" textLength="101" x="740.5" y="517.2104">dimensions: int[2]</text><rect fill="none" height="6" style="stroke:#C82930;stroke-width:1.0;" width="6" x="728.5" y="523.8047"/><text fill="#000000" font-family="sans-serif" font-size="11" lengthAdjust="spacing" textLength="91" x="740.5" y="530.0151">strings: String[..]</text><rect fill="none" height="6" style="stroke:#C82930;stroke-width:1.0;" width="6" x="728.5" y="536.6094"/><text fill="#000000" font-family="sans-serif" font-size="11" lengthAdjust="spacing" textLength="73" x="740.5" y="542.8198">coords: int[2]</text><text fill="#000000" font-family="sans-serif" font-size="11" lengthAdjust="spacing" textLength="105" x="740.5" y="555.6245">__public method__</text><ellipse cx="731.5" cy="565.2188" fill="#84BE84" rx="3" ry="3" style="stroke:#038048;stroke-width:1.0;"/><text fill="#000000" font-family="sans-serif" font-size="11" lengthAdjust="spacing" textLength="153" x="740.5" y="568.4292">setInput(input: String): void</text><ellipse cx="731.5" cy="578.0234" fill="#84BE84" rx="3" ry="3" style="stroke:#038048;stroke-width:1.0;"/><text fill="#000000" font-family="sans-serif" font-size="11" lengthAdjust="spacing" textLength="283" x="740.5" y="581.2339">setData(dimensions: int[2], strings: String[..]): void</text><ellipse cx="731.5" cy="590.8281" fill="#84BE84" rx="3" ry="3" style="stroke:#038048;stroke-width:1.0;"/><text fill="#000000" font-family="sans-serif" font-size="11" lengthAdjust="spacing" textLength="72" x="740.5" y="594.0386">show() : void</text><ellipse cx="731.5" cy="603.6328" fill="#84BE84" rx="3" ry="3" style="stroke:#038048;stroke-width:1.0;"/><text fill="#000000" font-family="sans-serif" font-size="11" lengthAdjust="spacing" textLength="174" x="740.5" y="606.8433">calculate(data: Util.Data) : void</text><rect fill="#F24D5C" height="6" style="stroke:#C82930;stroke-width:1.0;" width="6" x="728.5" y="630.2422"/><text fill="#000000" font-family="sans-serif" font-size="11" lengthAdjust="spacing" textLength="117" x="740.5" y="636.4526">loadPastRuns() : void</text><rect fill="#F24D5C" height="6" style="stroke:#C82930;stroke-width:1.0;" width="6" x="728.5" y="643.0469"/><text fill="#000000" font-family="sans-serif" font-size="11" lengthAdjust="spacing" textLength="98" x="740.5" y="649.2573">sendData() : void</text><line style="stroke:#A80036;stroke-width:1.5;" x1="721.5" x2="828" y1="619.8398" y2="619.8398"/><text fill="#000000" font-family="sans-serif" font-size="11" lengthAdjust="spacing" textLength="94" x="828" y="623.1479">private methods</text><line style="stroke:#A80036;stroke-width:1.5;" x1="922" x2="1028.5" y1="619.8398" y2="619.8398"/><!--MD5=[a7f545f13df25b09c4dd936da65dfdd1]
class CodeChartsEingabefenster--><rect codeLine="89" fill="#FEFECE" filter="url(#frxdh95t2k16g)" height="124.8281" id="CodeChartsEingabefenster" style="stroke:#A80036;stroke-width:1.5;" width="234" x="1065" y="501"/><ellipse cx="1098.45" cy="517" fill="#ADD1B2" rx="11" ry="11" style="stroke:#A80036;stroke-width:1.0;"/><path d="M1100.7938,512.6719 C1099.8563,512.2344 1099.2625,512.0938 1098.3875,512.0938 C1095.7625,512.0938 1093.7625,514.1719 1093.7625,516.8906 L1093.7625,518.0156 C1093.7625,520.5938 1095.8719,522.4844 1098.7625,522.4844 C1099.9813,522.4844 1101.1375,522.1875 1101.8875,521.6406 C1102.4656,521.2344 1102.7938,520.7813 1102.7938,520.3906 C1102.7938,519.9375 1102.4031,519.5469 1101.9344,519.5469 C1101.7156,519.5469 1101.5125,519.625 1101.325,519.8125 C1100.8719,520.2969 1100.8719,520.2969 1100.6844,520.3906 C1100.2625,520.6563 1099.575,520.7813 1098.8094,520.7813 C1096.7625,520.7813 1095.4656,519.6875 1095.4656,517.9844 L1095.4656,516.8906 C1095.4656,515.1094 1096.7156,513.7969 1098.45,513.7969 C1099.0281,513.7969 1099.6375,513.9531 1100.1063,514.2031 C1100.5906,514.4844 1100.7625,514.7031 1100.8563,515.1094 C1100.9188,515.5156 1100.95,515.6406 1101.0906,515.7656 C1101.2313,515.9063 1101.4656,516.0156 1101.6844,516.0156 C1101.95,516.0156 1102.2156,515.875 1102.3875,515.6563 C1102.4969,515.5 1102.5281,515.3125 1102.5281,514.8906 L1102.5281,513.4688 C1102.5281,513.0313 1102.5125,512.9063 1102.4188,512.75 C1102.2625,512.4844 1101.9813,512.3438 1101.6844,512.3438 C1101.3875,512.3438 1101.1844,512.4375 1100.9656,512.75 L1100.7938,512.6719 Z " fill="#000000"/><text fill="#000000" font-family="sans-serif" font-size="12" lengthAdjust="spacing" textLength="161" x="1116.55" y="521.1543">CodeChartsEingabefenster</text><line style="stroke:#A80036;stroke-width:1.5;" x1="1066" x2="1298" y1="533" y2="533"/><ellipse cx="1076" cy="560.8047" fill="#84BE84" rx="3" ry="3" style="stroke:#038048;stroke-width:1.0;"/><text fill="#000000" font-family="sans-serif" font-size="11" lengthAdjust="spacing" textLength="81" x="1085" y="564.0151">show() : String</text><line style="stroke:#A80036;stroke-width:1.5;" x1="1066" x2="1141.5" y1="547.4023" y2="547.4023"/><text fill="#000000" font-family="sans-serif" font-size="11" lengthAdjust="spacing" textLength="81" x="1141.5" y="550.7104">public method</text><line style="stroke:#A80036;stroke-width:1.5;" x1="1222.5" x2="1298" y1="547.4023" y2="547.4023"/><rect fill="#F24D5C" height="6" style="stroke:#C82930;stroke-width:1.0;" width="6" x="1073" y="587.4141"/><text fill="#000000" font-family="sans-serif" font-size="11" lengthAdjust="spacing" textLength="135" x="1085" y="593.6245">checkButton() : boolean</text><rect fill="#F24D5C" height="6" style="stroke:#C82930;stroke-width:1.0;" width="6" x="1073" y="600.2188"/><text fill="#000000" font-family="sans-serif" font-size="11" lengthAdjust="spacing" textLength="208" x="1085" y="606.4292">validateString(input: String): boolean</text><rect fill="#F24D5C" height="6" style="stroke:#C82930;stroke-width:1.0;" width="6" x="1073" y="613.0234"/><text fill="#000000" font-family="sans-serif" font-size="11" lengthAdjust="spacing" textLength="120" x="1085" y="619.2339">ErrorMessage() : void</text><line style="stroke:#A80036;stroke-width:1.5;" x1="1066" x2="1135" y1="577.0117" y2="577.0117"/><text fill="#000000" font-family="sans-serif" font-size="11" lengthAdjust="spacing" textLength="94" x="1135" y="580.3198">private methods</text><line style="stroke:#A80036;stroke-width:1.5;" x1="1229" x2="1298" y1="577.0117" y2="577.0117"/><polygon fill="#FFFFFF" filter="url(#frxdh95t2k16g)" points="402,537,460,537,467,559.2969,474,559.2969,474,589.5938,402,589.5938,402,537" style="stroke:#000000;stroke-width:1.5;"/><line style="stroke:#000000;stroke-width:1.5;" x1="402" x2="467" y1="559.2969" y2="559.2969"/><text fill="#000000" font-family="sans-serif" font-size="14" font-weight="bold" lengthAdjust="spacing" textLength="52" x="406" y="551.9951">Config</text><polygon fill="#FFFFFF" filter="url(#frxdh95t2k16g)" points="1493,537,1631,537,1638,559.2969,1645,559.2969,1645,589.5938,1493,589.5938,1493,537" style="stroke:#000000;stroke-width:1.5;"/><line style="stroke:#000000;stroke-width:1.5;" x1="1493" x2="1638" y1="559.2969" y2="559.2969"/><text fill="#000000" font-family="sans-serif" font-size="14" font-weight="bold" lengthAdjust="spacing" textLength="132" x="1497" y="551.9951">SpeicherMedium</text><!--MD5=[e72ca73ac73eca3f18a81a671fe51a7c]
link ToolType to Tutorial--><path codeLine="26" d="M123.793,123.885 C159.085,150.384 209.391,188.158 254.938,222.358 " fill="none" id="ToolType-Tutorial" style="stroke:#A80036;stroke-width:1.0;"/><!--MD5=[9f1a00b177a5ae45176fc1e7f3c0daae]
link Data to ToolType--><path codeLine="27" d="M158.154,88.5 C146.635,88.5 135.115,88.5 123.596,88.5 " fill="none" id="Data-ToolType" style="stroke:#A80036;stroke-width:1.0;"/><!--MD5=[fc4ffdc4bb2ac5a3cd1bd4c856213de4]
link Tutorial to Config--><path codeLine="28" d="M388.6,389.601 C403.18,440.63 420.911,502.688 430.672,536.851 " fill="none" id="Tutorial-Config" style="stroke:#A80036;stroke-width:1.0;"/><!--MD5=[c900c8497a661fa4184b5bb04c49372f]
reverse link Bild to CodeChartsBild--><path codeLine="99" d="M503.284,96.84 C663.758,109.497 970.613,137.704 1073,175 C1265.17,245.002 1362.03,244.465 1460,424 C1481.57,463.528 1446.27,511.633 1420.12,539.493 " fill="none" id="Bild-backto-CodeChartsBild" style="stroke:#A80036;stroke-width:1.0;"/><polygon fill="none" points="502.451,103.796,483.055,95.265,503.537,89.838,502.451,103.796" style="stroke:#A80036;stroke-width:1.0;"/><!--MD5=[1e1b7046ac2ce77f5695cfbd942bbe9e]
reverse link Tutorial to CodeChartsTutorial--><path codeLine="100" d="M459.02,404.255 C503.334,450.094 553.025,501.496 583.415,532.931 " fill="none" id="Tutorial-backto-CodeChartsTutorial" style="stroke:#A80036;stroke-width:1.0;"/><polygon fill="none" points="453.721,408.845,444.853,389.601,463.786,399.115,453.721,408.845" style="stroke:#A80036;stroke-width:1.0;"/><!--MD5=[330c08158d1b261bc3f75486c3c78546]
link CodeChartsCoordinator to CodeChartsBild--><path codeLine="103" d="M1056.11,386.517 C1083.34,407.142 1114.47,427.364 1146,441 C1216.82,471.625 1249.89,432.92 1317,471 C1345.66,487.261 1368.88,517.991 1382.55,539.327 " fill="none" id="CodeChartsCoordinator-CodeChartsBild" style="stroke:#A80036;stroke-width:1.0;"/><polygon fill="#000000" points="1155.5284,434.6862,1148.5824,428.1897,1146.0905,433.5132,1155.5284,434.6862" style="stroke:#000000;stroke-width:1.0;"/><text fill="#000000" font-family="sans-serif" font-size="13" lengthAdjust="spacing" textLength="167" x="1160" y="437.0669">send initial data and show</text><!--MD5=[af7fa7eefc847a19c654188e611c6a01]
link CodeChartsCoordinator to CodeChartsRaster--><path codeLine="104" d="M886.329,394.219 C880.582,403.776 875.631,413.767 872,424 C866.772,438.733 864.392,454.913 863.751,470.856 " fill="none" id="CodeChartsCoordinator-CodeChartsRaster" style="stroke:#A80036;stroke-width:1.0;"/><polygon fill="#000000" points="875.587,437.3626,880.9623,429.5168,875.324,427.8557,875.587,437.3626" style="stroke:#000000;stroke-width:1.0;"/><text fill="#000000" font-family="sans-serif" font-size="13" lengthAdjust="spacing" textLength="130" x="886" y="437.0669">send data and show</text><!--MD5=[acd6e22bd1b43ca41d1e169d29f8f975]
link CodeChartsCoordinator to CodeChartsEingabefenster--><path codeLine="105" d="M1021.81,394.343 C1032.89,410.297 1044.88,426.478 1057,441 C1074.16,461.562 1094.4,482.428 1113.53,500.93 " fill="none" id="CodeChartsCoordinator-CodeChartsEingabefenster" style="stroke:#A80036;stroke-width:1.0;"/><polygon fill="#000000" points="1065.2613,436.3564,1061.5892,427.5833,1057.1339,431.4172,1065.2613,436.3564" style="stroke:#000000;stroke-width:1.0;"/><text fill="#000000" font-family="sans-serif" font-size="13" lengthAdjust="spacing" textLength="34" x="1071" y="437.0669">show</text><!--MD5=[45be10fb9057243d989f7112dab584ae]
link CodeChartsCoordinator to CodeChartsTutorial--><path codeLine="106" d="M877.987,355.342 C825.114,385.722 757.893,427.331 703,471 C679.506,489.69 655.674,513.884 638.296,532.699 " fill="none" id="CodeChartsCoordinator-CodeChartsTutorial" style="stroke:#A80036;stroke-width:1.0;"/><polygon fill="#000000" points="765.9807,435.5405,774.9998,432.5228,771.5036,427.7978,765.9807,435.5405" style="stroke:#000000;stroke-width:1.0;"/><text fill="#000000" font-family="sans-serif" font-size="13" lengthAdjust="spacing" textLength="30" x="779" y="437.0669">start</text><!--MD5=[6420835cf827f0fe1d54714c2e96b5dd]
link CodeChartsCoordinator to SpeicherMedium--><path codeLine="109" d="M1056.02,322.857 C1161.55,344.473 1339.96,390.078 1474,471 C1503.01,488.515 1530.23,516.361 1548.03,536.738 " fill="none" id="CodeChartsCoordinator-SpeicherMedium" style="stroke:#A80036;stroke-width:1.0;"/><polygon fill="#000000" points="1419.5855,434.5598,1412.4619,428.2585,1410.1186,433.649,1419.5855,434.5598" style="stroke:#000000;stroke-width:1.0;"/><text fill="#000000" font-family="sans-serif" font-size="13" lengthAdjust="spacing" textLength="73" x="1424" y="437.0669">saves Data</text><!--MD5=[ba0b6aad62bad149f99973f5ab313e4e]
link CodeChartsCoordinator to Config--><path codeLine="110" d="M877.798,324.459 C782.754,346.398 631.354,391.215 523,471 C497.509,489.77 473.447,516.891 457.475,536.733 " fill="none" id="CodeChartsCoordinator-Config" style="stroke:#A80036;stroke-width:1.0;"/><polygon fill="#000000" points="597.4631,430.3124,588.0644,431.7666,590.7141,437.0133,597.4631,430.3124" style="stroke:#000000;stroke-width:1.0;"/><text fill="#000000" font-family="sans-serif" font-size="13" lengthAdjust="spacing" textLength="100" x="602" y="437.0669">gets Initial Data</text><!--MD5=[81322717fd809a03a1348f0f12b80ca1]
@startuml
' skinparam backgroundColor transparent
'() System #DA70D5
top to bottom direction

package Util {
    ' - - - TUTORIAL - - -
    abstract Tutorial<t: ToolType> {
      - t: ToolType
      __public method__
      + start() : void
      __private methods__
      - getConfigState() : boolean
      - setConfigState(state: boolean) : void
      - show() : boolean
      __abstract methods__
      - {abstract} tutorial() : void
    }

    enum ToolType {
      ZOOM
      EYETRACKING
      CODECHARTS
    }

    ' Interaktionen
    Tutorial -u- ToolType
    Data -r- ToolType
    Tutorial -d- Config


    ' - - - BILD - - -

    abstract Bild {
      - location: String
      __public method__
      + create(url: String) : void
      + show() : void
    }

    class Data<t: ToolType> {
        + t: ToolType
        + data: unknown
        + config_id: int
    }
}

' === CODE CHARTS ===
package CodeCharts {

    ' CodeCharts Tutorial 
    class CodeChartsTutorial {
      - tutorial() : void
    }
  
    ' CodeCharts Coordinator
    class CodeChartsCoordinator {
        - data: Util.Data
        - speed: float[2]
        - isTutorial: boolean
        - isRelative: boolean
        - dimensions: int[2]
        - strings: String[..]
        __public method__
        + startCodeCharts() : void
        __private methods__
        - loadConfigData() : boolean
    }    

    ' CodeCharts Bild
    class CodeChartsBild {
    }

    ' CodeCharts Raster
    class CodeChartsRaster {
        - dimensions: int[2]
        - strings: String[..]
        - coords: int[2]
        __public method__ 
        + setInput(input: String): void
        + setData(dimensions: int[2], strings: String[..]): void
        + show() : void
        + calculate(data: Util.Data) : void
        __private methods__
        - loadPastRuns() : void
        - sendData() : void
    }

    ' CodeCharts Eingabefenster
    class CodeChartsEingabefenster {
        __public method__
        + show() : String
        __private methods__
        - checkButton() : boolean
        - validateString(input: String): boolean
        - ErrorMessage() : void
    }

    ' Vererbungen
    Bild <|-d- CodeChartsBild
    Tutorial <|-d- CodeChartsTutorial

    ' Interaktionen 
    CodeChartsCoordinator - - CodeChartsBild : > send initial data and show
    CodeChartsCoordinator - - CodeChartsRaster : > send data and show
    CodeChartsCoordinator - - CodeChartsEingabefenster : > show
    CodeChartsCoordinator - - CodeChartsTutorial : > start

    ' Andere Module
    CodeChartsCoordinator - - SpeicherMedium : > saves Data
    CodeChartsCoordinator - - Config : < gets Initial Data
  
}

' Blackboxen / Andere Module
package Config {}

package SpeicherMedium {}
@enduml

@startuml
top to bottom direction

package Util {
    abstract Tutorial<t: ToolType> {
      - t: ToolType
      __public method__
      + start() : void
      __private methods__
      - getConfigState() : boolean
      - setConfigState(state: boolean) : void
      - show() : boolean
      __abstract methods__
      - {abstract} tutorial() : void
    }

    enum ToolType {
      ZOOM
      EYETRACKING
      CODECHARTS
    }

    Tutorial -u- ToolType
    Data -r- ToolType
    Tutorial -d- Config



    abstract Bild {
      - location: String
      __public method__
      + create(url: String) : void
      + show() : void
    }

    class Data<t: ToolType> {
        + t: ToolType
        + data: unknown
        + config_id: int
    }
}

package CodeCharts {

    class CodeChartsTutorial {
      - tutorial() : void
    }
  
    class CodeChartsCoordinator {
        - data: Util.Data
        - speed: float[2]
        - isTutorial: boolean
        - isRelative: boolean
        - dimensions: int[2]
        - strings: String[..]
        __public method__
        + startCodeCharts() : void
        __private methods__
        - loadConfigData() : boolean
    }    

    class CodeChartsBild {
    }

    class CodeChartsRaster {
        - dimensions: int[2]
        - strings: String[..]
        - coords: int[2]
        __public method__ 
        + setInput(input: String): void
        + setData(dimensions: int[2], strings: String[..]): void
        + show() : void
        + calculate(data: Util.Data) : void
        __private methods__
        - loadPastRuns() : void
        - sendData() : void
    }

    class CodeChartsEingabefenster {
        __public method__
        + show() : String
        __private methods__
        - checkButton() : boolean
        - validateString(input: String): boolean
        - ErrorMessage() : void
    }

    Bild <|-d- CodeChartsBild
    Tutorial <|-d- CodeChartsTutorial

    CodeChartsCoordinator - - CodeChartsBild : > send initial data and show
    CodeChartsCoordinator - - CodeChartsRaster : > send data and show
    CodeChartsCoordinator - - CodeChartsEingabefenster : > show
    CodeChartsCoordinator - - CodeChartsTutorial : > start

    CodeChartsCoordinator - - SpeicherMedium : > saves Data
    CodeChartsCoordinator - - Config : < gets Initial Data
  
}

package Config {}

package SpeicherMedium {}
@enduml

PlantUML version 1.2021.14beta4(Unknown compile time)
(GPL source distribution)
Java Runtime: Java(TM) SE Runtime Environment
JVM: Java HotSpot(TM) 64-Bit Server VM
Default Encoding: UTF-8
Language: en
Country: US
--></g></svg>