<?xml version="1.0" encoding="UTF-8" standalone="no"?><svg xmlns="http://www.w3.org/2000/svg" xmlns:xlink="http://www.w3.org/1999/xlink" contentScriptType="application/ecmascript" contentStyleType="text/css" height="814px" preserveAspectRatio="none" style="width:1180px;height:814px;background:#FFFFFF;" version="1.1" viewBox="0 0 1180 814" width="1180px" zoomAndPan="magnify"><defs><filter height="300%" id="f1pvlo2c9q7hxu" width="300%" x="-1" y="-1"><feGaussianBlur result="blurOut" stdDeviation="2.0"/><feColorMatrix in="blurOut" result="blurOut2" type="matrix" values="0 0 0 0 0 0 0 0 0 0 0 0 0 0 0 0 0 0 .4 0"/><feOffset dx="4.0" dy="4.0" in="blurOut2" result="blurOut3"/><feBlend in="SourceGraphic" in2="blurOut3" mode="normal"/></filter></defs><g><!--MD5=[bd4ed236a13575a9dcf49b2316e757e7]
cluster CodeCharts--><polygon fill="#FFFFFF" filter="url(#f1pvlo2c9q7hxu)" points="16,227,115,227,122,249.2969,995,249.2969,995,807,16,807,16,227" style="stroke:#000000;stroke-width:1.5;"/><line style="stroke:#000000;stroke-width:1.5;" x1="16" x2="122" y1="249.2969" y2="249.2969"/><text fill="#000000" font-family="sans-serif" font-size="14" font-weight="bold" lengthAdjust="spacing" textLength="93" x="20" y="241.9951">CodeCharts</text><!--MD5=[81d462353594d8875238471802618d21]
class CodeChartsTutorial--><rect codeLine="40" fill="#FEFECE" filter="url(#f1pvlo2c9q7hxu)" height="60.8047" id="CodeChartsTutorial" style="stroke:#A80036;stroke-width:1.5;" width="146" x="289" y="322.5"/><ellipse cx="304" cy="338.5" fill="#ADD1B2" rx="11" ry="11" style="stroke:#A80036;stroke-width:1.0;"/><path d="M306.3438,334.1719 C305.4063,333.7344 304.8125,333.5938 303.9375,333.5938 C301.3125,333.5938 299.3125,335.6719 299.3125,338.3906 L299.3125,339.5156 C299.3125,342.0938 301.4219,343.9844 304.3125,343.9844 C305.5313,343.9844 306.6875,343.6875 307.4375,343.1406 C308.0156,342.7344 308.3438,342.2813 308.3438,341.8906 C308.3438,341.4375 307.9531,341.0469 307.4844,341.0469 C307.2656,341.0469 307.0625,341.125 306.875,341.3125 C306.4219,341.7969 306.4219,341.7969 306.2344,341.8906 C305.8125,342.1563 305.125,342.2813 304.3594,342.2813 C302.3125,342.2813 301.0156,341.1875 301.0156,339.4844 L301.0156,338.3906 C301.0156,336.6094 302.2656,335.2969 304,335.2969 C304.5781,335.2969 305.1875,335.4531 305.6563,335.7031 C306.1406,335.9844 306.3125,336.2031 306.4063,336.6094 C306.4688,337.0156 306.5,337.1406 306.6406,337.2656 C306.7813,337.4063 307.0156,337.5156 307.2344,337.5156 C307.5,337.5156 307.7656,337.375 307.9375,337.1563 C308.0469,337 308.0781,336.8125 308.0781,336.3906 L308.0781,334.9688 C308.0781,334.5313 308.0625,334.4063 307.9688,334.25 C307.8125,333.9844 307.5313,333.8438 307.2344,333.8438 C306.9375,333.8438 306.7344,333.9375 306.5156,334.25 L306.3438,334.1719 Z " fill="#000000"/><text fill="#000000" font-family="sans-serif" font-size="12" lengthAdjust="spacing" textLength="114" x="318" y="342.6543">CodeChartsTutorial</text><line style="stroke:#A80036;stroke-width:1.5;" x1="290" x2="434" y1="354.5" y2="354.5"/><line style="stroke:#A80036;stroke-width:1.5;" x1="290" x2="434" y1="362.5" y2="362.5"/><rect fill="#F24D5C" height="6" style="stroke:#C82930;stroke-width:1.0;" width="6" x="297" y="370.5"/><text fill="#000000" font-family="sans-serif" font-size="11" lengthAdjust="spacing" textLength="82" x="309" y="376.7104">tutorial() : void</text><!--MD5=[d6943c12ae734dbe1975a5489f85ab8f]
class CodeChartsCoordinator--><rect codeLine="45" fill="#FEFECE" filter="url(#f1pvlo2c9q7hxu)" height="137.6328" id="CodeChartsCoordinator" style="stroke:#A80036;stroke-width:1.5;" width="252" x="322" y="506"/><ellipse cx="373.25" cy="522" fill="#ADD1B2" rx="11" ry="11" style="stroke:#A80036;stroke-width:1.0;"/><path d="M375.5938,517.6719 C374.6563,517.2344 374.0625,517.0938 373.1875,517.0938 C370.5625,517.0938 368.5625,519.1719 368.5625,521.8906 L368.5625,523.0156 C368.5625,525.5938 370.6719,527.4844 373.5625,527.4844 C374.7813,527.4844 375.9375,527.1875 376.6875,526.6406 C377.2656,526.2344 377.5938,525.7813 377.5938,525.3906 C377.5938,524.9375 377.2031,524.5469 376.7344,524.5469 C376.5156,524.5469 376.3125,524.625 376.125,524.8125 C375.6719,525.2969 375.6719,525.2969 375.4844,525.3906 C375.0625,525.6563 374.375,525.7813 373.6094,525.7813 C371.5625,525.7813 370.2656,524.6875 370.2656,522.9844 L370.2656,521.8906 C370.2656,520.1094 371.5156,518.7969 373.25,518.7969 C373.8281,518.7969 374.4375,518.9531 374.9063,519.2031 C375.3906,519.4844 375.5625,519.7031 375.6563,520.1094 C375.7188,520.5156 375.75,520.6406 375.8906,520.7656 C376.0313,520.9063 376.2656,521.0156 376.4844,521.0156 C376.75,521.0156 377.0156,520.875 377.1875,520.6563 C377.2969,520.5 377.3281,520.3125 377.3281,519.8906 L377.3281,518.4688 C377.3281,518.0313 377.3125,517.9063 377.2188,517.75 C377.0625,517.4844 376.7813,517.3438 376.4844,517.3438 C376.1875,517.3438 375.9844,517.4375 375.7656,517.75 L375.5938,517.6719 Z " fill="#000000"/><text fill="#000000" font-family="sans-serif" font-size="12" lengthAdjust="spacing" textLength="141" x="393.75" y="526.1543">CodeChartsCoordinator</text><line style="stroke:#A80036;stroke-width:1.5;" x1="323" x2="573" y1="538" y2="538"/><rect fill="none" height="6" style="stroke:#C82930;stroke-width:1.0;" width="6" x="330" y="546"/><text fill="#000000" font-family="sans-serif" font-size="11" lengthAdjust="spacing" textLength="68" x="342" y="552.2104">speed: float</text><rect fill="none" height="6" style="stroke:#C82930;stroke-width:1.0;" width="6" x="330" y="558.8047"/><text fill="#000000" font-family="sans-serif" font-size="11" lengthAdjust="spacing" textLength="91" x="342" y="565.0151">position: float[3]</text><ellipse cx="333" cy="591.4141" fill="#84BE84" rx="3" ry="3" style="stroke:#038048;stroke-width:1.0;"/><text fill="#000000" font-family="sans-serif" font-size="11" lengthAdjust="spacing" textLength="226" x="342" y="594.6245">processInput(raw_input: unknown) : void</text><line style="stroke:#A80036;stroke-width:1.5;" x1="323" x2="407.5" y1="578.0117" y2="578.0117"/><text fill="#000000" font-family="sans-serif" font-size="11" lengthAdjust="spacing" textLength="81" x="407.5" y="581.3198">public method</text><line style="stroke:#A80036;stroke-width:1.5;" x1="488.5" x2="573" y1="578.0117" y2="578.0117"/><rect fill="#F24D5C" height="6" style="stroke:#C82930;stroke-width:1.0;" width="6" x="330" y="618.0234"/><text fill="#000000" font-family="sans-serif" font-size="11" lengthAdjust="spacing" textLength="221" x="342" y="624.2339">calculate(raw_input: unknown) : float[3]</text><rect fill="#F24D5C" height="6" style="stroke:#C82930;stroke-width:1.0;" width="6" x="330" y="630.8281"/><text fill="#000000" font-family="sans-serif" font-size="11" lengthAdjust="spacing" textLength="184" x="342" y="637.0386">save(position: float[3]) : boolean</text><line style="stroke:#A80036;stroke-width:1.5;" x1="323" x2="401" y1="607.6211" y2="607.6211"/><text fill="#000000" font-family="sans-serif" font-size="11" lengthAdjust="spacing" textLength="94" x="401" y="610.9292">private methods</text><line style="stroke:#A80036;stroke-width:1.5;" x1="495" x2="573" y1="607.6211" y2="607.6211"/><!--MD5=[b97436f023f6e132339a2eb08e5e9f38]
class CodeChartsComputer--><rect codeLine="56" fill="#FEFECE" filter="url(#f1pvlo2c9q7hxu)" height="137.6328" id="CodeChartsComputer" style="stroke:#A80036;stroke-width:1.5;" width="252" x="478" y="285"/><ellipse cx="535.25" cy="301" fill="#ADD1B2" rx="11" ry="11" style="stroke:#A80036;stroke-width:1.0;"/><path d="M537.5938,296.6719 C536.6563,296.2344 536.0625,296.0938 535.1875,296.0938 C532.5625,296.0938 530.5625,298.1719 530.5625,300.8906 L530.5625,302.0156 C530.5625,304.5938 532.6719,306.4844 535.5625,306.4844 C536.7813,306.4844 537.9375,306.1875 538.6875,305.6406 C539.2656,305.2344 539.5938,304.7813 539.5938,304.3906 C539.5938,303.9375 539.2031,303.5469 538.7344,303.5469 C538.5156,303.5469 538.3125,303.625 538.125,303.8125 C537.6719,304.2969 537.6719,304.2969 537.4844,304.3906 C537.0625,304.6563 536.375,304.7813 535.6094,304.7813 C533.5625,304.7813 532.2656,303.6875 532.2656,301.9844 L532.2656,300.8906 C532.2656,299.1094 533.5156,297.7969 535.25,297.7969 C535.8281,297.7969 536.4375,297.9531 536.9063,298.2031 C537.3906,298.4844 537.5625,298.7031 537.6563,299.1094 C537.7188,299.5156 537.75,299.6406 537.8906,299.7656 C538.0313,299.9063 538.2656,300.0156 538.4844,300.0156 C538.75,300.0156 539.0156,299.875 539.1875,299.6563 C539.2969,299.5 539.3281,299.3125 539.3281,298.8906 L539.3281,297.4688 C539.3281,297.0313 539.3125,296.9063 539.2188,296.75 C539.0625,296.4844 538.7813,296.3438 538.4844,296.3438 C538.1875,296.3438 537.9844,296.4375 537.7656,296.75 L537.5938,296.6719 Z " fill="#000000"/><text fill="#000000" font-family="sans-serif" font-size="12" lengthAdjust="spacing" textLength="129" x="555.75" y="305.1543">CodeChartsComputer</text><line style="stroke:#A80036;stroke-width:1.5;" x1="479" x2="729" y1="317" y2="317"/><rect fill="none" height="6" style="stroke:#C82930;stroke-width:1.0;" width="6" x="486" y="325"/><text fill="#000000" font-family="sans-serif" font-size="11" lengthAdjust="spacing" textLength="68" x="498" y="331.2104">speed: float</text><rect fill="none" height="6" style="stroke:#C82930;stroke-width:1.0;" width="6" x="486" y="337.8047"/><text fill="#000000" font-family="sans-serif" font-size="11" lengthAdjust="spacing" textLength="91" x="498" y="344.0151">position: float[3]</text><ellipse cx="489" cy="370.4141" fill="#84BE84" rx="3" ry="3" style="stroke:#038048;stroke-width:1.0;"/><text fill="#000000" font-family="sans-serif" font-size="11" lengthAdjust="spacing" textLength="226" x="498" y="373.6245">processInput(raw_input: unknown) : void</text><line style="stroke:#A80036;stroke-width:1.5;" x1="479" x2="563.5" y1="357.0117" y2="357.0117"/><text fill="#000000" font-family="sans-serif" font-size="11" lengthAdjust="spacing" textLength="81" x="563.5" y="360.3198">public method</text><line style="stroke:#A80036;stroke-width:1.5;" x1="644.5" x2="729" y1="357.0117" y2="357.0117"/><rect fill="#F24D5C" height="6" style="stroke:#C82930;stroke-width:1.0;" width="6" x="486" y="397.0234"/><text fill="#000000" font-family="sans-serif" font-size="11" lengthAdjust="spacing" textLength="221" x="498" y="403.2339">calculate(raw_input: unknown) : float[3]</text><rect fill="#F24D5C" height="6" style="stroke:#C82930;stroke-width:1.0;" width="6" x="486" y="409.8281"/><text fill="#000000" font-family="sans-serif" font-size="11" lengthAdjust="spacing" textLength="184" x="498" y="416.0386">save(position: float[3]) : boolean</text><line style="stroke:#A80036;stroke-width:1.5;" x1="479" x2="557" y1="386.6211" y2="386.6211"/><text fill="#000000" font-family="sans-serif" font-size="11" lengthAdjust="spacing" textLength="94" x="557" y="389.9292">private methods</text><line style="stroke:#A80036;stroke-width:1.5;" x1="651" x2="729" y1="386.6211" y2="386.6211"/><!--MD5=[716079bcf736c8b229d38dedc298d2f0]
class CodeChartsInternerSpeicher--><rect codeLine="67" fill="#FEFECE" filter="url(#f1pvlo2c9q7hxu)" height="137.6328" id="CodeChartsInternerSpeicher" style="stroke:#A80036;stroke-width:1.5;" width="252" x="625" y="506.5"/><ellipse cx="662.05" cy="522.5" fill="#ADD1B2" rx="11" ry="11" style="stroke:#A80036;stroke-width:1.0;"/><path d="M664.3938,518.1719 C663.4563,517.7344 662.8625,517.5938 661.9875,517.5938 C659.3625,517.5938 657.3625,519.6719 657.3625,522.3906 L657.3625,523.5156 C657.3625,526.0938 659.4719,527.9844 662.3625,527.9844 C663.5813,527.9844 664.7375,527.6875 665.4875,527.1406 C666.0656,526.7344 666.3938,526.2813 666.3938,525.8906 C666.3938,525.4375 666.0031,525.0469 665.5344,525.0469 C665.3156,525.0469 665.1125,525.125 664.925,525.3125 C664.4719,525.7969 664.4719,525.7969 664.2844,525.8906 C663.8625,526.1563 663.175,526.2813 662.4094,526.2813 C660.3625,526.2813 659.0656,525.1875 659.0656,523.4844 L659.0656,522.3906 C659.0656,520.6094 660.3156,519.2969 662.05,519.2969 C662.6281,519.2969 663.2375,519.4531 663.7063,519.7031 C664.1906,519.9844 664.3625,520.2031 664.4563,520.6094 C664.5188,521.0156 664.55,521.1406 664.6906,521.2656 C664.8313,521.4063 665.0656,521.5156 665.2844,521.5156 C665.55,521.5156 665.8156,521.375 665.9875,521.1563 C666.0969,521 666.1281,520.8125 666.1281,520.3906 L666.1281,518.9688 C666.1281,518.5313 666.1125,518.4063 666.0188,518.25 C665.8625,517.9844 665.5813,517.8438 665.2844,517.8438 C664.9875,517.8438 664.7844,517.9375 664.5656,518.25 L664.3938,518.1719 Z " fill="#000000"/><text fill="#000000" font-family="sans-serif" font-size="12" lengthAdjust="spacing" textLength="171" x="680.95" y="526.6543">CodeChartsInternerSpeicher</text><line style="stroke:#A80036;stroke-width:1.5;" x1="626" x2="876" y1="538.5" y2="538.5"/><rect fill="none" height="6" style="stroke:#C82930;stroke-width:1.0;" width="6" x="633" y="546.5"/><text fill="#000000" font-family="sans-serif" font-size="11" lengthAdjust="spacing" textLength="68" x="645" y="552.7104">speed: float</text><rect fill="none" height="6" style="stroke:#C82930;stroke-width:1.0;" width="6" x="633" y="559.3047"/><text fill="#000000" font-family="sans-serif" font-size="11" lengthAdjust="spacing" textLength="91" x="645" y="565.5151">position: float[3]</text><ellipse cx="636" cy="591.9141" fill="#84BE84" rx="3" ry="3" style="stroke:#038048;stroke-width:1.0;"/><text fill="#000000" font-family="sans-serif" font-size="11" lengthAdjust="spacing" textLength="226" x="645" y="595.1245">processInput(raw_input: unknown) : void</text><line style="stroke:#A80036;stroke-width:1.5;" x1="626" x2="710.5" y1="578.5117" y2="578.5117"/><text fill="#000000" font-family="sans-serif" font-size="11" lengthAdjust="spacing" textLength="81" x="710.5" y="581.8198">public method</text><line style="stroke:#A80036;stroke-width:1.5;" x1="791.5" x2="876" y1="578.5117" y2="578.5117"/><rect fill="#F24D5C" height="6" style="stroke:#C82930;stroke-width:1.0;" width="6" x="633" y="618.5234"/><text fill="#000000" font-family="sans-serif" font-size="11" lengthAdjust="spacing" textLength="221" x="645" y="624.7339">calculate(raw_input: unknown) : float[3]</text><rect fill="#F24D5C" height="6" style="stroke:#C82930;stroke-width:1.0;" width="6" x="633" y="631.3281"/><text fill="#000000" font-family="sans-serif" font-size="11" lengthAdjust="spacing" textLength="184" x="645" y="637.5386">save(position: float[3]) : boolean</text><line style="stroke:#A80036;stroke-width:1.5;" x1="626" x2="704" y1="608.1211" y2="608.1211"/><text fill="#000000" font-family="sans-serif" font-size="11" lengthAdjust="spacing" textLength="94" x="704" y="611.4292">private methods</text><line style="stroke:#A80036;stroke-width:1.5;" x1="798" x2="876" y1="608.1211" y2="608.1211"/><!--MD5=[48cc74a7e7e460afd8863a3fcc09bdcb]
class CodeChartsBild--><rect codeLine="78" fill="#FEFECE" filter="url(#f1pvlo2c9q7hxu)" height="60.8047" id="CodeChartsBild" style="stroke:#A80036;stroke-width:1.5;" width="205" x="40.5" y="323"/><ellipse cx="92.75" cy="339" fill="#ADD1B2" rx="11" ry="11" style="stroke:#A80036;stroke-width:1.0;"/><path d="M95.0938,334.6719 C94.1563,334.2344 93.5625,334.0938 92.6875,334.0938 C90.0625,334.0938 88.0625,336.1719 88.0625,338.8906 L88.0625,340.0156 C88.0625,342.5938 90.1719,344.4844 93.0625,344.4844 C94.2813,344.4844 95.4375,344.1875 96.1875,343.6406 C96.7656,343.2344 97.0938,342.7813 97.0938,342.3906 C97.0938,341.9375 96.7031,341.5469 96.2344,341.5469 C96.0156,341.5469 95.8125,341.625 95.625,341.8125 C95.1719,342.2969 95.1719,342.2969 94.9844,342.3906 C94.5625,342.6563 93.875,342.7813 93.1094,342.7813 C91.0625,342.7813 89.7656,341.6875 89.7656,339.9844 L89.7656,338.8906 C89.7656,337.1094 91.0156,335.7969 92.75,335.7969 C93.3281,335.7969 93.9375,335.9531 94.4063,336.2031 C94.8906,336.4844 95.0625,336.7031 95.1563,337.1094 C95.2188,337.5156 95.25,337.6406 95.3906,337.7656 C95.5313,337.9063 95.7656,338.0156 95.9844,338.0156 C96.25,338.0156 96.5156,337.875 96.6875,337.6563 C96.7969,337.5 96.8281,337.3125 96.8281,336.8906 L96.8281,335.4688 C96.8281,335.0313 96.8125,334.9063 96.7188,334.75 C96.5625,334.4844 96.2813,334.3438 95.9844,334.3438 C95.6875,334.3438 95.4844,334.4375 95.2656,334.75 L95.0938,334.6719 Z " fill="#000000"/><text fill="#000000" font-family="sans-serif" font-size="12" lengthAdjust="spacing" textLength="92" x="113.25" y="343.1543">CodeChartsBild</text><line style="stroke:#A80036;stroke-width:1.5;" x1="41.5" x2="244.5" y1="355" y2="355"/><line style="stroke:#A80036;stroke-width:1.5;" x1="41.5" x2="244.5" y1="363" y2="363"/><ellipse cx="51.5" cy="374" fill="#84BE84" rx="3" ry="3" style="stroke:#038048;stroke-width:1.0;"/><text fill="#000000" font-family="sans-serif" font-size="11" lengthAdjust="spacing" textLength="179" x="60.5" y="377.2104">move(position: float[3]): float[3]</text><!--MD5=[b9640045e029ffef06c931bcc3e11d89]
class CodeChartsRaster--><rect codeLine="83" fill="#FEFECE" filter="url(#f1pvlo2c9q7hxu)" height="60.8047" id="CodeChartsRaster" style="stroke:#A80036;stroke-width:1.5;" width="205" x="773.5" y="322.5"/><ellipse cx="817.75" cy="338.5" fill="#ADD1B2" rx="11" ry="11" style="stroke:#A80036;stroke-width:1.0;"/><path d="M820.0938,334.1719 C819.1563,333.7344 818.5625,333.5938 817.6875,333.5938 C815.0625,333.5938 813.0625,335.6719 813.0625,338.3906 L813.0625,339.5156 C813.0625,342.0938 815.1719,343.9844 818.0625,343.9844 C819.2813,343.9844 820.4375,343.6875 821.1875,343.1406 C821.7656,342.7344 822.0938,342.2813 822.0938,341.8906 C822.0938,341.4375 821.7031,341.0469 821.2344,341.0469 C821.0156,341.0469 820.8125,341.125 820.625,341.3125 C820.1719,341.7969 820.1719,341.7969 819.9844,341.8906 C819.5625,342.1563 818.875,342.2813 818.1094,342.2813 C816.0625,342.2813 814.7656,341.1875 814.7656,339.4844 L814.7656,338.3906 C814.7656,336.6094 816.0156,335.2969 817.75,335.2969 C818.3281,335.2969 818.9375,335.4531 819.4063,335.7031 C819.8906,335.9844 820.0625,336.2031 820.1563,336.6094 C820.2188,337.0156 820.25,337.1406 820.3906,337.2656 C820.5313,337.4063 820.7656,337.5156 820.9844,337.5156 C821.25,337.5156 821.5156,337.375 821.6875,337.1563 C821.7969,337 821.8281,336.8125 821.8281,336.3906 L821.8281,334.9688 C821.8281,334.5313 821.8125,334.4063 821.7188,334.25 C821.5625,333.9844 821.2813,333.8438 820.9844,333.8438 C820.6875,333.8438 820.4844,333.9375 820.2656,334.25 L820.0938,334.1719 Z " fill="#000000"/><text fill="#000000" font-family="sans-serif" font-size="12" lengthAdjust="spacing" textLength="108" x="838.25" y="342.6543">CodeChartsRaster</text><line style="stroke:#A80036;stroke-width:1.5;" x1="774.5" x2="977.5" y1="354.5" y2="354.5"/><line style="stroke:#A80036;stroke-width:1.5;" x1="774.5" x2="977.5" y1="362.5" y2="362.5"/><ellipse cx="784.5" cy="373.5" fill="#84BE84" rx="3" ry="3" style="stroke:#038048;stroke-width:1.0;"/><text fill="#000000" font-family="sans-serif" font-size="11" lengthAdjust="spacing" textLength="179" x="793.5" y="376.7104">move(position: float[3]): float[3]</text><!--MD5=[a7f545f13df25b09c4dd936da65dfdd1]
class CodeChartsEingabefenster--><rect codeLine="88" fill="#FEFECE" filter="url(#f1pvlo2c9q7hxu)" height="60.8047" id="CodeChartsEingabefenster" style="stroke:#A80036;stroke-width:1.5;" width="205" x="345.5" y="727"/><ellipse cx="365.9" cy="743" fill="#ADD1B2" rx="11" ry="11" style="stroke:#A80036;stroke-width:1.0;"/><path d="M368.2438,738.6719 C367.3063,738.2344 366.7125,738.0938 365.8375,738.0938 C363.2125,738.0938 361.2125,740.1719 361.2125,742.8906 L361.2125,744.0156 C361.2125,746.5938 363.3219,748.4844 366.2125,748.4844 C367.4313,748.4844 368.5875,748.1875 369.3375,747.6406 C369.9156,747.2344 370.2438,746.7813 370.2438,746.3906 C370.2438,745.9375 369.8531,745.5469 369.3844,745.5469 C369.1656,745.5469 368.9625,745.625 368.775,745.8125 C368.3219,746.2969 368.3219,746.2969 368.1344,746.3906 C367.7125,746.6563 367.025,746.7813 366.2594,746.7813 C364.2125,746.7813 362.9156,745.6875 362.9156,743.9844 L362.9156,742.8906 C362.9156,741.1094 364.1656,739.7969 365.9,739.7969 C366.4781,739.7969 367.0875,739.9531 367.5563,740.2031 C368.0406,740.4844 368.2125,740.7031 368.3063,741.1094 C368.3688,741.5156 368.4,741.6406 368.5406,741.7656 C368.6813,741.9063 368.9156,742.0156 369.1344,742.0156 C369.4,742.0156 369.6656,741.875 369.8375,741.6563 C369.9469,741.5 369.9781,741.3125 369.9781,740.8906 L369.9781,739.4688 C369.9781,739.0313 369.9625,738.9063 369.8688,738.75 C369.7125,738.4844 369.4313,738.3438 369.1344,738.3438 C368.8375,738.3438 368.6344,738.4375 368.4156,738.75 L368.2438,738.6719 Z " fill="#000000"/><text fill="#000000" font-family="sans-serif" font-size="12" lengthAdjust="spacing" textLength="161" x="381.1" y="747.1543">CodeChartsEingabefenster</text><line style="stroke:#A80036;stroke-width:1.5;" x1="346.5" x2="549.5" y1="759" y2="759"/><line style="stroke:#A80036;stroke-width:1.5;" x1="346.5" x2="549.5" y1="767" y2="767"/><ellipse cx="356.5" cy="778" fill="#84BE84" rx="3" ry="3" style="stroke:#038048;stroke-width:1.0;"/><text fill="#000000" font-family="sans-serif" font-size="11" lengthAdjust="spacing" textLength="179" x="365.5" y="781.2104">move(position: float[3]): float[3]</text><polygon fill="#FFFFFF" filter="url(#f1pvlo2c9q7hxu)" points="1011,547.5,1069,547.5,1076,569.7969,1083,569.7969,1083,600.0938,1011,600.0938,1011,547.5" style="stroke:#000000;stroke-width:1.5;"/><line style="stroke:#000000;stroke-width:1.5;" x1="1011" x2="1076" y1="569.7969" y2="569.7969"/><text fill="#000000" font-family="sans-serif" font-size="14" font-weight="bold" lengthAdjust="spacing" textLength="52" x="1015" y="562.4951">Config</text><polygon fill="#FFFFFF" filter="url(#f1pvlo2c9q7hxu)" points="1011,730.5,1149,730.5,1156,752.7969,1163,752.7969,1163,783.0938,1011,783.0938,1011,730.5" style="stroke:#000000;stroke-width:1.5;"/><line style="stroke:#000000;stroke-width:1.5;" x1="1011" x2="1156" y1="752.7969" y2="752.7969"/><text fill="#000000" font-family="sans-serif" font-size="14" font-weight="bold" lengthAdjust="spacing" textLength="132" x="1015" y="745.4951">SpeicherMedium</text><!--MD5=[fccc419d627b37790932ddb688fb7ad6]
class Tutorial--><rect codeLine="6" fill="#FEFECE" filter="url(#f1pvlo2c9q7hxu)" height="167.2422" id="Tutorial" style="stroke:#A80036;stroke-width:1.5;" width="236" x="661" y="10"/><ellipse cx="706.75" cy="26" fill="#A9DCDF" rx="11" ry="11" style="stroke:#A80036;stroke-width:1.0;"/><path d="M708.8281,27.8125 L709.2188,28.7969 L708.8281,28.7969 C708.375,28.7969 708.2656,28.8125 708.1094,28.9219 C707.8594,29.0781 707.7031,29.3594 707.7031,29.6563 C707.7031,29.9219 707.8438,30.1719 708.0625,30.3281 C708.2031,30.4531 708.4063,30.5 708.8281,30.5 L711.1875,30.5 C711.5469,30.5 711.7656,30.4688 711.9063,30.375 C712.1563,30.2344 712.3125,29.9375 712.3125,29.6563 C712.3125,29.375 712.1719,29.125 711.9531,28.9688 C711.7813,28.8281 711.625,28.7969 711.1563,28.7969 L707.7656,20.5938 L704.0938,20.5938 C703.6406,20.5938 703.5156,20.6094 703.3594,20.7031 C703.1094,20.875 702.9531,21.1563 702.9531,21.4375 C702.9531,21.7188 703.0938,21.9688 703.3125,22.1406 C703.4844,22.25 703.6563,22.2813 704.0938,22.2813 L705.1719,22.2813 L702.5313,28.7969 C702.1094,28.7969 701.9531,28.8125 701.7969,28.9219 C701.5469,29.0781 701.3906,29.3594 701.3906,29.6563 C701.3906,30.2188 701.7656,30.5 702.5156,30.5 L704.7813,30.5 C705.1406,30.5 705.3594,30.4688 705.4844,30.375 C705.75,30.2344 705.8906,29.9375 705.8906,29.6563 C705.8906,29.375 705.7656,29.125 705.5469,28.9531 C705.375,28.8281 705.2344,28.7969 704.7813,28.7969 L704.3906,28.7969 L704.7813,27.8125 L708.8281,27.8125 Z M708.125,26.1094 L705.4531,26.1094 L706.7969,22.8438 L708.125,26.1094 Z " fill="#000000"/><text fill="#000000" font-family="sans-serif" font-size="12" font-style="italic" lengthAdjust="spacing" textLength="45" x="727.25" y="30.1543">Tutorial</text><rect fill="#FFFFFF" height="15.9688" style="stroke:#000000;stroke-width:1.0;stroke-dasharray:2.0,2.0;" width="89" x="811" y="7"/><text fill="#000000" font-family="sans-serif" font-size="12" font-style="italic" lengthAdjust="spacing" textLength="87" x="812" y="19.1387">t: TutorialType</text><line style="stroke:#A80036;stroke-width:1.5;" x1="662" x2="896" y1="42" y2="42"/><rect fill="none" height="6" style="stroke:#C82930;stroke-width:1.0;" width="6" x="669" y="50"/><text fill="#000000" font-family="sans-serif" font-size="11" lengthAdjust="spacing" textLength="82" x="681" y="56.2104">t: TutorialType</text><ellipse cx="672" cy="82.6094" fill="#84BE84" rx="3" ry="3" style="stroke:#038048;stroke-width:1.0;"/><text fill="#000000" font-family="sans-serif" font-size="11" lengthAdjust="spacing" textLength="68" x="681" y="85.8198">start() : void</text><line style="stroke:#A80036;stroke-width:1.5;" x1="662" x2="738.5" y1="69.207" y2="69.207"/><text fill="#000000" font-family="sans-serif" font-size="11" lengthAdjust="spacing" textLength="81" x="738.5" y="72.5151">public method</text><line style="stroke:#A80036;stroke-width:1.5;" x1="819.5" x2="896" y1="69.207" y2="69.207"/><rect fill="#F24D5C" height="6" style="stroke:#C82930;stroke-width:1.0;" width="6" x="669" y="109.2188"/><text fill="#000000" font-family="sans-serif" font-size="11" lengthAdjust="spacing" textLength="151" x="681" y="115.4292">getConfigState() : boolean</text><rect fill="#F24D5C" height="6" style="stroke:#C82930;stroke-width:1.0;" width="6" x="669" y="122.0234"/><text fill="#000000" font-family="sans-serif" font-size="11" lengthAdjust="spacing" textLength="210" x="681" y="128.2339">setConfigState(state: boolean) : void</text><rect fill="#F24D5C" height="6" style="stroke:#C82930;stroke-width:1.0;" width="6" x="669" y="134.8281"/><text fill="#000000" font-family="sans-serif" font-size="11" lengthAdjust="spacing" textLength="94" x="681" y="141.0386">show() : boolean</text><line style="stroke:#A80036;stroke-width:1.5;" x1="662" x2="732" y1="98.8164" y2="98.8164"/><text fill="#000000" font-family="sans-serif" font-size="11" lengthAdjust="spacing" textLength="94" x="732" y="102.1245">private methods</text><line style="stroke:#A80036;stroke-width:1.5;" x1="826" x2="896" y1="98.8164" y2="98.8164"/><rect fill="#F24D5C" height="6" style="stroke:#C82930;stroke-width:1.0;" width="6" x="669" y="164.4375"/><text fill="#000000" font-family="sans-serif" font-size="11" font-style="italic" lengthAdjust="spacing" textLength="84" x="681" y="170.6479">tutorial() : void</text><line style="stroke:#A80036;stroke-width:1.5;" x1="662" x2="729.5" y1="154.0352" y2="154.0352"/><text fill="#000000" font-family="sans-serif" font-size="11" lengthAdjust="spacing" textLength="99" x="729.5" y="157.3433">abstract methods</text><line style="stroke:#A80036;stroke-width:1.5;" x1="828.5" x2="896" y1="154.0352" y2="154.0352"/><!--MD5=[b51717a605764d924c74fe29f3a07c77]
class TutorialType--><rect codeLine="18" fill="#FEFECE" filter="url(#f1pvlo2c9q7hxu)" height="86.4141" id="TutorialType" style="stroke:#A80036;stroke-width:1.5;" width="106" x="512" y="50"/><ellipse cx="527" cy="66" fill="#EB937F" rx="11" ry="11" style="stroke:#A80036;stroke-width:1.0;"/><path d="M525.7969,66.875 L527.25,66.875 L527.25,66.9844 C527.25,67.3906 527.2813,67.5469 527.3594,67.7031 C527.5156,67.9531 527.7969,68.1094 528.0938,68.1094 C528.3438,68.1094 528.6094,67.9688 528.7656,67.75 C528.8906,67.5938 528.9219,67.4375 528.9219,66.9844 L528.9219,65.0625 C528.9219,64.9063 528.9219,64.8594 528.9063,64.7031 C528.8438,64.2344 528.5313,63.9219 528.0781,63.9219 C527.8281,63.9219 527.5625,64.0625 527.3906,64.2813 C527.2813,64.4531 527.25,64.6094 527.25,65.0625 L527.25,65.1875 L525.7969,65.1875 L525.7969,62.7813 L529.7813,62.7813 L529.7813,63.6406 C529.7813,64.0469 529.8125,64.2188 529.8906,64.375 C530.0625,64.625 530.3438,64.7813 530.625,64.7813 C530.8906,64.7813 531.1563,64.6406 531.3281,64.4219 C531.4375,64.25 531.4688,64.1094 531.4688,63.6406 L531.4688,61.0938 L523.8438,61.0938 C523.4063,61.0938 523.2813,61.1094 523.125,61.2031 C522.875,61.3594 522.7188,61.6563 522.7188,61.9375 C522.7188,62.2188 522.8594,62.4688 523.0781,62.6406 C523.2344,62.75 523.4219,62.7813 523.8438,62.7813 L524.0938,62.7813 L524.0938,69.2969 L523.8438,69.2969 C523.4375,69.2969 523.2813,69.3125 523.125,69.4219 C522.875,69.5938 522.7188,69.8594 522.7188,70.1563 C522.7188,70.4219 522.8594,70.6719 523.0781,70.8281 C523.2188,70.9531 523.4531,71 523.8438,71 L531.8438,71 L531.8438,68.4219 C531.8438,67.9844 531.8125,67.8438 531.7344,67.6875 C531.5625,67.4375 531.2813,67.2813 531,67.2813 C530.7344,67.2813 530.4688,67.3906 530.2969,67.6406 C530.1875,67.7969 530.1563,67.9375 530.1563,68.4219 L530.1563,69.2969 L525.7969,69.2969 L525.7969,66.875 Z " fill="#000000"/><text fill="#000000" font-family="sans-serif" font-size="12" lengthAdjust="spacing" textLength="74" x="541" y="70.1543">TutorialType</text><line style="stroke:#A80036;stroke-width:1.5;" x1="513" x2="617" y1="82" y2="82"/><text fill="#000000" font-family="sans-serif" font-size="11" lengthAdjust="spacing" textLength="35" x="518" y="96.2104">ZOOM</text><text fill="#000000" font-family="sans-serif" font-size="11" lengthAdjust="spacing" textLength="78" x="518" y="109.0151">EYETRACKING</text><text fill="#000000" font-family="sans-serif" font-size="11" lengthAdjust="spacing" textLength="79" x="518" y="121.8198">CODECHARTS</text><line style="stroke:#A80036;stroke-width:1.5;" x1="513" x2="617" y1="128.4141" y2="128.4141"/><!--MD5=[626b00d2609f42ba755c8afb6d5f2b59]
class Bild--><rect codeLine="31" fill="#FEFECE" filter="url(#f1pvlo2c9q7hxu)" height="73.6094" id="Bild" style="stroke:#A80036;stroke-width:1.5;" width="147" x="69.5" y="56"/><ellipse cx="127.75" cy="72" fill="#A9DCDF" rx="11" ry="11" style="stroke:#A80036;stroke-width:1.0;"/><path d="M129.8281,73.8125 L130.2188,74.7969 L129.8281,74.7969 C129.375,74.7969 129.2656,74.8125 129.1094,74.9219 C128.8594,75.0781 128.7031,75.3594 128.7031,75.6563 C128.7031,75.9219 128.8438,76.1719 129.0625,76.3281 C129.2031,76.4531 129.4063,76.5 129.8281,76.5 L132.1875,76.5 C132.5469,76.5 132.7656,76.4688 132.9063,76.375 C133.1563,76.2344 133.3125,75.9375 133.3125,75.6563 C133.3125,75.375 133.1719,75.125 132.9531,74.9688 C132.7813,74.8281 132.625,74.7969 132.1563,74.7969 L128.7656,66.5938 L125.0938,66.5938 C124.6406,66.5938 124.5156,66.6094 124.3594,66.7031 C124.1094,66.875 123.9531,67.1563 123.9531,67.4375 C123.9531,67.7188 124.0938,67.9688 124.3125,68.1406 C124.4844,68.25 124.6563,68.2813 125.0938,68.2813 L126.1719,68.2813 L123.5313,74.7969 C123.1094,74.7969 122.9531,74.8125 122.7969,74.9219 C122.5469,75.0781 122.3906,75.3594 122.3906,75.6563 C122.3906,76.2188 122.7656,76.5 123.5156,76.5 L125.7813,76.5 C126.1406,76.5 126.3594,76.4688 126.4844,76.375 C126.75,76.2344 126.8906,75.9375 126.8906,75.6563 C126.8906,75.375 126.7656,75.125 126.5469,74.9531 C126.375,74.8281 126.2344,74.7969 125.7813,74.7969 L125.3906,74.7969 L125.7813,73.8125 L129.8281,73.8125 Z M129.125,72.1094 L126.4531,72.1094 L127.7969,68.8438 L129.125,72.1094 Z " fill="#000000"/><text fill="#000000" font-family="sans-serif" font-size="12" font-style="italic" lengthAdjust="spacing" textLength="22" x="148.25" y="76.1543">Bild</text><line style="stroke:#A80036;stroke-width:1.5;" x1="70.5" x2="215.5" y1="88" y2="88"/><line style="stroke:#A80036;stroke-width:1.5;" x1="70.5" x2="215.5" y1="96" y2="96"/><ellipse cx="80.5" cy="107" fill="#84BE84" rx="3" ry="3" style="stroke:#038048;stroke-width:1.0;"/><text fill="#000000" font-family="sans-serif" font-size="11" lengthAdjust="spacing" textLength="121" x="89.5" y="110.2104">load(url: String) : void</text><ellipse cx="80.5" cy="119.8047" fill="#84BE84" rx="3" ry="3" style="stroke:#038048;stroke-width:1.0;"/><text fill="#000000" font-family="sans-serif" font-size="11" lengthAdjust="spacing" textLength="72" x="89.5" y="123.0151">show() : void</text><!--MD5=[9bdf74ba08b45b42d4b5e25d73cb2a49]
link TutorialType to Tutorial--><path codeLine="25" d="M618.002,61.509 C628.134,57.294 639.021,53.959 649.96,52.628 " fill="none" id="TutorialType-Tutorial" style="stroke:#A80036;stroke-width:1.0;"/><line style="stroke:#A80036;stroke-width:1.0;" x1="649.96" x2="660" y1="52.628" y2="52"/><!--MD5=[fc4ffdc4bb2ac5a3cd1bd4c856213de4]
link Tutorial to Config--><path codeLine="26" d="M905.223,142.337 C939.362,161.283 972.928,186.46 995,219 C1065.79,323.357 1057.01,484.805 1050.34,547.182 " fill="none" id="Tutorial-Config" style="stroke:#A80036;stroke-width:1.0;"/><!--MD5=[c900c8497a661fa4184b5bb04c49372f]
reverse link Bild to CodeChartsBild--><path codeLine="94" d="M143,150.338 C143,201.895 143,276.432 143,318.958 " fill="none" id="Bild-backto-CodeChartsBild" style="stroke:#A80036;stroke-width:1.0;"/><polygon fill="none" points="136,150.145,143,130.145,150,150.145,136,150.145" style="stroke:#A80036;stroke-width:1.0;"/><!--MD5=[1e1b7046ac2ce77f5695cfbd942bbe9e]
reverse link Tutorial to CodeChartsTutorial--><path codeLine="95" d="M633.935,179.21 C552.359,205.55 516.183,175.753 452,219 C414.197,244.472 387.97,291.658 373.953,322.432 " fill="none" id="Tutorial-backto-CodeChartsTutorial" style="stroke:#A80036;stroke-width:1.0;"/><polygon fill="none" points="631.765,172.551,652.954,172.335,636.525,185.717,631.765,172.551" style="stroke:#A80036;stroke-width:1.0;"/><!--MD5=[ecd5483a8e025998d7d6cdbb26cbe301]
link CodeChartsComputer to CodeChartsCoordinator--><path codeLine="98" d="M477,369 C463.205,369 455.506,443.063 451.564,501.937 " fill="none" id="CodeChartsComputer-CodeChartsCoordinator" style="stroke:#A80036;stroke-width:1.0;"/><!--MD5=[5c3543e83cbee30822361f601e2ef64c]
link CodeChartsBild to CodeChartsCoordinator--><path codeLine="99" d="M188.992,387.024 C231.178,417.315 295.084,463.201 348.86,501.814 " fill="none" id="CodeChartsBild-CodeChartsCoordinator" style="stroke:#A80036;stroke-width:1.0;"/><!--MD5=[acd6e22bd1b43ca41d1e169d29f8f975]
link CodeChartsCoordinator to CodeChartsEingabefenster--><path codeLine="100" d="M448,646.016 C448,672.559 448,701.449 448,722.956 " fill="none" id="CodeChartsCoordinator-CodeChartsEingabefenster" style="stroke:#A80036;stroke-width:1.0;"/><!--MD5=[352d2a78a40821fe66095c41811c6ec4]
link CodeChartsCoordinator to CodeChartsInternerSpeicher--><path codeLine="101" d="M582.16,589.638 C592.741,590.274 603.344,590.722 613.716,590.906 " fill="none" id="CodeChartsCoordinator-CodeChartsInternerSpeicher" style="stroke:#A80036;stroke-width:1.0;"/><line style="stroke:#A80036;stroke-width:1.0;" x1="613.716" x2="624" y1="590.906" y2="591"/><!--MD5=[8d0c38d41660d655bff799c317a85db4]
link CodeChartsComputer to CodeChartsRaster--><path codeLine="102" d="M738.141,353 C749.898,353 761.656,353 773.413,353 " fill="none" id="CodeChartsComputer-CodeChartsRaster" style="stroke:#A80036;stroke-width:1.0;"/><!--MD5=[98ba0babc1f2c9ceb0957566289f4661]
link CodeChartsInternerSpeicher to SpeicherMedium--><path codeLine="112" d="M878,632 C954.365,632 1027.22,693.987 1063.36,730.3071 " fill="none" id="CodeChartsInternerSpeicher-SpeicherMedium" style="stroke:#A80036;stroke-width:1.0;"/><polygon fill="#000000" points="1031.4172,686.9091,1024.8034,680.0747,1022.0494,685.2675,1031.4172,686.9091" style="stroke:#000000;stroke-width:1.0;"/><text fill="#000000" font-family="sans-serif" font-size="13" lengthAdjust="spacing" textLength="73" x="1036" y="689.0669">saves Data</text><!--MD5=[ba0b6aad62bad149f99973f5ab313e4e]
link CodeChartsCoordinator to Config--><path codeLine="113" d="M575,548 C598.06,548 580.768,516.119 599,502 C662.72,452.655 697.585,467.65 778,473 C875.087,479.459 911.497,452.05 995,502 C1012.6,512.527 1025.95,531.55 1034.71,547.399 " fill="none" id="CodeChartsCoordinator-Config" style="stroke:#A80036;stroke-width:1.0;"/><polygon fill="#000000" points="724,463.5729,733.0489,466.5,733.0412,460.6222,724,463.5729" style="stroke:#000000;stroke-width:1.0;"/><text fill="#000000" font-family="sans-serif" font-size="13" lengthAdjust="spacing" textLength="39" x="738" y="468.0669">speed</text><!--MD5=[0c77f9a413e15da63ba5e1bb53578bc7]
link CodeChartsBild to Config--><path codeLine="114" d="M190.573,387.11 C213.754,401.44 242.689,416.788 271,425 C491.201,488.871 558.957,423.076 786,455 C833.141,461.628 955.179,475.914 995,502 C1012,513.135 1025.37,531.864 1034.29,547.291 " fill="none" id="CodeChartsBild-Config" style="stroke:#A80036;stroke-width:1.0;"/><polygon fill="#000000" points="894.0877,462.6338,902.4259,467.2082,903.5223,461.4335,894.0877,462.6338" style="stroke:#000000;stroke-width:1.0;"/><text fill="#000000" font-family="sans-serif" font-size="13" lengthAdjust="spacing" textLength="76" x="908" y="468.0669">gets picture</text><!--MD5=[de32bf310046cc8ae1dc7f450e1413b0]
link Config to CodeChartsInternerSpeicher--><path codeLine="115" d="M1010.96,574 C979.35,574 931.338,574 885.143,574 " fill="none" id="Config-CodeChartsInternerSpeicher" style="stroke:#A80036;stroke-width:1.0;"/><polygon fill="#000000" points="902.5,562.5664,911.5451,565.5053,911.5451,559.6275,902.5,562.5664" style="stroke:#000000;stroke-width:1.0;"/><text fill="#000000" font-family="sans-serif" font-size="13" lengthAdjust="spacing" textLength="76" x="916.5" y="567.0669">gets picture</text><!--MD5=[a45eff3ed118a47672ee190317be3c1d]
@startuml
' skinparam backgroundColor transparent
'() System #DA70D5
top to bottom direction

' - - - TUTORIAL - - -
abstract Tutorial<t: TutorialType> {
  - t: TutorialType
  __public method__
  + start() : void
  __private methods__
  - getConfigState() : boolean
  - setConfigState(state: boolean) : void
  - show() : boolean
  __abstract methods__
  - {abstract} tutorial() : void
}

enum TutorialType {
  ZOOM
  EYETRACKING
  CODECHARTS
}

' Interaktionen
Tutorial::t -l- TutorialType
Tutorial -d- Config


' - - - BILD - - -

abstract Bild {
  + load(url: String) : void
  + show() : void
}

' === CODE CHARTS ===
package CodeCharts {

    ' CodeCharts Tutorial 
    class CodeChartsTutorial {
        - tutorial() : void
    }
  
    ' CodeCharts Coordinator
    class CodeChartsCoordinator {
        - speed: float
        - position: float[3]
        __public method__
        + processInput(raw_input: unknown) : void
        __private methods__
        - calculate(raw_input: unknown) : float[3]
        - save(position: float[3]) : boolean
    }

    ' CodeCharts Computer
    class CodeChartsComputer {
        - speed: float
        - position: float[3]
        __public method__
        + processInput(raw_input: unknown) : void
        __private methods__
        - calculate(raw_input: unknown) : float[3]
        - save(position: float[3]) : boolean
    }

    ' CodeCharts Interner Speicher
    class CodeChartsInternerSpeicher {
        - speed: float
        - position: float[3]
        __public method__
        + processInput(raw_input: unknown) : void
        __private methods__
        - calculate(raw_input: unknown) : float[3]
        - save(position: float[3]) : boolean
    }

    ' CodeCharts Bild
    class CodeChartsBild {
        + move(position: float[3]): float[3]
    }

    ' CodeCharts Raster
    class CodeChartsRaster {
        + move(position: float[3]): float[3]
    }

    ' CodeCharts Eingabefenster
    class CodeChartsEingabefenster {
        + move(position: float[3]): float[3]
    }


    ' Vererbungen
    Bild <|-d- CodeChartsBild
    Tutorial <|-d- CodeChartsTutorial

    ' Interaktionen
    CodeChartsCoordinator -u- CodeChartsComputer::processInput
    CodeChartsCoordinator -u- CodeChartsBild::processInput
    CodeChartsCoordinator -d- CodeChartsEingabefenster::processInput
    CodeChartsInternerSpeicher::processInput -l- CodeChartsCoordinator
    CodeChartsComputer -r- CodeChartsRaster


    





    ' Andere Module
    CodeChartsInternerSpeicher::save -d- SpeicherMedium : > saves Data
    CodeChartsCoordinator::speed -d- Config : < speed
    CodeChartsBild -d- Config : < gets picture
    CodeChartsInternerSpeicher -u- Config : < gets picture
  
}

' Blackboxen / Andere Module
package Config {}

package SpeicherMedium {}
@enduml

@startuml
top to bottom direction

abstract Tutorial<t: TutorialType> {
  - t: TutorialType
  __public method__
  + start() : void
  __private methods__
  - getConfigState() : boolean
  - setConfigState(state: boolean) : void
  - show() : boolean
  __abstract methods__
  - {abstract} tutorial() : void
}

enum TutorialType {
  ZOOM
  EYETRACKING
  CODECHARTS
}

Tutorial::t -l- TutorialType
Tutorial -d- Config



abstract Bild {
  + load(url: String) : void
  + show() : void
}

package CodeCharts {

    class CodeChartsTutorial {
        - tutorial() : void
    }
  
    class CodeChartsCoordinator {
        - speed: float
        - position: float[3]
        __public method__
        + processInput(raw_input: unknown) : void
        __private methods__
        - calculate(raw_input: unknown) : float[3]
        - save(position: float[3]) : boolean
    }

    class CodeChartsComputer {
        - speed: float
        - position: float[3]
        __public method__
        + processInput(raw_input: unknown) : void
        __private methods__
        - calculate(raw_input: unknown) : float[3]
        - save(position: float[3]) : boolean
    }

    class CodeChartsInternerSpeicher {
        - speed: float
        - position: float[3]
        __public method__
        + processInput(raw_input: unknown) : void
        __private methods__
        - calculate(raw_input: unknown) : float[3]
        - save(position: float[3]) : boolean
    }

    class CodeChartsBild {
        + move(position: float[3]): float[3]
    }

    class CodeChartsRaster {
        + move(position: float[3]): float[3]
    }

    class CodeChartsEingabefenster {
        + move(position: float[3]): float[3]
    }


    Bild <|-d- CodeChartsBild
    Tutorial <|-d- CodeChartsTutorial

    CodeChartsCoordinator -u- CodeChartsComputer::processInput
    CodeChartsCoordinator -u- CodeChartsBild::processInput
    CodeChartsCoordinator -d- CodeChartsEingabefenster::processInput
    CodeChartsInternerSpeicher::processInput -l- CodeChartsCoordinator
    CodeChartsComputer -r- CodeChartsRaster


    





    CodeChartsInternerSpeicher::save -d- SpeicherMedium : > saves Data
    CodeChartsCoordinator::speed -d- Config : < speed
    CodeChartsBild -d- Config : < gets picture
    CodeChartsInternerSpeicher -u- Config : < gets picture
  
}

package Config {}

package SpeicherMedium {}
@enduml

PlantUML version 1.2021.13beta8(Unknown compile time)
(GPL source distribution)
Java Runtime: Java(TM) SE Runtime Environment
JVM: Java HotSpot(TM) 64-Bit Server VM
Default Encoding: UTF-8
Language: en
Country: US
--></g></svg>