<?xml version="1.0" encoding="UTF-8" standalone="no"?><svg xmlns="http://www.w3.org/2000/svg" xmlns:xlink="http://www.w3.org/1999/xlink" contentScriptType="application/ecmascript" contentStyleType="text/css" height="683px" preserveAspectRatio="none" style="width:1649px;height:683px;background:#FFFFFF;" version="1.1" viewBox="0 0 1649 683" width="1649px" zoomAndPan="magnify"><defs><filter height="300%" id="f7kpnez9djvvg" width="300%" x="-1" y="-1"><feGaussianBlur result="blurOut" stdDeviation="2.0"/><feColorMatrix in="blurOut" result="blurOut2" type="matrix" values="0 0 0 0 0 0 0 0 0 0 0 0 0 0 0 0 0 0 .4 0"/><feOffset dx="4.0" dy="4.0" in="blurOut2" result="blurOut3"/><feBlend in="SourceGraphic" in2="blurOut3" mode="normal"/></filter></defs><g><!--MD5=[a55135535b5c544b99c33b17428c3b14]
cluster Util--><polygon fill="#FFFFFF" filter="url(#f7kpnez9djvvg)" points="16,6,51,6,58,28.2969,486,28.2969,486,403,16,403,16,6" style="stroke:#000000;stroke-width:1.5;"/><line style="stroke:#000000;stroke-width:1.5;" x1="16" x2="58" y1="28.2969" y2="28.2969"/><text fill="#000000" font-family="sans-serif" font-size="14" font-weight="bold" lengthAdjust="spacing" textLength="29" x="20" y="20.9951">Util</text><!--MD5=[bd4ed236a13575a9dcf49b2316e757e7]
cluster CodeCharts--><polygon fill="#FFFFFF" filter="url(#f7kpnez9djvvg)" points="510,174,609,174,616,196.2969,1461,196.2969,1461,676,510,676,510,174" style="stroke:#000000;stroke-width:1.5;"/><line style="stroke:#000000;stroke-width:1.5;" x1="510" x2="616" y1="196.2969" y2="196.2969"/><text fill="#000000" font-family="sans-serif" font-size="14" font-weight="bold" lengthAdjust="spacing" textLength="93" x="514" y="188.9951">CodeCharts</text><!--MD5=[fccc419d627b37790932ddb688fb7ad6]
class Tutorial--><rect codeLine="7" fill="#FEFECE" filter="url(#f7kpnez9djvvg)" height="167.2422" id="Tutorial" style="stroke:#A80036;stroke-width:1.5;" width="236" x="234" y="220"/><ellipse cx="290.25" cy="236" fill="#A9DCDF" rx="11" ry="11" style="stroke:#A80036;stroke-width:1.0;"/><path d="M292.3281,237.8125 L292.7188,238.7969 L292.3281,238.7969 C291.875,238.7969 291.7656,238.8125 291.6094,238.9219 C291.3594,239.0781 291.2031,239.3594 291.2031,239.6563 C291.2031,239.9219 291.3438,240.1719 291.5625,240.3281 C291.7031,240.4531 291.9063,240.5 292.3281,240.5 L294.6875,240.5 C295.0469,240.5 295.2656,240.4688 295.4063,240.375 C295.6563,240.2344 295.8125,239.9375 295.8125,239.6563 C295.8125,239.375 295.6719,239.125 295.4531,238.9688 C295.2813,238.8281 295.125,238.7969 294.6563,238.7969 L291.2656,230.5938 L287.5938,230.5938 C287.1406,230.5938 287.0156,230.6094 286.8594,230.7031 C286.6094,230.875 286.4531,231.1563 286.4531,231.4375 C286.4531,231.7188 286.5938,231.9688 286.8125,232.1406 C286.9844,232.25 287.1563,232.2813 287.5938,232.2813 L288.6719,232.2813 L286.0313,238.7969 C285.6094,238.7969 285.4531,238.8125 285.2969,238.9219 C285.0469,239.0781 284.8906,239.3594 284.8906,239.6563 C284.8906,240.2188 285.2656,240.5 286.0156,240.5 L288.2813,240.5 C288.6406,240.5 288.8594,240.4688 288.9844,240.375 C289.25,240.2344 289.3906,239.9375 289.3906,239.6563 C289.3906,239.375 289.2656,239.125 289.0469,238.9531 C288.875,238.8281 288.7344,238.7969 288.2813,238.7969 L287.8906,238.7969 L288.2813,237.8125 L292.3281,237.8125 Z M291.625,236.1094 L288.9531,236.1094 L290.2969,232.8438 L291.625,236.1094 Z " fill="#000000"/><text fill="#000000" font-family="sans-serif" font-size="12" font-style="italic" lengthAdjust="spacing" textLength="45" x="310.75" y="240.1543">Tutorial</text><rect fill="#FFFFFF" height="15.9688" style="stroke:#000000;stroke-width:1.0;stroke-dasharray:2.0,2.0;" width="68" x="405" y="217"/><text fill="#000000" font-family="sans-serif" font-size="12" font-style="italic" lengthAdjust="spacing" textLength="66" x="406" y="229.1387">t: ToolType</text><line style="stroke:#A80036;stroke-width:1.5;" x1="235" x2="469" y1="252" y2="252"/><rect fill="none" height="6" style="stroke:#C82930;stroke-width:1.0;" width="6" x="242" y="260"/><text fill="#000000" font-family="sans-serif" font-size="11" lengthAdjust="spacing" textLength="64" x="254" y="266.2104">t: ToolType</text><ellipse cx="245" cy="292.6094" fill="#84BE84" rx="3" ry="3" style="stroke:#038048;stroke-width:1.0;"/><text fill="#000000" font-family="sans-serif" font-size="11" lengthAdjust="spacing" textLength="68" x="254" y="295.8198">start() : void</text><line style="stroke:#A80036;stroke-width:1.5;" x1="235" x2="311.5" y1="279.207" y2="279.207"/><text fill="#000000" font-family="sans-serif" font-size="11" lengthAdjust="spacing" textLength="81" x="311.5" y="282.5151">public method</text><line style="stroke:#A80036;stroke-width:1.5;" x1="392.5" x2="469" y1="279.207" y2="279.207"/><rect fill="#F24D5C" height="6" style="stroke:#C82930;stroke-width:1.0;" width="6" x="242" y="319.2188"/><text fill="#000000" font-family="sans-serif" font-size="11" lengthAdjust="spacing" textLength="151" x="254" y="325.4292">getConfigState() : boolean</text><rect fill="#F24D5C" height="6" style="stroke:#C82930;stroke-width:1.0;" width="6" x="242" y="332.0234"/><text fill="#000000" font-family="sans-serif" font-size="11" lengthAdjust="spacing" textLength="210" x="254" y="338.2339">setConfigState(state: boolean) : void</text><rect fill="#F24D5C" height="6" style="stroke:#C82930;stroke-width:1.0;" width="6" x="242" y="344.8281"/><text fill="#000000" font-family="sans-serif" font-size="11" lengthAdjust="spacing" textLength="94" x="254" y="351.0386">show() : boolean</text><line style="stroke:#A80036;stroke-width:1.5;" x1="235" x2="305" y1="308.8164" y2="308.8164"/><text fill="#000000" font-family="sans-serif" font-size="11" lengthAdjust="spacing" textLength="94" x="305" y="312.1245">private methods</text><line style="stroke:#A80036;stroke-width:1.5;" x1="399" x2="469" y1="308.8164" y2="308.8164"/><rect fill="#F24D5C" height="6" style="stroke:#C82930;stroke-width:1.0;" width="6" x="242" y="374.4375"/><text fill="#000000" font-family="sans-serif" font-size="11" font-style="italic" lengthAdjust="spacing" textLength="84" x="254" y="380.6479">tutorial() : void</text><line style="stroke:#A80036;stroke-width:1.5;" x1="235" x2="302.5" y1="364.0352" y2="364.0352"/><text fill="#000000" font-family="sans-serif" font-size="11" lengthAdjust="spacing" textLength="99" x="302.5" y="367.3433">abstract methods</text><line style="stroke:#A80036;stroke-width:1.5;" x1="401.5" x2="469" y1="364.0352" y2="364.0352"/><!--MD5=[5c39798b83ace9e75333b1274a725e6c]
class ToolType--><rect codeLine="19" fill="#FEFECE" filter="url(#f7kpnez9djvvg)" height="86.4141" id="ToolType" style="stroke:#A80036;stroke-width:1.5;" width="91" x="32.5" y="41"/><ellipse cx="48.85" cy="57" fill="#EB937F" rx="11" ry="11" style="stroke:#A80036;stroke-width:1.0;"/><path d="M47.6469,57.875 L49.1,57.875 L49.1,57.9844 C49.1,58.3906 49.1313,58.5469 49.2094,58.7031 C49.3656,58.9531 49.6469,59.1094 49.9438,59.1094 C50.1938,59.1094 50.4594,58.9688 50.6156,58.75 C50.7406,58.5938 50.7719,58.4375 50.7719,57.9844 L50.7719,56.0625 C50.7719,55.9063 50.7719,55.8594 50.7563,55.7031 C50.6938,55.2344 50.3813,54.9219 49.9281,54.9219 C49.6781,54.9219 49.4125,55.0625 49.2406,55.2813 C49.1313,55.4531 49.1,55.6094 49.1,56.0625 L49.1,56.1875 L47.6469,56.1875 L47.6469,53.7813 L51.6313,53.7813 L51.6313,54.6406 C51.6313,55.0469 51.6625,55.2188 51.7406,55.375 C51.9125,55.625 52.1938,55.7813 52.475,55.7813 C52.7406,55.7813 53.0063,55.6406 53.1781,55.4219 C53.2875,55.25 53.3188,55.1094 53.3188,54.6406 L53.3188,52.0938 L45.6938,52.0938 C45.2563,52.0938 45.1313,52.1094 44.975,52.2031 C44.725,52.3594 44.5688,52.6563 44.5688,52.9375 C44.5688,53.2188 44.7094,53.4688 44.9281,53.6406 C45.0844,53.75 45.2719,53.7813 45.6938,53.7813 L45.9438,53.7813 L45.9438,60.2969 L45.6938,60.2969 C45.2875,60.2969 45.1313,60.3125 44.975,60.4219 C44.725,60.5938 44.5688,60.8594 44.5688,61.1563 C44.5688,61.4219 44.7094,61.6719 44.9281,61.8281 C45.0688,61.9531 45.3031,62 45.6938,62 L53.6938,62 L53.6938,59.4219 C53.6938,58.9844 53.6625,58.8438 53.5844,58.6875 C53.4125,58.4375 53.1313,58.2813 52.85,58.2813 C52.5844,58.2813 52.3188,58.3906 52.1469,58.6406 C52.0375,58.7969 52.0063,58.9375 52.0063,59.4219 L52.0063,60.2969 L47.6469,60.2969 L47.6469,57.875 Z " fill="#000000"/><text fill="#000000" font-family="sans-serif" font-size="12" lengthAdjust="spacing" textLength="56" x="63.15" y="61.1543">ToolType</text><line style="stroke:#A80036;stroke-width:1.5;" x1="33.5" x2="122.5" y1="73" y2="73"/><text fill="#000000" font-family="sans-serif" font-size="11" lengthAdjust="spacing" textLength="35" x="38.5" y="87.2104">ZOOM</text><text fill="#000000" font-family="sans-serif" font-size="11" lengthAdjust="spacing" textLength="78" x="38.5" y="100.0151">EYETRACKING</text><text fill="#000000" font-family="sans-serif" font-size="11" lengthAdjust="spacing" textLength="79" x="38.5" y="112.8198">CODECHARTS</text><line style="stroke:#A80036;stroke-width:1.5;" x1="33.5" x2="122.5" y1="119.4141" y2="119.4141"/><!--MD5=[60c9ed31c535bee25c55ce21b5b01399]
class Data--><rect codeLine="38" fill="#FEFECE" filter="url(#f7kpnez9djvvg)" height="86.4141" id="Data" style="stroke:#A80036;stroke-width:1.5;" width="129" x="158.5" y="41"/><ellipse cx="173.5" cy="57" fill="#ADD1B2" rx="11" ry="11" style="stroke:#A80036;stroke-width:1.0;"/><path d="M175.8438,52.6719 C174.9063,52.2344 174.3125,52.0938 173.4375,52.0938 C170.8125,52.0938 168.8125,54.1719 168.8125,56.8906 L168.8125,58.0156 C168.8125,60.5938 170.9219,62.4844 173.8125,62.4844 C175.0313,62.4844 176.1875,62.1875 176.9375,61.6406 C177.5156,61.2344 177.8438,60.7813 177.8438,60.3906 C177.8438,59.9375 177.4531,59.5469 176.9844,59.5469 C176.7656,59.5469 176.5625,59.625 176.375,59.8125 C175.9219,60.2969 175.9219,60.2969 175.7344,60.3906 C175.3125,60.6563 174.625,60.7813 173.8594,60.7813 C171.8125,60.7813 170.5156,59.6875 170.5156,57.9844 L170.5156,56.8906 C170.5156,55.1094 171.7656,53.7969 173.5,53.7969 C174.0781,53.7969 174.6875,53.9531 175.1563,54.2031 C175.6406,54.4844 175.8125,54.7031 175.9063,55.1094 C175.9688,55.5156 176,55.6406 176.1406,55.7656 C176.2813,55.9063 176.5156,56.0156 176.7344,56.0156 C177,56.0156 177.2656,55.875 177.4375,55.6563 C177.5469,55.5 177.5781,55.3125 177.5781,54.8906 L177.5781,53.4688 C177.5781,53.0313 177.5625,52.9063 177.4688,52.75 C177.3125,52.4844 177.0313,52.3438 176.7344,52.3438 C176.4375,52.3438 176.2344,52.4375 176.0156,52.75 L175.8438,52.6719 Z " fill="#000000"/><text fill="#000000" font-family="sans-serif" font-size="12" lengthAdjust="spacing" textLength="27" x="187.5" y="61.1543">Data</text><rect fill="#FFFFFF" height="15.9688" style="stroke:#000000;stroke-width:1.0;stroke-dasharray:2.0,2.0;" width="68" x="222.5" y="38"/><text fill="#000000" font-family="sans-serif" font-size="12" font-style="italic" lengthAdjust="spacing" textLength="66" x="223.5" y="50.1387">t: ToolType</text><line style="stroke:#A80036;stroke-width:1.5;" x1="159.5" x2="286.5" y1="73" y2="73"/><ellipse cx="169.5" cy="84" rx="3" ry="3" style="stroke:#038048;stroke-width:1.0;fill:none;"/><text fill="#000000" font-family="sans-serif" font-size="11" lengthAdjust="spacing" textLength="64" x="178.5" y="87.2104">t: ToolType</text><ellipse cx="169.5" cy="96.8047" rx="3" ry="3" style="stroke:#038048;stroke-width:1.0;fill:none;"/><text fill="#000000" font-family="sans-serif" font-size="11" lengthAdjust="spacing" textLength="82" x="178.5" y="100.0151">data: unknown</text><ellipse cx="169.5" cy="109.6094" rx="3" ry="3" style="stroke:#038048;stroke-width:1.0;fill:none;"/><text fill="#000000" font-family="sans-serif" font-size="11" lengthAdjust="spacing" textLength="71" x="178.5" y="112.8198">config_id: int</text><line style="stroke:#A80036;stroke-width:1.5;" x1="159.5" x2="286.5" y1="119.4141" y2="119.4141"/><!--MD5=[626b00d2609f42ba755c8afb6d5f2b59]
class Bild--><rect codeLine="33" fill="#FEFECE" filter="url(#f7kpnez9djvvg)" height="73.6094" id="Bild" style="stroke:#A80036;stroke-width:1.5;" width="147" x="322.5" y="47"/><ellipse cx="380.75" cy="63" fill="#A9DCDF" rx="11" ry="11" style="stroke:#A80036;stroke-width:1.0;"/><path d="M382.8281,64.8125 L383.2188,65.7969 L382.8281,65.7969 C382.375,65.7969 382.2656,65.8125 382.1094,65.9219 C381.8594,66.0781 381.7031,66.3594 381.7031,66.6563 C381.7031,66.9219 381.8438,67.1719 382.0625,67.3281 C382.2031,67.4531 382.4063,67.5 382.8281,67.5 L385.1875,67.5 C385.5469,67.5 385.7656,67.4688 385.9063,67.375 C386.1563,67.2344 386.3125,66.9375 386.3125,66.6563 C386.3125,66.375 386.1719,66.125 385.9531,65.9688 C385.7813,65.8281 385.625,65.7969 385.1563,65.7969 L381.7656,57.5938 L378.0938,57.5938 C377.6406,57.5938 377.5156,57.6094 377.3594,57.7031 C377.1094,57.875 376.9531,58.1563 376.9531,58.4375 C376.9531,58.7188 377.0938,58.9688 377.3125,59.1406 C377.4844,59.25 377.6563,59.2813 378.0938,59.2813 L379.1719,59.2813 L376.5313,65.7969 C376.1094,65.7969 375.9531,65.8125 375.7969,65.9219 C375.5469,66.0781 375.3906,66.3594 375.3906,66.6563 C375.3906,67.2188 375.7656,67.5 376.5156,67.5 L378.7813,67.5 C379.1406,67.5 379.3594,67.4688 379.4844,67.375 C379.75,67.2344 379.8906,66.9375 379.8906,66.6563 C379.8906,66.375 379.7656,66.125 379.5469,65.9531 C379.375,65.8281 379.2344,65.7969 378.7813,65.7969 L378.3906,65.7969 L378.7813,64.8125 L382.8281,64.8125 Z M382.125,63.1094 L379.4531,63.1094 L380.7969,59.8438 L382.125,63.1094 Z " fill="#000000"/><text fill="#000000" font-family="sans-serif" font-size="12" font-style="italic" lengthAdjust="spacing" textLength="22" x="401.25" y="67.1543">Bild</text><line style="stroke:#A80036;stroke-width:1.5;" x1="323.5" x2="468.5" y1="79" y2="79"/><line style="stroke:#A80036;stroke-width:1.5;" x1="323.5" x2="468.5" y1="87" y2="87"/><ellipse cx="333.5" cy="98" fill="#84BE84" rx="3" ry="3" style="stroke:#038048;stroke-width:1.0;"/><text fill="#000000" font-family="sans-serif" font-size="11" lengthAdjust="spacing" textLength="121" x="342.5" y="101.2104">load(url: String) : void</text><ellipse cx="333.5" cy="110.8047" fill="#84BE84" rx="3" ry="3" style="stroke:#038048;stroke-width:1.0;"/><text fill="#000000" font-family="sans-serif" font-size="11" lengthAdjust="spacing" textLength="72" x="342.5" y="114.0151">show() : void</text><!--MD5=[81d462353594d8875238471802618d21]
class CodeChartsTutorial--><rect codeLine="49" fill="#FEFECE" filter="url(#f7kpnez9djvvg)" height="60.8047" id="CodeChartsTutorial" style="stroke:#A80036;stroke-width:1.5;" width="146" x="526" y="537"/><ellipse cx="541" cy="553" fill="#ADD1B2" rx="11" ry="11" style="stroke:#A80036;stroke-width:1.0;"/><path d="M543.3438,548.6719 C542.4063,548.2344 541.8125,548.0938 540.9375,548.0938 C538.3125,548.0938 536.3125,550.1719 536.3125,552.8906 L536.3125,554.0156 C536.3125,556.5938 538.4219,558.4844 541.3125,558.4844 C542.5313,558.4844 543.6875,558.1875 544.4375,557.6406 C545.0156,557.2344 545.3438,556.7813 545.3438,556.3906 C545.3438,555.9375 544.9531,555.5469 544.4844,555.5469 C544.2656,555.5469 544.0625,555.625 543.875,555.8125 C543.4219,556.2969 543.4219,556.2969 543.2344,556.3906 C542.8125,556.6563 542.125,556.7813 541.3594,556.7813 C539.3125,556.7813 538.0156,555.6875 538.0156,553.9844 L538.0156,552.8906 C538.0156,551.1094 539.2656,549.7969 541,549.7969 C541.5781,549.7969 542.1875,549.9531 542.6563,550.2031 C543.1406,550.4844 543.3125,550.7031 543.4063,551.1094 C543.4688,551.5156 543.5,551.6406 543.6406,551.7656 C543.7813,551.9063 544.0156,552.0156 544.2344,552.0156 C544.5,552.0156 544.7656,551.875 544.9375,551.6563 C545.0469,551.5 545.0781,551.3125 545.0781,550.8906 L545.0781,549.4688 C545.0781,549.0313 545.0625,548.9063 544.9688,548.75 C544.8125,548.4844 544.5313,548.3438 544.2344,548.3438 C543.9375,548.3438 543.7344,548.4375 543.5156,548.75 L543.3438,548.6719 Z " fill="#000000"/><text fill="#000000" font-family="sans-serif" font-size="12" lengthAdjust="spacing" textLength="114" x="555" y="557.1543">CodeChartsTutorial</text><line style="stroke:#A80036;stroke-width:1.5;" x1="527" x2="671" y1="569" y2="569"/><line style="stroke:#A80036;stroke-width:1.5;" x1="527" x2="671" y1="577" y2="577"/><rect fill="#F24D5C" height="6" style="stroke:#C82930;stroke-width:1.0;" width="6" x="534" y="585"/><text fill="#000000" font-family="sans-serif" font-size="11" lengthAdjust="spacing" textLength="82" x="546" y="591.2104">tutorial() : void</text><!--MD5=[d6943c12ae734dbe1975a5489f85ab8f]
class CodeChartsCoordinator--><rect codeLine="54" fill="#FEFECE" filter="url(#f7kpnez9djvvg)" height="188.8516" id="CodeChartsCoordinator" style="stroke:#A80036;stroke-width:1.5;" width="178" x="865" y="209"/><ellipse cx="882.25" cy="225" fill="#ADD1B2" rx="11" ry="11" style="stroke:#A80036;stroke-width:1.0;"/><path d="M884.5938,220.6719 C883.6563,220.2344 883.0625,220.0938 882.1875,220.0938 C879.5625,220.0938 877.5625,222.1719 877.5625,224.8906 L877.5625,226.0156 C877.5625,228.5938 879.6719,230.4844 882.5625,230.4844 C883.7813,230.4844 884.9375,230.1875 885.6875,229.6406 C886.2656,229.2344 886.5938,228.7813 886.5938,228.3906 C886.5938,227.9375 886.2031,227.5469 885.7344,227.5469 C885.5156,227.5469 885.3125,227.625 885.125,227.8125 C884.6719,228.2969 884.6719,228.2969 884.4844,228.3906 C884.0625,228.6563 883.375,228.7813 882.6094,228.7813 C880.5625,228.7813 879.2656,227.6875 879.2656,225.9844 L879.2656,224.8906 C879.2656,223.1094 880.5156,221.7969 882.25,221.7969 C882.8281,221.7969 883.4375,221.9531 883.9063,222.2031 C884.3906,222.4844 884.5625,222.7031 884.6563,223.1094 C884.7188,223.5156 884.75,223.6406 884.8906,223.7656 C885.0313,223.9063 885.2656,224.0156 885.4844,224.0156 C885.75,224.0156 886.0156,223.875 886.1875,223.6563 C886.2969,223.5 886.3281,223.3125 886.3281,222.8906 L886.3281,221.4688 C886.3281,221.0313 886.3125,220.9063 886.2188,220.75 C886.0625,220.4844 885.7813,220.3438 885.4844,220.3438 C885.1875,220.3438 884.9844,220.4375 884.7656,220.75 L884.5938,220.6719 Z " fill="#000000"/><text fill="#000000" font-family="sans-serif" font-size="12" lengthAdjust="spacing" textLength="141" x="896.75" y="229.1543">CodeChartsCoordinator</text><line style="stroke:#A80036;stroke-width:1.5;" x1="866" x2="1042" y1="241" y2="241"/><rect fill="none" height="6" style="stroke:#C82930;stroke-width:1.0;" width="6" x="873" y="249"/><text fill="#000000" font-family="sans-serif" font-size="11" lengthAdjust="spacing" textLength="59" x="885" y="255.2104">data: Data</text><rect fill="none" height="6" style="stroke:#C82930;stroke-width:1.0;" width="6" x="873" y="261.8047"/><text fill="#000000" font-family="sans-serif" font-size="11" lengthAdjust="spacing" textLength="83" x="885" y="268.0151">speed: float[2]</text><rect fill="none" height="6" style="stroke:#C82930;stroke-width:1.0;" width="6" x="873" y="274.6094"/><text fill="#000000" font-family="sans-serif" font-size="11" lengthAdjust="spacing" textLength="104" x="885" y="280.8198">isTutorial: boolean</text><rect fill="none" height="6" style="stroke:#C82930;stroke-width:1.0;" width="6" x="873" y="287.4141"/><text fill="#000000" font-family="sans-serif" font-size="11" lengthAdjust="spacing" textLength="109" x="885" y="293.6245">isRelative: boolean</text><rect fill="none" height="6" style="stroke:#C82930;stroke-width:1.0;" width="6" x="873" y="300.2188"/><text fill="#000000" font-family="sans-serif" font-size="11" lengthAdjust="spacing" textLength="101" x="885" y="306.4292">dimensions: int[2]</text><rect fill="none" height="6" style="stroke:#C82930;stroke-width:1.0;" width="6" x="873" y="313.0234"/><text fill="#000000" font-family="sans-serif" font-size="11" lengthAdjust="spacing" textLength="91" x="885" y="319.2339">strings: String[..]</text><ellipse cx="876" cy="345.6328" fill="#84BE84" rx="3" ry="3" style="stroke:#038048;stroke-width:1.0;"/><text fill="#000000" font-family="sans-serif" font-size="11" lengthAdjust="spacing" textLength="134" x="885" y="348.8433">startCodeCharts() : void</text><line style="stroke:#A80036;stroke-width:1.5;" x1="866" x2="913.5" y1="332.2305" y2="332.2305"/><text fill="#000000" font-family="sans-serif" font-size="11" lengthAdjust="spacing" textLength="81" x="913.5" y="335.5386">public method</text><line style="stroke:#A80036;stroke-width:1.5;" x1="994.5" x2="1042" y1="332.2305" y2="332.2305"/><rect fill="#F24D5C" height="6" style="stroke:#C82930;stroke-width:1.0;" width="6" x="873" y="372.2422"/><text fill="#000000" font-family="sans-serif" font-size="11" lengthAdjust="spacing" textLength="152" x="885" y="378.4526">loadConfigData() : boolean</text><rect fill="#F24D5C" height="6" style="stroke:#C82930;stroke-width:1.0;" width="6" x="873" y="385.0469"/><text fill="#000000" font-family="sans-serif" font-size="11" lengthAdjust="spacing" textLength="100" x="885" y="391.2573">tryTutorial() : void</text><line style="stroke:#A80036;stroke-width:1.5;" x1="866" x2="907" y1="361.8398" y2="361.8398"/><text fill="#000000" font-family="sans-serif" font-size="11" lengthAdjust="spacing" textLength="94" x="907" y="365.1479">private methods</text><line style="stroke:#A80036;stroke-width:1.5;" x1="1001" x2="1042" y1="361.8398" y2="361.8398"/><!--MD5=[48cc74a7e7e460afd8863a3fcc09bdcb]
class CodeChartsBild--><rect codeLine="69" fill="#FEFECE" filter="url(#f7kpnez9djvvg)" height="48" id="CodeChartsBild" style="stroke:#A80036;stroke-width:1.5;" width="124" x="1321" y="543.5"/><ellipse cx="1336" cy="559.5" fill="#ADD1B2" rx="11" ry="11" style="stroke:#A80036;stroke-width:1.0;"/><path d="M1338.3438,555.1719 C1337.4063,554.7344 1336.8125,554.5938 1335.9375,554.5938 C1333.3125,554.5938 1331.3125,556.6719 1331.3125,559.3906 L1331.3125,560.5156 C1331.3125,563.0938 1333.4219,564.9844 1336.3125,564.9844 C1337.5313,564.9844 1338.6875,564.6875 1339.4375,564.1406 C1340.0156,563.7344 1340.3438,563.2813 1340.3438,562.8906 C1340.3438,562.4375 1339.9531,562.0469 1339.4844,562.0469 C1339.2656,562.0469 1339.0625,562.125 1338.875,562.3125 C1338.4219,562.7969 1338.4219,562.7969 1338.2344,562.8906 C1337.8125,563.1563 1337.125,563.2813 1336.3594,563.2813 C1334.3125,563.2813 1333.0156,562.1875 1333.0156,560.4844 L1333.0156,559.3906 C1333.0156,557.6094 1334.2656,556.2969 1336,556.2969 C1336.5781,556.2969 1337.1875,556.4531 1337.6563,556.7031 C1338.1406,556.9844 1338.3125,557.2031 1338.4063,557.6094 C1338.4688,558.0156 1338.5,558.1406 1338.6406,558.2656 C1338.7813,558.4063 1339.0156,558.5156 1339.2344,558.5156 C1339.5,558.5156 1339.7656,558.375 1339.9375,558.1563 C1340.0469,558 1340.0781,557.8125 1340.0781,557.3906 L1340.0781,555.9688 C1340.0781,555.5313 1340.0625,555.4063 1339.9688,555.25 C1339.8125,554.9844 1339.5313,554.8438 1339.2344,554.8438 C1338.9375,554.8438 1338.7344,554.9375 1338.5156,555.25 L1338.3438,555.1719 Z " fill="#000000"/><text fill="#000000" font-family="sans-serif" font-size="12" lengthAdjust="spacing" textLength="92" x="1350" y="563.6543">CodeChartsBild</text><line style="stroke:#A80036;stroke-width:1.5;" x1="1322" x2="1444" y1="575.5" y2="575.5"/><line style="stroke:#A80036;stroke-width:1.5;" x1="1322" x2="1444" y1="583.5" y2="583.5"/><!--MD5=[b9640045e029ffef06c931bcc3e11d89]
class CodeChartsRaster--><rect codeLine="73" fill="#FEFECE" filter="url(#f7kpnez9djvvg)" height="184.8516" id="CodeChartsRaster" style="stroke:#A80036;stroke-width:1.5;" width="309" x="707.5" y="475"/><ellipse cx="803.75" cy="491" fill="#ADD1B2" rx="11" ry="11" style="stroke:#A80036;stroke-width:1.0;"/><path d="M806.0938,486.6719 C805.1563,486.2344 804.5625,486.0938 803.6875,486.0938 C801.0625,486.0938 799.0625,488.1719 799.0625,490.8906 L799.0625,492.0156 C799.0625,494.5938 801.1719,496.4844 804.0625,496.4844 C805.2813,496.4844 806.4375,496.1875 807.1875,495.6406 C807.7656,495.2344 808.0938,494.7813 808.0938,494.3906 C808.0938,493.9375 807.7031,493.5469 807.2344,493.5469 C807.0156,493.5469 806.8125,493.625 806.625,493.8125 C806.1719,494.2969 806.1719,494.2969 805.9844,494.3906 C805.5625,494.6563 804.875,494.7813 804.1094,494.7813 C802.0625,494.7813 800.7656,493.6875 800.7656,491.9844 L800.7656,490.8906 C800.7656,489.1094 802.0156,487.7969 803.75,487.7969 C804.3281,487.7969 804.9375,487.9531 805.4063,488.2031 C805.8906,488.4844 806.0625,488.7031 806.1563,489.1094 C806.2188,489.5156 806.25,489.6406 806.3906,489.7656 C806.5313,489.9063 806.7656,490.0156 806.9844,490.0156 C807.25,490.0156 807.5156,489.875 807.6875,489.6563 C807.7969,489.5 807.8281,489.3125 807.8281,488.8906 L807.8281,487.4688 C807.8281,487.0313 807.8125,486.9063 807.7188,486.75 C807.5625,486.4844 807.2813,486.3438 806.9844,486.3438 C806.6875,486.3438 806.4844,486.4375 806.2656,486.75 L806.0938,486.6719 Z " fill="#000000"/><text fill="#000000" font-family="sans-serif" font-size="12" lengthAdjust="spacing" textLength="108" x="824.25" y="495.1543">CodeChartsRaster</text><line style="stroke:#A80036;stroke-width:1.5;" x1="708.5" x2="1015.5" y1="507" y2="507"/><rect fill="none" height="6" style="stroke:#C82930;stroke-width:1.0;" width="6" x="715.5" y="515"/><text fill="#000000" font-family="sans-serif" font-size="11" lengthAdjust="spacing" textLength="101" x="727.5" y="521.2104">dimensions: int[2]</text><rect fill="none" height="6" style="stroke:#C82930;stroke-width:1.0;" width="6" x="715.5" y="527.8047"/><text fill="#000000" font-family="sans-serif" font-size="11" lengthAdjust="spacing" textLength="91" x="727.5" y="534.0151">strings: String[..]</text><rect fill="none" height="6" style="stroke:#C82930;stroke-width:1.0;" width="6" x="715.5" y="540.6094"/><text fill="#000000" font-family="sans-serif" font-size="11" lengthAdjust="spacing" textLength="73" x="727.5" y="546.8198">coords: int[2]</text><text fill="#000000" font-family="sans-serif" font-size="11" lengthAdjust="spacing" textLength="105" x="727.5" y="559.6245">__public method__</text><ellipse cx="718.5" cy="569.2188" fill="#84BE84" rx="3" ry="3" style="stroke:#038048;stroke-width:1.0;"/><text fill="#000000" font-family="sans-serif" font-size="11" lengthAdjust="spacing" textLength="153" x="727.5" y="572.4292">setInput(input: String): void</text><ellipse cx="718.5" cy="582.0234" fill="#84BE84" rx="3" ry="3" style="stroke:#038048;stroke-width:1.0;"/><text fill="#000000" font-family="sans-serif" font-size="11" lengthAdjust="spacing" textLength="283" x="727.5" y="585.2339">setData(dimensions: int[2], strings: String[..]): void</text><ellipse cx="718.5" cy="594.8281" fill="#84BE84" rx="3" ry="3" style="stroke:#038048;stroke-width:1.0;"/><text fill="#000000" font-family="sans-serif" font-size="11" lengthAdjust="spacing" textLength="72" x="727.5" y="598.0386">show() : void</text><ellipse cx="718.5" cy="607.6328" fill="#84BE84" rx="3" ry="3" style="stroke:#038048;stroke-width:1.0;"/><text fill="#000000" font-family="sans-serif" font-size="11" lengthAdjust="spacing" textLength="94" x="727.5" y="610.8433">calculate() : void</text><rect fill="#F24D5C" height="6" style="stroke:#C82930;stroke-width:1.0;" width="6" x="715.5" y="634.2422"/><text fill="#000000" font-family="sans-serif" font-size="11" lengthAdjust="spacing" textLength="117" x="727.5" y="640.4526">loadPastRuns() : void</text><rect fill="#F24D5C" height="6" style="stroke:#C82930;stroke-width:1.0;" width="6" x="715.5" y="647.0469"/><text fill="#000000" font-family="sans-serif" font-size="11" lengthAdjust="spacing" textLength="98" x="727.5" y="653.2573">sendData() : void</text><line style="stroke:#A80036;stroke-width:1.5;" x1="708.5" x2="815" y1="623.8398" y2="623.8398"/><text fill="#000000" font-family="sans-serif" font-size="11" lengthAdjust="spacing" textLength="94" x="815" y="627.1479">private methods</text><line style="stroke:#A80036;stroke-width:1.5;" x1="909" x2="1015.5" y1="623.8398" y2="623.8398"/><!--MD5=[a7f545f13df25b09c4dd936da65dfdd1]
class CodeChartsEingabefenster--><rect codeLine="88" fill="#FEFECE" filter="url(#f7kpnez9djvvg)" height="124.8281" id="CodeChartsEingabefenster" style="stroke:#A80036;stroke-width:1.5;" width="234" x="1052" y="505"/><ellipse cx="1085.45" cy="521" fill="#ADD1B2" rx="11" ry="11" style="stroke:#A80036;stroke-width:1.0;"/><path d="M1087.7938,516.6719 C1086.8563,516.2344 1086.2625,516.0938 1085.3875,516.0938 C1082.7625,516.0938 1080.7625,518.1719 1080.7625,520.8906 L1080.7625,522.0156 C1080.7625,524.5938 1082.8719,526.4844 1085.7625,526.4844 C1086.9813,526.4844 1088.1375,526.1875 1088.8875,525.6406 C1089.4656,525.2344 1089.7938,524.7813 1089.7938,524.3906 C1089.7938,523.9375 1089.4031,523.5469 1088.9344,523.5469 C1088.7156,523.5469 1088.5125,523.625 1088.325,523.8125 C1087.8719,524.2969 1087.8719,524.2969 1087.6844,524.3906 C1087.2625,524.6563 1086.575,524.7813 1085.8094,524.7813 C1083.7625,524.7813 1082.4656,523.6875 1082.4656,521.9844 L1082.4656,520.8906 C1082.4656,519.1094 1083.7156,517.7969 1085.45,517.7969 C1086.0281,517.7969 1086.6375,517.9531 1087.1063,518.2031 C1087.5906,518.4844 1087.7625,518.7031 1087.8563,519.1094 C1087.9188,519.5156 1087.95,519.6406 1088.0906,519.7656 C1088.2313,519.9063 1088.4656,520.0156 1088.6844,520.0156 C1088.95,520.0156 1089.2156,519.875 1089.3875,519.6563 C1089.4969,519.5 1089.5281,519.3125 1089.5281,518.8906 L1089.5281,517.4688 C1089.5281,517.0313 1089.5125,516.9063 1089.4188,516.75 C1089.2625,516.4844 1088.9813,516.3438 1088.6844,516.3438 C1088.3875,516.3438 1088.1844,516.4375 1087.9656,516.75 L1087.7938,516.6719 Z " fill="#000000"/><text fill="#000000" font-family="sans-serif" font-size="12" lengthAdjust="spacing" textLength="161" x="1103.55" y="525.1543">CodeChartsEingabefenster</text><line style="stroke:#A80036;stroke-width:1.5;" x1="1053" x2="1285" y1="537" y2="537"/><ellipse cx="1063" cy="564.8047" fill="#84BE84" rx="3" ry="3" style="stroke:#038048;stroke-width:1.0;"/><text fill="#000000" font-family="sans-serif" font-size="11" lengthAdjust="spacing" textLength="81" x="1072" y="568.0151">show() : String</text><line style="stroke:#A80036;stroke-width:1.5;" x1="1053" x2="1128.5" y1="551.4023" y2="551.4023"/><text fill="#000000" font-family="sans-serif" font-size="11" lengthAdjust="spacing" textLength="81" x="1128.5" y="554.7104">public method</text><line style="stroke:#A80036;stroke-width:1.5;" x1="1209.5" x2="1285" y1="551.4023" y2="551.4023"/><rect fill="#F24D5C" height="6" style="stroke:#C82930;stroke-width:1.0;" width="6" x="1060" y="591.4141"/><text fill="#000000" font-family="sans-serif" font-size="11" lengthAdjust="spacing" textLength="135" x="1072" y="597.6245">checkButton() : boolean</text><rect fill="#F24D5C" height="6" style="stroke:#C82930;stroke-width:1.0;" width="6" x="1060" y="604.2188"/><text fill="#000000" font-family="sans-serif" font-size="11" lengthAdjust="spacing" textLength="208" x="1072" y="610.4292">validateString(input: String): boolean</text><rect fill="#F24D5C" height="6" style="stroke:#C82930;stroke-width:1.0;" width="6" x="1060" y="617.0234"/><text fill="#000000" font-family="sans-serif" font-size="11" lengthAdjust="spacing" textLength="120" x="1072" y="623.2339">ErrorMessage() : void</text><line style="stroke:#A80036;stroke-width:1.5;" x1="1053" x2="1122" y1="581.0117" y2="581.0117"/><text fill="#000000" font-family="sans-serif" font-size="11" lengthAdjust="spacing" textLength="94" x="1122" y="584.3198">private methods</text><line style="stroke:#A80036;stroke-width:1.5;" x1="1216" x2="1285" y1="581.0117" y2="581.0117"/><polygon fill="#FFFFFF" filter="url(#f7kpnez9djvvg)" points="381,541,439,541,446,563.2969,453,563.2969,453,593.5938,381,593.5938,381,541" style="stroke:#000000;stroke-width:1.5;"/><line style="stroke:#000000;stroke-width:1.5;" x1="381" x2="446" y1="563.2969" y2="563.2969"/><text fill="#000000" font-family="sans-serif" font-size="14" font-weight="bold" lengthAdjust="spacing" textLength="52" x="385" y="555.9951">Config</text><polygon fill="#FFFFFF" filter="url(#f7kpnez9djvvg)" points="1480,541,1618,541,1625,563.2969,1632,563.2969,1632,593.5938,1480,593.5938,1480,541" style="stroke:#000000;stroke-width:1.5;"/><line style="stroke:#000000;stroke-width:1.5;" x1="1480" x2="1625" y1="563.2969" y2="563.2969"/><text fill="#000000" font-family="sans-serif" font-size="14" font-weight="bold" lengthAdjust="spacing" textLength="132" x="1484" y="555.9951">SpeicherMedium</text><!--MD5=[e72ca73ac73eca3f18a81a671fe51a7c]
link ToolType to Tutorial--><path codeLine="26" d="M123.553,121.16 C157.412,148.037 204.985,185.8 247.959,219.912 " fill="none" id="ToolType-Tutorial" style="stroke:#A80036;stroke-width:1.0;"/><!--MD5=[9f1a00b177a5ae45176fc1e7f3c0daae]
link Data to ToolType--><path codeLine="27" d="M158.154,84 C146.635,84 135.115,84 123.596,84 " fill="none" id="Data-ToolType" style="stroke:#A80036;stroke-width:1.0;"/><!--MD5=[fc4ffdc4bb2ac5a3cd1bd4c856213de4]
link Tutorial to Config--><path codeLine="28" d="M372.477,387.039 C385.65,440.137 401.891,505.6 410.661,540.947 " fill="none" id="Tutorial-Config" style="stroke:#A80036;stroke-width:1.0;"/><!--MD5=[c900c8497a661fa4184b5bb04c49372f]
reverse link Bild to CodeChartsBild--><path codeLine="98" d="M489.878,90.997 C647.402,101.966 957.736,127.711 1060,166 C1254.52,238.832 1349.64,244.52 1447,428 C1467.98,467.543 1433.37,515.236 1407.42,543.086 " fill="none" id="Bild-backto-CodeChartsBild" style="stroke:#A80036;stroke-width:1.0;"/><polygon fill="none" points="489.092,97.96,469.617,89.609,490.049,83.992,489.092,97.96" style="stroke:#A80036;stroke-width:1.0;"/><!--MD5=[1e1b7046ac2ce77f5695cfbd942bbe9e]
reverse link Tutorial to CodeChartsTutorial--><path codeLine="99" d="M421.539,403.4 C432.888,417.781 444.904,432.078 457,445 C489.04,479.227 530.153,513.526 559.887,536.91 " fill="none" id="Tutorial-backto-CodeChartsTutorial" style="stroke:#A80036;stroke-width:1.0;"/><polygon fill="none" points="415.712,407.307,409.04,387.195,426.798,398.757,415.712,407.307" style="stroke:#A80036;stroke-width:1.0;"/><!--MD5=[330c08158d1b261bc3f75486c3c78546]
link CodeChartsCoordinator to CodeChartsBild--><path codeLine="102" d="M1043.08,388.29 C1070.19,409.789 1101.26,430.822 1133,445 C1203.05,476.29 1236.17,437.311 1303,475 C1331.86,491.274 1355.41,522.001 1369.31,543.333 " fill="none" id="CodeChartsCoordinator-CodeChartsBild" style="stroke:#A80036;stroke-width:1.0;"/><polygon fill="#000000" points="1142.5159,438.7126,1135.6081,432.1757,1133.085,437.4845,1142.5159,438.7126" style="stroke:#000000;stroke-width:1.0;"/><text fill="#000000" font-family="sans-serif" font-size="13" lengthAdjust="spacing" textLength="167" x="1147" y="441.0669">send initial data and show</text><!--MD5=[af7fa7eefc847a19c654188e611c6a01]
link CodeChartsCoordinator to CodeChartsRaster--><path codeLine="103" d="M872.675,398.018 C867.199,407.698 862.484,417.756 859,428 C853.966,442.8 851.682,459.014 851.076,474.969 " fill="none" id="CodeChartsCoordinator-CodeChartsRaster" style="stroke:#A80036;stroke-width:1.0;"/><polygon fill="#000000" points="862.6488,441.3804,867.9227,433.466,862.2636,431.8776,862.6488,441.3804" style="stroke:#000000;stroke-width:1.0;"/><text fill="#000000" font-family="sans-serif" font-size="13" lengthAdjust="spacing" textLength="130" x="873" y="441.0669">send data and show</text><!--MD5=[acd6e22bd1b43ca41d1e169d29f8f975]
link CodeChartsCoordinator to CodeChartsEingabefenster--><path codeLine="104" d="M1009.65,398.069 C1020.43,414.178 1032.09,430.414 1044,445 C1060.84,465.63 1080.88,486.434 1099.92,504.854 " fill="none" id="CodeChartsCoordinator-CodeChartsEingabefenster" style="stroke:#A80036;stroke-width:1.0;"/><polygon fill="#000000" points="1052.2279,440.3849,1048.633,431.5799,1044.1441,435.3745,1052.2279,440.3849" style="stroke:#000000;stroke-width:1.0;"/><text fill="#000000" font-family="sans-serif" font-size="13" lengthAdjust="spacing" textLength="34" x="1058" y="441.0669">show</text><!--MD5=[45be10fb9057243d989f7112dab584ae]
link CodeChartsCoordinator to CodeChartsTutorial--><path codeLine="105" d="M864.877,352.082 C826.644,373.711 782.103,400.572 744,428 C718.177,446.588 713.233,453.262 690,475 C668.569,495.052 645.242,518.542 627.572,536.701 " fill="none" id="CodeChartsCoordinator-CodeChartsTutorial" style="stroke:#A80036;stroke-width:1.0;"/><polygon fill="#000000" points="745.0536,439.6366,753.9973,436.4022,750.3881,431.7629,745.0536,439.6366" style="stroke:#000000;stroke-width:1.0;"/><text fill="#000000" font-family="sans-serif" font-size="13" lengthAdjust="spacing" textLength="89" x="758" y="441.0669">start Tutorial?</text><!--MD5=[6420835cf827f0fe1d54714c2e96b5dd]
link CodeChartsCoordinator to SpeicherMedium--><path codeLine="108" d="M1043.38,321.976 C1148.86,345.347 1326.84,393.569 1461,475 C1489.97,492.585 1517.2,520.419 1535.01,540.774 " fill="none" id="CodeChartsCoordinator-SpeicherMedium" style="stroke:#A80036;stroke-width:1.0;"/><polygon fill="#000000" points="1406.568,438.5994,1399.4993,432.2367,1397.1094,437.6067,1406.568,438.5994" style="stroke:#000000;stroke-width:1.0;"/><text fill="#000000" font-family="sans-serif" font-size="13" lengthAdjust="spacing" textLength="73" x="1411" y="441.0669">saves Data</text><!--MD5=[ba0b6aad62bad149f99973f5ab313e4e]
link CodeChartsCoordinator to Config--><path codeLine="109" d="M864.737,324.073 C769.983,348.033 619.145,395.543 510,475 C483.448,494.33 457.138,521.117 439.315,540.713 " fill="none" id="CodeChartsCoordinator-Config" style="stroke:#A80036;stroke-width:1.0;"/><polygon fill="#000000" points="585.4556,434.2975,576.0617,435.7831,578.729,441.0209,585.4556,434.2975" style="stroke:#000000;stroke-width:1.0;"/><text fill="#000000" font-family="sans-serif" font-size="13" lengthAdjust="spacing" textLength="100" x="590" y="441.0669">gets Initial Data</text><!--MD5=[c96fca338770e0d3a97dc11a4e58f6ff]
@startuml
' skinparam backgroundColor transparent
'() System #DA70D5
top to bottom direction

package Util {
    ' - - - TUTORIAL - - -
    abstract Tutorial<t: ToolType> {
      - t: ToolType
      __public method__
      + start() : void
      __private methods__
      - getConfigState() : boolean
      - setConfigState(state: boolean) : void
      - show() : boolean
      __abstract methods__
      - {abstract} tutorial() : void
    }

    enum ToolType {
      ZOOM
      EYETRACKING
      CODECHARTS
    }

    ' Interaktionen
    Tutorial -u- ToolType
    Data -r- ToolType
    Tutorial -d- Config


    ' - - - BILD - - -

    abstract Bild {
      + load(url: String) : void
      + show() : void
    }

    class Data<t: ToolType> {
        + t: ToolType
        + data: unknown
        + config_id: int
    }
}

' === CODE CHARTS ===
package CodeCharts {

    ' CodeCharts Tutorial 
    class CodeChartsTutorial {
      - tutorial() : void
    }
  
    ' CodeCharts Coordinator
    class CodeChartsCoordinator {
        - data: Data
        - speed: float[2]
        - isTutorial: boolean
        - isRelative: boolean
        - dimensions: int[2]
        - strings: String[..]
        __public method__
        + startCodeCharts() : void
        __private methods__
        - loadConfigData() : boolean
        - tryTutorial() : void
    }    

    ' CodeCharts Bild
    class CodeChartsBild {
    }

    ' CodeCharts Raster
    class CodeChartsRaster {
        - dimensions: int[2]
        - strings: String[..]
        - coords: int[2]
        __public method__ 
        + setInput(input: String): void
        + setData(dimensions: int[2], strings: String[..]): void
        + show() : void
        + calculate() : void
        __private methods__
        - loadPastRuns() : void
        - sendData() : void
    }

    ' CodeCharts Eingabefenster
    class CodeChartsEingabefenster {
        __public method__
        + show() : String
        __private methods__
        - checkButton() : boolean
        - validateString(input: String): boolean
        - ErrorMessage() : void
    }

    ' Vererbungen
    Bild <|-d- CodeChartsBild
    Tutorial <|-d- CodeChartsTutorial

    ' Interaktionen 
    CodeChartsCoordinator - - CodeChartsBild : > send initial data and show
    CodeChartsCoordinator - - CodeChartsRaster : > send data and show
    CodeChartsCoordinator - - CodeChartsEingabefenster : > show
    CodeChartsCoordinator - - CodeChartsTutorial : > start Tutorial?

    ' Andere Module
    CodeChartsCoordinator - - SpeicherMedium : > saves Data
    CodeChartsCoordinator - - Config : < gets Initial Data
  
}

' Blackboxen / Andere Module
package Config {}

package SpeicherMedium {}
@enduml

@startuml
top to bottom direction

package Util {
    abstract Tutorial<t: ToolType> {
      - t: ToolType
      __public method__
      + start() : void
      __private methods__
      - getConfigState() : boolean
      - setConfigState(state: boolean) : void
      - show() : boolean
      __abstract methods__
      - {abstract} tutorial() : void
    }

    enum ToolType {
      ZOOM
      EYETRACKING
      CODECHARTS
    }

    Tutorial -u- ToolType
    Data -r- ToolType
    Tutorial -d- Config



    abstract Bild {
      + load(url: String) : void
      + show() : void
    }

    class Data<t: ToolType> {
        + t: ToolType
        + data: unknown
        + config_id: int
    }
}

package CodeCharts {

    class CodeChartsTutorial {
      - tutorial() : void
    }
  
    class CodeChartsCoordinator {
        - data: Data
        - speed: float[2]
        - isTutorial: boolean
        - isRelative: boolean
        - dimensions: int[2]
        - strings: String[..]
        __public method__
        + startCodeCharts() : void
        __private methods__
        - loadConfigData() : boolean
        - tryTutorial() : void
    }    

    class CodeChartsBild {
    }

    class CodeChartsRaster {
        - dimensions: int[2]
        - strings: String[..]
        - coords: int[2]
        __public method__ 
        + setInput(input: String): void
        + setData(dimensions: int[2], strings: String[..]): void
        + show() : void
        + calculate() : void
        __private methods__
        - loadPastRuns() : void
        - sendData() : void
    }

    class CodeChartsEingabefenster {
        __public method__
        + show() : String
        __private methods__
        - checkButton() : boolean
        - validateString(input: String): boolean
        - ErrorMessage() : void
    }

    Bild <|-d- CodeChartsBild
    Tutorial <|-d- CodeChartsTutorial

    CodeChartsCoordinator - - CodeChartsBild : > send initial data and show
    CodeChartsCoordinator - - CodeChartsRaster : > send data and show
    CodeChartsCoordinator - - CodeChartsEingabefenster : > show
    CodeChartsCoordinator - - CodeChartsTutorial : > start Tutorial?

    CodeChartsCoordinator - - SpeicherMedium : > saves Data
    CodeChartsCoordinator - - Config : < gets Initial Data
  
}

package Config {}

package SpeicherMedium {}
@enduml

PlantUML version 1.2021.14beta3(Unknown compile time)
(GPL source distribution)
Java Runtime: Java(TM) SE Runtime Environment
JVM: Java HotSpot(TM) 64-Bit Server VM
Default Encoding: UTF-8
Language: en
Country: US
--></g></svg>