<?xml version="1.0" encoding="UTF-8" standalone="no"?><svg xmlns="http://www.w3.org/2000/svg" xmlns:xlink="http://www.w3.org/1999/xlink" contentScriptType="application/ecmascript" contentStyleType="text/css" height="688px" preserveAspectRatio="none" style="width:1649px;height:688px;background:#FFFFFF;" version="1.1" viewBox="0 0 1649 688" width="1649px" zoomAndPan="magnify"><defs><filter height="300%" id="f7145uob9ymp3" width="300%" x="-1" y="-1"><feGaussianBlur result="blurOut" stdDeviation="2.0"/><feColorMatrix in="blurOut" result="blurOut2" type="matrix" values="0 0 0 0 0 0 0 0 0 0 0 0 0 0 0 0 0 0 .4 0"/><feOffset dx="4.0" dy="4.0" in="blurOut2" result="blurOut3"/><feBlend in="SourceGraphic" in2="blurOut3" mode="normal"/></filter></defs><g><!--MD5=[a55135535b5c544b99c33b17428c3b14]
cluster Util--><polygon fill="#FFFFFF" filter="url(#f7145uob9ymp3)" points="16,6,51,6,58,28.2969,486,28.2969,486,405.5,16,405.5,16,6" style="stroke:#000000;stroke-width:1.5;"/><line style="stroke:#000000;stroke-width:1.5;" x1="16" x2="58" y1="28.2969" y2="28.2969"/><text fill="#000000" font-family="sans-serif" font-size="14" font-weight="bold" lengthAdjust="spacing" textLength="29" x="20" y="20.9951">Util</text><!--MD5=[bd4ed236a13575a9dcf49b2316e757e7]
cluster CodeCharts--><polygon fill="#FFFFFF" filter="url(#f7145uob9ymp3)" points="510,174,609,174,616,196.2969,1461,196.2969,1461,681,510,681,510,174" style="stroke:#000000;stroke-width:1.5;"/><line style="stroke:#000000;stroke-width:1.5;" x1="510" x2="616" y1="196.2969" y2="196.2969"/><text fill="#000000" font-family="sans-serif" font-size="14" font-weight="bold" lengthAdjust="spacing" textLength="93" x="514" y="188.9951">CodeCharts</text><!--MD5=[fccc419d627b37790932ddb688fb7ad6]
class Tutorial--><rect codeLine="7" fill="#FEFECE" filter="url(#f7145uob9ymp3)" height="167.2422" id="Tutorial" style="stroke:#A80036;stroke-width:1.5;" width="236" x="234" y="222.5"/><ellipse cx="290.25" cy="238.5" fill="#A9DCDF" rx="11" ry="11" style="stroke:#A80036;stroke-width:1.0;"/><path d="M292.3281,240.3125 L292.7188,241.2969 L292.3281,241.2969 C291.875,241.2969 291.7656,241.3125 291.6094,241.4219 C291.3594,241.5781 291.2031,241.8594 291.2031,242.1563 C291.2031,242.4219 291.3438,242.6719 291.5625,242.8281 C291.7031,242.9531 291.9063,243 292.3281,243 L294.6875,243 C295.0469,243 295.2656,242.9688 295.4063,242.875 C295.6563,242.7344 295.8125,242.4375 295.8125,242.1563 C295.8125,241.875 295.6719,241.625 295.4531,241.4688 C295.2813,241.3281 295.125,241.2969 294.6563,241.2969 L291.2656,233.0938 L287.5938,233.0938 C287.1406,233.0938 287.0156,233.1094 286.8594,233.2031 C286.6094,233.375 286.4531,233.6563 286.4531,233.9375 C286.4531,234.2188 286.5938,234.4688 286.8125,234.6406 C286.9844,234.75 287.1563,234.7813 287.5938,234.7813 L288.6719,234.7813 L286.0313,241.2969 C285.6094,241.2969 285.4531,241.3125 285.2969,241.4219 C285.0469,241.5781 284.8906,241.8594 284.8906,242.1563 C284.8906,242.7188 285.2656,243 286.0156,243 L288.2813,243 C288.6406,243 288.8594,242.9688 288.9844,242.875 C289.25,242.7344 289.3906,242.4375 289.3906,242.1563 C289.3906,241.875 289.2656,241.625 289.0469,241.4531 C288.875,241.3281 288.7344,241.2969 288.2813,241.2969 L287.8906,241.2969 L288.2813,240.3125 L292.3281,240.3125 Z M291.625,238.6094 L288.9531,238.6094 L290.2969,235.3438 L291.625,238.6094 Z " fill="#000000"/><text fill="#000000" font-family="sans-serif" font-size="12" font-style="italic" lengthAdjust="spacing" textLength="45" x="310.75" y="242.6543">Tutorial</text><rect fill="#FFFFFF" height="15.9688" style="stroke:#000000;stroke-width:1.0;stroke-dasharray:2.0,2.0;" width="68" x="405" y="219.5"/><text fill="#000000" font-family="sans-serif" font-size="12" font-style="italic" lengthAdjust="spacing" textLength="66" x="406" y="231.6387">t: ToolType</text><line style="stroke:#A80036;stroke-width:1.5;" x1="235" x2="469" y1="254.5" y2="254.5"/><rect fill="none" height="6" style="stroke:#C82930;stroke-width:1.0;" width="6" x="242" y="262.5"/><text fill="#000000" font-family="sans-serif" font-size="11" lengthAdjust="spacing" textLength="64" x="254" y="268.7104">t: ToolType</text><ellipse cx="245" cy="295.1094" fill="#84BE84" rx="3" ry="3" style="stroke:#038048;stroke-width:1.0;"/><text fill="#000000" font-family="sans-serif" font-size="11" lengthAdjust="spacing" textLength="68" x="254" y="298.3198">start() : void</text><line style="stroke:#A80036;stroke-width:1.5;" x1="235" x2="311.5" y1="281.707" y2="281.707"/><text fill="#000000" font-family="sans-serif" font-size="11" lengthAdjust="spacing" textLength="81" x="311.5" y="285.0151">public method</text><line style="stroke:#A80036;stroke-width:1.5;" x1="392.5" x2="469" y1="281.707" y2="281.707"/><rect fill="#F24D5C" height="6" style="stroke:#C82930;stroke-width:1.0;" width="6" x="242" y="321.7188"/><text fill="#000000" font-family="sans-serif" font-size="11" lengthAdjust="spacing" textLength="151" x="254" y="327.9292">getConfigState() : boolean</text><rect fill="#F24D5C" height="6" style="stroke:#C82930;stroke-width:1.0;" width="6" x="242" y="334.5234"/><text fill="#000000" font-family="sans-serif" font-size="11" lengthAdjust="spacing" textLength="210" x="254" y="340.7339">setConfigState(state: boolean) : void</text><rect fill="#F24D5C" height="6" style="stroke:#C82930;stroke-width:1.0;" width="6" x="242" y="347.3281"/><text fill="#000000" font-family="sans-serif" font-size="11" lengthAdjust="spacing" textLength="94" x="254" y="353.5386">show() : boolean</text><line style="stroke:#A80036;stroke-width:1.5;" x1="235" x2="305" y1="311.3164" y2="311.3164"/><text fill="#000000" font-family="sans-serif" font-size="11" lengthAdjust="spacing" textLength="94" x="305" y="314.6245">private methods</text><line style="stroke:#A80036;stroke-width:1.5;" x1="399" x2="469" y1="311.3164" y2="311.3164"/><rect fill="#F24D5C" height="6" style="stroke:#C82930;stroke-width:1.0;" width="6" x="242" y="376.9375"/><text fill="#000000" font-family="sans-serif" font-size="11" font-style="italic" lengthAdjust="spacing" textLength="84" x="254" y="383.1479">tutorial() : void</text><line style="stroke:#A80036;stroke-width:1.5;" x1="235" x2="302.5" y1="366.5352" y2="366.5352"/><text fill="#000000" font-family="sans-serif" font-size="11" lengthAdjust="spacing" textLength="99" x="302.5" y="369.8433">abstract methods</text><line style="stroke:#A80036;stroke-width:1.5;" x1="401.5" x2="469" y1="366.5352" y2="366.5352"/><!--MD5=[5c39798b83ace9e75333b1274a725e6c]
class ToolType--><rect codeLine="19" fill="#FEFECE" filter="url(#f7145uob9ymp3)" height="86.4141" id="ToolType" style="stroke:#A80036;stroke-width:1.5;" width="91" x="32.5" y="41"/><ellipse cx="48.85" cy="57" fill="#EB937F" rx="11" ry="11" style="stroke:#A80036;stroke-width:1.0;"/><path d="M47.6469,57.875 L49.1,57.875 L49.1,57.9844 C49.1,58.3906 49.1313,58.5469 49.2094,58.7031 C49.3656,58.9531 49.6469,59.1094 49.9438,59.1094 C50.1938,59.1094 50.4594,58.9688 50.6156,58.75 C50.7406,58.5938 50.7719,58.4375 50.7719,57.9844 L50.7719,56.0625 C50.7719,55.9063 50.7719,55.8594 50.7563,55.7031 C50.6938,55.2344 50.3813,54.9219 49.9281,54.9219 C49.6781,54.9219 49.4125,55.0625 49.2406,55.2813 C49.1313,55.4531 49.1,55.6094 49.1,56.0625 L49.1,56.1875 L47.6469,56.1875 L47.6469,53.7813 L51.6313,53.7813 L51.6313,54.6406 C51.6313,55.0469 51.6625,55.2188 51.7406,55.375 C51.9125,55.625 52.1938,55.7813 52.475,55.7813 C52.7406,55.7813 53.0063,55.6406 53.1781,55.4219 C53.2875,55.25 53.3188,55.1094 53.3188,54.6406 L53.3188,52.0938 L45.6938,52.0938 C45.2563,52.0938 45.1313,52.1094 44.975,52.2031 C44.725,52.3594 44.5688,52.6563 44.5688,52.9375 C44.5688,53.2188 44.7094,53.4688 44.9281,53.6406 C45.0844,53.75 45.2719,53.7813 45.6938,53.7813 L45.9438,53.7813 L45.9438,60.2969 L45.6938,60.2969 C45.2875,60.2969 45.1313,60.3125 44.975,60.4219 C44.725,60.5938 44.5688,60.8594 44.5688,61.1563 C44.5688,61.4219 44.7094,61.6719 44.9281,61.8281 C45.0688,61.9531 45.3031,62 45.6938,62 L53.6938,62 L53.6938,59.4219 C53.6938,58.9844 53.6625,58.8438 53.5844,58.6875 C53.4125,58.4375 53.1313,58.2813 52.85,58.2813 C52.5844,58.2813 52.3188,58.3906 52.1469,58.6406 C52.0375,58.7969 52.0063,58.9375 52.0063,59.4219 L52.0063,60.2969 L47.6469,60.2969 L47.6469,57.875 Z " fill="#000000"/><text fill="#000000" font-family="sans-serif" font-size="12" lengthAdjust="spacing" textLength="56" x="63.15" y="61.1543">ToolType</text><line style="stroke:#A80036;stroke-width:1.5;" x1="33.5" x2="122.5" y1="73" y2="73"/><text fill="#000000" font-family="sans-serif" font-size="11" lengthAdjust="spacing" textLength="35" x="38.5" y="87.2104">ZOOM</text><text fill="#000000" font-family="sans-serif" font-size="11" lengthAdjust="spacing" textLength="78" x="38.5" y="100.0151">EYETRACKING</text><text fill="#000000" font-family="sans-serif" font-size="11" lengthAdjust="spacing" textLength="79" x="38.5" y="112.8198">CODECHARTS</text><line style="stroke:#A80036;stroke-width:1.5;" x1="33.5" x2="122.5" y1="119.4141" y2="119.4141"/><!--MD5=[60c9ed31c535bee25c55ce21b5b01399]
class Data--><rect codeLine="38" fill="#FEFECE" filter="url(#f7145uob9ymp3)" height="86.4141" id="Data" style="stroke:#A80036;stroke-width:1.5;" width="129" x="158.5" y="41"/><ellipse cx="173.5" cy="57" fill="#ADD1B2" rx="11" ry="11" style="stroke:#A80036;stroke-width:1.0;"/><path d="M175.8438,52.6719 C174.9063,52.2344 174.3125,52.0938 173.4375,52.0938 C170.8125,52.0938 168.8125,54.1719 168.8125,56.8906 L168.8125,58.0156 C168.8125,60.5938 170.9219,62.4844 173.8125,62.4844 C175.0313,62.4844 176.1875,62.1875 176.9375,61.6406 C177.5156,61.2344 177.8438,60.7813 177.8438,60.3906 C177.8438,59.9375 177.4531,59.5469 176.9844,59.5469 C176.7656,59.5469 176.5625,59.625 176.375,59.8125 C175.9219,60.2969 175.9219,60.2969 175.7344,60.3906 C175.3125,60.6563 174.625,60.7813 173.8594,60.7813 C171.8125,60.7813 170.5156,59.6875 170.5156,57.9844 L170.5156,56.8906 C170.5156,55.1094 171.7656,53.7969 173.5,53.7969 C174.0781,53.7969 174.6875,53.9531 175.1563,54.2031 C175.6406,54.4844 175.8125,54.7031 175.9063,55.1094 C175.9688,55.5156 176,55.6406 176.1406,55.7656 C176.2813,55.9063 176.5156,56.0156 176.7344,56.0156 C177,56.0156 177.2656,55.875 177.4375,55.6563 C177.5469,55.5 177.5781,55.3125 177.5781,54.8906 L177.5781,53.4688 C177.5781,53.0313 177.5625,52.9063 177.4688,52.75 C177.3125,52.4844 177.0313,52.3438 176.7344,52.3438 C176.4375,52.3438 176.2344,52.4375 176.0156,52.75 L175.8438,52.6719 Z " fill="#000000"/><text fill="#000000" font-family="sans-serif" font-size="12" lengthAdjust="spacing" textLength="27" x="187.5" y="61.1543">Data</text><rect fill="#FFFFFF" height="15.9688" style="stroke:#000000;stroke-width:1.0;stroke-dasharray:2.0,2.0;" width="68" x="222.5" y="38"/><text fill="#000000" font-family="sans-serif" font-size="12" font-style="italic" lengthAdjust="spacing" textLength="66" x="223.5" y="50.1387">t: ToolType</text><line style="stroke:#A80036;stroke-width:1.5;" x1="159.5" x2="286.5" y1="73" y2="73"/><ellipse cx="169.5" cy="84" rx="3" ry="3" style="stroke:#038048;stroke-width:1.0;fill:none;"/><text fill="#000000" font-family="sans-serif" font-size="11" lengthAdjust="spacing" textLength="64" x="178.5" y="87.2104">t: ToolType</text><ellipse cx="169.5" cy="96.8047" rx="3" ry="3" style="stroke:#038048;stroke-width:1.0;fill:none;"/><text fill="#000000" font-family="sans-serif" font-size="11" lengthAdjust="spacing" textLength="82" x="178.5" y="100.0151">data: unknown</text><ellipse cx="169.5" cy="109.6094" rx="3" ry="3" style="stroke:#038048;stroke-width:1.0;fill:none;"/><text fill="#000000" font-family="sans-serif" font-size="11" lengthAdjust="spacing" textLength="71" x="178.5" y="112.8198">config_id: int</text><line style="stroke:#A80036;stroke-width:1.5;" x1="159.5" x2="286.5" y1="119.4141" y2="119.4141"/><!--MD5=[626b00d2609f42ba755c8afb6d5f2b59]
class Bild--><rect codeLine="33" fill="#FEFECE" filter="url(#f7145uob9ymp3)" height="73.6094" id="Bild" style="stroke:#A80036;stroke-width:1.5;" width="147" x="322.5" y="47"/><ellipse cx="380.75" cy="63" fill="#A9DCDF" rx="11" ry="11" style="stroke:#A80036;stroke-width:1.0;"/><path d="M382.8281,64.8125 L383.2188,65.7969 L382.8281,65.7969 C382.375,65.7969 382.2656,65.8125 382.1094,65.9219 C381.8594,66.0781 381.7031,66.3594 381.7031,66.6563 C381.7031,66.9219 381.8438,67.1719 382.0625,67.3281 C382.2031,67.4531 382.4063,67.5 382.8281,67.5 L385.1875,67.5 C385.5469,67.5 385.7656,67.4688 385.9063,67.375 C386.1563,67.2344 386.3125,66.9375 386.3125,66.6563 C386.3125,66.375 386.1719,66.125 385.9531,65.9688 C385.7813,65.8281 385.625,65.7969 385.1563,65.7969 L381.7656,57.5938 L378.0938,57.5938 C377.6406,57.5938 377.5156,57.6094 377.3594,57.7031 C377.1094,57.875 376.9531,58.1563 376.9531,58.4375 C376.9531,58.7188 377.0938,58.9688 377.3125,59.1406 C377.4844,59.25 377.6563,59.2813 378.0938,59.2813 L379.1719,59.2813 L376.5313,65.7969 C376.1094,65.7969 375.9531,65.8125 375.7969,65.9219 C375.5469,66.0781 375.3906,66.3594 375.3906,66.6563 C375.3906,67.2188 375.7656,67.5 376.5156,67.5 L378.7813,67.5 C379.1406,67.5 379.3594,67.4688 379.4844,67.375 C379.75,67.2344 379.8906,66.9375 379.8906,66.6563 C379.8906,66.375 379.7656,66.125 379.5469,65.9531 C379.375,65.8281 379.2344,65.7969 378.7813,65.7969 L378.3906,65.7969 L378.7813,64.8125 L382.8281,64.8125 Z M382.125,63.1094 L379.4531,63.1094 L380.7969,59.8438 L382.125,63.1094 Z " fill="#000000"/><text fill="#000000" font-family="sans-serif" font-size="12" font-style="italic" lengthAdjust="spacing" textLength="22" x="401.25" y="67.1543">Bild</text><line style="stroke:#A80036;stroke-width:1.5;" x1="323.5" x2="468.5" y1="79" y2="79"/><line style="stroke:#A80036;stroke-width:1.5;" x1="323.5" x2="468.5" y1="87" y2="87"/><ellipse cx="333.5" cy="98" fill="#84BE84" rx="3" ry="3" style="stroke:#038048;stroke-width:1.0;"/><text fill="#000000" font-family="sans-serif" font-size="11" lengthAdjust="spacing" textLength="121" x="342.5" y="101.2104">load(url: String) : void</text><ellipse cx="333.5" cy="110.8047" fill="#84BE84" rx="3" ry="3" style="stroke:#038048;stroke-width:1.0;"/><text fill="#000000" font-family="sans-serif" font-size="11" lengthAdjust="spacing" textLength="72" x="342.5" y="114.0151">show() : void</text><!--MD5=[81d462353594d8875238471802618d21]
class CodeChartsTutorial--><rect codeLine="49" fill="#FEFECE" filter="url(#f7145uob9ymp3)" height="60.8047" id="CodeChartsTutorial" style="stroke:#A80036;stroke-width:1.5;" width="146" x="526" y="542"/><ellipse cx="541" cy="558" fill="#ADD1B2" rx="11" ry="11" style="stroke:#A80036;stroke-width:1.0;"/><path d="M543.3438,553.6719 C542.4063,553.2344 541.8125,553.0938 540.9375,553.0938 C538.3125,553.0938 536.3125,555.1719 536.3125,557.8906 L536.3125,559.0156 C536.3125,561.5938 538.4219,563.4844 541.3125,563.4844 C542.5313,563.4844 543.6875,563.1875 544.4375,562.6406 C545.0156,562.2344 545.3438,561.7813 545.3438,561.3906 C545.3438,560.9375 544.9531,560.5469 544.4844,560.5469 C544.2656,560.5469 544.0625,560.625 543.875,560.8125 C543.4219,561.2969 543.4219,561.2969 543.2344,561.3906 C542.8125,561.6563 542.125,561.7813 541.3594,561.7813 C539.3125,561.7813 538.0156,560.6875 538.0156,558.9844 L538.0156,557.8906 C538.0156,556.1094 539.2656,554.7969 541,554.7969 C541.5781,554.7969 542.1875,554.9531 542.6563,555.2031 C543.1406,555.4844 543.3125,555.7031 543.4063,556.1094 C543.4688,556.5156 543.5,556.6406 543.6406,556.7656 C543.7813,556.9063 544.0156,557.0156 544.2344,557.0156 C544.5,557.0156 544.7656,556.875 544.9375,556.6563 C545.0469,556.5 545.0781,556.3125 545.0781,555.8906 L545.0781,554.4688 C545.0781,554.0313 545.0625,553.9063 544.9688,553.75 C544.8125,553.4844 544.5313,553.3438 544.2344,553.3438 C543.9375,553.3438 543.7344,553.4375 543.5156,553.75 L543.3438,553.6719 Z " fill="#000000"/><text fill="#000000" font-family="sans-serif" font-size="12" lengthAdjust="spacing" textLength="114" x="555" y="562.1543">CodeChartsTutorial</text><line style="stroke:#A80036;stroke-width:1.5;" x1="527" x2="671" y1="574" y2="574"/><line style="stroke:#A80036;stroke-width:1.5;" x1="527" x2="671" y1="582" y2="582"/><rect fill="#F24D5C" height="6" style="stroke:#C82930;stroke-width:1.0;" width="6" x="534" y="590"/><text fill="#000000" font-family="sans-serif" font-size="11" lengthAdjust="spacing" textLength="82" x="546" y="596.2104">tutorial() : void</text><!--MD5=[d6943c12ae734dbe1975a5489f85ab8f]
class CodeChartsCoordinator--><rect codeLine="54" fill="#FEFECE" filter="url(#f7145uob9ymp3)" height="188.8516" id="CodeChartsCoordinator" style="stroke:#A80036;stroke-width:1.5;" width="178" x="865" y="213"/><ellipse cx="882.25" cy="229" fill="#ADD1B2" rx="11" ry="11" style="stroke:#A80036;stroke-width:1.0;"/><path d="M884.5938,224.6719 C883.6563,224.2344 883.0625,224.0938 882.1875,224.0938 C879.5625,224.0938 877.5625,226.1719 877.5625,228.8906 L877.5625,230.0156 C877.5625,232.5938 879.6719,234.4844 882.5625,234.4844 C883.7813,234.4844 884.9375,234.1875 885.6875,233.6406 C886.2656,233.2344 886.5938,232.7813 886.5938,232.3906 C886.5938,231.9375 886.2031,231.5469 885.7344,231.5469 C885.5156,231.5469 885.3125,231.625 885.125,231.8125 C884.6719,232.2969 884.6719,232.2969 884.4844,232.3906 C884.0625,232.6563 883.375,232.7813 882.6094,232.7813 C880.5625,232.7813 879.2656,231.6875 879.2656,229.9844 L879.2656,228.8906 C879.2656,227.1094 880.5156,225.7969 882.25,225.7969 C882.8281,225.7969 883.4375,225.9531 883.9063,226.2031 C884.3906,226.4844 884.5625,226.7031 884.6563,227.1094 C884.7188,227.5156 884.75,227.6406 884.8906,227.7656 C885.0313,227.9063 885.2656,228.0156 885.4844,228.0156 C885.75,228.0156 886.0156,227.875 886.1875,227.6563 C886.2969,227.5 886.3281,227.3125 886.3281,226.8906 L886.3281,225.4688 C886.3281,225.0313 886.3125,224.9063 886.2188,224.75 C886.0625,224.4844 885.7813,224.3438 885.4844,224.3438 C885.1875,224.3438 884.9844,224.4375 884.7656,224.75 L884.5938,224.6719 Z " fill="#000000"/><text fill="#000000" font-family="sans-serif" font-size="12" lengthAdjust="spacing" textLength="141" x="896.75" y="233.1543">CodeChartsCoordinator</text><line style="stroke:#A80036;stroke-width:1.5;" x1="866" x2="1042" y1="245" y2="245"/><rect fill="none" height="6" style="stroke:#C82930;stroke-width:1.0;" width="6" x="873" y="253"/><text fill="#000000" font-family="sans-serif" font-size="11" lengthAdjust="spacing" textLength="59" x="885" y="259.2104">data: Data</text><rect fill="none" height="6" style="stroke:#C82930;stroke-width:1.0;" width="6" x="873" y="265.8047"/><text fill="#000000" font-family="sans-serif" font-size="11" lengthAdjust="spacing" textLength="83" x="885" y="272.0151">speed: float[2]</text><rect fill="none" height="6" style="stroke:#C82930;stroke-width:1.0;" width="6" x="873" y="278.6094"/><text fill="#000000" font-family="sans-serif" font-size="11" lengthAdjust="spacing" textLength="104" x="885" y="284.8198">isTutorial: boolean</text><rect fill="none" height="6" style="stroke:#C82930;stroke-width:1.0;" width="6" x="873" y="291.4141"/><text fill="#000000" font-family="sans-serif" font-size="11" lengthAdjust="spacing" textLength="109" x="885" y="297.6245">isRelative: boolean</text><rect fill="none" height="6" style="stroke:#C82930;stroke-width:1.0;" width="6" x="873" y="304.2188"/><text fill="#000000" font-family="sans-serif" font-size="11" lengthAdjust="spacing" textLength="101" x="885" y="310.4292">dimensions: int[2]</text><rect fill="none" height="6" style="stroke:#C82930;stroke-width:1.0;" width="6" x="873" y="317.0234"/><text fill="#000000" font-family="sans-serif" font-size="11" lengthAdjust="spacing" textLength="91" x="885" y="323.2339">strings: String[..]</text><ellipse cx="876" cy="349.6328" fill="#84BE84" rx="3" ry="3" style="stroke:#038048;stroke-width:1.0;"/><text fill="#000000" font-family="sans-serif" font-size="11" lengthAdjust="spacing" textLength="134" x="885" y="352.8433">startCodeCharts() : void</text><line style="stroke:#A80036;stroke-width:1.5;" x1="866" x2="913.5" y1="336.2305" y2="336.2305"/><text fill="#000000" font-family="sans-serif" font-size="11" lengthAdjust="spacing" textLength="81" x="913.5" y="339.5386">public method</text><line style="stroke:#A80036;stroke-width:1.5;" x1="994.5" x2="1042" y1="336.2305" y2="336.2305"/><rect fill="#F24D5C" height="6" style="stroke:#C82930;stroke-width:1.0;" width="6" x="873" y="376.2422"/><text fill="#000000" font-family="sans-serif" font-size="11" lengthAdjust="spacing" textLength="152" x="885" y="382.4526">loadConfigData() : boolean</text><rect fill="#F24D5C" height="6" style="stroke:#C82930;stroke-width:1.0;" width="6" x="873" y="389.0469"/><text fill="#000000" font-family="sans-serif" font-size="11" lengthAdjust="spacing" textLength="100" x="885" y="395.2573">tryTutorial() : void</text><line style="stroke:#A80036;stroke-width:1.5;" x1="866" x2="907" y1="365.8398" y2="365.8398"/><text fill="#000000" font-family="sans-serif" font-size="11" lengthAdjust="spacing" textLength="94" x="907" y="369.1479">private methods</text><line style="stroke:#A80036;stroke-width:1.5;" x1="1001" x2="1042" y1="365.8398" y2="365.8398"/><!--MD5=[48cc74a7e7e460afd8863a3fcc09bdcb]
class CodeChartsBild--><rect codeLine="69" fill="#FEFECE" filter="url(#f7145uob9ymp3)" height="48" id="CodeChartsBild" style="stroke:#A80036;stroke-width:1.5;" width="124" x="1321" y="548.5"/><ellipse cx="1336" cy="564.5" fill="#ADD1B2" rx="11" ry="11" style="stroke:#A80036;stroke-width:1.0;"/><path d="M1338.3438,560.1719 C1337.4063,559.7344 1336.8125,559.5938 1335.9375,559.5938 C1333.3125,559.5938 1331.3125,561.6719 1331.3125,564.3906 L1331.3125,565.5156 C1331.3125,568.0938 1333.4219,569.9844 1336.3125,569.9844 C1337.5313,569.9844 1338.6875,569.6875 1339.4375,569.1406 C1340.0156,568.7344 1340.3438,568.2813 1340.3438,567.8906 C1340.3438,567.4375 1339.9531,567.0469 1339.4844,567.0469 C1339.2656,567.0469 1339.0625,567.125 1338.875,567.3125 C1338.4219,567.7969 1338.4219,567.7969 1338.2344,567.8906 C1337.8125,568.1563 1337.125,568.2813 1336.3594,568.2813 C1334.3125,568.2813 1333.0156,567.1875 1333.0156,565.4844 L1333.0156,564.3906 C1333.0156,562.6094 1334.2656,561.2969 1336,561.2969 C1336.5781,561.2969 1337.1875,561.4531 1337.6563,561.7031 C1338.1406,561.9844 1338.3125,562.2031 1338.4063,562.6094 C1338.4688,563.0156 1338.5,563.1406 1338.6406,563.2656 C1338.7813,563.4063 1339.0156,563.5156 1339.2344,563.5156 C1339.5,563.5156 1339.7656,563.375 1339.9375,563.1563 C1340.0469,563 1340.0781,562.8125 1340.0781,562.3906 L1340.0781,560.9688 C1340.0781,560.5313 1340.0625,560.4063 1339.9688,560.25 C1339.8125,559.9844 1339.5313,559.8438 1339.2344,559.8438 C1338.9375,559.8438 1338.7344,559.9375 1338.5156,560.25 L1338.3438,560.1719 Z " fill="#000000"/><text fill="#000000" font-family="sans-serif" font-size="12" lengthAdjust="spacing" textLength="92" x="1350" y="568.6543">CodeChartsBild</text><line style="stroke:#A80036;stroke-width:1.5;" x1="1322" x2="1444" y1="580.5" y2="580.5"/><line style="stroke:#A80036;stroke-width:1.5;" x1="1322" x2="1444" y1="588.5" y2="588.5"/><!--MD5=[b9640045e029ffef06c931bcc3e11d89]
class CodeChartsRaster--><rect codeLine="73" fill="#FEFECE" filter="url(#f7145uob9ymp3)" height="184.8516" id="CodeChartsRaster" style="stroke:#A80036;stroke-width:1.5;" width="309" x="707.5" y="480"/><ellipse cx="803.75" cy="496" fill="#ADD1B2" rx="11" ry="11" style="stroke:#A80036;stroke-width:1.0;"/><path d="M806.0938,491.6719 C805.1563,491.2344 804.5625,491.0938 803.6875,491.0938 C801.0625,491.0938 799.0625,493.1719 799.0625,495.8906 L799.0625,497.0156 C799.0625,499.5938 801.1719,501.4844 804.0625,501.4844 C805.2813,501.4844 806.4375,501.1875 807.1875,500.6406 C807.7656,500.2344 808.0938,499.7813 808.0938,499.3906 C808.0938,498.9375 807.7031,498.5469 807.2344,498.5469 C807.0156,498.5469 806.8125,498.625 806.625,498.8125 C806.1719,499.2969 806.1719,499.2969 805.9844,499.3906 C805.5625,499.6563 804.875,499.7813 804.1094,499.7813 C802.0625,499.7813 800.7656,498.6875 800.7656,496.9844 L800.7656,495.8906 C800.7656,494.1094 802.0156,492.7969 803.75,492.7969 C804.3281,492.7969 804.9375,492.9531 805.4063,493.2031 C805.8906,493.4844 806.0625,493.7031 806.1563,494.1094 C806.2188,494.5156 806.25,494.6406 806.3906,494.7656 C806.5313,494.9063 806.7656,495.0156 806.9844,495.0156 C807.25,495.0156 807.5156,494.875 807.6875,494.6563 C807.7969,494.5 807.8281,494.3125 807.8281,493.8906 L807.8281,492.4688 C807.8281,492.0313 807.8125,491.9063 807.7188,491.75 C807.5625,491.4844 807.2813,491.3438 806.9844,491.3438 C806.6875,491.3438 806.4844,491.4375 806.2656,491.75 L806.0938,491.6719 Z " fill="#000000"/><text fill="#000000" font-family="sans-serif" font-size="12" lengthAdjust="spacing" textLength="108" x="824.25" y="500.1543">CodeChartsRaster</text><line style="stroke:#A80036;stroke-width:1.5;" x1="708.5" x2="1015.5" y1="512" y2="512"/><rect fill="none" height="6" style="stroke:#C82930;stroke-width:1.0;" width="6" x="715.5" y="520"/><text fill="#000000" font-family="sans-serif" font-size="11" lengthAdjust="spacing" textLength="101" x="727.5" y="526.2104">dimensions: int[2]</text><rect fill="none" height="6" style="stroke:#C82930;stroke-width:1.0;" width="6" x="715.5" y="532.8047"/><text fill="#000000" font-family="sans-serif" font-size="11" lengthAdjust="spacing" textLength="91" x="727.5" y="539.0151">strings: String[..]</text><rect fill="none" height="6" style="stroke:#C82930;stroke-width:1.0;" width="6" x="715.5" y="545.6094"/><text fill="#000000" font-family="sans-serif" font-size="11" lengthAdjust="spacing" textLength="73" x="727.5" y="551.8198">coords: int[2]</text><text fill="#000000" font-family="sans-serif" font-size="11" lengthAdjust="spacing" textLength="105" x="727.5" y="564.6245">__public method__</text><ellipse cx="718.5" cy="574.2188" fill="#84BE84" rx="3" ry="3" style="stroke:#038048;stroke-width:1.0;"/><text fill="#000000" font-family="sans-serif" font-size="11" lengthAdjust="spacing" textLength="153" x="727.5" y="577.4292">setInput(input: String): void</text><ellipse cx="718.5" cy="587.0234" fill="#84BE84" rx="3" ry="3" style="stroke:#038048;stroke-width:1.0;"/><text fill="#000000" font-family="sans-serif" font-size="11" lengthAdjust="spacing" textLength="283" x="727.5" y="590.2339">setData(dimensions: int[2], strings: String[..]): void</text><ellipse cx="718.5" cy="599.8281" fill="#84BE84" rx="3" ry="3" style="stroke:#038048;stroke-width:1.0;"/><text fill="#000000" font-family="sans-serif" font-size="11" lengthAdjust="spacing" textLength="72" x="727.5" y="603.0386">show() : void</text><ellipse cx="718.5" cy="612.6328" fill="#84BE84" rx="3" ry="3" style="stroke:#038048;stroke-width:1.0;"/><text fill="#000000" font-family="sans-serif" font-size="11" lengthAdjust="spacing" textLength="94" x="727.5" y="615.8433">calculate() : void</text><rect fill="#F24D5C" height="6" style="stroke:#C82930;stroke-width:1.0;" width="6" x="715.5" y="639.2422"/><text fill="#000000" font-family="sans-serif" font-size="11" lengthAdjust="spacing" textLength="117" x="727.5" y="645.4526">loadPastRuns() : void</text><rect fill="#F24D5C" height="6" style="stroke:#C82930;stroke-width:1.0;" width="6" x="715.5" y="652.0469"/><text fill="#000000" font-family="sans-serif" font-size="11" lengthAdjust="spacing" textLength="98" x="727.5" y="658.2573">sendData() : void</text><line style="stroke:#A80036;stroke-width:1.5;" x1="708.5" x2="815" y1="628.8398" y2="628.8398"/><text fill="#000000" font-family="sans-serif" font-size="11" lengthAdjust="spacing" textLength="94" x="815" y="632.1479">private methods</text><line style="stroke:#A80036;stroke-width:1.5;" x1="909" x2="1015.5" y1="628.8398" y2="628.8398"/><!--MD5=[a7f545f13df25b09c4dd936da65dfdd1]
class CodeChartsEingabefenster--><rect codeLine="89" fill="#FEFECE" filter="url(#f7145uob9ymp3)" height="124.8281" id="CodeChartsEingabefenster" style="stroke:#A80036;stroke-width:1.5;" width="234" x="1052" y="510"/><ellipse cx="1085.45" cy="526" fill="#ADD1B2" rx="11" ry="11" style="stroke:#A80036;stroke-width:1.0;"/><path d="M1087.7938,521.6719 C1086.8563,521.2344 1086.2625,521.0938 1085.3875,521.0938 C1082.7625,521.0938 1080.7625,523.1719 1080.7625,525.8906 L1080.7625,527.0156 C1080.7625,529.5938 1082.8719,531.4844 1085.7625,531.4844 C1086.9813,531.4844 1088.1375,531.1875 1088.8875,530.6406 C1089.4656,530.2344 1089.7938,529.7813 1089.7938,529.3906 C1089.7938,528.9375 1089.4031,528.5469 1088.9344,528.5469 C1088.7156,528.5469 1088.5125,528.625 1088.325,528.8125 C1087.8719,529.2969 1087.8719,529.2969 1087.6844,529.3906 C1087.2625,529.6563 1086.575,529.7813 1085.8094,529.7813 C1083.7625,529.7813 1082.4656,528.6875 1082.4656,526.9844 L1082.4656,525.8906 C1082.4656,524.1094 1083.7156,522.7969 1085.45,522.7969 C1086.0281,522.7969 1086.6375,522.9531 1087.1063,523.2031 C1087.5906,523.4844 1087.7625,523.7031 1087.8563,524.1094 C1087.9188,524.5156 1087.95,524.6406 1088.0906,524.7656 C1088.2313,524.9063 1088.4656,525.0156 1088.6844,525.0156 C1088.95,525.0156 1089.2156,524.875 1089.3875,524.6563 C1089.4969,524.5 1089.5281,524.3125 1089.5281,523.8906 L1089.5281,522.4688 C1089.5281,522.0313 1089.5125,521.9063 1089.4188,521.75 C1089.2625,521.4844 1088.9813,521.3438 1088.6844,521.3438 C1088.3875,521.3438 1088.1844,521.4375 1087.9656,521.75 L1087.7938,521.6719 Z " fill="#000000"/><text fill="#000000" font-family="sans-serif" font-size="12" lengthAdjust="spacing" textLength="161" x="1103.55" y="530.1543">CodeChartsEingabefenster</text><line style="stroke:#A80036;stroke-width:1.5;" x1="1053" x2="1285" y1="542" y2="542"/><ellipse cx="1063" cy="569.8047" fill="#84BE84" rx="3" ry="3" style="stroke:#038048;stroke-width:1.0;"/><text fill="#000000" font-family="sans-serif" font-size="11" lengthAdjust="spacing" textLength="81" x="1072" y="573.0151">show() : String</text><line style="stroke:#A80036;stroke-width:1.5;" x1="1053" x2="1128.5" y1="556.4023" y2="556.4023"/><text fill="#000000" font-family="sans-serif" font-size="11" lengthAdjust="spacing" textLength="81" x="1128.5" y="559.7104">public method</text><line style="stroke:#A80036;stroke-width:1.5;" x1="1209.5" x2="1285" y1="556.4023" y2="556.4023"/><rect fill="#F24D5C" height="6" style="stroke:#C82930;stroke-width:1.0;" width="6" x="1060" y="596.4141"/><text fill="#000000" font-family="sans-serif" font-size="11" lengthAdjust="spacing" textLength="135" x="1072" y="602.6245">checkButton() : boolean</text><rect fill="#F24D5C" height="6" style="stroke:#C82930;stroke-width:1.0;" width="6" x="1060" y="609.2188"/><text fill="#000000" font-family="sans-serif" font-size="11" lengthAdjust="spacing" textLength="208" x="1072" y="615.4292">validateString(input: String): boolean</text><rect fill="#F24D5C" height="6" style="stroke:#C82930;stroke-width:1.0;" width="6" x="1060" y="622.0234"/><text fill="#000000" font-family="sans-serif" font-size="11" lengthAdjust="spacing" textLength="120" x="1072" y="628.2339">ErrorMessage() : void</text><line style="stroke:#A80036;stroke-width:1.5;" x1="1053" x2="1122" y1="586.0117" y2="586.0117"/><text fill="#000000" font-family="sans-serif" font-size="11" lengthAdjust="spacing" textLength="94" x="1122" y="589.3198">private methods</text><line style="stroke:#A80036;stroke-width:1.5;" x1="1216" x2="1285" y1="586.0117" y2="586.0117"/><polygon fill="#FFFFFF" filter="url(#f7145uob9ymp3)" points="381,546,439,546,446,568.2969,453,568.2969,453,598.5938,381,598.5938,381,546" style="stroke:#000000;stroke-width:1.5;"/><line style="stroke:#000000;stroke-width:1.5;" x1="381" x2="446" y1="568.2969" y2="568.2969"/><text fill="#000000" font-family="sans-serif" font-size="14" font-weight="bold" lengthAdjust="spacing" textLength="52" x="385" y="560.9951">Config</text><polygon fill="#FFFFFF" filter="url(#f7145uob9ymp3)" points="1480,546,1618,546,1625,568.2969,1632,568.2969,1632,598.5938,1480,598.5938,1480,546" style="stroke:#000000;stroke-width:1.5;"/><line style="stroke:#000000;stroke-width:1.5;" x1="1480" x2="1625" y1="568.2969" y2="568.2969"/><text fill="#000000" font-family="sans-serif" font-size="14" font-weight="bold" lengthAdjust="spacing" textLength="132" x="1484" y="560.9951">SpeicherMedium</text><!--MD5=[e72ca73ac73eca3f18a81a671fe51a7c]
link ToolType to Tutorial--><path codeLine="26" d="M123.553,121.575 C157.716,149.006 205.841,187.646 249.116,222.393 " fill="none" id="ToolType-Tutorial" style="stroke:#A80036;stroke-width:1.0;"/><!--MD5=[9f1a00b177a5ae45176fc1e7f3c0daae]
link Data to ToolType--><path codeLine="27" d="M158.154,84 C146.635,84 135.115,84 123.596,84 " fill="none" id="Data-ToolType" style="stroke:#A80036;stroke-width:1.0;"/><!--MD5=[fc4ffdc4bb2ac5a3cd1bd4c856213de4]
link Tutorial to Config--><path codeLine="28" d="M372.299,389.601 C385.523,443.411 401.899,510.049 410.698,545.857 " fill="none" id="Tutorial-Config" style="stroke:#A80036;stroke-width:1.0;"/><!--MD5=[c900c8497a661fa4184b5bb04c49372f]
reverse link Bild to CodeChartsBild--><path codeLine="99" d="M489.685,90.621 C648.775,101.106 964.556,126.253 1068,166 C1260.34,239.903 1352.12,250.098 1447,433 C1467.61,472.737 1433.12,520.368 1407.29,548.153 " fill="none" id="Bild-backto-CodeChartsBild" style="stroke:#A80036;stroke-width:1.0;"/><polygon fill="none" points="489.205,97.605,469.699,89.327,490.11,83.634,489.205,97.605" style="stroke:#A80036;stroke-width:1.0;"/><!--MD5=[1e1b7046ac2ce77f5695cfbd942bbe9e]
reverse link Tutorial to CodeChartsTutorial--><path codeLine="100" d="M420.163,406.133 C431.89,421.295 444.382,436.406 457,450 C488.896,484.362 530.027,518.643 559.804,541.987 " fill="none" id="Tutorial-backto-CodeChartsTutorial" style="stroke:#A80036;stroke-width:1.0;"/><polygon fill="none" points="414.241,409.906,407.769,389.729,425.411,401.467,414.241,409.906" style="stroke:#A80036;stroke-width:1.0;"/><!--MD5=[330c08158d1b261bc3f75486c3c78546]
link CodeChartsCoordinator to CodeChartsBild--><path codeLine="103" d="M1051.32,398.996 C1076.36,418.491 1104.36,437.062 1133,450 C1202.92,481.59 1236.17,442.311 1303,480 C1331.86,496.274 1355.41,527.001 1369.31,548.333 " fill="none" id="CodeChartsCoordinator-CodeChartsBild" style="stroke:#A80036;stroke-width:1.0;"/><polygon fill="#000000" points="1142.5258,443.6918,1135.5879,437.1867,1133.0893,442.5071,1142.5258,443.6918" style="stroke:#000000;stroke-width:1.0;"/><text fill="#000000" font-family="sans-serif" font-size="13" lengthAdjust="spacing" textLength="167" x="1147" y="446.0669">send initial data and show</text><!--MD5=[af7fa7eefc847a19c654188e611c6a01]
link CodeChartsCoordinator to CodeChartsRaster--><path codeLine="104" d="M872.253,403.278 C866.955,412.899 862.392,422.868 859,433 C854.076,447.71 851.823,463.8 851.209,479.641 " fill="none" id="CodeChartsCoordinator-CodeChartsRaster" style="stroke:#A80036;stroke-width:1.0;"/><polygon fill="#000000" points="862.6716,446.3867,867.908,438.4475,862.2414,436.8859,862.6716,446.3867" style="stroke:#000000;stroke-width:1.0;"/><text fill="#000000" font-family="sans-serif" font-size="13" lengthAdjust="spacing" textLength="130" x="873" y="446.0669">send data and show</text><!--MD5=[acd6e22bd1b43ca41d1e169d29f8f975]
link CodeChartsCoordinator to CodeChartsEingabefenster--><path codeLine="105" d="M1044,348 C1089.33,348 1026.35,408.242 1044,450 C1053.42,472.302 1069.16,492.53 1086.35,509.803 " fill="none" id="CodeChartsCoordinator-CodeChartsEingabefenster" style="stroke:#A80036;stroke-width:1.0;"/><polygon fill="#000000" points="1050.266,446.4035,1050.8189,436.909,1045.1326,438.3973,1050.266,446.4035" style="stroke:#000000;stroke-width:1.0;"/><text fill="#000000" font-family="sans-serif" font-size="13" lengthAdjust="spacing" textLength="34" x="1058" y="446.0669">show</text><!--MD5=[45be10fb9057243d989f7112dab584ae]
link CodeChartsCoordinator to CodeChartsTutorial--><path codeLine="106" d="M864,389 C757.584,389 662.802,490.059 621.267,541.772 " fill="none" id="CodeChartsCoordinator-CodeChartsTutorial" style="stroke:#A80036;stroke-width:1.0;"/><polygon fill="#000000" points="732.7684,444.2297,741.9889,441.899,738.858,436.9244,732.7684,444.2297" style="stroke:#000000;stroke-width:1.0;"/><text fill="#000000" font-family="sans-serif" font-size="13" lengthAdjust="spacing" textLength="89" x="746" y="446.0669">start Tutorial?</text><!--MD5=[6420835cf827f0fe1d54714c2e96b5dd]
link CodeChartsCoordinator to SpeicherMedium--><path codeLine="109" d="M1051.47,326.858 C1157.77,351.467 1330.19,400.208 1461,480 C1489.93,497.649 1517.16,525.473 1534.99,545.809 " fill="none" id="CodeChartsCoordinator-SpeicherMedium" style="stroke:#A80036;stroke-width:1.0;"/><polygon fill="#000000" points="1406.5548,443.6289,1399.5274,437.2206,1397.1028,442.575,1406.5548,443.6289" style="stroke:#000000;stroke-width:1.0;"/><text fill="#000000" font-family="sans-serif" font-size="13" lengthAdjust="spacing" textLength="73" x="1411" y="446.0669">saves Data</text><!--MD5=[ba0b6aad62bad149f99973f5ab313e4e]
link CodeChartsCoordinator to Config--><path codeLine="110" d="M864,348 C696.085,348 643.79,378.532 510,480 C484.012,499.709 457.835,526.197 439.904,545.601 " fill="none" id="CodeChartsCoordinator-Config" style="stroke:#A80036;stroke-width:1.0;"/><polygon fill="#000000" points="581.5322,439.4547,572.0922,440.6109,574.5746,445.9388,581.5322,439.4547" style="stroke:#000000;stroke-width:1.0;"/><text fill="#000000" font-family="sans-serif" font-size="13" lengthAdjust="spacing" textLength="100" x="586" y="446.0669">gets Initial Data</text><!--MD5=[c4f08fb8250b55c2b372657769e9aa1d]
@startuml
' skinparam backgroundColor transparent
'() System #DA70D5
top to bottom direction

package Util {
    ' - - - TUTORIAL - - -
    abstract Tutorial<t: ToolType> {
      - t: ToolType
      __public method__
      + start() : void
      __private methods__
      - getConfigState() : boolean
      - setConfigState(state: boolean) : void
      - show() : boolean
      __abstract methods__
      - {abstract} tutorial() : void
    }

    enum ToolType {
      ZOOM
      EYETRACKING
      CODECHARTS
    }

    ' Interaktionen
    Tutorial -u- ToolType
    Data -r- ToolType
    Tutorial -d- Config


    ' - - - BILD - - -

    abstract Bild {
      + load(url: String) : void
      + show() : void
    }

    class Data<t: ToolType> {
        + t: ToolType
        + data: unknown
        + config_id: int
    }
}

' === CODE CHARTS ===
package CodeCharts {

    ' CodeCharts Tutorial 
    class CodeChartsTutorial {
      - tutorial() : void
    }
  
    ' CodeCharts Coordinator
    class CodeChartsCoordinator {
        - data: Data
        - speed: float[2]
        - isTutorial: boolean
        - isRelative: boolean
        - dimensions: int[2]
        - strings: String[..]
        __public method__
        + startCodeCharts() : void
        __private methods__
        - loadConfigData() : boolean
        - tryTutorial() : void
    }    

    ' CodeCharts Bild
    class CodeChartsBild {
    }

    ' CodeCharts Raster
    class CodeChartsRaster {
        ' Unsicher ob es sinnvoll ist alle vorherigen Durchläufe auf einmal zu laden
        - dimensions: int[2]
        - strings: String[..]
        - coords: int[2]
        __public method__ 
        + setInput(input: String): void
        + setData(dimensions: int[2], strings: String[..]): void
        + show() : void
        + calculate() : void
        __private methods__
        - loadPastRuns() : void
        - sendData() : void
    }

    ' CodeCharts Eingabefenster
    class CodeChartsEingabefenster {
        __public method__
        + show() : String
        __private methods__
        - checkButton() : boolean
        - validateString(input: String): boolean
        - ErrorMessage() : void
    }

  ' Vererbungen
  Bild <|-d- CodeChartsBild
  Tutorial <|-d- CodeChartsTutorial

  ' Interaktionen 
  CodeChartsCoordinator - - CodeChartsBild : > send initial data and show
  CodeChartsCoordinator - - CodeChartsRaster : > send data and show
  CodeChartsCoordinator::startCodeCharts - - CodeChartsEingabefenster : > show
  CodeChartsCoordinator::tryTutorial - - CodeChartsTutorial : > start Tutorial?

  ' Andere Module
  CodeChartsCoordinator - - SpeicherMedium : > saves Data
  CodeChartsCoordinator::startCodeCharts - - Config : < gets Initial Data
  
}

' Blackboxen / Andere Module
package Config {}

package SpeicherMedium {}
@enduml

@startuml
top to bottom direction

package Util {
    abstract Tutorial<t: ToolType> {
      - t: ToolType
      __public method__
      + start() : void
      __private methods__
      - getConfigState() : boolean
      - setConfigState(state: boolean) : void
      - show() : boolean
      __abstract methods__
      - {abstract} tutorial() : void
    }

    enum ToolType {
      ZOOM
      EYETRACKING
      CODECHARTS
    }

    Tutorial -u- ToolType
    Data -r- ToolType
    Tutorial -d- Config



    abstract Bild {
      + load(url: String) : void
      + show() : void
    }

    class Data<t: ToolType> {
        + t: ToolType
        + data: unknown
        + config_id: int
    }
}

package CodeCharts {

    class CodeChartsTutorial {
      - tutorial() : void
    }
  
    class CodeChartsCoordinator {
        - data: Data
        - speed: float[2]
        - isTutorial: boolean
        - isRelative: boolean
        - dimensions: int[2]
        - strings: String[..]
        __public method__
        + startCodeCharts() : void
        __private methods__
        - loadConfigData() : boolean
        - tryTutorial() : void
    }    

    class CodeChartsBild {
    }

    class CodeChartsRaster {
        - dimensions: int[2]
        - strings: String[..]
        - coords: int[2]
        __public method__ 
        + setInput(input: String): void
        + setData(dimensions: int[2], strings: String[..]): void
        + show() : void
        + calculate() : void
        __private methods__
        - loadPastRuns() : void
        - sendData() : void
    }

    class CodeChartsEingabefenster {
        __public method__
        + show() : String
        __private methods__
        - checkButton() : boolean
        - validateString(input: String): boolean
        - ErrorMessage() : void
    }

  Bild <|-d- CodeChartsBild
  Tutorial <|-d- CodeChartsTutorial

  CodeChartsCoordinator - - CodeChartsBild : > send initial data and show
  CodeChartsCoordinator - - CodeChartsRaster : > send data and show
  CodeChartsCoordinator::startCodeCharts - - CodeChartsEingabefenster : > show
  CodeChartsCoordinator::tryTutorial - - CodeChartsTutorial : > start Tutorial?

  CodeChartsCoordinator - - SpeicherMedium : > saves Data
  CodeChartsCoordinator::startCodeCharts - - Config : < gets Initial Data
  
}

package Config {}

package SpeicherMedium {}
@enduml

PlantUML version 1.2021.14beta3(Unknown compile time)
(GPL source distribution)
Java Runtime: Java(TM) SE Runtime Environment
JVM: Java HotSpot(TM) 64-Bit Server VM
Default Encoding: UTF-8
Language: en
Country: US
--></g></svg>