<?xml version="1.0" encoding="UTF-8" standalone="no"?><svg xmlns="http://www.w3.org/2000/svg" xmlns:xlink="http://www.w3.org/1999/xlink" contentScriptType="application/ecmascript" contentStyleType="text/css" height="759px" preserveAspectRatio="none" style="width:1496px;height:759px;background:#FFFFFF;" version="1.1" viewBox="0 0 1496 759" width="1496px" zoomAndPan="magnify"><defs><filter height="300%" id="f1kdiz6lb861bh" width="300%" x="-1" y="-1"><feGaussianBlur result="blurOut" stdDeviation="2.0"/><feColorMatrix in="blurOut" result="blurOut2" type="matrix" values="0 0 0 0 0 0 0 0 0 0 0 0 0 0 0 0 0 0 .4 0"/><feOffset dx="4.0" dy="4.0" in="blurOut2" result="blurOut3"/><feBlend in="SourceGraphic" in2="blurOut3" mode="normal"/></filter></defs><g><!--MD5=[bd4ed236a13575a9dcf49b2316e757e7]
cluster CodeCharts--><polygon fill="#FFFFFF" filter="url(#f1kdiz6lb861bh)" points="187,128,286,128,293,150.2969,1081,150.2969,1081,752,187,752,187,128" style="stroke:#000000;stroke-width:1.5;"/><line style="stroke:#000000;stroke-width:1.5;" x1="187" x2="293" y1="150.2969" y2="150.2969"/><text fill="#000000" font-family="sans-serif" font-size="14" font-weight="bold" lengthAdjust="spacing" textLength="93" x="191" y="142.9951">CodeCharts</text><!--MD5=[81d462353594d8875238471802618d21]
class CodeChartsTutorial--><rect codeLine="40" fill="#FEFECE" filter="url(#f1kdiz6lb861bh)" height="167.2422" id="CodeChartsTutorial" style="stroke:#A80036;stroke-width:1.5;" width="236" x="829" y="566.5"/><ellipse cx="885.75" cy="582.5" fill="#ADD1B2" rx="11" ry="11" style="stroke:#A80036;stroke-width:1.0;"/><path d="M888.0938,578.1719 C887.1563,577.7344 886.5625,577.5938 885.6875,577.5938 C883.0625,577.5938 881.0625,579.6719 881.0625,582.3906 L881.0625,583.5156 C881.0625,586.0938 883.1719,587.9844 886.0625,587.9844 C887.2813,587.9844 888.4375,587.6875 889.1875,587.1406 C889.7656,586.7344 890.0938,586.2813 890.0938,585.8906 C890.0938,585.4375 889.7031,585.0469 889.2344,585.0469 C889.0156,585.0469 888.8125,585.125 888.625,585.3125 C888.1719,585.7969 888.1719,585.7969 887.9844,585.8906 C887.5625,586.1563 886.875,586.2813 886.1094,586.2813 C884.0625,586.2813 882.7656,585.1875 882.7656,583.4844 L882.7656,582.3906 C882.7656,580.6094 884.0156,579.2969 885.75,579.2969 C886.3281,579.2969 886.9375,579.4531 887.4063,579.7031 C887.8906,579.9844 888.0625,580.2031 888.1563,580.6094 C888.2188,581.0156 888.25,581.1406 888.3906,581.2656 C888.5313,581.4063 888.7656,581.5156 888.9844,581.5156 C889.25,581.5156 889.5156,581.375 889.6875,581.1563 C889.7969,581 889.8281,580.8125 889.8281,580.3906 L889.8281,578.9688 C889.8281,578.5313 889.8125,578.4063 889.7188,578.25 C889.5625,577.9844 889.2813,577.8438 888.9844,577.8438 C888.6875,577.8438 888.4844,577.9375 888.2656,578.25 L888.0938,578.1719 Z " fill="#000000"/><text fill="#000000" font-family="sans-serif" font-size="12" lengthAdjust="spacing" textLength="114" x="906.25" y="586.6543">CodeChartsTutorial</text><line style="stroke:#A80036;stroke-width:1.5;" x1="830" x2="1064" y1="598.5" y2="598.5"/><rect fill="none" height="6" style="stroke:#C82930;stroke-width:1.0;" width="6" x="837" y="606.5"/><text fill="#000000" font-family="sans-serif" font-size="11" lengthAdjust="spacing" textLength="82" x="849" y="612.7104">t: TutorialType</text><ellipse cx="840" cy="639.1094" fill="#84BE84" rx="3" ry="3" style="stroke:#038048;stroke-width:1.0;"/><text fill="#000000" font-family="sans-serif" font-size="11" lengthAdjust="spacing" textLength="68" x="849" y="642.3198">start() : void</text><line style="stroke:#A80036;stroke-width:1.5;" x1="830" x2="906.5" y1="625.707" y2="625.707"/><text fill="#000000" font-family="sans-serif" font-size="11" lengthAdjust="spacing" textLength="81" x="906.5" y="629.0151">public method</text><line style="stroke:#A80036;stroke-width:1.5;" x1="987.5" x2="1064" y1="625.707" y2="625.707"/><rect fill="#F24D5C" height="6" style="stroke:#C82930;stroke-width:1.0;" width="6" x="837" y="665.7188"/><text fill="#000000" font-family="sans-serif" font-size="11" lengthAdjust="spacing" textLength="151" x="849" y="671.9292">getConfigState() : boolean</text><rect fill="#F24D5C" height="6" style="stroke:#C82930;stroke-width:1.0;" width="6" x="837" y="678.5234"/><text fill="#000000" font-family="sans-serif" font-size="11" lengthAdjust="spacing" textLength="210" x="849" y="684.7339">setConfigState(state: boolean) : void</text><rect fill="#F24D5C" height="6" style="stroke:#C82930;stroke-width:1.0;" width="6" x="837" y="691.3281"/><text fill="#000000" font-family="sans-serif" font-size="11" lengthAdjust="spacing" textLength="94" x="849" y="697.5386">show() : boolean</text><line style="stroke:#A80036;stroke-width:1.5;" x1="830" x2="900" y1="655.3164" y2="655.3164"/><text fill="#000000" font-family="sans-serif" font-size="11" lengthAdjust="spacing" textLength="94" x="900" y="658.6245">private methods</text><line style="stroke:#A80036;stroke-width:1.5;" x1="994" x2="1064" y1="655.3164" y2="655.3164"/><rect fill="#F24D5C" height="6" style="stroke:#C82930;stroke-width:1.0;" width="6" x="837" y="720.9375"/><text fill="#000000" font-family="sans-serif" font-size="11" font-style="italic" lengthAdjust="spacing" textLength="84" x="849" y="727.1479">tutorial() : void</text><line style="stroke:#A80036;stroke-width:1.5;" x1="830" x2="897.5" y1="710.5352" y2="710.5352"/><text fill="#000000" font-family="sans-serif" font-size="11" lengthAdjust="spacing" textLength="99" x="897.5" y="713.8433">abstract methods</text><line style="stroke:#A80036;stroke-width:1.5;" x1="996.5" x2="1064" y1="710.5352" y2="710.5352"/><!--MD5=[d6943c12ae734dbe1975a5489f85ab8f]
class CodeChartsCoordinator--><rect codeLine="53" fill="#FEFECE" filter="url(#f1kdiz6lb861bh)" height="176.0469" id="CodeChartsCoordinator" style="stroke:#A80036;stroke-width:1.5;" width="178" x="493" y="309"/><ellipse cx="510.25" cy="325" fill="#ADD1B2" rx="11" ry="11" style="stroke:#A80036;stroke-width:1.0;"/><path d="M512.5938,320.6719 C511.6563,320.2344 511.0625,320.0938 510.1875,320.0938 C507.5625,320.0938 505.5625,322.1719 505.5625,324.8906 L505.5625,326.0156 C505.5625,328.5938 507.6719,330.4844 510.5625,330.4844 C511.7813,330.4844 512.9375,330.1875 513.6875,329.6406 C514.2656,329.2344 514.5938,328.7813 514.5938,328.3906 C514.5938,327.9375 514.2031,327.5469 513.7344,327.5469 C513.5156,327.5469 513.3125,327.625 513.125,327.8125 C512.6719,328.2969 512.6719,328.2969 512.4844,328.3906 C512.0625,328.6563 511.375,328.7813 510.6094,328.7813 C508.5625,328.7813 507.2656,327.6875 507.2656,325.9844 L507.2656,324.8906 C507.2656,323.1094 508.5156,321.7969 510.25,321.7969 C510.8281,321.7969 511.4375,321.9531 511.9063,322.2031 C512.3906,322.4844 512.5625,322.7031 512.6563,323.1094 C512.7188,323.5156 512.75,323.6406 512.8906,323.7656 C513.0313,323.9063 513.2656,324.0156 513.4844,324.0156 C513.75,324.0156 514.0156,323.875 514.1875,323.6563 C514.2969,323.5 514.3281,323.3125 514.3281,322.8906 L514.3281,321.4688 C514.3281,321.0313 514.3125,320.9063 514.2188,320.75 C514.0625,320.4844 513.7813,320.3438 513.4844,320.3438 C513.1875,320.3438 512.9844,320.4375 512.7656,320.75 L512.5938,320.6719 Z " fill="#000000"/><text fill="#000000" font-family="sans-serif" font-size="12" lengthAdjust="spacing" textLength="141" x="524.75" y="329.1543">CodeChartsCoordinator</text><line style="stroke:#A80036;stroke-width:1.5;" x1="494" x2="670" y1="341" y2="341"/><rect fill="none" height="6" style="stroke:#C82930;stroke-width:1.0;" width="6" x="501" y="349"/><text fill="#000000" font-family="sans-serif" font-size="11" lengthAdjust="spacing" textLength="83" x="513" y="355.2104">speed: float[2]</text><rect fill="none" height="6" style="stroke:#C82930;stroke-width:1.0;" width="6" x="501" y="361.8047"/><text fill="#000000" font-family="sans-serif" font-size="11" lengthAdjust="spacing" textLength="104" x="513" y="368.0151">isTutorial: boolean</text><rect fill="none" height="6" style="stroke:#C82930;stroke-width:1.0;" width="6" x="501" y="374.6094"/><text fill="#000000" font-family="sans-serif" font-size="11" lengthAdjust="spacing" textLength="109" x="513" y="380.8198">isRelative: boolean</text><rect fill="none" height="6" style="stroke:#C82930;stroke-width:1.0;" width="6" x="501" y="387.4141"/><text fill="#000000" font-family="sans-serif" font-size="11" lengthAdjust="spacing" textLength="101" x="513" y="393.6245">dimensions: int[2]</text><rect fill="none" height="6" style="stroke:#C82930;stroke-width:1.0;" width="6" x="501" y="400.2188"/><text fill="#000000" font-family="sans-serif" font-size="11" lengthAdjust="spacing" textLength="91" x="513" y="406.4292">strings: String[..]</text><ellipse cx="504" cy="432.8281" fill="#84BE84" rx="3" ry="3" style="stroke:#038048;stroke-width:1.0;"/><text fill="#000000" font-family="sans-serif" font-size="11" lengthAdjust="spacing" textLength="134" x="513" y="436.0386">startCodeCharts() : void</text><line style="stroke:#A80036;stroke-width:1.5;" x1="494" x2="541.5" y1="419.4258" y2="419.4258"/><text fill="#000000" font-family="sans-serif" font-size="11" lengthAdjust="spacing" textLength="81" x="541.5" y="422.7339">public method</text><line style="stroke:#A80036;stroke-width:1.5;" x1="622.5" x2="670" y1="419.4258" y2="419.4258"/><rect fill="#F24D5C" height="6" style="stroke:#C82930;stroke-width:1.0;" width="6" x="501" y="459.4375"/><text fill="#000000" font-family="sans-serif" font-size="11" lengthAdjust="spacing" textLength="152" x="513" y="465.6479">loadConfigData() : boolean</text><rect fill="#F24D5C" height="6" style="stroke:#C82930;stroke-width:1.0;" width="6" x="501" y="472.2422"/><text fill="#000000" font-family="sans-serif" font-size="11" lengthAdjust="spacing" textLength="100" x="513" y="478.4526">tryTutorial() : void</text><line style="stroke:#A80036;stroke-width:1.5;" x1="494" x2="535" y1="449.0352" y2="449.0352"/><text fill="#000000" font-family="sans-serif" font-size="11" lengthAdjust="spacing" textLength="94" x="535" y="452.3433">private methods</text><line style="stroke:#A80036;stroke-width:1.5;" x1="629" x2="670" y1="449.0352" y2="449.0352"/><!--MD5=[716079bcf736c8b229d38dedc298d2f0]
class CodeChartsInternerSpeicher--><rect codeLine="67" fill="#FEFECE" filter="url(#f1kdiz6lb861bh)" height="95.2188" id="CodeChartsInternerSpeicher" style="stroke:#A80036;stroke-width:1.5;" width="332" x="722" y="349"/><ellipse cx="798.25" cy="365" fill="#ADD1B2" rx="11" ry="11" style="stroke:#A80036;stroke-width:1.0;"/><path d="M800.5938,360.6719 C799.6563,360.2344 799.0625,360.0938 798.1875,360.0938 C795.5625,360.0938 793.5625,362.1719 793.5625,364.8906 L793.5625,366.0156 C793.5625,368.5938 795.6719,370.4844 798.5625,370.4844 C799.7813,370.4844 800.9375,370.1875 801.6875,369.6406 C802.2656,369.2344 802.5938,368.7813 802.5938,368.3906 C802.5938,367.9375 802.2031,367.5469 801.7344,367.5469 C801.5156,367.5469 801.3125,367.625 801.125,367.8125 C800.6719,368.2969 800.6719,368.2969 800.4844,368.3906 C800.0625,368.6563 799.375,368.7813 798.6094,368.7813 C796.5625,368.7813 795.2656,367.6875 795.2656,365.9844 L795.2656,364.8906 C795.2656,363.1094 796.5156,361.7969 798.25,361.7969 C798.8281,361.7969 799.4375,361.9531 799.9063,362.2031 C800.3906,362.4844 800.5625,362.7031 800.6563,363.1094 C800.7188,363.5156 800.75,363.6406 800.8906,363.7656 C801.0313,363.9063 801.2656,364.0156 801.4844,364.0156 C801.75,364.0156 802.0156,363.875 802.1875,363.6563 C802.2969,363.5 802.3281,363.3125 802.3281,362.8906 L802.3281,361.4688 C802.3281,361.0313 802.3125,360.9063 802.2188,360.75 C802.0625,360.4844 801.7813,360.3438 801.4844,360.3438 C801.1875,360.3438 800.9844,360.4375 800.7656,360.75 L800.5938,360.6719 Z " fill="#000000"/><text fill="#000000" font-family="sans-serif" font-size="12" lengthAdjust="spacing" textLength="171" x="818.75" y="369.1543">CodeChartsInternerSpeicher</text><line style="stroke:#A80036;stroke-width:1.5;" x1="723" x2="1053" y1="381" y2="381"/><ellipse cx="733" cy="408.8047" fill="#84BE84" rx="3" ry="3" style="stroke:#038048;stroke-width:1.0;"/><text fill="#000000" font-family="sans-serif" font-size="11" lengthAdjust="spacing" textLength="152" x="742" y="412.0151">addPic(pic: unknown) : void</text><ellipse cx="733" cy="421.6094" fill="#84BE84" rx="3" ry="3" style="stroke:#038048;stroke-width:1.0;"/><text fill="#000000" font-family="sans-serif" font-size="11" lengthAdjust="spacing" textLength="306" x="742" y="424.8198">addSizeAndKord(size: int[2], coordinates: int[2]) : void</text><ellipse cx="733" cy="434.4141" fill="#84BE84" rx="3" ry="3" style="stroke:#038048;stroke-width:1.0;"/><text fill="#000000" font-family="sans-serif" font-size="11" lengthAdjust="spacing" textLength="120" x="742" y="437.6245">saveData() : boolean</text><line style="stroke:#A80036;stroke-width:1.5;" x1="723" x2="847.5" y1="395.4023" y2="395.4023"/><text fill="#000000" font-family="sans-serif" font-size="11" lengthAdjust="spacing" textLength="81" x="847.5" y="398.7104">public method</text><line style="stroke:#A80036;stroke-width:1.5;" x1="928.5" x2="1053" y1="395.4023" y2="395.4023"/><!--MD5=[48cc74a7e7e460afd8863a3fcc09bdcb]
class CodeChartsBild--><rect codeLine="75" fill="#FEFECE" filter="url(#f1kdiz6lb861bh)" height="73.6094" id="CodeChartsBild" style="stroke:#A80036;stroke-width:1.5;" width="147" x="629.5" y="167"/><ellipse cx="654.85" cy="183" fill="#ADD1B2" rx="11" ry="11" style="stroke:#A80036;stroke-width:1.0;"/><path d="M657.1938,178.6719 C656.2563,178.2344 655.6625,178.0938 654.7875,178.0938 C652.1625,178.0938 650.1625,180.1719 650.1625,182.8906 L650.1625,184.0156 C650.1625,186.5938 652.2719,188.4844 655.1625,188.4844 C656.3813,188.4844 657.5375,188.1875 658.2875,187.6406 C658.8656,187.2344 659.1938,186.7813 659.1938,186.3906 C659.1938,185.9375 658.8031,185.5469 658.3344,185.5469 C658.1156,185.5469 657.9125,185.625 657.725,185.8125 C657.2719,186.2969 657.2719,186.2969 657.0844,186.3906 C656.6625,186.6563 655.975,186.7813 655.2094,186.7813 C653.1625,186.7813 651.8656,185.6875 651.8656,183.9844 L651.8656,182.8906 C651.8656,181.1094 653.1156,179.7969 654.85,179.7969 C655.4281,179.7969 656.0375,179.9531 656.5063,180.2031 C656.9906,180.4844 657.1625,180.7031 657.2563,181.1094 C657.3188,181.5156 657.35,181.6406 657.4906,181.7656 C657.6313,181.9063 657.8656,182.0156 658.0844,182.0156 C658.35,182.0156 658.6156,181.875 658.7875,181.6563 C658.8969,181.5 658.9281,181.3125 658.9281,180.8906 L658.9281,179.4688 C658.9281,179.0313 658.9125,178.9063 658.8188,178.75 C658.6625,178.4844 658.3813,178.3438 658.0844,178.3438 C657.7875,178.3438 657.5844,178.4375 657.3656,178.75 L657.1938,178.6719 Z " fill="#000000"/><text fill="#000000" font-family="sans-serif" font-size="12" lengthAdjust="spacing" textLength="92" x="671.15" y="187.1543">CodeChartsBild</text><line style="stroke:#A80036;stroke-width:1.5;" x1="630.5" x2="775.5" y1="199" y2="199"/><line style="stroke:#A80036;stroke-width:1.5;" x1="630.5" x2="775.5" y1="207" y2="207"/><ellipse cx="640.5" cy="218" fill="#84BE84" rx="3" ry="3" style="stroke:#038048;stroke-width:1.0;"/><text fill="#000000" font-family="sans-serif" font-size="11" lengthAdjust="spacing" textLength="121" x="649.5" y="221.2104">load(url: String) : void</text><ellipse cx="640.5" cy="230.8047" fill="#84BE84" rx="3" ry="3" style="stroke:#038048;stroke-width:1.0;"/><text fill="#000000" font-family="sans-serif" font-size="11" lengthAdjust="spacing" textLength="72" x="649.5" y="234.0151">show() : void</text><!--MD5=[b9640045e029ffef06c931bcc3e11d89]
class CodeChartsRaster--><rect codeLine="82" fill="#FEFECE" filter="url(#f1kdiz6lb861bh)" height="172.0469" id="CodeChartsRaster" style="stroke:#A80036;stroke-width:1.5;" width="305" x="203.5" y="564"/><ellipse cx="297.75" cy="580" fill="#ADD1B2" rx="11" ry="11" style="stroke:#A80036;stroke-width:1.0;"/><path d="M300.0938,575.6719 C299.1563,575.2344 298.5625,575.0938 297.6875,575.0938 C295.0625,575.0938 293.0625,577.1719 293.0625,579.8906 L293.0625,581.0156 C293.0625,583.5938 295.1719,585.4844 298.0625,585.4844 C299.2813,585.4844 300.4375,585.1875 301.1875,584.6406 C301.7656,584.2344 302.0938,583.7813 302.0938,583.3906 C302.0938,582.9375 301.7031,582.5469 301.2344,582.5469 C301.0156,582.5469 300.8125,582.625 300.625,582.8125 C300.1719,583.2969 300.1719,583.2969 299.9844,583.3906 C299.5625,583.6563 298.875,583.7813 298.1094,583.7813 C296.0625,583.7813 294.7656,582.6875 294.7656,580.9844 L294.7656,579.8906 C294.7656,578.1094 296.0156,576.7969 297.75,576.7969 C298.3281,576.7969 298.9375,576.9531 299.4063,577.2031 C299.8906,577.4844 300.0625,577.7031 300.1563,578.1094 C300.2188,578.5156 300.25,578.6406 300.3906,578.7656 C300.5313,578.9063 300.7656,579.0156 300.9844,579.0156 C301.25,579.0156 301.5156,578.875 301.6875,578.6563 C301.7969,578.5 301.8281,578.3125 301.8281,577.8906 L301.8281,576.4688 C301.8281,576.0313 301.8125,575.9063 301.7188,575.75 C301.5625,575.4844 301.2813,575.3438 300.9844,575.3438 C300.6875,575.3438 300.4844,575.4375 300.2656,575.75 L300.0938,575.6719 Z " fill="#000000"/><text fill="#000000" font-family="sans-serif" font-size="12" lengthAdjust="spacing" textLength="108" x="318.25" y="584.1543">CodeChartsRaster</text><line style="stroke:#A80036;stroke-width:1.5;" x1="204.5" x2="507.5" y1="596" y2="596"/><rect fill="none" height="6" style="stroke:#C82930;stroke-width:1.0;" width="6" x="211.5" y="604"/><text fill="#000000" font-family="sans-serif" font-size="11" lengthAdjust="spacing" textLength="101" x="223.5" y="610.2104">dimensions: int[2]</text><rect fill="none" height="6" style="stroke:#C82930;stroke-width:1.0;" width="6" x="211.5" y="616.8047"/><text fill="#000000" font-family="sans-serif" font-size="11" lengthAdjust="spacing" textLength="91" x="223.5" y="623.0151">strings: String[..]</text><rect fill="none" height="6" style="stroke:#C82930;stroke-width:1.0;" width="6" x="211.5" y="629.6094"/><text fill="#000000" font-family="sans-serif" font-size="11" lengthAdjust="spacing" textLength="66" x="223.5" y="635.8198">kords: int[2]</text><text fill="#000000" font-family="sans-serif" font-size="11" lengthAdjust="spacing" textLength="105" x="223.5" y="648.6245">__public method__</text><ellipse cx="214.5" cy="658.2188" fill="#84BE84" rx="3" ry="3" style="stroke:#038048;stroke-width:1.0;"/><text fill="#000000" font-family="sans-serif" font-size="11" lengthAdjust="spacing" textLength="279" x="223.5" y="661.4292">setData(dimensions: int[2], strings: String[..]):void</text><ellipse cx="214.5" cy="671.0234" fill="#84BE84" rx="3" ry="3" style="stroke:#038048;stroke-width:1.0;"/><text fill="#000000" font-family="sans-serif" font-size="11" lengthAdjust="spacing" textLength="72" x="223.5" y="674.2339">show() : void</text><ellipse cx="214.5" cy="683.8281" fill="#84BE84" rx="3" ry="3" style="stroke:#038048;stroke-width:1.0;"/><text fill="#000000" font-family="sans-serif" font-size="11" lengthAdjust="spacing" textLength="94" x="223.5" y="687.0386">calculate() : void</text><rect fill="#F24D5C" height="6" style="stroke:#C82930;stroke-width:1.0;" width="6" x="211.5" y="710.4375"/><text fill="#000000" font-family="sans-serif" font-size="11" lengthAdjust="spacing" textLength="117" x="223.5" y="716.6479">loadPastRuns() : void</text><rect fill="#F24D5C" height="6" style="stroke:#C82930;stroke-width:1.0;" width="6" x="211.5" y="723.2422"/><text fill="#000000" font-family="sans-serif" font-size="11" lengthAdjust="spacing" textLength="98" x="223.5" y="729.4526">sendData() : void</text><line style="stroke:#A80036;stroke-width:1.5;" x1="204.5" x2="309" y1="700.0352" y2="700.0352"/><text fill="#000000" font-family="sans-serif" font-size="11" lengthAdjust="spacing" textLength="94" x="309" y="703.3433">private methods</text><line style="stroke:#A80036;stroke-width:1.5;" x1="403" x2="507.5" y1="700.0352" y2="700.0352"/><!--MD5=[a7f545f13df25b09c4dd936da65dfdd1]
class CodeChartsEingabefenster--><rect codeLine="97" fill="#FEFECE" filter="url(#f1kdiz6lb861bh)" height="124.8281" id="CodeChartsEingabefenster" style="stroke:#A80036;stroke-width:1.5;" width="234" x="552" y="588"/><ellipse cx="585.45" cy="604" fill="#ADD1B2" rx="11" ry="11" style="stroke:#A80036;stroke-width:1.0;"/><path d="M587.7938,599.6719 C586.8563,599.2344 586.2625,599.0938 585.3875,599.0938 C582.7625,599.0938 580.7625,601.1719 580.7625,603.8906 L580.7625,605.0156 C580.7625,607.5938 582.8719,609.4844 585.7625,609.4844 C586.9813,609.4844 588.1375,609.1875 588.8875,608.6406 C589.4656,608.2344 589.7938,607.7813 589.7938,607.3906 C589.7938,606.9375 589.4031,606.5469 588.9344,606.5469 C588.7156,606.5469 588.5125,606.625 588.325,606.8125 C587.8719,607.2969 587.8719,607.2969 587.6844,607.3906 C587.2625,607.6563 586.575,607.7813 585.8094,607.7813 C583.7625,607.7813 582.4656,606.6875 582.4656,604.9844 L582.4656,603.8906 C582.4656,602.1094 583.7156,600.7969 585.45,600.7969 C586.0281,600.7969 586.6375,600.9531 587.1063,601.2031 C587.5906,601.4844 587.7625,601.7031 587.8563,602.1094 C587.9188,602.5156 587.95,602.6406 588.0906,602.7656 C588.2313,602.9063 588.4656,603.0156 588.6844,603.0156 C588.95,603.0156 589.2156,602.875 589.3875,602.6563 C589.4969,602.5 589.5281,602.3125 589.5281,601.8906 L589.5281,600.4688 C589.5281,600.0313 589.5125,599.9063 589.4188,599.75 C589.2625,599.4844 588.9813,599.3438 588.6844,599.3438 C588.3875,599.3438 588.1844,599.4375 587.9656,599.75 L587.7938,599.6719 Z " fill="#000000"/><text fill="#000000" font-family="sans-serif" font-size="12" lengthAdjust="spacing" textLength="161" x="603.55" y="608.1543">CodeChartsEingabefenster</text><line style="stroke:#A80036;stroke-width:1.5;" x1="553" x2="785" y1="620" y2="620"/><ellipse cx="563" cy="647.8047" fill="#84BE84" rx="3" ry="3" style="stroke:#038048;stroke-width:1.0;"/><text fill="#000000" font-family="sans-serif" font-size="11" lengthAdjust="spacing" textLength="81" x="572" y="651.0151">show() : String</text><line style="stroke:#A80036;stroke-width:1.5;" x1="553" x2="628.5" y1="634.4023" y2="634.4023"/><text fill="#000000" font-family="sans-serif" font-size="11" lengthAdjust="spacing" textLength="81" x="628.5" y="637.7104">public method</text><line style="stroke:#A80036;stroke-width:1.5;" x1="709.5" x2="785" y1="634.4023" y2="634.4023"/><rect fill="#F24D5C" height="6" style="stroke:#C82930;stroke-width:1.0;" width="6" x="560" y="674.4141"/><text fill="#000000" font-family="sans-serif" font-size="11" lengthAdjust="spacing" textLength="135" x="572" y="680.6245">checkButton() : boolean</text><rect fill="#F24D5C" height="6" style="stroke:#C82930;stroke-width:1.0;" width="6" x="560" y="687.2188"/><text fill="#000000" font-family="sans-serif" font-size="11" lengthAdjust="spacing" textLength="208" x="572" y="693.4292">validateString(input: String): boolean</text><rect fill="#F24D5C" height="6" style="stroke:#C82930;stroke-width:1.0;" width="6" x="560" y="700.0234"/><text fill="#000000" font-family="sans-serif" font-size="11" lengthAdjust="spacing" textLength="120" x="572" y="706.2339">ErrorMessage() : void</text><line style="stroke:#A80036;stroke-width:1.5;" x1="553" x2="622" y1="664.0117" y2="664.0117"/><text fill="#000000" font-family="sans-serif" font-size="11" lengthAdjust="spacing" textLength="94" x="622" y="667.3198">private methods</text><line style="stroke:#A80036;stroke-width:1.5;" x1="716" x2="785" y1="664.0117" y2="664.0117"/><!--MD5=[005106f7353b739fdded6fabf948f2da]
class CodeChartsComputer::processInput--><rect fill="#FEFECE" filter="url(#f1kdiz6lb861bh)" height="48" id="CodeChartsComputer::processInput" style="stroke:#A80036;stroke-width:1.5;" width="248" x="338" y="179.5"/><ellipse cx="353" cy="195.5" fill="#ADD1B2" rx="11" ry="11" style="stroke:#A80036;stroke-width:1.0;"/><path d="M355.3438,191.1719 C354.4063,190.7344 353.8125,190.5938 352.9375,190.5938 C350.3125,190.5938 348.3125,192.6719 348.3125,195.3906 L348.3125,196.5156 C348.3125,199.0938 350.4219,200.9844 353.3125,200.9844 C354.5313,200.9844 355.6875,200.6875 356.4375,200.1406 C357.0156,199.7344 357.3438,199.2813 357.3438,198.8906 C357.3438,198.4375 356.9531,198.0469 356.4844,198.0469 C356.2656,198.0469 356.0625,198.125 355.875,198.3125 C355.4219,198.7969 355.4219,198.7969 355.2344,198.8906 C354.8125,199.1563 354.125,199.2813 353.3594,199.2813 C351.3125,199.2813 350.0156,198.1875 350.0156,196.4844 L350.0156,195.3906 C350.0156,193.6094 351.2656,192.2969 353,192.2969 C353.5781,192.2969 354.1875,192.4531 354.6563,192.7031 C355.1406,192.9844 355.3125,193.2031 355.4063,193.6094 C355.4688,194.0156 355.5,194.1406 355.6406,194.2656 C355.7813,194.4063 356.0156,194.5156 356.2344,194.5156 C356.5,194.5156 356.7656,194.375 356.9375,194.1563 C357.0469,194 357.0781,193.8125 357.0781,193.3906 L357.0781,191.9688 C357.0781,191.5313 357.0625,191.4063 356.9688,191.25 C356.8125,190.9844 356.5313,190.8438 356.2344,190.8438 C355.9375,190.8438 355.7344,190.9375 355.5156,191.25 L355.3438,191.1719 Z " fill="#000000"/><text fill="#000000" font-family="sans-serif" font-size="12" lengthAdjust="spacing" textLength="216" x="367" y="199.6543">CodeChartsComputer::processInput</text><line style="stroke:#A80036;stroke-width:1.5;" x1="339" x2="585" y1="211.5" y2="211.5"/><line style="stroke:#A80036;stroke-width:1.5;" x1="339" x2="585" y1="219.5" y2="219.5"/><polygon fill="#FFFFFF" filter="url(#f1kdiz6lb861bh)" points="1157,623.5,1215,623.5,1222,645.7969,1229,645.7969,1229,676.0938,1157,676.0938,1157,623.5" style="stroke:#000000;stroke-width:1.5;"/><line style="stroke:#000000;stroke-width:1.5;" x1="1157" x2="1222" y1="645.7969" y2="645.7969"/><text fill="#000000" font-family="sans-serif" font-size="14" font-weight="bold" lengthAdjust="spacing" textLength="52" x="1161" y="638.4951">Config</text><polygon fill="#FFFFFF" filter="url(#f1kdiz6lb861bh)" points="16,623.5,154,623.5,161,645.7969,168,645.7969,168,676.0938,16,676.0938,16,623.5" style="stroke:#000000;stroke-width:1.5;"/><line style="stroke:#000000;stroke-width:1.5;" x1="16" x2="161" y1="645.7969" y2="645.7969"/><text fill="#000000" font-family="sans-serif" font-size="14" font-weight="bold" lengthAdjust="spacing" textLength="132" x="20" y="638.4951">SpeicherMedium</text><!--MD5=[fccc419d627b37790932ddb688fb7ad6]
class Tutorial--><rect codeLine="6" fill="#FEFECE" filter="url(#f1kdiz6lb861bh)" height="167.2422" id="Tutorial" style="stroke:#A80036;stroke-width:1.5;" width="236" x="1246" y="313"/><ellipse cx="1291.75" cy="329" fill="#A9DCDF" rx="11" ry="11" style="stroke:#A80036;stroke-width:1.0;"/><path d="M1293.8281,330.8125 L1294.2188,331.7969 L1293.8281,331.7969 C1293.375,331.7969 1293.2656,331.8125 1293.1094,331.9219 C1292.8594,332.0781 1292.7031,332.3594 1292.7031,332.6563 C1292.7031,332.9219 1292.8438,333.1719 1293.0625,333.3281 C1293.2031,333.4531 1293.4063,333.5 1293.8281,333.5 L1296.1875,333.5 C1296.5469,333.5 1296.7656,333.4688 1296.9063,333.375 C1297.1563,333.2344 1297.3125,332.9375 1297.3125,332.6563 C1297.3125,332.375 1297.1719,332.125 1296.9531,331.9688 C1296.7813,331.8281 1296.625,331.7969 1296.1563,331.7969 L1292.7656,323.5938 L1289.0938,323.5938 C1288.6406,323.5938 1288.5156,323.6094 1288.3594,323.7031 C1288.1094,323.875 1287.9531,324.1563 1287.9531,324.4375 C1287.9531,324.7188 1288.0938,324.9688 1288.3125,325.1406 C1288.4844,325.25 1288.6563,325.2813 1289.0938,325.2813 L1290.1719,325.2813 L1287.5313,331.7969 C1287.1094,331.7969 1286.9531,331.8125 1286.7969,331.9219 C1286.5469,332.0781 1286.3906,332.3594 1286.3906,332.6563 C1286.3906,333.2188 1286.7656,333.5 1287.5156,333.5 L1289.7813,333.5 C1290.1406,333.5 1290.3594,333.4688 1290.4844,333.375 C1290.75,333.2344 1290.8906,332.9375 1290.8906,332.6563 C1290.8906,332.375 1290.7656,332.125 1290.5469,331.9531 C1290.375,331.8281 1290.2344,331.7969 1289.7813,331.7969 L1289.3906,331.7969 L1289.7813,330.8125 L1293.8281,330.8125 Z M1293.125,329.1094 L1290.4531,329.1094 L1291.7969,325.8438 L1293.125,329.1094 Z " fill="#000000"/><text fill="#000000" font-family="sans-serif" font-size="12" font-style="italic" lengthAdjust="spacing" textLength="45" x="1312.25" y="333.1543">Tutorial</text><rect fill="#FFFFFF" height="15.9688" style="stroke:#000000;stroke-width:1.0;stroke-dasharray:2.0,2.0;" width="89" x="1396" y="310"/><text fill="#000000" font-family="sans-serif" font-size="12" font-style="italic" lengthAdjust="spacing" textLength="87" x="1397" y="322.1387">t: TutorialType</text><line style="stroke:#A80036;stroke-width:1.5;" x1="1247" x2="1481" y1="345" y2="345"/><rect fill="none" height="6" style="stroke:#C82930;stroke-width:1.0;" width="6" x="1254" y="353"/><text fill="#000000" font-family="sans-serif" font-size="11" lengthAdjust="spacing" textLength="82" x="1266" y="359.2104">t: TutorialType</text><ellipse cx="1257" cy="385.6094" fill="#84BE84" rx="3" ry="3" style="stroke:#038048;stroke-width:1.0;"/><text fill="#000000" font-family="sans-serif" font-size="11" lengthAdjust="spacing" textLength="68" x="1266" y="388.8198">start() : void</text><line style="stroke:#A80036;stroke-width:1.5;" x1="1247" x2="1323.5" y1="372.207" y2="372.207"/><text fill="#000000" font-family="sans-serif" font-size="11" lengthAdjust="spacing" textLength="81" x="1323.5" y="375.5151">public method</text><line style="stroke:#A80036;stroke-width:1.5;" x1="1404.5" x2="1481" y1="372.207" y2="372.207"/><rect fill="#F24D5C" height="6" style="stroke:#C82930;stroke-width:1.0;" width="6" x="1254" y="412.2188"/><text fill="#000000" font-family="sans-serif" font-size="11" lengthAdjust="spacing" textLength="151" x="1266" y="418.4292">getConfigState() : boolean</text><rect fill="#F24D5C" height="6" style="stroke:#C82930;stroke-width:1.0;" width="6" x="1254" y="425.0234"/><text fill="#000000" font-family="sans-serif" font-size="11" lengthAdjust="spacing" textLength="210" x="1266" y="431.2339">setConfigState(state: boolean) : void</text><rect fill="#F24D5C" height="6" style="stroke:#C82930;stroke-width:1.0;" width="6" x="1254" y="437.8281"/><text fill="#000000" font-family="sans-serif" font-size="11" lengthAdjust="spacing" textLength="94" x="1266" y="444.0386">show() : boolean</text><line style="stroke:#A80036;stroke-width:1.5;" x1="1247" x2="1317" y1="401.8164" y2="401.8164"/><text fill="#000000" font-family="sans-serif" font-size="11" lengthAdjust="spacing" textLength="94" x="1317" y="405.1245">private methods</text><line style="stroke:#A80036;stroke-width:1.5;" x1="1411" x2="1481" y1="401.8164" y2="401.8164"/><rect fill="#F24D5C" height="6" style="stroke:#C82930;stroke-width:1.0;" width="6" x="1254" y="467.4375"/><text fill="#000000" font-family="sans-serif" font-size="11" font-style="italic" lengthAdjust="spacing" textLength="84" x="1266" y="473.6479">tutorial() : void</text><line style="stroke:#A80036;stroke-width:1.5;" x1="1247" x2="1314.5" y1="457.0352" y2="457.0352"/><text fill="#000000" font-family="sans-serif" font-size="11" lengthAdjust="spacing" textLength="99" x="1314.5" y="460.3433">abstract methods</text><line style="stroke:#A80036;stroke-width:1.5;" x1="1413.5" x2="1481" y1="457.0352" y2="457.0352"/><!--MD5=[b51717a605764d924c74fe29f3a07c77]
class TutorialType--><rect codeLine="18" fill="#FEFECE" filter="url(#f1kdiz6lb861bh)" height="86.4141" id="TutorialType" style="stroke:#A80036;stroke-width:1.5;" width="106" x="1097" y="353"/><ellipse cx="1112" cy="369" fill="#EB937F" rx="11" ry="11" style="stroke:#A80036;stroke-width:1.0;"/><path d="M1110.7969,369.875 L1112.25,369.875 L1112.25,369.9844 C1112.25,370.3906 1112.2813,370.5469 1112.3594,370.7031 C1112.5156,370.9531 1112.7969,371.1094 1113.0938,371.1094 C1113.3438,371.1094 1113.6094,370.9688 1113.7656,370.75 C1113.8906,370.5938 1113.9219,370.4375 1113.9219,369.9844 L1113.9219,368.0625 C1113.9219,367.9063 1113.9219,367.8594 1113.9063,367.7031 C1113.8438,367.2344 1113.5313,366.9219 1113.0781,366.9219 C1112.8281,366.9219 1112.5625,367.0625 1112.3906,367.2813 C1112.2813,367.4531 1112.25,367.6094 1112.25,368.0625 L1112.25,368.1875 L1110.7969,368.1875 L1110.7969,365.7813 L1114.7813,365.7813 L1114.7813,366.6406 C1114.7813,367.0469 1114.8125,367.2188 1114.8906,367.375 C1115.0625,367.625 1115.3438,367.7813 1115.625,367.7813 C1115.8906,367.7813 1116.1563,367.6406 1116.3281,367.4219 C1116.4375,367.25 1116.4688,367.1094 1116.4688,366.6406 L1116.4688,364.0938 L1108.8438,364.0938 C1108.4063,364.0938 1108.2813,364.1094 1108.125,364.2031 C1107.875,364.3594 1107.7188,364.6563 1107.7188,364.9375 C1107.7188,365.2188 1107.8594,365.4688 1108.0781,365.6406 C1108.2344,365.75 1108.4219,365.7813 1108.8438,365.7813 L1109.0938,365.7813 L1109.0938,372.2969 L1108.8438,372.2969 C1108.4375,372.2969 1108.2813,372.3125 1108.125,372.4219 C1107.875,372.5938 1107.7188,372.8594 1107.7188,373.1563 C1107.7188,373.4219 1107.8594,373.6719 1108.0781,373.8281 C1108.2188,373.9531 1108.4531,374 1108.8438,374 L1116.8438,374 L1116.8438,371.4219 C1116.8438,370.9844 1116.8125,370.8438 1116.7344,370.6875 C1116.5625,370.4375 1116.2813,370.2813 1116,370.2813 C1115.7344,370.2813 1115.4688,370.3906 1115.2969,370.6406 C1115.1875,370.7969 1115.1563,370.9375 1115.1563,371.4219 L1115.1563,372.2969 L1110.7969,372.2969 L1110.7969,369.875 Z " fill="#000000"/><text fill="#000000" font-family="sans-serif" font-size="12" lengthAdjust="spacing" textLength="74" x="1126" y="373.1543">TutorialType</text><line style="stroke:#A80036;stroke-width:1.5;" x1="1098" x2="1202" y1="385" y2="385"/><text fill="#000000" font-family="sans-serif" font-size="11" lengthAdjust="spacing" textLength="35" x="1103" y="399.2104">ZOOM</text><text fill="#000000" font-family="sans-serif" font-size="11" lengthAdjust="spacing" textLength="78" x="1103" y="412.0151">EYETRACKING</text><text fill="#000000" font-family="sans-serif" font-size="11" lengthAdjust="spacing" textLength="79" x="1103" y="424.8198">CODECHARTS</text><line style="stroke:#A80036;stroke-width:1.5;" x1="1098" x2="1202" y1="431.4141" y2="431.4141"/><!--MD5=[626b00d2609f42ba755c8afb6d5f2b59]
class Bild--><rect codeLine="31" fill="#FEFECE" filter="url(#f1kdiz6lb861bh)" height="73.6094" id="Bild" style="stroke:#A80036;stroke-width:1.5;" width="147" x="629.5" y="7"/><ellipse cx="687.75" cy="23" fill="#A9DCDF" rx="11" ry="11" style="stroke:#A80036;stroke-width:1.0;"/><path d="M689.8281,24.8125 L690.2188,25.7969 L689.8281,25.7969 C689.375,25.7969 689.2656,25.8125 689.1094,25.9219 C688.8594,26.0781 688.7031,26.3594 688.7031,26.6563 C688.7031,26.9219 688.8438,27.1719 689.0625,27.3281 C689.2031,27.4531 689.4063,27.5 689.8281,27.5 L692.1875,27.5 C692.5469,27.5 692.7656,27.4688 692.9063,27.375 C693.1563,27.2344 693.3125,26.9375 693.3125,26.6563 C693.3125,26.375 693.1719,26.125 692.9531,25.9688 C692.7813,25.8281 692.625,25.7969 692.1563,25.7969 L688.7656,17.5938 L685.0938,17.5938 C684.6406,17.5938 684.5156,17.6094 684.3594,17.7031 C684.1094,17.875 683.9531,18.1563 683.9531,18.4375 C683.9531,18.7188 684.0938,18.9688 684.3125,19.1406 C684.4844,19.25 684.6563,19.2813 685.0938,19.2813 L686.1719,19.2813 L683.5313,25.7969 C683.1094,25.7969 682.9531,25.8125 682.7969,25.9219 C682.5469,26.0781 682.3906,26.3594 682.3906,26.6563 C682.3906,27.2188 682.7656,27.5 683.5156,27.5 L685.7813,27.5 C686.1406,27.5 686.3594,27.4688 686.4844,27.375 C686.75,27.2344 686.8906,26.9375 686.8906,26.6563 C686.8906,26.375 686.7656,26.125 686.5469,25.9531 C686.375,25.8281 686.2344,25.7969 685.7813,25.7969 L685.3906,25.7969 L685.7813,24.8125 L689.8281,24.8125 Z M689.125,23.1094 L686.4531,23.1094 L687.7969,19.8438 L689.125,23.1094 Z " fill="#000000"/><text fill="#000000" font-family="sans-serif" font-size="12" font-style="italic" lengthAdjust="spacing" textLength="22" x="708.25" y="27.1543">Bild</text><line style="stroke:#A80036;stroke-width:1.5;" x1="630.5" x2="775.5" y1="39" y2="39"/><line style="stroke:#A80036;stroke-width:1.5;" x1="630.5" x2="775.5" y1="47" y2="47"/><ellipse cx="640.5" cy="58" fill="#84BE84" rx="3" ry="3" style="stroke:#038048;stroke-width:1.0;"/><text fill="#000000" font-family="sans-serif" font-size="11" lengthAdjust="spacing" textLength="121" x="649.5" y="61.2104">load(url: String) : void</text><ellipse cx="640.5" cy="70.8047" fill="#84BE84" rx="3" ry="3" style="stroke:#038048;stroke-width:1.0;"/><text fill="#000000" font-family="sans-serif" font-size="11" lengthAdjust="spacing" textLength="72" x="649.5" y="74.0151">show() : void</text><!--MD5=[9bdf74ba08b45b42d4b5e25d73cb2a49]
link TutorialType to Tutorial--><path codeLine="25" d="M1203,364.509 C1213.13,360.294 1224.02,356.959 1234.96,355.628 " fill="none" id="TutorialType-Tutorial" style="stroke:#A80036;stroke-width:1.0;"/><line style="stroke:#A80036;stroke-width:1.0;" x1="1234.96" x2="1245" y1="355.628" y2="355"/><!--MD5=[fc4ffdc4bb2ac5a3cd1bd4c856213de4]
link Tutorial to Config--><path codeLine="26" d="M1305.63,483.019 C1272.25,532.21 1232.72,590.471 1210.48,623.244 " fill="none" id="Tutorial-Config" style="stroke:#A80036;stroke-width:1.0;"/><!--MD5=[c900c8497a661fa4184b5bb04c49372f]
reverse link Bild to CodeChartsBild--><path codeLine="108" d="M703,101.334 C703,121.724 703,144.301 703,162.944 " fill="none" id="Bild-backto-CodeChartsBild" style="stroke:#A80036;stroke-width:1.0;"/><polygon fill="none" points="696,101.134,703,81.134,710,101.134,696,101.134" style="stroke:#A80036;stroke-width:1.0;"/><!--MD5=[1e1b7046ac2ce77f5695cfbd942bbe9e]
reverse link Tutorial to CodeChartsTutorial--><path codeLine="109" d="M1220.6,487.178 C1160.5,523.752 1109.42,554.07 1065.1,580.141 " fill="none" id="Tutorial-backto-CodeChartsTutorial" style="stroke:#A80036;stroke-width:1.0;"/><polygon fill="none" points="1217.08,481.131,1237.8,476.695,1224.36,493.084,1217.08,481.131" style="stroke:#A80036;stroke-width:1.0;"/><!--MD5=[7592e76a5922251d95dda2e7111cc48a]
link CodeChartsComputer::processInput to CodeChartsCoordinator--><path codeLine="112" d="M476.714,227.859 C488.981,247.332 507.285,276.39 525.207,304.841 " fill="none" id="CodeChartsComputer::processInput-CodeChartsCoordinator" style="stroke:#A80036;stroke-width:1.0;"/><!--MD5=[5c3543e83cbee30822361f601e2ef64c]
link CodeChartsBild to CodeChartsCoordinator--><path codeLine="113" d="M677.634,244.435 C666.408,262.11 652.712,283.673 639.232,304.895 " fill="none" id="CodeChartsBild-CodeChartsCoordinator" style="stroke:#A80036;stroke-width:1.0;"/><!--MD5=[af7fa7eefc847a19c654188e611c6a01]
link CodeChartsCoordinator to CodeChartsRaster--><path codeLine="114" d="M501.047,487.266 C478.629,512.263 454.376,539.306 432.236,563.993 " fill="none" id="CodeChartsCoordinator-CodeChartsRaster" style="stroke:#A80036;stroke-width:1.0;"/><!--MD5=[acd6e22bd1b43ca41d1e169d29f8f975]
link CodeChartsCoordinator to CodeChartsEingabefenster--><path codeLine="115" d="M613.163,487.266 C624.182,519.184 636.353,554.436 646.511,583.861 " fill="none" id="CodeChartsCoordinator-CodeChartsEingabefenster" style="stroke:#A80036;stroke-width:1.0;"/><!--MD5=[352d2a78a40821fe66095c41811c6ec4]
link CodeChartsCoordinator to CodeChartsInternerSpeicher--><path codeLine="116" d="M679.119,396 C690.678,396 702.237,396 713.797,396 " fill="none" id="CodeChartsCoordinator-CodeChartsInternerSpeicher" style="stroke:#A80036;stroke-width:1.0;"/><!--MD5=[45be10fb9057243d989f7112dab584ae]
link CodeChartsCoordinator to CodeChartsTutorial--><path codeLine="117" d="M672,473 C674.462,473 755.325,524.887 828.724,572.316 " fill="none" id="CodeChartsCoordinator-CodeChartsTutorial" style="stroke:#A80036;stroke-width:1.0;"/><!--MD5=[98ba0babc1f2c9ceb0957566289f4661]
link CodeChartsInternerSpeicher to SpeicherMedium--><path codeLine="120" d="M721,433 C694.553,433 717.155,471.128 696,487 C512.987,624.31 394.002,466.543 187,564 C157.566,577.858 130.611,603.827 112.9933,623.43 " fill="none" id="CodeChartsInternerSpeicher-SpeicherMedium" style="stroke:#A80036;stroke-width:1.0;"/><polygon fill="#000000" points="643.2286,527.0608,652.7386,527.162,650.9818,521.5528,643.2286,527.0608" style="stroke:#000000;stroke-width:1.0;"/><text fill="#000000" font-family="sans-serif" font-size="13" lengthAdjust="spacing" textLength="73" x="657" y="530.0669">saves Data</text><!--MD5=[ba0b6aad62bad149f99973f5ab313e4e]
link CodeChartsCoordinator to Config--><path codeLine="121" d="M672,351 C702.689,351 674.547,465.054 696,487 C726.495,518.196 1041.23,546.08 1081,564 C1113.27,578.539 1144.92,603.877 1166.29,623.117 " fill="none" id="CodeChartsCoordinator-Config" style="stroke:#A80036;stroke-width:1.0;"/><polygon fill="#000000" points="906.6199,523.1551,913.1262,530.0918,915.9609,524.9427,906.6199,523.1551" style="stroke:#000000;stroke-width:1.0;"/><text fill="#000000" font-family="sans-serif" font-size="13" lengthAdjust="spacing" textLength="39" x="920" y="530.0669">speed</text><!--MD5=[1725f61353ec76340acc3bd336339760]
@startuml
' skinparam backgroundColor transparent
'() System #DA70D5
top to bottom direction

' - - - TUTORIAL - - -
abstract Tutorial<t: TutorialType> {
  - t: TutorialType
  __public method__
  + start() : void
  __private methods__
  - getConfigState() : boolean
  - setConfigState(state: boolean) : void
  - show() : boolean
  __abstract methods__
  - {abstract} tutorial() : void
}

enum TutorialType {
  ZOOM
  EYETRACKING
  CODECHARTS
}

' Interaktionen
Tutorial::t -l- TutorialType
Tutorial -d- Config


' - - - BILD - - -

abstract Bild {
  + load(url: String) : void
  + show() : void
}

' === CODE CHARTS ===
package CodeCharts {

    ' CodeCharts Tutorial 
    class CodeChartsTutorial {
      - t: TutorialType
      __public method__
      + start() : void
      __private methods__
      - getConfigState() : boolean
      - setConfigState(state: boolean) : void
      - show() : boolean
      __abstract methods__
      - {abstract} tutorial() : void
    }
  
    ' CodeCharts Coordinator
    class CodeChartsCoordinator {
        - speed: float[2]
        - isTutorial: boolean
        - isRelative: boolean
        - dimensions: int[2]
        - strings: String[..]
        __public method__
        + startCodeCharts() : void
        __private methods__
        - loadConfigData() : boolean
        - tryTutorial() : void
    }

    ' CodeCharts Interner Speicher
    class CodeChartsInternerSpeicher {
        __public method__
        + addPic(pic: unknown) : void
        + addSizeAndKord(size: int[2], coordinates: int[2]) : void
        + saveData() : boolean
    }

    ' CodeCharts Bild
    class CodeChartsBild {
        ' Unsicher ob es sinnvoll ist das Bild vorzuladen
        + load(url: String) : void
        + show() : void
    }

    ' CodeCharts Raster
    class CodeChartsRaster {
        ' Unsicher ob es sinnvoll ist alle vorherigen Durchläufe auf einmal zu laden
        - dimensions: int[2]
        - strings: String[..]
        - kords: int[2]
        __public method__ 
        + setData(dimensions: int[2], strings: String[..]):void
        + show() : void
        + calculate() : void
        __private methods__
        - loadPastRuns() : void
        - sendData() : void
    }

    ' CodeCharts Eingabefenster
    class CodeChartsEingabefenster {
        __public method__
        + show() : String
        __private methods__
        - checkButton() : boolean
        - validateString(input: String): boolean
        - ErrorMessage() : void
    }


    ' Vererbungen
    Bild <|-d- CodeChartsBild
    Tutorial <|-d- CodeChartsTutorial

    ' Interaktionen
    CodeChartsCoordinator -u- CodeChartsComputer::processInput
    CodeChartsCoordinator -u- CodeChartsBild::processInput
    CodeChartsCoordinator - - CodeChartsRaster
    CodeChartsCoordinator -d- CodeChartsEingabefenster::processInput
    CodeChartsInternerSpeicher::processInput -l- CodeChartsCoordinator
    CodeChartsCoordinator::tryTutorial - - CodeChartsTutorial

    ' Andere Module
    CodeChartsInternerSpeicher::save -d- SpeicherMedium : > saves Data
    CodeChartsCoordinator::speed -d- Config : < speed
  
}

' Blackboxen / Andere Module
package Config {}

package SpeicherMedium {}
@enduml

@startuml
top to bottom direction

abstract Tutorial<t: TutorialType> {
  - t: TutorialType
  __public method__
  + start() : void
  __private methods__
  - getConfigState() : boolean
  - setConfigState(state: boolean) : void
  - show() : boolean
  __abstract methods__
  - {abstract} tutorial() : void
}

enum TutorialType {
  ZOOM
  EYETRACKING
  CODECHARTS
}

Tutorial::t -l- TutorialType
Tutorial -d- Config



abstract Bild {
  + load(url: String) : void
  + show() : void
}

package CodeCharts {

    class CodeChartsTutorial {
      - t: TutorialType
      __public method__
      + start() : void
      __private methods__
      - getConfigState() : boolean
      - setConfigState(state: boolean) : void
      - show() : boolean
      __abstract methods__
      - {abstract} tutorial() : void
    }
  
    class CodeChartsCoordinator {
        - speed: float[2]
        - isTutorial: boolean
        - isRelative: boolean
        - dimensions: int[2]
        - strings: String[..]
        __public method__
        + startCodeCharts() : void
        __private methods__
        - loadConfigData() : boolean
        - tryTutorial() : void
    }

    class CodeChartsInternerSpeicher {
        __public method__
        + addPic(pic: unknown) : void
        + addSizeAndKord(size: int[2], coordinates: int[2]) : void
        + saveData() : boolean
    }

    class CodeChartsBild {
        + load(url: String) : void
        + show() : void
    }

    class CodeChartsRaster {
        - dimensions: int[2]
        - strings: String[..]
        - kords: int[2]
        __public method__ 
        + setData(dimensions: int[2], strings: String[..]):void
        + show() : void
        + calculate() : void
        __private methods__
        - loadPastRuns() : void
        - sendData() : void
    }

    class CodeChartsEingabefenster {
        __public method__
        + show() : String
        __private methods__
        - checkButton() : boolean
        - validateString(input: String): boolean
        - ErrorMessage() : void
    }


    Bild <|-d- CodeChartsBild
    Tutorial <|-d- CodeChartsTutorial

    CodeChartsCoordinator -u- CodeChartsComputer::processInput
    CodeChartsCoordinator -u- CodeChartsBild::processInput
    CodeChartsCoordinator - - CodeChartsRaster
    CodeChartsCoordinator -d- CodeChartsEingabefenster::processInput
    CodeChartsInternerSpeicher::processInput -l- CodeChartsCoordinator
    CodeChartsCoordinator::tryTutorial - - CodeChartsTutorial

    CodeChartsInternerSpeicher::save -d- SpeicherMedium : > saves Data
    CodeChartsCoordinator::speed -d- Config : < speed
  
}

package Config {}

package SpeicherMedium {}
@enduml

PlantUML version 1.2021.13beta8(Unknown compile time)
(GPL source distribution)
Java Runtime: Java(TM) SE Runtime Environment
JVM: Java HotSpot(TM) 64-Bit Server VM
Default Encoding: UTF-8
Language: en
Country: US
--></g></svg>