<?xml version="1.0" encoding="UTF-8" standalone="no"?><svg xmlns="http://www.w3.org/2000/svg" xmlns:xlink="http://www.w3.org/1999/xlink" contentScriptType="application/ecmascript" contentStyleType="text/css" height="564px" preserveAspectRatio="none" style="width:2237px;height:564px;background:#FFFFFF;" version="1.1" viewBox="0 0 2237 564" width="2237px" zoomAndPan="magnify"><defs><filter height="300%" id="f1gqcvqcdu803n" width="300%" x="-1" y="-1"><feGaussianBlur result="blurOut" stdDeviation="2.0"/><feColorMatrix in="blurOut" result="blurOut2" type="matrix" values="0 0 0 0 0 0 0 0 0 0 0 0 0 0 0 0 0 0 .4 0"/><feOffset dx="4.0" dy="4.0" in="blurOut2" result="blurOut3"/><feBlend in="SourceGraphic" in2="blurOut3" mode="normal"/></filter></defs><g><!--MD5=[77140a42179fe8241cde5d77dd05aadc]
cluster config--><polygon fill="#FFFFFF" filter="url(#f1gqcvqcdu803n)" points="16,6,73,6,80,28.2969,1666,28.2969,1666,557,16,557,16,6" style="stroke:#000000;stroke-width:1.5;"/><line style="stroke:#000000;stroke-width:1.5;" x1="16" x2="80" y1="28.2969" y2="28.2969"/><text fill="#000000" font-family="sans-serif" font-size="14" font-weight="bold" lengthAdjust="spacing" textLength="51" x="20" y="20.9951">config</text><polygon fill="#FFFFFF" filter="url(#f1gqcvqcdu803n)" points="1685.5,323.5,1780.5,323.5,1787.5,345.7969,1794.5,345.7969,1794.5,376.0938,1685.5,376.0938,1685.5,323.5" style="stroke:#000000;stroke-width:1.5;"/><line style="stroke:#000000;stroke-width:1.5;" x1="1685.5" x2="1787.5" y1="345.7969" y2="345.7969"/><text fill="#000000" font-family="sans-serif" font-size="14" font-weight="bold" lengthAdjust="spacing" textLength="89" x="1689.5" y="338.4951">ZoomMaps</text><polygon fill="#FFFFFF" filter="url(#f1gqcvqcdu803n)" points="1829.5,323.5,1928.5,323.5,1935.5,345.7969,1942.5,345.7969,1942.5,376.0938,1829.5,376.0938,1829.5,323.5" style="stroke:#000000;stroke-width:1.5;"/><line style="stroke:#000000;stroke-width:1.5;" x1="1829.5" x2="1935.5" y1="345.7969" y2="345.7969"/><text fill="#000000" font-family="sans-serif" font-size="14" font-weight="bold" lengthAdjust="spacing" textLength="93" x="1833.5" y="338.4951">CodeCharts</text><polygon fill="#FFFFFF" filter="url(#f1gqcvqcdu803n)" points="1978,323.5,2082,323.5,2089,345.7969,2096,345.7969,2096,376.0938,1978,376.0938,1978,323.5" style="stroke:#000000;stroke-width:1.5;"/><line style="stroke:#000000;stroke-width:1.5;" x1="1978" x2="2089" y1="345.7969" y2="345.7969"/><text fill="#000000" font-family="sans-serif" font-size="14" font-weight="bold" lengthAdjust="spacing" textLength="98" x="1982" y="338.4951">EyeTracking</text><polygon fill="#FFFFFF" filter="url(#f1gqcvqcdu803n)" points="2131.5,323.5,2206.5,323.5,2213.5,345.7969,2220.5,345.7969,2220.5,376.0938,2131.5,376.0938,2131.5,323.5" style="stroke:#000000;stroke-width:1.5;"/><line style="stroke:#000000;stroke-width:1.5;" x1="2131.5" x2="2213.5" y1="345.7969" y2="345.7969"/><text fill="#000000" font-family="sans-serif" font-size="14" font-weight="bold" lengthAdjust="spacing" textLength="69" x="2135.5" y="338.4951">Speicher</text><!--MD5=[8e3d87abfe748ce01856f8098191fe29]
class ConfigClient--><rect codeLine="13" fill="#FEFECE" filter="url(#f1gqcvqcdu803n)" height="176.0469" id="ConfigClient" style="stroke:#A80036;stroke-width:1.5;" width="336" x="1314" y="41"/><ellipse cx="1442.25" cy="57" fill="#ADD1B2" rx="11" ry="11" style="stroke:#A80036;stroke-width:1.0;"/><path d="M1444.5938,52.6719 C1443.6563,52.2344 1443.0625,52.0938 1442.1875,52.0938 C1439.5625,52.0938 1437.5625,54.1719 1437.5625,56.8906 L1437.5625,58.0156 C1437.5625,60.5938 1439.6719,62.4844 1442.5625,62.4844 C1443.7813,62.4844 1444.9375,62.1875 1445.6875,61.6406 C1446.2656,61.2344 1446.5938,60.7813 1446.5938,60.3906 C1446.5938,59.9375 1446.2031,59.5469 1445.7344,59.5469 C1445.5156,59.5469 1445.3125,59.625 1445.125,59.8125 C1444.6719,60.2969 1444.6719,60.2969 1444.4844,60.3906 C1444.0625,60.6563 1443.375,60.7813 1442.6094,60.7813 C1440.5625,60.7813 1439.2656,59.6875 1439.2656,57.9844 L1439.2656,56.8906 C1439.2656,55.1094 1440.5156,53.7969 1442.25,53.7969 C1442.8281,53.7969 1443.4375,53.9531 1443.9063,54.2031 C1444.3906,54.4844 1444.5625,54.7031 1444.6563,55.1094 C1444.7188,55.5156 1444.75,55.6406 1444.8906,55.7656 C1445.0313,55.9063 1445.2656,56.0156 1445.4844,56.0156 C1445.75,56.0156 1446.0156,55.875 1446.1875,55.6563 C1446.2969,55.5 1446.3281,55.3125 1446.3281,54.8906 L1446.3281,53.4688 C1446.3281,53.0313 1446.3125,52.9063 1446.2188,52.75 C1446.0625,52.4844 1445.7813,52.3438 1445.4844,52.3438 C1445.1875,52.3438 1444.9844,52.4375 1444.7656,52.75 L1444.5938,52.6719 Z " fill="#000000"/><text fill="#000000" font-family="sans-serif" font-size="12" lengthAdjust="spacing" textLength="71" x="1462.75" y="61.1543">ConfigClient</text><line style="stroke:#A80036;stroke-width:1.5;" x1="1315" x2="1649" y1="73" y2="73"/><polygon fill="none" points="1325,79,1329,83,1325,87,1321,83" style="stroke:#B38D22;stroke-width:1.0;"/><text fill="#000000" font-family="sans-serif" font-size="11" lengthAdjust="spacing" textLength="159" x="1334" y="87.2104">configuration : Configuration</text><line style="stroke:#A80036;stroke-width:1.5;" x1="1315" x2="1649" y1="93.8047" y2="93.8047"/><ellipse cx="1325" cy="104.8047" fill="#84BE84" rx="3" ry="3" style="stroke:#038048;stroke-width:1.0;"/><text fill="#000000" font-family="sans-serif" font-size="11" lengthAdjust="spacing" textLength="149" x="1334" y="108.0151">getConfig() : Configuration</text><ellipse cx="1325" cy="117.6094" fill="#84BE84" rx="3" ry="3" style="stroke:#038048;stroke-width:1.0;"/><text fill="#000000" font-family="sans-serif" font-size="11" lengthAdjust="spacing" textLength="276" x="1334" y="120.8198">getString(category: String, option: String) : String</text><ellipse cx="1325" cy="130.4141" fill="#84BE84" rx="3" ry="3" style="stroke:#038048;stroke-width:1.0;"/><text fill="#000000" font-family="sans-serif" font-size="11" lengthAdjust="spacing" textLength="238" x="1334" y="133.6245">getInt(category: String, option: String) : int</text><ellipse cx="1325" cy="143.2188" fill="#84BE84" rx="3" ry="3" style="stroke:#038048;stroke-width:1.0;"/><text fill="#000000" font-family="sans-serif" font-size="11" lengthAdjust="spacing" textLength="262" x="1334" y="146.4292">getFloat(category: String, option: String) : float</text><ellipse cx="1325" cy="156.0234" fill="#84BE84" rx="3" ry="3" style="stroke:#038048;stroke-width:1.0;"/><text fill="#000000" font-family="sans-serif" font-size="11" lengthAdjust="spacing" textLength="281" x="1334" y="159.2339">getBool(category: String, option: String) : boolean</text><ellipse cx="1325" cy="168.8281" fill="#84BE84" rx="3" ry="3" style="stroke:#038048;stroke-width:1.0;"/><text fill="#000000" font-family="sans-serif" font-size="11" lengthAdjust="spacing" textLength="310" x="1334" y="172.0386">setString(category: String, option: String, value: String)</text><ellipse cx="1325" cy="181.6328" fill="#84BE84" rx="3" ry="3" style="stroke:#038048;stroke-width:1.0;"/><text fill="#000000" font-family="sans-serif" font-size="11" lengthAdjust="spacing" textLength="272" x="1334" y="184.8433">setInt(category: String, option: String, value: Int)</text><ellipse cx="1325" cy="194.4375" fill="#84BE84" rx="3" ry="3" style="stroke:#038048;stroke-width:1.0;"/><text fill="#000000" font-family="sans-serif" font-size="11" lengthAdjust="spacing" textLength="296" x="1334" y="197.6479">setFloat(category: String, option: String, value: float)</text><ellipse cx="1325" cy="207.2422" fill="#84BE84" rx="3" ry="3" style="stroke:#038048;stroke-width:1.0;"/><text fill="#000000" font-family="sans-serif" font-size="11" lengthAdjust="spacing" textLength="223" x="1334" y="210.4526">setBool(category: String, option: String)</text><!--MD5=[300820d20048966bb67ace7c5b50e9bc]
class ConfigLoader--><rect codeLine="26" fill="#FEFECE" filter="url(#f1gqcvqcdu803n)" height="60.8047" id="ConfigLoader" style="stroke:#A80036;stroke-width:1.5;" width="303" x="871.5" y="319.5"/><ellipse cx="978.75" cy="335.5" fill="#ADD1B2" rx="11" ry="11" style="stroke:#A80036;stroke-width:1.0;"/><path d="M981.0938,331.1719 C980.1563,330.7344 979.5625,330.5938 978.6875,330.5938 C976.0625,330.5938 974.0625,332.6719 974.0625,335.3906 L974.0625,336.5156 C974.0625,339.0938 976.1719,340.9844 979.0625,340.9844 C980.2813,340.9844 981.4375,340.6875 982.1875,340.1406 C982.7656,339.7344 983.0938,339.2813 983.0938,338.8906 C983.0938,338.4375 982.7031,338.0469 982.2344,338.0469 C982.0156,338.0469 981.8125,338.125 981.625,338.3125 C981.1719,338.7969 981.1719,338.7969 980.9844,338.8906 C980.5625,339.1563 979.875,339.2813 979.1094,339.2813 C977.0625,339.2813 975.7656,338.1875 975.7656,336.4844 L975.7656,335.3906 C975.7656,333.6094 977.0156,332.2969 978.75,332.2969 C979.3281,332.2969 979.9375,332.4531 980.4063,332.7031 C980.8906,332.9844 981.0625,333.2031 981.1563,333.6094 C981.2188,334.0156 981.25,334.1406 981.3906,334.2656 C981.5313,334.4063 981.7656,334.5156 981.9844,334.5156 C982.25,334.5156 982.5156,334.375 982.6875,334.1563 C982.7969,334 982.8281,333.8125 982.8281,333.3906 L982.8281,331.9688 C982.8281,331.5313 982.8125,331.4063 982.7188,331.25 C982.5625,330.9844 982.2813,330.8438 981.9844,330.8438 C981.6875,330.8438 981.4844,330.9375 981.2656,331.25 L981.0938,331.1719 Z " fill="#000000"/><text fill="#000000" font-family="sans-serif" font-size="12" lengthAdjust="spacing" textLength="80" x="999.25" y="339.6543">ConfigLoader</text><line style="stroke:#A80036;stroke-width:1.5;" x1="872.5" x2="1173.5" y1="351.5" y2="351.5"/><line style="stroke:#A80036;stroke-width:1.5;" x1="872.5" x2="1173.5" y1="359.5" y2="359.5"/><ellipse cx="882.5" cy="370.5" fill="#84BE84" rx="3" ry="3" style="stroke:#038048;stroke-width:1.0;"/><text fill="#000000" font-family="sans-serif" font-size="11" lengthAdjust="spacing" textLength="277" x="891.5" y="373.7104">loadConfiguration(location: String) : Configuration</text><!--MD5=[ea2d2f788233cf0092663a6aa40f7dcc]
class ConfigWriter--><rect codeLine="30" fill="#FEFECE" filter="url(#f1gqcvqcdu803n)" height="60.8047" id="ConfigWriter" style="stroke:#A80036;stroke-width:1.5;" width="440" x="1210" y="319.5"/><ellipse cx="1388.25" cy="335.5" fill="#ADD1B2" rx="11" ry="11" style="stroke:#A80036;stroke-width:1.0;"/><path d="M1390.5938,331.1719 C1389.6563,330.7344 1389.0625,330.5938 1388.1875,330.5938 C1385.5625,330.5938 1383.5625,332.6719 1383.5625,335.3906 L1383.5625,336.5156 C1383.5625,339.0938 1385.6719,340.9844 1388.5625,340.9844 C1389.7813,340.9844 1390.9375,340.6875 1391.6875,340.1406 C1392.2656,339.7344 1392.5938,339.2813 1392.5938,338.8906 C1392.5938,338.4375 1392.2031,338.0469 1391.7344,338.0469 C1391.5156,338.0469 1391.3125,338.125 1391.125,338.3125 C1390.6719,338.7969 1390.6719,338.7969 1390.4844,338.8906 C1390.0625,339.1563 1389.375,339.2813 1388.6094,339.2813 C1386.5625,339.2813 1385.2656,338.1875 1385.2656,336.4844 L1385.2656,335.3906 C1385.2656,333.6094 1386.5156,332.2969 1388.25,332.2969 C1388.8281,332.2969 1389.4375,332.4531 1389.9063,332.7031 C1390.3906,332.9844 1390.5625,333.2031 1390.6563,333.6094 C1390.7188,334.0156 1390.75,334.1406 1390.8906,334.2656 C1391.0313,334.4063 1391.2656,334.5156 1391.4844,334.5156 C1391.75,334.5156 1392.0156,334.375 1392.1875,334.1563 C1392.2969,334 1392.3281,333.8125 1392.3281,333.3906 L1392.3281,331.9688 C1392.3281,331.5313 1392.3125,331.4063 1392.2188,331.25 C1392.0625,330.9844 1391.7813,330.8438 1391.4844,330.8438 C1391.1875,330.8438 1390.9844,330.9375 1390.7656,331.25 L1390.5938,331.1719 Z " fill="#000000"/><text fill="#000000" font-family="sans-serif" font-size="12" lengthAdjust="spacing" textLength="75" x="1408.75" y="339.6543">ConfigWriter</text><line style="stroke:#A80036;stroke-width:1.5;" x1="1211" x2="1649" y1="351.5" y2="351.5"/><line style="stroke:#A80036;stroke-width:1.5;" x1="1211" x2="1649" y1="359.5" y2="359.5"/><ellipse cx="1221" cy="370.5" fill="#84BE84" rx="3" ry="3" style="stroke:#038048;stroke-width:1.0;"/><text fill="#000000" font-family="sans-serif" font-size="11" lengthAdjust="spacing" textLength="414" x="1230" y="373.7104">writeConfiguration(location: String, configuration: Configuration) : boolean</text><!--MD5=[5b16d89af642fada17b07b2764009d9a]
class ConfigGUI--><rect codeLine="34" fill="#FEFECE" filter="url(#f1gqcvqcdu803n)" height="73.6094" id="ConfigGUI" style="stroke:#A80036;stroke-width:1.5;" width="216" x="849" y="92"/><ellipse cx="923.25" cy="108" fill="#ADD1B2" rx="11" ry="11" style="stroke:#A80036;stroke-width:1.0;"/><path d="M925.5938,103.6719 C924.6563,103.2344 924.0625,103.0938 923.1875,103.0938 C920.5625,103.0938 918.5625,105.1719 918.5625,107.8906 L918.5625,109.0156 C918.5625,111.5938 920.6719,113.4844 923.5625,113.4844 C924.7813,113.4844 925.9375,113.1875 926.6875,112.6406 C927.2656,112.2344 927.5938,111.7813 927.5938,111.3906 C927.5938,110.9375 927.2031,110.5469 926.7344,110.5469 C926.5156,110.5469 926.3125,110.625 926.125,110.8125 C925.6719,111.2969 925.6719,111.2969 925.4844,111.3906 C925.0625,111.6563 924.375,111.7813 923.6094,111.7813 C921.5625,111.7813 920.2656,110.6875 920.2656,108.9844 L920.2656,107.8906 C920.2656,106.1094 921.5156,104.7969 923.25,104.7969 C923.8281,104.7969 924.4375,104.9531 924.9063,105.2031 C925.3906,105.4844 925.5625,105.7031 925.6563,106.1094 C925.7188,106.5156 925.75,106.6406 925.8906,106.7656 C926.0313,106.9063 926.2656,107.0156 926.4844,107.0156 C926.75,107.0156 927.0156,106.875 927.1875,106.6563 C927.2969,106.5 927.3281,106.3125 927.3281,105.8906 L927.3281,104.4688 C927.3281,104.0313 927.3125,103.9063 927.2188,103.75 C927.0625,103.4844 926.7813,103.3438 926.4844,103.3438 C926.1875,103.3438 925.9844,103.4375 925.7656,103.75 L925.5938,103.6719 Z " fill="#000000"/><text fill="#000000" font-family="sans-serif" font-size="12" lengthAdjust="spacing" textLength="59" x="943.75" y="112.1543">ConfigGUI</text><line style="stroke:#A80036;stroke-width:1.5;" x1="850" x2="1064" y1="124" y2="124"/><rect fill="none" height="6" style="stroke:#C82930;stroke-width:1.0;" width="6" x="857" y="132"/><text fill="#000000" font-family="sans-serif" font-size="11" lengthAdjust="spacing" textLength="190" x="869" y="138.2104">configuration_state: Configuration</text><line style="stroke:#A80036;stroke-width:1.5;" x1="850" x2="1064" y1="144.8047" y2="144.8047"/><ellipse cx="860" cy="155.8047" fill="#84BE84" rx="3" ry="3" style="stroke:#038048;stroke-width:1.0;"/><text fill="#000000" font-family="sans-serif" font-size="11" lengthAdjust="spacing" textLength="104" x="869" y="159.0151">showEditor() : void</text><!--MD5=[9b7eb76f801c309757ef5968cb2349d9]
class Configuration--><rect codeLine="39" fill="#FEFECE" filter="url(#f1gqcvqcdu803n)" height="99.2188" id="Configuration" style="stroke:#A80036;stroke-width:1.5;" width="247" x="274.5" y="79.5"/><ellipse cx="354.25" cy="95.5" fill="#ADD1B2" rx="11" ry="11" style="stroke:#A80036;stroke-width:1.0;"/><path d="M356.5938,91.1719 C355.6563,90.7344 355.0625,90.5938 354.1875,90.5938 C351.5625,90.5938 349.5625,92.6719 349.5625,95.3906 L349.5625,96.5156 C349.5625,99.0938 351.6719,100.9844 354.5625,100.9844 C355.7813,100.9844 356.9375,100.6875 357.6875,100.1406 C358.2656,99.7344 358.5938,99.2813 358.5938,98.8906 C358.5938,98.4375 358.2031,98.0469 357.7344,98.0469 C357.5156,98.0469 357.3125,98.125 357.125,98.3125 C356.6719,98.7969 356.6719,98.7969 356.4844,98.8906 C356.0625,99.1563 355.375,99.2813 354.6094,99.2813 C352.5625,99.2813 351.2656,98.1875 351.2656,96.4844 L351.2656,95.3906 C351.2656,93.6094 352.5156,92.2969 354.25,92.2969 C354.8281,92.2969 355.4375,92.4531 355.9063,92.7031 C356.3906,92.9844 356.5625,93.2031 356.6563,93.6094 C356.7188,94.0156 356.75,94.1406 356.8906,94.2656 C357.0313,94.4063 357.2656,94.5156 357.4844,94.5156 C357.75,94.5156 358.0156,94.375 358.1875,94.1563 C358.2969,94 358.3281,93.8125 358.3281,93.3906 L358.3281,91.9688 C358.3281,91.5313 358.3125,91.4063 358.2188,91.25 C358.0625,90.9844 357.7813,90.8438 357.4844,90.8438 C357.1875,90.8438 356.9844,90.9375 356.7656,91.25 L356.5938,91.1719 Z " fill="#000000"/><text fill="#000000" font-family="sans-serif" font-size="12" lengthAdjust="spacing" textLength="79" x="374.75" y="99.6543">Configuration</text><line style="stroke:#A80036;stroke-width:1.5;" x1="275.5" x2="520.5" y1="111.5" y2="111.5"/><ellipse cx="285.5" cy="122.5" rx="3" ry="3" style="stroke:#038048;stroke-width:1.0;fill:none;"/><text fill="#000000" font-family="sans-serif" font-size="11" lengthAdjust="spacing" textLength="172" x="294.5" y="125.7104">general: GeneralConfiguration</text><ellipse cx="285.5" cy="135.3047" rx="3" ry="3" style="stroke:#038048;stroke-width:1.0;fill:none;"/><text fill="#000000" font-family="sans-serif" font-size="11" lengthAdjust="spacing" textLength="213" x="294.5" y="138.5151">zoom_maps: ZoomMapsConfiguration</text><ellipse cx="285.5" cy="148.1094" rx="3" ry="3" style="stroke:#038048;stroke-width:1.0;fill:none;"/><text fill="#000000" font-family="sans-serif" font-size="11" lengthAdjust="spacing" textLength="216" x="294.5" y="151.3198">code_charts: CodeChartsConfiguration</text><ellipse cx="285.5" cy="160.9141" rx="3" ry="3" style="stroke:#038048;stroke-width:1.0;fill:none;"/><text fill="#000000" font-family="sans-serif" font-size="11" lengthAdjust="spacing" textLength="221" x="294.5" y="164.1245">eye_tracking: EyetrackingConfiguration</text><line style="stroke:#A80036;stroke-width:1.5;" x1="275.5" x2="520.5" y1="170.7188" y2="170.7188"/><!--MD5=[db873fc2485e00d042bea25029027919]
class GeneralConfiguration--><rect codeLine="45" fill="#FEFECE" filter="url(#f1gqcvqcdu803n)" height="73.6094" id="GeneralConfiguration" style="stroke:#A80036;stroke-width:1.5;" width="158" x="32" y="313"/><ellipse cx="47" cy="329" fill="#ADD1B2" rx="11" ry="11" style="stroke:#A80036;stroke-width:1.0;"/><path d="M49.3438,324.6719 C48.4063,324.2344 47.8125,324.0938 46.9375,324.0938 C44.3125,324.0938 42.3125,326.1719 42.3125,328.8906 L42.3125,330.0156 C42.3125,332.5938 44.4219,334.4844 47.3125,334.4844 C48.5313,334.4844 49.6875,334.1875 50.4375,333.6406 C51.0156,333.2344 51.3438,332.7813 51.3438,332.3906 C51.3438,331.9375 50.9531,331.5469 50.4844,331.5469 C50.2656,331.5469 50.0625,331.625 49.875,331.8125 C49.4219,332.2969 49.4219,332.2969 49.2344,332.3906 C48.8125,332.6563 48.125,332.7813 47.3594,332.7813 C45.3125,332.7813 44.0156,331.6875 44.0156,329.9844 L44.0156,328.8906 C44.0156,327.1094 45.2656,325.7969 47,325.7969 C47.5781,325.7969 48.1875,325.9531 48.6563,326.2031 C49.1406,326.4844 49.3125,326.7031 49.4063,327.1094 C49.4688,327.5156 49.5,327.6406 49.6406,327.7656 C49.7813,327.9063 50.0156,328.0156 50.2344,328.0156 C50.5,328.0156 50.7656,327.875 50.9375,327.6563 C51.0469,327.5 51.0781,327.3125 51.0781,326.8906 L51.0781,325.4688 C51.0781,325.0313 51.0625,324.9063 50.9688,324.75 C50.8125,324.4844 50.5313,324.3438 50.2344,324.3438 C49.9375,324.3438 49.7344,324.4375 49.5156,324.75 L49.3438,324.6719 Z " fill="#000000"/><text fill="#000000" font-family="sans-serif" font-size="12" lengthAdjust="spacing" textLength="126" x="61" y="333.1543">GeneralConfiguration</text><line style="stroke:#A80036;stroke-width:1.5;" x1="33" x2="189" y1="345" y2="345"/><ellipse cx="43" cy="356" rx="3" ry="3" style="stroke:#038048;stroke-width:1.0;fill:none;"/><text fill="#000000" font-family="sans-serif" font-size="11" lengthAdjust="spacing" textLength="125" x="52" y="359.2104">tools : ToolTypes[0..3]</text><ellipse cx="43" cy="368.8047" rx="3" ry="3" style="stroke:#038048;stroke-width:1.0;fill:none;"/><text fill="#000000" font-family="sans-serif" font-size="11" lengthAdjust="spacing" textLength="122" x="52" y="372.0151">save_location : String</text><line style="stroke:#A80036;stroke-width:1.5;" x1="33" x2="189" y1="378.6094" y2="378.6094"/><!--MD5=[c32c59d693be21f893977656ad129d83]
class ZoomMapsConfiguration--><rect codeLine="49" fill="#FEFECE" filter="url(#f1gqcvqcdu803n)" height="86.4141" id="ZoomMapsConfiguration" style="stroke:#A80036;stroke-width:1.5;" width="179" x="225.5" y="307"/><ellipse cx="240.5" cy="323" fill="#ADD1B2" rx="11" ry="11" style="stroke:#A80036;stroke-width:1.0;"/><path d="M242.8438,318.6719 C241.9063,318.2344 241.3125,318.0938 240.4375,318.0938 C237.8125,318.0938 235.8125,320.1719 235.8125,322.8906 L235.8125,324.0156 C235.8125,326.5938 237.9219,328.4844 240.8125,328.4844 C242.0313,328.4844 243.1875,328.1875 243.9375,327.6406 C244.5156,327.2344 244.8438,326.7813 244.8438,326.3906 C244.8438,325.9375 244.4531,325.5469 243.9844,325.5469 C243.7656,325.5469 243.5625,325.625 243.375,325.8125 C242.9219,326.2969 242.9219,326.2969 242.7344,326.3906 C242.3125,326.6563 241.625,326.7813 240.8594,326.7813 C238.8125,326.7813 237.5156,325.6875 237.5156,323.9844 L237.5156,322.8906 C237.5156,321.1094 238.7656,319.7969 240.5,319.7969 C241.0781,319.7969 241.6875,319.9531 242.1563,320.2031 C242.6406,320.4844 242.8125,320.7031 242.9063,321.1094 C242.9688,321.5156 243,321.6406 243.1406,321.7656 C243.2813,321.9063 243.5156,322.0156 243.7344,322.0156 C244,322.0156 244.2656,321.875 244.4375,321.6563 C244.5469,321.5 244.5781,321.3125 244.5781,320.8906 L244.5781,319.4688 C244.5781,319.0313 244.5625,318.9063 244.4688,318.75 C244.3125,318.4844 244.0313,318.3438 243.7344,318.3438 C243.4375,318.3438 243.2344,318.4375 243.0156,318.75 L242.8438,318.6719 Z " fill="#000000"/><text fill="#000000" font-family="sans-serif" font-size="12" lengthAdjust="spacing" textLength="147" x="254.5" y="327.1543">ZoomMapsConfiguration</text><line style="stroke:#A80036;stroke-width:1.5;" x1="226.5" x2="403.5" y1="339" y2="339"/><ellipse cx="236.5" cy="350" rx="3" ry="3" style="stroke:#038048;stroke-width:1.0;fill:none;"/><text fill="#000000" font-family="sans-serif" font-size="11" lengthAdjust="spacing" textLength="100" x="245.5" y="353.2104">image_url : String</text><ellipse cx="236.5" cy="362.8047" rx="3" ry="3" style="stroke:#038048;stroke-width:1.0;fill:none;"/><text fill="#000000" font-family="sans-serif" font-size="11" lengthAdjust="spacing" textLength="96" x="245.5" y="366.0151">tutorial : boolean</text><ellipse cx="236.5" cy="375.6094" rx="3" ry="3" style="stroke:#038048;stroke-width:1.0;fill:none;"/><text fill="#000000" font-family="sans-serif" font-size="11" lengthAdjust="spacing" textLength="72" x="245.5" y="378.8198">speed : float</text><line style="stroke:#A80036;stroke-width:1.5;" x1="226.5" x2="403.5" y1="385.4141" y2="385.4141"/><!--MD5=[06cce87b24e55b796d64d2ac3d5e4e56]
class CodeChartsConfiguration--><rect codeLine="54" fill="#FEFECE" filter="url(#f1gqcvqcdu803n)" height="112.0234" id="CodeChartsConfiguration" style="stroke:#A80036;stroke-width:1.5;" width="181" x="439.5" y="294"/><ellipse cx="454.5" cy="310" fill="#ADD1B2" rx="11" ry="11" style="stroke:#A80036;stroke-width:1.0;"/><path d="M456.8438,305.6719 C455.9063,305.2344 455.3125,305.0938 454.4375,305.0938 C451.8125,305.0938 449.8125,307.1719 449.8125,309.8906 L449.8125,311.0156 C449.8125,313.5938 451.9219,315.4844 454.8125,315.4844 C456.0313,315.4844 457.1875,315.1875 457.9375,314.6406 C458.5156,314.2344 458.8438,313.7813 458.8438,313.3906 C458.8438,312.9375 458.4531,312.5469 457.9844,312.5469 C457.7656,312.5469 457.5625,312.625 457.375,312.8125 C456.9219,313.2969 456.9219,313.2969 456.7344,313.3906 C456.3125,313.6563 455.625,313.7813 454.8594,313.7813 C452.8125,313.7813 451.5156,312.6875 451.5156,310.9844 L451.5156,309.8906 C451.5156,308.1094 452.7656,306.7969 454.5,306.7969 C455.0781,306.7969 455.6875,306.9531 456.1563,307.2031 C456.6406,307.4844 456.8125,307.7031 456.9063,308.1094 C456.9688,308.5156 457,308.6406 457.1406,308.7656 C457.2813,308.9063 457.5156,309.0156 457.7344,309.0156 C458,309.0156 458.2656,308.875 458.4375,308.6563 C458.5469,308.5 458.5781,308.3125 458.5781,307.8906 L458.5781,306.4688 C458.5781,306.0313 458.5625,305.9063 458.4688,305.75 C458.3125,305.4844 458.0313,305.3438 457.7344,305.3438 C457.4375,305.3438 457.2344,305.4375 457.0156,305.75 L456.8438,305.6719 Z " fill="#000000"/><text fill="#000000" font-family="sans-serif" font-size="12" lengthAdjust="spacing" textLength="149" x="468.5" y="314.1543">CodeChartsConfiguration</text><line style="stroke:#A80036;stroke-width:1.5;" x1="440.5" x2="619.5" y1="326" y2="326"/><ellipse cx="450.5" cy="337" rx="3" ry="3" style="stroke:#038048;stroke-width:1.0;fill:none;"/><text fill="#000000" font-family="sans-serif" font-size="11" lengthAdjust="spacing" textLength="100" x="459.5" y="340.2104">image_url : String</text><ellipse cx="450.5" cy="349.8047" rx="3" ry="3" style="stroke:#038048;stroke-width:1.0;fill:none;"/><text fill="#000000" font-family="sans-serif" font-size="11" lengthAdjust="spacing" textLength="96" x="459.5" y="353.0151">tutorial : boolean</text><ellipse cx="450.5" cy="362.6094" rx="3" ry="3" style="stroke:#038048;stroke-width:1.0;fill:none;"/><text fill="#000000" font-family="sans-serif" font-size="11" lengthAdjust="spacing" textLength="95" x="459.5" y="365.8198">strings : String[*]</text><ellipse cx="450.5" cy="375.4141" rx="3" ry="3" style="stroke:#038048;stroke-width:1.0;fill:none;"/><text fill="#000000" font-family="sans-serif" font-size="11" lengthAdjust="spacing" textLength="96" x="459.5" y="378.6245">initial_size : float</text><ellipse cx="450.5" cy="388.2188" rx="3" ry="3" style="stroke:#038048;stroke-width:1.0;fill:none;"/><text fill="#000000" font-family="sans-serif" font-size="11" lengthAdjust="spacing" textLength="92" x="459.5" y="391.4292">timings : float[2]</text><line style="stroke:#A80036;stroke-width:1.5;" x1="440.5" x2="619.5" y1="398.0234" y2="398.0234"/><!--MD5=[bd8aff8153f9e2acdb3b91c1d91a59e4]
class EyetrackingConfiguration--><rect codeLine="61" fill="#FEFECE" filter="url(#f1gqcvqcdu803n)" height="73.6094" id="EyetrackingConfiguration" style="stroke:#A80036;stroke-width:1.5;" width="181" x="655.5" y="313"/><ellipse cx="670.5" cy="329" fill="#ADD1B2" rx="11" ry="11" style="stroke:#A80036;stroke-width:1.0;"/><path d="M672.8438,324.6719 C671.9063,324.2344 671.3125,324.0938 670.4375,324.0938 C667.8125,324.0938 665.8125,326.1719 665.8125,328.8906 L665.8125,330.0156 C665.8125,332.5938 667.9219,334.4844 670.8125,334.4844 C672.0313,334.4844 673.1875,334.1875 673.9375,333.6406 C674.5156,333.2344 674.8438,332.7813 674.8438,332.3906 C674.8438,331.9375 674.4531,331.5469 673.9844,331.5469 C673.7656,331.5469 673.5625,331.625 673.375,331.8125 C672.9219,332.2969 672.9219,332.2969 672.7344,332.3906 C672.3125,332.6563 671.625,332.7813 670.8594,332.7813 C668.8125,332.7813 667.5156,331.6875 667.5156,329.9844 L667.5156,328.8906 C667.5156,327.1094 668.7656,325.7969 670.5,325.7969 C671.0781,325.7969 671.6875,325.9531 672.1563,326.2031 C672.6406,326.4844 672.8125,326.7031 672.9063,327.1094 C672.9688,327.5156 673,327.6406 673.1406,327.7656 C673.2813,327.9063 673.5156,328.0156 673.7344,328.0156 C674,328.0156 674.2656,327.875 674.4375,327.6563 C674.5469,327.5 674.5781,327.3125 674.5781,326.8906 L674.5781,325.4688 C674.5781,325.0313 674.5625,324.9063 674.4688,324.75 C674.3125,324.4844 674.0313,324.3438 673.7344,324.3438 C673.4375,324.3438 673.2344,324.4375 673.0156,324.75 L672.8438,324.6719 Z " fill="#000000"/><text fill="#000000" font-family="sans-serif" font-size="12" lengthAdjust="spacing" textLength="149" x="684.5" y="333.1543">EyetrackingConfiguration</text><line style="stroke:#A80036;stroke-width:1.5;" x1="656.5" x2="835.5" y1="345" y2="345"/><ellipse cx="666.5" cy="356" rx="3" ry="3" style="stroke:#038048;stroke-width:1.0;fill:none;"/><text fill="#000000" font-family="sans-serif" font-size="11" lengthAdjust="spacing" textLength="100" x="675.5" y="359.2104">image_url : String</text><ellipse cx="666.5" cy="368.8047" rx="3" ry="3" style="stroke:#038048;stroke-width:1.0;fill:none;"/><text fill="#000000" font-family="sans-serif" font-size="11" lengthAdjust="spacing" textLength="96" x="675.5" y="372.0151">tutorial : boolean</text><line style="stroke:#A80036;stroke-width:1.5;" x1="656.5" x2="835.5" y1="378.6094" y2="378.6094"/><!--MD5=[afe9d53419fee3992c281b7cd4c026d6]
class ToolConfiguration--><rect codeLine="65" fill="#FEFECE" filter="url(#f1gqcvqcdu803n)" height="73.6094" id="ToolConfiguration" style="stroke:#A80036;stroke-width:1.5;" width="137" x="461.5" y="467"/><ellipse cx="476.5" cy="483" fill="#A9DCDF" rx="11" ry="11" style="stroke:#A80036;stroke-width:1.0;"/><path d="M478.5781,484.8125 L478.9688,485.7969 L478.5781,485.7969 C478.125,485.7969 478.0156,485.8125 477.8594,485.9219 C477.6094,486.0781 477.4531,486.3594 477.4531,486.6563 C477.4531,486.9219 477.5938,487.1719 477.8125,487.3281 C477.9531,487.4531 478.1563,487.5 478.5781,487.5 L480.9375,487.5 C481.2969,487.5 481.5156,487.4688 481.6563,487.375 C481.9063,487.2344 482.0625,486.9375 482.0625,486.6563 C482.0625,486.375 481.9219,486.125 481.7031,485.9688 C481.5313,485.8281 481.375,485.7969 480.9063,485.7969 L477.5156,477.5938 L473.8438,477.5938 C473.3906,477.5938 473.2656,477.6094 473.1094,477.7031 C472.8594,477.875 472.7031,478.1563 472.7031,478.4375 C472.7031,478.7188 472.8438,478.9688 473.0625,479.1406 C473.2344,479.25 473.4063,479.2813 473.8438,479.2813 L474.9219,479.2813 L472.2813,485.7969 C471.8594,485.7969 471.7031,485.8125 471.5469,485.9219 C471.2969,486.0781 471.1406,486.3594 471.1406,486.6563 C471.1406,487.2188 471.5156,487.5 472.2656,487.5 L474.5313,487.5 C474.8906,487.5 475.1094,487.4688 475.2344,487.375 C475.5,487.2344 475.6406,486.9375 475.6406,486.6563 C475.6406,486.375 475.5156,486.125 475.2969,485.9531 C475.125,485.8281 474.9844,485.7969 474.5313,485.7969 L474.1406,485.7969 L474.5313,484.8125 L478.5781,484.8125 Z M477.875,483.1094 L475.2031,483.1094 L476.5469,479.8438 L477.875,483.1094 Z " fill="#000000"/><text fill="#000000" font-family="sans-serif" font-size="12" font-style="italic" lengthAdjust="spacing" textLength="105" x="490.5" y="487.1543">ToolConfiguration</text><line style="stroke:#A80036;stroke-width:1.5;" x1="462.5" x2="597.5" y1="499" y2="499"/><ellipse cx="472.5" cy="510" rx="3" ry="3" style="stroke:#038048;stroke-width:1.0;fill:none;"/><text fill="#000000" font-family="sans-serif" font-size="11" font-style="italic" lengthAdjust="spacing" textLength="101" x="481.5" y="513.2104">image_url : String</text><ellipse cx="472.5" cy="522.8047" rx="3" ry="3" style="stroke:#038048;stroke-width:1.0;fill:none;"/><text fill="#000000" font-family="sans-serif" font-size="11" font-style="italic" lengthAdjust="spacing" textLength="97" x="481.5" y="526.0151">tutorial : boolean</text><line style="stroke:#A80036;stroke-width:1.5;" x1="462.5" x2="597.5" y1="532.6094" y2="532.6094"/><!--MD5=[83f6cc0cda8a5fd2b3ad61f2b75cbd1b]
class ToolTypes--><rect codeLine="1" fill="#FEFECE" filter="url(#f1gqcvqcdu803n)" height="86.4141" id="ToolTypes" style="stroke:#A80036;stroke-width:1.5;" width="95" x="1685.5" y="86"/><ellipse cx="1700.5" cy="102" fill="#EB937F" rx="11" ry="11" style="stroke:#A80036;stroke-width:1.0;"/><path d="M1699.2969,102.875 L1700.75,102.875 L1700.75,102.9844 C1700.75,103.3906 1700.7813,103.5469 1700.8594,103.7031 C1701.0156,103.9531 1701.2969,104.1094 1701.5938,104.1094 C1701.8438,104.1094 1702.1094,103.9688 1702.2656,103.75 C1702.3906,103.5938 1702.4219,103.4375 1702.4219,102.9844 L1702.4219,101.0625 C1702.4219,100.9063 1702.4219,100.8594 1702.4063,100.7031 C1702.3438,100.2344 1702.0313,99.9219 1701.5781,99.9219 C1701.3281,99.9219 1701.0625,100.0625 1700.8906,100.2813 C1700.7813,100.4531 1700.75,100.6094 1700.75,101.0625 L1700.75,101.1875 L1699.2969,101.1875 L1699.2969,98.7813 L1703.2813,98.7813 L1703.2813,99.6406 C1703.2813,100.0469 1703.3125,100.2188 1703.3906,100.375 C1703.5625,100.625 1703.8438,100.7813 1704.125,100.7813 C1704.3906,100.7813 1704.6563,100.6406 1704.8281,100.4219 C1704.9375,100.25 1704.9688,100.1094 1704.9688,99.6406 L1704.9688,97.0938 L1697.3438,97.0938 C1696.9063,97.0938 1696.7813,97.1094 1696.625,97.2031 C1696.375,97.3594 1696.2188,97.6563 1696.2188,97.9375 C1696.2188,98.2188 1696.3594,98.4688 1696.5781,98.6406 C1696.7344,98.75 1696.9219,98.7813 1697.3438,98.7813 L1697.5938,98.7813 L1697.5938,105.2969 L1697.3438,105.2969 C1696.9375,105.2969 1696.7813,105.3125 1696.625,105.4219 C1696.375,105.5938 1696.2188,105.8594 1696.2188,106.1563 C1696.2188,106.4219 1696.3594,106.6719 1696.5781,106.8281 C1696.7188,106.9531 1696.9531,107 1697.3438,107 L1705.3438,107 L1705.3438,104.4219 C1705.3438,103.9844 1705.3125,103.8438 1705.2344,103.6875 C1705.0625,103.4375 1704.7813,103.2813 1704.5,103.2813 C1704.2344,103.2813 1703.9688,103.3906 1703.7969,103.6406 C1703.6875,103.7969 1703.6563,103.9375 1703.6563,104.4219 L1703.6563,105.2969 L1699.2969,105.2969 L1699.2969,102.875 Z " fill="#000000"/><text fill="#000000" font-family="sans-serif" font-size="12" lengthAdjust="spacing" textLength="63" x="1714.5" y="106.1543">ToolTypes</text><line style="stroke:#A80036;stroke-width:1.5;" x1="1686.5" x2="1779.5" y1="118" y2="118"/><text fill="#000000" font-family="sans-serif" font-size="11" lengthAdjust="spacing" textLength="66" x="1691.5" y="132.2104">ZOOMMAPS</text><text fill="#000000" font-family="sans-serif" font-size="11" lengthAdjust="spacing" textLength="79" x="1691.5" y="145.0151">CODECHARTS</text><text fill="#000000" font-family="sans-serif" font-size="11" lengthAdjust="spacing" textLength="78" x="1691.5" y="157.8198">EYETRACKING</text><line style="stroke:#A80036;stroke-width:1.5;" x1="1686.5" x2="1779.5" y1="164.4141" y2="164.4141"/><!--MD5=[9eb2263ee2866d3d651c6028e701c926]
reverse link ConfigClient to ConfigLoader--><path codeLine="72" d="M1301.93,215.917 C1225.1,252.571 1140.53,292.926 1084.87,319.479 " fill="none" id="ConfigClient-backto-ConfigLoader" style="stroke:#A80036;stroke-width:1.0;"/><polygon fill="#FFFFFF" points="1313.69,210.304,1306.5522,209.2786,1302.8603,215.4729,1309.9981,216.4984,1313.69,210.304" style="stroke:#A80036;stroke-width:1.0;"/><polygon fill="#000000" points="1234.5127,253.4133,1225.0836,254.6558,1227.6147,259.9608,1234.5127,253.4133" style="stroke:#000000;stroke-width:1.0;"/><text fill="#000000" font-family="sans-serif" font-size="13" lengthAdjust="spacing" textLength="113" x="1239" y="260.0669">lädt Konfiguration</text><!--MD5=[0f8a66dc06f30b4b6f63041c29f86134]
reverse link ConfigClient to ConfigWriter--><path codeLine="75" d="M1458.24,230.045 C1450.52,262.559 1442.54,296.193 1437.04,319.365 " fill="none" id="ConfigClient-backto-ConfigWriter" style="stroke:#A80036;stroke-width:1.0;"/><polygon fill="#FFFFFF" points="1461.3,217.184,1456.0218,222.0973,1458.527,228.8592,1463.8052,223.9459,1461.3,217.184" style="stroke:#A80036;stroke-width:1.0;"/><polygon fill="#000000" points="1458.1547,250.7016,1453.2064,258.8235,1458.9253,260.1808,1458.1547,250.7016" style="stroke:#000000;stroke-width:1.0;"/><text fill="#000000" font-family="sans-serif" font-size="13" lengthAdjust="spacing" textLength="140" x="1466" y="260.0669">schreibt Konfiguration</text><!--MD5=[537a60be944f490558b0b187c1aa214a]
link ConfigGUI to ConfigClient--><path codeLine="78" d="M1065.14,129 C1135.27,129 1228.19,129 1308.5,129 " fill="none" id="ConfigGUI-to-ConfigClient" style="stroke:#A80036;stroke-width:1.0;"/><polygon fill="#A80036" points="1313.77,129,1304.77,125,1308.77,129,1304.77,133,1313.77,129" style="stroke:#A80036;stroke-width:1.0;"/><polygon fill="#000000" points="1092.5,117.5664,1083.4549,114.6275,1083.4549,120.5053,1092.5,117.5664" style="stroke:#000000;stroke-width:1.0;"/><text fill="#000000" font-family="sans-serif" font-size="13" lengthAdjust="spacing" textLength="199" x="1096.5" y="122.0669">graphische Benutzeroberfläche</text><!--MD5=[dfff62fa75b72e0d67b74a0567b8b59a]
link Configuration to GeneralConfiguration--><path codeLine="80" d="M334.305,178.603 C282.584,218.07 210.581,273.013 162.463,309.73 " fill="none" id="Configuration-to-GeneralConfiguration" style="stroke:#A80036;stroke-width:1.0;stroke-dasharray:7.0,7.0;"/><polygon fill="#A80036" points="158.463,312.783,168.0447,310.5046,162.4384,309.7504,163.1926,304.1441,158.463,312.783" style="stroke:#A80036;stroke-width:1.0;"/><!--MD5=[696ef16380d08b622154f6b16caffa65]
link Configuration to ZoomMapsConfiguration--><path codeLine="81" d="M379.58,178.603 C365.639,215.386 346.604,265.611 332.814,301.996 " fill="none" id="Configuration-to-ZoomMapsConfiguration" style="stroke:#A80036;stroke-width:1.0;stroke-dasharray:7.0,7.0;"/><polygon fill="#A80036" points="330.989,306.811,337.92,299.8137,332.7617,302.1358,330.4396,296.9775,330.989,306.811" style="stroke:#A80036;stroke-width:1.0;"/><!--MD5=[13859a0532335e82db533fae8d5a7156]
link Configuration to CodeChartsConfiguration--><path codeLine="82" d="M427.295,178.603 C446.994,211.286 473.09,254.58 494.047,289.35 " fill="none" id="Configuration-to-CodeChartsConfiguration" style="stroke:#A80036;stroke-width:1.0;stroke-dasharray:7.0,7.0;"/><polygon fill="#A80036" points="496.837,293.98,495.6169,284.207,494.2559,289.6977,488.7652,288.3367,496.837,293.98" style="stroke:#A80036;stroke-width:1.0;"/><!--MD5=[384cd599c7160702497c7f4ba6273d5b]
link Configuration to EyetrackingConfiguration--><path codeLine="83" d="M475.232,178.603 C538.171,218.211 625.876,273.405 684.221,310.122 " fill="none" id="Configuration-to-EyetrackingConfiguration" style="stroke:#A80036;stroke-width:1.0;stroke-dasharray:7.0,7.0;"/><polygon fill="#A80036" points="688.721,312.954,683.233,304.7759,684.4888,310.2916,678.9731,311.5474,688.721,312.954" style="stroke:#A80036;stroke-width:1.0;"/><!--MD5=[e1a00d399c63d13b5ba8cf93a913bbc6]
link ZoomMapsConfiguration to ToolConfiguration--><path codeLine="85" d="M374.604,393.139 C401.901,412.437 434.378,435.398 462.566,455.326 " fill="none" id="ZoomMapsConfiguration-to-ToolConfiguration" style="stroke:#A80036;stroke-width:1.0;"/><polygon fill="none" points="466.745,449.708,479.035,466.969,458.663,461.139,466.745,449.708" style="stroke:#A80036;stroke-width:1.0;"/><!--MD5=[e43d181bf247fc9037e6677b5cfd12ed]
link CodeChartsConfiguration to ToolConfiguration--><path codeLine="86" d="M530,406.305 C530,419.405 530,433.393 530,446.544 " fill="none" id="CodeChartsConfiguration-to-ToolConfiguration" style="stroke:#A80036;stroke-width:1.0;"/><polygon fill="none" points="537,446.919,530,466.919,523,446.919,537,446.919" style="stroke:#A80036;stroke-width:1.0;"/><!--MD5=[0bb34211a206bd95311a5e2ca5502244]
link EyetrackingConfiguration to ToolConfiguration--><path codeLine="87" d="M694.811,387.022 C665.864,407.392 629.305,433.118 597.979,455.163 " fill="none" id="EyetrackingConfiguration-to-ToolConfiguration" style="stroke:#A80036;stroke-width:1.0;"/><polygon fill="none" points="601.58,461.188,581.195,466.974,593.523,449.739,601.58,461.188" style="stroke:#A80036;stroke-width:1.0;"/><!--MD5=[eddfdf53f3fb9fb066844f2777207310]
link ConfigClient to ZoomMaps--><path codeLine="89" d="M1584.71,217.184 C1629.68,255.354 1679.1,297.302 1709.84,323.396 " fill="none" id="ConfigClient-ZoomMaps" style="stroke:#A80036;stroke-width:1.0;"/><!--MD5=[1a0e30a01e0643e5c0dad6f96d29353e]
link ConfigClient to CodeCharts--><path codeLine="90" d="M1650.11,210.158 C1715.37,241.987 1781.66,275.393 1812,294 C1826.33,302.788 1841.35,313.619 1854.09,323.34 " fill="none" id="ConfigClient-CodeCharts" style="stroke:#A80036;stroke-width:1.0;"/><!--MD5=[df16767b60433af21d1fca2dc4300a59]
link ConfigClient to EyeTracking--><path codeLine="91" d="M1650.24,210.301 C1656.2,212.633 1662.13,214.874 1668,217 C1794.18,262.728 1838.51,236.95 1960,294 C1976.36,301.681 1992.87,312.916 2006.39,323.233 " fill="none" id="ConfigClient-EyeTracking" style="stroke:#A80036;stroke-width:1.0;"/><!--MD5=[64b5ecc53042c38d3f6eafbed84ef4a2]
link ConfigClient to Speicher--><path codeLine="92" d="M1650.23,211.184 C1656.18,213.256 1662.12,215.205 1668,217 C1860.39,275.725 1933.25,205.726 2114,294 C2128.61,301.135 2142.4,312.688 2153.25,323.367 " fill="none" id="ConfigClient-Speicher" style="stroke:#A80036;stroke-width:1.0;"/><!--MD5=[a480cacdfbc9564d796a1a8534551a2a]
@startuml
enum ToolTypes {
  ZOOMMAPS
  CODECHARTS
  EYETRACKING
}

package ZoomMaps {}
package CodeCharts {}
package EyeTracking {}
package Speicher {}

package config {
  class ConfigClient {
    # configuration : Configuration
    + getConfig() : Configuration
    + getString(category: String, option: String) : String
    + getInt(category: String, option: String) : int
    + getFloat(category: String, option: String) : float
    + getBool(category: String, option: String) : boolean
    + setString(category: String, option: String, value: String)
    + setInt(category: String, option: String, value: Int)
    + setFloat(category: String, option: String, value: float)
    + setBool(category: String, option: String)
  }

  class ConfigLoader {
    + loadConfiguration(location: String) : Configuration
  }

  class ConfigWriter {
    + writeConfiguration(location: String, configuration: Configuration) : boolean
  }

  class ConfigGUI {
    - configuration_state: Configuration
    + showEditor() : void
  }

  class Configuration {
    + general: GeneralConfiguration
    + zoom_maps: ZoomMapsConfiguration
    + code_charts: CodeChartsConfiguration
    + eye_tracking: EyetrackingConfiguration
  }
  class GeneralConfiguration {
    + tools : ToolTypes[0..3]
    + save_location : String
  }
  class ZoomMapsConfiguration {
    + image_url : String
    + tutorial : boolean
    + speed : float
  }
  class CodeChartsConfiguration {
    + image_url : String
    + tutorial : boolean
    + strings : String[*]
    + initial_size : float
    + timings : float[2]
  }
  class EyetrackingConfiguration {
    + image_url : String
    + tutorial : boolean
  }
  abstract ToolConfiguration {
    + {abstract} image_url : String
    + {abstract} tutorial : boolean
  }

  ' ConfigClient ..> Configuration

  ConfigClient o- - ConfigLoader : < lädt Konfiguration
  ' ConfigLoader ..> Configuration

  ConfigClient o- - ConfigWriter : < schreibt Konfiguration
  ' ConfigWriter ..> Configuration

  ConfigClient <-l- ConfigGUI : < graphische Benutzeroberfläche

  Configuration ..> GeneralConfiguration
  Configuration ..> ZoomMapsConfiguration
  Configuration ..> CodeChartsConfiguration
  Configuration ..> EyetrackingConfiguration

  ZoomMapsConfiguration - -|> ToolConfiguration
  CodeChartsConfiguration - -|> ToolConfiguration
  EyetrackingConfiguration - -|> ToolConfiguration
}
ConfigClient - - ZoomMaps
ConfigClient - - CodeCharts
ConfigClient - - EyeTracking
ConfigClient - - Speicher
@enduml

@startuml
enum ToolTypes {
  ZOOMMAPS
  CODECHARTS
  EYETRACKING
}

package ZoomMaps {}
package CodeCharts {}
package EyeTracking {}
package Speicher {}

package config {
  class ConfigClient {
    # configuration : Configuration
    + getConfig() : Configuration
    + getString(category: String, option: String) : String
    + getInt(category: String, option: String) : int
    + getFloat(category: String, option: String) : float
    + getBool(category: String, option: String) : boolean
    + setString(category: String, option: String, value: String)
    + setInt(category: String, option: String, value: Int)
    + setFloat(category: String, option: String, value: float)
    + setBool(category: String, option: String)
  }

  class ConfigLoader {
    + loadConfiguration(location: String) : Configuration
  }

  class ConfigWriter {
    + writeConfiguration(location: String, configuration: Configuration) : boolean
  }

  class ConfigGUI {
    - configuration_state: Configuration
    + showEditor() : void
  }

  class Configuration {
    + general: GeneralConfiguration
    + zoom_maps: ZoomMapsConfiguration
    + code_charts: CodeChartsConfiguration
    + eye_tracking: EyetrackingConfiguration
  }
  class GeneralConfiguration {
    + tools : ToolTypes[0..3]
    + save_location : String
  }
  class ZoomMapsConfiguration {
    + image_url : String
    + tutorial : boolean
    + speed : float
  }
  class CodeChartsConfiguration {
    + image_url : String
    + tutorial : boolean
    + strings : String[*]
    + initial_size : float
    + timings : float[2]
  }
  class EyetrackingConfiguration {
    + image_url : String
    + tutorial : boolean
  }
  abstract ToolConfiguration {
    + {abstract} image_url : String
    + {abstract} tutorial : boolean
  }


  ConfigClient o- - ConfigLoader : < lädt Konfiguration

  ConfigClient o- - ConfigWriter : < schreibt Konfiguration

  ConfigClient <-l- ConfigGUI : < graphische Benutzeroberfläche

  Configuration ..> GeneralConfiguration
  Configuration ..> ZoomMapsConfiguration
  Configuration ..> CodeChartsConfiguration
  Configuration ..> EyetrackingConfiguration

  ZoomMapsConfiguration - -|> ToolConfiguration
  CodeChartsConfiguration - -|> ToolConfiguration
  EyetrackingConfiguration - -|> ToolConfiguration
}
ConfigClient - - ZoomMaps
ConfigClient - - CodeCharts
ConfigClient - - EyeTracking
ConfigClient - - Speicher
@enduml

PlantUML version 1.2021.14beta2(Unknown compile time)
(GPL source distribution)
Java Runtime: Java(TM) SE Runtime Environment
JVM: Java HotSpot(TM) 64-Bit Server VM
Default Encoding: UTF-8
Language: en
Country: US
--></g></svg>