<?xml version="1.0" encoding="UTF-8" standalone="no"?><svg xmlns="http://www.w3.org/2000/svg" xmlns:xlink="http://www.w3.org/1999/xlink" contentScriptType="application/ecmascript" contentStyleType="text/css" height="833px" preserveAspectRatio="none" style="width:1095px;height:833px;background:#FFFFFF;" version="1.1" viewBox="0 0 1095 833" width="1095px" zoomAndPan="magnify"><defs><filter height="300%" id="f10mawqc73kr0s" width="300%" x="-1" y="-1"><feGaussianBlur result="blurOut" stdDeviation="2.0"/><feColorMatrix in="blurOut" result="blurOut2" type="matrix" values="0 0 0 0 0 0 0 0 0 0 0 0 0 0 0 0 0 0 .4 0"/><feOffset dx="4.0" dy="4.0" in="blurOut2" result="blurOut3"/><feBlend in="SourceGraphic" in2="blurOut3" mode="normal"/></filter></defs><g><!--MD5=[77140a42179fe8241cde5d77dd05aadc]
cluster config--><polygon fill="#FFFFFF" filter="url(#f10mawqc73kr0s)" points="16,6,73,6,80,28.2969,1078,28.2969,1078,826,16,826,16,6" style="stroke:#000000;stroke-width:1.5;"/><line style="stroke:#000000;stroke-width:1.5;" x1="16" x2="80" y1="28.2969" y2="28.2969"/><text fill="#000000" font-family="sans-serif" font-size="14" font-weight="bold" lengthAdjust="spacing" textLength="51" x="20" y="20.9951">config</text><!--MD5=[8e3d87abfe748ce01856f8098191fe29]
class ConfigClient--><rect codeLine="2" fill="#FEFECE" filter="url(#f10mawqc73kr0s)" height="176.0469" id="ConfigClient" style="stroke:#A80036;stroke-width:1.5;" width="336" x="423" y="192"/><ellipse cx="551.25" cy="208" fill="#ADD1B2" rx="11" ry="11" style="stroke:#A80036;stroke-width:1.0;"/><path d="M553.5938,203.6719 C552.6563,203.2344 552.0625,203.0938 551.1875,203.0938 C548.5625,203.0938 546.5625,205.1719 546.5625,207.8906 L546.5625,209.0156 C546.5625,211.5938 548.6719,213.4844 551.5625,213.4844 C552.7813,213.4844 553.9375,213.1875 554.6875,212.6406 C555.2656,212.2344 555.5938,211.7813 555.5938,211.3906 C555.5938,210.9375 555.2031,210.5469 554.7344,210.5469 C554.5156,210.5469 554.3125,210.625 554.125,210.8125 C553.6719,211.2969 553.6719,211.2969 553.4844,211.3906 C553.0625,211.6563 552.375,211.7813 551.6094,211.7813 C549.5625,211.7813 548.2656,210.6875 548.2656,208.9844 L548.2656,207.8906 C548.2656,206.1094 549.5156,204.7969 551.25,204.7969 C551.8281,204.7969 552.4375,204.9531 552.9063,205.2031 C553.3906,205.4844 553.5625,205.7031 553.6563,206.1094 C553.7188,206.5156 553.75,206.6406 553.8906,206.7656 C554.0313,206.9063 554.2656,207.0156 554.4844,207.0156 C554.75,207.0156 555.0156,206.875 555.1875,206.6563 C555.2969,206.5 555.3281,206.3125 555.3281,205.8906 L555.3281,204.4688 C555.3281,204.0313 555.3125,203.9063 555.2188,203.75 C555.0625,203.4844 554.7813,203.3438 554.4844,203.3438 C554.1875,203.3438 553.9844,203.4375 553.7656,203.75 L553.5938,203.6719 Z " fill="#000000"/><text fill="#000000" font-family="sans-serif" font-size="12" lengthAdjust="spacing" textLength="71" x="571.75" y="212.1543">ConfigClient</text><line style="stroke:#A80036;stroke-width:1.5;" x1="424" x2="758" y1="224" y2="224"/><polygon fill="none" points="434,230,438,234,434,238,430,234" style="stroke:#B38D22;stroke-width:1.0;"/><text fill="#000000" font-family="sans-serif" font-size="11" lengthAdjust="spacing" textLength="159" x="443" y="238.2104">configuration : Configuration</text><line style="stroke:#A80036;stroke-width:1.5;" x1="424" x2="758" y1="244.8047" y2="244.8047"/><ellipse cx="434" cy="255.8047" fill="#84BE84" rx="3" ry="3" style="stroke:#038048;stroke-width:1.0;"/><text fill="#000000" font-family="sans-serif" font-size="11" lengthAdjust="spacing" textLength="149" x="443" y="259.0151">getConfig() : Configuration</text><ellipse cx="434" cy="268.6094" fill="#84BE84" rx="3" ry="3" style="stroke:#038048;stroke-width:1.0;"/><text fill="#000000" font-family="sans-serif" font-size="11" lengthAdjust="spacing" textLength="276" x="443" y="271.8198">getString(category: String, option: String) : String</text><ellipse cx="434" cy="281.4141" fill="#84BE84" rx="3" ry="3" style="stroke:#038048;stroke-width:1.0;"/><text fill="#000000" font-family="sans-serif" font-size="11" lengthAdjust="spacing" textLength="238" x="443" y="284.6245">getInt(category: String, option: String) : int</text><ellipse cx="434" cy="294.2188" fill="#84BE84" rx="3" ry="3" style="stroke:#038048;stroke-width:1.0;"/><text fill="#000000" font-family="sans-serif" font-size="11" lengthAdjust="spacing" textLength="262" x="443" y="297.4292">getFloat(category: String, option: String) : float</text><ellipse cx="434" cy="307.0234" fill="#84BE84" rx="3" ry="3" style="stroke:#038048;stroke-width:1.0;"/><text fill="#000000" font-family="sans-serif" font-size="11" lengthAdjust="spacing" textLength="281" x="443" y="310.2339">getBool(category: String, option: String) : boolean</text><ellipse cx="434" cy="319.8281" fill="#84BE84" rx="3" ry="3" style="stroke:#038048;stroke-width:1.0;"/><text fill="#000000" font-family="sans-serif" font-size="11" lengthAdjust="spacing" textLength="310" x="443" y="323.0386">setString(category: String, option: String, value: String)</text><ellipse cx="434" cy="332.6328" fill="#84BE84" rx="3" ry="3" style="stroke:#038048;stroke-width:1.0;"/><text fill="#000000" font-family="sans-serif" font-size="11" lengthAdjust="spacing" textLength="272" x="443" y="335.8433">setInt(category: String, option: String, value: Int)</text><ellipse cx="434" cy="345.4375" fill="#84BE84" rx="3" ry="3" style="stroke:#038048;stroke-width:1.0;"/><text fill="#000000" font-family="sans-serif" font-size="11" lengthAdjust="spacing" textLength="296" x="443" y="348.6479">setFloat(category: String, option: String, value: float)</text><ellipse cx="434" cy="358.2422" fill="#84BE84" rx="3" ry="3" style="stroke:#038048;stroke-width:1.0;"/><text fill="#000000" font-family="sans-serif" font-size="11" lengthAdjust="spacing" textLength="223" x="443" y="361.4526">setBool(category: String, option: String)</text><!--MD5=[300820d20048966bb67ace7c5b50e9bc]
class ConfigLoader--><rect codeLine="15" fill="#FEFECE" filter="url(#f10mawqc73kr0s)" height="60.8047" id="ConfigLoader" style="stroke:#A80036;stroke-width:1.5;" width="303" x="32.5" y="47.5"/><ellipse cx="139.75" cy="63.5" fill="#ADD1B2" rx="11" ry="11" style="stroke:#A80036;stroke-width:1.0;"/><path d="M142.0938,59.1719 C141.1563,58.7344 140.5625,58.5938 139.6875,58.5938 C137.0625,58.5938 135.0625,60.6719 135.0625,63.3906 L135.0625,64.5156 C135.0625,67.0938 137.1719,68.9844 140.0625,68.9844 C141.2813,68.9844 142.4375,68.6875 143.1875,68.1406 C143.7656,67.7344 144.0938,67.2813 144.0938,66.8906 C144.0938,66.4375 143.7031,66.0469 143.2344,66.0469 C143.0156,66.0469 142.8125,66.125 142.625,66.3125 C142.1719,66.7969 142.1719,66.7969 141.9844,66.8906 C141.5625,67.1563 140.875,67.2813 140.1094,67.2813 C138.0625,67.2813 136.7656,66.1875 136.7656,64.4844 L136.7656,63.3906 C136.7656,61.6094 138.0156,60.2969 139.75,60.2969 C140.3281,60.2969 140.9375,60.4531 141.4063,60.7031 C141.8906,60.9844 142.0625,61.2031 142.1563,61.6094 C142.2188,62.0156 142.25,62.1406 142.3906,62.2656 C142.5313,62.4063 142.7656,62.5156 142.9844,62.5156 C143.25,62.5156 143.5156,62.375 143.6875,62.1563 C143.7969,62 143.8281,61.8125 143.8281,61.3906 L143.8281,59.9688 C143.8281,59.5313 143.8125,59.4063 143.7188,59.25 C143.5625,58.9844 143.2813,58.8438 142.9844,58.8438 C142.6875,58.8438 142.4844,58.9375 142.2656,59.25 L142.0938,59.1719 Z " fill="#000000"/><text fill="#000000" font-family="sans-serif" font-size="12" lengthAdjust="spacing" textLength="80" x="160.25" y="67.6543">ConfigLoader</text><line style="stroke:#A80036;stroke-width:1.5;" x1="33.5" x2="334.5" y1="79.5" y2="79.5"/><line style="stroke:#A80036;stroke-width:1.5;" x1="33.5" x2="334.5" y1="87.5" y2="87.5"/><ellipse cx="43.5" cy="98.5" fill="#84BE84" rx="3" ry="3" style="stroke:#038048;stroke-width:1.0;"/><text fill="#000000" font-family="sans-serif" font-size="11" lengthAdjust="spacing" textLength="277" x="52.5" y="101.7104">loadConfiguration(location: String) : Configuration</text><!--MD5=[ea2d2f788233cf0092663a6aa40f7dcc]
class ConfigWriter--><rect codeLine="19" fill="#FEFECE" filter="url(#f10mawqc73kr0s)" height="60.8047" id="ConfigWriter" style="stroke:#A80036;stroke-width:1.5;" width="440" x="371" y="47.5"/><ellipse cx="549.25" cy="63.5" fill="#ADD1B2" rx="11" ry="11" style="stroke:#A80036;stroke-width:1.0;"/><path d="M551.5938,59.1719 C550.6563,58.7344 550.0625,58.5938 549.1875,58.5938 C546.5625,58.5938 544.5625,60.6719 544.5625,63.3906 L544.5625,64.5156 C544.5625,67.0938 546.6719,68.9844 549.5625,68.9844 C550.7813,68.9844 551.9375,68.6875 552.6875,68.1406 C553.2656,67.7344 553.5938,67.2813 553.5938,66.8906 C553.5938,66.4375 553.2031,66.0469 552.7344,66.0469 C552.5156,66.0469 552.3125,66.125 552.125,66.3125 C551.6719,66.7969 551.6719,66.7969 551.4844,66.8906 C551.0625,67.1563 550.375,67.2813 549.6094,67.2813 C547.5625,67.2813 546.2656,66.1875 546.2656,64.4844 L546.2656,63.3906 C546.2656,61.6094 547.5156,60.2969 549.25,60.2969 C549.8281,60.2969 550.4375,60.4531 550.9063,60.7031 C551.3906,60.9844 551.5625,61.2031 551.6563,61.6094 C551.7188,62.0156 551.75,62.1406 551.8906,62.2656 C552.0313,62.4063 552.2656,62.5156 552.4844,62.5156 C552.75,62.5156 553.0156,62.375 553.1875,62.1563 C553.2969,62 553.3281,61.8125 553.3281,61.3906 L553.3281,59.9688 C553.3281,59.5313 553.3125,59.4063 553.2188,59.25 C553.0625,58.9844 552.7813,58.8438 552.4844,58.8438 C552.1875,58.8438 551.9844,58.9375 551.7656,59.25 L551.5938,59.1719 Z " fill="#000000"/><text fill="#000000" font-family="sans-serif" font-size="12" lengthAdjust="spacing" textLength="75" x="569.75" y="67.6543">ConfigWriter</text><line style="stroke:#A80036;stroke-width:1.5;" x1="372" x2="810" y1="79.5" y2="79.5"/><line style="stroke:#A80036;stroke-width:1.5;" x1="372" x2="810" y1="87.5" y2="87.5"/><ellipse cx="382" cy="98.5" fill="#84BE84" rx="3" ry="3" style="stroke:#038048;stroke-width:1.0;"/><text fill="#000000" font-family="sans-serif" font-size="11" lengthAdjust="spacing" textLength="414" x="391" y="101.7104">writeConfiguration(location: String, configuration: Configuration) : boolean</text><!--MD5=[5b16d89af642fada17b07b2764009d9a]
class ConfigGUI--><rect codeLine="23" fill="#FEFECE" filter="url(#f10mawqc73kr0s)" height="73.6094" id="ConfigGUI" style="stroke:#A80036;stroke-width:1.5;" width="216" x="846" y="41"/><ellipse cx="920.25" cy="57" fill="#ADD1B2" rx="11" ry="11" style="stroke:#A80036;stroke-width:1.0;"/><path d="M922.5938,52.6719 C921.6563,52.2344 921.0625,52.0938 920.1875,52.0938 C917.5625,52.0938 915.5625,54.1719 915.5625,56.8906 L915.5625,58.0156 C915.5625,60.5938 917.6719,62.4844 920.5625,62.4844 C921.7813,62.4844 922.9375,62.1875 923.6875,61.6406 C924.2656,61.2344 924.5938,60.7813 924.5938,60.3906 C924.5938,59.9375 924.2031,59.5469 923.7344,59.5469 C923.5156,59.5469 923.3125,59.625 923.125,59.8125 C922.6719,60.2969 922.6719,60.2969 922.4844,60.3906 C922.0625,60.6563 921.375,60.7813 920.6094,60.7813 C918.5625,60.7813 917.2656,59.6875 917.2656,57.9844 L917.2656,56.8906 C917.2656,55.1094 918.5156,53.7969 920.25,53.7969 C920.8281,53.7969 921.4375,53.9531 921.9063,54.2031 C922.3906,54.4844 922.5625,54.7031 922.6563,55.1094 C922.7188,55.5156 922.75,55.6406 922.8906,55.7656 C923.0313,55.9063 923.2656,56.0156 923.4844,56.0156 C923.75,56.0156 924.0156,55.875 924.1875,55.6563 C924.2969,55.5 924.3281,55.3125 924.3281,54.8906 L924.3281,53.4688 C924.3281,53.0313 924.3125,52.9063 924.2188,52.75 C924.0625,52.4844 923.7813,52.3438 923.4844,52.3438 C923.1875,52.3438 922.9844,52.4375 922.7656,52.75 L922.5938,52.6719 Z " fill="#000000"/><text fill="#000000" font-family="sans-serif" font-size="12" lengthAdjust="spacing" textLength="59" x="940.75" y="61.1543">ConfigGUI</text><line style="stroke:#A80036;stroke-width:1.5;" x1="847" x2="1061" y1="73" y2="73"/><rect fill="none" height="6" style="stroke:#C82930;stroke-width:1.0;" width="6" x="854" y="81"/><text fill="#000000" font-family="sans-serif" font-size="11" lengthAdjust="spacing" textLength="190" x="866" y="87.2104">configuration_state: Configuration</text><line style="stroke:#A80036;stroke-width:1.5;" x1="847" x2="1061" y1="93.8047" y2="93.8047"/><ellipse cx="857" cy="104.8047" fill="#84BE84" rx="3" ry="3" style="stroke:#038048;stroke-width:1.0;"/><text fill="#000000" font-family="sans-serif" font-size="11" lengthAdjust="spacing" textLength="104" x="866" y="108.0151">showEditor() : void</text><!--MD5=[9b7eb76f801c309757ef5968cb2349d9]
class Configuration--><rect codeLine="28" fill="#FEFECE" filter="url(#f10mawqc73kr0s)" height="99.2188" id="Configuration" style="stroke:#A80036;stroke-width:1.5;" width="247" x="467.5" y="429"/><ellipse cx="547.25" cy="445" fill="#ADD1B2" rx="11" ry="11" style="stroke:#A80036;stroke-width:1.0;"/><path d="M549.5938,440.6719 C548.6563,440.2344 548.0625,440.0938 547.1875,440.0938 C544.5625,440.0938 542.5625,442.1719 542.5625,444.8906 L542.5625,446.0156 C542.5625,448.5938 544.6719,450.4844 547.5625,450.4844 C548.7813,450.4844 549.9375,450.1875 550.6875,449.6406 C551.2656,449.2344 551.5938,448.7813 551.5938,448.3906 C551.5938,447.9375 551.2031,447.5469 550.7344,447.5469 C550.5156,447.5469 550.3125,447.625 550.125,447.8125 C549.6719,448.2969 549.6719,448.2969 549.4844,448.3906 C549.0625,448.6563 548.375,448.7813 547.6094,448.7813 C545.5625,448.7813 544.2656,447.6875 544.2656,445.9844 L544.2656,444.8906 C544.2656,443.1094 545.5156,441.7969 547.25,441.7969 C547.8281,441.7969 548.4375,441.9531 548.9063,442.2031 C549.3906,442.4844 549.5625,442.7031 549.6563,443.1094 C549.7188,443.5156 549.75,443.6406 549.8906,443.7656 C550.0313,443.9063 550.2656,444.0156 550.4844,444.0156 C550.75,444.0156 551.0156,443.875 551.1875,443.6563 C551.2969,443.5 551.3281,443.3125 551.3281,442.8906 L551.3281,441.4688 C551.3281,441.0313 551.3125,440.9063 551.2188,440.75 C551.0625,440.4844 550.7813,440.3438 550.4844,440.3438 C550.1875,440.3438 549.9844,440.4375 549.7656,440.75 L549.5938,440.6719 Z " fill="#000000"/><text fill="#000000" font-family="sans-serif" font-size="12" lengthAdjust="spacing" textLength="79" x="567.75" y="449.1543">Configuration</text><line style="stroke:#A80036;stroke-width:1.5;" x1="468.5" x2="713.5" y1="461" y2="461"/><ellipse cx="478.5" cy="472" rx="3" ry="3" style="stroke:#038048;stroke-width:1.0;fill:none;"/><text fill="#000000" font-family="sans-serif" font-size="11" lengthAdjust="spacing" textLength="172" x="487.5" y="475.2104">general: GeneralConfiguration</text><ellipse cx="478.5" cy="484.8047" rx="3" ry="3" style="stroke:#038048;stroke-width:1.0;fill:none;"/><text fill="#000000" font-family="sans-serif" font-size="11" lengthAdjust="spacing" textLength="213" x="487.5" y="488.0151">zoom_maps: ZoomMapsConfiguration</text><ellipse cx="478.5" cy="497.6094" rx="3" ry="3" style="stroke:#038048;stroke-width:1.0;fill:none;"/><text fill="#000000" font-family="sans-serif" font-size="11" lengthAdjust="spacing" textLength="216" x="487.5" y="500.8198">code_charts: CodeChartsConfiguration</text><ellipse cx="478.5" cy="510.4141" rx="3" ry="3" style="stroke:#038048;stroke-width:1.0;fill:none;"/><text fill="#000000" font-family="sans-serif" font-size="11" lengthAdjust="spacing" textLength="221" x="487.5" y="513.6245">eye_tracking: EyetrackingConfiguration</text><line style="stroke:#A80036;stroke-width:1.5;" x1="468.5" x2="713.5" y1="520.2188" y2="520.2188"/><!--MD5=[db873fc2485e00d042bea25029027919]
class GeneralConfiguration--><rect codeLine="34" fill="#FEFECE" filter="url(#f10mawqc73kr0s)" height="99.2188" id="GeneralConfiguration" style="stroke:#A80036;stroke-width:1.5;" width="205" x="169.5" y="589"/><ellipse cx="205.65" cy="605" fill="#ADD1B2" rx="11" ry="11" style="stroke:#A80036;stroke-width:1.0;"/><path d="M207.9938,600.6719 C207.0563,600.2344 206.4625,600.0938 205.5875,600.0938 C202.9625,600.0938 200.9625,602.1719 200.9625,604.8906 L200.9625,606.0156 C200.9625,608.5938 203.0719,610.4844 205.9625,610.4844 C207.1813,610.4844 208.3375,610.1875 209.0875,609.6406 C209.6656,609.2344 209.9938,608.7813 209.9938,608.3906 C209.9938,607.9375 209.6031,607.5469 209.1344,607.5469 C208.9156,607.5469 208.7125,607.625 208.525,607.8125 C208.0719,608.2969 208.0719,608.2969 207.8844,608.3906 C207.4625,608.6563 206.775,608.7813 206.0094,608.7813 C203.9625,608.7813 202.6656,607.6875 202.6656,605.9844 L202.6656,604.8906 C202.6656,603.1094 203.9156,601.7969 205.65,601.7969 C206.2281,601.7969 206.8375,601.9531 207.3063,602.2031 C207.7906,602.4844 207.9625,602.7031 208.0563,603.1094 C208.1188,603.5156 208.15,603.6406 208.2906,603.7656 C208.4313,603.9063 208.6656,604.0156 208.8844,604.0156 C209.15,604.0156 209.4156,603.875 209.5875,603.6563 C209.6969,603.5 209.7281,603.3125 209.7281,602.8906 L209.7281,601.4688 C209.7281,601.0313 209.7125,600.9063 209.6188,600.75 C209.4625,600.4844 209.1813,600.3438 208.8844,600.3438 C208.5875,600.3438 208.3844,600.4375 208.1656,600.75 L207.9938,600.6719 Z " fill="#000000"/><text fill="#000000" font-family="sans-serif" font-size="12" lengthAdjust="spacing" textLength="126" x="224.35" y="609.1543">GeneralConfiguration</text><line style="stroke:#A80036;stroke-width:1.5;" x1="170.5" x2="373.5" y1="621" y2="621"/><ellipse cx="180.5" cy="632" rx="3" ry="3" style="stroke:#038048;stroke-width:1.0;fill:none;"/><text fill="#000000" font-family="sans-serif" font-size="11" lengthAdjust="spacing" textLength="175" x="189.5" y="635.2104">zoom_maps_enabled: boolean</text><ellipse cx="180.5" cy="644.8047" rx="3" ry="3" style="stroke:#038048;stroke-width:1.0;fill:none;"/><text fill="#000000" font-family="sans-serif" font-size="11" lengthAdjust="spacing" textLength="174" x="189.5" y="648.0151">code_charts_enabled: boolean</text><ellipse cx="180.5" cy="657.6094" rx="3" ry="3" style="stroke:#038048;stroke-width:1.0;fill:none;"/><text fill="#000000" font-family="sans-serif" font-size="11" lengthAdjust="spacing" textLength="179" x="189.5" y="660.8198">eye_tracking_enabled: boolean</text><ellipse cx="180.5" cy="670.4141" rx="3" ry="3" style="stroke:#038048;stroke-width:1.0;fill:none;"/><text fill="#000000" font-family="sans-serif" font-size="11" lengthAdjust="spacing" textLength="118" x="189.5" y="673.6245">save_location: String</text><line style="stroke:#A80036;stroke-width:1.5;" x1="170.5" x2="373.5" y1="680.2188" y2="680.2188"/><!--MD5=[c32c59d693be21f893977656ad129d83]
class ZoomMapsConfiguration--><rect codeLine="40" fill="#FEFECE" filter="url(#f10mawqc73kr0s)" height="73.6094" id="ZoomMapsConfiguration" style="stroke:#A80036;stroke-width:1.5;" width="179" x="409.5" y="601.5"/><ellipse cx="424.5" cy="617.5" fill="#ADD1B2" rx="11" ry="11" style="stroke:#A80036;stroke-width:1.0;"/><path d="M426.8438,613.1719 C425.9063,612.7344 425.3125,612.5938 424.4375,612.5938 C421.8125,612.5938 419.8125,614.6719 419.8125,617.3906 L419.8125,618.5156 C419.8125,621.0938 421.9219,622.9844 424.8125,622.9844 C426.0313,622.9844 427.1875,622.6875 427.9375,622.1406 C428.5156,621.7344 428.8438,621.2813 428.8438,620.8906 C428.8438,620.4375 428.4531,620.0469 427.9844,620.0469 C427.7656,620.0469 427.5625,620.125 427.375,620.3125 C426.9219,620.7969 426.9219,620.7969 426.7344,620.8906 C426.3125,621.1563 425.625,621.2813 424.8594,621.2813 C422.8125,621.2813 421.5156,620.1875 421.5156,618.4844 L421.5156,617.3906 C421.5156,615.6094 422.7656,614.2969 424.5,614.2969 C425.0781,614.2969 425.6875,614.4531 426.1563,614.7031 C426.6406,614.9844 426.8125,615.2031 426.9063,615.6094 C426.9688,616.0156 427,616.1406 427.1406,616.2656 C427.2813,616.4063 427.5156,616.5156 427.7344,616.5156 C428,616.5156 428.2656,616.375 428.4375,616.1563 C428.5469,616 428.5781,615.8125 428.5781,615.3906 L428.5781,613.9688 C428.5781,613.5313 428.5625,613.4063 428.4688,613.25 C428.3125,612.9844 428.0313,612.8438 427.7344,612.8438 C427.4375,612.8438 427.2344,612.9375 427.0156,613.25 L426.8438,613.1719 Z " fill="#000000"/><text fill="#000000" font-family="sans-serif" font-size="12" lengthAdjust="spacing" textLength="147" x="438.5" y="621.6543">ZoomMapsConfiguration</text><line style="stroke:#A80036;stroke-width:1.5;" x1="410.5" x2="587.5" y1="633.5" y2="633.5"/><ellipse cx="420.5" cy="644.5" rx="3" ry="3" style="stroke:#038048;stroke-width:1.0;fill:none;"/><text fill="#000000" font-family="sans-serif" font-size="11" lengthAdjust="spacing" textLength="96" x="429.5" y="647.7104">image_url: String</text><ellipse cx="420.5" cy="657.3047" rx="3" ry="3" style="stroke:#038048;stroke-width:1.0;fill:none;"/><text fill="#000000" font-family="sans-serif" font-size="11" lengthAdjust="spacing" textLength="68" x="429.5" y="660.5151">speed: float</text><line style="stroke:#A80036;stroke-width:1.5;" x1="410.5" x2="587.5" y1="667.1094" y2="667.1094"/><!--MD5=[06cce87b24e55b796d64d2ac3d5e4e56]
class CodeChartsConfiguration--><rect codeLine="44" fill="#FEFECE" filter="url(#f10mawqc73kr0s)" height="60.8047" id="CodeChartsConfiguration" style="stroke:#A80036;stroke-width:1.5;" width="181" x="623.5" y="608"/><ellipse cx="638.5" cy="624" fill="#ADD1B2" rx="11" ry="11" style="stroke:#A80036;stroke-width:1.0;"/><path d="M640.8438,619.6719 C639.9063,619.2344 639.3125,619.0938 638.4375,619.0938 C635.8125,619.0938 633.8125,621.1719 633.8125,623.8906 L633.8125,625.0156 C633.8125,627.5938 635.9219,629.4844 638.8125,629.4844 C640.0313,629.4844 641.1875,629.1875 641.9375,628.6406 C642.5156,628.2344 642.8438,627.7813 642.8438,627.3906 C642.8438,626.9375 642.4531,626.5469 641.9844,626.5469 C641.7656,626.5469 641.5625,626.625 641.375,626.8125 C640.9219,627.2969 640.9219,627.2969 640.7344,627.3906 C640.3125,627.6563 639.625,627.7813 638.8594,627.7813 C636.8125,627.7813 635.5156,626.6875 635.5156,624.9844 L635.5156,623.8906 C635.5156,622.1094 636.7656,620.7969 638.5,620.7969 C639.0781,620.7969 639.6875,620.9531 640.1563,621.2031 C640.6406,621.4844 640.8125,621.7031 640.9063,622.1094 C640.9688,622.5156 641,622.6406 641.1406,622.7656 C641.2813,622.9063 641.5156,623.0156 641.7344,623.0156 C642,623.0156 642.2656,622.875 642.4375,622.6563 C642.5469,622.5 642.5781,622.3125 642.5781,621.8906 L642.5781,620.4688 C642.5781,620.0313 642.5625,619.9063 642.4688,619.75 C642.3125,619.4844 642.0313,619.3438 641.7344,619.3438 C641.4375,619.3438 641.2344,619.4375 641.0156,619.75 L640.8438,619.6719 Z " fill="#000000"/><text fill="#000000" font-family="sans-serif" font-size="12" lengthAdjust="spacing" textLength="149" x="652.5" y="628.1543">CodeChartsConfiguration</text><line style="stroke:#A80036;stroke-width:1.5;" x1="624.5" x2="803.5" y1="640" y2="640"/><ellipse cx="634.5" cy="651" rx="3" ry="3" style="stroke:#038048;stroke-width:1.0;fill:none;"/><text fill="#000000" font-family="sans-serif" font-size="11" lengthAdjust="spacing" textLength="96" x="643.5" y="654.2104">image_url: String</text><line style="stroke:#A80036;stroke-width:1.5;" x1="624.5" x2="803.5" y1="660.8047" y2="660.8047"/><!--MD5=[bd8aff8153f9e2acdb3b91c1d91a59e4]
class EyetrackingConfiguration--><rect codeLine="47" fill="#FEFECE" filter="url(#f10mawqc73kr0s)" height="60.8047" id="EyetrackingConfiguration" style="stroke:#A80036;stroke-width:1.5;" width="181" x="839.5" y="608"/><ellipse cx="854.5" cy="624" fill="#ADD1B2" rx="11" ry="11" style="stroke:#A80036;stroke-width:1.0;"/><path d="M856.8438,619.6719 C855.9063,619.2344 855.3125,619.0938 854.4375,619.0938 C851.8125,619.0938 849.8125,621.1719 849.8125,623.8906 L849.8125,625.0156 C849.8125,627.5938 851.9219,629.4844 854.8125,629.4844 C856.0313,629.4844 857.1875,629.1875 857.9375,628.6406 C858.5156,628.2344 858.8438,627.7813 858.8438,627.3906 C858.8438,626.9375 858.4531,626.5469 857.9844,626.5469 C857.7656,626.5469 857.5625,626.625 857.375,626.8125 C856.9219,627.2969 856.9219,627.2969 856.7344,627.3906 C856.3125,627.6563 855.625,627.7813 854.8594,627.7813 C852.8125,627.7813 851.5156,626.6875 851.5156,624.9844 L851.5156,623.8906 C851.5156,622.1094 852.7656,620.7969 854.5,620.7969 C855.0781,620.7969 855.6875,620.9531 856.1563,621.2031 C856.6406,621.4844 856.8125,621.7031 856.9063,622.1094 C856.9688,622.5156 857,622.6406 857.1406,622.7656 C857.2813,622.9063 857.5156,623.0156 857.7344,623.0156 C858,623.0156 858.2656,622.875 858.4375,622.6563 C858.5469,622.5 858.5781,622.3125 858.5781,621.8906 L858.5781,620.4688 C858.5781,620.0313 858.5625,619.9063 858.4688,619.75 C858.3125,619.4844 858.0313,619.3438 857.7344,619.3438 C857.4375,619.3438 857.2344,619.4375 857.0156,619.75 L856.8438,619.6719 Z " fill="#000000"/><text fill="#000000" font-family="sans-serif" font-size="12" lengthAdjust="spacing" textLength="149" x="868.5" y="628.1543">EyetrackingConfiguration</text><line style="stroke:#A80036;stroke-width:1.5;" x1="840.5" x2="1019.5" y1="640" y2="640"/><text fill="#000000" font-family="sans-serif" font-size="11" lengthAdjust="spacing" textLength="96" x="845.5" y="654.2104">image_url: String</text><line style="stroke:#A80036;stroke-width:1.5;" x1="840.5" x2="1019.5" y1="660.8047" y2="660.8047"/><!--MD5=[afe9d53419fee3992c281b7cd4c026d6]
class ToolConfiguration--><rect codeLine="50" fill="#FEFECE" filter="url(#f10mawqc73kr0s)" height="60.8047" id="ToolConfiguration" style="stroke:#A80036;stroke-width:1.5;" width="137" x="645.5" y="749"/><ellipse cx="660.5" cy="765" fill="#A9DCDF" rx="11" ry="11" style="stroke:#A80036;stroke-width:1.0;"/><path d="M662.5781,766.8125 L662.9688,767.7969 L662.5781,767.7969 C662.125,767.7969 662.0156,767.8125 661.8594,767.9219 C661.6094,768.0781 661.4531,768.3594 661.4531,768.6563 C661.4531,768.9219 661.5938,769.1719 661.8125,769.3281 C661.9531,769.4531 662.1563,769.5 662.5781,769.5 L664.9375,769.5 C665.2969,769.5 665.5156,769.4688 665.6563,769.375 C665.9063,769.2344 666.0625,768.9375 666.0625,768.6563 C666.0625,768.375 665.9219,768.125 665.7031,767.9688 C665.5313,767.8281 665.375,767.7969 664.9063,767.7969 L661.5156,759.5938 L657.8438,759.5938 C657.3906,759.5938 657.2656,759.6094 657.1094,759.7031 C656.8594,759.875 656.7031,760.1563 656.7031,760.4375 C656.7031,760.7188 656.8438,760.9688 657.0625,761.1406 C657.2344,761.25 657.4063,761.2813 657.8438,761.2813 L658.9219,761.2813 L656.2813,767.7969 C655.8594,767.7969 655.7031,767.8125 655.5469,767.9219 C655.2969,768.0781 655.1406,768.3594 655.1406,768.6563 C655.1406,769.2188 655.5156,769.5 656.2656,769.5 L658.5313,769.5 C658.8906,769.5 659.1094,769.4688 659.2344,769.375 C659.5,769.2344 659.6406,768.9375 659.6406,768.6563 C659.6406,768.375 659.5156,768.125 659.2969,767.9531 C659.125,767.8281 658.9844,767.7969 658.5313,767.7969 L658.1406,767.7969 L658.5313,766.8125 L662.5781,766.8125 Z M661.875,765.1094 L659.2031,765.1094 L660.5469,761.8438 L661.875,765.1094 Z " fill="#000000"/><text fill="#000000" font-family="sans-serif" font-size="12" font-style="italic" lengthAdjust="spacing" textLength="105" x="674.5" y="769.1543">ToolConfiguration</text><line style="stroke:#A80036;stroke-width:1.5;" x1="646.5" x2="781.5" y1="781" y2="781"/><ellipse cx="656.5" cy="792" rx="3" ry="3" style="stroke:#038048;stroke-width:1.0;fill:none;"/><text fill="#000000" font-family="sans-serif" font-size="11" font-style="italic" lengthAdjust="spacing" textLength="97" x="665.5" y="795.2104">image_url: String</text><line style="stroke:#A80036;stroke-width:1.5;" x1="646.5" x2="781.5" y1="801.8047" y2="801.8047"/><!--MD5=[fc8f6fd6b0992e507b3f1cc8c8e1fc3b]
link ConfigClient to Configuration--><path codeLine="54" d="M591,368.046 C591,386.931 591,406.377 591,423.541 " fill="none" id="ConfigClient-to-Configuration" style="stroke:#A80036;stroke-width:1.0;stroke-dasharray:7.0,7.0;"/><polygon fill="#A80036" points="591,428.791,595,419.791,591,423.791,587,419.791,591,428.791" style="stroke:#A80036;stroke-width:1.0;"/><!--MD5=[fd9a2f77ae24358084f0c0e422e0106f]
link ConfigLoader to ConfigClient--><path codeLine="56" d="M244.054,108.511 C291.264,131.709 359.429,165.206 422.864,196.378 " fill="none" id="ConfigLoader-ConfigClient" style="stroke:#A80036;stroke-width:1.0;"/><polygon fill="#000000" points="361.4875,155.7715,354.6657,149.1447,352.0734,154.4201,361.4875,155.7715" style="stroke:#000000;stroke-width:1.0;"/><text fill="#000000" font-family="sans-serif" font-size="13" lengthAdjust="spacing" textLength="113" x="366" y="158.0669">lädt Konfiguration</text><!--MD5=[f13bb231a95a89b75df8f55f6eb72110]
link ConfigWriter to ConfigClient--><path codeLine="59" d="M591,108.511 C591,130.568 591,161.936 591,191.763 " fill="none" id="ConfigWriter-ConfigClient" style="stroke:#A80036;stroke-width:1.0;"/><polygon fill="#000000" points="596,158.5664,598.9389,149.5213,593.0611,149.5213,596,158.5664" style="stroke:#000000;stroke-width:1.0;"/><text fill="#000000" font-family="sans-serif" font-size="13" lengthAdjust="spacing" textLength="140" x="605" y="158.0669">schreibt Konfiguration</text><!--MD5=[537a60be944f490558b0b187c1aa214a]
link ConfigGUI to ConfigClient--><path codeLine="62" d="M888.263,115.218 C849.24,136.719 797.964,164.97 749.006,191.944 " fill="none" id="ConfigGUI-ConfigClient" style="stroke:#A80036;stroke-width:1.0;"/><polygon fill="#000000" points="826.6207,155.9793,835.9612,154.1885,833.1247,149.0403,826.6207,155.9793" style="stroke:#000000;stroke-width:1.0;"/><text fill="#000000" font-family="sans-serif" font-size="13" lengthAdjust="spacing" textLength="199" x="840" y="158.0669">graphische Benutzeroberfläche</text><!--MD5=[dfff62fa75b72e0d67b74a0567b8b59a]
link Configuration to GeneralConfiguration--><path codeLine="64" d="M492.687,528.194 C455.217,546.753 412.437,567.942 374.58,586.692 " fill="none" id="Configuration-to-GeneralConfiguration" style="stroke:#A80036;stroke-width:1.0;stroke-dasharray:7.0,7.0;"/><polygon fill="#A80036" points="369.989,588.966,379.8293,588.5565,374.4697,586.7471,376.2791,581.3874,369.989,588.966" style="stroke:#A80036;stroke-width:1.0;"/><!--MD5=[696ef16380d08b622154f6b16caffa65]
link Configuration to ZoomMapsConfiguration--><path codeLine="65" d="M562.646,528.194 C549.831,550.204 534.861,575.912 522.661,596.865 " fill="none" id="Configuration-to-ZoomMapsConfiguration" style="stroke:#A80036;stroke-width:1.0;stroke-dasharray:7.0,7.0;"/><polygon fill="#A80036" points="520.101,601.261,528.0873,595.4974,522.6176,596.9405,521.1745,591.4708,520.101,601.261" style="stroke:#A80036;stroke-width:1.0;"/><!--MD5=[13859a0532335e82db533fae8d5a7156]
link Configuration to CodeChartsConfiguration--><path codeLine="66" d="M628.908,528.194 C647.913,552.607 670.46,581.571 687.569,603.548 " fill="none" id="Configuration-to-CodeChartsConfiguration" style="stroke:#A80036;stroke-width:1.0;stroke-dasharray:7.0,7.0;"/><polygon fill="#A80036" points="690.699,607.568,688.3271,598.009,687.6277,603.6225,682.0143,602.9231,690.699,607.568" style="stroke:#A80036;stroke-width:1.0;"/><!--MD5=[384cd599c7160702497c7f4ba6273d5b]
link Configuration to EyetrackingConfiguration--><path codeLine="67" d="M695.477,528.194 C749.661,553.448 814.293,583.572 861.972,605.794 " fill="none" id="Configuration-to-EyetrackingConfiguration" style="stroke:#A80036;stroke-width:1.0;stroke-dasharray:7.0,7.0;"/><polygon fill="#A80036" points="866.533,607.919,860.0665,600.4904,862.0014,605.8061,856.6858,607.741,866.533,607.919" style="stroke:#A80036;stroke-width:1.0;"/><!--MD5=[e1a00d399c63d13b5ba8cf93a913bbc6]
link ZoomMapsConfiguration to ToolConfiguration--><path codeLine="69" d="M554.927,675.658 C584.362,694.687 620.556,718.088 650.98,737.757 " fill="none" id="ZoomMapsConfiguration-to-ToolConfiguration" style="stroke:#A80036;stroke-width:1.0;"/><polygon fill="none" points="655.136,732.108,668.132,748.8455,647.535,743.8654,655.136,732.108" style="stroke:#A80036;stroke-width:1.0;"/><!--MD5=[e43d181bf247fc9037e6677b5cfd12ed]
link CodeChartsConfiguration to ToolConfiguration--><path codeLine="70" d="M714,669.319 C714,686.542 714,708.654 714,728.47 " fill="none" id="CodeChartsConfiguration-to-ToolConfiguration" style="stroke:#A80036;stroke-width:1.0;"/><polygon fill="none" points="721,728.73,714,748.7303,707,728.73,721,728.73" style="stroke:#A80036;stroke-width:1.0;"/><!--MD5=[0bb34211a206bd95311a5e2ca5502244]
link EyetrackingConfiguration to ToolConfiguration--><path codeLine="71" d="M883.928,669.148 C852.802,689.178 811.313,715.877 777.122,737.88 " fill="none" id="EyetrackingConfiguration-to-ToolConfiguration" style="stroke:#A80036;stroke-width:1.0;"/><polygon fill="none" points="780.608,743.9605,760.002,748.8971,773.032,732.188,780.608,743.9605" style="stroke:#A80036;stroke-width:1.0;"/><!--MD5=[f7b16cdf4022b5314f75f747f9af41d7]
@startuml
package config {
  class ConfigClient {
    # configuration : Configuration
    + getConfig() : Configuration
    + getString(category: String, option: String) : String
    + getInt(category: String, option: String) : int
    + getFloat(category: String, option: String) : float
    + getBool(category: String, option: String) : boolean
    + setString(category: String, option: String, value: String)
    + setInt(category: String, option: String, value: Int)
    + setFloat(category: String, option: String, value: float)
    + setBool(category: String, option: String)
  }

  class ConfigLoader {
    + loadConfiguration(location: String) : Configuration
  }

  class ConfigWriter {
    + writeConfiguration(location: String, configuration: Configuration) : boolean
  }

  class ConfigGUI {
    - configuration_state: Configuration
    + showEditor() : void
  }

  class Configuration {
    + general: GeneralConfiguration
    + zoom_maps: ZoomMapsConfiguration
    + code_charts: CodeChartsConfiguration
    + eye_tracking: EyetrackingConfiguration
  }
  class GeneralConfiguration {
    + zoom_maps_enabled: boolean
    + code_charts_enabled: boolean
    + eye_tracking_enabled: boolean
    + save_location: String
  }
  class ZoomMapsConfiguration {
    + image_url: String
    + speed: float
  }
  class CodeChartsConfiguration {
    + image_url: String
  }
  class EyetrackingConfiguration {
    image_url: String
  }
  abstract ToolConfiguration {
    + {abstract} image_url: String
  }

  ConfigClient ..> Configuration

  ConfigClient -u- ConfigLoader : < lädt Konfiguration
  ' ConfigLoader ..> Configuration

  ConfigClient -u- ConfigWriter : < schreibt Konfiguration
  ' ConfigWriter ..> Configuration

  ConfigClient -u- ConfigGUI : < graphische Benutzeroberfläche

  Configuration ..> GeneralConfiguration
  Configuration ..> ZoomMapsConfiguration
  Configuration ..> CodeChartsConfiguration
  Configuration ..> EyetrackingConfiguration

  ZoomMapsConfiguration - -|> ToolConfiguration
  CodeChartsConfiguration - -|> ToolConfiguration
  EyetrackingConfiguration - -|> ToolConfiguration
}
@enduml

@startuml
package config {
  class ConfigClient {
    # configuration : Configuration
    + getConfig() : Configuration
    + getString(category: String, option: String) : String
    + getInt(category: String, option: String) : int
    + getFloat(category: String, option: String) : float
    + getBool(category: String, option: String) : boolean
    + setString(category: String, option: String, value: String)
    + setInt(category: String, option: String, value: Int)
    + setFloat(category: String, option: String, value: float)
    + setBool(category: String, option: String)
  }

  class ConfigLoader {
    + loadConfiguration(location: String) : Configuration
  }

  class ConfigWriter {
    + writeConfiguration(location: String, configuration: Configuration) : boolean
  }

  class ConfigGUI {
    - configuration_state: Configuration
    + showEditor() : void
  }

  class Configuration {
    + general: GeneralConfiguration
    + zoom_maps: ZoomMapsConfiguration
    + code_charts: CodeChartsConfiguration
    + eye_tracking: EyetrackingConfiguration
  }
  class GeneralConfiguration {
    + zoom_maps_enabled: boolean
    + code_charts_enabled: boolean
    + eye_tracking_enabled: boolean
    + save_location: String
  }
  class ZoomMapsConfiguration {
    + image_url: String
    + speed: float
  }
  class CodeChartsConfiguration {
    + image_url: String
  }
  class EyetrackingConfiguration {
    image_url: String
  }
  abstract ToolConfiguration {
    + {abstract} image_url: String
  }

  ConfigClient ..> Configuration

  ConfigClient -u- ConfigLoader : < lädt Konfiguration

  ConfigClient -u- ConfigWriter : < schreibt Konfiguration

  ConfigClient -u- ConfigGUI : < graphische Benutzeroberfläche

  Configuration ..> GeneralConfiguration
  Configuration ..> ZoomMapsConfiguration
  Configuration ..> CodeChartsConfiguration
  Configuration ..> EyetrackingConfiguration

  ZoomMapsConfiguration - -|> ToolConfiguration
  CodeChartsConfiguration - -|> ToolConfiguration
  EyetrackingConfiguration - -|> ToolConfiguration
}
@enduml

PlantUML version 1.2021.14beta2(Unknown compile time)
(GPL source distribution)
Java Runtime: Java(TM) SE Runtime Environment
JVM: Java HotSpot(TM) 64-Bit Server VM
Default Encoding: UTF-8
Language: en
Country: US
--></g></svg>