<?xml version="1.0" encoding="UTF-8" standalone="no"?><svg xmlns="http://www.w3.org/2000/svg" xmlns:xlink="http://www.w3.org/1999/xlink" contentScriptType="application/ecmascript" contentStyleType="text/css" height="564px" preserveAspectRatio="none" style="width:2044px;height:564px;background:#FFFFFF;" version="1.1" viewBox="0 0 2044 564" width="2044px" zoomAndPan="magnify"><defs><filter height="300%" id="fyo9tpgn2kzm2" width="300%" x="-1" y="-1"><feGaussianBlur result="blurOut" stdDeviation="2.0"/><feColorMatrix in="blurOut" result="blurOut2" type="matrix" values="0 0 0 0 0 0 0 0 0 0 0 0 0 0 0 0 0 0 .4 0"/><feOffset dx="4.0" dy="4.0" in="blurOut2" result="blurOut3"/><feBlend in="SourceGraphic" in2="blurOut3" mode="normal"/></filter></defs><g><!--MD5=[a55135535b5c544b99c33b17428c3b14]
cluster Util--><polygon fill="#FFFFFF" filter="url(#fyo9tpgn2kzm2)" points="1497,51,1532,51,1539,73.2969,1621,73.2969,1621,188,1497,188,1497,51" style="stroke:#000000;stroke-width:1.5;"/><line style="stroke:#000000;stroke-width:1.5;" x1="1497" x2="1539" y1="73.2969" y2="73.2969"/><text fill="#000000" font-family="sans-serif" font-size="14" font-weight="bold" lengthAdjust="spacing" textLength="29" x="1501" y="65.9951">Util</text><!--MD5=[77140a42179fe8241cde5d77dd05aadc]
cluster config--><polygon fill="#FFFFFF" filter="url(#fyo9tpgn2kzm2)" points="16,6,73,6,80,28.2969,1473,28.2969,1473,557,16,557,16,6" style="stroke:#000000;stroke-width:1.5;"/><line style="stroke:#000000;stroke-width:1.5;" x1="16" x2="80" y1="28.2969" y2="28.2969"/><text fill="#000000" font-family="sans-serif" font-size="14" font-weight="bold" lengthAdjust="spacing" textLength="51" x="20" y="20.9951">config</text><!--MD5=[5c39798b83ace9e75333b1274a725e6c]
class ToolType--><rect codeLine="2" fill="#FEFECE" filter="url(#fyo9tpgn2kzm2)" height="86.4141" id="ToolType" style="stroke:#A80036;stroke-width:1.5;" width="91" x="1513.5" y="86"/><ellipse cx="1529.85" cy="102" fill="#EB937F" rx="11" ry="11" style="stroke:#A80036;stroke-width:1.0;"/><path d="M1528.6469,102.875 L1530.1,102.875 L1530.1,102.9844 C1530.1,103.3906 1530.1313,103.5469 1530.2094,103.7031 C1530.3656,103.9531 1530.6469,104.1094 1530.9438,104.1094 C1531.1938,104.1094 1531.4594,103.9688 1531.6156,103.75 C1531.7406,103.5938 1531.7719,103.4375 1531.7719,102.9844 L1531.7719,101.0625 C1531.7719,100.9063 1531.7719,100.8594 1531.7563,100.7031 C1531.6938,100.2344 1531.3813,99.9219 1530.9281,99.9219 C1530.6781,99.9219 1530.4125,100.0625 1530.2406,100.2813 C1530.1313,100.4531 1530.1,100.6094 1530.1,101.0625 L1530.1,101.1875 L1528.6469,101.1875 L1528.6469,98.7813 L1532.6313,98.7813 L1532.6313,99.6406 C1532.6313,100.0469 1532.6625,100.2188 1532.7406,100.375 C1532.9125,100.625 1533.1938,100.7813 1533.475,100.7813 C1533.7406,100.7813 1534.0063,100.6406 1534.1781,100.4219 C1534.2875,100.25 1534.3188,100.1094 1534.3188,99.6406 L1534.3188,97.0938 L1526.6938,97.0938 C1526.2563,97.0938 1526.1313,97.1094 1525.975,97.2031 C1525.725,97.3594 1525.5688,97.6563 1525.5688,97.9375 C1525.5688,98.2188 1525.7094,98.4688 1525.9281,98.6406 C1526.0844,98.75 1526.2719,98.7813 1526.6938,98.7813 L1526.9438,98.7813 L1526.9438,105.2969 L1526.6938,105.2969 C1526.2875,105.2969 1526.1313,105.3125 1525.975,105.4219 C1525.725,105.5938 1525.5688,105.8594 1525.5688,106.1563 C1525.5688,106.4219 1525.7094,106.6719 1525.9281,106.8281 C1526.0688,106.9531 1526.3031,107 1526.6938,107 L1534.6938,107 L1534.6938,104.4219 C1534.6938,103.9844 1534.6625,103.8438 1534.5844,103.6875 C1534.4125,103.4375 1534.1313,103.2813 1533.85,103.2813 C1533.5844,103.2813 1533.3188,103.3906 1533.1469,103.6406 C1533.0375,103.7969 1533.0063,103.9375 1533.0063,104.4219 L1533.0063,105.2969 L1528.6469,105.2969 L1528.6469,102.875 Z " fill="#000000"/><text fill="#000000" font-family="sans-serif" font-size="12" lengthAdjust="spacing" textLength="56" x="1544.15" y="106.1543">ToolType</text><line style="stroke:#A80036;stroke-width:1.5;" x1="1514.5" x2="1603.5" y1="118" y2="118"/><text fill="#000000" font-family="sans-serif" font-size="11" lengthAdjust="spacing" textLength="66" x="1519.5" y="132.2104">ZOOMMAPS</text><text fill="#000000" font-family="sans-serif" font-size="11" lengthAdjust="spacing" textLength="79" x="1519.5" y="145.0151">CODECHARTS</text><text fill="#000000" font-family="sans-serif" font-size="11" lengthAdjust="spacing" textLength="78" x="1519.5" y="157.8198">EYETRACKING</text><line style="stroke:#A80036;stroke-width:1.5;" x1="1514.5" x2="1603.5" y1="164.4141" y2="164.4141"/><polygon fill="#FFFFFF" filter="url(#fyo9tpgn2kzm2)" points="1492.5,323.5,1587.5,323.5,1594.5,345.7969,1601.5,345.7969,1601.5,376.0938,1492.5,376.0938,1492.5,323.5" style="stroke:#000000;stroke-width:1.5;"/><line style="stroke:#000000;stroke-width:1.5;" x1="1492.5" x2="1594.5" y1="345.7969" y2="345.7969"/><text fill="#000000" font-family="sans-serif" font-size="14" font-weight="bold" lengthAdjust="spacing" textLength="89" x="1496.5" y="338.4951">ZoomMaps</text><polygon fill="#FFFFFF" filter="url(#fyo9tpgn2kzm2)" points="1636.5,323.5,1735.5,323.5,1742.5,345.7969,1749.5,345.7969,1749.5,376.0938,1636.5,376.0938,1636.5,323.5" style="stroke:#000000;stroke-width:1.5;"/><line style="stroke:#000000;stroke-width:1.5;" x1="1636.5" x2="1742.5" y1="345.7969" y2="345.7969"/><text fill="#000000" font-family="sans-serif" font-size="14" font-weight="bold" lengthAdjust="spacing" textLength="93" x="1640.5" y="338.4951">CodeCharts</text><polygon fill="#FFFFFF" filter="url(#fyo9tpgn2kzm2)" points="1785,323.5,1889,323.5,1896,345.7969,1903,345.7969,1903,376.0938,1785,376.0938,1785,323.5" style="stroke:#000000;stroke-width:1.5;"/><line style="stroke:#000000;stroke-width:1.5;" x1="1785" x2="1896" y1="345.7969" y2="345.7969"/><text fill="#000000" font-family="sans-serif" font-size="14" font-weight="bold" lengthAdjust="spacing" textLength="98" x="1789" y="338.4951">EyeTracking</text><polygon fill="#FFFFFF" filter="url(#fyo9tpgn2kzm2)" points="1938.5,323.5,2013.5,323.5,2020.5,345.7969,2027.5,345.7969,2027.5,376.0938,1938.5,376.0938,1938.5,323.5" style="stroke:#000000;stroke-width:1.5;"/><line style="stroke:#000000;stroke-width:1.5;" x1="1938.5" x2="2020.5" y1="345.7969" y2="345.7969"/><text fill="#000000" font-family="sans-serif" font-size="14" font-weight="bold" lengthAdjust="spacing" textLength="69" x="1942.5" y="338.4951">Speicher</text><!--MD5=[8e3d87abfe748ce01856f8098191fe29]
class ConfigClient--><rect codeLine="16" fill="#FEFECE" filter="url(#fyo9tpgn2kzm2)" height="176.0469" id="ConfigClient" style="stroke:#A80036;stroke-width:1.5;" width="336" x="686" y="41"/><ellipse cx="814.25" cy="57" fill="#ADD1B2" rx="11" ry="11" style="stroke:#A80036;stroke-width:1.0;"/><path d="M816.5938,52.6719 C815.6563,52.2344 815.0625,52.0938 814.1875,52.0938 C811.5625,52.0938 809.5625,54.1719 809.5625,56.8906 L809.5625,58.0156 C809.5625,60.5938 811.6719,62.4844 814.5625,62.4844 C815.7813,62.4844 816.9375,62.1875 817.6875,61.6406 C818.2656,61.2344 818.5938,60.7813 818.5938,60.3906 C818.5938,59.9375 818.2031,59.5469 817.7344,59.5469 C817.5156,59.5469 817.3125,59.625 817.125,59.8125 C816.6719,60.2969 816.6719,60.2969 816.4844,60.3906 C816.0625,60.6563 815.375,60.7813 814.6094,60.7813 C812.5625,60.7813 811.2656,59.6875 811.2656,57.9844 L811.2656,56.8906 C811.2656,55.1094 812.5156,53.7969 814.25,53.7969 C814.8281,53.7969 815.4375,53.9531 815.9063,54.2031 C816.3906,54.4844 816.5625,54.7031 816.6563,55.1094 C816.7188,55.5156 816.75,55.6406 816.8906,55.7656 C817.0313,55.9063 817.2656,56.0156 817.4844,56.0156 C817.75,56.0156 818.0156,55.875 818.1875,55.6563 C818.2969,55.5 818.3281,55.3125 818.3281,54.8906 L818.3281,53.4688 C818.3281,53.0313 818.3125,52.9063 818.2188,52.75 C818.0625,52.4844 817.7813,52.3438 817.4844,52.3438 C817.1875,52.3438 816.9844,52.4375 816.7656,52.75 L816.5938,52.6719 Z " fill="#000000"/><text fill="#000000" font-family="sans-serif" font-size="12" lengthAdjust="spacing" textLength="71" x="834.75" y="61.1543">ConfigClient</text><line style="stroke:#A80036;stroke-width:1.5;" x1="687" x2="1021" y1="73" y2="73"/><polygon fill="none" points="697,79,701,83,697,87,693,83" style="stroke:#B38D22;stroke-width:1.0;"/><text fill="#000000" font-family="sans-serif" font-size="11" lengthAdjust="spacing" textLength="159" x="706" y="87.2104">configuration : Configuration</text><line style="stroke:#A80036;stroke-width:1.5;" x1="687" x2="1021" y1="93.8047" y2="93.8047"/><ellipse cx="697" cy="104.8047" fill="#84BE84" rx="3" ry="3" style="stroke:#038048;stroke-width:1.0;"/><text fill="#000000" font-family="sans-serif" font-size="11" lengthAdjust="spacing" textLength="149" x="706" y="108.0151">getConfig() : Configuration</text><ellipse cx="697" cy="117.6094" fill="#84BE84" rx="3" ry="3" style="stroke:#038048;stroke-width:1.0;"/><text fill="#000000" font-family="sans-serif" font-size="11" lengthAdjust="spacing" textLength="276" x="706" y="120.8198">getString(category: String, option: String) : String</text><ellipse cx="697" cy="130.4141" fill="#84BE84" rx="3" ry="3" style="stroke:#038048;stroke-width:1.0;"/><text fill="#000000" font-family="sans-serif" font-size="11" lengthAdjust="spacing" textLength="238" x="706" y="133.6245">getInt(category: String, option: String) : int</text><ellipse cx="697" cy="143.2188" fill="#84BE84" rx="3" ry="3" style="stroke:#038048;stroke-width:1.0;"/><text fill="#000000" font-family="sans-serif" font-size="11" lengthAdjust="spacing" textLength="262" x="706" y="146.4292">getFloat(category: String, option: String) : float</text><ellipse cx="697" cy="156.0234" fill="#84BE84" rx="3" ry="3" style="stroke:#038048;stroke-width:1.0;"/><text fill="#000000" font-family="sans-serif" font-size="11" lengthAdjust="spacing" textLength="281" x="706" y="159.2339">getBool(category: String, option: String) : boolean</text><ellipse cx="697" cy="168.8281" fill="#84BE84" rx="3" ry="3" style="stroke:#038048;stroke-width:1.0;"/><text fill="#000000" font-family="sans-serif" font-size="11" lengthAdjust="spacing" textLength="310" x="706" y="172.0386">setString(category: String, option: String, value: String)</text><ellipse cx="697" cy="181.6328" fill="#84BE84" rx="3" ry="3" style="stroke:#038048;stroke-width:1.0;"/><text fill="#000000" font-family="sans-serif" font-size="11" lengthAdjust="spacing" textLength="272" x="706" y="184.8433">setInt(category: String, option: String, value: Int)</text><ellipse cx="697" cy="194.4375" fill="#84BE84" rx="3" ry="3" style="stroke:#038048;stroke-width:1.0;"/><text fill="#000000" font-family="sans-serif" font-size="11" lengthAdjust="spacing" textLength="296" x="706" y="197.6479">setFloat(category: String, option: String, value: float)</text><ellipse cx="697" cy="207.2422" fill="#84BE84" rx="3" ry="3" style="stroke:#038048;stroke-width:1.0;"/><text fill="#000000" font-family="sans-serif" font-size="11" lengthAdjust="spacing" textLength="236" x="706" y="210.4526">setBool(category: String, option: boolean)</text><!--MD5=[300820d20048966bb67ace7c5b50e9bc]
class ConfigLoader--><rect codeLine="29" fill="#FEFECE" filter="url(#fyo9tpgn2kzm2)" height="60.8047" id="ConfigLoader" style="stroke:#A80036;stroke-width:1.5;" width="303" x="678.5" y="319.5"/><ellipse cx="785.75" cy="335.5" fill="#ADD1B2" rx="11" ry="11" style="stroke:#A80036;stroke-width:1.0;"/><path d="M788.0938,331.1719 C787.1563,330.7344 786.5625,330.5938 785.6875,330.5938 C783.0625,330.5938 781.0625,332.6719 781.0625,335.3906 L781.0625,336.5156 C781.0625,339.0938 783.1719,340.9844 786.0625,340.9844 C787.2813,340.9844 788.4375,340.6875 789.1875,340.1406 C789.7656,339.7344 790.0938,339.2813 790.0938,338.8906 C790.0938,338.4375 789.7031,338.0469 789.2344,338.0469 C789.0156,338.0469 788.8125,338.125 788.625,338.3125 C788.1719,338.7969 788.1719,338.7969 787.9844,338.8906 C787.5625,339.1563 786.875,339.2813 786.1094,339.2813 C784.0625,339.2813 782.7656,338.1875 782.7656,336.4844 L782.7656,335.3906 C782.7656,333.6094 784.0156,332.2969 785.75,332.2969 C786.3281,332.2969 786.9375,332.4531 787.4063,332.7031 C787.8906,332.9844 788.0625,333.2031 788.1563,333.6094 C788.2188,334.0156 788.25,334.1406 788.3906,334.2656 C788.5313,334.4063 788.7656,334.5156 788.9844,334.5156 C789.25,334.5156 789.5156,334.375 789.6875,334.1563 C789.7969,334 789.8281,333.8125 789.8281,333.3906 L789.8281,331.9688 C789.8281,331.5313 789.8125,331.4063 789.7188,331.25 C789.5625,330.9844 789.2813,330.8438 788.9844,330.8438 C788.6875,330.8438 788.4844,330.9375 788.2656,331.25 L788.0938,331.1719 Z " fill="#000000"/><text fill="#000000" font-family="sans-serif" font-size="12" lengthAdjust="spacing" textLength="80" x="806.25" y="339.6543">ConfigLoader</text><line style="stroke:#A80036;stroke-width:1.5;" x1="679.5" x2="980.5" y1="351.5" y2="351.5"/><line style="stroke:#A80036;stroke-width:1.5;" x1="679.5" x2="980.5" y1="359.5" y2="359.5"/><ellipse cx="689.5" cy="370.5" fill="#84BE84" rx="3" ry="3" style="stroke:#038048;stroke-width:1.0;"/><text fill="#000000" font-family="sans-serif" font-size="11" lengthAdjust="spacing" textLength="277" x="698.5" y="373.7104">loadConfiguration(location: String) : Configuration</text><!--MD5=[ea2d2f788233cf0092663a6aa40f7dcc]
class ConfigWriter--><rect codeLine="33" fill="#FEFECE" filter="url(#fyo9tpgn2kzm2)" height="60.8047" id="ConfigWriter" style="stroke:#A80036;stroke-width:1.5;" width="440" x="1017" y="319.5"/><ellipse cx="1195.25" cy="335.5" fill="#ADD1B2" rx="11" ry="11" style="stroke:#A80036;stroke-width:1.0;"/><path d="M1197.5938,331.1719 C1196.6563,330.7344 1196.0625,330.5938 1195.1875,330.5938 C1192.5625,330.5938 1190.5625,332.6719 1190.5625,335.3906 L1190.5625,336.5156 C1190.5625,339.0938 1192.6719,340.9844 1195.5625,340.9844 C1196.7813,340.9844 1197.9375,340.6875 1198.6875,340.1406 C1199.2656,339.7344 1199.5938,339.2813 1199.5938,338.8906 C1199.5938,338.4375 1199.2031,338.0469 1198.7344,338.0469 C1198.5156,338.0469 1198.3125,338.125 1198.125,338.3125 C1197.6719,338.7969 1197.6719,338.7969 1197.4844,338.8906 C1197.0625,339.1563 1196.375,339.2813 1195.6094,339.2813 C1193.5625,339.2813 1192.2656,338.1875 1192.2656,336.4844 L1192.2656,335.3906 C1192.2656,333.6094 1193.5156,332.2969 1195.25,332.2969 C1195.8281,332.2969 1196.4375,332.4531 1196.9063,332.7031 C1197.3906,332.9844 1197.5625,333.2031 1197.6563,333.6094 C1197.7188,334.0156 1197.75,334.1406 1197.8906,334.2656 C1198.0313,334.4063 1198.2656,334.5156 1198.4844,334.5156 C1198.75,334.5156 1199.0156,334.375 1199.1875,334.1563 C1199.2969,334 1199.3281,333.8125 1199.3281,333.3906 L1199.3281,331.9688 C1199.3281,331.5313 1199.3125,331.4063 1199.2188,331.25 C1199.0625,330.9844 1198.7813,330.8438 1198.4844,330.8438 C1198.1875,330.8438 1197.9844,330.9375 1197.7656,331.25 L1197.5938,331.1719 Z " fill="#000000"/><text fill="#000000" font-family="sans-serif" font-size="12" lengthAdjust="spacing" textLength="75" x="1215.75" y="339.6543">ConfigWriter</text><line style="stroke:#A80036;stroke-width:1.5;" x1="1018" x2="1456" y1="351.5" y2="351.5"/><line style="stroke:#A80036;stroke-width:1.5;" x1="1018" x2="1456" y1="359.5" y2="359.5"/><ellipse cx="1028" cy="370.5" fill="#84BE84" rx="3" ry="3" style="stroke:#038048;stroke-width:1.0;"/><text fill="#000000" font-family="sans-serif" font-size="11" lengthAdjust="spacing" textLength="414" x="1037" y="373.7104">writeConfiguration(location: String, configuration: Configuration) : boolean</text><!--MD5=[5b16d89af642fada17b07b2764009d9a]
class ConfigGUI--><rect codeLine="37" fill="#FEFECE" filter="url(#fyo9tpgn2kzm2)" height="73.6094" id="ConfigGUI" style="stroke:#A80036;stroke-width:1.5;" width="216" x="1241" y="92"/><ellipse cx="1315.25" cy="108" fill="#ADD1B2" rx="11" ry="11" style="stroke:#A80036;stroke-width:1.0;"/><path d="M1317.5938,103.6719 C1316.6563,103.2344 1316.0625,103.0938 1315.1875,103.0938 C1312.5625,103.0938 1310.5625,105.1719 1310.5625,107.8906 L1310.5625,109.0156 C1310.5625,111.5938 1312.6719,113.4844 1315.5625,113.4844 C1316.7813,113.4844 1317.9375,113.1875 1318.6875,112.6406 C1319.2656,112.2344 1319.5938,111.7813 1319.5938,111.3906 C1319.5938,110.9375 1319.2031,110.5469 1318.7344,110.5469 C1318.5156,110.5469 1318.3125,110.625 1318.125,110.8125 C1317.6719,111.2969 1317.6719,111.2969 1317.4844,111.3906 C1317.0625,111.6563 1316.375,111.7813 1315.6094,111.7813 C1313.5625,111.7813 1312.2656,110.6875 1312.2656,108.9844 L1312.2656,107.8906 C1312.2656,106.1094 1313.5156,104.7969 1315.25,104.7969 C1315.8281,104.7969 1316.4375,104.9531 1316.9063,105.2031 C1317.3906,105.4844 1317.5625,105.7031 1317.6563,106.1094 C1317.7188,106.5156 1317.75,106.6406 1317.8906,106.7656 C1318.0313,106.9063 1318.2656,107.0156 1318.4844,107.0156 C1318.75,107.0156 1319.0156,106.875 1319.1875,106.6563 C1319.2969,106.5 1319.3281,106.3125 1319.3281,105.8906 L1319.3281,104.4688 C1319.3281,104.0313 1319.3125,103.9063 1319.2188,103.75 C1319.0625,103.4844 1318.7813,103.3438 1318.4844,103.3438 C1318.1875,103.3438 1317.9844,103.4375 1317.7656,103.75 L1317.5938,103.6719 Z " fill="#000000"/><text fill="#000000" font-family="sans-serif" font-size="12" lengthAdjust="spacing" textLength="59" x="1335.75" y="112.1543">ConfigGUI</text><line style="stroke:#A80036;stroke-width:1.5;" x1="1242" x2="1456" y1="124" y2="124"/><rect fill="none" height="6" style="stroke:#C82930;stroke-width:1.0;" width="6" x="1249" y="132"/><text fill="#000000" font-family="sans-serif" font-size="11" lengthAdjust="spacing" textLength="190" x="1261" y="138.2104">configuration_state: Configuration</text><line style="stroke:#A80036;stroke-width:1.5;" x1="1242" x2="1456" y1="144.8047" y2="144.8047"/><ellipse cx="1252" cy="155.8047" fill="#84BE84" rx="3" ry="3" style="stroke:#038048;stroke-width:1.0;"/><text fill="#000000" font-family="sans-serif" font-size="11" lengthAdjust="spacing" textLength="104" x="1261" y="159.0151">showEditor() : void</text><!--MD5=[9b7eb76f801c309757ef5968cb2349d9]
class Configuration--><rect codeLine="42" fill="#FEFECE" filter="url(#fyo9tpgn2kzm2)" height="99.2188" id="Configuration" style="stroke:#A80036;stroke-width:1.5;" width="247" x="202.5" y="79.5"/><ellipse cx="282.25" cy="95.5" fill="#ADD1B2" rx="11" ry="11" style="stroke:#A80036;stroke-width:1.0;"/><path d="M284.5938,91.1719 C283.6563,90.7344 283.0625,90.5938 282.1875,90.5938 C279.5625,90.5938 277.5625,92.6719 277.5625,95.3906 L277.5625,96.5156 C277.5625,99.0938 279.6719,100.9844 282.5625,100.9844 C283.7813,100.9844 284.9375,100.6875 285.6875,100.1406 C286.2656,99.7344 286.5938,99.2813 286.5938,98.8906 C286.5938,98.4375 286.2031,98.0469 285.7344,98.0469 C285.5156,98.0469 285.3125,98.125 285.125,98.3125 C284.6719,98.7969 284.6719,98.7969 284.4844,98.8906 C284.0625,99.1563 283.375,99.2813 282.6094,99.2813 C280.5625,99.2813 279.2656,98.1875 279.2656,96.4844 L279.2656,95.3906 C279.2656,93.6094 280.5156,92.2969 282.25,92.2969 C282.8281,92.2969 283.4375,92.4531 283.9063,92.7031 C284.3906,92.9844 284.5625,93.2031 284.6563,93.6094 C284.7188,94.0156 284.75,94.1406 284.8906,94.2656 C285.0313,94.4063 285.2656,94.5156 285.4844,94.5156 C285.75,94.5156 286.0156,94.375 286.1875,94.1563 C286.2969,94 286.3281,93.8125 286.3281,93.3906 L286.3281,91.9688 C286.3281,91.5313 286.3125,91.4063 286.2188,91.25 C286.0625,90.9844 285.7813,90.8438 285.4844,90.8438 C285.1875,90.8438 284.9844,90.9375 284.7656,91.25 L284.5938,91.1719 Z " fill="#000000"/><text fill="#000000" font-family="sans-serif" font-size="12" lengthAdjust="spacing" textLength="79" x="302.75" y="99.6543">Configuration</text><line style="stroke:#A80036;stroke-width:1.5;" x1="203.5" x2="448.5" y1="111.5" y2="111.5"/><ellipse cx="213.5" cy="122.5" rx="3" ry="3" style="stroke:#038048;stroke-width:1.0;fill:none;"/><text fill="#000000" font-family="sans-serif" font-size="11" lengthAdjust="spacing" textLength="172" x="222.5" y="125.7104">general: GeneralConfiguration</text><ellipse cx="213.5" cy="135.3047" rx="3" ry="3" style="stroke:#038048;stroke-width:1.0;fill:none;"/><text fill="#000000" font-family="sans-serif" font-size="11" lengthAdjust="spacing" textLength="213" x="222.5" y="138.5151">zoom_maps: ZoomMapsConfiguration</text><ellipse cx="213.5" cy="148.1094" rx="3" ry="3" style="stroke:#038048;stroke-width:1.0;fill:none;"/><text fill="#000000" font-family="sans-serif" font-size="11" lengthAdjust="spacing" textLength="216" x="222.5" y="151.3198">code_charts: CodeChartsConfiguration</text><ellipse cx="213.5" cy="160.9141" rx="3" ry="3" style="stroke:#038048;stroke-width:1.0;fill:none;"/><text fill="#000000" font-family="sans-serif" font-size="11" lengthAdjust="spacing" textLength="221" x="222.5" y="164.1245">eye_tracking: EyetrackingConfiguration</text><line style="stroke:#A80036;stroke-width:1.5;" x1="203.5" x2="448.5" y1="170.7188" y2="170.7188"/><!--MD5=[db873fc2485e00d042bea25029027919]
class GeneralConfiguration--><rect codeLine="48" fill="#FEFECE" filter="url(#fyo9tpgn2kzm2)" height="73.6094" id="GeneralConfiguration" style="stroke:#A80036;stroke-width:1.5;" width="166" x="485" y="92"/><ellipse cx="503.6" cy="108" fill="#ADD1B2" rx="11" ry="11" style="stroke:#A80036;stroke-width:1.0;"/><path d="M505.9438,103.6719 C505.0063,103.2344 504.4125,103.0938 503.5375,103.0938 C500.9125,103.0938 498.9125,105.1719 498.9125,107.8906 L498.9125,109.0156 C498.9125,111.5938 501.0219,113.4844 503.9125,113.4844 C505.1313,113.4844 506.2875,113.1875 507.0375,112.6406 C507.6156,112.2344 507.9438,111.7813 507.9438,111.3906 C507.9438,110.9375 507.5531,110.5469 507.0844,110.5469 C506.8656,110.5469 506.6625,110.625 506.475,110.8125 C506.0219,111.2969 506.0219,111.2969 505.8344,111.3906 C505.4125,111.6563 504.725,111.7813 503.9594,111.7813 C501.9125,111.7813 500.6156,110.6875 500.6156,108.9844 L500.6156,107.8906 C500.6156,106.1094 501.8656,104.7969 503.6,104.7969 C504.1781,104.7969 504.7875,104.9531 505.2563,105.2031 C505.7406,105.4844 505.9125,105.7031 506.0063,106.1094 C506.0688,106.5156 506.1,106.6406 506.2406,106.7656 C506.3813,106.9063 506.6156,107.0156 506.8344,107.0156 C507.1,107.0156 507.3656,106.875 507.5375,106.6563 C507.6469,106.5 507.6781,106.3125 507.6781,105.8906 L507.6781,104.4688 C507.6781,104.0313 507.6625,103.9063 507.5688,103.75 C507.4125,103.4844 507.1313,103.3438 506.8344,103.3438 C506.5375,103.3438 506.3344,103.4375 506.1156,103.75 L505.9438,103.6719 Z " fill="#000000"/><text fill="#000000" font-family="sans-serif" font-size="12" lengthAdjust="spacing" textLength="126" x="518.4" y="112.1543">GeneralConfiguration</text><line style="stroke:#A80036;stroke-width:1.5;" x1="486" x2="650" y1="124" y2="124"/><ellipse cx="496" cy="135" rx="3" ry="3" style="stroke:#038048;stroke-width:1.0;fill:none;"/><text fill="#000000" font-family="sans-serif" font-size="11" lengthAdjust="spacing" textLength="140" x="505" y="138.2104">tools : Util.ToolType[0..3]</text><ellipse cx="496" cy="147.8047" rx="3" ry="3" style="stroke:#038048;stroke-width:1.0;fill:none;"/><text fill="#000000" font-family="sans-serif" font-size="11" lengthAdjust="spacing" textLength="122" x="505" y="151.0151">save_location : String</text><line style="stroke:#A80036;stroke-width:1.5;" x1="486" x2="650" y1="157.6094" y2="157.6094"/><!--MD5=[c32c59d693be21f893977656ad129d83]
class ZoomMapsConfiguration--><rect codeLine="52" fill="#FEFECE" filter="url(#fyo9tpgn2kzm2)" height="86.4141" id="ZoomMapsConfiguration" style="stroke:#A80036;stroke-width:1.5;" width="179" x="32.5" y="307"/><ellipse cx="47.5" cy="323" fill="#ADD1B2" rx="11" ry="11" style="stroke:#A80036;stroke-width:1.0;"/><path d="M49.8438,318.6719 C48.9063,318.2344 48.3125,318.0938 47.4375,318.0938 C44.8125,318.0938 42.8125,320.1719 42.8125,322.8906 L42.8125,324.0156 C42.8125,326.5938 44.9219,328.4844 47.8125,328.4844 C49.0313,328.4844 50.1875,328.1875 50.9375,327.6406 C51.5156,327.2344 51.8438,326.7813 51.8438,326.3906 C51.8438,325.9375 51.4531,325.5469 50.9844,325.5469 C50.7656,325.5469 50.5625,325.625 50.375,325.8125 C49.9219,326.2969 49.9219,326.2969 49.7344,326.3906 C49.3125,326.6563 48.625,326.7813 47.8594,326.7813 C45.8125,326.7813 44.5156,325.6875 44.5156,323.9844 L44.5156,322.8906 C44.5156,321.1094 45.7656,319.7969 47.5,319.7969 C48.0781,319.7969 48.6875,319.9531 49.1563,320.2031 C49.6406,320.4844 49.8125,320.7031 49.9063,321.1094 C49.9688,321.5156 50,321.6406 50.1406,321.7656 C50.2813,321.9063 50.5156,322.0156 50.7344,322.0156 C51,322.0156 51.2656,321.875 51.4375,321.6563 C51.5469,321.5 51.5781,321.3125 51.5781,320.8906 L51.5781,319.4688 C51.5781,319.0313 51.5625,318.9063 51.4688,318.75 C51.3125,318.4844 51.0313,318.3438 50.7344,318.3438 C50.4375,318.3438 50.2344,318.4375 50.0156,318.75 L49.8438,318.6719 Z " fill="#000000"/><text fill="#000000" font-family="sans-serif" font-size="12" lengthAdjust="spacing" textLength="147" x="61.5" y="327.1543">ZoomMapsConfiguration</text><line style="stroke:#A80036;stroke-width:1.5;" x1="33.5" x2="210.5" y1="339" y2="339"/><ellipse cx="43.5" cy="350" rx="3" ry="3" style="stroke:#038048;stroke-width:1.0;fill:none;"/><text fill="#000000" font-family="sans-serif" font-size="11" lengthAdjust="spacing" textLength="100" x="52.5" y="353.2104">image_url : String</text><ellipse cx="43.5" cy="362.8047" rx="3" ry="3" style="stroke:#038048;stroke-width:1.0;fill:none;"/><text fill="#000000" font-family="sans-serif" font-size="11" lengthAdjust="spacing" textLength="96" x="52.5" y="366.0151">tutorial : boolean</text><ellipse cx="43.5" cy="375.6094" rx="3" ry="3" style="stroke:#038048;stroke-width:1.0;fill:none;"/><text fill="#000000" font-family="sans-serif" font-size="11" lengthAdjust="spacing" textLength="72" x="52.5" y="378.8198">speed : float</text><line style="stroke:#A80036;stroke-width:1.5;" x1="33.5" x2="210.5" y1="385.4141" y2="385.4141"/><!--MD5=[06cce87b24e55b796d64d2ac3d5e4e56]
class CodeChartsConfiguration--><rect codeLine="57" fill="#FEFECE" filter="url(#fyo9tpgn2kzm2)" height="112.0234" id="CodeChartsConfiguration" style="stroke:#A80036;stroke-width:1.5;" width="181" x="246.5" y="294"/><ellipse cx="261.5" cy="310" fill="#ADD1B2" rx="11" ry="11" style="stroke:#A80036;stroke-width:1.0;"/><path d="M263.8438,305.6719 C262.9063,305.2344 262.3125,305.0938 261.4375,305.0938 C258.8125,305.0938 256.8125,307.1719 256.8125,309.8906 L256.8125,311.0156 C256.8125,313.5938 258.9219,315.4844 261.8125,315.4844 C263.0313,315.4844 264.1875,315.1875 264.9375,314.6406 C265.5156,314.2344 265.8438,313.7813 265.8438,313.3906 C265.8438,312.9375 265.4531,312.5469 264.9844,312.5469 C264.7656,312.5469 264.5625,312.625 264.375,312.8125 C263.9219,313.2969 263.9219,313.2969 263.7344,313.3906 C263.3125,313.6563 262.625,313.7813 261.8594,313.7813 C259.8125,313.7813 258.5156,312.6875 258.5156,310.9844 L258.5156,309.8906 C258.5156,308.1094 259.7656,306.7969 261.5,306.7969 C262.0781,306.7969 262.6875,306.9531 263.1563,307.2031 C263.6406,307.4844 263.8125,307.7031 263.9063,308.1094 C263.9688,308.5156 264,308.6406 264.1406,308.7656 C264.2813,308.9063 264.5156,309.0156 264.7344,309.0156 C265,309.0156 265.2656,308.875 265.4375,308.6563 C265.5469,308.5 265.5781,308.3125 265.5781,307.8906 L265.5781,306.4688 C265.5781,306.0313 265.5625,305.9063 265.4688,305.75 C265.3125,305.4844 265.0313,305.3438 264.7344,305.3438 C264.4375,305.3438 264.2344,305.4375 264.0156,305.75 L263.8438,305.6719 Z " fill="#000000"/><text fill="#000000" font-family="sans-serif" font-size="12" lengthAdjust="spacing" textLength="149" x="275.5" y="314.1543">CodeChartsConfiguration</text><line style="stroke:#A80036;stroke-width:1.5;" x1="247.5" x2="426.5" y1="326" y2="326"/><ellipse cx="257.5" cy="337" rx="3" ry="3" style="stroke:#038048;stroke-width:1.0;fill:none;"/><text fill="#000000" font-family="sans-serif" font-size="11" lengthAdjust="spacing" textLength="100" x="266.5" y="340.2104">image_url : String</text><ellipse cx="257.5" cy="349.8047" rx="3" ry="3" style="stroke:#038048;stroke-width:1.0;fill:none;"/><text fill="#000000" font-family="sans-serif" font-size="11" lengthAdjust="spacing" textLength="96" x="266.5" y="353.0151">tutorial : boolean</text><ellipse cx="257.5" cy="362.6094" rx="3" ry="3" style="stroke:#038048;stroke-width:1.0;fill:none;"/><text fill="#000000" font-family="sans-serif" font-size="11" lengthAdjust="spacing" textLength="95" x="266.5" y="365.8198">strings : String[*]</text><ellipse cx="257.5" cy="375.4141" rx="3" ry="3" style="stroke:#038048;stroke-width:1.0;fill:none;"/><text fill="#000000" font-family="sans-serif" font-size="11" lengthAdjust="spacing" textLength="96" x="266.5" y="378.6245">initial_size : float</text><ellipse cx="257.5" cy="388.2188" rx="3" ry="3" style="stroke:#038048;stroke-width:1.0;fill:none;"/><text fill="#000000" font-family="sans-serif" font-size="11" lengthAdjust="spacing" textLength="92" x="266.5" y="391.4292">timings : float[2]</text><line style="stroke:#A80036;stroke-width:1.5;" x1="247.5" x2="426.5" y1="398.0234" y2="398.0234"/><!--MD5=[bd8aff8153f9e2acdb3b91c1d91a59e4]
class EyetrackingConfiguration--><rect codeLine="64" fill="#FEFECE" filter="url(#fyo9tpgn2kzm2)" height="86.4141" id="EyetrackingConfiguration" style="stroke:#A80036;stroke-width:1.5;" width="181" x="462.5" y="307"/><ellipse cx="477.5" cy="323" fill="#ADD1B2" rx="11" ry="11" style="stroke:#A80036;stroke-width:1.0;"/><path d="M479.8438,318.6719 C478.9063,318.2344 478.3125,318.0938 477.4375,318.0938 C474.8125,318.0938 472.8125,320.1719 472.8125,322.8906 L472.8125,324.0156 C472.8125,326.5938 474.9219,328.4844 477.8125,328.4844 C479.0313,328.4844 480.1875,328.1875 480.9375,327.6406 C481.5156,327.2344 481.8438,326.7813 481.8438,326.3906 C481.8438,325.9375 481.4531,325.5469 480.9844,325.5469 C480.7656,325.5469 480.5625,325.625 480.375,325.8125 C479.9219,326.2969 479.9219,326.2969 479.7344,326.3906 C479.3125,326.6563 478.625,326.7813 477.8594,326.7813 C475.8125,326.7813 474.5156,325.6875 474.5156,323.9844 L474.5156,322.8906 C474.5156,321.1094 475.7656,319.7969 477.5,319.7969 C478.0781,319.7969 478.6875,319.9531 479.1563,320.2031 C479.6406,320.4844 479.8125,320.7031 479.9063,321.1094 C479.9688,321.5156 480,321.6406 480.1406,321.7656 C480.2813,321.9063 480.5156,322.0156 480.7344,322.0156 C481,322.0156 481.2656,321.875 481.4375,321.6563 C481.5469,321.5 481.5781,321.3125 481.5781,320.8906 L481.5781,319.4688 C481.5781,319.0313 481.5625,318.9063 481.4688,318.75 C481.3125,318.4844 481.0313,318.3438 480.7344,318.3438 C480.4375,318.3438 480.2344,318.4375 480.0156,318.75 L479.8438,318.6719 Z " fill="#000000"/><text fill="#000000" font-family="sans-serif" font-size="12" lengthAdjust="spacing" textLength="149" x="491.5" y="327.1543">EyetrackingConfiguration</text><line style="stroke:#A80036;stroke-width:1.5;" x1="463.5" x2="642.5" y1="339" y2="339"/><ellipse cx="473.5" cy="350" rx="3" ry="3" style="stroke:#038048;stroke-width:1.0;fill:none;"/><text fill="#000000" font-family="sans-serif" font-size="11" lengthAdjust="spacing" textLength="100" x="482.5" y="353.2104">image_url : String</text><ellipse cx="473.5" cy="362.8047" rx="3" ry="3" style="stroke:#038048;stroke-width:1.0;fill:none;"/><text fill="#000000" font-family="sans-serif" font-size="11" lengthAdjust="spacing" textLength="96" x="482.5" y="366.0151">tutorial : boolean</text><ellipse cx="473.5" cy="375.6094" rx="3" ry="3" style="stroke:#038048;stroke-width:1.0;fill:none;"/><text fill="#000000" font-family="sans-serif" font-size="11" lengthAdjust="spacing" textLength="108" x="482.5" y="378.8198">poll_intervall : float</text><line style="stroke:#A80036;stroke-width:1.5;" x1="463.5" x2="642.5" y1="385.4141" y2="385.4141"/><!--MD5=[afe9d53419fee3992c281b7cd4c026d6]
class ToolConfiguration--><rect codeLine="69" fill="#FEFECE" filter="url(#fyo9tpgn2kzm2)" height="73.6094" id="ToolConfiguration" style="stroke:#A80036;stroke-width:1.5;" width="137" x="268.5" y="467"/><ellipse cx="283.5" cy="483" fill="#A9DCDF" rx="11" ry="11" style="stroke:#A80036;stroke-width:1.0;"/><path d="M285.5781,484.8125 L285.9688,485.7969 L285.5781,485.7969 C285.125,485.7969 285.0156,485.8125 284.8594,485.9219 C284.6094,486.0781 284.4531,486.3594 284.4531,486.6563 C284.4531,486.9219 284.5938,487.1719 284.8125,487.3281 C284.9531,487.4531 285.1563,487.5 285.5781,487.5 L287.9375,487.5 C288.2969,487.5 288.5156,487.4688 288.6563,487.375 C288.9063,487.2344 289.0625,486.9375 289.0625,486.6563 C289.0625,486.375 288.9219,486.125 288.7031,485.9688 C288.5313,485.8281 288.375,485.7969 287.9063,485.7969 L284.5156,477.5938 L280.8438,477.5938 C280.3906,477.5938 280.2656,477.6094 280.1094,477.7031 C279.8594,477.875 279.7031,478.1563 279.7031,478.4375 C279.7031,478.7188 279.8438,478.9688 280.0625,479.1406 C280.2344,479.25 280.4063,479.2813 280.8438,479.2813 L281.9219,479.2813 L279.2813,485.7969 C278.8594,485.7969 278.7031,485.8125 278.5469,485.9219 C278.2969,486.0781 278.1406,486.3594 278.1406,486.6563 C278.1406,487.2188 278.5156,487.5 279.2656,487.5 L281.5313,487.5 C281.8906,487.5 282.1094,487.4688 282.2344,487.375 C282.5,487.2344 282.6406,486.9375 282.6406,486.6563 C282.6406,486.375 282.5156,486.125 282.2969,485.9531 C282.125,485.8281 281.9844,485.7969 281.5313,485.7969 L281.1406,485.7969 L281.5313,484.8125 L285.5781,484.8125 Z M284.875,483.1094 L282.2031,483.1094 L283.5469,479.8438 L284.875,483.1094 Z " fill="#000000"/><text fill="#000000" font-family="sans-serif" font-size="12" font-style="italic" lengthAdjust="spacing" textLength="105" x="297.5" y="487.1543">ToolConfiguration</text><line style="stroke:#A80036;stroke-width:1.5;" x1="269.5" x2="404.5" y1="499" y2="499"/><ellipse cx="279.5" cy="510" rx="3" ry="3" style="stroke:#038048;stroke-width:1.0;fill:none;"/><text fill="#000000" font-family="sans-serif" font-size="11" font-style="italic" lengthAdjust="spacing" textLength="101" x="288.5" y="513.2104">image_url : String</text><ellipse cx="279.5" cy="522.8047" rx="3" ry="3" style="stroke:#038048;stroke-width:1.0;fill:none;"/><text fill="#000000" font-family="sans-serif" font-size="11" font-style="italic" lengthAdjust="spacing" textLength="97" x="288.5" y="526.0151">tutorial : boolean</text><line style="stroke:#A80036;stroke-width:1.5;" x1="269.5" x2="404.5" y1="532.6094" y2="532.6094"/><!--MD5=[9eb2263ee2866d3d651c6028e701c926]
reverse link ConfigClient to ConfigLoader--><path codeLine="76" d="M842.989,230.477 C839.44,262.856 835.776,296.295 833.248,319.365 " fill="none" id="ConfigClient-backto-ConfigLoader" style="stroke:#A80036;stroke-width:1.0;"/><polygon fill="#FFFFFF" points="844.446,217.184,839.8164,222.7127,843.1392,229.1126,847.7688,223.5839,844.446,217.184" style="stroke:#A80036;stroke-width:1.0;"/><polygon fill="#000000" points="845.5447,250.5962,841.6379,259.2673,847.4808,259.9076,845.5447,250.5962" style="stroke:#000000;stroke-width:1.0;"/><text fill="#000000" font-family="sans-serif" font-size="13" lengthAdjust="spacing" textLength="113" x="854" y="260.0669">lädt Konfiguration</text><!--MD5=[0f8a66dc06f30b4b6f63041c29f86134]
reverse link ConfigClient to ConfigWriter--><path codeLine="79" d="M1017.78,223.651 C1077.98,258.07 1141.9,294.624 1185.09,319.319 " fill="none" id="ConfigClient-backto-ConfigWriter" style="stroke:#A80036;stroke-width:1.0;"/><polygon fill="#FFFFFF" points="1006.2,217.026,1009.421,223.4777,1016.6153,222.9859,1013.3943,216.5342,1006.2,217.026" style="stroke:#A80036;stroke-width:1.0;"/><polygon fill="#000000" points="1079.6595,253.0845,1086.0527,260.1256,1088.9704,255.023,1079.6595,253.0845" style="stroke:#000000;stroke-width:1.0;"/><text fill="#000000" font-family="sans-serif" font-size="13" lengthAdjust="spacing" textLength="140" x="1093" y="260.0669">schreibt Konfiguration</text><!--MD5=[4464c07cddfcac78169f77b14debe7ea]
link ConfigClient to ConfigGUI--><path codeLine="82" d="M1022.28,129 C1094.59,129 1176.98,129 1240.94,129 " fill="none" id="ConfigClient-ConfigGUI" style="stroke:#A80036;stroke-width:1.0;"/><polygon fill="#000000" points="1039.5,117.5664,1048.5451,120.5053,1048.5451,114.6275,1039.5,117.5664" style="stroke:#000000;stroke-width:1.0;"/><text fill="#000000" font-family="sans-serif" font-size="13" lengthAdjust="spacing" textLength="169" x="1053.5" y="122.0669">Konfigurationsbearbeitung</text><!--MD5=[dfff62fa75b72e0d67b74a0567b8b59a]
link Configuration to GeneralConfiguration--><path codeLine="84" d="M449.836,129 C459.794,129 469.751,129 479.709,129 " fill="none" id="Configuration-to-GeneralConfiguration" style="stroke:#A80036;stroke-width:1.0;stroke-dasharray:7.0,7.0;"/><polygon fill="#A80036" points="484.916,129,475.916,125,479.916,129,475.916,133,484.916,129" style="stroke:#A80036;stroke-width:1.0;"/><!--MD5=[696ef16380d08b622154f6b16caffa65]
link Configuration to ZoomMapsConfiguration--><path codeLine="85" d="M280.726,178.603 C246.183,215.686 198.913,266.432 164.957,302.885 " fill="none" id="Configuration-to-ZoomMapsConfiguration" style="stroke:#A80036;stroke-width:1.0;stroke-dasharray:7.0,7.0;"/><polygon fill="#A80036" points="161.299,306.811,170.3598,302.9508,164.7066,303.152,164.5054,297.4987,161.299,306.811" style="stroke:#A80036;stroke-width:1.0;"/><!--MD5=[13859a0532335e82db533fae8d5a7156]
link Configuration to CodeChartsConfiguration--><path codeLine="86" d="M328.441,178.603 C330.076,211.152 332.24,254.227 333.982,288.924 " fill="none" id="Configuration-to-CodeChartsConfiguration" style="stroke:#A80036;stroke-width:1.0;stroke-dasharray:7.0,7.0;"/><polygon fill="#A80036" points="334.236,293.98,337.7783,284.7902,333.9845,288.9863,329.7884,285.1926,334.236,293.98" style="stroke:#A80036;stroke-width:1.0;"/><!--MD5=[384cd599c7160702497c7f4ba6273d5b]
link Configuration to EyetrackingConfiguration--><path codeLine="87" d="M376.379,178.603 C414.972,215.836 467.842,266.843 505.658,303.327 " fill="none" id="Configuration-to-EyetrackingConfiguration" style="stroke:#A80036;stroke-width:1.0;stroke-dasharray:7.0,7.0;"/><polygon fill="#A80036" points="509.27,306.811,505.5716,297.6829,505.6722,303.3389,500.0162,303.4394,509.27,306.811" style="stroke:#A80036;stroke-width:1.0;"/><!--MD5=[e1a00d399c63d13b5ba8cf93a913bbc6]
link ZoomMapsConfiguration to ToolConfiguration--><path codeLine="89" d="M181.604,393.139 C208.901,412.437 241.378,435.398 269.566,455.326 " fill="none" id="ZoomMapsConfiguration-to-ToolConfiguration" style="stroke:#A80036;stroke-width:1.0;"/><polygon fill="none" points="273.745,449.708,286.035,466.969,265.663,461.139,273.745,449.708" style="stroke:#A80036;stroke-width:1.0;"/><!--MD5=[e43d181bf247fc9037e6677b5cfd12ed]
link CodeChartsConfiguration to ToolConfiguration--><path codeLine="90" d="M337,406.305 C337,419.405 337,433.393 337,446.544 " fill="none" id="CodeChartsConfiguration-to-ToolConfiguration" style="stroke:#A80036;stroke-width:1.0;"/><polygon fill="none" points="344,446.919,337,466.919,330,446.919,344,446.919" style="stroke:#A80036;stroke-width:1.0;"/><!--MD5=[0bb34211a206bd95311a5e2ca5502244]
link EyetrackingConfiguration to ToolConfiguration--><path codeLine="91" d="M493.119,393.139 C465.694,412.437 433.067,435.398 404.748,455.326 " fill="none" id="EyetrackingConfiguration-to-ToolConfiguration" style="stroke:#A80036;stroke-width:1.0;"/><polygon fill="none" points="408.586,461.184,388.202,466.969,400.529,449.735,408.586,461.184" style="stroke:#A80036;stroke-width:1.0;"/><!--MD5=[eddfdf53f3fb9fb066844f2777207310]
link ConfigClient to ZoomMaps--><path codeLine="93" d="M1022.01,171.034 C1190.93,212.848 1432.06,274.272 1473,294 C1489.01,301.714 1505.04,313.078 1518.08,323.478 " fill="none" id="ConfigClient-ZoomMaps" style="stroke:#A80036;stroke-width:1.0;"/><!--MD5=[1a0e30a01e0643e5c0dad6f96d29353e]
link ConfigClient to CodeCharts--><path codeLine="94" d="M1022.23,170.996 C1085.38,186.007 1157.87,202.786 1224,217 C1398.87,254.588 1455.38,221.748 1619,294 C1635.4,301.242 1651.61,312.675 1664.67,323.245 " fill="none" id="ConfigClient-CodeCharts" style="stroke:#A80036;stroke-width:1.0;"/><!--MD5=[df16767b60433af21d1fca2dc4300a59]
link ConfigClient to EyeTracking--><path codeLine="95" d="M1022.05,174.447 C1085.03,189.798 1157.45,205.908 1224,217 C1356.61,239.101 1391.98,227.497 1525,247 C1633.41,262.895 1666.34,250.725 1767,294 C1783.9,301.267 1800.75,312.703 1814.36,323.269 " fill="none" id="ConfigClient-EyeTracking" style="stroke:#A80036;stroke-width:1.0;"/><!--MD5=[64b5ecc53042c38d3f6eafbed84ef4a2]
link ConfigClient to Speicher--><path codeLine="96" d="M1022.37,175.436 C1085.23,190.847 1157.48,206.742 1224,217 C1532.02,264.496 1639.16,160.959 1921,294 C1935.83,301.002 1949.75,312.675 1960.63,323.469 " fill="none" id="ConfigClient-Speicher" style="stroke:#A80036;stroke-width:1.0;"/><!--MD5=[adf8066b9d8f131ae6815de54e517088]
@startuml
package Util {
  enum ToolType {
  ZOOMMAPS
  CODECHARTS
  EYETRACKING
  }
}


package ZoomMaps {}
package CodeCharts {}
package EyeTracking {}
package Speicher {}

package config {
  class ConfigClient {
    # configuration : Configuration
    + getConfig() : Configuration
    + getString(category: String, option: String) : String
    + getInt(category: String, option: String) : int
    + getFloat(category: String, option: String) : float
    + getBool(category: String, option: String) : boolean
    + setString(category: String, option: String, value: String)
    + setInt(category: String, option: String, value: Int)
    + setFloat(category: String, option: String, value: float)
    + setBool(category: String, option: boolean)
  }

  class ConfigLoader {
    + loadConfiguration(location: String) : Configuration
  }

  class ConfigWriter {
    + writeConfiguration(location: String, configuration: Configuration) : boolean
  }

  class ConfigGUI {
    - configuration_state: Configuration
    + showEditor() : void
  }

  class Configuration {
    + general: GeneralConfiguration
    + zoom_maps: ZoomMapsConfiguration
    + code_charts: CodeChartsConfiguration
    + eye_tracking: EyetrackingConfiguration
  }
  class GeneralConfiguration {
    + tools : Util.ToolType[0..3]
    + save_location : String
  }
  class ZoomMapsConfiguration {
    + image_url : String
    + tutorial : boolean
    + speed : float
  }
  class CodeChartsConfiguration {
    + image_url : String
    + tutorial : boolean
    + strings : String[*]
    + initial_size : float
    + timings : float[2]
  }
  class EyetrackingConfiguration {
    + image_url : String
    + tutorial : boolean
    + poll_intervall : float
  }
  abstract ToolConfiguration {
    + {abstract} image_url : String
    + {abstract} tutorial : boolean
  }

  ' ConfigClient ..> Configuration

  ConfigClient o- - ConfigLoader : < lädt Konfiguration
  ' ConfigLoader ..> Configuration

  ConfigClient o- - ConfigWriter : < schreibt Konfiguration
  ' ConfigWriter ..> Configuration

  ConfigClient -r- ConfigGUI : < Konfigurationsbearbeitung

  Configuration .r.> GeneralConfiguration
  Configuration ..> ZoomMapsConfiguration
  Configuration ..> CodeChartsConfiguration
  Configuration ..> EyetrackingConfiguration

  ZoomMapsConfiguration - -|> ToolConfiguration
  CodeChartsConfiguration - -|> ToolConfiguration
  EyetrackingConfiguration - -|> ToolConfiguration
}
ConfigClient - - ZoomMaps
ConfigClient - - CodeCharts
ConfigClient - - EyeTracking
ConfigClient - - Speicher
@enduml

@startuml
package Util {
  enum ToolType {
  ZOOMMAPS
  CODECHARTS
  EYETRACKING
  }
}


package ZoomMaps {}
package CodeCharts {}
package EyeTracking {}
package Speicher {}

package config {
  class ConfigClient {
    # configuration : Configuration
    + getConfig() : Configuration
    + getString(category: String, option: String) : String
    + getInt(category: String, option: String) : int
    + getFloat(category: String, option: String) : float
    + getBool(category: String, option: String) : boolean
    + setString(category: String, option: String, value: String)
    + setInt(category: String, option: String, value: Int)
    + setFloat(category: String, option: String, value: float)
    + setBool(category: String, option: boolean)
  }

  class ConfigLoader {
    + loadConfiguration(location: String) : Configuration
  }

  class ConfigWriter {
    + writeConfiguration(location: String, configuration: Configuration) : boolean
  }

  class ConfigGUI {
    - configuration_state: Configuration
    + showEditor() : void
  }

  class Configuration {
    + general: GeneralConfiguration
    + zoom_maps: ZoomMapsConfiguration
    + code_charts: CodeChartsConfiguration
    + eye_tracking: EyetrackingConfiguration
  }
  class GeneralConfiguration {
    + tools : Util.ToolType[0..3]
    + save_location : String
  }
  class ZoomMapsConfiguration {
    + image_url : String
    + tutorial : boolean
    + speed : float
  }
  class CodeChartsConfiguration {
    + image_url : String
    + tutorial : boolean
    + strings : String[*]
    + initial_size : float
    + timings : float[2]
  }
  class EyetrackingConfiguration {
    + image_url : String
    + tutorial : boolean
    + poll_intervall : float
  }
  abstract ToolConfiguration {
    + {abstract} image_url : String
    + {abstract} tutorial : boolean
  }


  ConfigClient o- - ConfigLoader : < lädt Konfiguration

  ConfigClient o- - ConfigWriter : < schreibt Konfiguration

  ConfigClient -r- ConfigGUI : < Konfigurationsbearbeitung

  Configuration .r.> GeneralConfiguration
  Configuration ..> ZoomMapsConfiguration
  Configuration ..> CodeChartsConfiguration
  Configuration ..> EyetrackingConfiguration

  ZoomMapsConfiguration - -|> ToolConfiguration
  CodeChartsConfiguration - -|> ToolConfiguration
  EyetrackingConfiguration - -|> ToolConfiguration
}
ConfigClient - - ZoomMaps
ConfigClient - - CodeCharts
ConfigClient - - EyeTracking
ConfigClient - - Speicher
@enduml

PlantUML version 1.2021.14beta4(Unknown compile time)
(GPL source distribution)
Java Runtime: Java(TM) SE Runtime Environment
JVM: Java HotSpot(TM) 64-Bit Server VM
Default Encoding: UTF-8
Language: en
Country: US
--></g></svg>