<?xml version="1.0" encoding="UTF-8" standalone="no"?><svg xmlns="http://www.w3.org/2000/svg" xmlns:xlink="http://www.w3.org/1999/xlink" contentScriptType="application/ecmascript" contentStyleType="text/css" height="1607px" preserveAspectRatio="none" style="width:1122px;height:1607px;background:#FFFFFF;" version="1.1" viewBox="0 0 1122 1607" width="1122px" zoomAndPan="magnify"><defs><filter height="300%" id="flhut11nuy18x" width="300%" x="-1" y="-1"><feGaussianBlur result="blurOut" stdDeviation="2.0"/><feColorMatrix in="blurOut" result="blurOut2" type="matrix" values="0 0 0 0 0 0 0 0 0 0 0 0 0 0 0 0 0 0 .4 0"/><feOffset dx="4.0" dy="4.0" in="blurOut2" result="blurOut3"/><feBlend in="SourceGraphic" in2="blurOut3" mode="normal"/></filter></defs><g><!--MD5=[f73af55262f8d247b61c1d9315ebf9db]
cluster i--><rect fill="#FEFECE" filter="url(#flhut11nuy18x)" height="1010.5" rx="12.5" ry="12.5" style="stroke:#A80036;stroke-width:1.5;" width="419" x="691" y="130.5"/><rect fill="#FFFFFF" height="978.2031" rx="12.5" ry="12.5" style="stroke:#FFFFFF;stroke-width:1.0;" width="413" x="694" y="159.7969"/><line style="stroke:#A80036;stroke-width:1.5;" x1="691" x2="1110" y1="156.7969" y2="156.7969"/><text fill="#000000" font-family="sans-serif" font-size="14" lengthAdjust="spacing" textLength="38" x="881.5" y="147.4951">Input</text><!--MD5=[03c9795141fffc1586b10a901fd13311]
cluster a--><rect fill="#FEFECE" filter="url(#flhut11nuy18x)" height="837" rx="12.5" ry="12.5" style="stroke:#A80036;stroke-width:1.5;" width="602" x="49" y="486"/><rect fill="#FFFFFF" height="804.7031" rx="12.5" ry="12.5" style="stroke:#FFFFFF;stroke-width:1.0;" width="596" x="52" y="515.2969"/><line style="stroke:#A80036;stroke-width:1.5;" x1="49" x2="651" y1="512.2969" y2="512.2969"/><text fill="#000000" font-family="sans-serif" font-size="14" lengthAdjust="spacing" textLength="55" x="322.5" y="502.9951">Analyse</text><!--MD5=[681afae6640faca68c2d704cb11e6132]
cluster o--><rect fill="#FEFECE" filter="url(#flhut11nuy18x)" height="393" rx="12.5" ry="12.5" style="stroke:#A80036;stroke-width:1.5;" width="256" x="691" y="1202"/><rect fill="#FFFFFF" height="360.7031" rx="12.5" ry="12.5" style="stroke:#FFFFFF;stroke-width:1.0;" width="250" x="694" y="1231.2969"/><line style="stroke:#A80036;stroke-width:1.5;" x1="691" x2="947" y1="1228.2969" y2="1228.2969"/><text fill="#000000" font-family="sans-serif" font-size="14" lengthAdjust="spacing" textLength="51" x="793.5" y="1218.9951">Output</text><g id="i.iat"><rect fill="#FEFECE" filter="url(#flhut11nuy18x)" height="50.2656" rx="12.5" ry="12.5" style="stroke:#A80036;stroke-width:1.5;" width="161" x="763.5" y="363"/><line style="stroke:#A80036;stroke-width:1.5;" x1="763.5" x2="924.5" y1="389.2969" y2="389.2969"/><text fill="#000000" font-family="sans-serif" font-size="14" lengthAdjust="spacing" textLength="136" x="776" y="380.9951">InputAnalyseTypes</text><text fill="#000000" font-family="sans-serif" font-size="12" lengthAdjust="spacing" textLength="141" x="768.5" y="405.4355">Auswahl Analyse Typen</text></g><g id="i.id"><rect fill="#FEFECE" filter="url(#flhut11nuy18x)" height="50.2656" rx="12.5" ry="12.5" style="stroke:#A80036;stroke-width:1.5;" width="174" x="757" y="668"/><line style="stroke:#A80036;stroke-width:1.5;" x1="757" x2="931" y1="694.2969" y2="694.2969"/><text fill="#000000" font-family="sans-serif" font-size="14" lengthAdjust="spacing" textLength="72" x="808" y="685.9951">InputData</text><text fill="#000000" font-family="sans-serif" font-size="12" lengthAdjust="spacing" textLength="154" x="762" y="710.4355">Eingabe benötigter Daten</text></g><g id="i.wfs"><rect fill="#FEFECE" filter="url(#flhut11nuy18x)" height="50.2656" rx="12.5" ry="12.5" style="stroke:#A80036;stroke-width:1.5;" width="355" x="723.5" y="924"/><line style="stroke:#A80036;stroke-width:1.5;" x1="723.5" x2="1078.5" y1="950.2969" y2="950.2969"/><text fill="#000000" font-family="sans-serif" font-size="14" lengthAdjust="spacing" textLength="178" x="812" y="941.9951">WaitForSpeichermedium</text><text fill="#000000" font-family="sans-serif" font-size="12" lengthAdjust="spacing" textLength="335" x="728.5" y="966.4355">Benötigte Daten werden vom Speichermedium besorgt</text></g><g id="i.idfc"><rect fill="#FEFECE" filter="url(#flhut11nuy18x)" height="50.2656" rx="12.5" ry="12.5" style="stroke:#A80036;stroke-width:1.5;" width="264" x="723" y="1067"/><line style="stroke:#A80036;stroke-width:1.5;" x1="723" x2="987" y1="1093.2969" y2="1093.2969"/><text fill="#000000" font-family="sans-serif" font-size="14" lengthAdjust="spacing" textLength="138" x="786" y="1084.9951">InputDataForComp</text><text fill="#000000" font-family="sans-serif" font-size="12" lengthAdjust="spacing" textLength="244" x="728" y="1109.4355">Eingabe benötigter Daten zum Vergleich</text></g><ellipse cx="844" cy="202.5" fill="#000000" filter="url(#flhut11nuy18x)" rx="10" ry="10" style="stroke:none;stroke-width:1.0;"/><g id="a.d"><rect fill="#FEFECE" filter="url(#flhut11nuy18x)" height="64.2344" rx="12.5" ry="12.5" style="stroke:#A80036;stroke-width:1.5;" width="202" x="253" y="917"/><line style="stroke:#A80036;stroke-width:1.5;" x1="253" x2="455" y1="943.2969" y2="943.2969"/><text fill="#000000" font-family="sans-serif" font-size="14" lengthAdjust="spacing" textLength="74" x="317" y="934.9951">Diagramm</text><text fill="#000000" font-family="sans-serif" font-size="12" lengthAdjust="spacing" textLength="161" x="258" y="959.4355">Analyse und Erstellung der</text><text fill="#000000" font-family="sans-serif" font-size="12" lengthAdjust="spacing" textLength="182" x="258" y="973.4043">ausgewählten Diagrammtypen</text></g><g id="a.v"><rect fill="#FEFECE" filter="url(#flhut11nuy18x)" height="50.2656" rx="12.5" ry="12.5" style="stroke:#A80036;stroke-width:1.5;" width="236" x="73" y="1067"/><line style="stroke:#A80036;stroke-width:1.5;" x1="73" x2="309" y1="1093.2969" y2="1093.2969"/><text fill="#000000" font-family="sans-serif" font-size="14" lengthAdjust="spacing" textLength="51" x="165.5" y="1084.9951">Verlauf</text><text fill="#000000" font-family="sans-serif" font-size="12" lengthAdjust="spacing" textLength="216" x="78" y="1109.4355">Analyse und Erstellung des Verlaufs</text></g><g id="a.h"><rect fill="#FEFECE" filter="url(#flhut11nuy18x)" height="64.2344" rx="12.5" ry="12.5" style="stroke:#A80036;stroke-width:1.5;" width="195" x="423.5" y="1060"/><line style="stroke:#A80036;stroke-width:1.5;" x1="423.5" x2="618.5" y1="1086.2969" y2="1086.2969"/><text fill="#000000" font-family="sans-serif" font-size="14" lengthAdjust="spacing" textLength="66" x="488" y="1077.9951">Heatmap</text><text fill="#000000" font-family="sans-serif" font-size="12" lengthAdjust="spacing" textLength="161" x="428.5" y="1102.4355">Analyse und Erstellung der</text><text fill="#000000" font-family="sans-serif" font-size="12" lengthAdjust="spacing" textLength="175" x="428.5" y="1116.4043">ausgewählten Heatmaptypen</text></g><g id="a.af"><rect fill="#FEFECE" filter="url(#flhut11nuy18x)" height="50.2656" rx="12.5" ry="12.5" style="stroke:#A80036;stroke-width:1.5;" width="176" x="328" y="1249"/><line style="stroke:#A80036;stroke-width:1.5;" x1="328" x2="504" y1="1275.2969" y2="1275.2969"/><text fill="#000000" font-family="sans-serif" font-size="14" lengthAdjust="spacing" textLength="114" x="359" y="1266.9951">AnalyseFinished</text><text fill="#000000" font-family="sans-serif" font-size="12" lengthAdjust="spacing" textLength="156" x="333" y="1291.4355">Rückgabe der Ergebnisse</text></g><ellipse cx="364" cy="693" fill="#000000" filter="url(#flhut11nuy18x)" rx="10" ry="10" style="stroke:none;stroke-width:1.0;"/><path d="M73.5,548 L73.5,837.8281 L318.5,837.8281 L318.5,558 L308.5,548 L73.5,548 " fill="#FBFB77" filter="url(#flhut11nuy18x)" style="stroke:#A80036;stroke-width:1.0;"/><path d="M308.5,548 L308.5,558 L318.5,558 L308.5,548 " fill="#FBFB77" style="stroke:#A80036;stroke-width:1.0;"/><text fill="#000000" font-family="sans-serif" font-size="13" lengthAdjust="spacing" textLength="83" x="79.5" y="565.0669">Bedingungen</text><text fill="#000000" font-family="sans-serif" font-size="13" lengthAdjust="spacing" textLength="147" x="79.5" y="582.7075">analyseTypes contains</text><text fill="#000000" font-family="sans-serif" font-size="10" lengthAdjust="spacing" textLength="6" x="230.5" y="577.415">x</text><text fill="#000000" font-family="sans-serif" font-size="10" lengthAdjust="spacing" textLength="7" x="79.5" y="595.0557">1</text><text fill="#000000" font-family="sans-serif" font-size="13" lengthAdjust="spacing" textLength="53" x="90.5" y="600.3481">R OR VT</text><text fill="#000000" font-family="sans-serif" font-size="10" lengthAdjust="spacing" textLength="6" x="79.5" y="612.6963">2</text><text fill="#000000" font-family="sans-serif" font-size="13" lengthAdjust="spacing" textLength="117" x="89.5" y="617.9888">V AND !R AND !VT</text><text fill="#000000" font-family="sans-serif" font-size="10" lengthAdjust="spacing" textLength="7" x="79.5" y="630.3369">3</text><text fill="#000000" font-family="sans-serif" font-size="13" lengthAdjust="spacing" textLength="213" x="90.5" y="635.6294">(H OR C) AND !V AND !R AND !VT</text><text fill="#000000" font-family="sans-serif" font-size="10" lengthAdjust="spacing" textLength="7" x="79.5" y="647.9775">4</text><text fill="#000000" font-family="sans-serif" font-size="13" lengthAdjust="spacing" textLength="105" x="90.5" y="653.27">!V AND (H OR C)</text><text fill="#000000" font-family="sans-serif" font-size="10" lengthAdjust="spacing" textLength="6" x="79.5" y="665.6182">5</text><text fill="#000000" font-family="sans-serif" font-size="13" lengthAdjust="spacing" textLength="9" x="89.5" y="670.9106">V</text><text fill="#000000" font-family="sans-serif" font-size="10" lengthAdjust="spacing" textLength="7" x="79.5" y="683.2588">6</text><text fill="#000000" font-family="sans-serif" font-size="13" lengthAdjust="spacing" textLength="114" x="90.5" y="688.5513">!V AND !H AND !C</text><text fill="#000000" font-family="sans-serif" font-size="10" lengthAdjust="spacing" textLength="6" x="79.5" y="700.8994">7</text><text fill="#000000" font-family="sans-serif" font-size="13" lengthAdjust="spacing" textLength="45" x="89.5" y="706.1919">H OR C</text><text fill="#000000" font-family="sans-serif" font-size="10" lengthAdjust="spacing" textLength="7" x="79.5" y="718.54">8</text><text fill="#000000" font-family="sans-serif" font-size="13" lengthAdjust="spacing" textLength="64" x="90.5" y="723.8325">!H AND !C</text><text fill="#000000" font-family="sans-serif" font-size="13" lengthAdjust="spacing" textLength="0" x="83.5" y="738.9653"/><text fill="#000000" font-family="sans-serif" font-size="13" lengthAdjust="spacing" textLength="84" x="79.5" y="754.0981">Abkürzungen</text><text fill="#000000" font-family="sans-serif" font-size="13" lengthAdjust="spacing" textLength="88" x="79.5" y="769.231">H = HEATMAP</text><text fill="#000000" font-family="sans-serif" font-size="13" lengthAdjust="spacing" textLength="125" x="79.5" y="784.3638">C = COMPHEATMAP</text><text fill="#000000" font-family="sans-serif" font-size="13" lengthAdjust="spacing" textLength="85" x="79.5" y="799.4966">V = VERLAUF</text><text fill="#000000" font-family="sans-serif" font-size="13" lengthAdjust="spacing" textLength="135" x="79.5" y="814.6294">R = RELFRQIMGAREA</text><text fill="#000000" font-family="sans-serif" font-size="13" lengthAdjust="spacing" textLength="135" x="79.5" y="829.7622">VT = VIEWTIMEDISTR</text><g id="o.an"><rect fill="#FEFECE" filter="url(#flhut11nuy18x)" height="50.2656" rx="12.5" ry="12.5" style="stroke:#A80036;stroke-width:1.5;" width="187" x="726.5" y="1394"/><line style="stroke:#A80036;stroke-width:1.5;" x1="726.5" x2="913.5" y1="1420.2969" y2="1420.2969"/><text fill="#000000" font-family="sans-serif" font-size="14" lengthAdjust="spacing" textLength="58" x="791" y="1411.9951">Anzeige</text><text fill="#000000" font-family="sans-serif" font-size="12" lengthAdjust="spacing" textLength="167" x="731.5" y="1436.4355">Ausgabe analysierter Daten</text></g><g id="o.e"><rect fill="#FEFECE" filter="url(#flhut11nuy18x)" height="50.2656" rx="12.5" ry="12.5" style="stroke:#A80036;stroke-width:1.5;" width="200" x="723" y="1521"/><line style="stroke:#A80036;stroke-width:1.5;" x1="723" x2="923" y1="1547.2969" y2="1547.2969"/><text fill="#000000" font-family="sans-serif" font-size="14" lengthAdjust="spacing" textLength="49" x="798.5" y="1538.9951">Export</text><text fill="#000000" font-family="sans-serif" font-size="12" lengthAdjust="spacing" textLength="180" x="728" y="1563.4355">Export der analysierten Daten</text></g><ellipse cx="776" cy="1274" fill="#000000" filter="url(#flhut11nuy18x)" rx="10" ry="10" style="stroke:none;stroke-width:1.0;"/><path d="M6,103 L6,302.0313 L664,302.0313 L664,113 L654,103 L6,103 " fill="#FBFB77" filter="url(#flhut11nuy18x)" style="stroke:#A80036;stroke-width:1.0;"/><path d="M654,103 L654,113 L664,113 L654,103 " fill="#FBFB77" style="stroke:#A80036;stroke-width:1.0;"/><text fill="#000000" font-family="sans-serif" font-size="13" lengthAdjust="spacing" textLength="83" x="12" y="120.0669">Bedingungen</text><text fill="#000000" font-family="sans-serif" font-size="10" lengthAdjust="spacing" textLength="7" x="12" y="132.415">1</text><text fill="#000000" font-family="sans-serif" font-size="13" lengthAdjust="spacing" textLength="146" x="23" y="137.7075">analysTypes.size == 0</text><text fill="#000000" font-family="sans-serif" font-size="10" lengthAdjust="spacing" textLength="6" x="12" y="150.0557">2</text><text fill="#000000" font-family="sans-serif" font-size="13" lengthAdjust="spacing" textLength="149" x="22" y="155.3481">analyseTypes.size != 0</text><text fill="#000000" font-family="sans-serif" font-size="10" lengthAdjust="spacing" textLength="7" x="12" y="167.6963">3</text><text fill="#000000" font-family="sans-serif" font-size="13" lengthAdjust="spacing" textLength="402" x="23" y="172.9888">(start &gt; end) OR (start OR end != Date) OR (dataType == null)</text><text fill="#000000" font-family="sans-serif" font-size="10" lengthAdjust="spacing" textLength="7" x="12" y="185.3369">4</text><text fill="#000000" font-family="sans-serif" font-size="13" lengthAdjust="spacing" textLength="419" x="23" y="190.6294">(start &lt; end) AND (start AND end = Date) AND (dataType != null)</text><text fill="#000000" font-family="sans-serif" font-size="10" lengthAdjust="spacing" textLength="6" x="12" y="202.9775">5</text><text fill="#000000" font-family="sans-serif" font-size="13" lengthAdjust="spacing" textLength="79" x="22" y="208.27">data == null</text><text fill="#000000" font-family="sans-serif" font-size="10" lengthAdjust="spacing" textLength="7" x="12" y="220.6182">6</text><text fill="#000000" font-family="sans-serif" font-size="13" lengthAdjust="spacing" textLength="562" x="23" y="225.9106">(data != null) AND (dataForComp == null) AND (analyseTypes contains COMPHEATMAP)</text><text fill="#000000" font-family="sans-serif" font-size="10" lengthAdjust="spacing" textLength="6" x="12" y="238.2588">7</text><text fill="#000000" font-family="sans-serif" font-size="13" lengthAdjust="spacing" textLength="627" x="22" y="243.5513">(start &lt; end) AND (start AND end = Date) AND (dataType != null) AND (data.t == dataForComp.t)</text><text fill="#000000" font-family="sans-serif" font-size="10" lengthAdjust="spacing" textLength="7" x="12" y="255.8994">8</text><text fill="#000000" font-family="sans-serif" font-size="13" lengthAdjust="spacing" textLength="596" x="23" y="261.1919">(start &gt; end) OR (start OR end != Date) OR (dataType == null) OR (data.t != dataForComp.t)</text><text fill="#000000" font-family="sans-serif" font-size="10" lengthAdjust="spacing" textLength="7" x="12" y="273.54">9</text><text fill="#000000" font-family="sans-serif" font-size="13" lengthAdjust="spacing" textLength="567" x="23" y="278.8325">[(analyseTypes contains COMPHEATMAP) AND (data != null) AND (dataForComp != null)]</text><text fill="#000000" font-family="sans-serif" font-size="13" lengthAdjust="spacing" textLength="417" x="28" y="293.9653">OR [(analyseTypes !contains COMPHEATMAP) AND (data != null)]</text><ellipse cx="699" cy="16" fill="#000000" filter="url(#flhut11nuy18x)" rx="10" ry="10" style="stroke:none;stroke-width:1.0;"/><ellipse cx="981" cy="1546" filter="url(#flhut11nuy18x)" rx="10" ry="10" style="stroke:#000000;stroke-width:1.0;fill:none;"/><ellipse cx="981.5" cy="1546.5" fill="#000000" rx="6" ry="6" style="stroke:none;stroke-width:1.0;"/><!--MD5=[d2e66493818f68856b6aeb77c3f59857]
link GMN180570 to i--><path d="M664.164,202.5 C669.8795,202.5 675.5948,202.5 681.31,202.5 C684.1676,202.5 687.0252,202.5 689.8829,202.5 C690.2401,202.5 690.5973,202.5 690.9545,202.5 " fill="none" id="GMN180570-i" style="stroke:#A80036;stroke-width:1.0;stroke-dasharray:7.0,7.0;"/><!--MD5=[9a30244793a2259a49eab240098fe44a]
link *start*i to iat--><path d="M844,212.6 C844,238.8 844,315.24 844,357.7 " fill="none" id="*start*i-to-iat" style="stroke:#A80036;stroke-width:1.0;"/><polygon fill="#A80036" points="844,362.71,848,353.71,844,357.71,840,353.71,844,362.71" style="stroke:#A80036;stroke-width:1.0;"/><!--MD5=[cb830a1d84e256cf4ed5a3316c57e6b1]
link iat to id--><path d="M844,413.03 C844,468.06 844,603.06 844,662.771 " fill="none" id="iat-to-id" style="stroke:#A80036;stroke-width:1.0;"/><polygon fill="#A80036" points="844,667.968,848,658.968,844,662.968,840,658.968,844,667.968" style="stroke:#A80036;stroke-width:1.0;"/><text fill="#000000" font-family="sans-serif" font-size="13" lengthAdjust="spacing" textLength="120" x="845" y="458.5747">setAnalyseTypes()</text><text fill="#000000" font-family="sans-serif" font-size="10" lengthAdjust="spacing" textLength="6" x="965" y="453.2822">2</text><!--MD5=[87d2d3add0397b147fda21618bd227e7]
link iat to iat--><path d="M924.692,378.02 C944.63,378.74 959.5,382.07 959.5,388 C959.5,393.42 947.076,396.67 929.713,397.73 " fill="none" id="iat-to-iat" style="stroke:#A80036;stroke-width:1.0;"/><polygon fill="#A80036" points="924.692,397.98,933.8749,401.54,929.6861,397.7382,933.488,393.5494,924.692,397.98" style="stroke:#A80036;stroke-width:1.0;"/><text fill="#000000" font-family="sans-serif" font-size="13" lengthAdjust="spacing" textLength="120" x="965.5" y="394.0747">setAnalyseTypes()</text><text fill="#000000" font-family="sans-serif" font-size="10" lengthAdjust="spacing" textLength="7" x="1085.5" y="388.7822">1</text><!--MD5=[4b83921e393c24d4ac3281a9bdc205f8]
link id to wfs--><path d="M834.104,718.253 C820.224,756.251 799.475,831.235 826,887 C832.292,900.229 843.012,911.528 854.409,920.675 " fill="none" id="id-to-wfs" style="stroke:#A80036;stroke-width:1.0;"/><polygon fill="#A80036" points="858.632,923.948,853.9673,915.2739,854.6795,920.8857,849.0676,921.5979,858.632,923.948" style="stroke:#A80036;stroke-width:1.0;"/><text fill="#000000" font-family="sans-serif" font-size="13" lengthAdjust="spacing" textLength="62" x="827" y="883.5747">getData()</text><text fill="#000000" font-family="sans-serif" font-size="10" lengthAdjust="spacing" textLength="7" x="889" y="878.2822">4</text><!--MD5=[89929945027c1254b5c9eb14f5301ee3]
reverse link id to wfs--><path d="M856.654,723.003 C870.73,756.982 892.595,815.342 901,868 C903.955,886.516 903.794,907.75 902.981,923.687 " fill="none" id="id-backto-wfs" style="stroke:#A80036;stroke-width:1.0;"/><polygon fill="#A80036" points="854.637,718.171,854.4145,728.0173,856.5639,722.7848,861.7965,724.9343,854.637,718.171" style="stroke:#A80036;stroke-width:1.0;"/><text fill="#000000" font-family="sans-serif" font-size="10" lengthAdjust="spacing" textLength="6" x="903" y="881.2822">5</text><!--MD5=[887d484d0c4a55d5d70403c9c2359815]
link id to id--><path d="M878.347,667.953 C918.809,649.612 966,657.961 966,693 C966,726.67 922.424,735.695 883.116,720.075 " fill="none" id="id-to-id" style="stroke:#A80036;stroke-width:1.0;"/><polygon fill="#A80036" points="878.347,718.047,885.0653,725.2487,882.9486,720.0028,888.1945,717.8861,878.347,718.047" style="stroke:#A80036;stroke-width:1.0;"/><text fill="#000000" font-family="sans-serif" font-size="13" lengthAdjust="spacing" textLength="62" x="972" y="699.0747">getData()</text><text fill="#000000" font-family="sans-serif" font-size="10" lengthAdjust="spacing" textLength="7" x="1034" y="693.7822">3</text><!--MD5=[1ec0fecb88e1bb923c4c80d6b59b072c]
link wfs to idfc--><path d="M876.455,974.177 C867.579,984.581 858.612,997.459 854,1011 C848.488,1027.184 848.508,1046.299 850.014,1061.785 " fill="none" id="wfs-to-idfc" style="stroke:#A80036;stroke-width:1.0;"/><polygon fill="#A80036" points="850.576,1066.889,853.5671,1057.5053,850.0289,1061.919,845.6152,1058.3808,850.576,1066.889" style="stroke:#A80036;stroke-width:1.0;"/><text fill="#000000" font-family="sans-serif" font-size="10" lengthAdjust="spacing" textLength="7" x="855" y="1024.2822">6</text><!--MD5=[ccf9d63ff169e8b6d8407325eb649adb]
reverse link wfs to idfc--><path d="M891.458,979.248 C883.028,1005.089 870.876,1042.338 862.958,1066.606 " fill="none" id="wfs-backto-idfc" style="stroke:#A80036;stroke-width:1.0;"/><polygon fill="#A80036" points="893.092,974.239,886.4967,981.5535,891.5405,978.9922,894.1018,984.036,893.092,974.239" style="stroke:#A80036;stroke-width:1.0;"/><text fill="#000000" font-family="sans-serif" font-size="13" lengthAdjust="spacing" textLength="62" x="882" y="1026.5747">getData()</text><text fill="#000000" font-family="sans-serif" font-size="10" lengthAdjust="spacing" textLength="6" x="944" y="1021.2822">7</text><!--MD5=[6fc16e54ffcd01d7fa75bb7a173e0446]
link idfc to idfc--><path d="M987.297,1079.972 C1007.93,1081.77 1022,1085.779 1022,1092 C1022,1097.686 1010.25,1101.525 992.467,1103.516 " fill="none" id="idfc-to-idfc" style="stroke:#A80036;stroke-width:1.0;"/><polygon fill="#A80036" points="987.297,1104.028,996.6483,1107.1187,992.2725,1103.5337,995.8575,1099.1579,987.297,1104.028" style="stroke:#A80036;stroke-width:1.0;"/><text fill="#000000" font-family="sans-serif" font-size="13" lengthAdjust="spacing" textLength="62" x="1028" y="1098.0747">getData()</text><text fill="#000000" font-family="sans-serif" font-size="10" lengthAdjust="spacing" textLength="7" x="1090" y="1092.7822">8</text><!--MD5=[88f8dc45122f9216745b8aa7a7fa5b93]
reverse link a to wfs--><path d="M651.0304,755.8084 C651.1511,756.4029 651.2736,756.9999 651.3979,757.5993 C651.6466,758.7979 651.9024,760.0058 652.1658,761.2223 C652.6924,763.6552 653.2489,766.1224 653.8369,768.6181 C663.244,808.55 680.706,855.7915 713,887 C729.779,903.215 750.909,915.12 772.894,923.86 " fill="none" id="a-backto-wfs" style="stroke:#A80036;stroke-width:1.0;"/><polygon fill="#A80036" points="651.0304,755.8084,648.9011,765.4243,652.0252,760.7084,656.7412,763.8325,651.0304,755.8084" style="stroke:#A80036;stroke-width:1.0;"/><text fill="#000000" font-family="sans-serif" font-size="13" lengthAdjust="spacing" textLength="91" x="714" y="883.5747">analyseData()</text><text fill="#000000" font-family="sans-serif" font-size="10" lengthAdjust="spacing" textLength="7" x="805" y="878.2822">9</text><!--MD5=[30aa13a02f41e45672b7a22adfbef821]
link *start*a to d--><path d="M363.644,703.04 C362.34,736.153 357.78,851.991 355.428,911.741 " fill="none" id="*start*a-to-d" style="stroke:#A80036;stroke-width:1.0;"/><polygon fill="#A80036" points="355.221,916.994,359.5703,908.1575,355.4167,911.9978,351.5764,907.8443,355.221,916.994" style="stroke:#A80036;stroke-width:1.0;"/><text fill="#000000" font-family="sans-serif" font-size="10" lengthAdjust="spacing" textLength="7" x="358" y="881.2822">1</text><!--MD5=[f3348e18c7e3719a81a5a0d8086433d8]
link *start*a to v--><path d="M364.442,703.272 C365.153,727.479 364.216,793.769 336,838 C303.822,888.441 259.479,866.753 227,917 C198.19,961.57 191.844,1024.818 190.78,1061.51 " fill="none" id="*start*a-to-v" style="stroke:#A80036;stroke-width:1.0;"/><polygon fill="#A80036" points="190.66,1066.726,194.8672,1057.821,190.7757,1061.7273,186.8694,1057.6358,190.66,1066.726" style="stroke:#A80036;stroke-width:1.0;"/><text fill="#000000" font-family="sans-serif" font-size="10" lengthAdjust="spacing" textLength="6" x="228" y="952.7822">2</text><!--MD5=[db95207bf28f543d414b343538457f44]
link *start*a to h--><path d="M362.636,703.093 C359.522,726.87 353.904,792.21 378,838 C403.413,886.294 442.404,871.15 472,917 C499.415,959.472 511.73,1017.384 517.093,1054.491 " fill="none" id="*start*a-to-h" style="stroke:#A80036;stroke-width:1.0;"/><polygon fill="#A80036" points="517.835,1059.811,520.5545,1050.3451,517.1449,1054.8589,512.6311,1051.4492,517.835,1059.811" style="stroke:#A80036;stroke-width:1.0;"/><text fill="#000000" font-family="sans-serif" font-size="10" lengthAdjust="spacing" textLength="7" x="502" y="952.7822">3</text><!--MD5=[dda5425b0f96e1211a8c645ac6fc55bf]
link d to v--><path d="M317.825,981.292 C289.397,1005.883 250.182,1039.805 222.914,1063.393 " fill="none" id="d-to-v" style="stroke:#A80036;stroke-width:1.0;"/><polygon fill="#A80036" points="218.98,1066.796,228.4034,1063.9327,222.7613,1063.5247,223.1693,1057.8825,218.98,1066.796" style="stroke:#A80036;stroke-width:1.0;"/><text fill="#000000" font-family="sans-serif" font-size="10" lengthAdjust="spacing" textLength="6" x="284" y="1024.2822">5</text><!--MD5=[4e8e5b39f36cd5f5306fd02639c5456b]
link d to h--><path d="M391.063,981.292 C417.44,1003.563 452.883,1033.488 480.089,1056.458 " fill="none" id="d-to-h" style="stroke:#A80036;stroke-width:1.0;"/><polygon fill="#A80036" points="484.041,1059.795,479.7437,1050.9331,480.2202,1056.5698,474.5835,1057.0463,484.041,1059.795" style="stroke:#A80036;stroke-width:1.0;"/><text fill="#000000" font-family="sans-serif" font-size="10" lengthAdjust="spacing" textLength="7" x="449" y="1024.2822">4</text><!--MD5=[d3fc0927bae555c91b20f5bb7aa5e9fb]
link v to h--><path d="M225.706,1066.933 C268.344,1039.286 343.027,1001.06 408,1020 C433.436,1027.415 458.607,1042.484 478.713,1056.929 " fill="none" id="v-to-h" style="stroke:#A80036;stroke-width:1.0;"/><polygon fill="#A80036" points="482.925,1059.999,478.0075,1051.4657,478.8842,1057.0541,473.2957,1057.9309,482.925,1059.999" style="stroke:#A80036;stroke-width:1.0;"/><text fill="#000000" font-family="sans-serif" font-size="10" lengthAdjust="spacing" textLength="6" x="401" y="1024.2822">7</text><!--MD5=[7bd4d9c7e1f9ffd42237630f17acff01]
link d to af--><path d="M360.001,981.264 C372.002,1043.785 398.803,1183.411 410.435,1244.01 " fill="none" id="d-to-af" style="stroke:#A80036;stroke-width:1.0;"/><polygon fill="#A80036" points="411.38,1248.93,413.6142,1239.3379,410.4387,1244.0194,405.7572,1240.8439,411.38,1248.93" style="stroke:#A80036;stroke-width:1.0;"/><text fill="#000000" font-family="sans-serif" font-size="10" lengthAdjust="spacing" textLength="7" x="395" y="1095.7822">6</text><!--MD5=[656d828b4ea4b13be3632561c7451102]
link v to af--><path d="M221.345,1117.276 C263.062,1150.649 337.918,1210.534 381.645,1245.516 " fill="none" id="v-to-af" style="stroke:#A80036;stroke-width:1.0;"/><polygon fill="#A80036" points="385.778,1248.822,381.2501,1240.0757,381.8741,1245.698,376.2517,1246.3219,385.778,1248.822" style="stroke:#A80036;stroke-width:1.0;"/><text fill="#000000" font-family="sans-serif" font-size="10" lengthAdjust="spacing" textLength="7" x="298" y="1175.2822">8</text><!--MD5=[d70b158774ef3cc2b413a61a9daf893b]
link h to af--><path d="M502.71,1124.354 C482.998,1158.147 451.887,1211.479 432.781,1244.233 " fill="none" id="h-to-af" style="stroke:#A80036;stroke-width:1.0;"/><polygon fill="#A80036" points="430.052,1248.911,438.0428,1243.1536,432.572,1244.5925,431.1331,1239.1217,430.052,1248.911" style="stroke:#A80036;stroke-width:1.0;"/><!--MD5=[192a3520ab9f1e6cb113a0aa4651a99b]
link af to o--><path d="M504.161,1274 C536.571,1274 568.9808,1274 601.3904,1274 C617.5952,1274 633.8,1274 650.0047,1274 C658.1071,1274 666.2095,1274 674.3119,1274 C678.3631,1274 682.4142,1274 686.4654,1274 C687.4782,1274 688.491,1274 689.5038,1274 C689.757,1274 690.0102,1274 690.2634,1274 " fill="none" id="af-to-o" style="stroke:#A80036;stroke-width:1.0;"/><polygon fill="#A80036" points="690.2634,1274,681.2634,1270,685.2634,1274,681.2634,1278,690.2634,1274" style="stroke:#A80036;stroke-width:1.0;"/><!--MD5=[1cf5be5e68cceb6ca1843e322d1e9953]
link *start*o to an--><path d="M778.752,1283.945 C785.074,1304.491 800.864,1355.809 810.972,1388.659 " fill="none" id="*start*o-to-an" style="stroke:#A80036;stroke-width:1.0;"/><polygon fill="#A80036" points="812.543,1393.765,813.7173,1383.9864,811.0716,1388.9864,806.0716,1386.3407,812.543,1393.765" style="stroke:#A80036;stroke-width:1.0;"/><text fill="#000000" font-family="sans-serif" font-size="13" lengthAdjust="spacing" textLength="145" x="805" y="1360.0669">displayAnalyzedData()</text><!--MD5=[fead1622040839da3c483f19fd2a788f]
link an to e--><path d="M799.672,1444.016 C790.724,1457.486 783.207,1474.793 788,1491 C790.646,1499.949 795.292,1508.807 800.351,1516.681 " fill="none" id="an-to-e" style="stroke:#A80036;stroke-width:1.0;"/><polygon fill="#A80036" points="803.194,1520.9486,801.5322,1511.241,800.4215,1516.7877,794.8747,1515.677,803.194,1520.9486" style="stroke:#A80036;stroke-width:1.0;"/><text fill="#000000" font-family="sans-serif" font-size="13" lengthAdjust="spacing" textLength="52" x="789" y="1487.0669">export()</text><!--MD5=[347b3168ac464bce199f9061a7d84500]
reverse link an to e--><path d="M836.854,1448.935 C840.617,1456.81 844.064,1465.515 846,1474 C849.632,1489.917 844.117,1507.365 837.579,1520.9815 " fill="none" id="an-backto-e" style="stroke:#A80036;stroke-width:1.0;"/><polygon fill="#A80036" points="834.481,1444.148,834.893,1453.9882,836.7011,1448.6281,842.0612,1450.4362,834.481,1444.148" style="stroke:#A80036;stroke-width:1.0;"/><!--MD5=[5df0f3068207e4bcefa1ee5a2a165869]
link *start to i--><path d="M699,26.15 C699,44.475 699,87.24 699,125.9475 C699,127.1571 699,128.3628 699,129.5636 C699,129.8638 699,130.1637 699,130.4633 " fill="none" id="*start-to-i" style="stroke:#A80036;stroke-width:1.0;"/><polygon fill="#A80036" points="699,130.4633,703,121.4633,699,125.4633,695,121.4633,699,130.4633" style="stroke:#A80036;stroke-width:1.0;"/><text fill="#000000" font-family="sans-serif" font-size="13" lengthAdjust="spacing" textLength="176" x="700" y="69.0669">start Client (showClientGUI)</text><!--MD5=[0726c0ba600b78a6dafcf4d1235b1040]
link an to *end--><path d="M851.042,1444.101 C887,1472.018 944.452,1516.624 969.118,1535.7747 " fill="none" id="an-to-*end" style="stroke:#A80036;stroke-width:1.0;"/><polygon fill="#A80036" points="973.329,1539.0446,968.6723,1530.3662,969.3793,1535.9787,963.7668,1536.6857,973.329,1539.0446" style="stroke:#A80036;stroke-width:1.0;"/><text fill="#000000" font-family="sans-serif" font-size="13" lengthAdjust="spacing" textLength="56" x="911" y="1487.0669">Beenden</text><!--MD5=[7c6c966328363ae4d722d78d0e35a3eb]
@startuml
note left of i
    Bedingungen
    <sup>1</sup> analysTypes.size == 0
    <sup>2</sup> analyseTypes.size != 0
    <sup>3</sup> (start > end) OR (start OR end != Date) OR (dataType == null)
    <sup>4</sup> (start < end) AND (start AND end = Date) AND (dataType != null)
    <sup>5</sup> data == null
    <sup>6</sup> (data != null) AND (dataForComp == null) AND (analyseTypes contains COMPHEATMAP)
    <sup>7</sup> (start < end) AND (start AND end = Date) AND (dataType != null) AND (data.t == dataForComp.t)
    <sup>8</sup> (start > end) OR (start OR end != Date) OR (dataType == null) OR (data.t != dataForComp.t)
    <sup>9</sup> [(analyseTypes contains COMPHEATMAP) AND (data != null) AND (dataForComp != null)] 
        OR [(analyseTypes !contains COMPHEATMAP) AND (data != null)]
end note

' Input
state "Input" as i {
    ' States
    state "InputAnalyseTypes" as iat: Auswahl Analyse Typen
    state "InputData" as id: Eingabe benötigter Daten
    state "WaitForSpeichermedium" as wfs: Benötigte Daten werden vom Speichermedium besorgt
    state "InputDataForComp" as idfc: Eingabe benötigter Daten zum Vergleich

    ' Transition
    [*] -d-> iat
    iat -d-> id: setAnalyseTypes()<sup>2</sup>
    iat -r-> iat: setAnalyseTypes()<sup>1</sup>
    id -d-> wfs: getData()<sup>4</sup>
    id -> id: getData()<sup>3</sup>
    wfs -u-> id: <sup>5</sup>
    wfs -d-> idfc: <sup>6</sup>
    idfc -u-> wfs: getData()<sup>7</sup>
    idfc -> idfc: getData()<sup>8</sup>
    wfs -u-> a: analyseData()<sup>9</sup>
}

state "Analyse" as a {
    ' States
    state "Diagramm" as d: Analyse und Erstellung der\nausgewählten Diagrammtypen
    state "Verlauf" as v: Analyse und Erstellung des Verlaufs
    state "Heatmap" as h: Analyse und Erstellung der\nausgewählten Heatmaptypen
    state "AnalyseFinished" as af: Rückgabe der Ergebnisse

    ' Transition
    [*] -d-> d: <sup>1</sup>
    [*] -d-> v: <sup>2</sup>
    [*] -d-> h: <sup>3</sup>
    d -d-> v: <sup>5</sup>
    d -d-> h: <sup>4</sup>
    v -> h: <sup>7</sup>
    d -d-> af: <sup>6</sup>
    v -d-> af: <sup>8</sup>
    h -d-> af
    af -r-> o

    note "Bedingungen\nanalyseTypes contains <sup>x</sup>\n<sup>1</sup> R OR VT\n<sup>2</sup> V AND !R AND !VT\n<sup>3</sup> (H OR C) AND !V AND !R AND !VT\n<sup>4</sup> !V AND (H OR C)\n<sup>5</sup> V\n<sup>6</sup> !V AND !H AND !C\n<sup>7</sup> H OR C\n<sup>8</sup> !H AND !C\n\nAbkürzungen\nH = HEATMAP\nC = COMPHEATMAP\nV = VERLAUF\nR = RELFRQIMGAREA\nVT = VIEWTIMEDISTR" as note2
}

state "Output" as o {
    ' States
    state "Anzeige" as an: Ausgabe analysierter Daten
    state "Export" as e: Export der analysierten Daten

    ' Transition
    [*] -d-> an: displayAnalyzedData()
    an -> e: export()
    e -u-> an
}

' Transition
[*] -d-> i: start Client (showClientGUI)
an -d-> [*]: Beenden
@enduml

@startuml
note left of i
    Bedingungen
    <sup>1</sup> analysTypes.size == 0
    <sup>2</sup> analyseTypes.size != 0
    <sup>3</sup> (start > end) OR (start OR end != Date) OR (dataType == null)
    <sup>4</sup> (start < end) AND (start AND end = Date) AND (dataType != null)
    <sup>5</sup> data == null
    <sup>6</sup> (data != null) AND (dataForComp == null) AND (analyseTypes contains COMPHEATMAP)
    <sup>7</sup> (start < end) AND (start AND end = Date) AND (dataType != null) AND (data.t == dataForComp.t)
    <sup>8</sup> (start > end) OR (start OR end != Date) OR (dataType == null) OR (data.t != dataForComp.t)
    <sup>9</sup> [(analyseTypes contains COMPHEATMAP) AND (data != null) AND (dataForComp != null)] 
        OR [(analyseTypes !contains COMPHEATMAP) AND (data != null)]
end note

state "Input" as i {
    state "InputAnalyseTypes" as iat: Auswahl Analyse Typen
    state "InputData" as id: Eingabe benötigter Daten
    state "WaitForSpeichermedium" as wfs: Benötigte Daten werden vom Speichermedium besorgt
    state "InputDataForComp" as idfc: Eingabe benötigter Daten zum Vergleich

    [*] -d-> iat
    iat -d-> id: setAnalyseTypes()<sup>2</sup>
    iat -r-> iat: setAnalyseTypes()<sup>1</sup>
    id -d-> wfs: getData()<sup>4</sup>
    id -> id: getData()<sup>3</sup>
    wfs -u-> id: <sup>5</sup>
    wfs -d-> idfc: <sup>6</sup>
    idfc -u-> wfs: getData()<sup>7</sup>
    idfc -> idfc: getData()<sup>8</sup>
    wfs -u-> a: analyseData()<sup>9</sup>
}

state "Analyse" as a {
    state "Diagramm" as d: Analyse und Erstellung der\nausgewählten Diagrammtypen
    state "Verlauf" as v: Analyse und Erstellung des Verlaufs
    state "Heatmap" as h: Analyse und Erstellung der\nausgewählten Heatmaptypen
    state "AnalyseFinished" as af: Rückgabe der Ergebnisse

    [*] -d-> d: <sup>1</sup>
    [*] -d-> v: <sup>2</sup>
    [*] -d-> h: <sup>3</sup>
    d -d-> v: <sup>5</sup>
    d -d-> h: <sup>4</sup>
    v -> h: <sup>7</sup>
    d -d-> af: <sup>6</sup>
    v -d-> af: <sup>8</sup>
    h -d-> af
    af -r-> o

    note "Bedingungen\nanalyseTypes contains <sup>x</sup>\n<sup>1</sup> R OR VT\n<sup>2</sup> V AND !R AND !VT\n<sup>3</sup> (H OR C) AND !V AND !R AND !VT\n<sup>4</sup> !V AND (H OR C)\n<sup>5</sup> V\n<sup>6</sup> !V AND !H AND !C\n<sup>7</sup> H OR C\n<sup>8</sup> !H AND !C\n\nAbkürzungen\nH = HEATMAP\nC = COMPHEATMAP\nV = VERLAUF\nR = RELFRQIMGAREA\nVT = VIEWTIMEDISTR" as note2
}

state "Output" as o {
    state "Anzeige" as an: Ausgabe analysierter Daten
    state "Export" as e: Export der analysierten Daten

    [*] -d-> an: displayAnalyzedData()
    an -> e: export()
    e -u-> an
}

[*] -d-> i: start Client (showClientGUI)
an -d-> [*]: Beenden
@enduml

PlantUML version 1.2021.15beta2(Unknown compile time)
(GPL source distribution)
Java Runtime: Java(TM) SE Runtime Environment
JVM: Java HotSpot(TM) 64-Bit Server VM
Default Encoding: UTF-8
Language: en
Country: US
--></g></svg>