<?xml version="1.0" encoding="UTF-8" standalone="no"?><svg xmlns="http://www.w3.org/2000/svg" xmlns:xlink="http://www.w3.org/1999/xlink" contentScriptType="application/ecmascript" contentStyleType="text/css" height="177px" preserveAspectRatio="none" style="width:104px;height:177px;background:#FFFFFF;" version="1.1" viewBox="0 0 104 177" width="104px" zoomAndPan="magnify"><defs><filter height="300%" id="f10rq71gry8ex1" width="300%" x="-1" y="-1"><feGaussianBlur result="blurOut" stdDeviation="2.0"/><feColorMatrix in="blurOut" result="blurOut2" type="matrix" values="0 0 0 0 0 0 0 0 0 0 0 0 0 0 0 0 0 0 .4 0"/><feOffset dx="4.0" dy="4.0" in="blurOut2" result="blurOut3"/><feBlend in="SourceGraphic" in2="blurOut3" mode="normal"/></filter></defs><g><!--MD5=[e68ec2b425e4e11a6d5d6cbd6abefc94]
class Abstrakt--><rect codeLine="1" fill="#FEFECE" filter="url(#f10rq71gry8ex1)" height="48" id="Abstrakt" style="stroke:#A80036;stroke-width:1.5;" width="83" x="7" y="115"/><ellipse cx="22" cy="131" fill="#A9DCDF" rx="11" ry="11" style="stroke:#A80036;stroke-width:1.0;"/><path d="M24.0781,132.8125 L24.4688,133.7969 L24.0781,133.7969 C23.625,133.7969 23.5156,133.8125 23.3594,133.9219 C23.1094,134.0781 22.9531,134.3594 22.9531,134.6563 C22.9531,134.9219 23.0938,135.1719 23.3125,135.3281 C23.4531,135.4531 23.6563,135.5 24.0781,135.5 L26.4375,135.5 C26.7969,135.5 27.0156,135.4688 27.1563,135.375 C27.4063,135.2344 27.5625,134.9375 27.5625,134.6563 C27.5625,134.375 27.4219,134.125 27.2031,133.9688 C27.0313,133.8281 26.875,133.7969 26.4063,133.7969 L23.0156,125.5938 L19.3438,125.5938 C18.8906,125.5938 18.7656,125.6094 18.6094,125.7031 C18.3594,125.875 18.2031,126.1563 18.2031,126.4375 C18.2031,126.7188 18.3438,126.9688 18.5625,127.1406 C18.7344,127.25 18.9063,127.2813 19.3438,127.2813 L20.4219,127.2813 L17.7813,133.7969 C17.3594,133.7969 17.2031,133.8125 17.0469,133.9219 C16.7969,134.0781 16.6406,134.3594 16.6406,134.6563 C16.6406,135.2188 17.0156,135.5 17.7656,135.5 L20.0313,135.5 C20.3906,135.5 20.6094,135.4688 20.7344,135.375 C21,135.2344 21.1406,134.9375 21.1406,134.6563 C21.1406,134.375 21.0156,134.125 20.7969,133.9531 C20.625,133.8281 20.4844,133.7969 20.0313,133.7969 L19.6406,133.7969 L20.0313,132.8125 L24.0781,132.8125 Z M23.375,131.1094 L20.7031,131.1094 L22.0469,127.8438 L23.375,131.1094 Z " fill="#000000"/><text fill="#000000" font-family="sans-serif" font-size="12" font-style="italic" lengthAdjust="spacing" textLength="51" x="36" y="135.1543">Abstrakt</text><line style="stroke:#A80036;stroke-width:1.5;" x1="8" x2="89" y1="147" y2="147"/><line style="stroke:#A80036;stroke-width:1.5;" x1="8" x2="89" y1="155" y2="155"/><!--MD5=[b26cda18e5901a24d4899da4e59e719e]
class Klasse--><rect codeLine="2" fill="#FEFECE" filter="url(#f10rq71gry8ex1)" height="48" id="Klasse" style="stroke:#A80036;stroke-width:1.5;" width="72" x="12.5" y="7"/><ellipse cx="27.5" cy="23" fill="#ADD1B2" rx="11" ry="11" style="stroke:#A80036;stroke-width:1.0;"/><path d="M29.8438,18.6719 C28.9063,18.2344 28.3125,18.0938 27.4375,18.0938 C24.8125,18.0938 22.8125,20.1719 22.8125,22.8906 L22.8125,24.0156 C22.8125,26.5938 24.9219,28.4844 27.8125,28.4844 C29.0313,28.4844 30.1875,28.1875 30.9375,27.6406 C31.5156,27.2344 31.8438,26.7813 31.8438,26.3906 C31.8438,25.9375 31.4531,25.5469 30.9844,25.5469 C30.7656,25.5469 30.5625,25.625 30.375,25.8125 C29.9219,26.2969 29.9219,26.2969 29.7344,26.3906 C29.3125,26.6563 28.625,26.7813 27.8594,26.7813 C25.8125,26.7813 24.5156,25.6875 24.5156,23.9844 L24.5156,22.8906 C24.5156,21.1094 25.7656,19.7969 27.5,19.7969 C28.0781,19.7969 28.6875,19.9531 29.1563,20.2031 C29.6406,20.4844 29.8125,20.7031 29.9063,21.1094 C29.9688,21.5156 30,21.6406 30.1406,21.7656 C30.2813,21.9063 30.5156,22.0156 30.7344,22.0156 C31,22.0156 31.2656,21.875 31.4375,21.6563 C31.5469,21.5 31.5781,21.3125 31.5781,20.8906 L31.5781,19.4688 C31.5781,19.0313 31.5625,18.9063 31.4688,18.75 C31.3125,18.4844 31.0313,18.3438 30.7344,18.3438 C30.4375,18.3438 30.2344,18.4375 30.0156,18.75 L29.8438,18.6719 Z " fill="#000000"/><text fill="#000000" font-family="sans-serif" font-size="12" lengthAdjust="spacing" textLength="40" x="41.5" y="27.1543">Klasse</text><line style="stroke:#A80036;stroke-width:1.5;" x1="13.5" x2="83.5" y1="39" y2="39"/><line style="stroke:#A80036;stroke-width:1.5;" x1="13.5" x2="83.5" y1="47" y2="47"/><!--MD5=[658cef3c445beb0a416954de6e759780]
reverse link Klasse to Abstrakt--><path codeLine="3" d="M48.5,75.0236 C48.5,88.5792 48.5,103.0381 48.5,114.6784 " fill="none" id="Klasse-backto-Abstrakt" style="stroke:#A80036;stroke-width:1.0;"/><polygon fill="none" points="41.5001,75.0005,48.5,55,55.5001,75.0004,41.5001,75.0005" style="stroke:#A80036;stroke-width:1.0;"/><!--MD5=[28425d74c6c7f5de7d630dca4da42eef]
@startuml
abstract Abstrakt
class Klasse
Klasse <|- - Abstrakt
@enduml

PlantUML version 1.2021.13beta8(Unknown compile time)
(GPL source distribution)
Java Runtime: Java(TM) SE Runtime Environment
JVM: Java HotSpot(TM) 64-Bit Server VM
Default Encoding: UTF-8
Language: en
Country: US
--></g></svg>