<?xml version="1.0" encoding="UTF-8" standalone="no"?><svg xmlns="http://www.w3.org/2000/svg" xmlns:xlink="http://www.w3.org/1999/xlink" contentScriptType="application/ecmascript" contentStyleType="text/css" height="659px" preserveAspectRatio="none" style="width:1047px;height:659px;background:#FFFFFF;" version="1.1" viewBox="0 0 1047 659" width="1047px" zoomAndPan="magnify"><defs><filter height="300%" id="f1xtpsl6npgi4q" width="300%" x="-1" y="-1"><feGaussianBlur result="blurOut" stdDeviation="2.0"/><feColorMatrix in="blurOut" result="blurOut2" type="matrix" values="0 0 0 0 0 0 0 0 0 0 0 0 0 0 0 0 0 0 .4 0"/><feOffset dx="4.0" dy="4.0" in="blurOut2" result="blurOut3"/><feBlend in="SourceGraphic" in2="blurOut3" mode="normal"/></filter></defs><g><ellipse cx="480" cy="16" fill="#000000" filter="url(#f1xtpsl6npgi4q)" rx="10" ry="10" style="stroke:none;stroke-width:1.0;"/><g id="SpeicherUtilities_erstellt"><rect fill="#FEFECE" filter="url(#f1xtpsl6npgi4q)" height="50" rx="12.5" ry="12.5" style="stroke:#A80036;stroke-width:1.5;" width="199" x="380.5" y="87"/><line style="stroke:#A80036;stroke-width:1.5;" x1="380.5" x2="579.5" y1="113.2969" y2="113.2969"/><text fill="#000000" font-family="sans-serif" font-size="14" lengthAdjust="spacing" textLength="179" x="390.5" y="104.9951">SpeicherUtilities_erstellt</text></g><g id="Location_gespeichert"><rect fill="#FEFECE" filter="url(#f1xtpsl6npgi4q)" height="50" rx="12.5" ry="12.5" style="stroke:#A80036;stroke-width:1.5;" width="176" x="392" y="214"/><line style="stroke:#A80036;stroke-width:1.5;" x1="392" x2="568" y1="240.2969" y2="240.2969"/><text fill="#000000" font-family="sans-serif" font-size="14" lengthAdjust="spacing" textLength="156" x="402" y="231.9951">Location_gespeichert</text></g><g id="idle"><rect fill="#FEFECE" filter="url(#f1xtpsl6npgi4q)" height="50" rx="12.5" ry="12.5" style="stroke:#A80036;stroke-width:1.5;" width="50" x="455" y="341"/><line style="stroke:#A80036;stroke-width:1.5;" x1="455" x2="505" y1="367.2969" y2="367.2969"/><text fill="#000000" font-family="sans-serif" font-size="14" lengthAdjust="spacing" textLength="26" x="467" y="358.9951">idle</text></g><g id="Location_geholt"><rect fill="#FEFECE" filter="url(#f1xtpsl6npgi4q)" height="50" rx="12.5" ry="12.5" style="stroke:#A80036;stroke-width:1.5;" width="136" x="262" y="468"/><line style="stroke:#A80036;stroke-width:1.5;" x1="262" x2="398" y1="494.2969" y2="494.2969"/><text fill="#000000" font-family="sans-serif" font-size="14" lengthAdjust="spacing" textLength="116" x="272" y="485.9951">Location_geholt</text></g><g id="Informationen_gefunden"><rect fill="#FEFECE" filter="url(#f1xtpsl6npgi4q)" height="50" rx="12.5" ry="12.5" style="stroke:#A80036;stroke-width:1.5;" width="198" x="671" y="468"/><line style="stroke:#A80036;stroke-width:1.5;" x1="671" x2="869" y1="494.2969" y2="494.2969"/><text fill="#000000" font-family="sans-serif" font-size="14" lengthAdjust="spacing" textLength="178" x="681" y="485.9951">Informationen_gefunden</text></g><g id="long2"><rect fill="#FEFECE" filter="url(#f1xtpsl6npgi4q)" height="50" rx="12.5" ry="12.5" style="stroke:#A80036;stroke-width:1.5;" width="298" x="7" y="595"/><line style="stroke:#A80036;stroke-width:1.5;" x1="7" x2="305" y1="621.2969" y2="621.2969"/><text fill="#000000" font-family="sans-serif" font-size="14" lengthAdjust="spacing" textLength="278" x="17" y="612.9951">Information in Datenbank eingetragen</text></g><g id="Daten_gelöscht"><rect fill="#FEFECE" filter="url(#f1xtpsl6npgi4q)" height="50" rx="12.5" ry="12.5" style="stroke:#A80036;stroke-width:1.5;" width="133" x="481.5" y="468"/><line style="stroke:#A80036;stroke-width:1.5;" x1="481.5" x2="614.5" y1="494.2969" y2="494.2969"/><text fill="#000000" font-family="sans-serif" font-size="14" lengthAdjust="spacing" textLength="113" x="491.5" y="485.9951">Daten_gelöscht</text></g><g id="Daten_übertragen"><rect fill="#FEFECE" filter="url(#f1xtpsl6npgi4q)" height="50" rx="12.5" ry="12.5" style="stroke:#A80036;stroke-width:1.5;" width="152" x="779" y="595"/><line style="stroke:#A80036;stroke-width:1.5;" x1="779" x2="931" y1="621.2969" y2="621.2969"/><text fill="#000000" font-family="sans-serif" font-size="14" lengthAdjust="spacing" textLength="132" x="789" y="612.9951">Daten_übertragen</text></g><!--MD5=[1c295de5a76a73e1d85dacb15739fcb2]
link *start to SpeicherUtilities_erstellt--><path d="M480,26.013 C480,38.698 480,62.409 480,81.57 " fill="none" id="*start-to-SpeicherUtilities_erstellt" style="stroke:#A80036;stroke-width:1.0;"/><polygon fill="#A80036" points="480,86.84,484,77.84,480,81.84,476,77.84,480,86.84" style="stroke:#A80036;stroke-width:1.0;"/><!--MD5=[560acb40dc23adfdf046a401450f485d]
link SpeicherUtilities_erstellt to Location_gespeichert--><path d="M480,137.101 C480,157.593 480,187.076 480,208.884 " fill="none" id="SpeicherUtilities_erstellt-to-Location_gespeichert" style="stroke:#A80036;stroke-width:1.0;"/><polygon fill="#A80036" points="480,213.973,484,204.973,480,208.973,476,204.973,480,213.973" style="stroke:#A80036;stroke-width:1.0;"/><text fill="#000000" font-family="sans-serif" font-size="13" lengthAdjust="spacing" textLength="84" x="481" y="180.0669">setLocation()</text><!--MD5=[d6300333cd29437210354afa762ac4a6]
link Location_gespeichert to idle--><path d="M480,264.101 C480,284.593 480,314.076 480,335.884 " fill="none" id="Location_gespeichert-to-idle" style="stroke:#A80036;stroke-width:1.0;"/><polygon fill="#A80036" points="480,340.973,484,331.973,480,335.973,476,331.973,480,340.973" style="stroke:#A80036;stroke-width:1.0;"/><text fill="#000000" font-family="sans-serif" font-size="13" lengthAdjust="spacing" textLength="88" x="481" y="307.0669">Funktionsloop</text><!--MD5=[12f01e9927f59772039512bf32d4d92c]
link idle to Location_geholt--><path d="M454.963,366.289 C415.712,366.707 340.613,374.017 306,421 C296.848,433.424 301.325,449.574 308.769,463.331 " fill="none" id="idle-to-Location_geholt" style="stroke:#A80036;stroke-width:1.0;"/><polygon fill="#A80036" points="311.392,467.896,310.3761,458.0997,308.9009,463.5608,303.4398,462.0855,311.392,467.896" style="stroke:#A80036;stroke-width:1.0;"/><text fill="#000000" font-family="sans-serif" font-size="13" lengthAdjust="spacing" textLength="72" x="307" y="434.0669">saveData()</text><!--MD5=[3b1d556b9ed89c7b9f4aaa09e024ac45]
link idle to Informationen_gefunden--><path d="M505.288,366.059 C553.531,365.541 660.034,370.681 729,421 C743.153,431.327 753.175,448.136 759.766,462.808 " fill="none" id="idle-to-Informationen_gefunden" style="stroke:#A80036;stroke-width:1.0;"/><polygon fill="#A80036" points="761.87,467.689,761.9806,457.8408,759.8907,463.0974,754.6341,461.0076,761.87,467.689" style="stroke:#A80036;stroke-width:1.0;"/><text fill="#000000" font-family="sans-serif" font-size="13" lengthAdjust="spacing" textLength="84" x="746" y="434.0669">searchData()</text><!--MD5=[310c1962ca3e46e947bdd5b9670f95da]
link Location_geholt to long2--><path d="M296.451,518.101 C267.084,539.198 224.45,569.8259 193.868,591.7962 " fill="none" id="Location_geholt-to-long2" style="stroke:#A80036;stroke-width:1.0;"/><polygon fill="#A80036" points="189.446,594.9727,199.0892,592.9705,193.5068,592.0556,194.4218,586.4732,189.446,594.9727" style="stroke:#A80036;stroke-width:1.0;"/><text fill="#000000" font-family="sans-serif" font-size="13" lengthAdjust="spacing" textLength="150" x="255" y="561.0669">eintragen in Datenbank</text><!--MD5=[4f354d481ea0920ec2a8596f9f7d3400]
link Informationen_gefunden to Daten_übertragen--><path d="M763.929,518.144 C761.631,532.607 761.186,550.8671 769,565 C774.897,575.6651 783.879,584.5078 793.851,591.7347 " fill="none" id="Informationen_gefunden-to-Daten_übertragen" style="stroke:#A80036;stroke-width:1.0;"/><polygon fill="#A80036" points="798.179,594.7336,793.0587,586.3204,794.0689,591.8863,788.503,592.8965,798.179,594.7336" style="stroke:#A80036;stroke-width:1.0;"/><text fill="#000000" font-family="sans-serif" font-size="13" lengthAdjust="spacing" textLength="142" x="770" y="561.0669">Daten zum DataClient</text><!--MD5=[31b3120e0cc23e35a68b9a7d791913b7]
link long2 to idle--><path d="M137.571,594.8679 C115.545,562.8609 85.0704,505.994 114,468 C155.37,413.667 369.536,381.122 449.682,370.688 " fill="none" id="long2-to-idle" style="stroke:#A80036;stroke-width:1.0;"/><polygon fill="#A80036" points="454.764,370.033,445.326,367.218,449.8051,370.673,446.3501,375.1522,454.764,370.033" style="stroke:#A80036;stroke-width:1.0;"/><text fill="#000000" font-family="sans-serif" font-size="13" lengthAdjust="spacing" textLength="128" x="115" y="497.5669">Funktion ausgeführt</text><!--MD5=[9f14228870b7f11b730be3b92d576689]
link Daten_gelöscht to idle--><path d="M481.19,486.514 C448.661,480.081 412.281,466.482 392,438 C372.762,410.982 417.251,388.7 449.728,376.672 " fill="none" id="Daten_gelöscht-to-idle" style="stroke:#A80036;stroke-width:1.0;"/><polygon fill="#A80036" points="454.825,374.83,445.0014,374.1252,450.1223,376.5285,447.719,381.6494,454.825,374.83" style="stroke:#A80036;stroke-width:1.0;"/><text fill="#000000" font-family="sans-serif" font-size="13" lengthAdjust="spacing" textLength="128" x="393" y="434.0669">Funktion ausgeführt</text><!--MD5=[25e3780dd9dbd5300567d0822fd561e3]
link idle to Daten_gelöscht--><path d="M504.289,391.235 C512.077,400.034 520.182,410.426 526,421 C533.085,433.876 538.22,449.346 541.738,462.555 " fill="none" id="idle-to-Daten_gelöscht" style="stroke:#A80036;stroke-width:1.0;"/><polygon fill="#A80036" points="543.054,467.684,544.6912,457.9722,541.8111,462.8409,536.9423,459.9608,543.054,467.684" style="stroke:#A80036;stroke-width:1.0;"/><text fill="#000000" font-family="sans-serif" font-size="13" lengthAdjust="spacing" textLength="185" x="535" y="434.0669">DeleteData() + searchData()</text><!--MD5=[d842891822a39e2790fc15fb616a2178]
link Daten_übertragen to idle--><path d="M893.011,594.8036 C902.64,586.6124 911.737,576.5627 917,565 C920.13,558.1232 918.389,555.4268 917,548 C904.826,482.888 898.137,450.843 839,421 C781.371,391.918 586.128,374.804 510.384,369.124 " fill="none" id="Daten_übertragen-to-idle" style="stroke:#A80036;stroke-width:1.0;"/><polygon fill="#A80036" points="505.14,368.735,513.8193,373.3901,510.1263,369.105,514.4114,365.412,505.14,368.735" style="stroke:#A80036;stroke-width:1.0;"/><text fill="#000000" font-family="sans-serif" font-size="13" lengthAdjust="spacing" textLength="128" x="911" y="497.5669">Funktion ausgeführt</text><!--MD5=[a6d45fcee7d501ac9c0b2fd9a1e53c71]
@startuml
[*] - -> SpeicherUtilities_erstellt
SpeicherUtilities_erstellt - -> Location_gespeichert : setLocation()
Location_gespeichert - -> idle : Funktionsloop
idle - -> Location_geholt : saveData()
idle - -> Informationen_gefunden : searchData()
Location_geholt - -> long2 : eintragen in Datenbank
Informationen_gefunden - -> Daten_übertragen : Daten zum DataClient
long2 - -> idle : Funktion ausgeführt
Daten_gelöscht - -> idle : Funktion ausgeführt
Daten_übertragen - -> idle : Funktion ausgeführt
idle - -> Daten_gelöscht : DeleteData() + searchData()


state SpeicherUtilities_erstellt {

}

state Location_gespeichert {

}

state idle{

}

state Location_geholt{

}

state Informationen_gefunden{

}
state "Information in Datenbank eingetragen" as long2{

}
state Daten_gelöscht {

}
state Daten_übertragen {

}
@enduml

PlantUML version 1.2021.15beta2(Unknown compile time)
(GPL source distribution)
Java Runtime: Java(TM) SE Runtime Environment
JVM: Java HotSpot(TM) 64-Bit Server VM
Default Encoding: UTF-8
Language: en
Country: US
--></g></svg>