<?xml version="1.0" encoding="UTF-8" standalone="no"?><svg xmlns="http://www.w3.org/2000/svg" xmlns:xlink="http://www.w3.org/1999/xlink" contentScriptType="application/ecmascript" contentStyleType="text/css" height="554px" preserveAspectRatio="none" style="width:764px;height:554px;background:#FFFFFF;" version="1.1" viewBox="0 0 764 554" width="764px" zoomAndPan="magnify"><defs><filter height="300%" id="fg5e852i32h4e" width="300%" x="-1" y="-1"><feGaussianBlur result="blurOut" stdDeviation="2.0"/><feColorMatrix in="blurOut" result="blurOut2" type="matrix" values="0 0 0 0 0 0 0 0 0 0 0 0 0 0 0 0 0 0 .4 0"/><feOffset dx="4.0" dy="4.0" in="blurOut2" result="blurOut3"/><feBlend in="SourceGraphic" in2="blurOut3" mode="normal"/></filter></defs><g><g id="SpeicherUtilities_erstellt"><rect fill="#FEFECE" filter="url(#fg5e852i32h4e)" height="50" rx="12.5" ry="12.5" style="stroke:#A80036;stroke-width:1.5;" width="199" x="280" y="7"/><line style="stroke:#A80036;stroke-width:1.5;" x1="280" x2="479" y1="33.2969" y2="33.2969"/><text fill="#000000" font-family="sans-serif" font-size="14" lengthAdjust="spacing" textLength="179" x="290" y="24.9951">SpeicherUtilities_erstellt</text></g><g id="Location_gespeichert"><rect fill="#FEFECE" filter="url(#fg5e852i32h4e)" height="50" rx="12.5" ry="12.5" style="stroke:#A80036;stroke-width:1.5;" width="176" x="291.5" y="134"/><line style="stroke:#A80036;stroke-width:1.5;" x1="291.5" x2="467.5" y1="160.2969" y2="160.2969"/><text fill="#000000" font-family="sans-serif" font-size="14" lengthAdjust="spacing" textLength="156" x="301.5" y="151.9951">Location_gespeichert</text></g><rect fill="#FEFECE" filter="url(#fg5e852i32h4e)" height="281.2969" rx="12.5" ry="12.5" style="stroke:#A80036;stroke-width:1.5;" width="745" x="7" y="261"/><rect fill="#FFFFFF" height="249" rx="12.5" ry="12.5" style="stroke:#FFFFFF;stroke-width:1.0;" width="739" x="10" y="290.2969"/><line style="stroke:#A80036;stroke-width:1.5;" x1="7" x2="752" y1="287.2969" y2="287.2969"/><text fill="#000000" font-family="sans-serif" font-size="14" lengthAdjust="spacing" textLength="55" x="352" y="278.9951">Utilities</text><ellipse cx="354" cy="308.2969" fill="#000000" filter="url(#fg5e852i32h4e)" rx="10" ry="10" style="stroke:none;stroke-width:1.0;"/><g id="Utilities.Location_geholt"><rect fill="#FEFECE" filter="url(#fg5e852i32h4e)" height="50" rx="12.5" ry="12.5" style="stroke:#A80036;stroke-width:1.5;" width="136" x="151" y="371.2969"/><line style="stroke:#A80036;stroke-width:1.5;" x1="151" x2="287" y1="397.5938" y2="397.5938"/><text fill="#000000" font-family="sans-serif" font-size="14" lengthAdjust="spacing" textLength="116" x="161" y="389.292">Location_geholt</text></g><g id="Utilities.Informationen_gefunden"><rect fill="#FEFECE" filter="url(#fg5e852i32h4e)" height="50" rx="12.5" ry="12.5" style="stroke:#A80036;stroke-width:1.5;" width="198" x="356" y="371.2969"/><line style="stroke:#A80036;stroke-width:1.5;" x1="356" x2="554" y1="397.5938" y2="397.5938"/><text fill="#000000" font-family="sans-serif" font-size="14" lengthAdjust="spacing" textLength="178" x="366" y="389.292">Informationen_gefunden</text></g><g id="Utilities.long2"><rect fill="#FEFECE" filter="url(#fg5e852i32h4e)" height="50" rx="12.5" ry="12.5" style="stroke:#A80036;stroke-width:1.5;" width="298" x="19" y="474.2969"/><line style="stroke:#A80036;stroke-width:1.5;" x1="19" x2="317" y1="500.5938" y2="500.5938"/><text fill="#000000" font-family="sans-serif" font-size="14" lengthAdjust="spacing" textLength="278" x="29" y="492.292">Information in Datenbank eingetragen</text></g><g id="Utilities.Daten_gelöscht"><rect fill="#FEFECE" filter="url(#fg5e852i32h4e)" height="50" rx="12.5" ry="12.5" style="stroke:#A80036;stroke-width:1.5;" width="133" x="335.5" y="474.2969"/><line style="stroke:#A80036;stroke-width:1.5;" x1="335.5" x2="468.5" y1="500.5938" y2="500.5938"/><text fill="#000000" font-family="sans-serif" font-size="14" lengthAdjust="spacing" textLength="113" x="345.5" y="492.292">Daten_gelöscht</text></g><g id="Utilities.Daten_übertragen"><rect fill="#FEFECE" filter="url(#fg5e852i32h4e)" height="50" rx="12.5" ry="12.5" style="stroke:#A80036;stroke-width:1.5;" width="152" x="543" y="474.2969"/><line style="stroke:#A80036;stroke-width:1.5;" x1="543" x2="695" y1="500.5938" y2="500.5938"/><text fill="#000000" font-family="sans-serif" font-size="14" lengthAdjust="spacing" textLength="132" x="553" y="492.292">Daten_übertragen</text></g><!--MD5=[7774e22705ce5659fd3f97f5e5bc83f7]
link *start*Utilities to Location_geholt--><path d="M345.646,314.1749 C336.565,319.5079 321.657,328.3559 309,336.2969 C292.653,346.5529 274.847,358.1379 259.419,368.3089 " fill="none" id="*start*Utilities-to-Location_geholt" style="stroke:#A80036;stroke-width:1.0;"/><polygon fill="#A80036" points="255.134,371.1389,264.8484,369.5171,259.3063,368.3835,260.4399,362.8414,255.134,371.1389" style="stroke:#A80036;stroke-width:1.0;"/><text fill="#000000" font-family="sans-serif" font-size="13" lengthAdjust="spacing" textLength="72" x="310" y="349.3638">saveData()</text><!--MD5=[d425ccd14a6fe370fa9598f6113f8a2c]
link *start*Utilities to Informationen_gefunden--><path d="M361.264,315.4819 C373.953,326.2869 400.878,349.2129 422.63,367.7339 " fill="none" id="*start*Utilities-to-Informationen_gefunden" style="stroke:#A80036;stroke-width:1.0;"/><polygon fill="#A80036" points="426.627,371.1369,422.3674,362.2568,422.8199,367.8955,417.1812,368.3481,426.627,371.1369" style="stroke:#A80036;stroke-width:1.0;"/><text fill="#000000" font-family="sans-serif" font-size="13" lengthAdjust="spacing" textLength="84" x="406" y="349.3638">searchData()</text><!--MD5=[310c1962ca3e46e947bdd5b9670f95da]
link Location_geholt to long2--><path d="M206.784,421.4889 C199.52,435.8745 190.261,454.2116 182.611,469.361 " fill="none" id="Location_geholt-to-long2" style="stroke:#A80036;stroke-width:1.0;"/><polygon fill="#A80036" points="180.293,473.9522,187.9199,467.7208,182.5464,469.4888,180.7784,464.1153,180.293,473.9522" style="stroke:#A80036;stroke-width:1.0;"/><text fill="#000000" font-family="sans-serif" font-size="13" lengthAdjust="spacing" textLength="150" x="198" y="452.3638">eintragen in Datenbank</text><!--MD5=[4fa7d8b2b949fc81a1b441ee645cc66a]
link Informationen_gefunden to Daten_gelöscht--><path d="M416.623,421.4719 C411.137,426.6607 406.258,432.6228 403,439.2969 C398.56,448.3907 397.398,459.2512 397.645,469.1609 " fill="none" id="Informationen_gefunden-to-Daten_gelöscht" style="stroke:#A80036;stroke-width:1.0;"/><polygon fill="#A80036" points="397.892,474.242,401.4491,465.0579,397.6486,469.2479,393.4586,465.4474,397.892,474.242" style="stroke:#A80036;stroke-width:1.0;"/><text fill="#000000" font-family="sans-serif" font-size="13" lengthAdjust="spacing" textLength="81" x="404" y="452.3638">deleteData()</text><!--MD5=[4f354d481ea0920ec2a8596f9f7d3400]
link Informationen_gefunden to Daten_übertragen--><path d="M472.621,421.3329 C482.283,433.1517 495.106,446.8492 509,456.2969 C518.015,462.4273 528.048,467.8262 538.284,472.5324 " fill="none" id="Informationen_gefunden-to-Daten_übertragen" style="stroke:#A80036;stroke-width:1.0;"/><polygon fill="#A80036" points="542.998,474.6461,536.4223,467.3139,538.4356,472.6004,533.1492,474.6137,542.998,474.6461" style="stroke:#A80036;stroke-width:1.0;"/><text fill="#000000" font-family="sans-serif" font-size="13" lengthAdjust="spacing" textLength="142" x="510" y="452.3638">Daten zum DataClient</text><!--MD5=[a24febe11dcec2345beb78b0ef39f103]
link Daten_übertragen to Informationen_gefunden--><path d="M646.129,474.2211 C655.461,463.0656 661.633,449.9526 653,439.2969 C640.459,423.8169 600.182,413.8099 559.2,407.4649 " fill="none" id="Daten_übertragen-to-Informationen_gefunden" style="stroke:#A80036;stroke-width:1.0;"/><polygon fill="#A80036" points="554.201,406.7089,562.5023,412.0087,559.1449,407.456,563.6976,404.0985,554.201,406.7089" style="stroke:#A80036;stroke-width:1.0;"/><text fill="#000000" font-family="sans-serif" font-size="13" lengthAdjust="spacing" textLength="84" x="658" y="452.3638">searchData()</text><!--MD5=[560acb40dc23adfdf046a401450f485d]
link SpeicherUtilities_erstellt to Location_gespeichert--><path d="M379.5,57.101 C379.5,77.593 379.5,107.076 379.5,128.884 " fill="none" id="SpeicherUtilities_erstellt-to-Location_gespeichert" style="stroke:#A80036;stroke-width:1.0;"/><polygon fill="#A80036" points="379.5,133.973,383.5,124.973,379.5,128.973,375.5,124.973,379.5,133.973" style="stroke:#A80036;stroke-width:1.0;"/><text fill="#000000" font-family="sans-serif" font-size="13" lengthAdjust="spacing" textLength="84" x="380.5" y="100.0669">setLocation()</text><!--MD5=[8fbc86218b2bd320e63145dcc83f7131]
link Location_gespeichert to Utilities--><path d="M379.5,184.384 C379.5,202.203 379.5,227.991 379.5,255.59 " fill="none" id="Location_gespeichert-to-Utilities" style="stroke:#A80036;stroke-width:1.0;"/><polygon fill="#A80036" points="379.5,260.763,383.5,251.763,379.5,255.763,375.5,251.763,379.5,260.763" style="stroke:#A80036;stroke-width:1.0;"/><text fill="#000000" font-family="sans-serif" font-size="13" lengthAdjust="spacing" textLength="100" x="380.5" y="227.0669">Funktionsaufruf</text><!--MD5=[17a8e3f5bb2aeefdcebdebe2ff8ff0f5]
@startuml
state SpeicherUtilities_erstellt {

}

state Location_gespeichert {

}

SpeicherUtilities_erstellt - -> Location_gespeichert : setLocation()
Location_gespeichert - -> Utilities : Funktionsaufruf

state Utilities {
  
  [*] - -> Location_geholt : saveData()
  [*] - -> Informationen_gefunden : searchData()
  Location_geholt - -> long2 : eintragen in Datenbank
  Informationen_gefunden - -> Daten_gelöscht : deleteData()
  Informationen_gefunden - -> Daten_übertragen : Daten zum DataClient
  Daten_übertragen - -> Informationen_gefunden : searchData()

    state Location_geholt{

    }
    state Informationen_gefunden{

    }
    state "Information in Datenbank eingetragen" as long2{

    }
    state Daten_gelöscht {

    }
    state Daten_übertragen {

    }
}
@enduml

PlantUML version 1.2021.14beta6(Unknown compile time)
(GPL source distribution)
Java Runtime: Java(TM) SE Runtime Environment
JVM: Java HotSpot(TM) 64-Bit Server VM
Default Encoding: UTF-8
Language: en
Country: US
--></g></svg>