<?xml version="1.0" encoding="UTF-8" standalone="no"?><svg xmlns="http://www.w3.org/2000/svg" xmlns:xlink="http://www.w3.org/1999/xlink" contentScriptType="application/ecmascript" contentStyleType="text/css" height="659px" preserveAspectRatio="none" style="width:999px;height:659px;background:#FFFFFF;" version="1.1" viewBox="0 0 999 659" width="999px" zoomAndPan="magnify"><defs><filter height="300%" id="f9dhgyzr38u7d" width="300%" x="-1" y="-1"><feGaussianBlur result="blurOut" stdDeviation="2.0"/><feColorMatrix in="blurOut" result="blurOut2" type="matrix" values="0 0 0 0 0 0 0 0 0 0 0 0 0 0 0 0 0 0 .4 0"/><feOffset dx="4.0" dy="4.0" in="blurOut2" result="blurOut3"/><feBlend in="SourceGraphic" in2="blurOut3" mode="normal"/></filter></defs><g><ellipse cx="443" cy="16" fill="#000000" filter="url(#f9dhgyzr38u7d)" rx="10" ry="10" style="stroke:none;stroke-width:1.0;"/><g id="SpeicherUtilities_erstellt"><rect fill="#FEFECE" filter="url(#f9dhgyzr38u7d)" height="50" rx="12.5" ry="12.5" style="stroke:#A80036;stroke-width:1.5;" width="199" x="343.5" y="87"/><line style="stroke:#A80036;stroke-width:1.5;" x1="343.5" x2="542.5" y1="113.2969" y2="113.2969"/><text fill="#000000" font-family="sans-serif" font-size="14" lengthAdjust="spacing" textLength="179" x="353.5" y="104.9951">SpeicherUtilities_erstellt</text></g><g id="Location_gespeichert"><rect fill="#FEFECE" filter="url(#f9dhgyzr38u7d)" height="50" rx="12.5" ry="12.5" style="stroke:#A80036;stroke-width:1.5;" width="176" x="355" y="214"/><line style="stroke:#A80036;stroke-width:1.5;" x1="355" x2="531" y1="240.2969" y2="240.2969"/><text fill="#000000" font-family="sans-serif" font-size="14" lengthAdjust="spacing" textLength="156" x="365" y="231.9951">Location_gespeichert</text></g><g id="idle"><rect fill="#FEFECE" filter="url(#f9dhgyzr38u7d)" height="50" rx="12.5" ry="12.5" style="stroke:#A80036;stroke-width:1.5;" width="50" x="418" y="341"/><line style="stroke:#A80036;stroke-width:1.5;" x1="418" x2="468" y1="367.2969" y2="367.2969"/><text fill="#000000" font-family="sans-serif" font-size="14" lengthAdjust="spacing" textLength="26" x="430" y="358.9951">idle</text></g><g id="Location_geholt"><rect fill="#FEFECE" filter="url(#f9dhgyzr38u7d)" height="50" rx="12.5" ry="12.5" style="stroke:#A80036;stroke-width:1.5;" width="136" x="18" y="468"/><line style="stroke:#A80036;stroke-width:1.5;" x1="18" x2="154" y1="494.2969" y2="494.2969"/><text fill="#000000" font-family="sans-serif" font-size="14" lengthAdjust="spacing" textLength="116" x="28" y="485.9951">Location_geholt</text></g><g id="Informationen_gefunden"><rect fill="#FEFECE" filter="url(#f9dhgyzr38u7d)" height="50" rx="12.5" ry="12.5" style="stroke:#A80036;stroke-width:1.5;" width="198" x="608" y="468"/><line style="stroke:#A80036;stroke-width:1.5;" x1="608" x2="806" y1="494.2969" y2="494.2969"/><text fill="#000000" font-family="sans-serif" font-size="14" lengthAdjust="spacing" textLength="178" x="618" y="485.9951">Informationen_gefunden</text></g><g id="long2"><rect fill="#FEFECE" filter="url(#f9dhgyzr38u7d)" height="50" rx="12.5" ry="12.5" style="stroke:#A80036;stroke-width:1.5;" width="298" x="7" y="595"/><line style="stroke:#A80036;stroke-width:1.5;" x1="7" x2="305" y1="621.2969" y2="621.2969"/><text fill="#000000" font-family="sans-serif" font-size="14" lengthAdjust="spacing" textLength="278" x="17" y="612.9951">Information in Datenbank eingetragen</text></g><g id="Daten_gelöscht"><rect fill="#FEFECE" filter="url(#f9dhgyzr38u7d)" height="50" rx="12.5" ry="12.5" style="stroke:#A80036;stroke-width:1.5;" width="133" x="433.5" y="595"/><line style="stroke:#A80036;stroke-width:1.5;" x1="433.5" x2="566.5" y1="621.2969" y2="621.2969"/><text fill="#000000" font-family="sans-serif" font-size="14" lengthAdjust="spacing" textLength="113" x="443.5" y="612.9951">Daten_gelöscht</text></g><g id="Daten_übertragen"><rect fill="#FEFECE" filter="url(#f9dhgyzr38u7d)" height="50" rx="12.5" ry="12.5" style="stroke:#A80036;stroke-width:1.5;" width="152" x="659" y="595"/><line style="stroke:#A80036;stroke-width:1.5;" x1="659" x2="811" y1="621.2969" y2="621.2969"/><text fill="#000000" font-family="sans-serif" font-size="14" lengthAdjust="spacing" textLength="132" x="669" y="612.9951">Daten_übertragen</text></g><!--MD5=[1c295de5a76a73e1d85dacb15739fcb2]
link *start to SpeicherUtilities_erstellt--><path d="M443,26.013 C443,38.698 443,62.409 443,81.57 " fill="none" id="*start-to-SpeicherUtilities_erstellt" style="stroke:#A80036;stroke-width:1.0;"/><polygon fill="#A80036" points="443,86.84,447,77.84,443,81.84,439,77.84,443,86.84" style="stroke:#A80036;stroke-width:1.0;"/><!--MD5=[560acb40dc23adfdf046a401450f485d]
link SpeicherUtilities_erstellt to Location_gespeichert--><path d="M443,137.101 C443,157.593 443,187.076 443,208.884 " fill="none" id="SpeicherUtilities_erstellt-to-Location_gespeichert" style="stroke:#A80036;stroke-width:1.0;"/><polygon fill="#A80036" points="443,213.973,447,204.973,443,208.973,439,204.973,443,213.973" style="stroke:#A80036;stroke-width:1.0;"/><text fill="#000000" font-family="sans-serif" font-size="13" lengthAdjust="spacing" textLength="84" x="444" y="180.0669">setLocation()</text><!--MD5=[d6300333cd29437210354afa762ac4a6]
link Location_gespeichert to idle--><path d="M443,264.101 C443,284.593 443,314.076 443,335.884 " fill="none" id="Location_gespeichert-to-idle" style="stroke:#A80036;stroke-width:1.0;"/><polygon fill="#A80036" points="443,340.973,447,331.973,443,335.973,439,331.973,443,340.973" style="stroke:#A80036;stroke-width:1.0;"/><text fill="#000000" font-family="sans-serif" font-size="13" lengthAdjust="spacing" textLength="88" x="444" y="307.0669">Funktionsloop</text><!--MD5=[12f01e9927f59772039512bf32d4d92c]
link idle to Location_geholt--><path d="M417.577,369.276 C353.954,375.331 189.63,393.288 143,421 C126.006,431.1 112.012,448.276 102.1435,463.205 " fill="none" id="idle-to-Location_geholt" style="stroke:#A80036;stroke-width:1.0;"/><polygon fill="#A80036" points="99.2144,467.755,107.4486,462.3515,101.9203,463.5505,100.7214,458.0221,99.2144,467.755" style="stroke:#A80036;stroke-width:1.0;"/><text fill="#000000" font-family="sans-serif" font-size="13" lengthAdjust="spacing" textLength="72" x="144" y="434.0669">saveData()</text><!--MD5=[3b1d556b9ed89c7b9f4aaa09e024ac45]
link idle to Informationen_gefunden--><path d="M468.313,378.986 C510.24,398.837 595.056,438.996 651.455,465.7 " fill="none" id="idle-to-Informationen_gefunden" style="stroke:#A80036;stroke-width:1.0;"/><polygon fill="#A80036" points="656.142,467.92,649.7202,460.4527,651.6232,465.7799,646.296,467.6828,656.142,467.92" style="stroke:#A80036;stroke-width:1.0;"/><text fill="#000000" font-family="sans-serif" font-size="13" lengthAdjust="spacing" textLength="84" x="592" y="434.0669">searchData()</text><!--MD5=[310c1962ca3e46e947bdd5b9670f95da]
link Location_geholt to long2--><path d="M69.7369,518.115 C62.276,532.396 56.7314,550.4786 65,565 C71.1791,575.8519 80.493,584.7482 90.8411,591.9622 " fill="none" id="Location_geholt-to-long2" style="stroke:#A80036;stroke-width:1.0;"/><polygon fill="#A80036" points="95.0118,594.7468,89.7477,586.4228,90.8534,591.9705,85.3057,593.0762,95.0118,594.7468" style="stroke:#A80036;stroke-width:1.0;"/><text fill="#000000" font-family="sans-serif" font-size="13" lengthAdjust="spacing" textLength="150" x="66" y="561.0669">eintragen in Datenbank</text><!--MD5=[4fa7d8b2b949fc81a1b441ee645cc66a]
link Informationen_gefunden to Daten_gelöscht--><path d="M664.21,518.108 C648.077,527.321 629.615,538.013 613,548 C589.27,562.2636 563.071,578.6817 541.88,592.1347 " fill="none" id="Informationen_gefunden-to-Daten_gelöscht" style="stroke:#A80036;stroke-width:1.0;"/><polygon fill="#A80036" points="537.436,594.9586,547.1774,593.508,541.6561,592.2771,542.887,586.7558,537.436,594.9586" style="stroke:#A80036;stroke-width:1.0;"/><text fill="#000000" font-family="sans-serif" font-size="13" lengthAdjust="spacing" textLength="81" x="614" y="561.0669">deleteData()</text><!--MD5=[4f354d481ea0920ec2a8596f9f7d3400]
link Informationen_gefunden to Daten_übertragen--><path d="M703.613,518.023 C702.401,531.947 702.151,549.6973 706,565 C708.15,573.5462 711.943,582.214 716.092,590.0304 " fill="none" id="Informationen_gefunden-to-Daten_übertragen" style="stroke:#A80036;stroke-width:1.0;"/><polygon fill="#A80036" points="718.71,594.7785,717.8674,584.9658,716.2959,590.3999,710.8617,588.8284,718.71,594.7785" style="stroke:#A80036;stroke-width:1.0;"/><text fill="#000000" font-family="sans-serif" font-size="13" lengthAdjust="spacing" textLength="142" x="707" y="561.0669">Daten zum DataClient</text><!--MD5=[31b3120e0cc23e35a68b9a7d791913b7]
link long2 to idle--><path d="M186.407,594.9904 C197.539,585.8782 210.077,575.228 221,565 C264.372,524.388 268.969,507.897 313,468 C345.769,438.308 386.415,407.613 413.446,387.974 " fill="none" id="long2-to-idle" style="stroke:#A80036;stroke-width:1.0;"/><polygon fill="#A80036" points="417.664,384.919,408.0285,386.958,413.6143,387.8516,412.7207,393.4374,417.664,384.919" style="stroke:#A80036;stroke-width:1.0;"/><text fill="#000000" font-family="sans-serif" font-size="13" lengthAdjust="spacing" textLength="128" x="314" y="497.5669">Funktion ausgeführt</text><!--MD5=[9f14228870b7f11b730be3b92d576689]
link Daten_gelöscht to idle--><path d="M488.258,594.6995 C479.072,574.6072 466.759,545.0817 460,518 C449.643,476.504 445.586,427.007 444.003,396.285 " fill="none" id="Daten_gelöscht-to-idle" style="stroke:#A80036;stroke-width:1.0;"/><polygon fill="#A80036" points="443.753,391.147,440.1975,400.3317,443.9973,396.141,448.1879,399.9408,443.753,391.147" style="stroke:#A80036;stroke-width:1.0;"/><text fill="#000000" font-family="sans-serif" font-size="13" lengthAdjust="spacing" textLength="128" x="461" y="497.5669">Funktion ausgeführt</text><!--MD5=[d842891822a39e2790fc15fb616a2178]
link Daten_übertragen to idle--><path d="M811.228,599.7453 C828.093,591.7986 843.923,580.6382 854,565 C878.515,526.955 855.659,499.333 823,468 C771.908,418.982 554.096,383.085 473.31,371.232 " fill="none" id="Daten_übertragen-to-idle" style="stroke:#A80036;stroke-width:1.0;"/><polygon fill="#A80036" points="468.191,370.486,476.5196,375.7428,473.1387,371.2075,477.674,367.8266,468.191,370.486" style="stroke:#A80036;stroke-width:1.0;"/><text fill="#000000" font-family="sans-serif" font-size="13" lengthAdjust="spacing" textLength="128" x="863" y="497.5669">Funktion ausgeführt</text><!--MD5=[34ddae43b44be660e6b60345e3950bdd]
@startuml
[*] - -> SpeicherUtilities_erstellt
SpeicherUtilities_erstellt - -> Location_gespeichert : setLocation()
Location_gespeichert - -> idle : Funktionsloop
idle - -> Location_geholt : saveData()
idle - -> Informationen_gefunden : searchData()
Location_geholt - -> long2 : eintragen in Datenbank
Informationen_gefunden - -> Daten_gelöscht : deleteData()
Informationen_gefunden - -> Daten_übertragen : Daten zum DataClient
long2 - -> idle : Funktion ausgeführt
Daten_gelöscht - -> idle : Funktion ausgeführt
Daten_übertragen - -> idle : Funktion ausgeführt

state SpeicherUtilities_erstellt {

}

state Location_gespeichert {

}

state idle{

}

state Location_geholt{

}

state Informationen_gefunden{

}
state "Information in Datenbank eingetragen" as long2{

}
state Daten_gelöscht {

}
state Daten_übertragen {

}
@enduml

PlantUML version 1.2021.15beta1(Unknown compile time)
(GPL source distribution)
Java Runtime: Java(TM) SE Runtime Environment
JVM: Java HotSpot(TM) 64-Bit Server VM
Default Encoding: UTF-8
Language: en
Country: US
--></g></svg>