<?xml version="1.0" encoding="UTF-8" standalone="no"?><svg xmlns="http://www.w3.org/2000/svg" xmlns:xlink="http://www.w3.org/1999/xlink" contentScriptType="application/ecmascript" contentStyleType="text/css" height="491px" preserveAspectRatio="none" style="width:1013px;height:491px;background:#FFFFFF;" version="1.1" viewBox="0 0 1013 491" width="1013px" zoomAndPan="magnify"><defs><filter height="300%" id="f1hr1odsscfeh3" width="300%" x="-1" y="-1"><feGaussianBlur result="blurOut" stdDeviation="2.0"/><feColorMatrix in="blurOut" result="blurOut2" type="matrix" values="0 0 0 0 0 0 0 0 0 0 0 0 0 0 0 0 0 0 .4 0"/><feOffset dx="4.0" dy="4.0" in="blurOut2" result="blurOut3"/><feBlend in="SourceGraphic" in2="blurOut3" mode="normal"/></filter></defs><g><!--MD5=[754b3ade72492b0e081ea5ab5af8e5be]
cluster active--><rect fill="#FEFECE" filter="url(#f1hr1odsscfeh3)" height="320" rx="12.5" ry="12.5" style="stroke:#A80036;stroke-width:1.5;" width="680" x="159" y="144"/><rect fill="#FFFFFF" height="287.7031" rx="12.5" ry="12.5" style="stroke:#FFFFFF;stroke-width:1.0;" width="674" x="162" y="173.2969"/><line style="stroke:#A80036;stroke-width:1.5;" x1="159" x2="839" y1="170.2969" y2="170.2969"/><text fill="#000000" font-family="sans-serif" font-size="14" lengthAdjust="spacing" textLength="44" x="477" y="161.9951">active</text><g id="active.lgh"><rect fill="#FEFECE" filter="url(#f1hr1odsscfeh3)" height="50.2656" rx="12.5" ry="12.5" style="stroke:#A80036;stroke-width:1.5;" width="133" x="279.5" y="220"/><line style="stroke:#A80036;stroke-width:1.5;" x1="279.5" x2="412.5" y1="246.2969" y2="246.2969"/><text fill="#000000" font-family="sans-serif" font-size="14" lengthAdjust="spacing" textLength="113" x="289.5" y="237.9951">Location geholt</text><text fill="#000000" font-family="sans-serif" font-size="12" lengthAdjust="spacing" textLength="71" x="284.5" y="262.4355">Speicherort</text></g><g id="active.ig"><rect fill="#FEFECE" filter="url(#f1hr1odsscfeh3)" height="50" rx="12.5" ry="12.5" style="stroke:#A80036;stroke-width:1.5;" width="195" x="475.5" y="220"/><line style="stroke:#A80036;stroke-width:1.5;" x1="475.5" x2="670.5" y1="246.2969" y2="246.2969"/><text fill="#000000" font-family="sans-serif" font-size="14" lengthAdjust="spacing" textLength="175" x="485.5" y="237.9951">Informationen gefunden</text></g><g id="active.ide"><rect fill="#FEFECE" filter="url(#f1hr1odsscfeh3)" height="50" rx="12.5" ry="12.5" style="stroke:#A80036;stroke-width:1.5;" width="298" x="175" y="347"/><line style="stroke:#A80036;stroke-width:1.5;" x1="175" x2="473" y1="373.2969" y2="373.2969"/><text fill="#000000" font-family="sans-serif" font-size="14" lengthAdjust="spacing" textLength="278" x="185" y="364.9951">Information in Datenbank eingetragen</text></g><g id="active.dg"><rect fill="#FEFECE" filter="url(#f1hr1odsscfeh3)" height="50" rx="12.5" ry="12.5" style="stroke:#A80036;stroke-width:1.5;" width="130" x="508" y="347"/><line style="stroke:#A80036;stroke-width:1.5;" x1="508" x2="638" y1="373.2969" y2="373.2969"/><text fill="#000000" font-family="sans-serif" font-size="14" lengthAdjust="spacing" textLength="110" x="518" y="364.9951">Daten gelöscht</text></g><g id="active.du"><rect fill="#FEFECE" filter="url(#f1hr1odsscfeh3)" height="50.2656" rx="12.5" ry="12.5" style="stroke:#A80036;stroke-width:1.5;" width="149" x="673.5" y="347"/><line style="stroke:#A80036;stroke-width:1.5;" x1="673.5" x2="822.5" y1="373.2969" y2="373.2969"/><text fill="#000000" font-family="sans-serif" font-size="14" lengthAdjust="spacing" textLength="129" x="683.5" y="364.9951">Daten übertragen</text><text fill="#000000" font-family="sans-serif" font-size="12" lengthAdjust="spacing" textLength="98" x="678.5" y="389.4355">an AnalyseClient</text></g><text fill="#000000" font-family="sans-serif" font-size="14" lengthAdjust="spacing" textLength="144" x="567" y="482.9951">Funktion ausgeführt</text><ellipse cx="639" cy="464" fill="#FEFECE" rx="6" ry="6" style="stroke:#A80036;stroke-width:1.5;"/><line style="stroke:#A80036;stroke-width:1.5;" x1="643.3891" x2="635.6109" y1="468.3891" y2="460.6109"/><line style="stroke:#A80036;stroke-width:1.5;" x1="643.3891" x2="635.6109" y1="460.6109" y2="468.3891"/><text fill="#000000" font-family="sans-serif" font-size="14" lengthAdjust="spacing" textLength="76" x="323" y="122.6982">saveData()</text><ellipse cx="361" cy="144" fill="#FEFECE" rx="6" ry="6" style="stroke:#A80036;stroke-width:1.5;"/><text fill="#000000" font-family="sans-serif" font-size="14" lengthAdjust="spacing" textLength="91" x="423.5" y="122.6982">searchData()</text><ellipse cx="469" cy="144" fill="#FEFECE" rx="6" ry="6" style="stroke:#A80036;stroke-width:1.5;"/><text fill="#000000" font-family="sans-serif" font-size="14" lengthAdjust="spacing" textLength="91" x="527.5" y="122.6982">deleteData()</text><ellipse cx="573" cy="144" fill="#FEFECE" rx="6" ry="6" style="stroke:#A80036;stroke-width:1.5;"/><g id="lgs"><rect fill="#FEFECE" filter="url(#f1hr1odsscfeh3)" height="50.2656" rx="12.5" ry="12.5" style="stroke:#A80036;stroke-width:1.5;" width="173" x="146.5" y="7"/><line style="stroke:#A80036;stroke-width:1.5;" x1="146.5" x2="319.5" y1="33.2969" y2="33.2969"/><text fill="#000000" font-family="sans-serif" font-size="14" lengthAdjust="spacing" textLength="153" x="156.5" y="24.9951">Location gespeichert</text><text fill="#000000" font-family="sans-serif" font-size="12" lengthAdjust="spacing" textLength="135" x="151.5" y="49.4355">Speicherort der Daten</text></g><g id="i"><rect fill="#FEFECE" filter="url(#f1hr1odsscfeh3)" height="50" rx="12.5" ry="12.5" style="stroke:#A80036;stroke-width:1.5;" width="50" x="444" y="7"/><line style="stroke:#A80036;stroke-width:1.5;" x1="444" x2="494" y1="33.2969" y2="33.2969"/><text fill="#000000" font-family="sans-serif" font-size="14" lengthAdjust="spacing" textLength="26" x="456" y="24.9951">idle</text></g><ellipse cx="16" cy="32" fill="#000000" filter="url(#f1hr1odsscfeh3)" rx="10" ry="10" style="stroke:none;stroke-width:1.0;"/><ellipse cx="141" cy="144" filter="url(#f1hr1odsscfeh3)" rx="10" ry="10" style="stroke:#000000;stroke-width:1.0;fill:none;"/><ellipse cx="141.5" cy="144.5" fill="#000000" rx="6" ry="6" style="stroke:none;stroke-width:1.0;"/><!--MD5=[9f3fb695505dec1356e5ff21be03ce42]
link *start to lgs--><path d="M26.1753,32 C46.9512,32 96.1082,32 141.286,32 " fill="none" id="*start-to-lgs" style="stroke:#A80036;stroke-width:1.0;"/><polygon fill="#A80036" points="146.49,32,137.49,28,141.49,32,137.49,36,146.49,32" style="stroke:#A80036;stroke-width:1.0;"/><text fill="#000000" font-family="sans-serif" font-size="13" lengthAdjust="spacing" textLength="84" x="44.25" y="25.0669">setLocation()</text><!--MD5=[3b6ee433c328c0a9b81474e98328b22e]
link lgs to i--><path d="M319.538,32 C361.322,32 408.784,32 438.798,32 " fill="none" id="lgs-to-i" style="stroke:#A80036;stroke-width:1.0;"/><polygon fill="#A80036" points="443.828,32,434.828,28,438.828,32,434.828,36,443.828,32" style="stroke:#A80036;stroke-width:1.0;"/><text fill="#000000" font-family="sans-serif" font-size="13" lengthAdjust="spacing" textLength="88" x="337.75" y="25.0669">Funktionsloop</text><!--MD5=[5dd7ffd7995d82b10101c3ecc30eb6de]
link i to sed--><path d="M469,57.14 C469,80.777 469,115.657 469,132.771 " fill="none" id="i-to-sed" style="stroke:#A80036;stroke-width:1.0;"/><polygon fill="#A80036" points="469,137.851,473,128.851,469,132.851,465,128.851,469,137.851" style="stroke:#A80036;stroke-width:1.0;"/><!--MD5=[26409fb10e4aa1720436374b75f4ad86]
link i to ded--><path d="M491.823,57.14 C515.215,81.882 550.255,118.942 565.484,135.051 " fill="none" id="i-to-ded" style="stroke:#A80036;stroke-width:1.0;"/><polygon fill="#A80036" points="569.228,139.011,565.9501,129.7236,565.7924,135.3783,560.1378,135.2206,569.228,139.011" style="stroke:#A80036;stroke-width:1.0;"/><!--MD5=[d5053a70b817160bea4b731f58e8fffb]
link sed to ig--><path d="M472.95,148.76 C484.479,159.734 518.862,192.465 544.115,216.504 " fill="none" id="sed-to-ig" style="stroke:#A80036;stroke-width:1.0;"/><polygon fill="#A80036" points="547.771,219.984,544.0118,210.8808,544.1501,216.5359,538.4949,216.6742,547.771,219.984" style="stroke:#A80036;stroke-width:1.0;"/><!--MD5=[d74a8048c152f82959c8678f2e3cf086]
link ded to ig--><path d="M573,150.046 C573,161.768 573,191.589 573,214.518 " fill="none" id="ded-to-ig" style="stroke:#A80036;stroke-width:1.0;"/><polygon fill="#A80036" points="573,219.592,577,210.592,573,214.592,569,210.592,573,219.592" style="stroke:#A80036;stroke-width:1.0;"/><!--MD5=[7aef3d5c4c4375a2418fdc5551d8e7dd]
link ig to dg--><path d="M573,270.101 C573,290.593 573,320.076 573,341.884 " fill="none" id="ig-to-dg" style="stroke:#A80036;stroke-width:1.0;"/><polygon fill="#A80036" points="573,346.973,577,337.973,573,341.973,569,337.973,573,346.973" style="stroke:#A80036;stroke-width:1.0;"/><text fill="#000000" font-family="sans-serif" font-size="13" lengthAdjust="spacing" textLength="81" x="574" y="313.0669">deleteData()</text><!--MD5=[28e2c9e664b6642be1590ccbe481282e]
link ig to du--><path d="M616.98,270.118 C632.218,278.987 649.184,289.453 664,300 C682.643,313.271 702.24,329.677 717.812,343.374 " fill="none" id="ig-to-du" style="stroke:#A80036;stroke-width:1.0;"/><polygon fill="#A80036" points="721.681,346.794,717.5858,337.8369,717.9344,343.483,712.2882,343.8315,721.681,346.794" style="stroke:#A80036;stroke-width:1.0;"/><text fill="#000000" font-family="sans-serif" font-size="13" lengthAdjust="spacing" textLength="84" x="686" y="313.0669">searchData()</text><!--MD5=[7de4149de44fb598cb2c1ddc8b88c4f3]
link du to fa--><path d="M718.79,397.1183 C694.787,416.9369 662.376,443.6988 647.323,456.1277 " fill="none" id="du-to-fa" style="stroke:#A80036;stroke-width:1.0;"/><polygon fill="#A80036" points="643.237,459.5012,652.7241,456.8563,647.0929,456.3181,647.6311,450.6869,643.237,459.5012" style="stroke:#A80036;stroke-width:1.0;"/><!--MD5=[a17a005527efc19caf83a0a0d6828cf3]
link dg to fa--><path d="M590.687,397.1183 C604.562,416.0388 623.077,441.2873 632.658,454.3515 " fill="none" id="dg-to-fa" style="stroke:#A80036;stroke-width:1.0;"/><polygon fill="#A80036" points="635.758,458.5791,633.6606,448.9562,632.8009,454.5473,627.2097,453.6876,635.758,458.5791" style="stroke:#A80036;stroke-width:1.0;"/><!--MD5=[7a1242ae10c7c3be598df1f236022dbd]
link i to sad--><path d="M445.299,57.14 C421.007,81.882 384.62,118.942 368.805,135.051 " fill="none" id="i-to-sad" style="stroke:#A80036;stroke-width:1.0;"/><polygon fill="#A80036" points="364.917,139.011,374.0769,135.392,368.4202,135.4435,368.3688,129.7868,364.917,139.011" style="stroke:#A80036;stroke-width:1.0;"/><!--MD5=[362efca8f580d09d2b0a2519f26953b9]
link sad to lgh--><path d="M360.236,150.046 C358.459,161.768 353.941,191.589 350.467,214.518 " fill="none" id="sad-to-lgh" style="stroke:#A80036;stroke-width:1.0;"/><polygon fill="#A80036" points="349.698,219.592,355.0002,211.2922,350.4465,214.6483,347.0903,210.0946,349.698,219.592" style="stroke:#A80036;stroke-width:1.0;"/><!--MD5=[28f5c93a0629bba37aa8d1cf5a0c4d2f]
link lgh to ide--><path d="M341.758,270.101 C338.152,290.593 332.963,320.076 329.124,341.884 " fill="none" id="lgh-to-ide" style="stroke:#A80036;stroke-width:1.0;"/><polygon fill="#A80036" points="328.229,346.973,333.7292,338.8031,329.0961,342.0488,325.8505,337.4157,328.229,346.973" style="stroke:#A80036;stroke-width:1.0;"/><text fill="#000000" font-family="sans-serif" font-size="13" lengthAdjust="spacing" textLength="150" x="337" y="313.0669">eintragen in Datenbank</text><!--MD5=[bca0958a79b078520bfc6e2c48c59198]
link ide to fa--><path d="M408,397.0001 C485.53,419.1513 593.688,450.0538 628.062,459.8748 " fill="none" id="ide-to-fa" style="stroke:#A80036;stroke-width:1.0;"/><polygon fill="#A80036" points="633.266,461.3618,625.712,455.0422,628.4586,459.9876,623.5132,462.7341,633.266,461.3618" style="stroke:#A80036;stroke-width:1.0;"/><!--MD5=[761ca4167a52b8332afa0cbccc395f25]
link fa to i--><path d="M644.858,462.1214 C681.354,456.4888 876,424.0548 876,373 C876,143 876,143 876,143 C876,64.967 593.664,40.612 499.3,34.652 " fill="none" id="fa-to-i" style="stroke:#A80036;stroke-width:1.0;"/><polygon fill="#A80036" points="494.153,34.333,502.889,38.8807,499.1435,34.6415,503.3827,30.8959,494.153,34.333" style="stroke:#A80036;stroke-width:1.0;"/><text fill="#000000" font-family="sans-serif" font-size="13" lengthAdjust="spacing" textLength="128" x="877" y="249.5669">Funktion ausgeführt</text><!--MD5=[215f6025a2216d9aa1bcf5f97ef89cbe]
link i to *end--><path d="M443.853,36.836 C388.516,46.088 253.307,73.19 155,130 C153.794,130.697 152.607,131.515 151.465,132.396 " fill="none" id="i-to-*end" style="stroke:#A80036;stroke-width:1.0;"/><polygon fill="#A80036" points="147.34,135.98,156.757,133.0956,151.114,132.7002,151.5094,127.0572,147.34,135.98" style="stroke:#A80036;stroke-width:1.0;"/><text fill="#000000" font-family="sans-serif" font-size="13" lengthAdjust="spacing" textLength="56" x="245" y="100.0669">Beenden</text><!--MD5=[95fd406f8cebf74908f607e0992cc987]
@startuml
state "Location gespeichert" as lgs : Speicherort der Daten
state "idle" as i
state active {
    state "Location geholt" as lgh : Speicherort
    state "Informationen gefunden" as ig
    state "Information in Datenbank eingetragen" as ide
    state "Daten gelöscht" as dg
    state "Daten übertragen" as du : an AnalyseClient
    state "Funktion ausgeführt"  as fa <<exitPoint>>
    state "saveData()"  as sad <<entryPoint>>
    state "searchData()"  as sed <<entryPoint>>
    state "deleteData()"  as ded <<entryPoint>>
}

[*] -r-> lgs : setLocation()
lgs -r-> i : Funktionsloop
i - -> sed
i - -> ded
sed - -> ig
ded - -> ig
ig - -> dg : deleteData()
ig - -> du : searchData()
du - -> fa
dg - -> fa
i - -> sad
sad - -> lgh
lgh - -> ide : eintragen in Datenbank
ide - -> fa
fa - -> i : Funktion ausgeführt
i - -> [*] : Beenden
@enduml

PlantUML version 1.2021.15beta3(Unknown compile time)
(GPL source distribution)
Java Runtime: Java(TM) SE Runtime Environment
JVM: Java HotSpot(TM) 64-Bit Server VM
Default Encoding: UTF-8
Language: en
Country: US
--></g></svg>