<?xml version="1.0" encoding="UTF-8" standalone="no"?><svg xmlns="http://www.w3.org/2000/svg" xmlns:xlink="http://www.w3.org/1999/xlink" contentScriptType="application/ecmascript" contentStyleType="text/css" height="1351px" preserveAspectRatio="none" style="width:835px;height:1351px;background:#FFFFFF;" version="1.1" viewBox="0 0 835 1351" width="835px" zoomAndPan="magnify"><defs><filter height="300%" id="f48x03lhh49r5" width="300%" x="-1" y="-1"><feGaussianBlur result="blurOut" stdDeviation="2.0"/><feColorMatrix in="blurOut" result="blurOut2" type="matrix" values="0 0 0 0 0 0 0 0 0 0 0 0 0 0 0 0 0 0 .4 0"/><feOffset dx="4.0" dy="4.0" in="blurOut2" result="blurOut3"/><feBlend in="SourceGraphic" in2="blurOut3" mode="normal"/></filter></defs><g><!--MD5=[726bf5ae9c58ccf600049f91f38a1f22]
cluster t--><rect fill="#FEFECE" filter="url(#f48x03lhh49r5)" height="597" rx="12.5" ry="12.5" style="stroke:#A80036;stroke-width:1.5;" width="301" x="12" y="81"/><rect fill="#FFFFFF" height="564.7031" rx="12.5" ry="12.5" style="stroke:#FFFFFF;stroke-width:1.0;" width="295" x="15" y="110.2969"/><line style="stroke:#A80036;stroke-width:1.5;" x1="12" x2="313" y1="107.2969" y2="107.2969"/><text fill="#000000" font-family="sans-serif" font-size="14" lengthAdjust="spacing" textLength="55" x="135" y="97.9951">Tutorial</text><!--MD5=[57cfc2015c9d3964671bcbff5cacbb7f]
cluster s--><rect fill="#FEFECE" filter="url(#f48x03lhh49r5)" height="387" rx="12.5" ry="12.5" style="stroke:#A80036;stroke-width:1.5;" width="244" x="353" y="569"/><rect fill="#FFFFFF" height="354.7031" rx="12.5" ry="12.5" style="stroke:#FFFFFF;stroke-width:1.0;" width="238" x="356" y="598.2969"/><line style="stroke:#A80036;stroke-width:1.5;" x1="353" x2="597" y1="595.2969" y2="595.2969"/><text fill="#000000" font-family="sans-serif" font-size="14" lengthAdjust="spacing" textLength="43" x="453.5" y="585.9951">Setup</text><!--MD5=[79ba9fe6bd8680a6494d18e09b39dfb5]
cluster v--><rect fill="#FEFECE" filter="url(#f48x03lhh49r5)" height="612" rx="12.5" ry="12.5" style="stroke:#A80036;stroke-width:1.5;" width="289" x="24" y="727"/><rect fill="#FFFFFF" height="579.7031" rx="12.5" ry="12.5" style="stroke:#FFFFFF;stroke-width:1.0;" width="283" x="27" y="756.2969"/><line style="stroke:#A80036;stroke-width:1.5;" x1="24" x2="313" y1="753.2969" y2="753.2969"/><text fill="#000000" font-family="sans-serif" font-size="14" lengthAdjust="spacing" textLength="57" x="140" y="743.9951">Versuch</text><g id="t.ac"><rect fill="#FEFECE" filter="url(#f48x03lhh49r5)" height="64.2344" rx="12.5" ry="12.5" style="stroke:#A80036;stroke-width:1.5;" width="210" x="79" y="205"/><line style="stroke:#A80036;stroke-width:1.5;" x1="79" x2="289" y1="231.2969" y2="231.2969"/><text fill="#000000" font-family="sans-serif" font-size="14" lengthAdjust="spacing" textLength="139" x="114.5" y="222.9951">Abfrage von Config</text><text fill="#000000" font-family="sans-serif" font-size="12" lengthAdjust="spacing" textLength="99" x="84" y="247.4355">getConfigState()</text><text fill="#000000" font-family="sans-serif" font-size="12" lengthAdjust="spacing" textLength="190" x="84" y="261.4043">Soll Tutorial angezeigt werden?</text></g><g id="t.ta"><rect fill="#FEFECE" filter="url(#f48x03lhh49r5)" height="50" rx="12.5" ry="12.5" style="stroke:#A80036;stroke-width:1.5;" width="144" x="137" y="346"/><line style="stroke:#A80036;stroke-width:1.5;" x1="137" x2="281" y1="372.2969" y2="372.2969"/><text fill="#000000" font-family="sans-serif" font-size="14" lengthAdjust="spacing" textLength="124" x="147" y="363.9951">Tutorial anzeigen</text></g><g id="t.cs"><rect fill="#FEFECE" filter="url(#f48x03lhh49r5)" height="64.2344" rx="12.5" ry="12.5" style="stroke:#A80036;stroke-width:1.5;" width="208" x="81" y="590"/><line style="stroke:#A80036;stroke-width:1.5;" x1="81" x2="289" y1="616.2969" y2="616.2969"/><text fill="#000000" font-family="sans-serif" font-size="14" lengthAdjust="spacing" textLength="100" x="135" y="607.9951">Config setzen</text><text fill="#000000" font-family="sans-serif" font-size="12" lengthAdjust="spacing" textLength="188" x="86" y="632.4355">Config so 채ndern, dass Tutorial</text><text fill="#000000" font-family="sans-serif" font-size="12" lengthAdjust="spacing" textLength="157" x="86" y="646.4043">nicht mehr angezeigt wird</text></g><polygon fill="#FEFECE" filter="url(#f48x03lhh49r5)" points="277,473.5,289,485.5,277,497.5,265,485.5,277,473.5" style="stroke:#A80036;stroke-width:1.5;"/><path d="M44.5,473 L44.5,498.1328 A0,0 0 0 0 44.5,498.1328 L229.5,498.1328 A0,0 0 0 0 229.5,498.1328 L229.5,491 L264.804,485.5 L229.5,483 L229.5,483 L219.5,473 L44.5,473 A0,0 0 0 0 44.5,473 " fill="#FBFB77" filter="url(#f48x03lhh49r5)" style="stroke:#A80036;stroke-width:1.0;"/><path d="M219.5,473 L219.5,483 L229.5,483 L219.5,473 " fill="#FBFB77" style="stroke:#A80036;stroke-width:1.0;"/><text fill="#000000" font-family="sans-serif" font-size="13" lengthAdjust="spacing" textLength="164" x="50.5" y="490.0669">Tutorial wieder anzeigen?</text><ellipse cx="184" cy="134" fill="#000000" filter="url(#f48x03lhh49r5)" rx="10" ry="10" style="stroke:none;stroke-width:1.0;"/><g id="s.ka"><rect fill="#FEFECE" filter="url(#f48x03lhh49r5)" height="50.2656" rx="12.5" ry="12.5" style="stroke:#A80036;stroke-width:1.5;" width="187" x="385.5" y="755"/><line style="stroke:#A80036;stroke-width:1.5;" x1="385.5" x2="572.5" y1="781.2969" y2="781.2969"/><text fill="#000000" font-family="sans-serif" font-size="14" lengthAdjust="spacing" textLength="167" x="395.5" y="772.9951">Konfiguration abfragen</text><text fill="#000000" font-family="sans-serif" font-size="12" lengthAdjust="spacing" textLength="157" x="390.5" y="797.4355">speed und image location</text></g><g id="s.vb"><rect fill="#FEFECE" filter="url(#f48x03lhh49r5)" height="50.2656" rx="12.5" ry="12.5" style="stroke:#A80036;stroke-width:1.5;" width="181" x="385.5" y="882"/><line style="stroke:#A80036;stroke-width:1.5;" x1="385.5" x2="566.5" y1="908.2969" y2="908.2969"/><text fill="#000000" font-family="sans-serif" font-size="14" lengthAdjust="spacing" textLength="127" x="412.5" y="899.9951">Vorbereitung Bild</text><text fill="#000000" font-family="sans-serif" font-size="12" lengthAdjust="spacing" textLength="161" x="390.5" y="924.4355">instanziieren und anzeigen</text></g><ellipse cx="479" cy="622" fill="#000000" filter="url(#f48x03lhh49r5)" rx="10" ry="10" style="stroke:none;stroke-width:1.0;"/><g id="v.bi"><rect fill="#FEFECE" filter="url(#f48x03lhh49r5)" height="50.2656" rx="12.5" ry="12.5" style="stroke:#A80036;stroke-width:1.5;" width="206" x="61" y="882"/><line style="stroke:#A80036;stroke-width:1.5;" x1="61" x2="267" y1="908.2969" y2="908.2969"/><text fill="#000000" font-family="sans-serif" font-size="14" lengthAdjust="spacing" textLength="186" x="71" y="899.9951">Auf Benutzerinput warten</text><text fill="#000000" font-family="sans-serif" font-size="12" lengthAdjust="spacing" textLength="122" x="66" y="924.4355">Scrollen und Klicken</text></g><g id="v.bb"><rect fill="#FEFECE" filter="url(#f48x03lhh49r5)" height="50.2656" rx="12.5" ry="12.5" style="stroke:#A80036;stroke-width:1.5;" width="196" x="48" y="1027"/><line style="stroke:#A80036;stroke-width:1.5;" x1="48" x2="244" y1="1053.2969" y2="1053.2969"/><text fill="#000000" font-family="sans-serif" font-size="14" lengthAdjust="spacing" textLength="176" x="58" y="1044.9951">Berechnung Bildposition</text><text fill="#000000" font-family="sans-serif" font-size="12" lengthAdjust="spacing" textLength="81" x="53" y="1069.4355">aus Rohdaten</text></g><g id="v.ab"><rect fill="#FEFECE" filter="url(#f48x03lhh49r5)" height="50.2656" rx="12.5" ry="12.5" style="stroke:#A80036;stroke-width:1.5;" width="187" x="55.5" y="1138"/><line style="stroke:#A80036;stroke-width:1.5;" x1="55.5" x2="242.5" y1="1164.2969" y2="1164.2969"/><text fill="#000000" font-family="sans-serif" font-size="14" lengthAdjust="spacing" textLength="167" x="65.5" y="1155.9951">Anpassung Bildposition</text><text fill="#000000" font-family="sans-serif" font-size="12" lengthAdjust="spacing" textLength="161" x="60.5" y="1180.4355">Dauer h채ngt von speed ab</text></g><g id="v.ap"><rect fill="#FEFECE" filter="url(#f48x03lhh49r5)" height="50" rx="12.5" ry="12.5" style="stroke:#A80036;stroke-width:1.5;" width="218" x="63" y="1265"/><line style="stroke:#A80036;stroke-width:1.5;" x1="63" x2="281" y1="1291.2969" y2="1291.2969"/><text fill="#000000" font-family="sans-serif" font-size="14" lengthAdjust="spacing" textLength="198" x="73" y="1282.9951">Abspeichern neuer Position</text></g><ellipse cx="164" cy="780" fill="#000000" filter="url(#f48x03lhh49r5)" rx="10" ry="10" style="stroke:none;stroke-width:1.0;"/><g id="err"><rect fill="#FEFECE" filter="url(#f48x03lhh49r5)" height="50.2656" rx="12.5" ry="12.5" style="stroke:#A80036;stroke-width:1.5;" width="181" x="621.5" y="882"/><line style="stroke:#A80036;stroke-width:1.5;" x1="621.5" x2="802.5" y1="908.2969" y2="908.2969"/><text fill="#000000" font-family="sans-serif" font-size="14" lengthAdjust="spacing" textLength="45" x="689.5" y="899.9951">Fehler</text><text fill="#000000" font-family="sans-serif" font-size="12" lengthAdjust="spacing" textLength="161" x="626.5" y="924.4355">informative Fehlermeldung</text></g><g id="Speichern"><rect fill="#FEFECE" filter="url(#f48x03lhh49r5)" height="50.2656" rx="12.5" ry="12.5" style="stroke:#A80036;stroke-width:1.5;" width="196" x="354" y="1138"/><line style="stroke:#A80036;stroke-width:1.5;" x1="354" x2="550" y1="1164.2969" y2="1164.2969"/><text fill="#000000" font-family="sans-serif" font-size="14" lengthAdjust="spacing" textLength="73" x="415.5" y="1155.9951">Speichern</text><text fill="#000000" font-family="sans-serif" font-size="12" lengthAdjust="spacing" textLength="176" x="359" y="1180.4355">der Data im Speichermedium</text></g><ellipse cx="20" cy="16" fill="#000000" filter="url(#f48x03lhh49r5)" rx="10" ry="10" style="stroke:none;stroke-width:1.0;"/><ellipse cx="625" cy="1052" filter="url(#f48x03lhh49r5)" rx="10" ry="10" style="stroke:#000000;stroke-width:1.0;fill:none;"/><ellipse cx="625.5" cy="1052.5" fill="#000000" rx="6" ry="6" style="stroke:none;stroke-width:1.0;"/><!--MD5=[ef553cc5e735e7c5d4f29d037fe5b309]
link *start*t to ac--><path d="M184,144.32 C184,156.78 184,179.6 184,199.35 " fill="none" id="*start*t-to-ac" style="stroke:#A80036;stroke-width:1.0;"/><polygon fill="#A80036" points="184,204.56,188,195.56,184,199.56,180,195.56,184,204.56" style="stroke:#A80036;stroke-width:1.0;"/><!--MD5=[3f19270b61e07219a5c7c6cf1c9c77be]
link ac to ta--><path d="M189.925,269.28 C194.042,291.02 199.489,319.78 203.509,341.01 " fill="none" id="ac-to-ta" style="stroke:#A80036;stroke-width:1.0;"/><polygon fill="#A80036" points="204.446,345.96,206.7049,336.3737,203.5174,341.047,198.8441,337.8595,204.446,345.96" style="stroke:#A80036;stroke-width:1.0;"/><text fill="#000000" font-family="sans-serif" font-size="13" lengthAdjust="spacing" textLength="12" x="200" y="312.0669">Ja</text><!--MD5=[5ac8e12c74ae5b9a44bdd7f99523310d]
link ac to s--><path d="M227.739,269.04 C251.974,288.48 280.629,315.58 298,346 C328.601,399.5935 344.3408,467.0493 352.4353,521.7386 C354.4589,535.411 356.0047,548.2854 357.1854,559.9459 C357.4806,562.861 357.7529,565.7003 358.0042,568.4571 " fill="none" id="ac-to-s" style="stroke:#A80036;stroke-width:1.0;"/><polygon fill="#A80036" points="358.0042,568.4571,361.1707,559.1312,357.5503,563.4778,353.2037,559.8574,358.0042,568.4571" style="stroke:#A80036;stroke-width:1.0;"/><text fill="#000000" font-family="sans-serif" font-size="13" lengthAdjust="spacing" textLength="28" x="338" y="439.0669">Nein</text><!--MD5=[dfd283207c23aa3a1c23df9646d77a26]
link ta to checkbox--><path d="M223.588,396.134 C237.856,419.74 258.984,454.694 269.898,472.751 " fill="none" id="ta-to-checkbox" style="stroke:#A80036;stroke-width:1.0;"/><polygon fill="#A80036" points="272.691,477.372,271.4608,467.6003,270.1055,473.0924,264.6134,471.7371,272.691,477.372" style="stroke:#A80036;stroke-width:1.0;"/><!--MD5=[a76cb99f514186c193abfb6a87b3846e]
link checkbox to cs--><path d="M272.311,493.355 C260.852,510.108 230.782,554.069 209.133,585.719 " fill="none" id="checkbox-to-cs" style="stroke:#A80036;stroke-width:1.0;"/><polygon fill="#A80036" points="206.27,589.904,214.6534,584.735,209.0934,585.7775,208.0509,580.2175,206.27,589.904" style="stroke:#A80036;stroke-width:1.0;"/><text fill="#000000" font-family="sans-serif" font-size="13" lengthAdjust="spacing" textLength="28" x="249" y="541.0669">Nein</text><!--MD5=[b183206fc778c11802c7f6c6428e9cd8]
link checkbox to s--><path d="M279.771,494.764 C283.837,506.393 292.028,528.057 302,545 C312.5065,562.85 326.6772,581.2388 338.4975,595.4565 C341.4526,599.0109 344.2607,602.3047 346.828,605.2642 C348.1116,606.7439 349.335,608.1401 350.4865,609.4435 C351.0622,610.0952 351.6199,610.7237 352.1582,611.3278 C352.4273,611.6299 352.6916,611.9259 352.9508,612.2157 " fill="none" id="checkbox-to-s" style="stroke:#A80036;stroke-width:1.0;"/><polygon fill="#A80036" points="352.9508,612.2157,349.9315,602.8411,349.6172,608.4892,343.9691,608.1749,352.9508,612.2157" style="stroke:#A80036;stroke-width:1.0;"/><text fill="#000000" font-family="sans-serif" font-size="13" lengthAdjust="spacing" textLength="12" x="303" y="541.0669">Ja</text><!--MD5=[1f8cf3baed11dc6d7cf9360deb2ea854]
link cs to s--><path d="M289.156,622 C301.0365,622 312.917,622 324.7975,622 C330.7378,622 336.678,622 342.6183,622 C345.5884,622 348.5585,622 351.5286,622 C351.8999,622 352.2712,622 352.6424,622 C352.7352,622 352.8281,622 352.9209,622 " fill="none" id="cs-to-s" style="stroke:#A80036;stroke-width:1.0;"/><polygon fill="#A80036" points="352.9209,622,343.9209,618,347.9209,622,343.9209,626,352.9209,622" style="stroke:#A80036;stroke-width:1.0;"/><!--MD5=[ae04446a7846041b6057d12e992ea081]
link *start*s to ka--><path d="M479,632.291 C479,654.923 479,713.677 479,749.59 " fill="none" id="*start*s-to-ka" style="stroke:#A80036;stroke-width:1.0;"/><polygon fill="#A80036" points="479,754.716,483,745.716,479,749.716,475,745.716,479,754.716" style="stroke:#A80036;stroke-width:1.0;"/><!--MD5=[4be6b3dfff7856a8e2c6bf554a3bc2a6]
link ka to vb--><path d="M476.826,805.172 C476.089,814.486 475.361,825.23 475,835 C474.498,848.582 474.613,863.634 474.908,876.371 " fill="none" id="ka-to-vb" style="stroke:#A80036;stroke-width:1.0;"/><polygon fill="#A80036" points="475.044,881.676,478.8112,872.5761,474.9154,876.6777,470.8138,872.7819,475.044,881.676" style="stroke:#A80036;stroke-width:1.0;"/><text fill="#000000" font-family="sans-serif" font-size="13" lengthAdjust="spacing" textLength="142" x="476" y="848.0669">Konfiguration erhalten</text><!--MD5=[7a0602b176e0ac1bfdc26c13c49b5ff9]
link ka to err--><path d="M556.875,805.126 C578.896,813.288 602.448,823.34 623,835 C644.237,847.049 665.702,864.002 682.23,878.32 " fill="none" id="ka-to-err" style="stroke:#A80036;stroke-width:1.0;"/><polygon fill="#A80036" points="686.322,881.899,682.1816,872.9627,682.5587,878.607,676.9144,878.984,686.322,881.899" style="stroke:#A80036;stroke-width:1.0;"/><text fill="#000000" font-family="sans-serif" font-size="13" lengthAdjust="spacing" textLength="177" x="650" y="848.0669">Konfiguration nicht erhalten</text><!--MD5=[46b38ccc348d7f386dbe5d455d50919a]
reverse link v to vb--><path d="M313.043,786.8796 C313.2571,787.0361 313.4751,787.1954 313.6968,787.3575 C314.1402,787.6816 314.5986,788.0167 315.0716,788.3625 C316.9636,789.7455 319.0887,791.2989 321.4179,793.0015 C330.7345,799.8119 343.3159,809.0089 357.3001,819.2313 C385.2685,839.676 418.848,864.2225 443.143,881.982 " fill="none" id="v-backto-vb" style="stroke:#A80036;stroke-width:1.0;"/><polygon fill="#A80036" points="313.043,786.8796,317.9482,795.42,317.0795,789.8302,322.6693,788.9615,313.043,786.8796" style="stroke:#A80036;stroke-width:1.0;"/><!--MD5=[04f5d494f5c1d974e130f4b849bb4ba7]
link *start*v to bi--><path d="M164,790.395 C164,808.462 164,848.723 164,876.614 " fill="none" id="*start*v-to-bi" style="stroke:#A80036;stroke-width:1.0;"/><polygon fill="#A80036" points="164,881.669,168,872.669,164,876.669,160,872.669,164,881.669" style="stroke:#A80036;stroke-width:1.0;"/><!--MD5=[f33a61aa82e0e3d4a582a87c5d5fbc85]
link bi to bb--><path d="M160.947,932.258 C157.843,956.91 153.033,995.125 149.712,1021.511 " fill="none" id="bi-to-bb" style="stroke:#A80036;stroke-width:1.0;"/><polygon fill="#A80036" points="149.068,1026.623,154.1606,1018.193,149.6924,1021.6621,146.2232,1017.1939,149.068,1026.623" style="stroke:#A80036;stroke-width:1.0;"/><text fill="#000000" font-family="sans-serif" font-size="13" lengthAdjust="spacing" textLength="32" x="156" y="993.0669">Input</text><!--MD5=[e8521f136bd787fc37b5c3611c03d098]
link bb to ab--><path d="M146.666,1077.191 C147.116,1093.56 147.714,1115.279 148.192,1132.64 " fill="none" id="bb-to-ab" style="stroke:#A80036;stroke-width:1.0;"/><polygon fill="#A80036" points="148.336,1137.877,152.0877,1128.7707,148.1989,1132.8789,144.0907,1128.9901,148.336,1137.877" style="stroke:#A80036;stroke-width:1.0;"/><!--MD5=[045b4c2267f8e7115227f2d3e2828dad]
link ab to ap--><path d="M153.435,1188.101 C157.205,1208.593 162.63,1238.076 166.643,1259.884 " fill="none" id="ab-to-ap" style="stroke:#A80036;stroke-width:1.0;"/><polygon fill="#A80036" points="167.579,1264.9727,169.8852,1255.3977,166.6746,1260.0552,162.0171,1256.8446,167.579,1264.9727" style="stroke:#A80036;stroke-width:1.0;"/><!--MD5=[ae50478485bf74b4e5b2eac0d4032364]
link ap to bi--><path d="M202.273,1264.7263 C222.847,1246.183 248.36,1218.657 260,1188 C275.249,1147.837 268.559,1048.238 261,1027 C248.105,990.77 218.934,957.579 195.929,935.509 " fill="none" id="ap-to-bi" style="stroke:#A80036;stroke-width:1.0;"/><polygon fill="#A80036" points="192.293,932.064,196.0761,941.1573,195.923,935.5025,201.5777,935.3494,192.293,932.064" style="stroke:#A80036;stroke-width:1.0;"/><!--MD5=[7c2c491790def1943b0ac6dd1fa50c5f]
reverse link Speichern to ap--><path d="M393.297,1190.206 C343.887,1212.265 273.802,1243.552 225.821,1264.9727 " fill="none" id="Speichern-backto-ap" style="stroke:#A80036;stroke-width:1.0;"/><polygon fill="#A80036" points="398.013,1188.101,388.1642,1188.1179,393.4474,1190.1395,391.4258,1195.4228,398.013,1188.101" style="stroke:#A80036;stroke-width:1.0;"/><text fill="#000000" font-family="sans-serif" font-size="13" lengthAdjust="spacing" textLength="109" x="330" y="1231.0669">Versuch beendet</text><!--MD5=[412d8b86e5883c1996899c04f0dae9d0]
link *start to t--><path d="M20,26.1 C20,32.83 20,42.7219 20,53.8117 C20,59.3566 20,65.2011 20,71.0995 C20,74.0487 20,77.0114 20,79.9569 C20,80.141 20,80.325 20,80.509 " fill="none" id="*start-to-t" style="stroke:#A80036;stroke-width:1.0;"/><polygon fill="#A80036" points="20,80.509,24,71.509,20,75.509,16,71.509,20,80.509" style="stroke:#A80036;stroke-width:1.0;"/><!--MD5=[569fcbeb2cc9c9798d00ec88a7200871]
reverse link *end to Speichern--><path d="M612.316,1060.992 C586.987,1076.95 529.251,1113.327 490.435,1137.784 " fill="none" id="*end-backto-Speichern" style="stroke:#A80036;stroke-width:1.0;"/><polygon fill="#A80036" points="616.656,1058.257,606.9089,1059.669,612.4253,1060.9217,611.1725,1066.4381,616.656,1058.257" style="stroke:#A80036;stroke-width:1.0;"/><!--MD5=[dfb6e7c2f8b207f8e3f74365dbae73bc]
link err to *end--><path d="M697.242,932.258 C678.516,963.036 646.93,1014.954 632.544,1038.6 " fill="none" id="err-to-*end" style="stroke:#A80036;stroke-width:1.0;"/><polygon fill="#A80036" points="629.905,1042.938,638.0013,1037.33,632.5047,1038.667,631.1677,1033.1704,629.905,1042.938" style="stroke:#A80036;stroke-width:1.0;"/><!--MD5=[21bbc18e45b8b4d852648ce23c203d57]
@startuml
state "Fehler" as err : informative Fehlermeldung
state Speichern : der Data im Speichermedium

state "Tutorial" as t {
    state "Abfrage von Config" as ac : getConfigState()\nSoll Tutorial angezeigt werden?
    state "Tutorial anzeigen" as ta
    state "Config setzen" as cs : Config so 채ndern, dass Tutorial\nnicht mehr angezeigt wird
    state checkbox <<choice>>
    note left of checkbox
        Tutorial wieder anzeigen?
    end note
    [*] - -> ac
    ac - -> ta : Ja
    ac - -> s : Nein
    ta - -> checkbox
    checkbox - -> cs : Nein
    checkbox - -> s : Ja
    cs -r-> s
}

state "Setup" as s {
    state "Konfiguration abfragen" as ka : speed und image location
    state "Vorbereitung Bild" as vb : instanziieren und anzeigen
    [*] - -> ka
    ka - -> vb : Konfiguration erhalten
    ka -d-> err : Konfiguration nicht erhalten
    vb -l-> v
}

state "Versuch" as v {
    state "Auf Benutzerinput warten" as bi : Scrollen und Klicken
    state "Berechnung Bildposition" as bb : aus Rohdaten
    state "Anpassung Bildposition" as ab : Dauer h채ngt von speed ab
    state "Abspeichern neuer Position" as ap
    [*] - -> bi
    bi - -> bb : Input
    bb - -> ab
    ab - -> ap
    ap - -> bi
    ap -u-> Speichern : Versuch beendet
}

[*] - -> t
Speichern -u-> [*]
err -d-> [*]
@enduml

PlantUML version 1.2021.14(Fri Nov 12 16:46:50 UTC 2021)
(GPL source distribution)
Java Runtime: Java(TM) SE Runtime Environment
JVM: Java HotSpot(TM) 64-Bit Server VM
Default Encoding: UTF-8
Language: en
Country: US
--></g></svg>