<?xml version="1.0" encoding="UTF-8" standalone="no"?><svg xmlns="http://www.w3.org/2000/svg" xmlns:xlink="http://www.w3.org/1999/xlink" contentScriptType="application/ecmascript" contentStyleType="text/css" height="480px" preserveAspectRatio="none" style="width:926px;height:480px;background:#FFFFFF;" version="1.1" viewBox="0 0 926 480" width="926px" zoomAndPan="magnify"><defs><filter height="300%" id="fug19abfurx0s" width="300%" x="-1" y="-1"><feGaussianBlur result="blurOut" stdDeviation="2.0"/><feColorMatrix in="blurOut" result="blurOut2" type="matrix" values="0 0 0 0 0 0 0 0 0 0 0 0 0 0 0 0 0 0 .4 0"/><feOffset dx="4.0" dy="4.0" in="blurOut2" result="blurOut3"/><feBlend in="SourceGraphic" in2="blurOut3" mode="normal"/></filter></defs><g><!--MD5=[f829c9c47f9eb7b22ca1e7fac2a020f4]
cluster AnalyseClient - EyeTracking - Diagramm--><rect fill="#789DD5" filter="url(#fug19abfurx0s)" height="461" style="stroke:#000000;stroke-width:1.5;" width="493" x="136" y="7"/><text fill="#000000" font-family="sans-serif" font-size="14" font-weight="bold" lengthAdjust="spacing" textLength="323" x="221" y="21.9951">AnalyseClient - EyeTracking - Diagramm</text><ellipse cx="382.7496" cy="302.0499" fill="#FEFECE" filter="url(#fug19abfurx0s)" rx="230.7496" ry="48.5499" style="stroke:#A80036;stroke-width:1.5;"/><text fill="#000000" font-family="sans-serif" font-size="14" lengthAdjust="spacing" textLength="134" x="315.7496" y="284.5997">Versuch auswählen</text><line style="stroke:#A80036;stroke-width:1.0;stroke-dasharray:1.0,2.0;" x1="163.0157" x2="602.4835" y1="287.9015" y2="287.9015"/><text fill="#000000" font-family="sans-serif" font-size="14" lengthAdjust="spacing" textLength="427" x="169.2496" y="304.8966">der konkrete Versuch in dem Eyetracking verwendet wurde</text><ellipse cx="382.4663" cy="72.8238" fill="#FEFECE" filter="url(#fug19abfurx0s)" rx="121.4663" ry="30.3238" style="stroke:#A80036;stroke-width:1.5;"/><text fill="#000000" font-family="sans-serif" font-size="14" lengthAdjust="spacing" textLength="123" x="307.7163" y="64.4229">Daten anschauen</text><line style="stroke:#A80036;stroke-width:1.0;stroke-dasharray:1.0,2.0;" x1="263.7296" x2="501.2029" y1="67.7247" y2="67.7247"/><text fill="#000000" font-family="sans-serif" font-size="14" lengthAdjust="spacing" textLength="164" x="287.2163" y="84.7198">Generiertes Diagramm</text><ellipse cx="382.2762" cy="186.9552" fill="#FEFECE" filter="url(#fug19abfurx0s)" rx="145.2762" ry="31.4552" style="stroke:#A80036;stroke-width:1.5;"/><text fill="#000000" font-family="sans-serif" font-size="14" lengthAdjust="spacing" textLength="126" x="306.8733" y="175.6217">Analyse anpassen</text><line style="stroke:#A80036;stroke-width:1.0;stroke-dasharray:1.0,2.0;" x1="242.8157" x2="521.7367" y1="178.9235" y2="178.9235"/><text fill="#000000" font-family="sans-serif" font-size="14" lengthAdjust="spacing" textLength="231" x="254.3733" y="195.9186">Optionen zur Veranschaulichung</text><ellipse cx="382.7353" cy="418.9471" fill="#FEFECE" filter="url(#fug19abfurx0s)" rx="152.7353" ry="32.9471" style="stroke:#A80036;stroke-width:1.5;"/><text fill="#000000" font-family="sans-serif" font-size="14" lengthAdjust="spacing" textLength="86" x="335.6942" y="403.3131">Exportieren</text><line style="stroke:#A80036;stroke-width:1.0;stroke-dasharray:1.0,2.0;" x1="242.1029" x2="523.3677" y1="406.6149" y2="406.6149"/><text fill="#000000" font-family="sans-serif" font-size="14" lengthAdjust="spacing" textLength="261" x="248.1942" y="423.61">sowohl Rohdaten als auch Diagramm</text><!--MD5=[8f89c3b771be60a8fe1c771d5b27a045]
entity f--><ellipse cx="47.5" cy="214" fill="#FEFECE" filter="url(#fug19abfurx0s)" rx="8" ry="8" style="stroke:#A80036;stroke-width:1.5;"/><path d="M47.5,222 L47.5,249 M34.5,230 L60.5,230 M47.5,249 L34.5,264 M47.5,249 L60.5,264 " fill="none" filter="url(#fug19abfurx0s)" style="stroke:#A80036;stroke-width:1.5;"/><text fill="#000000" font-family="sans-serif" font-size="14" lengthAdjust="spacing" textLength="83" x="6" y="282.4951">Forschende</text><!--MD5=[d8322213e5f4465576b8bf70cd9bce59]
entity s--><rect fill="#FFFFFF" filter="url(#fug19abfurx0s)" height="36.2969" style="stroke:#000000;stroke-width:1.5;" width="142" x="772" y="148"/><text fill="#000000" font-family="sans-serif" font-size="14" lengthAdjust="spacing" textLength="122" x="782" y="170.9951">Speichermedium</text><!--MD5=[dc634cd686d7907141002aebb5db3231]
link f to da--><path d="M69.4858,204.416 C83.2233,181.684 103.2164,154.644 128,138 C168.486,110.81 219.588,94.994 265.285,85.794 " fill="none" id="f-to-da" style="stroke:#A80036;stroke-width:1.0;"/><polygon fill="#A80036" points="270.258,84.814,260.6543,82.6303,265.3524,85.7811,262.2017,90.4793,270.258,84.814" style="stroke:#A80036;stroke-width:1.0;"/><!--MD5=[5247012ab2ec820e8c451b9cc12a57f6]
link f to aa--><path d="M89.0958,236.723 C98.8772,234.788 109.303,232.775 119,231 C164.955,222.588 215.555,213.957 259.963,206.593 " fill="none" id="f-to-aa" style="stroke:#A80036;stroke-width:1.0;"/><polygon fill="#A80036" points="265.069,205.747,255.5363,203.2716,260.1362,206.5641,256.8437,211.1641,265.069,205.747" style="stroke:#A80036;stroke-width:1.0;"/><!--MD5=[8ff99f706185a253fd592e702411e456]
link f to ex--><path d="M64.5522,285.537 C77.5581,313.058 98.5758,347.966 128,368 C158.151,388.529 194.701,401.164 230.549,408.8481 " fill="none" id="f-to-ex" style="stroke:#A80036;stroke-width:1.0;"/><polygon fill="#A80036" points="235.833,409.9463,227.8349,404.199,230.9376,408.9291,226.2075,412.0317,235.833,409.9463" style="stroke:#A80036;stroke-width:1.0;"/><!--MD5=[2798e5c860a2f0e8ca88ad079a5ab1e2]
link f to va--><path d="M89.3323,251.989 C117.453,256.803 157.008,263.573 197.952,270.582 " fill="none" id="f-to-va" style="stroke:#A80036;stroke-width:1.0;"/><polygon fill="#A80036" points="202.952,271.438,194.7566,265.9758,198.0238,270.5938,193.4058,273.861,202.952,271.438" style="stroke:#A80036;stroke-width:1.0;"/><!--MD5=[318067c3824ee7cdb1fc15c31ba5ca15]
link va to s--><path d="M532.805,265.1 C567.167,256.062 603.463,246.076 637,236 C688.57,220.506 746.58,200.446 787.695,185.775 " fill="none" id="va-to-s" style="stroke:#A80036;stroke-width:1.0;stroke-dasharray:7.0,7.0;"/><polygon fill="#A80036" points="792.624,184.013,782.8027,183.2763,787.9158,185.6962,785.4959,190.8093,792.624,184.013" style="stroke:#A80036;stroke-width:1.0;"/><text fill="#000000" font-family="sans-serif" font-size="13" lengthAdjust="spacing" textLength="89" x="649" y="200.0669">Datenabfrage</text><!--MD5=[030a0e56c15434aad65b1ea021f67ae6]
reverse link da to s--><path d="M482.575,93.096 C569.806,110.789 694.648,136.112 771.898,151.781 " fill="none" id="da-backto-s" style="stroke:#A80036;stroke-width:1.0;stroke-dasharray:7.0,7.0;"/><polygon fill="#A80036" points="477.668,92.101,485.6928,97.8109,482.5681,93.0953,487.2837,89.9707,477.668,92.101" style="stroke:#A80036;stroke-width:1.0;"/><text fill="#000000" font-family="sans-serif" font-size="13" lengthAdjust="spacing" textLength="95" x="646" y="124.0669">Datenlieferung</text><!--MD5=[0455da5a12b35b0053a22f9e60fc746e]
reverse link da to aa--><path d="M382.5,109.145 C382.5,123.948 382.5,140.928 382.5,155.245 " fill="none" id="da-backto-aa" style="stroke:#A80036;stroke-width:1.0;stroke-dasharray:7.0,7.0;"/><polygon fill="#A80036" points="382.5,103.798,378.5,112.798,382.5,108.798,386.5,112.798,382.5,103.798" style="stroke:#A80036;stroke-width:1.0;"/><text fill="#000000" font-family="sans-serif" font-size="13" lengthAdjust="spacing" textLength="42" x="350" y="134.0669">ändert</text><!--MD5=[76cc22d67f3f269128107c992242e4f6]
@startuml
left to right direction

actor Forschende as f

rectangle "AnalyseClient - EyeTracking - Diagramm" #789dd5 {
    ' usecase aw as "Analysemethode wählen
    ' ..
    ' hier: ViewTimeDistr"
    usecase va as "Versuch auswählen
    ..
    der konkrete Versuch in dem Eyetracking verwendet wurde"
    usecase da as "Daten anschauen
    ..
    Generiertes Diagramm"
    usecase aa as "Analyse anpassen
    ..
    Optionen zur Veranschaulichung"
    usecase ex as "Exportieren
    ..
    sowohl Rohdaten als auch Diagramm"
}

rectangle Speichermedium as s #FFFFFF

' f - -> aw
f - -> da
f - -> aa
f - -> ex
f - -> va


' intern
va ..> s : Datenabfrage
s .l.> da : Datenlieferung


da <.r. aa : ändert
@enduml

@startuml
left to right direction

actor Forschende as f

rectangle "AnalyseClient - EyeTracking - Diagramm" #789dd5 {
    usecase va as "Versuch auswählen
    ..
    der konkrete Versuch in dem Eyetracking verwendet wurde"
    usecase da as "Daten anschauen
    ..
    Generiertes Diagramm"
    usecase aa as "Analyse anpassen
    ..
    Optionen zur Veranschaulichung"
    usecase ex as "Exportieren
    ..
    sowohl Rohdaten als auch Diagramm"
}

rectangle Speichermedium as s #FFFFFF

f - -> da
f - -> aa
f - -> ex
f - -> va


va ..> s : Datenabfrage
s .l.> da : Datenlieferung


da <.r. aa : ändert
@enduml

PlantUML version 1.2021.15beta6(Unknown compile time)
(GPL source distribution)
Java Runtime: Java(TM) SE Runtime Environment
JVM: Java HotSpot(TM) 64-Bit Server VM
Default Encoding: UTF-8
Language: en
Country: US
--></g></svg>