<?xml version="1.0" encoding="UTF-8" standalone="no"?><svg xmlns="http://www.w3.org/2000/svg" xmlns:xlink="http://www.w3.org/1999/xlink" contentScriptType="application/ecmascript" contentStyleType="text/css" height="698px" preserveAspectRatio="none" style="width:1707px;height:698px;" version="1.1" viewBox="0 0 1707 698" width="1707px" zoomAndPan="magnify"><defs><filter height="300%" id="f1sxn3lg1waahw" width="300%" x="-1" y="-1"><feGaussianBlur result="blurOut" stdDeviation="2.0"/><feColorMatrix in="blurOut" result="blurOut2" type="matrix" values="0 0 0 0 0 0 0 0 0 0 0 0 0 0 0 0 0 0 .4 0"/><feOffset dx="4.0" dy="4.0" in="blurOut2" result="blurOut3"/><feBlend in="SourceGraphic" in2="blurOut3" mode="normal"/></filter></defs><g><!--cluster z--><rect fill="#789DD5" filter="url(#f1sxn3lg1waahw)" height="397.5" style="stroke: #000000; stroke-width: 1.5;" width="826" x="842" y="146"/><text fill="#000000" font-family="sans-serif" font-size="14" font-weight="bold" lengthAdjust="spacingAndGlyphs" textLength="93" x="1208.5" y="160.9951">CodeCharts</text><!--cluster a--><rect fill="#FFFFFF" filter="url(#f1sxn3lg1waahw)" height="109" style="stroke: #000000; stroke-width: 1.5;" width="252" x="30" y="439"/><text fill="#000000" font-family="sans-serif" font-size="14" font-weight="bold" lengthAdjust="spacingAndGlyphs" textLength="107" x="102.5" y="453.9951">AnalyseClient</text><!--cluster c--><rect fill="#FFFFFF" filter="url(#f1sxn3lg1waahw)" height="113" style="stroke: #000000; stroke-width: 1.5;" width="480" x="322" y="437"/><text fill="#000000" font-family="sans-serif" font-size="14" font-weight="bold" lengthAdjust="spacingAndGlyphs" textLength="51" x="536.5" y="451.9951">Config</text><ellipse cx="1027.0624" cy="207.5125" fill="#FEFECE" filter="url(#f1sxn3lg1waahw)" rx="80.5624" ry="18.5125" style="stroke: #A80036; stroke-width: 1.5;"/><text fill="#000000" font-family="sans-serif" font-size="14" lengthAdjust="spacingAndGlyphs" textLength="132" x="961.0624" y="212.1609">Tutorial anschauen</text><ellipse cx="1017.9927" cy="334.2985" fill="#FEFECE" filter="url(#f1sxn3lg1waahw)" rx="144.4927" ry="31.2985" style="stroke: #A80036; stroke-width: 1.5;"/><text fill="#000000" font-family="sans-serif" font-size="14" lengthAdjust="spacingAndGlyphs" textLength="271" x="882.4927" y="338.947">Tutorial: zukünftige Sichtbarkeit wählen</text><ellipse cx="1214.9543" cy="207.2909" fill="#FEFECE" filter="url(#f1sxn3lg1waahw)" rx="69.4543" ry="16.2909" style="stroke: #A80036; stroke-width: 1.5;"/><text fill="#000000" font-family="sans-serif" font-size="14" lengthAdjust="spacingAndGlyphs" textLength="105" x="1162.4543" y="211.9393">Bild betrachten</text><ellipse cx="1275.1068" cy="334.4214" fill="#FEFECE" filter="url(#f1sxn3lg1waahw)" rx="77.6068" ry="17.9214" style="stroke: #A80036; stroke-width: 1.5;"/><text fill="#000000" font-family="sans-serif" font-size="14" lengthAdjust="spacingAndGlyphs" textLength="125" x="1212.6068" y="339.0698">Raster betrachten</text><ellipse cx="1516.1456" cy="503.0291" fill="#FEFECE" filter="url(#f1sxn3lg1waahw)" rx="70.6456" ry="16.5291" style="stroke: #A80036; stroke-width: 1.5;"/><text fill="#000000" font-family="sans-serif" font-size="14" lengthAdjust="spacingAndGlyphs" textLength="108" x="1462.1456" y="507.6776">Eingabe tätigen</text><ellipse cx="1515.8356" cy="334.4671" fill="#FEFECE" filter="url(#f1sxn3lg1waahw)" rx="127.8356" ry="27.9671" style="stroke: #A80036; stroke-width: 1.5;"/><text fill="#000000" font-family="sans-serif" font-size="14" lengthAdjust="spacingAndGlyphs" textLength="236" x="1397.8356" y="339.1156">Error-Message or Falsche Eingabe</text><ellipse cx="165.8318" cy="502.8664" fill="#FEFECE" filter="url(#f1sxn3lg1waahw)" rx="92.3318" ry="20.8664" style="stroke: #A80036; stroke-width: 1.5;"/><text fill="#000000" font-family="sans-serif" font-size="14" lengthAdjust="spacingAndGlyphs" textLength="159" x="86.3318" y="507.5148">Ergebnisse anschauen</text><ellipse cx="691.0998" cy="503.22" fill="#FEFECE" filter="url(#f1sxn3lg1waahw)" rx="86.5998" ry="19.72" style="stroke: #A80036; stroke-width: 1.5;"/><text fill="#000000" font-family="sans-serif" font-size="14" lengthAdjust="spacingAndGlyphs" textLength="146" x="618.0998" y="507.8684">Einstellungen setzen</text><ellipse cx="466.7923" cy="502.7585" fill="#FEFECE" filter="url(#f1sxn3lg1waahw)" rx="101.7923" ry="22.7585" style="stroke: #A80036; stroke-width: 1.5;"/><text fill="#000000" font-family="sans-serif" font-size="14" lengthAdjust="spacingAndGlyphs" textLength="180" x="376.7923" y="507.4069">Tutorialeinstellung ändern</text><!--entity t--><ellipse cx="1373" cy="18" fill="#FEFECE" filter="url(#f1sxn3lg1waahw)" rx="8" ry="8" style="stroke: #A80036; stroke-width: 2.0;"/><path d="M1373,26 L1373,53 M1360,34 L1386,34 M1373,53 L1360,68 M1373,53 L1386,68 " fill="none" filter="url(#f1sxn3lg1waahw)" style="stroke: #A80036; stroke-width: 2.0;"/><text fill="#000000" font-family="sans-serif" font-size="14" lengthAdjust="spacingAndGlyphs" textLength="80" x="1333" y="87.9951">Testperson</text><!--entity f--><ellipse cx="489" cy="615" fill="#FEFECE" filter="url(#f1sxn3lg1waahw)" rx="8" ry="8" style="stroke: #A80036; stroke-width: 2.0;"/><path d="M489,623 L489,650 M476,631 L502,631 M489,650 L476,665 M489,650 L502,665 " fill="none" filter="url(#f1sxn3lg1waahw)" style="stroke: #A80036; stroke-width: 2.0;"/><text fill="#000000" font-family="sans-serif" font-size="14" lengthAdjust="spacingAndGlyphs" textLength="83" x="447.5" y="684.9951">Forschende</text><!--link t to td--><path d="M1332.76,59.17 C1282.84,70.9 1195.99,94.52 1128,130 C1098.57,145.36 1068.73,169.2 1049.2,186.18 " fill="none" id="t-td" style="stroke: #A80036; stroke-width: 1.0;"/><polygon fill="#A80036" points="1045.43,189.48,1054.8317,186.5461,1049.1867,186.1804,1049.5524,180.5354,1045.43,189.48" style="stroke: #A80036; stroke-width: 1.0;"/><!--link t to tw--><path d="M1374.67,91.38 C1374.35,141.55 1365.71,225.74 1316,273 C1312.45,276.38 1212.69,296.2 1129.56,312.25 " fill="none" id="t-tw" style="stroke: #A80036; stroke-width: 1.0;"/><polygon fill="#A80036" points="1124.62,313.21,1134.2187,315.4156,1129.5278,312.2541,1132.6893,307.5632,1124.62,313.21" style="stroke: #A80036; stroke-width: 1.0;"/><!--link t to bb--><path d="M1332.72,90.27 C1301.13,121.46 1258.57,163.48 1234.23,187.52 " fill="none" id="t-bb" style="stroke: #A80036; stroke-width: 1.0;"/><polygon fill="#A80036" points="1230.48,191.22,1239.6936,187.7402,1234.0369,187.706,1234.0712,182.0492,1230.48,191.22" style="stroke: #A80036; stroke-width: 1.0;"/><!--link t to rb--><path d="M1381.72,91.17 C1389.56,138.14 1395.54,216.22 1364,273 C1353.46,291.97 1334.16,306.18 1316.22,316.05 " fill="none" id="t-rb" style="stroke: #A80036; stroke-width: 1.0;"/><polygon fill="#A80036" points="1311.7,318.46,1321.5249,317.7739,1316.1165,316.116,1317.7745,310.7075,1311.7,318.46" style="stroke: #A80036; stroke-width: 1.0;"/><!--link t to et--><path d="M1413.2,70.76 C1479.75,106.86 1610.55,189.35 1662,303 C1695.86,377.8 1597.24,452.11 1545.49,484.76 " fill="none" id="t-et" style="stroke: #A80036; stroke-width: 1.0;"/><polygon fill="#A80036" points="1541.24,487.42,1550.9907,486.0332,1545.4776,484.7662,1546.7446,479.253,1541.24,487.42" style="stroke: #A80036; stroke-width: 1.0;"/><!--link t to em--><path d="M1395.15,91.01 C1400.41,100.79 1405.96,111.24 1411,121 C1443.9,184.72 1480.67,260.17 1500.79,301.85 " fill="none" id="t-em" style="stroke: #A80036; stroke-width: 1.0;"/><polygon fill="#A80036" points="1503.04,306.51,1502.7434,296.6656,1500.8726,302.0042,1495.5341,300.1334,1503.04,306.51" style="stroke: #A80036; stroke-width: 1.0;"/><!--link es to f--><path d="M660.91,525.08 C626.42,549.24 569.66,589 530.87,616.17 " fill="none" id="es-f" style="stroke: #A80036; stroke-width: 1.0;"/><polygon fill="#A80036" points="665.42,521.92,655.7566,523.8224,661.3292,524.795,660.3566,530.3676,665.42,521.92" style="stroke: #A80036; stroke-width: 1.0;"/><!--link ea to f--><path d="M211.72,524.03 C274.58,551.57 386.79,600.72 447.4,627.28 " fill="none" id="ea-f" style="stroke: #A80036; stroke-width: 1.0;"/><polygon fill="#A80036" points="206.91,521.92,213.5605,529.1844,211.4931,523.9188,216.7586,521.8515,206.91,521.92" style="stroke: #A80036; stroke-width: 1.0;"/><!--link tw to tä--><path d="M886.77,347.82 C799.27,359.3 683.12,380.95 587,421 C553.58,434.92 519.78,458.82 496.61,477.06 " fill="none" id="tw-tä" style="stroke: #A80036; stroke-width: 1.0; stroke-dasharray: 7.0,7.0;"/><polygon fill="#A80036" points="492.41,480.4,501.9433,477.9267,496.3227,477.287,496.9624,471.6664,492.41,480.4" style="stroke: #A80036; stroke-width: 1.0;"/><text fill="#000000" font-family="sans-serif" font-size="13" lengthAdjust="spacingAndGlyphs" textLength="69" x="656" y="409.0669">«included»</text><!--link z to a--><path d="M841.5697,208.9301 C841.2808,208.9455 840.9848,208.9612 840.6819,208.9774 C840.0759,209.0098 839.4419,209.0438 838.7803,209.0794 C837.457,209.1508 836.0232,209.2288 834.4825,209.3134 C831.4009,209.4828 827.8913,209.6789 823.982,209.9023 C808.3446,210.7959 786.3105,212.1255 759.6834,213.9211 C706.4294,217.5122 634.8038,222.9669 559.2375,230.5238 C408.105,245.6375 241.21,269.16 174,303 C108.31,336.07 93.87,356.8 58,421 C55.81,424.92 53.8572,429.0784 52.1162,433.3601 C51.681,434.4305 51.259,435.5086 50.8498,436.5926 C50.6453,437.1346 50.4439,437.6781 50.2457,438.2228 C50.1961,438.359 50.1468,438.4953 50.0976,438.6316 " fill="none" id="z-a" style="stroke: #A80036; stroke-width: 1.0; stroke-dasharray: 7.0,7.0;"/><polygon fill="#A80036" points="841.5697,208.9301,832.37,205.4134,836.5767,209.1955,832.7946,213.4021,841.5697,208.9301" style="stroke: #A80036; stroke-width: 1.0;"/><text fill="#000000" font-family="sans-serif" font-size="13" lengthAdjust="spacingAndGlyphs" textLength="222" x="175" y="339.0669">«extended» über Speichermedium</text><!--link z to c--><path d="M841.9905,209.122 C841.7641,209.1417 841.5331,209.1618 841.2977,209.1825 C840.8268,209.2239 840.3378,209.2674 839.831,209.3132 C837.8039,209.4961 835.4921,209.7142 832.9122,209.972 C822.5923,211.0031 807.9819,212.668 790.1406,215.2473 C754.4581,220.4059 705.8525,229.2219 652.8025,243.9388 C546.7025,273.3725 422.825,326.41 349,421 C346.245,424.53 343.8786,428.3928 341.8471,432.4561 C341.3392,433.4719 340.8522,434.5002 340.3854,435.539 C340.2687,435.7987 340.1532,436.0591 340.039,436.3201 C339.9819,436.4506 339.9251,436.5812 339.8686,436.712 " fill="none" id="z-c" style="stroke: #A80036; stroke-width: 1.0; stroke-dasharray: 7.0,7.0;"/><polygon fill="#A80036" points="339.8686,436.712,347.1092,430.0356,341.851,432.1218,339.7649,426.8637,339.8686,436.712" style="stroke: #A80036; stroke-width: 1.0;"/><text fill="#000000" font-family="sans-serif" font-size="13" lengthAdjust="spacingAndGlyphs" textLength="278" x="495" y="339.0669">«included» Versuchseinstellungen abfragen</text><!--link td to tw--><path d="M1025.73,226.14 C1024.4,244.66 1022.26,274.29 1020.58,297.73 " fill="none" id="td-tw" style="stroke: #A80036; stroke-width: 1.0; stroke-dasharray: 7.0,7.0;"/><polygon fill="#A80036" points="1020.2,302.94,1024.8557,294.2611,1020.5704,297.9537,1016.8777,293.6684,1020.2,302.94" style="stroke: #A80036; stroke-width: 1.0;"/><text fill="#000000" font-family="sans-serif" font-size="13" lengthAdjust="spacingAndGlyphs" textLength="69" x="1024" y="269.0669">«included»</text><!--link bb to rb--><path d="M1222.48,224.08 C1233.08,246.17 1252.53,286.68 1264.55,311.73 " fill="none" id="bb-rb" style="stroke: #A80036; stroke-width: 1.0; stroke-dasharray: 7.0,7.0;"/><polygon fill="#A80036" points="1266.85,316.52,1266.5787,306.6749,1264.6942,312.0086,1259.3605,310.1241,1266.85,316.52" style="stroke: #A80036; stroke-width: 1.0;"/><text fill="#000000" font-family="sans-serif" font-size="13" lengthAdjust="spacingAndGlyphs" textLength="69" x="1246" y="269.0669">«included»</text><!--link rb to et--><path d="M1298.55,351.77 C1343.87,383.08 1442.91,451.5 1490.06,484.08 " fill="none" id="rb-et" style="stroke: #A80036; stroke-width: 1.0; stroke-dasharray: 7.0,7.0;"/><polygon fill="#A80036" points="1494.45,487.11,1489.3195,478.703,1490.3365,484.2677,1484.7718,485.2846,1494.45,487.11" style="stroke: #A80036; stroke-width: 1.0;"/><text fill="#000000" font-family="sans-serif" font-size="13" lengthAdjust="spacingAndGlyphs" textLength="80" x="1382" y="409.0669">«included ?»</text><!--link em to et--><path d="M1516,362.62 C1516,395.76 1516,451.11 1516,481.12 " fill="none" id="em-et" style="stroke: #A80036; stroke-width: 1.0; stroke-dasharray: 7.0,7.0;"/><polygon fill="#A80036" points="1516,486.41,1520,477.41,1516,481.41,1512,477.41,1516,486.41" style="stroke: #A80036; stroke-width: 1.0;"/><text fill="#000000" font-family="sans-serif" font-size="13" lengthAdjust="spacingAndGlyphs" textLength="73" x="1517" y="409.0669">«excluded»</text><!--
@startuml CodeCharts

actor Testperson as t
actor Forschende as f

rectangle CodeCharts as z #789dd5 {
    usecase "Tutorial anschauen" as td
    usecase "Tutorial: zukünftige Sichtbarkeit wählen" as tw
    usecase "Bild betrachten" as bb
    usecase "Raster betrachten" as rb
    usecase "Eingabe tätigen" as et
    usecase "Error-Message or Falsche Eingabe" as em
}

rectangle AnalyseClient as a {
    usecase "Ergebnisse anschauen" as ea
}

rectangle Config as c {
    usecase "Einstellungen setzen" as es
    usecase "Tutorialeinstellung ändern" as tä
}

t - -> td
t - -> tw
t - -> bb
t - -> rb
t - -> et
t - -> em

es <- - f
ea <- - f

tw ..> tä : <<included>> 
z <.. a : <<extended>> über Speichermedium
z ..> c : <<included>> Versuchseinstellungen abfragen
td ..> tw : <<included>>
bb ..> rb : <<included>>
rb ..> et : << included ? >>
em ..> et : <<excluded>> 


@enduml

PlantUML version 1.2019.06(Fri May 24 17:10:25 UTC 2019)
(GPL source distribution)
Java Runtime: OpenJDK Runtime Environment
JVM: OpenJDK 64-Bit Server VM
Java Version: 11.0.11+9
Operating System: Linux
OS Version: 5.11.0-1021-azure
Default Encoding: UTF-8
Language: en
Country: null
--></g></svg>