<?xml version="1.0" encoding="UTF-8" standalone="no"?><svg xmlns="http://www.w3.org/2000/svg" xmlns:xlink="http://www.w3.org/1999/xlink" contentScriptType="application/ecmascript" contentStyleType="text/css" height="1046px" preserveAspectRatio="none" style="width:1235px;height:1046px;background:#FFFFFF;" version="1.1" viewBox="0 0 1235 1046" width="1235px" zoomAndPan="magnify"><defs><filter height="300%" id="f1h5zk3qt8ukgl" width="300%" x="-1" y="-1"><feGaussianBlur result="blurOut" stdDeviation="2.0"/><feColorMatrix in="blurOut" result="blurOut2" type="matrix" values="0 0 0 0 0 0 0 0 0 0 0 0 0 0 0 0 0 0 .4 0"/><feOffset dx="4.0" dy="4.0" in="blurOut2" result="blurOut3"/><feBlend in="SourceGraphic" in2="blurOut3" mode="normal"/></filter></defs><g><!--MD5=[0dddb7f964ed21e384072c4693cca302]
cluster z--><rect fill="#789DD5" filter="url(#f1h5zk3qt8ukgl)" height="445.9998" style="stroke:#000000;stroke-width:1.5;" width="914.5" x="143" y="430"/><text fill="#000000" font-family="sans-serif" font-size="14" font-weight="bold" lengthAdjust="spacing" textLength="93" x="553.75" y="444.9951">CodeCharts</text><!--MD5=[03c9795141fffc1586b10a901fd13311]
cluster a--><rect fill="#FFFFFF" filter="url(#f1h5zk3qt8ukgl)" height="130" style="stroke:#000000;stroke-width:1.5;" width="243" x="833.5" y="7"/><text fill="#000000" font-family="sans-serif" font-size="14" font-weight="bold" lengthAdjust="spacing" textLength="110" x="900" y="21.9951">AnalyseClient</text><!--MD5=[b3179ce4f793cc951a1964cbf548eaa1]
cluster c--><rect fill="#FFFFFF" filter="url(#f1h5zk3qt8ukgl)" height="213" style="stroke:#000000;stroke-width:1.5;" width="270" x="820" y="177"/><text fill="#000000" font-family="sans-serif" font-size="14" font-weight="bold" lengthAdjust="spacing" textLength="52" x="929" y="191.9951">Config</text><ellipse cx="326.0998" cy="512.22" fill="#FEFECE" filter="url(#f1h5zk3qt8ukgl)" rx="86.5998" ry="19.72" style="stroke:#A80036;stroke-width:1.5;"/><text fill="#000000" font-family="sans-serif" font-size="14" lengthAdjust="spacing" textLength="134" x="259.0998" y="515.0666">Tutorial anschauen</text><ellipse cx="325.9172" cy="601.1834" fill="#FEFECE" filter="url(#f1h5zk3qt8ukgl)" rx="158.9172" ry="34.1834" style="stroke:#A80036;stroke-width:1.5;"/><text fill="#000000" font-family="sans-serif" font-size="14" lengthAdjust="spacing" textLength="289" x="181.4172" y="604.0301">Tutorial: zukünftige Sichtbarkeit wählen</text><ellipse cx="325.7532" cy="687.9506" fill="#FEFECE" filter="url(#f1h5zk3qt8ukgl)" rx="77.7532" ry="17.9506" style="stroke:#A80036;stroke-width:1.5;"/><text fill="#000000" font-family="sans-serif" font-size="14" lengthAdjust="spacing" textLength="113" x="266.6994" y="691.5809">Bild betrachten</text><ellipse cx="326.1635" cy="761.1327" fill="#FEFECE" filter="url(#f1h5zk3qt8ukgl)" rx="86.1635" ry="19.6327" style="stroke:#A80036;stroke-width:1.5;"/><text fill="#000000" font-family="sans-serif" font-size="14" lengthAdjust="spacing" textLength="133" x="259.6635" y="763.9794">Raster betrachten</text><ellipse cx="955.0591" cy="826.1118" fill="#FEFECE" filter="url(#f1h5zk3qt8ukgl)" rx="78.5591" ry="18.1118" style="stroke:#A80036;stroke-width:1.5;"/><text fill="#000000" font-family="sans-serif" font-size="14" lengthAdjust="spacing" textLength="115" x="895.3328" y="829.6525">Eingabe tätigen</text><ellipse cx="325.9652" cy="834.193" fill="#FEFECE" filter="url(#f1h5zk3qt8ukgl)" rx="78.9652" ry="18.193" style="stroke:#A80036;stroke-width:1.5;"/><text fill="#000000" font-family="sans-serif" font-size="14" lengthAdjust="spacing" textLength="116" x="265.9" y="837.6886">Fehler Anzeigen</text><ellipse cx="954.7599" cy="71.852" fill="#FEFECE" filter="url(#f1h5zk3qt8ukgl)" rx="97.2599" ry="21.852" style="stroke:#A80036;stroke-width:1.5;"/><text fill="#000000" font-family="sans-serif" font-size="14" lengthAdjust="spacing" textLength="158" x="875.7599" y="74.6987">Ergebnisse anschauen</text><ellipse cx="955.1693" cy="241.1339" fill="#FEFECE" filter="url(#f1h5zk3qt8ukgl)" rx="93.6693" ry="21.1339" style="stroke:#A80036;stroke-width:1.5;"/><text fill="#000000" font-family="sans-serif" font-size="14" lengthAdjust="spacing" textLength="150" x="880.1693" y="243.9805">Einstellungen setzen</text><ellipse cx="954.9811" cy="322.0962" fill="#FEFECE" filter="url(#f1h5zk3qt8ukgl)" rx="110.9811" ry="24.5962" style="stroke:#A80036;stroke-width:1.5;"/><text fill="#000000" font-family="sans-serif" font-size="14" lengthAdjust="spacing" textLength="188" x="860.9811" y="324.9429">Tutorialeinstellung ändern</text><!--MD5=[4b52362e67c82d91eba5cb75921775cc]
entity t--><ellipse cx="47" cy="657" fill="#FEFECE" filter="url(#f1h5zk3qt8ukgl)" rx="8" ry="8" style="stroke:#A80036;stroke-width:1.5;"/><path d="M47,665 L47,692 M34,673 L60,673 M47,692 L34,707 M47,692 L60,707 " fill="none" filter="url(#f1h5zk3qt8ukgl)" style="stroke:#A80036;stroke-width:1.5;"/><text fill="#000000" font-family="sans-serif" font-size="14" lengthAdjust="spacing" textLength="82" x="6" y="725.4951">Testperson</text><!--MD5=[8f89c3b771be60a8fe1c771d5b27a045]
entity f--><ellipse cx="1186.5" cy="110" fill="#FEFECE" filter="url(#f1h5zk3qt8ukgl)" rx="8" ry="8" style="stroke:#A80036;stroke-width:1.5;"/><path d="M1186.5,118 L1186.5,145 M1173.5,126 L1199.5,126 M1186.5,145 L1173.5,160 M1186.5,145 L1199.5,160 " fill="none" filter="url(#f1h5zk3qt8ukgl)" style="stroke:#A80036;stroke-width:1.5;"/><text fill="#000000" font-family="sans-serif" font-size="14" lengthAdjust="spacing" textLength="83" x="1145" y="178.4951">Forschende</text><!--MD5=[fd67234e7733f64004cf957abd7060f0]
link t to td--><path d="M60.6874,647.4 C72.6871,615.874 93.8651,573.667 127,550 C159.328,526.909 201.91,516.824 239.3,512.75 " fill="none" id="t-td" style="stroke:#A80036;stroke-width:1.0;"/><!--MD5=[af6959071ebafe7e84c012ab58a7e6fb]
link t to tw--><path d="M88.0939,668.748 C100.4102,663.24 114.117,657.513 127,653 C155.93,642.866 187.842,633.658 217.442,625.902 " fill="none" id="t-tw" style="stroke:#A80036;stroke-width:1.0;"/><!--MD5=[a47cc61414be02f1a1dc46a9068d5641]
link t to bb--><path d="M88.2782,688 C129.992,688 196.196,688 247.998,688 " fill="none" id="t-bb" style="stroke:#A80036;stroke-width:1.0;"/><!--MD5=[f7094194700321f3e8c784bcdc278cba]
link t to rb--><path d="M88.2577,708.623 C100.4619,714.248 114.066,719.911 127,724 C167.013,736.648 213.019,745.568 250.609,751.476 " fill="none" id="t-rb" style="stroke:#A80036;stroke-width:1.0;"/><!--MD5=[6270d3deb366b0fdad480f899a1c6932]
link t to et--><path d="M52.8362,728.823 C60.3976,772.228 79.4794,838.823 127,869.9998 C385.765,1039.7698 794.052,892.9406 917.477,841.895 " fill="none" id="t-et" style="stroke:#A80036;stroke-width:1.0;"/><!--MD5=[87062a31269c98bfe6fc3d0ae56b2396]
link es to f--><path d="M998.629,222.425 C1040.37,204.237 1103.52,176.721 1144.64,158.803 " fill="none" id="es-f" style="stroke:#A80036;stroke-width:1.0;"/><!--MD5=[138a0e8de6b50cd1dd0c7fc97c7a4d6c]
link ea to f--><path d="M1042.1,82.007 C1063.33,85.809 1085.77,90.987 1106,98 C1119.2,102.574 1132.82,109.165 1144.99,115.818 " fill="none" id="ea-f" style="stroke:#A80036;stroke-width:1.0;"/><!--MD5=[2827afe277d74b8b1048bdf68fbae7e3]
reverse link tw to tä--><path d="M488.89,595.763 C593.386,583.151 722.998,548.369 796,457 C810.745,438.544 788.29,368.641 804,351 C814.937,338.719 829.374,330.686 844.975,325.563 " fill="none" id="tw-backto-tä" style="stroke:#A80036;stroke-width:1.0;stroke-dasharray:7.0,7.0;"/><polygon fill="#A80036" points="483.62,596.383,493.0258,599.3039,488.5857,595.7987,492.0909,591.3587,483.62,596.383" style="stroke:#A80036;stroke-width:1.0;"/><text fill="#000000" font-family="sans-serif" font-size="13" lengthAdjust="spacing" textLength="77" x="617" y="453.0669">«extended»</text><!--MD5=[63b0b4f2c04a4d4323df6b79656b845a]
link z to a--><path d="M377.5856,429.6565 C378.0452,429.4087 378.5075,429.1594 378.9725,428.9087 C380.8325,427.9059 382.7353,426.8802 384.6799,425.8323 C388.5691,423.7364 392.6251,421.5516 396.8387,419.283 C405.2659,414.746 414.3231,409.8741 423.9356,404.7095 C443.1605,394.3804 464.6063,382.8803 487.674,370.5456 C579.9448,321.207 698.1655,258.5155 804,204 C836.613,187.201 873.4598,168.7698 902.4723,154.3826 C909.7254,150.7858 916.4889,147.4418 922.5741,144.4392 C925.6168,142.938 928.4899,141.522 931.1698,140.2026 C932.5098,139.5428 933.8015,138.9072 935.042,138.2971 C935.6622,137.992 936.2697,137.6933 936.8639,137.4012 C937.0125,137.3281 937.1602,137.2555 937.3072,137.1833 " fill="none" id="z-a" style="stroke:#A80036;stroke-width:1.0;stroke-dasharray:7.0,7.0;"/><text fill="#000000" font-family="sans-serif" font-size="13" lengthAdjust="spacing" textLength="141" x="585" y="206.0669">über Speichermedium</text><!--MD5=[2e912e8d00683dfe37a836230474a3d6]
link z to c--><path d="M554.7139,429.7615 C564.0299,428.6471 573.4554,427.5196 582.954,426.3835 C601.951,424.1111 621.2399,421.8038 640.5288,419.4965 C717.684,410.2674 794.8369,401.0385 853.2945,394.0459 C860.6017,393.1718 867.6168,392.3327 874.3032,391.5329 C877.6465,391.133 880.9075,390.7429 884.0819,390.3632 C884.8755,390.2682 885.6636,390.174 886.4463,390.0803 " fill="none" id="z-to-c" style="stroke:#A80036;stroke-width:1.0;stroke-dasharray:7.0,7.0;"/><polygon fill="#A80036" points="886.4463,390.0803,877.0349,387.1776,881.4817,390.6742,877.9851,395.121,886.4463,390.0803" style="stroke:#A80036;stroke-width:1.0;"/><text fill="#000000" font-family="sans-serif" font-size="13" lengthAdjust="spacing" textLength="279" x="516" y="398.0669">«included» Versuchseinstellungen abfragen</text><!--MD5=[04a58378bdd44acf428f9b01b200981b]
link fa to et--><path d="M405.142,833.003 C524.017,831.486 749.289,828.612 870.994,827.059 " fill="none" id="fa-to-et" style="stroke:#A80036;stroke-width:1.0;stroke-dasharray:7.0,7.0;"/><polygon fill="#A80036" points="876.352,826.991,867.3013,823.1071,871.3524,827.0553,867.4042,831.1064,876.352,826.991" style="stroke:#A80036;stroke-width:1.0;"/><text fill="#000000" font-family="sans-serif" font-size="13" lengthAdjust="spacing" textLength="77" x="617" y="824.0669">«extended»</text><!--MD5=[ef2b5baacd208927f8f5cf7c4379e243]
@startuml
left to right direction

actor Testperson as t
actor Forschende as f

rectangle CodeCharts as z #789dd5 {
    usecase "Tutorial anschauen" as td
    usecase "Tutorial: zukünftige Sichtbarkeit wählen" as tw
    usecase "Bild betrachten" as bb
    usecase "Raster betrachten" as rb
    usecase "Eingabe tätigen" as et
    usecase "Fehler Anzeigen" as fa
}

rectangle AnalyseClient as a {
    usecase "Ergebnisse anschauen" as ea
}

rectangle Config as c {
    usecase "Einstellungen setzen" as es
    usecase "Tutorialeinstellung ändern" as tä
}

' Testperson
t - - td
t - - tw
t - - bb
t - - rb
t - - et

' Forschende
es - - f
ea - - f

' intern
tw <.. tä : <<extended>> 
z .. a : über Speichermedium
z ..> c : <<included>> Versuchseinstellungen abfragen
fa ..> et : <<extended>>
@enduml

@startuml
left to right direction

actor Testperson as t
actor Forschende as f

rectangle CodeCharts as z #789dd5 {
    usecase "Tutorial anschauen" as td
    usecase "Tutorial: zukünftige Sichtbarkeit wählen" as tw
    usecase "Bild betrachten" as bb
    usecase "Raster betrachten" as rb
    usecase "Eingabe tätigen" as et
    usecase "Fehler Anzeigen" as fa
}

rectangle AnalyseClient as a {
    usecase "Ergebnisse anschauen" as ea
}

rectangle Config as c {
    usecase "Einstellungen setzen" as es
    usecase "Tutorialeinstellung ändern" as tä
}

t - - td
t - - tw
t - - bb
t - - rb
t - - et

es - - f
ea - - f

tw <.. tä : <<extended>> 
z .. a : über Speichermedium
z ..> c : <<included>> Versuchseinstellungen abfragen
fa ..> et : <<extended>>
@enduml

PlantUML version 1.2021.15beta6(Unknown compile time)
(GPL source distribution)
Java Runtime: Java(TM) SE Runtime Environment
JVM: Java HotSpot(TM) 64-Bit Server VM
Default Encoding: UTF-8
Language: en
Country: US
--></g></svg>