<?xml version="1.0" encoding="UTF-8" standalone="no"?><svg xmlns="http://www.w3.org/2000/svg" xmlns:xlink="http://www.w3.org/1999/xlink" contentScriptType="application/ecmascript" contentStyleType="text/css" height="1026px" preserveAspectRatio="none" style="width:1190px;height:1026px;" version="1.1" viewBox="0 0 1190 1026" width="1190px" zoomAndPan="magnify"><defs><filter height="300%" id="fpatfvxvyzou8" width="300%" x="-1" y="-1"><feGaussianBlur result="blurOut" stdDeviation="2.0"/><feColorMatrix in="blurOut" result="blurOut2" type="matrix" values="0 0 0 0 0 0 0 0 0 0 0 0 0 0 0 0 0 0 .4 0"/><feOffset dx="4.0" dy="4.0" in="blurOut2" result="blurOut3"/><feBlend in="SourceGraphic" in2="blurOut3" mode="normal"/></filter></defs><g><!--cluster z--><rect fill="#789DD5" filter="url(#fpatfvxvyzou8)" height="430" style="stroke: #000000; stroke-width: 1.5;" width="867.5" x="141" y="446.54"/><text fill="#000000" font-family="sans-serif" font-size="14" font-weight="bold" lengthAdjust="spacingAndGlyphs" textLength="93" x="528.25" y="461.5351">CodeCharts</text><!--cluster a--><rect fill="#FFFFFF" filter="url(#fpatfvxvyzou8)" height="128" style="stroke: #000000; stroke-width: 1.5;" width="233" x="797.5" y="31.54"/><text fill="#000000" font-family="sans-serif" font-size="14" font-weight="bold" lengthAdjust="spacingAndGlyphs" textLength="107" x="860.5" y="46.5351">AnalyseClient</text><!--cluster c--><rect fill="#FFFFFF" filter="url(#fpatfvxvyzou8)" height="207" style="stroke: #000000; stroke-width: 1.5;" width="252" x="788" y="199.54"/><text fill="#000000" font-family="sans-serif" font-size="14" font-weight="bold" lengthAdjust="spacingAndGlyphs" textLength="51" x="888.5" y="214.5351">Config</text><ellipse cx="309.5624" cy="527.5525" fill="#FEFECE" filter="url(#fpatfvxvyzou8)" rx="80.5624" ry="18.5125" style="stroke: #A80036; stroke-width: 1.5;"/><text fill="#000000" font-family="sans-serif" font-size="14" lengthAdjust="spacingAndGlyphs" textLength="132" x="243.5624" y="532.2009">Tutorial anschauen</text><ellipse cx="309.4927" cy="612.3385" fill="#FEFECE" filter="url(#fpatfvxvyzou8)" rx="144.4927" ry="31.2985" style="stroke: #A80036; stroke-width: 1.5;"/><text fill="#000000" font-family="sans-serif" font-size="14" lengthAdjust="spacingAndGlyphs" textLength="271" x="173.9927" y="616.987">Tutorial: zukünftige Sichtbarkeit wählen</text><ellipse cx="309.4543" cy="695.3309" fill="#FEFECE" filter="url(#fpatfvxvyzou8)" rx="69.4543" ry="16.2909" style="stroke: #A80036; stroke-width: 1.5;"/><text fill="#000000" font-family="sans-serif" font-size="14" lengthAdjust="spacingAndGlyphs" textLength="105" x="256.9543" y="699.9793">Bild betrachten</text><ellipse cx="309.6068" cy="765.4614" fill="#FEFECE" filter="url(#fpatfvxvyzou8)" rx="77.6068" ry="17.9214" style="stroke: #A80036; stroke-width: 1.5;"/><text fill="#000000" font-family="sans-serif" font-size="14" lengthAdjust="spacingAndGlyphs" textLength="125" x="247.1068" y="770.1098">Raster betrachten</text><ellipse cx="914.1456" cy="826.5691" fill="#FEFECE" filter="url(#fpatfvxvyzou8)" rx="70.6456" ry="16.5291" style="stroke: #A80036; stroke-width: 1.5;"/><text fill="#000000" font-family="sans-serif" font-size="14" lengthAdjust="spacingAndGlyphs" textLength="108" x="860.1456" y="831.2176">Eingabe tätigen</text><ellipse cx="309.2526" cy="835.3905" fill="#FEFECE" filter="url(#fpatfvxvyzou8)" rx="72.2526" ry="16.8505" style="stroke: #A80036; stroke-width: 1.5;"/><text fill="#000000" font-family="sans-serif" font-size="14" lengthAdjust="spacingAndGlyphs" textLength="112" x="253.2526" y="840.039">Fehler Anzeigen</text><ellipse cx="913.8318" cy="95.4064" fill="#FEFECE" filter="url(#fpatfvxvyzou8)" rx="92.3318" ry="20.8664" style="stroke: #A80036; stroke-width: 1.5;"/><text fill="#000000" font-family="sans-serif" font-size="14" lengthAdjust="spacingAndGlyphs" textLength="159" x="834.3318" y="100.0548">Ergebnisse anschauen</text><ellipse cx="914.0998" cy="262.76" fill="#FEFECE" filter="url(#fpatfvxvyzou8)" rx="86.5998" ry="19.72" style="stroke: #A80036; stroke-width: 1.5;"/><text fill="#000000" font-family="sans-serif" font-size="14" lengthAdjust="spacingAndGlyphs" textLength="146" x="841.0998" y="267.4084">Einstellungen setzen</text><ellipse cx="913.7923" cy="340.2985" fill="#FEFECE" filter="url(#fpatfvxvyzou8)" rx="101.7923" ry="22.7585" style="stroke: #A80036; stroke-width: 1.5;"/><text fill="#000000" font-family="sans-serif" font-size="14" lengthAdjust="spacingAndGlyphs" textLength="180" x="823.7923" y="344.9469">Tutorialeinstellung ändern</text><!--entity t--><ellipse cx="46" cy="707.04" fill="#FEFECE" filter="url(#fpatfvxvyzou8)" rx="8" ry="8" style="stroke: #A80036; stroke-width: 2.0;"/><path d="M46,715.04 L46,742.04 M33,723.04 L59,723.04 M46,742.04 L33,757.04 M46,742.04 L59,757.04 " fill="none" filter="url(#fpatfvxvyzou8)" style="stroke: #A80036; stroke-width: 2.0;"/><text fill="#000000" font-family="sans-serif" font-size="14" lengthAdjust="spacingAndGlyphs" textLength="80" x="6" y="777.0351">Testperson</text><!--entity f--><ellipse cx="1136.5" cy="132.04" fill="#FEFECE" filter="url(#fpatfvxvyzou8)" rx="8" ry="8" style="stroke: #A80036; stroke-width: 2.0;"/><path d="M1136.5,140.04 L1136.5,167.04 M1123.5,148.04 L1149.5,148.04 M1136.5,167.04 L1123.5,182.04 M1136.5,167.04 L1149.5,182.04 " fill="none" filter="url(#fpatfvxvyzou8)" style="stroke: #A80036; stroke-width: 2.0;"/><text fill="#000000" font-family="sans-serif" font-size="14" lengthAdjust="spacingAndGlyphs" textLength="83" x="1095" y="202.0351">Forschende</text><!--link t to tw--><path d="M81.35,696.94 C93.9,683.99 108.98,670.72 125,661.54 C147.03,648.93 172.42,639.47 197.14,632.41 " fill="none" id="t-tw" style="stroke: #A80036; stroke-width: 1.0;"/><!--link t to bb--><path d="M86.01,730.97 C95.79,729.14 106.27,727.22 116,725.54 C160.83,717.83 211.69,709.94 249.87,704.19 " fill="none" id="t-bb" style="stroke: #A80036; stroke-width: 1.0;"/><!--link t to rb--><path d="M86.15,742.59 C126.26,746.73 189.48,753.26 238.27,758.29 " fill="none" id="t-rb" style="stroke: #A80036; stroke-width: 1.0;"/><!--link t to et--><path d="M59.34,780.06 C70.9,810.8 91.52,850.51 125,869.54 C380.79,1014.94 761.95,886.14 878.14,840.86 " fill="none" id="t-et" style="stroke: #A80036; stroke-width: 1.0;"/><!--link es to f--><path d="M953.66,245.19 C993.18,227.44 1054.33,199.99 1094.64,181.89 " fill="none" id="es-f" style="stroke: #A80036; stroke-width: 1.0;"/><!--link ea to f--><path d="M995.93,105.32 C1015.89,108.97 1036.99,113.91 1056,120.54 C1069.19,125.14 1082.81,131.74 1094.98,138.4 " fill="none" id="ea-f" style="stroke: #A80036; stroke-width: 1.0;"/><!--link tw to tä--><path d="M458.92,609.59 C561.26,599 691.46,566.93 764,476.54 C779.2,457.6 755.85,385.68 772,367.54 C782.69,355.54 796.94,347.87 812.29,343.11 " fill="none" id="tw-tä" style="stroke: #A80036; stroke-width: 1.0; stroke-dasharray: 7.0,7.0;"/><polygon fill="#A80036" points="453.76,610.1,463.1151,613.1793,458.7349,609.5997,462.3145,605.2194,453.76,610.1" style="stroke: #A80036; stroke-width: 1.0;"/><text fill="#000000" font-family="sans-serif" font-size="13" lengthAdjust="spacingAndGlyphs" textLength="73" x="587.5" y="472.6069">«excluded»</text><!--link z to a--><path d="M360.9696,446.4789 C362.7749,445.511 364.6216,444.5209 366.5088,443.509 C370.2832,441.4854 374.2192,439.3753 378.3077,437.1835 C386.4846,432.8 395.2714,428.0899 404.5947,423.0929 C423.2414,413.0989 444.0344,401.9569 466.3875,389.9825 C555.8,342.085 670.175,280.87 772,226.54 C802.825,210.095 837.4625,191.67 864.6925,177.1988 C871.5,173.5809 877.8445,170.2102 883.5508,167.1794 C886.4039,165.6639 889.0975,164.2334 891.6095,162.8995 C892.8656,162.2325 894.0762,161.5897 895.2388,160.9724 C895.8201,160.6638 896.3893,160.3616 896.9462,160.0659 C897.2246,159.9181 897.5,159.7719 897.7722,159.6274 " fill="none" id="z-a" style="stroke: #A80036; stroke-width: 1.0; stroke-dasharray: 7.0,7.0;"/><text fill="#000000" font-family="sans-serif" font-size="13" lengthAdjust="spacingAndGlyphs" textLength="142" x="553" y="229.6069">über Speichermedium</text><!--link z to c--><path d="M529.3144,446.3065 C538.2664,445.1921 547.3237,444.0646 556.451,442.9284 C574.7058,440.656 593.2411,438.3486 611.7762,436.0413 C685.9169,426.8119 760.0553,417.5828 816.2286,410.5905 C823.2503,409.7164 829.9912,408.8773 836.4164,408.0776 C839.629,407.6777 842.7626,407.2876 845.8129,406.9079 C846.5755,406.813 847.3328,406.7187 848.0849,406.6251 " fill="none" id="z-c" style="stroke: #A80036; stroke-width: 1.0; stroke-dasharray: 7.0,7.0;"/><polygon fill="#A80036" points="848.0849,406.6251,838.6598,403.7674,843.1232,407.2427,839.6479,411.7062,848.0849,406.6251" style="stroke: #A80036; stroke-width: 1.0;"/><text fill="#000000" font-family="sans-serif" font-size="13" lengthAdjust="spacingAndGlyphs" textLength="278" x="485" y="415.6069">«included» Versuchseinstellungen abfragen</text><!--link fa to et--><path d="M381.98,834.48 C496.85,832.76 721.47,829.41 838.33,827.66 " fill="none" id="fa-et" style="stroke: #A80036; stroke-width: 1.0; stroke-dasharray: 7.0,7.0;"/><polygon fill="#A80036" points="843.47,827.58,834.4138,823.709,838.4705,827.6514,834.5281,831.7082,843.47,827.58" style="stroke: #A80036; stroke-width: 1.0;"/><text fill="#000000" font-family="sans-serif" font-size="13" lengthAdjust="spacingAndGlyphs" textLength="73" x="587.5" y="825.6069">«excluded»</text><!--
@startuml CodeCharts
left to right direction

actor Testperson as t
actor Forschende as f

rectangle CodeCharts as z #789dd5 {
    usecase "Tutorial anschauen" as td
    usecase "Tutorial: zukünftige Sichtbarkeit wählen" as tw
    usecase "Bild betrachten" as bb
    usecase "Raster betrachten" as rb
    usecase "Eingabe tätigen" as et
    usecase "Fehler Anzeigen" as fa
}

rectangle AnalyseClient as a {
    usecase "Ergebnisse anschauen" as ea
}

rectangle Config as c {
    usecase "Einstellungen setzen" as es
    usecase "Tutorialeinstellung ändern" as tä
}

t - - tw
t - - bb
t - - rb
t - - et

es - - f
ea - - f

tw <.. tä : <<excluded>> 
z .. a : über Speichermedium
z ..> c : <<included>> Versuchseinstellungen abfragen
fa ..> et : <<excluded>> 


@enduml

PlantUML version 1.2019.06(Fri May 24 17:10:25 UTC 2019)
(GPL source distribution)
Java Runtime: OpenJDK Runtime Environment
JVM: OpenJDK 64-Bit Server VM
Java Version: 11.0.11+9
Operating System: Linux
OS Version: 5.11.0-1021-azure
Default Encoding: UTF-8
Language: en
Country: null
--></g></svg>