<?xml version="1.0" encoding="UTF-8" standalone="no"?><svg xmlns="http://www.w3.org/2000/svg" xmlns:xlink="http://www.w3.org/1999/xlink" contentScriptType="application/ecmascript" contentStyleType="text/css" height="584px" preserveAspectRatio="none" style="width:1118px;height:584px;background:#FFFFFF;" version="1.1" viewBox="0 0 1118 584" width="1118px" zoomAndPan="magnify"><defs><filter height="300%" id="f1fup3zqpyefv5" width="300%" x="-1" y="-1"><feGaussianBlur result="blurOut" stdDeviation="2.0"/><feColorMatrix in="blurOut" result="blurOut2" type="matrix" values="0 0 0 0 0 0 0 0 0 0 0 0 0 0 0 0 0 0 .4 0"/><feOffset dx="4.0" dy="4.0" in="blurOut2" result="blurOut3"/><feBlend in="SourceGraphic" in2="blurOut3" mode="normal"/></filter></defs><g><!--MD5=[0dddb7f964ed21e384072c4693cca302]
cluster z--><rect fill="#789DD4" filter="url(#f1fup3zqpyefv5)" height="550" style="stroke:#000000;stroke-width:1.5;" width="366" x="143" y="7"/><text fill="#000000" font-family="sans-serif" font-size="14" font-weight="bold" lengthAdjust="spacing" textLength="93" x="279.5" y="21.9951">CodeCharts</text><!--MD5=[03c9795141fffc1586b10a901fd13311]
cluster a--><rect fill="#FFFFFF" filter="url(#f1fup3zqpyefv5)" height="130" style="stroke:#000000;stroke-width:1.5;" width="243" x="716.5" y="442"/><text fill="#000000" font-family="sans-serif" font-size="14" font-weight="bold" lengthAdjust="spacing" textLength="110" x="783" y="456.9951">AnalyseClient</text><!--MD5=[b3179ce4f793cc951a1964cbf548eaa1]
cluster c--><rect fill="#FFFFFF" filter="url(#f1fup3zqpyefv5)" height="213" style="stroke:#000000;stroke-width:1.5;" width="270" x="703" y="189"/><text fill="#000000" font-family="sans-serif" font-size="14" font-weight="bold" lengthAdjust="spacing" textLength="52" x="812" y="203.9951">Config</text><ellipse cx="326.0998" cy="229.22" fill="#FEFECE" filter="url(#f1fup3zqpyefv5)" rx="86.5998" ry="19.72" style="stroke:#A80036;stroke-width:1.5;"/><text fill="#000000" font-family="sans-serif" font-size="14" lengthAdjust="spacing" textLength="134" x="259.0998" y="232.0666">Tutorial anschauen</text><ellipse cx="325.9172" cy="334.1834" fill="#FEFECE" filter="url(#f1fup3zqpyefv5)" rx="158.9172" ry="34.1834" style="stroke:#A80036;stroke-width:1.5;"/><text fill="#000000" font-family="sans-serif" font-size="14" lengthAdjust="spacing" textLength="289" x="181.4172" y="337.0301">Tutorial: zukünftige Sichtbarkeit wählen</text><ellipse cx="325.7532" cy="420.9506" fill="#FEFECE" filter="url(#f1fup3zqpyefv5)" rx="77.7532" ry="17.9506" style="stroke:#A80036;stroke-width:1.5;"/><text fill="#000000" font-family="sans-serif" font-size="14" lengthAdjust="spacing" textLength="113" x="266.6994" y="424.5809">Bild betrachten</text><ellipse cx="326.1635" cy="494.1327" fill="#FEFECE" filter="url(#f1fup3zqpyefv5)" rx="86.1635" ry="19.6327" style="stroke:#A80036;stroke-width:1.5;"/><text fill="#000000" font-family="sans-serif" font-size="14" lengthAdjust="spacing" textLength="133" x="259.6635" y="496.9794">Raster betrachten</text><ellipse cx="326.0591" cy="156.1118" fill="#FEFECE" filter="url(#f1fup3zqpyefv5)" rx="78.5591" ry="18.1118" style="stroke:#A80036;stroke-width:1.5;"/><text fill="#000000" font-family="sans-serif" font-size="14" lengthAdjust="spacing" textLength="115" x="266.3328" y="159.6525">Eingabe tätigen</text><ellipse cx="325.9652" cy="68.193" fill="#FEFECE" filter="url(#f1fup3zqpyefv5)" rx="78.9652" ry="18.193" style="stroke:#A80036;stroke-width:1.5;"/><text fill="#000000" font-family="sans-serif" font-size="14" lengthAdjust="spacing" textLength="116" x="265.9" y="71.6886">Fehler Anzeigen</text><ellipse cx="837.7599" cy="506.852" fill="#FEFECE" filter="url(#f1fup3zqpyefv5)" rx="97.2599" ry="21.852" style="stroke:#A80036;stroke-width:1.5;"/><text fill="#000000" font-family="sans-serif" font-size="14" lengthAdjust="spacing" textLength="158" x="758.7599" y="509.6987">Ergebnisse anschauen</text><ellipse cx="838.1693" cy="253.1339" fill="#FEFECE" filter="url(#f1fup3zqpyefv5)" rx="93.6693" ry="21.1339" style="stroke:#A80036;stroke-width:1.5;"/><text fill="#000000" font-family="sans-serif" font-size="14" lengthAdjust="spacing" textLength="150" x="763.1693" y="255.9805">Einstellungen setzen</text><ellipse cx="837.9811" cy="334.0962" fill="#FEFECE" filter="url(#f1fup3zqpyefv5)" rx="110.9811" ry="24.5962" style="stroke:#A80036;stroke-width:1.5;"/><text fill="#000000" font-family="sans-serif" font-size="14" lengthAdjust="spacing" textLength="188" x="743.9811" y="336.9429">Tutorialeinstellung ändern</text><!--MD5=[4b52362e67c82d91eba5cb75921775cc]
entity t--><ellipse cx="47" cy="303" fill="#FEFECE" filter="url(#f1fup3zqpyefv5)" rx="8" ry="8" style="stroke:#A80036;stroke-width:1.5;"/><path d="M47,311 L47,338 M34,319 L60,319 M47,338 L34,353 M47,338 L60,353 " fill="none" filter="url(#f1fup3zqpyefv5)" style="stroke:#A80036;stroke-width:1.5;"/><text fill="#000000" font-family="sans-serif" font-size="14" lengthAdjust="spacing" textLength="82" x="6" y="371.4951">Testperson</text><!--MD5=[8f89c3b771be60a8fe1c771d5b27a045]
entity f--><ellipse cx="1069.5" cy="323" fill="#FEFECE" filter="url(#f1fup3zqpyefv5)" rx="8" ry="8" style="stroke:#A80036;stroke-width:1.5;"/><path d="M1069.5,331 L1069.5,358 M1056.5,339 L1082.5,339 M1069.5,358 L1056.5,373 M1069.5,358 L1082.5,373 " fill="none" filter="url(#f1fup3zqpyefv5)" style="stroke:#A80036;stroke-width:1.5;"/><text fill="#000000" font-family="sans-serif" font-size="14" lengthAdjust="spacing" textLength="83" x="1028" y="391.4951">Forschende</text><!--MD5=[71cc41faa5925f4e55bc866750beb2ce]
reverse link et to fa--><path d="M326,132.603 C326,118.067 326,99.656 326,86.21 " fill="none" id="et-backto-fa" style="stroke:#A80036;stroke-width:1.0;stroke-dasharray:7.0,7.0;"/><polygon fill="#A80036" points="326,137.766,330,128.766,326,132.766,322,128.766,326,137.766" style="stroke:#A80036;stroke-width:1.0;"/><text fill="#000000" font-family="sans-serif" font-size="13" lengthAdjust="spacing" textLength="68" x="280.5" y="116.5669">«extends»</text><!--MD5=[63c2835fdf1e15051d233d319bb70cdd]
link td to tw--><path d="M326,248.544 C326,261.483 326,278.907 326,294.645 " fill="none" id="td-to-tw" style="stroke:#A80036;stroke-width:1.0;stroke-dasharray:7.0,7.0;"/><polygon fill="#A80036" points="326,299.91,330,290.91,326,294.91,322,290.91,326,299.91" style="stroke:#A80036;stroke-width:1.0;"/><text fill="#000000" font-family="sans-serif" font-size="13" lengthAdjust="spacing" textLength="61" x="284" y="278.8169">«include»</text><!--MD5=[fd67234e7733f64004cf957abd7060f0]
link t to td--><path d="M88.3809,303.853 C100.3627,295.91 113.817,287.916 127,282 C169.043,263.132 219.217,249.791 258.538,241.213 " fill="none" id="t-td" style="stroke:#A80036;stroke-width:1.0;"/><!--MD5=[af6959071ebafe7e84c012ab58a7e6fb]
link t to tw--><path d="M88.2782,334 C109.735,334 137.672,334 166.796,334 " fill="none" id="t-tw" style="stroke:#A80036;stroke-width:1.0;"/><!--MD5=[a47cc61414be02f1a1dc46a9068d5641]
link t to bb--><path d="M88.0661,364.891 C100.0429,372.847 113.574,380.66 127,386 C166.735,401.804 213.78,410.497 252.04,415.266 " fill="none" id="t-bb" style="stroke:#A80036;stroke-width:1.0;"/><!--MD5=[f7094194700321f3e8c784bcdc278cba]
link t to rb--><path d="M63.8038,374.659 C76.6583,402.238 97.5214,437.164 127,457 C159.93,479.158 202.581,488.942 239.86,492.967 " fill="none" id="t-rb" style="stroke:#A80036;stroke-width:1.0;"/><!--MD5=[6270d3deb366b0fdad480f899a1c6932]
link t to et--><path d="M59.838,293.47 C71.528,260.859 92.7104,216.556 127,192 C161.655,167.182 208.248,157.843 247.529,154.865 " fill="none" id="t-et" style="stroke:#A80036;stroke-width:1.0;"/><!--MD5=[87062a31269c98bfe6fc3d0ae56b2396]
link es to f--><path d="M912.479,265.805 C937.547,271.796 965.232,280.273 989,292 C1002.499,298.66 1015.9,307.843 1027.75,317.101 " fill="none" id="es-f" style="stroke:#A80036;stroke-width:1.0;"/><!--MD5=[138a0e8de6b50cd1dd0c7fc97c7a4d6c]
link ea to f--><path d="M872.018,486.178 C902.575,466.783 949.161,436.897 989,410 C1001.733,401.403 1015.46,391.842 1027.86,383.089 " fill="none" id="ea-f" style="stroke:#A80036;stroke-width:1.0;"/><!--MD5=[2827afe277d74b8b1048bdf68fbae7e3]
reverse link tw to tä--><path d="M490.294,334 C567.579,334 657.83,334 726.875,334 " fill="none" id="tw-backto-tä" style="stroke:#A80036;stroke-width:1.0;stroke-dasharray:7.0,7.0;"/><polygon fill="#A80036" points="485.223,334,494.223,338,490.223,334,494.223,330,485.223,334" style="stroke:#A80036;stroke-width:1.0;"/><text fill="#000000" font-family="sans-serif" font-size="13" lengthAdjust="spacing" textLength="68" x="572" y="330.0669">«extends»</text><!--MD5=[63b0b4f2c04a4d4323df6b79656b845a]
link z to a--><path d="M509.3842,554.3643 C510.3286,554.392 511.2744,554.4199 512.2216,554.4477 C519.7993,554.6706 527.4659,554.8961 535.192,555.1233 C550.6441,555.5778 566.3337,556.0393 582.0231,556.5007 C613.402,557.4236 644.7805,558.3465 674.2579,559.2135 C681.6272,559.4302 688.8777,559.6435 695.9797,559.8524 C699.5307,559.9568 703.0446,560.0602 706.5177,560.1623 C708.2542,560.2134 709.9805,560.2642 711.6961,560.3146 C712.5539,560.3398 713.4091,560.365 714.2615,560.3901 C714.6877,560.4026 715.1133,560.4151 715.5381,560.4276 " fill="none" id="z-to-a" style="stroke:#A80036;stroke-width:1.0;stroke-dasharray:7.0,7.0;"/><polygon fill="#A80036" points="715.5381,560.4276,706.6596,556.1648,710.5403,560.2806,706.4244,564.1613,715.5381,560.4276" style="stroke:#A80036;stroke-width:1.0;"/><text fill="#000000" font-family="sans-serif" font-size="13" lengthAdjust="spacing" textLength="141" x="535.5" y="551.0669">über Speichermedium</text><!--MD5=[87b2eeaf68795a523ba0fefe0812e05e]
link c to z--><path d="M820.5218,402.0087 C820.2672,402.1318 820.0099,402.2562 819.7501,402.3818 C817.6713,403.3869 815.4263,404.4708 813.027,405.6271 C808.2286,407.9397 802.8133,410.542 796.8776,413.3827 C773.1349,424.7456 741.066,439.9232 706.8418,455.6323 C638.3933,487.0504 561.3235,520.5947 525,530 C522.3673,530.6817 519.7093,531.3394 517.0299,531.974 C515.6902,532.2913 514.3452,532.6028 512.9953,532.9086 C512.3204,533.0615 511.6443,533.213 510.967,533.3631 C510.6283,533.4381 510.2894,533.5128 509.9502,533.5872 " fill="none" id="c-to-z" style="stroke:#A80036;stroke-width:1.0;stroke-dasharray:7.0,7.0;"/><polygon fill="#A80036" points="509.9502,533.5872,519.5979,535.5677,514.8343,532.5167,517.8852,527.7531,509.9502,533.5872" style="stroke:#A80036;stroke-width:1.0;"/><text fill="#000000" font-family="sans-serif" font-size="13" lengthAdjust="spacing" textLength="144" x="534" y="466.0669">Versuchseinstellungen</text><!--MD5=[ae512f53f31fc59447fe3d3362e01223]
@startuml
left to right direction

actor Testperson as t
actor Forschende as f

rectangle CodeCharts as z #789dd4 {
    usecase "Tutorial anschauen" as td
    usecase "Tutorial: zukünftige Sichtbarkeit wählen" as tw
    usecase "Bild betrachten" as bb
    usecase "Raster betrachten" as rb
    usecase "Eingabe tätigen" as et
    usecase "Fehler Anzeigen" as fa

    fa .l.> et : <<extends>>
    td .r.> tw : <<include>>
}

rectangle AnalyseClient as a {
    usecase "Ergebnisse anschauen" as ea
}

rectangle Config as c {
    usecase "Einstellungen setzen" as es
    usecase "Tutorialeinstellung ändern" as tä
}

' Testperson
t - - td
t - - tw
t - - bb
t - - rb
t - - et

' Forschende
es - - f
ea - - f

' intern
tw <.. tä : <<extends>>
z ..> a : über Speichermedium
z <.l. c : Versuchseinstellungen
@enduml

@startuml
left to right direction

actor Testperson as t
actor Forschende as f

rectangle CodeCharts as z #789dd4 {
    usecase "Tutorial anschauen" as td
    usecase "Tutorial: zukünftige Sichtbarkeit wählen" as tw
    usecase "Bild betrachten" as bb
    usecase "Raster betrachten" as rb
    usecase "Eingabe tätigen" as et
    usecase "Fehler Anzeigen" as fa

    fa .l.> et : <<extends>>
    td .r.> tw : <<include>>
}

rectangle AnalyseClient as a {
    usecase "Ergebnisse anschauen" as ea
}

rectangle Config as c {
    usecase "Einstellungen setzen" as es
    usecase "Tutorialeinstellung ändern" as tä
}

t - - td
t - - tw
t - - bb
t - - rb
t - - et

es - - f
ea - - f

tw <.. tä : <<extends>>
z ..> a : über Speichermedium
z <.l. c : Versuchseinstellungen
@enduml

PlantUML version 1.2021.15beta6(Unknown compile time)
(GPL source distribution)
Java Runtime: Java(TM) SE Runtime Environment
JVM: Java HotSpot(TM) 64-Bit Server VM
Default Encoding: UTF-8
Language: en
Country: US
--></g></svg>