<?xml version="1.0" encoding="UTF-8" standalone="no"?><svg xmlns="http://www.w3.org/2000/svg" xmlns:xlink="http://www.w3.org/1999/xlink" contentScriptType="application/ecmascript" contentStyleType="text/css" height="1042px" preserveAspectRatio="none" style="width:1190px;height:1042px;" version="1.1" viewBox="0 0 1190 1042" width="1190px" zoomAndPan="magnify"><defs><filter height="300%" id="fma89tkm2zud2" width="300%" x="-1" y="-1"><feGaussianBlur result="blurOut" stdDeviation="2.0"/><feColorMatrix in="blurOut" result="blurOut2" type="matrix" values="0 0 0 0 0 0 0 0 0 0 0 0 0 0 0 0 0 0 .4 0"/><feOffset dx="4.0" dy="4.0" in="blurOut2" result="blurOut3"/><feBlend in="SourceGraphic" in2="blurOut3" mode="normal"/></filter></defs><g><!--cluster z--><rect fill="#789DD5" filter="url(#fma89tkm2zud2)" height="430" style="stroke: #000000; stroke-width: 1.5;" width="867.5" x="141" y="446.96"/><text fill="#000000" font-family="sans-serif" font-size="14" font-weight="bold" lengthAdjust="spacingAndGlyphs" textLength="93" x="528.25" y="461.9551">CodeCharts</text><!--cluster a--><rect fill="#FFFFFF" filter="url(#fma89tkm2zud2)" height="128" style="stroke: #000000; stroke-width: 1.5;" width="233" x="797.5" y="31.96"/><text fill="#000000" font-family="sans-serif" font-size="14" font-weight="bold" lengthAdjust="spacingAndGlyphs" textLength="107" x="860.5" y="46.9551">AnalyseClient</text><!--cluster c--><rect fill="#FFFFFF" filter="url(#fma89tkm2zud2)" height="207" style="stroke: #000000; stroke-width: 1.5;" width="252" x="788" y="199.96"/><text fill="#000000" font-family="sans-serif" font-size="14" font-weight="bold" lengthAdjust="spacingAndGlyphs" textLength="51" x="888.5" y="214.9551">Config</text><ellipse cx="309.5624" cy="527.9725" fill="#FEFECE" filter="url(#fma89tkm2zud2)" rx="80.5624" ry="18.5125" style="stroke: #A80036; stroke-width: 1.5;"/><text fill="#000000" font-family="sans-serif" font-size="14" lengthAdjust="spacingAndGlyphs" textLength="132" x="243.5624" y="532.6209">Tutorial anschauen</text><ellipse cx="309.4927" cy="612.7585" fill="#FEFECE" filter="url(#fma89tkm2zud2)" rx="144.4927" ry="31.2985" style="stroke: #A80036; stroke-width: 1.5;"/><text fill="#000000" font-family="sans-serif" font-size="14" lengthAdjust="spacingAndGlyphs" textLength="271" x="173.9927" y="617.407">Tutorial: zukünftige Sichtbarkeit wählen</text><ellipse cx="309.4543" cy="695.7509" fill="#FEFECE" filter="url(#fma89tkm2zud2)" rx="69.4543" ry="16.2909" style="stroke: #A80036; stroke-width: 1.5;"/><text fill="#000000" font-family="sans-serif" font-size="14" lengthAdjust="spacingAndGlyphs" textLength="105" x="256.9543" y="700.3993">Bild betrachten</text><ellipse cx="309.6068" cy="765.8814" fill="#FEFECE" filter="url(#fma89tkm2zud2)" rx="77.6068" ry="17.9214" style="stroke: #A80036; stroke-width: 1.5;"/><text fill="#000000" font-family="sans-serif" font-size="14" lengthAdjust="spacingAndGlyphs" textLength="125" x="247.1068" y="770.5298">Raster betrachten</text><ellipse cx="914.1456" cy="826.9891" fill="#FEFECE" filter="url(#fma89tkm2zud2)" rx="70.6456" ry="16.5291" style="stroke: #A80036; stroke-width: 1.5;"/><text fill="#000000" font-family="sans-serif" font-size="14" lengthAdjust="spacingAndGlyphs" textLength="108" x="860.1456" y="831.6376">Eingabe tätigen</text><ellipse cx="309.2526" cy="835.8105" fill="#FEFECE" filter="url(#fma89tkm2zud2)" rx="72.2526" ry="16.8505" style="stroke: #A80036; stroke-width: 1.5;"/><text fill="#000000" font-family="sans-serif" font-size="14" lengthAdjust="spacingAndGlyphs" textLength="112" x="253.2526" y="840.459">Fehler Anzeigen</text><ellipse cx="913.8318" cy="95.8264" fill="#FEFECE" filter="url(#fma89tkm2zud2)" rx="92.3318" ry="20.8664" style="stroke: #A80036; stroke-width: 1.5;"/><text fill="#000000" font-family="sans-serif" font-size="14" lengthAdjust="spacingAndGlyphs" textLength="159" x="834.3318" y="100.4748">Ergebnisse anschauen</text><ellipse cx="914.0998" cy="263.18" fill="#FEFECE" filter="url(#fma89tkm2zud2)" rx="86.5998" ry="19.72" style="stroke: #A80036; stroke-width: 1.5;"/><text fill="#000000" font-family="sans-serif" font-size="14" lengthAdjust="spacingAndGlyphs" textLength="146" x="841.0998" y="267.8284">Einstellungen setzen</text><ellipse cx="913.7923" cy="340.7185" fill="#FEFECE" filter="url(#fma89tkm2zud2)" rx="101.7923" ry="22.7585" style="stroke: #A80036; stroke-width: 1.5;"/><text fill="#000000" font-family="sans-serif" font-size="14" lengthAdjust="spacingAndGlyphs" textLength="180" x="823.7923" y="345.3669">Tutorialeinstellung ändern</text><!--entity t--><ellipse cx="46" cy="664.46" fill="#FEFECE" filter="url(#fma89tkm2zud2)" rx="8" ry="8" style="stroke: #A80036; stroke-width: 2.0;"/><path d="M46,672.46 L46,699.46 M33,680.46 L59,680.46 M46,699.46 L33,714.46 M46,699.46 L59,714.46 " fill="none" filter="url(#fma89tkm2zud2)" style="stroke: #A80036; stroke-width: 2.0;"/><text fill="#000000" font-family="sans-serif" font-size="14" lengthAdjust="spacingAndGlyphs" textLength="80" x="6" y="734.4551">Testperson</text><!--entity f--><ellipse cx="1136.5" cy="132.46" fill="#FEFECE" filter="url(#fma89tkm2zud2)" rx="8" ry="8" style="stroke: #A80036; stroke-width: 2.0;"/><path d="M1136.5,140.46 L1136.5,167.46 M1123.5,148.46 L1149.5,148.46 M1136.5,167.46 L1123.5,182.46 M1136.5,167.46 L1149.5,182.46 " fill="none" filter="url(#fma89tkm2zud2)" style="stroke: #A80036; stroke-width: 2.0;"/><text fill="#000000" font-family="sans-serif" font-size="14" lengthAdjust="spacingAndGlyphs" textLength="83" x="1095" y="202.4551">Forschende</text><!--link t to td--><path d="M61.01,654.35 C73.22,624.55 93.92,585.93 125,563.96 C154.96,542.78 194.22,533.28 228.74,529.28 " fill="none" id="t-td" style="stroke: #A80036; stroke-width: 1.0;"/><!--link t to tw--><path d="M86.22,677.49 C98.49,672.09 112.17,666.44 125,661.96 C152.55,652.34 182.98,643.51 211.01,636.08 " fill="none" id="t-tw" style="stroke: #A80036; stroke-width: 1.0;"/><!--link t to bb--><path d="M86.15,695.96 C126.68,695.96 190.83,695.96 239.82,695.96 " fill="none" id="t-bb" style="stroke: #A80036; stroke-width: 1.0;"/><!--link t to rb--><path d="M86.05,714.96 C98.3,720.38 112.03,725.91 125,729.96 C163.27,741.9 207.33,750.7 242.67,756.61 " fill="none" id="t-rb" style="stroke: #A80036; stroke-width: 1.0;"/><!--link t to et--><path d="M52.69,737.7 C60.83,779.25 80.12,840.9 125,869.96 C373.4,1030.82 763.61,889.62 879.49,841.56 " fill="none" id="t-et" style="stroke: #A80036; stroke-width: 1.0;"/><!--link es to f--><path d="M953.66,245.6 C993.18,227.86 1054.33,200.4 1094.64,182.3 " fill="none" id="es-f" style="stroke: #A80036; stroke-width: 1.0;"/><!--link ea to f--><path d="M995.93,105.74 C1015.89,109.39 1036.99,114.33 1056,120.96 C1069.19,125.56 1082.81,132.16 1094.98,138.81 " fill="none" id="ea-f" style="stroke: #A80036; stroke-width: 1.0;"/><!--link tw to tä--><path d="M453.76,610.52 C556.85,600.48 690.23,568.87 764,476.96 C779.2,458.02 755.85,386.1 772,367.96 C781.52,357.27 793.87,350.01 807.29,345.19 " fill="none" id="tw-tä" style="stroke: #A80036; stroke-width: 1.0; stroke-dasharray: 7.0,7.0;"/><polygon fill="#A80036" points="812.29,343.52,802.4861,342.5802,807.548,345.1054,805.0228,350.1674,812.29,343.52" style="stroke: #A80036; stroke-width: 1.0;"/><text fill="#000000" font-family="sans-serif" font-size="13" lengthAdjust="spacingAndGlyphs" textLength="69" x="589.5" y="473.0269">«included»</text><!--link z to a--><path d="M360.9696,446.8907 C362.7749,445.9228 364.6216,444.9327 366.5088,443.921 C370.2832,441.8975 374.2192,439.7875 378.3077,437.5958 C386.4846,433.2125 395.2714,428.5028 404.5947,423.5061 C423.2414,413.5127 444.0344,402.3713 466.3875,390.3975 C555.8,342.5025 670.175,281.29 772,226.96 C802.825,210.515 837.4625,192.09 864.6925,177.6175 C871.5,173.9994 877.8445,170.6283 883.5508,167.5969 C886.4039,166.0812 889.0975,164.6505 891.6095,163.3162 C892.8656,162.6491 894.0762,162.0061 895.2388,161.3887 C895.8201,161.08 896.3893,160.7777 896.9462,160.482 C897.2246,160.3341 897.5,160.1879 897.7722,160.0433 " fill="none" id="z-a" style="stroke: #A80036; stroke-width: 1.0; stroke-dasharray: 7.0,7.0;"/><polygon fill="#A80036" points="360.9696,446.8907,370.7916,446.1634,365.3762,444.5281,367.0115,439.1128,360.9696,446.8907" style="stroke: #A80036; stroke-width: 1.0;"/><text fill="#000000" font-family="sans-serif" font-size="13" lengthAdjust="spacingAndGlyphs" textLength="222" x="513" y="230.0269">«extended» über Speichermedium</text><!--link z to c--><path d="M529.3144,446.7215 C538.2664,445.6071 547.3237,444.4796 556.451,443.3434 C574.7058,441.071 593.2411,438.7636 611.7762,436.4563 C685.9169,427.2269 760.0553,417.9978 816.2286,411.0048 C823.2503,410.1307 829.9912,409.2915 836.4164,408.4917 C839.629,408.0917 842.7626,407.7016 845.8129,407.3219 C846.5755,407.2269 847.3328,407.1327 848.0849,407.039 " fill="none" id="z-c" style="stroke: #A80036; stroke-width: 1.0; stroke-dasharray: 7.0,7.0;"/><polygon fill="#A80036" points="848.0849,407.039,838.6597,404.1815,843.1232,407.6567,839.648,412.1202,848.0849,407.039" style="stroke: #A80036; stroke-width: 1.0;"/><text fill="#000000" font-family="sans-serif" font-size="13" lengthAdjust="spacingAndGlyphs" textLength="278" x="485" y="416.0269">«included» Versuchseinstellungen abfragen</text><!--link fa to et--><path d="M381.98,834.89 C496.85,833.18 721.47,829.82 838.33,828.07 " fill="none" id="fa-et" style="stroke: #A80036; stroke-width: 1.0; stroke-dasharray: 7.0,7.0;"/><polygon fill="#A80036" points="843.47,828,834.4138,824.129,838.4705,828.0714,834.5281,832.1282,843.47,828" style="stroke: #A80036; stroke-width: 1.0;"/><text fill="#000000" font-family="sans-serif" font-size="13" lengthAdjust="spacingAndGlyphs" textLength="73" x="587.5" y="826.0269">«excluded»</text><!--
@startuml CodeCharts
left to right direction

actor Testperson as t
actor Forschende as f

rectangle CodeCharts as z #789dd5 {
    usecase "Tutorial anschauen" as td
    usecase "Tutorial: zukünftige Sichtbarkeit wählen" as tw
    usecase "Bild betrachten" as bb
    usecase "Raster betrachten" as rb
    usecase "Eingabe tätigen" as et
    usecase "Fehler Anzeigen" as fa
}

rectangle AnalyseClient as a {
    usecase "Ergebnisse anschauen" as ea
}

rectangle Config as c {
    usecase "Einstellungen setzen" as es
    usecase "Tutorialeinstellung ändern" as tä
}

t - - td
t - - tw
t - - bb
t - - rb
t - - et

es - - f
ea - - f

tw ..> tä : <<included>> 
z <.. a : <<extended>> über Speichermedium
z ..> c : <<included>> Versuchseinstellungen abfragen
fa ..> et : <<excluded>> 


@enduml

PlantUML version 1.2019.06(Fri May 24 17:10:25 UTC 2019)
(GPL source distribution)
Java Runtime: OpenJDK Runtime Environment
JVM: OpenJDK 64-Bit Server VM
Java Version: 11.0.11+9
Operating System: Linux
OS Version: 5.11.0-1021-azure
Default Encoding: UTF-8
Language: en
Country: null
--></g></svg>