<?xml version="1.0" encoding="UTF-8" standalone="no"?><svg xmlns="http://www.w3.org/2000/svg" xmlns:xlink="http://www.w3.org/1999/xlink" contentScriptType="application/ecmascript" contentStyleType="text/css" height="487px" preserveAspectRatio="none" style="width:415px;height:487px;background:#FFFFFF;" version="1.1" viewBox="0 0 415 487" width="415px" zoomAndPan="magnify"><defs><filter height="300%" id="f1f26vhwys0snj" width="300%" x="-1" y="-1"><feGaussianBlur result="blurOut" stdDeviation="2.0"/><feColorMatrix in="blurOut" result="blurOut2" type="matrix" values="0 0 0 0 0 0 0 0 0 0 0 0 0 0 0 0 0 0 .4 0"/><feOffset dx="4.0" dy="4.0" in="blurOut2" result="blurOut3"/><feBlend in="SourceGraphic" in2="blurOut3" mode="normal"/></filter></defs><g><ellipse cx="190" cy="20" fill="#000000" filter="url(#f1f26vhwys0snj)" rx="10" ry="10" style="stroke:none;stroke-width:1.0;"/><rect fill="#FEFECE" filter="url(#f1f26vhwys0snj)" height="33.9688" rx="12.5" ry="12.5" style="stroke:#A80036;stroke-width:1.5;" width="95" x="142.5" y="50"/><text fill="#000000" font-family="sans-serif" font-size="12" lengthAdjust="spacing" textLength="75" x="152.5" y="71.1387">start() : void</text><rect fill="#FEFECE" filter="url(#f1f26vhwys0snj)" height="33.9688" rx="12.5" ry="12.5" style="stroke:#A80036;stroke-width:1.5;" width="123" x="128.5" y="152.3711"/><text fill="#000000" font-family="sans-serif" font-size="12" lengthAdjust="spacing" textLength="103" x="138.5" y="173.5098">show() : boolean</text><rect fill="#000000" filter="url(#f1f26vhwys0snj)" height="6" rx="2.5" ry="2.5" style="stroke:#000000;stroke-width:1.0;" width="368" x="11" y="206.3398"/><rect fill="#FEFECE" filter="url(#f1f26vhwys0snj)" height="33.9688" rx="12.5" ry="12.5" style="stroke:#A80036;stroke-width:1.5;" width="185" x="23" y="280.7422"/><text fill="#000000" font-family="sans-serif" font-size="12" lengthAdjust="spacing" textLength="165" x="33" y="301.8809">setConfigState(false) : void</text><polygon fill="#FEFECE" filter="url(#f1f26vhwys0snj)" points="82.5,232.3398,148.5,232.3398,160.5,244.3398,148.5,256.3398,82.5,256.3398,70.5,244.3398,82.5,232.3398" style="stroke:#A80036;stroke-width:1.5;"/><text fill="#000000" font-family="sans-serif" font-size="11" lengthAdjust="spacing" textLength="28" x="119.5" y="266.5503">false</text><text fill="#000000" font-family="sans-serif" font-size="11" lengthAdjust="spacing" textLength="66" x="82.5" y="248.1479">returnvalue</text><text fill="#000000" font-family="sans-serif" font-size="11" lengthAdjust="spacing" textLength="23" x="160.5" y="241.7456">true</text><polygon fill="#FEFECE" filter="url(#f1f26vhwys0snj)" points="115.5,334.7109,127.5,346.7109,115.5,358.7109,103.5,346.7109,115.5,334.7109" style="stroke:#A80036;stroke-width:1.5;"/><rect fill="#FEFECE" filter="url(#f1f26vhwys0snj)" height="33.9688" rx="12.5" ry="12.5" style="stroke:#A80036;stroke-width:1.5;" width="109" x="258" y="280.7422"/><text fill="#000000" font-family="sans-serif" font-size="12" lengthAdjust="spacing" textLength="89" x="268" y="301.8809">tutorial() : void</text><rect fill="#000000" filter="url(#f1f26vhwys0snj)" height="6" rx="2.5" ry="2.5" style="stroke:#000000;stroke-width:1.0;" width="368" x="11" y="378.7109"/><polygon fill="#FEFECE" filter="url(#f1f26vhwys0snj)" points="114.5,103.9688,265.5,103.9688,277.5,115.9688,265.5,127.9688,114.5,127.9688,102.5,115.9688,114.5,103.9688" style="stroke:#A80036;stroke-width:1.5;"/><text fill="#000000" font-family="sans-serif" font-size="11" lengthAdjust="spacing" textLength="23" x="194" y="138.1792">true</text><text fill="#000000" font-family="sans-serif" font-size="11" lengthAdjust="spacing" textLength="151" x="114.5" y="119.7769">getConfigState() : boolean</text><text fill="#000000" font-family="sans-serif" font-size="11" lengthAdjust="spacing" textLength="28" x="277.5" y="113.3745">false</text><polygon fill="#FEFECE" filter="url(#f1f26vhwys0snj)" points="190,404.7109,202,416.7109,190,428.7109,178,416.7109,190,404.7109" style="stroke:#A80036;stroke-width:1.5;"/><ellipse cx="190" cy="459.7109" fill="#FFFFFF" filter="url(#f1f26vhwys0snj)" rx="11" ry="11" style="stroke:#000000;stroke-width:1.0;"/><ellipse cx="190" cy="459.7109" fill="#000000" rx="6" ry="6" style="stroke:#7F7F7F;stroke-width:1.0;"/><line style="stroke:#A80036;stroke-width:1.5;" x1="190" x2="190" y1="30" y2="50"/><polygon fill="#A80036" points="186,40,190,50,194,40,190,44" style="stroke:#A80036;stroke-width:1.0;"/><line style="stroke:#A80036;stroke-width:1.5;" x1="115.5" x2="115.5" y1="256.3398" y2="280.7422"/><polygon fill="#A80036" points="111.5,270.7422,115.5,280.7422,119.5,270.7422,115.5,274.7422" style="stroke:#A80036;stroke-width:1.0;"/><line style="stroke:#A80036;stroke-width:1.5;" x1="160.5" x2="218" y1="244.3398" y2="244.3398"/><polygon fill="#A80036" points="214,287.7266,218,297.7266,222,287.7266,218,291.7266" style="stroke:#A80036;stroke-width:1.5;"/><line style="stroke:#A80036;stroke-width:1.5;" x1="218" x2="218" y1="244.3398" y2="346.7109"/><line style="stroke:#A80036;stroke-width:1.5;" x1="218" x2="127.5" y1="346.7109" y2="346.7109"/><polygon fill="#A80036" points="137.5,342.7109,127.5,346.7109,137.5,350.7109,133.5,346.7109" style="stroke:#A80036;stroke-width:1.0;"/><line style="stroke:#A80036;stroke-width:1.5;" x1="115.5" x2="115.5" y1="314.7109" y2="334.7109"/><polygon fill="#A80036" points="111.5,324.7109,115.5,334.7109,119.5,324.7109,115.5,328.7109" style="stroke:#A80036;stroke-width:1.0;"/><line style="stroke:#A80036;stroke-width:1.5;" x1="115.5" x2="115.5" y1="212.3398" y2="232.3398"/><polygon fill="#A80036" points="111.5,222.3398,115.5,232.3398,119.5,222.3398,115.5,226.3398" style="stroke:#A80036;stroke-width:1.0;"/><line style="stroke:#A80036;stroke-width:1.5;" x1="312.5" x2="312.5" y1="212.3398" y2="280.7422"/><polygon fill="#A80036" points="308.5,270.7422,312.5,280.7422,316.5,270.7422,312.5,274.7422" style="stroke:#A80036;stroke-width:1.0;"/><line style="stroke:#A80036;stroke-width:1.5;" x1="115.5" x2="115.5" y1="358.7109" y2="378.7109"/><polygon fill="#A80036" points="111.5,368.7109,115.5,378.7109,119.5,368.7109,115.5,372.7109" style="stroke:#A80036;stroke-width:1.0;"/><line style="stroke:#A80036;stroke-width:1.5;" x1="312.5" x2="312.5" y1="314.7109" y2="378.7109"/><polygon fill="#A80036" points="308.5,368.7109,312.5,378.7109,316.5,368.7109,312.5,372.7109" style="stroke:#A80036;stroke-width:1.0;"/><line style="stroke:#A80036;stroke-width:1.5;" x1="190" x2="190" y1="186.3398" y2="206.3398"/><polygon fill="#A80036" points="186,196.3398,190,206.3398,194,196.3398,190,200.3398" style="stroke:#A80036;stroke-width:1.0;"/><line style="stroke:#A80036;stroke-width:1.5;" x1="190" x2="190" y1="127.9688" y2="152.3711"/><polygon fill="#A80036" points="186,142.3711,190,152.3711,194,142.3711,190,146.3711" style="stroke:#A80036;stroke-width:1.0;"/><line style="stroke:#A80036;stroke-width:1.5;" x1="277.5" x2="389" y1="115.9688" y2="115.9688"/><polygon fill="#A80036" points="385,253.2422,389,263.2422,393,253.2422,389,257.2422" style="stroke:#A80036;stroke-width:1.5;"/><line style="stroke:#A80036;stroke-width:1.5;" x1="389" x2="389" y1="115.9688" y2="416.7109"/><line style="stroke:#A80036;stroke-width:1.5;" x1="389" x2="202" y1="416.7109" y2="416.7109"/><polygon fill="#A80036" points="212,412.7109,202,416.7109,212,420.7109,208,416.7109" style="stroke:#A80036;stroke-width:1.0;"/><line style="stroke:#A80036;stroke-width:1.5;" x1="190" x2="190" y1="384.7109" y2="404.7109"/><polygon fill="#A80036" points="186,394.7109,190,404.7109,194,394.7109,190,398.7109" style="stroke:#A80036;stroke-width:1.0;"/><line style="stroke:#A80036;stroke-width:1.5;" x1="190" x2="190" y1="83.9688" y2="103.9688"/><polygon fill="#A80036" points="186,93.9688,190,103.9688,194,93.9688,190,97.9688" style="stroke:#A80036;stroke-width:1.0;"/><line style="stroke:#A80036;stroke-width:1.5;" x1="190" x2="190" y1="428.7109" y2="448.7109"/><polygon fill="#A80036" points="186,438.7109,190,448.7109,194,438.7109,190,442.7109" style="stroke:#A80036;stroke-width:1.0;"/><!--MD5=[46bcc26778f80812592bf17c8eee237b]
@startuml
' 
' (*) - -> start(): void

' if "getConfigState()" then
'   - ->[true] ===B1===
'   - ->"show(): boolean" as show
' else
'   - ->[false] (*)
' endif

' ===B1=== - -> "tutorial()"

' show - -> if "" then
'     - ->[true] (*)
' else
'     - ->[false] setConfigState(false)
'     - -> (*)
' 


start
:start() : void;
if (getConfigState() : boolean) then (true)
    :show() : boolean;
    fork    
        if (returnvalue) then (false)
            :setConfigState(false) : void;
        else (true)
        endif
    fork again
        :tutorial() : void;
    end fork
else (false)
endif
stop
@enduml

@startuml





start
:start() : void;
if (getConfigState() : boolean) then (true)
    :show() : boolean;
    fork    
        if (returnvalue) then (false)
            :setConfigState(false) : void;
        else (true)
        endif
    fork again
        :tutorial() : void;
    end fork
else (false)
endif
stop
@enduml

PlantUML version 1.2021.13beta8(Unknown compile time)
(GPL source distribution)
Java Runtime: Java(TM) SE Runtime Environment
JVM: Java HotSpot(TM) 64-Bit Server VM
Default Encoding: UTF-8
Language: en
Country: US
--></g></svg>