<?xml version="1.0" encoding="UTF-8" standalone="no"?><svg xmlns="http://www.w3.org/2000/svg" xmlns:xlink="http://www.w3.org/1999/xlink" contentScriptType="application/ecmascript" contentStyleType="text/css" height="706px" preserveAspectRatio="none" style="width:664px;height:706px;background:#FFFFFF;" version="1.1" viewBox="0 0 664 706" width="664px" zoomAndPan="magnify"><defs><filter height="300%" id="fmy9bceb0aqhw" width="300%" x="-1" y="-1"><feGaussianBlur result="blurOut" stdDeviation="2.0"/><feColorMatrix in="blurOut" result="blurOut2" type="matrix" values="0 0 0 0 0 0 0 0 0 0 0 0 0 0 0 0 0 0 .4 0"/><feOffset dx="4.0" dy="4.0" in="blurOut2" result="blurOut3"/><feBlend in="SourceGraphic" in2="blurOut3" mode="normal"/></filter></defs><g><!--MD5=[7d78d958a1816327b68dab5e38143fdd]
cluster ZoomMaps--><polygon fill="#FFFFFF" filter="url(#fmy9bceb0aqhw)" points="184,226,279,226,286,248.2969,484,248.2969,484,699,184,699,184,226" style="stroke:#000000;stroke-width:1.5;"/><line style="stroke:#000000;stroke-width:1.5;" x1="184" x2="286" y1="248.2969" y2="248.2969"/><text fill="#000000" font-family="sans-serif" font-size="14" font-weight="bold" lengthAdjust="spacing" textLength="89" x="188" y="240.9951">ZoomMaps</text><!--MD5=[9767bd966f4d33191914ccb96558e57c]
class ZoomInput--><rect codeLine="41" fill="#FEFECE" filter="url(#fmy9bceb0aqhw)" height="73.6094" id="ZoomInput" style="stroke:#A80036;stroke-width:1.5;" width="114" x="347" y="261"/><ellipse cx="369.65" cy="277" fill="#ADD1B2" rx="11" ry="11" style="stroke:#A80036;stroke-width:1.0;"/><path d="M371.9938,272.6719 C371.0563,272.2344 370.4625,272.0938 369.5875,272.0938 C366.9625,272.0938 364.9625,274.1719 364.9625,276.8906 L364.9625,278.0156 C364.9625,280.5938 367.0719,282.4844 369.9625,282.4844 C371.1813,282.4844 372.3375,282.1875 373.0875,281.6406 C373.6656,281.2344 373.9938,280.7813 373.9938,280.3906 C373.9938,279.9375 373.6031,279.5469 373.1344,279.5469 C372.9156,279.5469 372.7125,279.625 372.525,279.8125 C372.0719,280.2969 372.0719,280.2969 371.8844,280.3906 C371.4625,280.6563 370.775,280.7813 370.0094,280.7813 C367.9625,280.7813 366.6656,279.6875 366.6656,277.9844 L366.6656,276.8906 C366.6656,275.1094 367.9156,273.7969 369.65,273.7969 C370.2281,273.7969 370.8375,273.9531 371.3063,274.2031 C371.7906,274.4844 371.9625,274.7031 372.0563,275.1094 C372.1188,275.5156 372.15,275.6406 372.2906,275.7656 C372.4313,275.9063 372.6656,276.0156 372.8844,276.0156 C373.15,276.0156 373.4156,275.875 373.5875,275.6563 C373.6969,275.5 373.7281,275.3125 373.7281,274.8906 L373.7281,273.4688 C373.7281,273.0313 373.7125,272.9063 373.6188,272.75 C373.4625,272.4844 373.1813,272.3438 372.8844,272.3438 C372.5875,272.3438 372.3844,272.4375 372.1656,272.75 L371.9938,272.6719 Z " fill="#000000"/><text fill="#000000" font-family="sans-serif" font-size="12" lengthAdjust="spacing" textLength="65" x="385.35" y="281.1543">ZoomInput</text><line style="stroke:#A80036;stroke-width:1.5;" x1="348" x2="460" y1="293" y2="293"/><line style="stroke:#A80036;stroke-width:1.5;" x1="348" x2="460" y1="301" y2="301"/><rect fill="#F24D5C" height="6" style="stroke:#C82930;stroke-width:1.0;" width="6" x="355" y="309"/><text fill="#000000" font-family="sans-serif" font-size="11" lengthAdjust="spacing" textLength="83" x="367" y="315.2104">onClick() : void</text><rect fill="#F24D5C" height="6" style="stroke:#C82930;stroke-width:1.0;" width="6" x="355" y="321.8047"/><text fill="#000000" font-family="sans-serif" font-size="11" lengthAdjust="spacing" textLength="88" x="367" y="328.0151">onScroll() : void</text><!--MD5=[e6f9a0eef67c9f7cee45e688f45a88fd]
class ZoomTutorial--><rect codeLine="47" fill="#FEFECE" filter="url(#fmy9bceb0aqhw)" height="60.8047" id="ZoomTutorial" style="stroke:#A80036;stroke-width:1.5;" width="112" x="200" y="267.5"/><ellipse cx="215" cy="283.5" fill="#ADD1B2" rx="11" ry="11" style="stroke:#A80036;stroke-width:1.0;"/><path d="M217.3438,279.1719 C216.4063,278.7344 215.8125,278.5938 214.9375,278.5938 C212.3125,278.5938 210.3125,280.6719 210.3125,283.3906 L210.3125,284.5156 C210.3125,287.0938 212.4219,288.9844 215.3125,288.9844 C216.5313,288.9844 217.6875,288.6875 218.4375,288.1406 C219.0156,287.7344 219.3438,287.2813 219.3438,286.8906 C219.3438,286.4375 218.9531,286.0469 218.4844,286.0469 C218.2656,286.0469 218.0625,286.125 217.875,286.3125 C217.4219,286.7969 217.4219,286.7969 217.2344,286.8906 C216.8125,287.1563 216.125,287.2813 215.3594,287.2813 C213.3125,287.2813 212.0156,286.1875 212.0156,284.4844 L212.0156,283.3906 C212.0156,281.6094 213.2656,280.2969 215,280.2969 C215.5781,280.2969 216.1875,280.4531 216.6563,280.7031 C217.1406,280.9844 217.3125,281.2031 217.4063,281.6094 C217.4688,282.0156 217.5,282.1406 217.6406,282.2656 C217.7813,282.4063 218.0156,282.5156 218.2344,282.5156 C218.5,282.5156 218.7656,282.375 218.9375,282.1563 C219.0469,282 219.0781,281.8125 219.0781,281.3906 L219.0781,279.9688 C219.0781,279.5313 219.0625,279.4063 218.9688,279.25 C218.8125,278.9844 218.5313,278.8438 218.2344,278.8438 C217.9375,278.8438 217.7344,278.9375 217.5156,279.25 L217.3438,279.1719 Z " fill="#000000"/><text fill="#000000" font-family="sans-serif" font-size="12" lengthAdjust="spacing" textLength="80" x="229" y="287.6543">ZoomTutorial</text><line style="stroke:#A80036;stroke-width:1.5;" x1="201" x2="311" y1="299.5" y2="299.5"/><line style="stroke:#A80036;stroke-width:1.5;" x1="201" x2="311" y1="307.5" y2="307.5"/><rect fill="#F24D5C" height="6" style="stroke:#C82930;stroke-width:1.0;" width="6" x="208" y="315.5"/><text fill="#000000" font-family="sans-serif" font-size="11" lengthAdjust="spacing" textLength="82" x="220" y="321.7104">tutorial() : void</text><!--MD5=[72b9880496439479a2cac04af8a355bc]
class ZoomCalculator--><rect codeLine="52" fill="#FEFECE" filter="url(#fmy9bceb0aqhw)" height="137.6328" id="ZoomCalculator" style="stroke:#A80036;stroke-width:1.5;" width="252" x="208" y="400"/><ellipse cx="282.25" cy="416" fill="#ADD1B2" rx="11" ry="11" style="stroke:#A80036;stroke-width:1.0;"/><path d="M284.5938,411.6719 C283.6563,411.2344 283.0625,411.0938 282.1875,411.0938 C279.5625,411.0938 277.5625,413.1719 277.5625,415.8906 L277.5625,417.0156 C277.5625,419.5938 279.6719,421.4844 282.5625,421.4844 C283.7813,421.4844 284.9375,421.1875 285.6875,420.6406 C286.2656,420.2344 286.5938,419.7813 286.5938,419.3906 C286.5938,418.9375 286.2031,418.5469 285.7344,418.5469 C285.5156,418.5469 285.3125,418.625 285.125,418.8125 C284.6719,419.2969 284.6719,419.2969 284.4844,419.3906 C284.0625,419.6563 283.375,419.7813 282.6094,419.7813 C280.5625,419.7813 279.2656,418.6875 279.2656,416.9844 L279.2656,415.8906 C279.2656,414.1094 280.5156,412.7969 282.25,412.7969 C282.8281,412.7969 283.4375,412.9531 283.9063,413.2031 C284.3906,413.4844 284.5625,413.7031 284.6563,414.1094 C284.7188,414.5156 284.75,414.6406 284.8906,414.7656 C285.0313,414.9063 285.2656,415.0156 285.4844,415.0156 C285.75,415.0156 286.0156,414.875 286.1875,414.6563 C286.2969,414.5 286.3281,414.3125 286.3281,413.8906 L286.3281,412.4688 C286.3281,412.0313 286.3125,411.9063 286.2188,411.75 C286.0625,411.4844 285.7813,411.3438 285.4844,411.3438 C285.1875,411.3438 284.9844,411.4375 284.7656,411.75 L284.5938,411.6719 Z " fill="#000000"/><text fill="#000000" font-family="sans-serif" font-size="12" lengthAdjust="spacing" textLength="95" x="302.75" y="420.1543">ZoomCalculator</text><line style="stroke:#A80036;stroke-width:1.5;" x1="209" x2="459" y1="432" y2="432"/><rect fill="none" height="6" style="stroke:#C82930;stroke-width:1.0;" width="6" x="216" y="440"/><text fill="#000000" font-family="sans-serif" font-size="11" lengthAdjust="spacing" textLength="68" x="228" y="446.2104">speed: float</text><rect fill="none" height="6" style="stroke:#C82930;stroke-width:1.0;" width="6" x="216" y="452.8047"/><text fill="#000000" font-family="sans-serif" font-size="11" lengthAdjust="spacing" textLength="91" x="228" y="459.0151">position: float[3]</text><ellipse cx="219" cy="485.4141" fill="#84BE84" rx="3" ry="3" style="stroke:#038048;stroke-width:1.0;"/><text fill="#000000" font-family="sans-serif" font-size="11" lengthAdjust="spacing" textLength="226" x="228" y="488.6245">processInput(raw_input: unknown) : void</text><line style="stroke:#A80036;stroke-width:1.5;" x1="209" x2="293.5" y1="472.0117" y2="472.0117"/><text fill="#000000" font-family="sans-serif" font-size="11" lengthAdjust="spacing" textLength="81" x="293.5" y="475.3198">public method</text><line style="stroke:#A80036;stroke-width:1.5;" x1="374.5" x2="459" y1="472.0117" y2="472.0117"/><rect fill="#F24D5C" height="6" style="stroke:#C82930;stroke-width:1.0;" width="6" x="216" y="512.0234"/><text fill="#000000" font-family="sans-serif" font-size="11" lengthAdjust="spacing" textLength="221" x="228" y="518.2339">calculate(raw_input: unknown) : float[3]</text><rect fill="#F24D5C" height="6" style="stroke:#C82930;stroke-width:1.0;" width="6" x="216" y="524.8281"/><text fill="#000000" font-family="sans-serif" font-size="11" lengthAdjust="spacing" textLength="184" x="228" y="531.0386">save(position: float[3]) : boolean</text><line style="stroke:#A80036;stroke-width:1.5;" x1="209" x2="287" y1="501.6211" y2="501.6211"/><text fill="#000000" font-family="sans-serif" font-size="11" lengthAdjust="spacing" textLength="94" x="287" y="504.9292">private methods</text><line style="stroke:#A80036;stroke-width:1.5;" x1="381" x2="459" y1="501.6211" y2="501.6211"/><!--MD5=[90447d4191c16dafea1a917a3aa79093]
class ZoomBild--><rect codeLine="63" fill="#FEFECE" filter="url(#fmy9bceb0aqhw)" height="60.8047" id="ZoomBild" style="stroke:#A80036;stroke-width:1.5;" width="205" x="248.5" y="619"/><ellipse cx="317.75" cy="635" fill="#ADD1B2" rx="11" ry="11" style="stroke:#A80036;stroke-width:1.0;"/><path d="M320.0938,630.6719 C319.1563,630.2344 318.5625,630.0938 317.6875,630.0938 C315.0625,630.0938 313.0625,632.1719 313.0625,634.8906 L313.0625,636.0156 C313.0625,638.5938 315.1719,640.4844 318.0625,640.4844 C319.2813,640.4844 320.4375,640.1875 321.1875,639.6406 C321.7656,639.2344 322.0938,638.7813 322.0938,638.3906 C322.0938,637.9375 321.7031,637.5469 321.2344,637.5469 C321.0156,637.5469 320.8125,637.625 320.625,637.8125 C320.1719,638.2969 320.1719,638.2969 319.9844,638.3906 C319.5625,638.6563 318.875,638.7813 318.1094,638.7813 C316.0625,638.7813 314.7656,637.6875 314.7656,635.9844 L314.7656,634.8906 C314.7656,633.1094 316.0156,631.7969 317.75,631.7969 C318.3281,631.7969 318.9375,631.9531 319.4063,632.2031 C319.8906,632.4844 320.0625,632.7031 320.1563,633.1094 C320.2188,633.5156 320.25,633.6406 320.3906,633.7656 C320.5313,633.9063 320.7656,634.0156 320.9844,634.0156 C321.25,634.0156 321.5156,633.875 321.6875,633.6563 C321.7969,633.5 321.8281,633.3125 321.8281,632.8906 L321.8281,631.4688 C321.8281,631.0313 321.8125,630.9063 321.7188,630.75 C321.5625,630.4844 321.2813,630.3438 320.9844,630.3438 C320.6875,630.3438 320.4844,630.4375 320.2656,630.75 L320.0938,630.6719 Z " fill="#000000"/><text fill="#000000" font-family="sans-serif" font-size="12" lengthAdjust="spacing" textLength="58" x="338.25" y="639.1543">ZoomBild</text><line style="stroke:#A80036;stroke-width:1.5;" x1="249.5" x2="452.5" y1="651" y2="651"/><line style="stroke:#A80036;stroke-width:1.5;" x1="249.5" x2="452.5" y1="659" y2="659"/><ellipse cx="259.5" cy="670" fill="#84BE84" rx="3" ry="3" style="stroke:#038048;stroke-width:1.0;"/><text fill="#000000" font-family="sans-serif" font-size="11" lengthAdjust="spacing" textLength="179" x="268.5" y="673.2104">move(position: float[3]): float[3]</text><polygon fill="#FFFFFF" filter="url(#fmy9bceb0aqhw)" points="39,440.5,97,440.5,104,462.7969,111,462.7969,111,493.0938,39,493.0938,39,440.5" style="stroke:#000000;stroke-width:1.5;"/><line style="stroke:#000000;stroke-width:1.5;" x1="39" x2="104" y1="462.7969" y2="462.7969"/><text fill="#000000" font-family="sans-serif" font-size="14" font-weight="bold" lengthAdjust="spacing" textLength="52" x="43" y="455.4951">Config</text><polygon fill="#FFFFFF" filter="url(#fmy9bceb0aqhw)" points="16,622.5,154,622.5,161,644.7969,168,644.7969,168,675.0938,16,675.0938,16,622.5" style="stroke:#000000;stroke-width:1.5;"/><line style="stroke:#000000;stroke-width:1.5;" x1="16" x2="161" y1="644.7969" y2="644.7969"/><text fill="#000000" font-family="sans-serif" font-size="14" font-weight="bold" lengthAdjust="spacing" textLength="132" x="20" y="637.4951">SpeicherMedium</text><!--MD5=[abea0b42432aea0f9ce66e53feda8644]
entity System--><ellipse cx="578" cy="298" fill="#DA70D5" filter="url(#fmy9bceb0aqhw)" rx="8" ry="8" style="stroke:#A80036;stroke-width:1.5;"/><text fill="#000000" font-family="sans-serif" font-size="14" lengthAdjust="spacing" textLength="54" x="551" y="327.9951">System</text><!--MD5=[fccc419d627b37790932ddb688fb7ad6]
class Tutorial--><rect codeLine="6" fill="#FEFECE" filter="url(#fmy9bceb0aqhw)" height="167.2422" id="Tutorial" style="stroke:#A80036;stroke-width:1.5;" width="236" x="138" y="10"/><ellipse cx="183.75" cy="26" fill="#A9DCDF" rx="11" ry="11" style="stroke:#A80036;stroke-width:1.0;"/><path d="M185.8281,27.8125 L186.2188,28.7969 L185.8281,28.7969 C185.375,28.7969 185.2656,28.8125 185.1094,28.9219 C184.8594,29.0781 184.7031,29.3594 184.7031,29.6563 C184.7031,29.9219 184.8438,30.1719 185.0625,30.3281 C185.2031,30.4531 185.4063,30.5 185.8281,30.5 L188.1875,30.5 C188.5469,30.5 188.7656,30.4688 188.9063,30.375 C189.1563,30.2344 189.3125,29.9375 189.3125,29.6563 C189.3125,29.375 189.1719,29.125 188.9531,28.9688 C188.7813,28.8281 188.625,28.7969 188.1563,28.7969 L184.7656,20.5938 L181.0938,20.5938 C180.6406,20.5938 180.5156,20.6094 180.3594,20.7031 C180.1094,20.875 179.9531,21.1563 179.9531,21.4375 C179.9531,21.7188 180.0938,21.9688 180.3125,22.1406 C180.4844,22.25 180.6563,22.2813 181.0938,22.2813 L182.1719,22.2813 L179.5313,28.7969 C179.1094,28.7969 178.9531,28.8125 178.7969,28.9219 C178.5469,29.0781 178.3906,29.3594 178.3906,29.6563 C178.3906,30.2188 178.7656,30.5 179.5156,30.5 L181.7813,30.5 C182.1406,30.5 182.3594,30.4688 182.4844,30.375 C182.75,30.2344 182.8906,29.9375 182.8906,29.6563 C182.8906,29.375 182.7656,29.125 182.5469,28.9531 C182.375,28.8281 182.2344,28.7969 181.7813,28.7969 L181.3906,28.7969 L181.7813,27.8125 L185.8281,27.8125 Z M185.125,26.1094 L182.4531,26.1094 L183.7969,22.8438 L185.125,26.1094 Z " fill="#000000"/><text fill="#000000" font-family="sans-serif" font-size="12" font-style="italic" lengthAdjust="spacing" textLength="45" x="204.25" y="30.1543">Tutorial</text><rect fill="#FFFFFF" height="15.9688" style="stroke:#000000;stroke-width:1.0;stroke-dasharray:2.0,2.0;" width="89" x="288" y="7"/><text fill="#000000" font-family="sans-serif" font-size="12" font-style="italic" lengthAdjust="spacing" textLength="87" x="289" y="19.1387">t: TutorialType</text><line style="stroke:#A80036;stroke-width:1.5;" x1="139" x2="373" y1="42" y2="42"/><rect fill="none" height="6" style="stroke:#C82930;stroke-width:1.0;" width="6" x="146" y="50"/><text fill="#000000" font-family="sans-serif" font-size="11" lengthAdjust="spacing" textLength="82" x="158" y="56.2104">t: TutorialType</text><ellipse cx="149" cy="82.6094" fill="#84BE84" rx="3" ry="3" style="stroke:#038048;stroke-width:1.0;"/><text fill="#000000" font-family="sans-serif" font-size="11" lengthAdjust="spacing" textLength="68" x="158" y="85.8198">start() : void</text><line style="stroke:#A80036;stroke-width:1.5;" x1="139" x2="215.5" y1="69.207" y2="69.207"/><text fill="#000000" font-family="sans-serif" font-size="11" lengthAdjust="spacing" textLength="81" x="215.5" y="72.5151">public method</text><line style="stroke:#A80036;stroke-width:1.5;" x1="296.5" x2="373" y1="69.207" y2="69.207"/><rect fill="#F24D5C" height="6" style="stroke:#C82930;stroke-width:1.0;" width="6" x="146" y="109.2188"/><text fill="#000000" font-family="sans-serif" font-size="11" lengthAdjust="spacing" textLength="151" x="158" y="115.4292">getConfigState() : boolean</text><rect fill="#F24D5C" height="6" style="stroke:#C82930;stroke-width:1.0;" width="6" x="146" y="122.0234"/><text fill="#000000" font-family="sans-serif" font-size="11" lengthAdjust="spacing" textLength="210" x="158" y="128.2339">setConfigState(state: boolean) : void</text><rect fill="#F24D5C" height="6" style="stroke:#C82930;stroke-width:1.0;" width="6" x="146" y="134.8281"/><text fill="#000000" font-family="sans-serif" font-size="11" lengthAdjust="spacing" textLength="94" x="158" y="141.0386">show() : boolean</text><line style="stroke:#A80036;stroke-width:1.5;" x1="139" x2="209" y1="98.8164" y2="98.8164"/><text fill="#000000" font-family="sans-serif" font-size="11" lengthAdjust="spacing" textLength="94" x="209" y="102.1245">private methods</text><line style="stroke:#A80036;stroke-width:1.5;" x1="303" x2="373" y1="98.8164" y2="98.8164"/><rect fill="#F24D5C" height="6" style="stroke:#C82930;stroke-width:1.0;" width="6" x="146" y="164.4375"/><text fill="#000000" font-family="sans-serif" font-size="11" font-style="italic" lengthAdjust="spacing" textLength="84" x="158" y="170.6479">tutorial() : void</text><line style="stroke:#A80036;stroke-width:1.5;" x1="139" x2="206.5" y1="154.0352" y2="154.0352"/><text fill="#000000" font-family="sans-serif" font-size="11" lengthAdjust="spacing" textLength="99" x="206.5" y="157.3433">abstract methods</text><line style="stroke:#A80036;stroke-width:1.5;" x1="305.5" x2="373" y1="154.0352" y2="154.0352"/><!--MD5=[b51717a605764d924c74fe29f3a07c77]
class TutorialType--><rect codeLine="18" fill="#FEFECE" filter="url(#fmy9bceb0aqhw)" height="86.4141" id="TutorialType" style="stroke:#A80036;stroke-width:1.5;" width="106" x="417" y="49.5"/><ellipse cx="432" cy="65.5" fill="#EB937F" rx="11" ry="11" style="stroke:#A80036;stroke-width:1.0;"/><path d="M430.7969,66.375 L432.25,66.375 L432.25,66.4844 C432.25,66.8906 432.2813,67.0469 432.3594,67.2031 C432.5156,67.4531 432.7969,67.6094 433.0938,67.6094 C433.3438,67.6094 433.6094,67.4688 433.7656,67.25 C433.8906,67.0938 433.9219,66.9375 433.9219,66.4844 L433.9219,64.5625 C433.9219,64.4063 433.9219,64.3594 433.9063,64.2031 C433.8438,63.7344 433.5313,63.4219 433.0781,63.4219 C432.8281,63.4219 432.5625,63.5625 432.3906,63.7813 C432.2813,63.9531 432.25,64.1094 432.25,64.5625 L432.25,64.6875 L430.7969,64.6875 L430.7969,62.2813 L434.7813,62.2813 L434.7813,63.1406 C434.7813,63.5469 434.8125,63.7188 434.8906,63.875 C435.0625,64.125 435.3438,64.2813 435.625,64.2813 C435.8906,64.2813 436.1563,64.1406 436.3281,63.9219 C436.4375,63.75 436.4688,63.6094 436.4688,63.1406 L436.4688,60.5938 L428.8438,60.5938 C428.4063,60.5938 428.2813,60.6094 428.125,60.7031 C427.875,60.8594 427.7188,61.1563 427.7188,61.4375 C427.7188,61.7188 427.8594,61.9688 428.0781,62.1406 C428.2344,62.25 428.4219,62.2813 428.8438,62.2813 L429.0938,62.2813 L429.0938,68.7969 L428.8438,68.7969 C428.4375,68.7969 428.2813,68.8125 428.125,68.9219 C427.875,69.0938 427.7188,69.3594 427.7188,69.6563 C427.7188,69.9219 427.8594,70.1719 428.0781,70.3281 C428.2188,70.4531 428.4531,70.5 428.8438,70.5 L436.8438,70.5 L436.8438,67.9219 C436.8438,67.4844 436.8125,67.3438 436.7344,67.1875 C436.5625,66.9375 436.2813,66.7813 436,66.7813 C435.7344,66.7813 435.4688,66.8906 435.2969,67.1406 C435.1875,67.2969 435.1563,67.4375 435.1563,67.9219 L435.1563,68.7969 L430.7969,68.7969 L430.7969,66.375 Z " fill="#000000"/><text fill="#000000" font-family="sans-serif" font-size="12" lengthAdjust="spacing" textLength="74" x="446" y="69.6543">TutorialType</text><line style="stroke:#A80036;stroke-width:1.5;" x1="418" x2="522" y1="81.5" y2="81.5"/><text fill="#000000" font-family="sans-serif" font-size="11" lengthAdjust="spacing" textLength="35" x="423" y="95.7104">ZOOM</text><text fill="#000000" font-family="sans-serif" font-size="11" lengthAdjust="spacing" textLength="78" x="423" y="108.5151">EYETRACKING</text><text fill="#000000" font-family="sans-serif" font-size="11" lengthAdjust="spacing" textLength="79" x="423" y="121.3198">CODECHARTS</text><line style="stroke:#A80036;stroke-width:1.5;" x1="418" x2="522" y1="127.9141" y2="127.9141"/><!--MD5=[626b00d2609f42ba755c8afb6d5f2b59]
class Bild--><rect codeLine="32" fill="#FEFECE" filter="url(#fmy9bceb0aqhw)" height="73.6094" id="Bild" style="stroke:#A80036;stroke-width:1.5;" width="147" x="503.5" y="430"/><ellipse cx="561.75" cy="446" fill="#A9DCDF" rx="11" ry="11" style="stroke:#A80036;stroke-width:1.0;"/><path d="M563.8281,447.8125 L564.2188,448.7969 L563.8281,448.7969 C563.375,448.7969 563.2656,448.8125 563.1094,448.9219 C562.8594,449.0781 562.7031,449.3594 562.7031,449.6563 C562.7031,449.9219 562.8438,450.1719 563.0625,450.3281 C563.2031,450.4531 563.4063,450.5 563.8281,450.5 L566.1875,450.5 C566.5469,450.5 566.7656,450.4688 566.9063,450.375 C567.1563,450.2344 567.3125,449.9375 567.3125,449.6563 C567.3125,449.375 567.1719,449.125 566.9531,448.9688 C566.7813,448.8281 566.625,448.7969 566.1563,448.7969 L562.7656,440.5938 L559.0938,440.5938 C558.6406,440.5938 558.5156,440.6094 558.3594,440.7031 C558.1094,440.875 557.9531,441.1563 557.9531,441.4375 C557.9531,441.7188 558.0938,441.9688 558.3125,442.1406 C558.4844,442.25 558.6563,442.2813 559.0938,442.2813 L560.1719,442.2813 L557.5313,448.7969 C557.1094,448.7969 556.9531,448.8125 556.7969,448.9219 C556.5469,449.0781 556.3906,449.3594 556.3906,449.6563 C556.3906,450.2188 556.7656,450.5 557.5156,450.5 L559.7813,450.5 C560.1406,450.5 560.3594,450.4688 560.4844,450.375 C560.75,450.2344 560.8906,449.9375 560.8906,449.6563 C560.8906,449.375 560.7656,449.125 560.5469,448.9531 C560.375,448.8281 560.2344,448.7969 559.7813,448.7969 L559.3906,448.7969 L559.7813,447.8125 L563.8281,447.8125 Z M563.125,446.1094 L560.4531,446.1094 L561.7969,442.8438 L563.125,446.1094 Z " fill="#000000"/><text fill="#000000" font-family="sans-serif" font-size="12" font-style="italic" lengthAdjust="spacing" textLength="22" x="582.25" y="450.1543">Bild</text><line style="stroke:#A80036;stroke-width:1.5;" x1="504.5" x2="649.5" y1="462" y2="462"/><line style="stroke:#A80036;stroke-width:1.5;" x1="504.5" x2="649.5" y1="470" y2="470"/><ellipse cx="514.5" cy="481" fill="#84BE84" rx="3" ry="3" style="stroke:#038048;stroke-width:1.0;"/><text fill="#000000" font-family="sans-serif" font-size="11" lengthAdjust="spacing" textLength="121" x="523.5" y="484.2104">load(url: String) : void</text><ellipse cx="514.5" cy="493.8047" fill="#84BE84" rx="3" ry="3" style="stroke:#038048;stroke-width:1.0;"/><text fill="#000000" font-family="sans-serif" font-size="11" lengthAdjust="spacing" textLength="72" x="523.5" y="497.0151">show() : void</text><!--MD5=[b7b30a6ba3bc0d032df5bb8d6b41e119]
link Tutorial to TutorialType--><path codeLine="25" d="M375,52.5 C389.078,52.5 403.462,56.345 416.61,61.652 " fill="none" id="Tutorial-TutorialType" style="stroke:#A80036;stroke-width:1.0;"/><!--MD5=[c1258afe1f320a3fd45f72e2b99af1b2]
link Tutorial to System--><path codeLine="26" d="M375,136.5 C396.915,136.5 383.771,164.274 400,179 C430.483,206.659 449.275,195.9 484,218 C518.529,239.976 554.14,273.426 569.787,288.777 " fill="none" id="Tutorial-System" style="stroke:#A80036;stroke-width:1.0;"/><!--MD5=[fc4ffdc4bb2ac5a3cd1bd4c856213de4]
link Tutorial to Config--><path codeLine="27" d="M204.785,179.22 C197.575,192.093 190.436,205.306 184,218 C143.806,297.281 103.5497,394.674 85.231,440.222 " fill="none" id="Tutorial-Config" style="stroke:#A80036;stroke-width:1.0;"/><!--MD5=[91cffcbb8234028742b6ac8b9b57d54f]
reverse link Bild to ZoomBild--><path codeLine="69" d="M544.904,521.113 C529.723,542.991 510.076,567.303 488,585 C473.6,596.544 456.741,606.508 439.87,614.886 " fill="none" id="Bild-backto-ZoomBild" style="stroke:#A80036;stroke-width:1.0;"/><polygon fill="none" points="539.193,517.058,556.083,504.262,550.86,524.797,539.193,517.058" style="stroke:#A80036;stroke-width:1.0;"/><!--MD5=[74bcaaa80c1f5666ddc668b1a184278c]
reverse link Tutorial to ZoomTutorial--><path codeLine="70" d="M256,199.542 C256,224.361 256,248.839 256,267.055 " fill="none" id="Tutorial-backto-ZoomTutorial" style="stroke:#A80036;stroke-width:1.0;"/><polygon fill="none" points="249,199.213,256,179.213,263,199.212,249,199.213" style="stroke:#A80036;stroke-width:1.0;"/><!--MD5=[2708804abe4d1091750fa48cfee7ac00]
link ZoomInput to ZoomCalculator--><path codeLine="73" d="M430.871,335.236 C442.187,352.669 454.088,374.434 460,396 C470.222,433.294 499.669,483 461,483 " fill="none" id="ZoomInput-ZoomCalculator" style="stroke:#A80036;stroke-width:1.0;"/><!--MD5=[d14beb75e4877be6f65874a887b5bf30]
link ZoomCalculator to ZoomBild--><path codeLine="74" d="M461,483 C485.448,483 474.196,518.095 460,538 C402.035,619.2742 306.979,533.736 249,615 C235.059,634.5406 223.996,669 248,669 " fill="none" id="ZoomCalculator-ZoomBild" style="stroke:#A80036;stroke-width:1.0;"/><polygon fill="#000000" points="422.2338,579.8552,430.98,576.1194,427.1138,571.692,422.2338,579.8552" style="stroke:#000000;stroke-width:1.0;"/><text fill="#000000" font-family="sans-serif" font-size="13" lengthAdjust="spacing" textLength="44" x="435" y="581.0669">moves</text><!--MD5=[ab94cbc2495622a03fec4b24390f5618]
link ZoomCalculator to SpeicherMedium--><path codeLine="77" d="M207,524 C153.857,524 118.374,585.987 102.1442,622.3071 " fill="none" id="ZoomCalculator-SpeicherMedium" style="stroke:#A80036;stroke-width:1.0;"/><polygon fill="#000000" points="133.3524,579.9862,141.9611,575.9437,137.9409,571.6557,133.3524,579.9862" style="stroke:#000000;stroke-width:1.0;"/><text fill="#000000" font-family="sans-serif" font-size="13" lengthAdjust="spacing" textLength="73" x="146" y="581.0669">saves Data</text><!--MD5=[b5bf2730b290792fe768f0624d25067c]
link ZoomCalculator to Config--><path codeLine="78" d="M207,442 C171.788,442 162.416,440.554 128,448 C122.544,449.18 116.887,450.803 111.4016,452.607 " fill="none" id="ZoomCalculator-Config" style="stroke:#A80036;stroke-width:1.0;"/><polygon fill="#000000" points="137.9695,433.015,128.6555,431.0915,129.3037,436.9335,137.9695,433.015" style="stroke:#000000;stroke-width:1.0;"/><text fill="#000000" font-family="sans-serif" font-size="13" lengthAdjust="spacing" textLength="39" x="142" y="438.0669">speed</text><!--MD5=[917d2dfaeb525f74b5c3c05af4a701f0]
link ZoomInput to System--><path codeLine="79" d="M461.456,298 C500.656,298 548.936,298 568.8,298 " fill="none" id="ZoomInput-System" style="stroke:#A80036;stroke-width:1.0;"/><polygon fill="#000000" points="488.5,286.5664,479.4549,283.6275,479.4549,289.5053,488.5,286.5664" style="stroke:#000000;stroke-width:1.0;"/><text fill="#000000" font-family="sans-serif" font-size="13" lengthAdjust="spacing" textLength="58" x="492.5" y="291.0669">listens to</text><!--MD5=[297987014b4558427026f4e771e07d02]
@startuml
' skinparam backgroundColor transparent
() System #DA70D5
top to bottom direction

' - - - TUTORIAL - - -
abstract Tutorial<t: TutorialType> {
  - t: TutorialType
  __public method__
  + start() : void
  __private methods__
  - getConfigState() : boolean
  - setConfigState(state: boolean) : void
  - show() : boolean
  __abstract methods__
  - {abstract} tutorial() : void
}

enum TutorialType {
  ZOOM
  EYETRACKING
  CODECHARTS
}

' Interaktionen
Tutorial::t -r- TutorialType
Tutorial::show - - System
Tutorial - - Config


' - - - BILD - - -

abstract Bild {
  + load(url: String) : void
  + show() : void
}

' === ZOOM MAPS ===
package ZoomMaps {

    ' Zoom Input
    class ZoomInput {
        - onClick() : void
        - onScroll() : void
    }

    ' Zoom Tutorial 
    class ZoomTutorial {
        - tutorial() : void
    }
  
    ' Zoom Calculator
    class ZoomCalculator {
        - speed: float
        - position: float[3]
        __public method__
        + processInput(raw_input: unknown) : void
        __private methods__
        - calculate(raw_input: unknown) : float[3]
        - save(position: float[3]) : boolean
    }

    ' Zoom Bild
    class ZoomBild {
        + move(position: float[3]): float[3]
    }


    ' Vererbungen
    Bild <|- - ZoomBild
    Tutorial <|- - ZoomTutorial

    ' Interaktionen
    ZoomInput - - ZoomCalculator::processInput
    ZoomCalculator::processInput  - - ZoomBild::move : > moves

    ' Andere Module
    ZoomCalculator::save - - SpeicherMedium : > saves Data
    ZoomCalculator::speed -r- Config : < speed
    ZoomInput -r- System : > listens to
  
}

' Blackboxen / Andere Module
package Config {}

package SpeicherMedium {}
@enduml

@startuml
() System #DA70D5
top to bottom direction

abstract Tutorial<t: TutorialType> {
  - t: TutorialType
  __public method__
  + start() : void
  __private methods__
  - getConfigState() : boolean
  - setConfigState(state: boolean) : void
  - show() : boolean
  __abstract methods__
  - {abstract} tutorial() : void
}

enum TutorialType {
  ZOOM
  EYETRACKING
  CODECHARTS
}

Tutorial::t -r- TutorialType
Tutorial::show - - System
Tutorial - - Config



abstract Bild {
  + load(url: String) : void
  + show() : void
}

package ZoomMaps {

    class ZoomInput {
        - onClick() : void
        - onScroll() : void
    }

    class ZoomTutorial {
        - tutorial() : void
    }
  
    class ZoomCalculator {
        - speed: float
        - position: float[3]
        __public method__
        + processInput(raw_input: unknown) : void
        __private methods__
        - calculate(raw_input: unknown) : float[3]
        - save(position: float[3]) : boolean
    }

    class ZoomBild {
        + move(position: float[3]): float[3]
    }


    Bild <|- - ZoomBild
    Tutorial <|- - ZoomTutorial

    ZoomInput - - ZoomCalculator::processInput
    ZoomCalculator::processInput  - - ZoomBild::move : > moves

    ZoomCalculator::save - - SpeicherMedium : > saves Data
    ZoomCalculator::speed -r- Config : < speed
    ZoomInput -r- System : > listens to
  
}

package Config {}

package SpeicherMedium {}
@enduml

PlantUML version 1.2021.13beta8(Unknown compile time)
(GPL source distribution)
Java Runtime: Java(TM) SE Runtime Environment
JVM: Java HotSpot(TM) 64-Bit Server VM
Default Encoding: UTF-8
Language: en
Country: US
--></g></svg>