<?xml version="1.0" encoding="UTF-8" standalone="no"?><svg xmlns="http://www.w3.org/2000/svg" xmlns:xlink="http://www.w3.org/1999/xlink" contentScriptType="application/ecmascript" contentStyleType="text/css" height="706px" preserveAspectRatio="none" style="width:1456px;height:706px;background:#FFFFFF;" version="1.1" viewBox="0 0 1456 706" width="1456px" zoomAndPan="magnify"><defs><filter height="300%" id="febrfqekr6dua" width="300%" x="-1" y="-1"><feGaussianBlur result="blurOut" stdDeviation="2.0"/><feColorMatrix in="blurOut" result="blurOut2" type="matrix" values="0 0 0 0 0 0 0 0 0 0 0 0 0 0 0 0 0 0 .4 0"/><feOffset dx="4.0" dy="4.0" in="blurOut2" result="blurOut3"/><feBlend in="SourceGraphic" in2="blurOut3" mode="normal"/></filter></defs><g><!--MD5=[7d78d958a1816327b68dab5e38143fdd]
cluster ZoomMaps--><polygon fill="#FFFFFF" filter="url(#febrfqekr6dua)" points="450.5,226,545.5,226,552.5,248.2969,1278.5,248.2969,1278.5,699,450.5,699,450.5,226" style="stroke:#000000;stroke-width:1.5;"/><line style="stroke:#000000;stroke-width:1.5;" x1="450.5" x2="552.5" y1="248.2969" y2="248.2969"/><text fill="#000000" font-family="sans-serif" font-size="14" font-weight="bold" lengthAdjust="spacing" textLength="89" x="454.5" y="240.9951">ZoomMaps</text><!--MD5=[9767bd966f4d33191914ccb96558e57c]
class ZoomInput--><rect codeLine="53" fill="#FEFECE" filter="url(#febrfqekr6dua)" height="73.6094" id="ZoomInput" style="stroke:#A80036;stroke-width:1.5;" width="114" x="1148.5" y="261"/><ellipse cx="1171.15" cy="277" fill="#ADD1B2" rx="11" ry="11" style="stroke:#A80036;stroke-width:1.0;"/><path d="M1173.4938,272.6719 C1172.5563,272.2344 1171.9625,272.0938 1171.0875,272.0938 C1168.4625,272.0938 1166.4625,274.1719 1166.4625,276.8906 L1166.4625,278.0156 C1166.4625,280.5938 1168.5719,282.4844 1171.4625,282.4844 C1172.6813,282.4844 1173.8375,282.1875 1174.5875,281.6406 C1175.1656,281.2344 1175.4938,280.7813 1175.4938,280.3906 C1175.4938,279.9375 1175.1031,279.5469 1174.6344,279.5469 C1174.4156,279.5469 1174.2125,279.625 1174.025,279.8125 C1173.5719,280.2969 1173.5719,280.2969 1173.3844,280.3906 C1172.9625,280.6563 1172.275,280.7813 1171.5094,280.7813 C1169.4625,280.7813 1168.1656,279.6875 1168.1656,277.9844 L1168.1656,276.8906 C1168.1656,275.1094 1169.4156,273.7969 1171.15,273.7969 C1171.7281,273.7969 1172.3375,273.9531 1172.8063,274.2031 C1173.2906,274.4844 1173.4625,274.7031 1173.5563,275.1094 C1173.6188,275.5156 1173.65,275.6406 1173.7906,275.7656 C1173.9313,275.9063 1174.1656,276.0156 1174.3844,276.0156 C1174.65,276.0156 1174.9156,275.875 1175.0875,275.6563 C1175.1969,275.5 1175.2281,275.3125 1175.2281,274.8906 L1175.2281,273.4688 C1175.2281,273.0313 1175.2125,272.9063 1175.1188,272.75 C1174.9625,272.4844 1174.6813,272.3438 1174.3844,272.3438 C1174.0875,272.3438 1173.8844,272.4375 1173.6656,272.75 L1173.4938,272.6719 Z " fill="#000000"/><text fill="#000000" font-family="sans-serif" font-size="12" lengthAdjust="spacing" textLength="65" x="1186.85" y="281.1543">ZoomInput</text><line style="stroke:#A80036;stroke-width:1.5;" x1="1149.5" x2="1261.5" y1="293" y2="293"/><line style="stroke:#A80036;stroke-width:1.5;" x1="1149.5" x2="1261.5" y1="301" y2="301"/><rect fill="#F24D5C" height="6" style="stroke:#C82930;stroke-width:1.0;" width="6" x="1156.5" y="309"/><text fill="#000000" font-family="sans-serif" font-size="11" lengthAdjust="spacing" textLength="83" x="1168.5" y="315.2104">onClick() : void</text><rect fill="#F24D5C" height="6" style="stroke:#C82930;stroke-width:1.0;" width="6" x="1156.5" y="321.8047"/><text fill="#000000" font-family="sans-serif" font-size="11" lengthAdjust="spacing" textLength="88" x="1168.5" y="328.0151">onScroll() : void</text><path d="M613.5,285.5 L613.5,310.6328 A0,0 0 0 0 613.5,310.6328 L1113.5,310.6328 A0,0 0 0 0 1113.5,310.6328 L1113.5,303.5 L1148.46,298 L1113.5,295.5 L1113.5,295.5 L1103.5,285.5 L613.5,285.5 A0,0 0 0 0 613.5,285.5 " fill="#FBFB77" filter="url(#febrfqekr6dua)" style="stroke:#A80036;stroke-width:1.0;"/><path d="M1103.5,285.5 L1103.5,295.5 L1113.5,295.5 L1103.5,285.5 " fill="#FBFB77" style="stroke:#A80036;stroke-width:1.0;"/><text fill="#000000" font-family="sans-serif" font-size="13" lengthAdjust="spacing" textLength="479" x="619.5" y="302.5669">Kann sich noch ändern, je nachdem wie Schnittstelle zum System aussieht</text><!--MD5=[e6f9a0eef67c9f7cee45e688f45a88fd]
class ZoomTutorial--><rect codeLine="64" fill="#FEFECE" filter="url(#febrfqekr6dua)" height="60.8047" id="ZoomTutorial" style="stroke:#A80036;stroke-width:1.5;" width="112" x="466.5" y="267.5"/><ellipse cx="481.5" cy="283.5" fill="#ADD1B2" rx="11" ry="11" style="stroke:#A80036;stroke-width:1.0;"/><path d="M483.8438,279.1719 C482.9063,278.7344 482.3125,278.5938 481.4375,278.5938 C478.8125,278.5938 476.8125,280.6719 476.8125,283.3906 L476.8125,284.5156 C476.8125,287.0938 478.9219,288.9844 481.8125,288.9844 C483.0313,288.9844 484.1875,288.6875 484.9375,288.1406 C485.5156,287.7344 485.8438,287.2813 485.8438,286.8906 C485.8438,286.4375 485.4531,286.0469 484.9844,286.0469 C484.7656,286.0469 484.5625,286.125 484.375,286.3125 C483.9219,286.7969 483.9219,286.7969 483.7344,286.8906 C483.3125,287.1563 482.625,287.2813 481.8594,287.2813 C479.8125,287.2813 478.5156,286.1875 478.5156,284.4844 L478.5156,283.3906 C478.5156,281.6094 479.7656,280.2969 481.5,280.2969 C482.0781,280.2969 482.6875,280.4531 483.1563,280.7031 C483.6406,280.9844 483.8125,281.2031 483.9063,281.6094 C483.9688,282.0156 484,282.1406 484.1406,282.2656 C484.2813,282.4063 484.5156,282.5156 484.7344,282.5156 C485,282.5156 485.2656,282.375 485.4375,282.1563 C485.5469,282 485.5781,281.8125 485.5781,281.3906 L485.5781,279.9688 C485.5781,279.5313 485.5625,279.4063 485.4688,279.25 C485.3125,278.9844 485.0313,278.8438 484.7344,278.8438 C484.4375,278.8438 484.2344,278.9375 484.0156,279.25 L483.8438,279.1719 Z " fill="#000000"/><text fill="#000000" font-family="sans-serif" font-size="12" lengthAdjust="spacing" textLength="80" x="495.5" y="287.6543">ZoomTutorial</text><line style="stroke:#A80036;stroke-width:1.5;" x1="467.5" x2="577.5" y1="299.5" y2="299.5"/><line style="stroke:#A80036;stroke-width:1.5;" x1="467.5" x2="577.5" y1="307.5" y2="307.5"/><rect fill="#F24D5C" height="6" style="stroke:#C82930;stroke-width:1.0;" width="6" x="474.5" y="315.5"/><text fill="#000000" font-family="sans-serif" font-size="11" lengthAdjust="spacing" textLength="82" x="486.5" y="321.7104">tutorial() : void</text><!--MD5=[72b9880496439479a2cac04af8a355bc]
class ZoomCalculator--><rect codeLine="69" fill="#FEFECE" filter="url(#febrfqekr6dua)" height="137.6328" id="ZoomCalculator" style="stroke:#A80036;stroke-width:1.5;" width="252" x="624.5" y="400"/><ellipse cx="698.75" cy="416" fill="#ADD1B2" rx="11" ry="11" style="stroke:#A80036;stroke-width:1.0;"/><path d="M701.0938,411.6719 C700.1563,411.2344 699.5625,411.0938 698.6875,411.0938 C696.0625,411.0938 694.0625,413.1719 694.0625,415.8906 L694.0625,417.0156 C694.0625,419.5938 696.1719,421.4844 699.0625,421.4844 C700.2813,421.4844 701.4375,421.1875 702.1875,420.6406 C702.7656,420.2344 703.0938,419.7813 703.0938,419.3906 C703.0938,418.9375 702.7031,418.5469 702.2344,418.5469 C702.0156,418.5469 701.8125,418.625 701.625,418.8125 C701.1719,419.2969 701.1719,419.2969 700.9844,419.3906 C700.5625,419.6563 699.875,419.7813 699.1094,419.7813 C697.0625,419.7813 695.7656,418.6875 695.7656,416.9844 L695.7656,415.8906 C695.7656,414.1094 697.0156,412.7969 698.75,412.7969 C699.3281,412.7969 699.9375,412.9531 700.4063,413.2031 C700.8906,413.4844 701.0625,413.7031 701.1563,414.1094 C701.2188,414.5156 701.25,414.6406 701.3906,414.7656 C701.5313,414.9063 701.7656,415.0156 701.9844,415.0156 C702.25,415.0156 702.5156,414.875 702.6875,414.6563 C702.7969,414.5 702.8281,414.3125 702.8281,413.8906 L702.8281,412.4688 C702.8281,412.0313 702.8125,411.9063 702.7188,411.75 C702.5625,411.4844 702.2813,411.3438 701.9844,411.3438 C701.6875,411.3438 701.4844,411.4375 701.2656,411.75 L701.0938,411.6719 Z " fill="#000000"/><text fill="#000000" font-family="sans-serif" font-size="12" lengthAdjust="spacing" textLength="95" x="719.25" y="420.1543">ZoomCalculator</text><line style="stroke:#A80036;stroke-width:1.5;" x1="625.5" x2="875.5" y1="432" y2="432"/><rect fill="none" height="6" style="stroke:#C82930;stroke-width:1.0;" width="6" x="632.5" y="440"/><text fill="#000000" font-family="sans-serif" font-size="11" lengthAdjust="spacing" textLength="68" x="644.5" y="446.2104">speed: float</text><rect fill="none" height="6" style="stroke:#C82930;stroke-width:1.0;" width="6" x="632.5" y="452.8047"/><text fill="#000000" font-family="sans-serif" font-size="11" lengthAdjust="spacing" textLength="91" x="644.5" y="459.0151">position: float[3]</text><ellipse cx="635.5" cy="485.4141" fill="#84BE84" rx="3" ry="3" style="stroke:#038048;stroke-width:1.0;"/><text fill="#000000" font-family="sans-serif" font-size="11" lengthAdjust="spacing" textLength="226" x="644.5" y="488.6245">processInput(raw_input: unknown) : void</text><line style="stroke:#A80036;stroke-width:1.5;" x1="625.5" x2="710" y1="472.0117" y2="472.0117"/><text fill="#000000" font-family="sans-serif" font-size="11" lengthAdjust="spacing" textLength="81" x="710" y="475.3198">public method</text><line style="stroke:#A80036;stroke-width:1.5;" x1="791" x2="875.5" y1="472.0117" y2="472.0117"/><rect fill="#F24D5C" height="6" style="stroke:#C82930;stroke-width:1.0;" width="6" x="632.5" y="512.0234"/><text fill="#000000" font-family="sans-serif" font-size="11" lengthAdjust="spacing" textLength="221" x="644.5" y="518.2339">calculate(raw_input: unknown) : float[3]</text><rect fill="#F24D5C" height="6" style="stroke:#C82930;stroke-width:1.0;" width="6" x="632.5" y="524.8281"/><text fill="#000000" font-family="sans-serif" font-size="11" lengthAdjust="spacing" textLength="184" x="644.5" y="531.0386">save(position: float[3]) : boolean</text><line style="stroke:#A80036;stroke-width:1.5;" x1="625.5" x2="703.5" y1="501.6211" y2="501.6211"/><text fill="#000000" font-family="sans-serif" font-size="11" lengthAdjust="spacing" textLength="94" x="703.5" y="504.9292">private methods</text><line style="stroke:#A80036;stroke-width:1.5;" x1="797.5" x2="875.5" y1="501.6211" y2="501.6211"/><path d="M920,454.5 L920,463 L884.696,467 L920,471 L920,479.6328 A0,0 0 0 0 920,479.6328 L1167,479.6328 A0,0 0 0 0 1167,479.6328 L1167,464.5 L1157,454.5 L920,454.5 A0,0 0 0 0 920,454.5 " fill="#FBFB77" filter="url(#febrfqekr6dua)" style="stroke:#A80036;stroke-width:1.0;"/><path d="M1157,454.5 L1157,464.5 L1167,464.5 L1157,454.5 " fill="#FBFB77" style="stroke:#A80036;stroke-width:1.0;"/><text fill="#000000" font-family="sans-serif" font-size="13" lengthAdjust="spacing" textLength="226" x="926" y="471.5669">Typ von raw_input noch unbekannt</text><!--MD5=[90447d4191c16dafea1a917a3aa79093]
class ZoomBild--><rect codeLine="85" fill="#FEFECE" filter="url(#febrfqekr6dua)" height="60.8047" id="ZoomBild" style="stroke:#A80036;stroke-width:1.5;" width="154" x="993.5" y="619"/><ellipse cx="1037.3" cy="635" fill="#ADD1B2" rx="11" ry="11" style="stroke:#A80036;stroke-width:1.0;"/><path d="M1039.6438,630.6719 C1038.7063,630.2344 1038.1125,630.0938 1037.2375,630.0938 C1034.6125,630.0938 1032.6125,632.1719 1032.6125,634.8906 L1032.6125,636.0156 C1032.6125,638.5938 1034.7219,640.4844 1037.6125,640.4844 C1038.8313,640.4844 1039.9875,640.1875 1040.7375,639.6406 C1041.3156,639.2344 1041.6438,638.7813 1041.6438,638.3906 C1041.6438,637.9375 1041.2531,637.5469 1040.7844,637.5469 C1040.5656,637.5469 1040.3625,637.625 1040.175,637.8125 C1039.7219,638.2969 1039.7219,638.2969 1039.5344,638.3906 C1039.1125,638.6563 1038.425,638.7813 1037.6594,638.7813 C1035.6125,638.7813 1034.3156,637.6875 1034.3156,635.9844 L1034.3156,634.8906 C1034.3156,633.1094 1035.5656,631.7969 1037.3,631.7969 C1037.8781,631.7969 1038.4875,631.9531 1038.9563,632.2031 C1039.4406,632.4844 1039.6125,632.7031 1039.7063,633.1094 C1039.7688,633.5156 1039.8,633.6406 1039.9406,633.7656 C1040.0813,633.9063 1040.3156,634.0156 1040.5344,634.0156 C1040.8,634.0156 1041.0656,633.875 1041.2375,633.6563 C1041.3469,633.5 1041.3781,633.3125 1041.3781,632.8906 L1041.3781,631.4688 C1041.3781,631.0313 1041.3625,630.9063 1041.2688,630.75 C1041.1125,630.4844 1040.8313,630.3438 1040.5344,630.3438 C1040.2375,630.3438 1040.0344,630.4375 1039.8156,630.75 L1039.6438,630.6719 Z " fill="#000000"/><text fill="#000000" font-family="sans-serif" font-size="12" lengthAdjust="spacing" textLength="58" x="1057.7" y="639.1543">ZoomBild</text><line style="stroke:#A80036;stroke-width:1.5;" x1="994.5" x2="1146.5" y1="651" y2="651"/><line style="stroke:#A80036;stroke-width:1.5;" x1="994.5" x2="1146.5" y1="659" y2="659"/><ellipse cx="1004.5" cy="670" fill="#84BE84" rx="3" ry="3" style="stroke:#038048;stroke-width:1.0;"/><text fill="#000000" font-family="sans-serif" font-size="11" lengthAdjust="spacing" textLength="128" x="1013.5" y="673.2104">move(float[3]): float[3]</text><polygon fill="#FFFFFF" filter="url(#febrfqekr6dua)" points="362.5,440.5,420.5,440.5,427.5,462.7969,434.5,462.7969,434.5,493.0938,362.5,493.0938,362.5,440.5" style="stroke:#000000;stroke-width:1.5;"/><line style="stroke:#000000;stroke-width:1.5;" x1="362.5" x2="427.5" y1="462.7969" y2="462.7969"/><text fill="#000000" font-family="sans-serif" font-size="14" font-weight="bold" lengthAdjust="spacing" textLength="52" x="366.5" y="455.4951">Config</text><polygon fill="#FFFFFF" filter="url(#febrfqekr6dua)" points="282.5,622.5,420.5,622.5,427.5,644.7969,434.5,644.7969,434.5,675.0938,282.5,675.0938,282.5,622.5" style="stroke:#000000;stroke-width:1.5;"/><line style="stroke:#000000;stroke-width:1.5;" x1="282.5" x2="427.5" y1="644.7969" y2="644.7969"/><text fill="#000000" font-family="sans-serif" font-size="14" font-weight="bold" lengthAdjust="spacing" textLength="132" x="286.5" y="637.4951">SpeicherMedium</text><!--MD5=[abea0b42432aea0f9ce66e53feda8644]
entity System--><ellipse cx="1379.5" cy="298" fill="#DA70D5" filter="url(#febrfqekr6dua)" rx="8" ry="8" style="stroke:#A80036;stroke-width:1.5;"/><text fill="#000000" font-family="sans-serif" font-size="14" lengthAdjust="spacing" textLength="54" x="1352.5" y="327.9951">System</text><!--MD5=[fccc419d627b37790932ddb688fb7ad6]
class Tutorial--><rect codeLine="6" fill="#FEFECE" filter="url(#febrfqekr6dua)" height="167.2422" id="Tutorial" style="stroke:#A80036;stroke-width:1.5;" width="236" x="404.5" y="10"/><ellipse cx="450.25" cy="26" fill="#A9DCDF" rx="11" ry="11" style="stroke:#A80036;stroke-width:1.0;"/><path d="M452.3281,27.8125 L452.7188,28.7969 L452.3281,28.7969 C451.875,28.7969 451.7656,28.8125 451.6094,28.9219 C451.3594,29.0781 451.2031,29.3594 451.2031,29.6563 C451.2031,29.9219 451.3438,30.1719 451.5625,30.3281 C451.7031,30.4531 451.9063,30.5 452.3281,30.5 L454.6875,30.5 C455.0469,30.5 455.2656,30.4688 455.4063,30.375 C455.6563,30.2344 455.8125,29.9375 455.8125,29.6563 C455.8125,29.375 455.6719,29.125 455.4531,28.9688 C455.2813,28.8281 455.125,28.7969 454.6563,28.7969 L451.2656,20.5938 L447.5938,20.5938 C447.1406,20.5938 447.0156,20.6094 446.8594,20.7031 C446.6094,20.875 446.4531,21.1563 446.4531,21.4375 C446.4531,21.7188 446.5938,21.9688 446.8125,22.1406 C446.9844,22.25 447.1563,22.2813 447.5938,22.2813 L448.6719,22.2813 L446.0313,28.7969 C445.6094,28.7969 445.4531,28.8125 445.2969,28.9219 C445.0469,29.0781 444.8906,29.3594 444.8906,29.6563 C444.8906,30.2188 445.2656,30.5 446.0156,30.5 L448.2813,30.5 C448.6406,30.5 448.8594,30.4688 448.9844,30.375 C449.25,30.2344 449.3906,29.9375 449.3906,29.6563 C449.3906,29.375 449.2656,29.125 449.0469,28.9531 C448.875,28.8281 448.7344,28.7969 448.2813,28.7969 L447.8906,28.7969 L448.2813,27.8125 L452.3281,27.8125 Z M451.625,26.1094 L448.9531,26.1094 L450.2969,22.8438 L451.625,26.1094 Z " fill="#000000"/><text fill="#000000" font-family="sans-serif" font-size="12" font-style="italic" lengthAdjust="spacing" textLength="45" x="470.75" y="30.1543">Tutorial</text><rect fill="#FFFFFF" height="15.9688" style="stroke:#000000;stroke-width:1.0;stroke-dasharray:2.0,2.0;" width="89" x="554.5" y="7"/><text fill="#000000" font-family="sans-serif" font-size="12" font-style="italic" lengthAdjust="spacing" textLength="87" x="555.5" y="19.1387">t: TutorialType</text><line style="stroke:#A80036;stroke-width:1.5;" x1="405.5" x2="639.5" y1="42" y2="42"/><rect fill="none" height="6" style="stroke:#C82930;stroke-width:1.0;" width="6" x="412.5" y="50"/><text fill="#000000" font-family="sans-serif" font-size="11" lengthAdjust="spacing" textLength="82" x="424.5" y="56.2104">t: TutorialType</text><ellipse cx="415.5" cy="82.6094" fill="#84BE84" rx="3" ry="3" style="stroke:#038048;stroke-width:1.0;"/><text fill="#000000" font-family="sans-serif" font-size="11" lengthAdjust="spacing" textLength="68" x="424.5" y="85.8198">start() : void</text><line style="stroke:#A80036;stroke-width:1.5;" x1="405.5" x2="482" y1="69.207" y2="69.207"/><text fill="#000000" font-family="sans-serif" font-size="11" lengthAdjust="spacing" textLength="81" x="482" y="72.5151">public method</text><line style="stroke:#A80036;stroke-width:1.5;" x1="563" x2="639.5" y1="69.207" y2="69.207"/><rect fill="#F24D5C" height="6" style="stroke:#C82930;stroke-width:1.0;" width="6" x="412.5" y="109.2188"/><text fill="#000000" font-family="sans-serif" font-size="11" lengthAdjust="spacing" textLength="151" x="424.5" y="115.4292">getConfigState() : boolean</text><rect fill="#F24D5C" height="6" style="stroke:#C82930;stroke-width:1.0;" width="6" x="412.5" y="122.0234"/><text fill="#000000" font-family="sans-serif" font-size="11" lengthAdjust="spacing" textLength="210" x="424.5" y="128.2339">setConfigState(state: boolean) : void</text><rect fill="#F24D5C" height="6" style="stroke:#C82930;stroke-width:1.0;" width="6" x="412.5" y="134.8281"/><text fill="#000000" font-family="sans-serif" font-size="11" lengthAdjust="spacing" textLength="94" x="424.5" y="141.0386">show() : boolean</text><line style="stroke:#A80036;stroke-width:1.5;" x1="405.5" x2="475.5" y1="98.8164" y2="98.8164"/><text fill="#000000" font-family="sans-serif" font-size="11" lengthAdjust="spacing" textLength="94" x="475.5" y="102.1245">private methods</text><line style="stroke:#A80036;stroke-width:1.5;" x1="569.5" x2="639.5" y1="98.8164" y2="98.8164"/><rect fill="#F24D5C" height="6" style="stroke:#C82930;stroke-width:1.0;" width="6" x="412.5" y="164.4375"/><text fill="#000000" font-family="sans-serif" font-size="11" font-style="italic" lengthAdjust="spacing" textLength="84" x="424.5" y="170.6479">tutorial() : void</text><line style="stroke:#A80036;stroke-width:1.5;" x1="405.5" x2="473" y1="154.0352" y2="154.0352"/><text fill="#000000" font-family="sans-serif" font-size="11" lengthAdjust="spacing" textLength="99" x="473" y="157.3433">abstract methods</text><line style="stroke:#A80036;stroke-width:1.5;" x1="572" x2="639.5" y1="154.0352" y2="154.0352"/><!--MD5=[b51717a605764d924c74fe29f3a07c77]
class TutorialType--><rect codeLine="18" fill="#FEFECE" filter="url(#febrfqekr6dua)" height="86.4141" id="TutorialType" style="stroke:#A80036;stroke-width:1.5;" width="106" x="683.5" y="49.5"/><ellipse cx="698.5" cy="65.5" fill="#EB937F" rx="11" ry="11" style="stroke:#A80036;stroke-width:1.0;"/><path d="M697.2969,66.375 L698.75,66.375 L698.75,66.4844 C698.75,66.8906 698.7813,67.0469 698.8594,67.2031 C699.0156,67.4531 699.2969,67.6094 699.5938,67.6094 C699.8438,67.6094 700.1094,67.4688 700.2656,67.25 C700.3906,67.0938 700.4219,66.9375 700.4219,66.4844 L700.4219,64.5625 C700.4219,64.4063 700.4219,64.3594 700.4063,64.2031 C700.3438,63.7344 700.0313,63.4219 699.5781,63.4219 C699.3281,63.4219 699.0625,63.5625 698.8906,63.7813 C698.7813,63.9531 698.75,64.1094 698.75,64.5625 L698.75,64.6875 L697.2969,64.6875 L697.2969,62.2813 L701.2813,62.2813 L701.2813,63.1406 C701.2813,63.5469 701.3125,63.7188 701.3906,63.875 C701.5625,64.125 701.8438,64.2813 702.125,64.2813 C702.3906,64.2813 702.6563,64.1406 702.8281,63.9219 C702.9375,63.75 702.9688,63.6094 702.9688,63.1406 L702.9688,60.5938 L695.3438,60.5938 C694.9063,60.5938 694.7813,60.6094 694.625,60.7031 C694.375,60.8594 694.2188,61.1563 694.2188,61.4375 C694.2188,61.7188 694.3594,61.9688 694.5781,62.1406 C694.7344,62.25 694.9219,62.2813 695.3438,62.2813 L695.5938,62.2813 L695.5938,68.7969 L695.3438,68.7969 C694.9375,68.7969 694.7813,68.8125 694.625,68.9219 C694.375,69.0938 694.2188,69.3594 694.2188,69.6563 C694.2188,69.9219 694.3594,70.1719 694.5781,70.3281 C694.7188,70.4531 694.9531,70.5 695.3438,70.5 L703.3438,70.5 L703.3438,67.9219 C703.3438,67.4844 703.3125,67.3438 703.2344,67.1875 C703.0625,66.9375 702.7813,66.7813 702.5,66.7813 C702.2344,66.7813 701.9688,66.8906 701.7969,67.1406 C701.6875,67.2969 701.6563,67.4375 701.6563,67.9219 L701.6563,68.7969 L697.2969,68.7969 L697.2969,66.375 Z " fill="#000000"/><text fill="#000000" font-family="sans-serif" font-size="12" lengthAdjust="spacing" textLength="74" x="712.5" y="69.6543">TutorialType</text><line style="stroke:#A80036;stroke-width:1.5;" x1="684.5" x2="788.5" y1="81.5" y2="81.5"/><text fill="#000000" font-family="sans-serif" font-size="11" lengthAdjust="spacing" textLength="35" x="689.5" y="95.7104">ZOOM</text><text fill="#000000" font-family="sans-serif" font-size="11" lengthAdjust="spacing" textLength="78" x="689.5" y="108.5151">EYETRACKING</text><text fill="#000000" font-family="sans-serif" font-size="11" lengthAdjust="spacing" textLength="79" x="689.5" y="121.3198">CODECHARTS</text><line style="stroke:#A80036;stroke-width:1.5;" x1="684.5" x2="788.5" y1="127.9141" y2="127.9141"/><path d="M6,32 L6,57.1328 A0,0 0 0 0 6,57.1328 L296,57.1328 A0,0 0 0 0 296,57.1328 L296,50 L408.5,82.0117 L296,42 L296,42 L286,32 L6,32 A0,0 0 0 0 6,32 " fill="#FBFB77" filter="url(#febrfqekr6dua)" style="stroke:#A80036;stroke-width:1.0;"/><path d="M286,32 L286,42 L296,42 L286,32 " fill="#FBFB77" style="stroke:#A80036;stroke-width:1.0;"/><text fill="#000000" font-family="sans-serif" font-size="13" lengthAdjust="spacing" textLength="269" x="12" y="49.0669">Startet Tutorial, beinhaltet interne Aufrufe</text><path d="M6,67.1328 L6,107.3984 A0,0 0 0 0 6,107.3984 L296,107.3984 A0,0 0 0 0 296,107.3984 L296,91.2656 L408.5,111.6211 L296,83.2656 L296,77.1328 L286,67.1328 L6,67.1328 A0,0 0 0 0 6,67.1328 " fill="#FBFB77" filter="url(#febrfqekr6dua)" style="stroke:#A80036;stroke-width:1.0;"/><path d="M286,67.1328 L286,77.1328 L296,77.1328 L286,67.1328 " fill="#FBFB77" style="stroke:#A80036;stroke-width:1.0;"/><text fill="#000000" font-family="sans-serif" font-size="13" lengthAdjust="spacing" textLength="269" x="12" y="84.1997">Sendet eine Anfrage an das Config-Modul,</text><text fill="#000000" font-family="sans-serif" font-size="13" lengthAdjust="spacing" textLength="206" x="12" y="99.3325">abhängig vom Typ des Tutorials</text><path d="M6,117.3984 L6,142.5313 A0,0 0 0 0 6,142.5313 L361,142.5313 A0,0 0 0 0 361,142.5313 L361,135.3984 L408.5,166.8398 L361,127.3984 L361,127.3984 L351,117.3984 L6,117.3984 A0,0 0 0 0 6,117.3984 " fill="#FBFB77" filter="url(#febrfqekr6dua)" style="stroke:#A80036;stroke-width:1.0;"/><path d="M351,117.3984 L351,127.3984 L361,127.3984 L351,117.3984 " fill="#FBFB77" style="stroke:#A80036;stroke-width:1.0;"/><text fill="#000000" font-family="sans-serif" font-size="13" lengthAdjust="spacing" textLength="334" x="12" y="134.4653">Beinhaltet eigentliche Implementierung der Tutorials</text><!--MD5=[626b00d2609f42ba755c8afb6d5f2b59]
class Bild--><rect codeLine="44" fill="#FEFECE" filter="url(#febrfqekr6dua)" height="73.6094" id="Bild" style="stroke:#A80036;stroke-width:1.5;" width="147" x="1295" y="430"/><ellipse cx="1353.25" cy="446" fill="#A9DCDF" rx="11" ry="11" style="stroke:#A80036;stroke-width:1.0;"/><path d="M1355.3281,447.8125 L1355.7188,448.7969 L1355.3281,448.7969 C1354.875,448.7969 1354.7656,448.8125 1354.6094,448.9219 C1354.3594,449.0781 1354.2031,449.3594 1354.2031,449.6563 C1354.2031,449.9219 1354.3438,450.1719 1354.5625,450.3281 C1354.7031,450.4531 1354.9063,450.5 1355.3281,450.5 L1357.6875,450.5 C1358.0469,450.5 1358.2656,450.4688 1358.4063,450.375 C1358.6563,450.2344 1358.8125,449.9375 1358.8125,449.6563 C1358.8125,449.375 1358.6719,449.125 1358.4531,448.9688 C1358.2813,448.8281 1358.125,448.7969 1357.6563,448.7969 L1354.2656,440.5938 L1350.5938,440.5938 C1350.1406,440.5938 1350.0156,440.6094 1349.8594,440.7031 C1349.6094,440.875 1349.4531,441.1563 1349.4531,441.4375 C1349.4531,441.7188 1349.5938,441.9688 1349.8125,442.1406 C1349.9844,442.25 1350.1563,442.2813 1350.5938,442.2813 L1351.6719,442.2813 L1349.0313,448.7969 C1348.6094,448.7969 1348.4531,448.8125 1348.2969,448.9219 C1348.0469,449.0781 1347.8906,449.3594 1347.8906,449.6563 C1347.8906,450.2188 1348.2656,450.5 1349.0156,450.5 L1351.2813,450.5 C1351.6406,450.5 1351.8594,450.4688 1351.9844,450.375 C1352.25,450.2344 1352.3906,449.9375 1352.3906,449.6563 C1352.3906,449.375 1352.2656,449.125 1352.0469,448.9531 C1351.875,448.8281 1351.7344,448.7969 1351.2813,448.7969 L1350.8906,448.7969 L1351.2813,447.8125 L1355.3281,447.8125 Z M1354.625,446.1094 L1351.9531,446.1094 L1353.2969,442.8438 L1354.625,446.1094 Z " fill="#000000"/><text fill="#000000" font-family="sans-serif" font-size="12" font-style="italic" lengthAdjust="spacing" textLength="22" x="1373.75" y="450.1543">Bild</text><line style="stroke:#A80036;stroke-width:1.5;" x1="1296" x2="1441" y1="462" y2="462"/><line style="stroke:#A80036;stroke-width:1.5;" x1="1296" x2="1441" y1="470" y2="470"/><ellipse cx="1306" cy="481" fill="#84BE84" rx="3" ry="3" style="stroke:#038048;stroke-width:1.0;"/><text fill="#000000" font-family="sans-serif" font-size="11" lengthAdjust="spacing" textLength="121" x="1315" y="484.2104">load(url: String) : void</text><ellipse cx="1306" cy="493.8047" fill="#84BE84" rx="3" ry="3" style="stroke:#038048;stroke-width:1.0;"/><text fill="#000000" font-family="sans-serif" font-size="11" lengthAdjust="spacing" textLength="72" x="1315" y="497.0151">show() : void</text><!--MD5=[752ada4883e89279aa677b65655ebc35]
link Tutorial$$$LEFT to Tutorial--><!--MD5=[b7b30a6ba3bc0d032df5bb8d6b41e119]
link Tutorial to TutorialType--><path codeLine="37" d="M641.5,52.5 C652.363,52.5 663.409,54.79 673.928,58.274 " fill="none" id="Tutorial-TutorialType" style="stroke:#A80036;stroke-width:1.0;"/><line style="stroke:#A80036;stroke-width:1.0;" x1="673.928" x2="683.421" y1="58.274" y2="61.777"/><!--MD5=[c1258afe1f320a3fd45f72e2b99af1b2]
link Tutorial to System--><path codeLine="38" d="M641.5,136.5 C663.415,136.5 647.833,167.52 666.5,179 C782.582,250.387 1151.14,169.521 1278.5,218 C1319.49,233.601 1357.2,271.973 1372.41,288.832 " fill="none" id="Tutorial-System" style="stroke:#A80036;stroke-width:1.0;"/><!--MD5=[fc4ffdc4bb2ac5a3cd1bd4c856213de4]
link Tutorial to Config--><path codeLine="39" d="M468.299,179.166 C461.642,191.875 455.453,205.058 450.5,218 C420.704,295.858 406.527,394.34 401.172,440.251 " fill="none" id="Tutorial-Config" style="stroke:#A80036;stroke-width:1.0;"/><!--MD5=[91cffcbb8234028742b6ac8b9b57d54f]
reverse link Bild to ZoomBild--><path codeLine="91" d="M1309.34,516.341 C1299.27,523.895 1288.74,531.381 1278.5,538 C1234.24,566.603 1181.77,594.311 1140.6,614.763 " fill="none" id="Bild-backto-ZoomBild" style="stroke:#A80036;stroke-width:1.0;"/><polygon fill="none" points="1305.1,510.771,1325.22,504.124,1313.64,521.867,1305.1,510.771" style="stroke:#A80036;stroke-width:1.0;"/><!--MD5=[74bcaaa80c1f5666ddc668b1a184278c]
reverse link Tutorial to ZoomTutorial--><path codeLine="92" d="M522.5,199.542 C522.5,224.361 522.5,248.839 522.5,267.055 " fill="none" id="Tutorial-backto-ZoomTutorial" style="stroke:#A80036;stroke-width:1.0;"/><polygon fill="none" points="515.5,199.213,522.5,179.213,529.5,199.212,515.5,199.213" style="stroke:#A80036;stroke-width:1.0;"/><!--MD5=[2708804abe4d1091750fa48cfee7ac00]
link ZoomInput to ZoomCalculator--><path codeLine="95" d="M1148.2,328.199 C1142.62,330.642 1136.99,332.955 1131.5,335 C1032.8,371.764 977.699,322.252 902.5,396 C873.776,424.169 917.731,483 877.5,483 " fill="none" id="ZoomInput-ZoomCalculator" style="stroke:#A80036;stroke-width:1.0;"/><!--MD5=[d14beb75e4877be6f65874a887b5bf30]
link ZoomCalculator to ZoomBild--><path codeLine="96" d="M877.5,483 C904.351,483 889.291,514.622 902.5,538 C937.249,599.501 921.861,669 992.5,669 " fill="none" id="ZoomCalculator-ZoomBild" style="stroke:#A80036;stroke-width:1.0;"/><polygon fill="#000000" points="928.1294,580.8192,925.8725,571.5803,920.873,574.6714,928.1294,580.8192" style="stroke:#000000;stroke-width:1.0;"/><text fill="#000000" font-family="sans-serif" font-size="13" lengthAdjust="spacing" textLength="44" x="934.5" y="581.0669">moves</text><!--MD5=[ab94cbc2495622a03fec4b24390f5618]
link ZoomCalculator to SpeicherMedium--><path codeLine="99" d="M623.5,524 C531.562,524 437.158,585.987 389.735,622.3071 " fill="none" id="ZoomCalculator-SpeicherMedium" style="stroke:#A80036;stroke-width:1.0;"/><polygon fill="#000000" points="466.891,578.5047,476.3681,577.7074,474.0895,572.2892,466.891,578.5047" style="stroke:#000000;stroke-width:1.0;"/><text fill="#000000" font-family="sans-serif" font-size="13" lengthAdjust="spacing" textLength="73" x="480.5" y="581.0669">saves Data</text><!--MD5=[b5bf2730b290792fe768f0624d25067c]
link ZoomCalculator to Config--><path codeLine="100" d="M623.5,442 C567.88,442 553.728,441.409 498.5,448 C480.799,450.113 461.511,453.552 444.701,456.928 " fill="none" id="ZoomCalculator-Config" style="stroke:#A80036;stroke-width:1.0;"/><line style="stroke:#A80036;stroke-width:1.0;" x1="444.701" x2="434.591" y1="456.928" y2="459.009"/><polygon fill="#000000" points="508.4827,434.1504,499.2244,431.9742,499.7135,437.8317,508.4827,434.1504" style="stroke:#000000;stroke-width:1.0;"/><text fill="#000000" font-family="sans-serif" font-size="13" lengthAdjust="spacing" textLength="39" x="512.5" y="439.0669">speed</text><!--MD5=[917d2dfaeb525f74b5c3c05af4a701f0]
link ZoomInput to System--><path codeLine="101" d="M1262.96,298 C1302.16,298 1350.44,298 1370.3,298 " fill="none" id="ZoomInput-System" style="stroke:#A80036;stroke-width:1.0;"/><polygon fill="#000000" points="1290,286.5664,1280.9549,283.6275,1280.9549,289.5053,1290,286.5664" style="stroke:#000000;stroke-width:1.0;"/><text fill="#000000" font-family="sans-serif" font-size="13" lengthAdjust="spacing" textLength="58" x="1294" y="291.0669">listens to</text><!--MD5=[f7743e5684dec178821062795e3f2e33]
@startuml
' skinparam backgroundColor transparent
() System #DA70D5
top to bottom direction

' - - - TUTORIAL - - -
abstract Tutorial<t: TutorialType> {
  - t: TutorialType
  __public method__
  + start() : void
  __private methods__
  - getConfigState() : boolean
  - setConfigState(state: boolean) : void
  - show() : boolean
  __abstract methods__
  - {abstract} tutorial() : void
}

enum TutorialType {
  ZOOM
  EYETRACKING
  CODECHARTS
}

' Notes
note left of Tutorial::start
    Startet Tutorial, beinhaltet interne Aufrufe
end note
note left of Tutorial::getConfigState
    Sendet eine Anfrage an das Config-Modul,
    abhängig vom Typ des Tutorials
end note
note left of Tutorial::tutorial
    Beinhaltet eigentliche Implementierung der Tutorials
end note

' Interaktionen
Tutorial::t -r- TutorialType
Tutorial::show - - System
Tutorial - - Config


' - - - BILD - - -

abstract Bild {
  + load(url: String) : void
  + show() : void
}

' === ZOOM MAPS ===
package ZoomMaps {

    ' Zoom Input
    class ZoomInput {
        - onClick() : void
        - onScroll() : void
    }

    ' Notiz
    note left of ZoomInput
        Kann sich noch ändern, je nachdem wie Schnittstelle zum System aussieht
    end note

    ' Zoom Tutorial 
    class ZoomTutorial {
        - tutorial() : void
    }
  
    ' Zoom Calculator
    class ZoomCalculator {
        - speed: float
        - position: float[3]
        __public method__
        + processInput(raw_input: unknown) : void
        __private methods__
        - calculate(raw_input: unknown) : float[3]
        - save(position: float[3]) : boolean
    }

    ' Notiz
    note right of ZoomCalculator
        Typ von raw_input noch unbekannt
    end note

    ' Zoom Bild
    class ZoomBild {
        + move(float[3]): float[3]
    }


    ' Vererbungen
    Bild <|- - ZoomBild
    Tutorial <|- - ZoomTutorial

    ' Interaktionen
    ZoomInput - - ZoomCalculator::processInput
    ZoomCalculator::processInput  - - ZoomBild::move : > moves

    ' Andere Module
    ZoomCalculator::save - - SpeicherMedium : > saves Data
    ZoomCalculator::speed -r- Config : < speed
    ZoomInput -r- System : > listens to
  
}

' Blackboxen / Andere Module
package Config {}

package SpeicherMedium {}
@enduml

@startuml
() System #DA70D5
top to bottom direction

abstract Tutorial<t: TutorialType> {
  - t: TutorialType
  __public method__
  + start() : void
  __private methods__
  - getConfigState() : boolean
  - setConfigState(state: boolean) : void
  - show() : boolean
  __abstract methods__
  - {abstract} tutorial() : void
}

enum TutorialType {
  ZOOM
  EYETRACKING
  CODECHARTS
}

note left of Tutorial::start
    Startet Tutorial, beinhaltet interne Aufrufe
end note
note left of Tutorial::getConfigState
    Sendet eine Anfrage an das Config-Modul,
    abhängig vom Typ des Tutorials
end note
note left of Tutorial::tutorial
    Beinhaltet eigentliche Implementierung der Tutorials
end note

Tutorial::t -r- TutorialType
Tutorial::show - - System
Tutorial - - Config



abstract Bild {
  + load(url: String) : void
  + show() : void
}

package ZoomMaps {

    class ZoomInput {
        - onClick() : void
        - onScroll() : void
    }

    note left of ZoomInput
        Kann sich noch ändern, je nachdem wie Schnittstelle zum System aussieht
    end note

    class ZoomTutorial {
        - tutorial() : void
    }
  
    class ZoomCalculator {
        - speed: float
        - position: float[3]
        __public method__
        + processInput(raw_input: unknown) : void
        __private methods__
        - calculate(raw_input: unknown) : float[3]
        - save(position: float[3]) : boolean
    }

    note right of ZoomCalculator
        Typ von raw_input noch unbekannt
    end note

    class ZoomBild {
        + move(float[3]): float[3]
    }


    Bild <|- - ZoomBild
    Tutorial <|- - ZoomTutorial

    ZoomInput - - ZoomCalculator::processInput
    ZoomCalculator::processInput  - - ZoomBild::move : > moves

    ZoomCalculator::save - - SpeicherMedium : > saves Data
    ZoomCalculator::speed -r- Config : < speed
    ZoomInput -r- System : > listens to
  
}

package Config {}

package SpeicherMedium {}
@enduml

PlantUML version 1.2021.13beta8(Unknown compile time)
(GPL source distribution)
Java Runtime: Java(TM) SE Runtime Environment
JVM: Java HotSpot(TM) 64-Bit Server VM
Default Encoding: UTF-8
Language: en
Country: US
--></g></svg>