<?xml version="1.0" encoding="UTF-8" standalone="no"?><svg xmlns="http://www.w3.org/2000/svg" xmlns:xlink="http://www.w3.org/1999/xlink" contentScriptType="application/ecmascript" contentStyleType="text/css" height="894px" preserveAspectRatio="none" style="width:689px;height:894px;background:#FFFFFF;" version="1.1" viewBox="0 0 689 894" width="689px" zoomAndPan="magnify"><defs><filter height="300%" id="f16loof6fmds7t" width="300%" x="-1" y="-1"><feGaussianBlur result="blurOut" stdDeviation="2.0"/><feColorMatrix in="blurOut" result="blurOut2" type="matrix" values="0 0 0 0 0 0 0 0 0 0 0 0 0 0 0 0 0 0 .4 0"/><feOffset dx="4.0" dy="4.0" in="blurOut2" result="blurOut3"/><feBlend in="SourceGraphic" in2="blurOut3" mode="normal"/></filter></defs><g><!--MD5=[a55135535b5c544b99c33b17428c3b14]
cluster Util--><polygon fill="#FFFFFF" filter="url(#f16loof6fmds7t)" points="16,6,51,6,58,28.2969,469,28.2969,469,371,16,371,16,6" style="stroke:#000000;stroke-width:1.5;"/><line style="stroke:#000000;stroke-width:1.5;" x1="16" x2="58" y1="28.2969" y2="28.2969"/><text fill="#000000" font-family="sans-serif" font-size="14" font-weight="bold" lengthAdjust="spacing" textLength="29" x="20" y="20.9951">Util</text><!--MD5=[7d78d958a1816327b68dab5e38143fdd]
cluster ZoomMaps--><polygon fill="#FFFFFF" filter="url(#f16loof6fmds7t)" points="138,420,233,420,240,442.2969,672,442.2969,672,772,138,772,138,420" style="stroke:#000000;stroke-width:1.5;"/><line style="stroke:#000000;stroke-width:1.5;" x1="138" x2="240" y1="442.2969" y2="442.2969"/><text fill="#000000" font-family="sans-serif" font-size="14" font-weight="bold" lengthAdjust="spacing" textLength="89" x="142" y="434.9951">ZoomMaps</text><!--MD5=[fccc419d627b37790932ddb688fb7ad6]
class Tutorial--><rect codeLine="7" fill="#FEFECE" filter="url(#f16loof6fmds7t)" height="167.2422" id="Tutorial" style="stroke:#A80036;stroke-width:1.5;" width="236" x="92" y="188"/><ellipse cx="148.25" cy="204" fill="#A9DCDF" rx="11" ry="11" style="stroke:#A80036;stroke-width:1.0;"/><path d="M150.3281,205.8125 L150.7188,206.7969 L150.3281,206.7969 C149.875,206.7969 149.7656,206.8125 149.6094,206.9219 C149.3594,207.0781 149.2031,207.3594 149.2031,207.6563 C149.2031,207.9219 149.3438,208.1719 149.5625,208.3281 C149.7031,208.4531 149.9063,208.5 150.3281,208.5 L152.6875,208.5 C153.0469,208.5 153.2656,208.4688 153.4063,208.375 C153.6563,208.2344 153.8125,207.9375 153.8125,207.6563 C153.8125,207.375 153.6719,207.125 153.4531,206.9688 C153.2813,206.8281 153.125,206.7969 152.6563,206.7969 L149.2656,198.5938 L145.5938,198.5938 C145.1406,198.5938 145.0156,198.6094 144.8594,198.7031 C144.6094,198.875 144.4531,199.1563 144.4531,199.4375 C144.4531,199.7188 144.5938,199.9688 144.8125,200.1406 C144.9844,200.25 145.1563,200.2813 145.5938,200.2813 L146.6719,200.2813 L144.0313,206.7969 C143.6094,206.7969 143.4531,206.8125 143.2969,206.9219 C143.0469,207.0781 142.8906,207.3594 142.8906,207.6563 C142.8906,208.2188 143.2656,208.5 144.0156,208.5 L146.2813,208.5 C146.6406,208.5 146.8594,208.4688 146.9844,208.375 C147.25,208.2344 147.3906,207.9375 147.3906,207.6563 C147.3906,207.375 147.2656,207.125 147.0469,206.9531 C146.875,206.8281 146.7344,206.7969 146.2813,206.7969 L145.8906,206.7969 L146.2813,205.8125 L150.3281,205.8125 Z M149.625,204.1094 L146.9531,204.1094 L148.2969,200.8438 L149.625,204.1094 Z " fill="#000000"/><text fill="#000000" font-family="sans-serif" font-size="12" font-style="italic" lengthAdjust="spacing" textLength="45" x="168.75" y="208.1543">Tutorial</text><rect fill="#FFFFFF" height="15.9688" style="stroke:#000000;stroke-width:1.0;stroke-dasharray:2.0,2.0;" width="68" x="263" y="185"/><text fill="#000000" font-family="sans-serif" font-size="12" font-style="italic" lengthAdjust="spacing" textLength="66" x="264" y="197.1387">t: ToolType</text><line style="stroke:#A80036;stroke-width:1.5;" x1="93" x2="327" y1="220" y2="220"/><rect fill="none" height="6" style="stroke:#C82930;stroke-width:1.0;" width="6" x="100" y="228"/><text fill="#000000" font-family="sans-serif" font-size="11" lengthAdjust="spacing" textLength="64" x="112" y="234.2104">t: ToolType</text><ellipse cx="103" cy="260.6094" fill="#84BE84" rx="3" ry="3" style="stroke:#038048;stroke-width:1.0;"/><text fill="#000000" font-family="sans-serif" font-size="11" lengthAdjust="spacing" textLength="68" x="112" y="263.8198">start() : void</text><line style="stroke:#A80036;stroke-width:1.5;" x1="93" x2="169.5" y1="247.207" y2="247.207"/><text fill="#000000" font-family="sans-serif" font-size="11" lengthAdjust="spacing" textLength="81" x="169.5" y="250.5151">public method</text><line style="stroke:#A80036;stroke-width:1.5;" x1="250.5" x2="327" y1="247.207" y2="247.207"/><rect fill="#F24D5C" height="6" style="stroke:#C82930;stroke-width:1.0;" width="6" x="100" y="287.2188"/><text fill="#000000" font-family="sans-serif" font-size="11" lengthAdjust="spacing" textLength="151" x="112" y="293.4292">getConfigState() : boolean</text><rect fill="#F24D5C" height="6" style="stroke:#C82930;stroke-width:1.0;" width="6" x="100" y="300.0234"/><text fill="#000000" font-family="sans-serif" font-size="11" lengthAdjust="spacing" textLength="210" x="112" y="306.2339">setConfigState(state: boolean) : void</text><rect fill="#F24D5C" height="6" style="stroke:#C82930;stroke-width:1.0;" width="6" x="100" y="312.8281"/><text fill="#000000" font-family="sans-serif" font-size="11" lengthAdjust="spacing" textLength="94" x="112" y="319.0386">show() : boolean</text><line style="stroke:#A80036;stroke-width:1.5;" x1="93" x2="163" y1="276.8164" y2="276.8164"/><text fill="#000000" font-family="sans-serif" font-size="11" lengthAdjust="spacing" textLength="94" x="163" y="280.1245">private methods</text><line style="stroke:#A80036;stroke-width:1.5;" x1="257" x2="327" y1="276.8164" y2="276.8164"/><rect fill="#F24D5C" height="6" style="stroke:#C82930;stroke-width:1.0;" width="6" x="100" y="342.4375"/><text fill="#000000" font-family="sans-serif" font-size="11" font-style="italic" lengthAdjust="spacing" textLength="84" x="112" y="348.6479">tutorial() : void</text><line style="stroke:#A80036;stroke-width:1.5;" x1="93" x2="160.5" y1="332.0352" y2="332.0352"/><text fill="#000000" font-family="sans-serif" font-size="11" lengthAdjust="spacing" textLength="99" x="160.5" y="335.3433">abstract methods</text><line style="stroke:#A80036;stroke-width:1.5;" x1="259.5" x2="327" y1="332.0352" y2="332.0352"/><!--MD5=[5c39798b83ace9e75333b1274a725e6c]
class ToolType--><rect codeLine="19" fill="#FEFECE" filter="url(#f16loof6fmds7t)" height="86.4141" id="ToolType" style="stroke:#A80036;stroke-width:1.5;" width="91" x="179.5" y="41"/><ellipse cx="195.85" cy="57" fill="#EB937F" rx="11" ry="11" style="stroke:#A80036;stroke-width:1.0;"/><path d="M194.6469,57.875 L196.1,57.875 L196.1,57.9844 C196.1,58.3906 196.1313,58.5469 196.2094,58.7031 C196.3656,58.9531 196.6469,59.1094 196.9438,59.1094 C197.1938,59.1094 197.4594,58.9688 197.6156,58.75 C197.7406,58.5938 197.7719,58.4375 197.7719,57.9844 L197.7719,56.0625 C197.7719,55.9063 197.7719,55.8594 197.7563,55.7031 C197.6938,55.2344 197.3813,54.9219 196.9281,54.9219 C196.6781,54.9219 196.4125,55.0625 196.2406,55.2813 C196.1313,55.4531 196.1,55.6094 196.1,56.0625 L196.1,56.1875 L194.6469,56.1875 L194.6469,53.7813 L198.6313,53.7813 L198.6313,54.6406 C198.6313,55.0469 198.6625,55.2188 198.7406,55.375 C198.9125,55.625 199.1938,55.7813 199.475,55.7813 C199.7406,55.7813 200.0063,55.6406 200.1781,55.4219 C200.2875,55.25 200.3188,55.1094 200.3188,54.6406 L200.3188,52.0938 L192.6938,52.0938 C192.2563,52.0938 192.1313,52.1094 191.975,52.2031 C191.725,52.3594 191.5688,52.6563 191.5688,52.9375 C191.5688,53.2188 191.7094,53.4688 191.9281,53.6406 C192.0844,53.75 192.2719,53.7813 192.6938,53.7813 L192.9438,53.7813 L192.9438,60.2969 L192.6938,60.2969 C192.2875,60.2969 192.1313,60.3125 191.975,60.4219 C191.725,60.5938 191.5688,60.8594 191.5688,61.1563 C191.5688,61.4219 191.7094,61.6719 191.9281,61.8281 C192.0688,61.9531 192.3031,62 192.6938,62 L200.6938,62 L200.6938,59.4219 C200.6938,58.9844 200.6625,58.8438 200.5844,58.6875 C200.4125,58.4375 200.1313,58.2813 199.85,58.2813 C199.5844,58.2813 199.3188,58.3906 199.1469,58.6406 C199.0375,58.7969 199.0063,58.9375 199.0063,59.4219 L199.0063,60.2969 L194.6469,60.2969 L194.6469,57.875 Z " fill="#000000"/><text fill="#000000" font-family="sans-serif" font-size="12" lengthAdjust="spacing" textLength="56" x="210.15" y="61.1543">ToolType</text><line style="stroke:#A80036;stroke-width:1.5;" x1="180.5" x2="269.5" y1="73" y2="73"/><text fill="#000000" font-family="sans-serif" font-size="11" lengthAdjust="spacing" textLength="35" x="185.5" y="87.2104">ZOOM</text><text fill="#000000" font-family="sans-serif" font-size="11" lengthAdjust="spacing" textLength="78" x="185.5" y="100.0151">EYETRACKING</text><text fill="#000000" font-family="sans-serif" font-size="11" lengthAdjust="spacing" textLength="79" x="185.5" y="112.8198">CODECHARTS</text><line style="stroke:#A80036;stroke-width:1.5;" x1="180.5" x2="269.5" y1="119.4141" y2="119.4141"/><!--MD5=[626b00d2609f42ba755c8afb6d5f2b59]
class Bild--><rect codeLine="32" fill="#FEFECE" filter="url(#f16loof6fmds7t)" height="73.6094" id="Bild" style="stroke:#A80036;stroke-width:1.5;" width="147" x="305.5" y="47"/><ellipse cx="363.75" cy="63" fill="#A9DCDF" rx="11" ry="11" style="stroke:#A80036;stroke-width:1.0;"/><path d="M365.8281,64.8125 L366.2188,65.7969 L365.8281,65.7969 C365.375,65.7969 365.2656,65.8125 365.1094,65.9219 C364.8594,66.0781 364.7031,66.3594 364.7031,66.6563 C364.7031,66.9219 364.8438,67.1719 365.0625,67.3281 C365.2031,67.4531 365.4063,67.5 365.8281,67.5 L368.1875,67.5 C368.5469,67.5 368.7656,67.4688 368.9063,67.375 C369.1563,67.2344 369.3125,66.9375 369.3125,66.6563 C369.3125,66.375 369.1719,66.125 368.9531,65.9688 C368.7813,65.8281 368.625,65.7969 368.1563,65.7969 L364.7656,57.5938 L361.0938,57.5938 C360.6406,57.5938 360.5156,57.6094 360.3594,57.7031 C360.1094,57.875 359.9531,58.1563 359.9531,58.4375 C359.9531,58.7188 360.0938,58.9688 360.3125,59.1406 C360.4844,59.25 360.6563,59.2813 361.0938,59.2813 L362.1719,59.2813 L359.5313,65.7969 C359.1094,65.7969 358.9531,65.8125 358.7969,65.9219 C358.5469,66.0781 358.3906,66.3594 358.3906,66.6563 C358.3906,67.2188 358.7656,67.5 359.5156,67.5 L361.7813,67.5 C362.1406,67.5 362.3594,67.4688 362.4844,67.375 C362.75,67.2344 362.8906,66.9375 362.8906,66.6563 C362.8906,66.375 362.7656,66.125 362.5469,65.9531 C362.375,65.8281 362.2344,65.7969 361.7813,65.7969 L361.3906,65.7969 L361.7813,64.8125 L365.8281,64.8125 Z M365.125,63.1094 L362.4531,63.1094 L363.7969,59.8438 L365.125,63.1094 Z " fill="#000000"/><text fill="#000000" font-family="sans-serif" font-size="12" font-style="italic" lengthAdjust="spacing" textLength="22" x="384.25" y="67.1543">Bild</text><line style="stroke:#A80036;stroke-width:1.5;" x1="306.5" x2="451.5" y1="79" y2="79"/><line style="stroke:#A80036;stroke-width:1.5;" x1="306.5" x2="451.5" y1="87" y2="87"/><ellipse cx="316.5" cy="98" fill="#84BE84" rx="3" ry="3" style="stroke:#038048;stroke-width:1.0;"/><text fill="#000000" font-family="sans-serif" font-size="11" lengthAdjust="spacing" textLength="121" x="325.5" y="101.2104">load(url: String) : void</text><ellipse cx="316.5" cy="110.8047" fill="#84BE84" rx="3" ry="3" style="stroke:#038048;stroke-width:1.0;"/><text fill="#000000" font-family="sans-serif" font-size="11" lengthAdjust="spacing" textLength="72" x="325.5" y="114.0151">show() : void</text><!--MD5=[60c9ed31c535bee25c55ce21b5b01399]
class Data--><rect codeLine="37" fill="#FEFECE" filter="url(#f16loof6fmds7t)" height="86.4141" id="Data" style="stroke:#A80036;stroke-width:1.5;" width="112" x="32" y="41"/><ellipse cx="70.85" cy="57" fill="#ADD1B2" rx="11" ry="11" style="stroke:#A80036;stroke-width:1.0;"/><path d="M73.1938,52.6719 C72.2563,52.2344 71.6625,52.0938 70.7875,52.0938 C68.1625,52.0938 66.1625,54.1719 66.1625,56.8906 L66.1625,58.0156 C66.1625,60.5938 68.2719,62.4844 71.1625,62.4844 C72.3813,62.4844 73.5375,62.1875 74.2875,61.6406 C74.8656,61.2344 75.1938,60.7813 75.1938,60.3906 C75.1938,59.9375 74.8031,59.5469 74.3344,59.5469 C74.1156,59.5469 73.9125,59.625 73.725,59.8125 C73.2719,60.2969 73.2719,60.2969 73.0844,60.3906 C72.6625,60.6563 71.975,60.7813 71.2094,60.7813 C69.1625,60.7813 67.8656,59.6875 67.8656,57.9844 L67.8656,56.8906 C67.8656,55.1094 69.1156,53.7969 70.85,53.7969 C71.4281,53.7969 72.0375,53.9531 72.5063,54.2031 C72.9906,54.4844 73.1625,54.7031 73.2563,55.1094 C73.3188,55.5156 73.35,55.6406 73.4906,55.7656 C73.6313,55.9063 73.8656,56.0156 74.0844,56.0156 C74.35,56.0156 74.6156,55.875 74.7875,55.6563 C74.8969,55.5 74.9281,55.3125 74.9281,54.8906 L74.9281,53.4688 C74.9281,53.0313 74.9125,52.9063 74.8188,52.75 C74.6625,52.4844 74.3813,52.3438 74.0844,52.3438 C73.7875,52.3438 73.5844,52.4375 73.3656,52.75 L73.1938,52.6719 Z " fill="#000000"/><text fill="#000000" font-family="sans-serif" font-size="12" lengthAdjust="spacing" textLength="27" x="90.15" y="61.1543">Data</text><line style="stroke:#A80036;stroke-width:1.5;" x1="33" x2="143" y1="73" y2="73"/><ellipse cx="43" cy="84" rx="3" ry="3" style="stroke:#038048;stroke-width:1.0;fill:none;"/><text fill="#000000" font-family="sans-serif" font-size="11" lengthAdjust="spacing" textLength="86" x="52" y="87.2104">type: ToolType</text><ellipse cx="43" cy="96.8047" rx="3" ry="3" style="stroke:#038048;stroke-width:1.0;fill:none;"/><text fill="#000000" font-family="sans-serif" font-size="11" lengthAdjust="spacing" textLength="82" x="52" y="100.0151">data: unknown</text><ellipse cx="43" cy="109.6094" rx="3" ry="3" style="stroke:#038048;stroke-width:1.0;fill:none;"/><text fill="#000000" font-family="sans-serif" font-size="11" lengthAdjust="spacing" textLength="71" x="52" y="112.8198">config_id: int</text><line style="stroke:#A80036;stroke-width:1.5;" x1="33" x2="143" y1="119.4141" y2="119.4141"/><!--MD5=[9767bd966f4d33191914ccb96558e57c]
class ZoomInput--><rect codeLine="50" fill="#FEFECE" filter="url(#f16loof6fmds7t)" height="73.6094" id="ZoomInput" style="stroke:#A80036;stroke-width:1.5;" width="114" x="542" y="455"/><ellipse cx="564.65" cy="471" fill="#ADD1B2" rx="11" ry="11" style="stroke:#A80036;stroke-width:1.0;"/><path d="M566.9938,466.6719 C566.0563,466.2344 565.4625,466.0938 564.5875,466.0938 C561.9625,466.0938 559.9625,468.1719 559.9625,470.8906 L559.9625,472.0156 C559.9625,474.5938 562.0719,476.4844 564.9625,476.4844 C566.1813,476.4844 567.3375,476.1875 568.0875,475.6406 C568.6656,475.2344 568.9938,474.7813 568.9938,474.3906 C568.9938,473.9375 568.6031,473.5469 568.1344,473.5469 C567.9156,473.5469 567.7125,473.625 567.525,473.8125 C567.0719,474.2969 567.0719,474.2969 566.8844,474.3906 C566.4625,474.6563 565.775,474.7813 565.0094,474.7813 C562.9625,474.7813 561.6656,473.6875 561.6656,471.9844 L561.6656,470.8906 C561.6656,469.1094 562.9156,467.7969 564.65,467.7969 C565.2281,467.7969 565.8375,467.9531 566.3063,468.2031 C566.7906,468.4844 566.9625,468.7031 567.0563,469.1094 C567.1188,469.5156 567.15,469.6406 567.2906,469.7656 C567.4313,469.9063 567.6656,470.0156 567.8844,470.0156 C568.15,470.0156 568.4156,469.875 568.5875,469.6563 C568.6969,469.5 568.7281,469.3125 568.7281,468.8906 L568.7281,467.4688 C568.7281,467.0313 568.7125,466.9063 568.6188,466.75 C568.4625,466.4844 568.1813,466.3438 567.8844,466.3438 C567.5875,466.3438 567.3844,466.4375 567.1656,466.75 L566.9938,466.6719 Z " fill="#000000"/><text fill="#000000" font-family="sans-serif" font-size="12" lengthAdjust="spacing" textLength="65" x="580.35" y="475.1543">ZoomInput</text><line style="stroke:#A80036;stroke-width:1.5;" x1="543" x2="655" y1="487" y2="487"/><line style="stroke:#A80036;stroke-width:1.5;" x1="543" x2="655" y1="495" y2="495"/><rect fill="#F24D5C" height="6" style="stroke:#C82930;stroke-width:1.0;" width="6" x="550" y="503"/><text fill="#000000" font-family="sans-serif" font-size="11" lengthAdjust="spacing" textLength="83" x="562" y="509.2104">onClick() : void</text><rect fill="#F24D5C" height="6" style="stroke:#C82930;stroke-width:1.0;" width="6" x="550" y="515.8047"/><text fill="#000000" font-family="sans-serif" font-size="11" lengthAdjust="spacing" textLength="88" x="562" y="522.0151">onScroll() : void</text><!--MD5=[e6f9a0eef67c9f7cee45e688f45a88fd]
class ZoomTutorial--><rect codeLine="56" fill="#FEFECE" filter="url(#f16loof6fmds7t)" height="60.8047" id="ZoomTutorial" style="stroke:#A80036;stroke-width:1.5;" width="112" x="154" y="461.5"/><ellipse cx="169" cy="477.5" fill="#ADD1B2" rx="11" ry="11" style="stroke:#A80036;stroke-width:1.0;"/><path d="M171.3438,473.1719 C170.4063,472.7344 169.8125,472.5938 168.9375,472.5938 C166.3125,472.5938 164.3125,474.6719 164.3125,477.3906 L164.3125,478.5156 C164.3125,481.0938 166.4219,482.9844 169.3125,482.9844 C170.5313,482.9844 171.6875,482.6875 172.4375,482.1406 C173.0156,481.7344 173.3438,481.2813 173.3438,480.8906 C173.3438,480.4375 172.9531,480.0469 172.4844,480.0469 C172.2656,480.0469 172.0625,480.125 171.875,480.3125 C171.4219,480.7969 171.4219,480.7969 171.2344,480.8906 C170.8125,481.1563 170.125,481.2813 169.3594,481.2813 C167.3125,481.2813 166.0156,480.1875 166.0156,478.4844 L166.0156,477.3906 C166.0156,475.6094 167.2656,474.2969 169,474.2969 C169.5781,474.2969 170.1875,474.4531 170.6563,474.7031 C171.1406,474.9844 171.3125,475.2031 171.4063,475.6094 C171.4688,476.0156 171.5,476.1406 171.6406,476.2656 C171.7813,476.4063 172.0156,476.5156 172.2344,476.5156 C172.5,476.5156 172.7656,476.375 172.9375,476.1563 C173.0469,476 173.0781,475.8125 173.0781,475.3906 L173.0781,473.9688 C173.0781,473.5313 173.0625,473.4063 172.9688,473.25 C172.8125,472.9844 172.5313,472.8438 172.2344,472.8438 C171.9375,472.8438 171.7344,472.9375 171.5156,473.25 L171.3438,473.1719 Z " fill="#000000"/><text fill="#000000" font-family="sans-serif" font-size="12" lengthAdjust="spacing" textLength="80" x="183" y="481.6543">ZoomTutorial</text><line style="stroke:#A80036;stroke-width:1.5;" x1="155" x2="265" y1="493.5" y2="493.5"/><line style="stroke:#A80036;stroke-width:1.5;" x1="155" x2="265" y1="501.5" y2="501.5"/><rect fill="#F24D5C" height="6" style="stroke:#C82930;stroke-width:1.0;" width="6" x="162" y="509.5"/><text fill="#000000" font-family="sans-serif" font-size="11" lengthAdjust="spacing" textLength="82" x="174" y="515.7104">tutorial() : void</text><!--MD5=[72b9880496439479a2cac04af8a355bc]
class ZoomCalculator--><rect codeLine="61" fill="#FEFECE" filter="url(#f16loof6fmds7t)" height="150.4375" id="ZoomCalculator" style="stroke:#A80036;stroke-width:1.5;" width="252" x="278" y="606"/><ellipse cx="352.25" cy="622" fill="#ADD1B2" rx="11" ry="11" style="stroke:#A80036;stroke-width:1.0;"/><path d="M354.5938,617.6719 C353.6563,617.2344 353.0625,617.0938 352.1875,617.0938 C349.5625,617.0938 347.5625,619.1719 347.5625,621.8906 L347.5625,623.0156 C347.5625,625.5938 349.6719,627.4844 352.5625,627.4844 C353.7813,627.4844 354.9375,627.1875 355.6875,626.6406 C356.2656,626.2344 356.5938,625.7813 356.5938,625.3906 C356.5938,624.9375 356.2031,624.5469 355.7344,624.5469 C355.5156,624.5469 355.3125,624.625 355.125,624.8125 C354.6719,625.2969 354.6719,625.2969 354.4844,625.3906 C354.0625,625.6563 353.375,625.7813 352.6094,625.7813 C350.5625,625.7813 349.2656,624.6875 349.2656,622.9844 L349.2656,621.8906 C349.2656,620.1094 350.5156,618.7969 352.25,618.7969 C352.8281,618.7969 353.4375,618.9531 353.9063,619.2031 C354.3906,619.4844 354.5625,619.7031 354.6563,620.1094 C354.7188,620.5156 354.75,620.6406 354.8906,620.7656 C355.0313,620.9063 355.2656,621.0156 355.4844,621.0156 C355.75,621.0156 356.0156,620.875 356.1875,620.6563 C356.2969,620.5 356.3281,620.3125 356.3281,619.8906 L356.3281,618.4688 C356.3281,618.0313 356.3125,617.9063 356.2188,617.75 C356.0625,617.4844 355.7813,617.3438 355.4844,617.3438 C355.1875,617.3438 354.9844,617.4375 354.7656,617.75 L354.5938,617.6719 Z " fill="#000000"/><text fill="#000000" font-family="sans-serif" font-size="12" lengthAdjust="spacing" textLength="95" x="372.75" y="626.1543">ZoomCalculator</text><line style="stroke:#A80036;stroke-width:1.5;" x1="279" x2="529" y1="638" y2="638"/><rect fill="none" height="6" style="stroke:#C82930;stroke-width:1.0;" width="6" x="286" y="646"/><text fill="#000000" font-family="sans-serif" font-size="11" lengthAdjust="spacing" textLength="68" x="298" y="652.2104">speed: float</text><rect fill="none" height="6" style="stroke:#C82930;stroke-width:1.0;" width="6" x="286" y="658.8047"/><text fill="#000000" font-family="sans-serif" font-size="11" lengthAdjust="spacing" textLength="91" x="298" y="665.0151">position: float[3]</text><rect fill="none" height="6" style="stroke:#C82930;stroke-width:1.0;" width="6" x="286" y="671.6094"/><text fill="#000000" font-family="sans-serif" font-size="11" lengthAdjust="spacing" textLength="59" x="298" y="677.8198">data: Data</text><ellipse cx="289" cy="704.2188" fill="#84BE84" rx="3" ry="3" style="stroke:#038048;stroke-width:1.0;"/><text fill="#000000" font-family="sans-serif" font-size="11" lengthAdjust="spacing" textLength="226" x="298" y="707.4292">processInput(raw_input: unknown) : void</text><ellipse cx="289" cy="717.0234" fill="#84BE84" rx="3" ry="3" style="stroke:#038048;stroke-width:1.0;"/><text fill="#000000" font-family="sans-serif" font-size="11" lengthAdjust="spacing" textLength="93" x="298" y="720.2339">save() : boolean</text><line style="stroke:#A80036;stroke-width:1.5;" x1="279" x2="363.5" y1="690.8164" y2="690.8164"/><text fill="#000000" font-family="sans-serif" font-size="11" lengthAdjust="spacing" textLength="81" x="363.5" y="694.1245">public method</text><line style="stroke:#A80036;stroke-width:1.5;" x1="444.5" x2="529" y1="690.8164" y2="690.8164"/><rect fill="#F24D5C" height="6" style="stroke:#C82930;stroke-width:1.0;" width="6" x="286" y="743.6328"/><text fill="#000000" font-family="sans-serif" font-size="11" lengthAdjust="spacing" textLength="221" x="298" y="749.8433">calculate(raw_input: unknown) : float[3]</text><line style="stroke:#A80036;stroke-width:1.5;" x1="279" x2="357" y1="733.2305" y2="733.2305"/><text fill="#000000" font-family="sans-serif" font-size="11" lengthAdjust="spacing" textLength="94" x="357" y="736.5386">private methods</text><line style="stroke:#A80036;stroke-width:1.5;" x1="451" x2="529" y1="733.2305" y2="733.2305"/><!--MD5=[90447d4191c16dafea1a917a3aa79093]
class ZoomBild--><rect codeLine="73" fill="#FEFECE" filter="url(#f16loof6fmds7t)" height="60.8047" id="ZoomBild" style="stroke:#A80036;stroke-width:1.5;" width="205" x="301.5" y="461.5"/><ellipse cx="370.75" cy="477.5" fill="#ADD1B2" rx="11" ry="11" style="stroke:#A80036;stroke-width:1.0;"/><path d="M373.0938,473.1719 C372.1563,472.7344 371.5625,472.5938 370.6875,472.5938 C368.0625,472.5938 366.0625,474.6719 366.0625,477.3906 L366.0625,478.5156 C366.0625,481.0938 368.1719,482.9844 371.0625,482.9844 C372.2813,482.9844 373.4375,482.6875 374.1875,482.1406 C374.7656,481.7344 375.0938,481.2813 375.0938,480.8906 C375.0938,480.4375 374.7031,480.0469 374.2344,480.0469 C374.0156,480.0469 373.8125,480.125 373.625,480.3125 C373.1719,480.7969 373.1719,480.7969 372.9844,480.8906 C372.5625,481.1563 371.875,481.2813 371.1094,481.2813 C369.0625,481.2813 367.7656,480.1875 367.7656,478.4844 L367.7656,477.3906 C367.7656,475.6094 369.0156,474.2969 370.75,474.2969 C371.3281,474.2969 371.9375,474.4531 372.4063,474.7031 C372.8906,474.9844 373.0625,475.2031 373.1563,475.6094 C373.2188,476.0156 373.25,476.1406 373.3906,476.2656 C373.5313,476.4063 373.7656,476.5156 373.9844,476.5156 C374.25,476.5156 374.5156,476.375 374.6875,476.1563 C374.7969,476 374.8281,475.8125 374.8281,475.3906 L374.8281,473.9688 C374.8281,473.5313 374.8125,473.4063 374.7188,473.25 C374.5625,472.9844 374.2813,472.8438 373.9844,472.8438 C373.6875,472.8438 373.4844,472.9375 373.2656,473.25 L373.0938,473.1719 Z " fill="#000000"/><text fill="#000000" font-family="sans-serif" font-size="12" lengthAdjust="spacing" textLength="58" x="391.25" y="481.6543">ZoomBild</text><line style="stroke:#A80036;stroke-width:1.5;" x1="302.5" x2="505.5" y1="493.5" y2="493.5"/><line style="stroke:#A80036;stroke-width:1.5;" x1="302.5" x2="505.5" y1="501.5" y2="501.5"/><ellipse cx="312.5" cy="512.5" fill="#84BE84" rx="3" ry="3" style="stroke:#038048;stroke-width:1.0;"/><text fill="#000000" font-family="sans-serif" font-size="11" lengthAdjust="spacing" textLength="179" x="321.5" y="515.7104">move(position: float[3]): float[3]</text><polygon fill="#FFFFFF" filter="url(#f16loof6fmds7t)" points="47,465.5,105,465.5,112,487.7969,119,487.7969,119,518.0938,47,518.0938,47,465.5" style="stroke:#000000;stroke-width:1.5;"/><line style="stroke:#000000;stroke-width:1.5;" x1="47" x2="112" y1="487.7969" y2="487.7969"/><text fill="#000000" font-family="sans-serif" font-size="14" font-weight="bold" lengthAdjust="spacing" textLength="52" x="51" y="480.4951">Config</text><polygon fill="#FFFFFF" filter="url(#f16loof6fmds7t)" points="328,835,466,835,473,857.2969,480,857.2969,480,887.5938,328,887.5938,328,835" style="stroke:#000000;stroke-width:1.5;"/><line style="stroke:#000000;stroke-width:1.5;" x1="328" x2="473" y1="857.2969" y2="857.2969"/><text fill="#000000" font-family="sans-serif" font-size="14" font-weight="bold" lengthAdjust="spacing" textLength="132" x="332" y="849.9951">SpeicherMedium</text><!--MD5=[abea0b42432aea0f9ce66e53feda8644]
entity System--><ellipse cx="599" cy="271.5" fill="#DA70D5" filter="url(#f16loof6fmds7t)" rx="8" ry="8" style="stroke:#A80036;stroke-width:1.5;"/><text fill="#000000" font-family="sans-serif" font-size="14" lengthAdjust="spacing" textLength="54" x="572" y="301.4951">System</text><!--MD5=[e72ca73ac73eca3f18a81a671fe51a7c]
link ToolType to Tutorial--><path codeLine="26" d="M221.596,127.093 C220.135,145.158 218.376,166.922 216.673,187.974 " fill="none" id="ToolType-Tutorial" style="stroke:#A80036;stroke-width:1.0;"/><!--MD5=[fc4ffdc4bb2ac5a3cd1bd4c856213de4]
link Tutorial to Config--><path codeLine="27" d="M161.987,355.105 C139.228,394.261 113.643,438.279 97.9224,465.326 " fill="none" id="Tutorial-Config" style="stroke:#A80036;stroke-width:1.0;"/><!--MD5=[91cffcbb8234028742b6ac8b9b57d54f]
reverse link Bild to ZoomBild--><path codeLine="79" d="M382.462,141.222 C387.847,228.672 398.04,394.215 402.182,461.476 " fill="none" id="Bild-backto-ZoomBild" style="stroke:#A80036;stroke-width:1.0;"/><polygon fill="none" points="375.461,141.422,381.219,121.03,389.435,140.562,375.461,141.422" style="stroke:#A80036;stroke-width:1.0;"/><!--MD5=[74bcaaa80c1f5666ddc668b1a184278c]
reverse link Tutorial to ZoomTutorial--><path codeLine="80" d="M210,375.554 C210,406.989 210,439.11 210,461.463 " fill="none" id="Tutorial-backto-ZoomTutorial" style="stroke:#A80036;stroke-width:1.0;"/><polygon fill="none" points="203,375.106,210,355.105,217,375.105,203,375.106" style="stroke:#A80036;stroke-width:1.0;"/><!--MD5=[2708804abe4d1091750fa48cfee7ac00]
link ZoomInput to ZoomCalculator--><path codeLine="83" d="M561.402,529.055 C538.714,550.813 508.961,579.345 481.437,605.74 " fill="none" id="ZoomInput-ZoomCalculator" style="stroke:#A80036;stroke-width:1.0;"/><!--MD5=[f1d0f4197788e2c83cd56df3430af640]
link ZoomBild to ZoomCalculator--><path codeLine="84" d="M404,522.631 C404,544.979 404,576.652 404,605.731 " fill="none" id="ZoomBild-ZoomCalculator" style="stroke:#A80036;stroke-width:1.0;"/><polygon fill="#000000" points="409,562.5664,406.0611,571.6115,411.9389,571.6115,409,562.5664" style="stroke:#000000;stroke-width:1.0;"/><text fill="#000000" font-family="sans-serif" font-size="13" lengthAdjust="spacing" textLength="44" x="418" y="572.0669">moves</text><!--MD5=[ab94cbc2495622a03fec4b24390f5618]
link ZoomCalculator to SpeicherMedium--><path codeLine="87" d="M404,756.149 C404,784.119 404,814.1265 404,834.7501 " fill="none" id="ZoomCalculator-SpeicherMedium" style="stroke:#A80036;stroke-width:1.0;"/><polygon fill="#000000" points="409,801.5664,411.9389,792.5213,406.0611,792.5213,409,801.5664" style="stroke:#000000;stroke-width:1.0;"/><text fill="#000000" font-family="sans-serif" font-size="13" lengthAdjust="spacing" textLength="73" x="418" y="801.0669">saves Data</text><!--MD5=[1dd3167bd21ea9adc9b14ed1a4dd4238]
link Config to ZoomCalculator--><path codeLine="88" d="M119.182,517.146 C125.415,521.173 131.863,525.255 138,529 C183.102,556.524 233.328,585.464 277.881,610.56 " fill="none" id="Config-ZoomCalculator" style="stroke:#A80036;stroke-width:1.0;"/><polygon fill="#000000" points="220.3089,570.1028,214.0048,562.9817,211.0232,568.0472,220.3089,570.1028" style="stroke:#000000;stroke-width:1.0;"/><text fill="#000000" font-family="sans-serif" font-size="13" lengthAdjust="spacing" textLength="39" x="225" y="572.0669">speed</text><!--MD5=[a66380e3caa08a1b9c02995811f0cc12]
link System to ZoomInput--><path codeLine="89" d="M599,280.536 C599,308.407 599,402.076 599,454.568 " fill="none" id="System-ZoomInput" style="stroke:#A80036;stroke-width:1.0;"/><polygon fill="#000000" points="604,390.5664,601.0611,399.6115,606.9389,399.6115,604,390.5664" style="stroke:#000000;stroke-width:1.0;"/><text fill="#000000" font-family="sans-serif" font-size="13" lengthAdjust="spacing" textLength="58" x="613" y="400.0669">listens to</text><!--MD5=[5de6c4a41dfa8b98939a581e738d8991]
@startuml
' skinparam backgroundColor transparent
() System #DA70D5
top to bottom direction

package Util {
    ' - - - TUTORIAL - - -
    abstract Tutorial<t: ToolType> {
      - t: ToolType
      __public method__
      + start() : void
      __private methods__
      - getConfigState() : boolean
      - setConfigState(state: boolean) : void
      - show() : boolean
      __abstract methods__
      - {abstract} tutorial() : void
    }

    enum ToolType {
      ZOOM
      EYETRACKING
      CODECHARTS
    }

    ' Interaktionen
    Tutorial -u- ToolType
    Tutorial -d- Config


    ' - - - BILD - - -

    abstract Bild {
      + load(url: String) : void
      + show() : void
    }

    class Data {
        + type: ToolType
        + data: unknown
        + config_id: int
    }
}



' === ZOOM MAPS ===
package ZoomMaps {

    ' Zoom Input
    class ZoomInput {
        - onClick() : void
        - onScroll() : void
    }

    ' Zoom Tutorial
    class ZoomTutorial {
        - tutorial() : void
    }

    ' Zoom Calculator
    class ZoomCalculator {
        - speed: float
        - position: float[3]
        - data: Data
        __public method__
        + processInput(raw_input: unknown) : void
        + save() : boolean
        __private methods__
        - calculate(raw_input: unknown) : float[3]
    }

    ' Zoom Bild
    class ZoomBild {
        + move(position: float[3]): float[3]
    }


    ' Vererbungen
    Bild <|- - ZoomBild
    Tutorial <|- - ZoomTutorial

    ' Interaktionen
    ZoomInput -d- ZoomCalculator
    ZoomCalculator  -u- ZoomBild : > moves

    ' Andere Module
    ZoomCalculator - - SpeicherMedium : > saves Data
    ZoomCalculator -l- Config : < speed
    ZoomInput -u- System : > listens to

}

' Blackboxen / Andere Module
package Config {}

package SpeicherMedium {}
@enduml

@startuml
() System #DA70D5
top to bottom direction

package Util {
    abstract Tutorial<t: ToolType> {
      - t: ToolType
      __public method__
      + start() : void
      __private methods__
      - getConfigState() : boolean
      - setConfigState(state: boolean) : void
      - show() : boolean
      __abstract methods__
      - {abstract} tutorial() : void
    }

    enum ToolType {
      ZOOM
      EYETRACKING
      CODECHARTS
    }

    Tutorial -u- ToolType
    Tutorial -d- Config



    abstract Bild {
      + load(url: String) : void
      + show() : void
    }

    class Data {
        + type: ToolType
        + data: unknown
        + config_id: int
    }
}



package ZoomMaps {

    class ZoomInput {
        - onClick() : void
        - onScroll() : void
    }

    class ZoomTutorial {
        - tutorial() : void
    }

    class ZoomCalculator {
        - speed: float
        - position: float[3]
        - data: Data
        __public method__
        + processInput(raw_input: unknown) : void
        + save() : boolean
        __private methods__
        - calculate(raw_input: unknown) : float[3]
    }

    class ZoomBild {
        + move(position: float[3]): float[3]
    }


    Bild <|- - ZoomBild
    Tutorial <|- - ZoomTutorial

    ZoomInput -d- ZoomCalculator
    ZoomCalculator  -u- ZoomBild : > moves

    ZoomCalculator - - SpeicherMedium : > saves Data
    ZoomCalculator -l- Config : < speed
    ZoomInput -u- System : > listens to

}

package Config {}

package SpeicherMedium {}
@enduml

PlantUML version 1.2021.14beta3(Unknown compile time)
(GPL source distribution)
Java Runtime: Java(TM) SE Runtime Environment
JVM: Java HotSpot(TM) 64-Bit Server VM
Default Encoding: UTF-8
Language: en
Country: US
--></g></svg>