<?xml version="1.0" encoding="UTF-8" standalone="no"?><svg xmlns="http://www.w3.org/2000/svg" xmlns:xlink="http://www.w3.org/1999/xlink" contentScriptType="application/ecmascript" contentStyleType="text/css" height="404px" preserveAspectRatio="none" style="width:540px;height:404px;background:#FFFFFF;" version="1.1" viewBox="0 0 540 404" width="540px" zoomAndPan="magnify"><defs><filter height="300%" id="fbuexevo3u6pb" width="300%" x="-1" y="-1"><feGaussianBlur result="blurOut" stdDeviation="2.0"/><feColorMatrix in="blurOut" result="blurOut2" type="matrix" values="0 0 0 0 0 0 0 0 0 0 0 0 0 0 0 0 0 0 .4 0"/><feOffset dx="4.0" dy="4.0" in="blurOut2" result="blurOut3"/><feBlend in="SourceGraphic" in2="blurOut3" mode="normal"/></filter></defs><g><!--MD5=[7d78d958a1816327b68dab5e38143fdd]
cluster ZoomMaps--><polygon fill="#FFFFFF" filter="url(#fbuexevo3u6pb)" points="78,80,173,80,180,102.2969,355,102.2969,355,397.5,78,397.5,78,80" style="stroke:#000000;stroke-width:1.5;"/><line style="stroke:#000000;stroke-width:1.5;" x1="78" x2="180" y1="102.2969" y2="102.2969"/><text fill="#000000" font-family="sans-serif" font-size="14" font-weight="bold" lengthAdjust="spacing" textLength="89" x="82" y="94.9951">ZoomMaps</text><!--MD5=[e6f9a0eef67c9f7cee45e688f45a88fd]
class ZoomTutorial--><rect codeLine="5" fill="#FEFECE" filter="url(#fbuexevo3u6pb)" height="48" id="ZoomTutorial" style="stroke:#A80036;stroke-width:1.5;" width="112" x="227" y="115"/><ellipse cx="242" cy="131" fill="#ADD1B2" rx="11" ry="11" style="stroke:#A80036;stroke-width:1.0;"/><path d="M244.3438,126.6719 C243.4063,126.2344 242.8125,126.0938 241.9375,126.0938 C239.3125,126.0938 237.3125,128.1719 237.3125,130.8906 L237.3125,132.0156 C237.3125,134.5938 239.4219,136.4844 242.3125,136.4844 C243.5313,136.4844 244.6875,136.1875 245.4375,135.6406 C246.0156,135.2344 246.3438,134.7813 246.3438,134.3906 C246.3438,133.9375 245.9531,133.5469 245.4844,133.5469 C245.2656,133.5469 245.0625,133.625 244.875,133.8125 C244.4219,134.2969 244.4219,134.2969 244.2344,134.3906 C243.8125,134.6563 243.125,134.7813 242.3594,134.7813 C240.3125,134.7813 239.0156,133.6875 239.0156,131.9844 L239.0156,130.8906 C239.0156,129.1094 240.2656,127.7969 242,127.7969 C242.5781,127.7969 243.1875,127.9531 243.6563,128.2031 C244.1406,128.4844 244.3125,128.7031 244.4063,129.1094 C244.4688,129.5156 244.5,129.6406 244.6406,129.7656 C244.7813,129.9063 245.0156,130.0156 245.2344,130.0156 C245.5,130.0156 245.7656,129.875 245.9375,129.6563 C246.0469,129.5 246.0781,129.3125 246.0781,128.8906 L246.0781,127.4688 C246.0781,127.0313 246.0625,126.9063 245.9688,126.75 C245.8125,126.4844 245.5313,126.3438 245.2344,126.3438 C244.9375,126.3438 244.7344,126.4375 244.5156,126.75 L244.3438,126.6719 Z " fill="#000000"/><text fill="#000000" font-family="sans-serif" font-size="12" lengthAdjust="spacing" textLength="80" x="256" y="135.1543">ZoomTutorial</text><line style="stroke:#A80036;stroke-width:1.5;" x1="228" x2="338" y1="147" y2="147"/><line style="stroke:#A80036;stroke-width:1.5;" x1="228" x2="338" y1="155" y2="155"/><!--MD5=[9767bd966f4d33191914ccb96558e57c]
class ZoomInput--><rect codeLine="9" fill="#FEFECE" filter="url(#fbuexevo3u6pb)" height="48" id="ZoomInput" style="stroke:#A80036;stroke-width:1.5;" width="97" x="94.5" y="115"/><ellipse cx="109.5" cy="131" fill="#ADD1B2" rx="11" ry="11" style="stroke:#A80036;stroke-width:1.0;"/><path d="M111.8438,126.6719 C110.9063,126.2344 110.3125,126.0938 109.4375,126.0938 C106.8125,126.0938 104.8125,128.1719 104.8125,130.8906 L104.8125,132.0156 C104.8125,134.5938 106.9219,136.4844 109.8125,136.4844 C111.0313,136.4844 112.1875,136.1875 112.9375,135.6406 C113.5156,135.2344 113.8438,134.7813 113.8438,134.3906 C113.8438,133.9375 113.4531,133.5469 112.9844,133.5469 C112.7656,133.5469 112.5625,133.625 112.375,133.8125 C111.9219,134.2969 111.9219,134.2969 111.7344,134.3906 C111.3125,134.6563 110.625,134.7813 109.8594,134.7813 C107.8125,134.7813 106.5156,133.6875 106.5156,131.9844 L106.5156,130.8906 C106.5156,129.1094 107.7656,127.7969 109.5,127.7969 C110.0781,127.7969 110.6875,127.9531 111.1563,128.2031 C111.6406,128.4844 111.8125,128.7031 111.9063,129.1094 C111.9688,129.5156 112,129.6406 112.1406,129.7656 C112.2813,129.9063 112.5156,130.0156 112.7344,130.0156 C113,130.0156 113.2656,129.875 113.4375,129.6563 C113.5469,129.5 113.5781,129.3125 113.5781,128.8906 L113.5781,127.4688 C113.5781,127.0313 113.5625,126.9063 113.4688,126.75 C113.3125,126.4844 113.0313,126.3438 112.7344,126.3438 C112.4375,126.3438 112.2344,126.4375 112.0156,126.75 L111.8438,126.6719 Z " fill="#000000"/><text fill="#000000" font-family="sans-serif" font-size="12" lengthAdjust="spacing" textLength="65" x="123.5" y="135.1543">ZoomInput</text><line style="stroke:#A80036;stroke-width:1.5;" x1="95.5" x2="190.5" y1="147" y2="147"/><line style="stroke:#A80036;stroke-width:1.5;" x1="95.5" x2="190.5" y1="155" y2="155"/><!--MD5=[72b9880496439479a2cac04af8a355bc]
class ZoomCalculator--><rect codeLine="12" fill="#FEFECE" filter="url(#fbuexevo3u6pb)" height="48" id="ZoomCalculator" style="stroke:#A80036;stroke-width:1.5;" width="127" x="96.5" y="223"/><ellipse cx="111.5" cy="239" fill="#ADD1B2" rx="11" ry="11" style="stroke:#A80036;stroke-width:1.0;"/><path d="M113.8438,234.6719 C112.9063,234.2344 112.3125,234.0938 111.4375,234.0938 C108.8125,234.0938 106.8125,236.1719 106.8125,238.8906 L106.8125,240.0156 C106.8125,242.5938 108.9219,244.4844 111.8125,244.4844 C113.0313,244.4844 114.1875,244.1875 114.9375,243.6406 C115.5156,243.2344 115.8438,242.7813 115.8438,242.3906 C115.8438,241.9375 115.4531,241.5469 114.9844,241.5469 C114.7656,241.5469 114.5625,241.625 114.375,241.8125 C113.9219,242.2969 113.9219,242.2969 113.7344,242.3906 C113.3125,242.6563 112.625,242.7813 111.8594,242.7813 C109.8125,242.7813 108.5156,241.6875 108.5156,239.9844 L108.5156,238.8906 C108.5156,237.1094 109.7656,235.7969 111.5,235.7969 C112.0781,235.7969 112.6875,235.9531 113.1563,236.2031 C113.6406,236.4844 113.8125,236.7031 113.9063,237.1094 C113.9688,237.5156 114,237.6406 114.1406,237.7656 C114.2813,237.9063 114.5156,238.0156 114.7344,238.0156 C115,238.0156 115.2656,237.875 115.4375,237.6563 C115.5469,237.5 115.5781,237.3125 115.5781,236.8906 L115.5781,235.4688 C115.5781,235.0313 115.5625,234.9063 115.4688,234.75 C115.3125,234.4844 115.0313,234.3438 114.7344,234.3438 C114.4375,234.3438 114.2344,234.4375 114.0156,234.75 L113.8438,234.6719 Z " fill="#000000"/><text fill="#000000" font-family="sans-serif" font-size="12" lengthAdjust="spacing" textLength="95" x="125.5" y="243.1543">ZoomCalculator</text><line style="stroke:#A80036;stroke-width:1.5;" x1="97.5" x2="222.5" y1="255" y2="255"/><line style="stroke:#A80036;stroke-width:1.5;" x1="97.5" x2="222.5" y1="263" y2="263"/><!--MD5=[90447d4191c16dafea1a917a3aa79093]
class ZoomBild--><rect codeLine="15" fill="#FEFECE" filter="url(#fbuexevo3u6pb)" height="48" id="ZoomBild" style="stroke:#A80036;stroke-width:1.5;" width="90" x="105" y="333.5"/><ellipse cx="120" cy="349.5" fill="#ADD1B2" rx="11" ry="11" style="stroke:#A80036;stroke-width:1.0;"/><path d="M122.3438,345.1719 C121.4063,344.7344 120.8125,344.5938 119.9375,344.5938 C117.3125,344.5938 115.3125,346.6719 115.3125,349.3906 L115.3125,350.5156 C115.3125,353.0938 117.4219,354.9844 120.3125,354.9844 C121.5313,354.9844 122.6875,354.6875 123.4375,354.1406 C124.0156,353.7344 124.3438,353.2813 124.3438,352.8906 C124.3438,352.4375 123.9531,352.0469 123.4844,352.0469 C123.2656,352.0469 123.0625,352.125 122.875,352.3125 C122.4219,352.7969 122.4219,352.7969 122.2344,352.8906 C121.8125,353.1563 121.125,353.2813 120.3594,353.2813 C118.3125,353.2813 117.0156,352.1875 117.0156,350.4844 L117.0156,349.3906 C117.0156,347.6094 118.2656,346.2969 120,346.2969 C120.5781,346.2969 121.1875,346.4531 121.6563,346.7031 C122.1406,346.9844 122.3125,347.2031 122.4063,347.6094 C122.4688,348.0156 122.5,348.1406 122.6406,348.2656 C122.7813,348.4063 123.0156,348.5156 123.2344,348.5156 C123.5,348.5156 123.7656,348.375 123.9375,348.1563 C124.0469,348 124.0781,347.8125 124.0781,347.3906 L124.0781,345.9688 C124.0781,345.5313 124.0625,345.4063 123.9688,345.25 C123.8125,344.9844 123.5313,344.8438 123.2344,344.8438 C122.9375,344.8438 122.7344,344.9375 122.5156,345.25 L122.3438,345.1719 Z " fill="#000000"/><text fill="#000000" font-family="sans-serif" font-size="12" lengthAdjust="spacing" textLength="58" x="134" y="353.6543">ZoomBild</text><line style="stroke:#A80036;stroke-width:1.5;" x1="106" x2="194" y1="365.5" y2="365.5"/><line style="stroke:#A80036;stroke-width:1.5;" x1="106" x2="194" y1="373.5" y2="373.5"/><polygon fill="#FFFFFF" filter="url(#fbuexevo3u6pb)" points="371,331,509,331,516,353.2969,523,353.2969,523,383.5938,371,383.5938,371,331" style="stroke:#000000;stroke-width:1.5;"/><line style="stroke:#000000;stroke-width:1.5;" x1="371" x2="516" y1="353.2969" y2="353.2969"/><text fill="#000000" font-family="sans-serif" font-size="14" font-weight="bold" lengthAdjust="spacing" textLength="132" x="375" y="345.9951">SpeicherMedium</text><!--MD5=[626b00d2609f42ba755c8afb6d5f2b59]
class Bild--><rect codeLine="1" fill="#FEFECE" filter="url(#fbuexevo3u6pb)" height="48" id="Bild" style="stroke:#A80036;stroke-width:1.5;" width="54" x="7" y="223"/><ellipse cx="22" cy="239" fill="#A9DCDF" rx="11" ry="11" style="stroke:#A80036;stroke-width:1.0;"/><path d="M24.0781,240.8125 L24.4688,241.7969 L24.0781,241.7969 C23.625,241.7969 23.5156,241.8125 23.3594,241.9219 C23.1094,242.0781 22.9531,242.3594 22.9531,242.6563 C22.9531,242.9219 23.0938,243.1719 23.3125,243.3281 C23.4531,243.4531 23.6563,243.5 24.0781,243.5 L26.4375,243.5 C26.7969,243.5 27.0156,243.4688 27.1563,243.375 C27.4063,243.2344 27.5625,242.9375 27.5625,242.6563 C27.5625,242.375 27.4219,242.125 27.2031,241.9688 C27.0313,241.8281 26.875,241.7969 26.4063,241.7969 L23.0156,233.5938 L19.3438,233.5938 C18.8906,233.5938 18.7656,233.6094 18.6094,233.7031 C18.3594,233.875 18.2031,234.1563 18.2031,234.4375 C18.2031,234.7188 18.3438,234.9688 18.5625,235.1406 C18.7344,235.25 18.9063,235.2813 19.3438,235.2813 L20.4219,235.2813 L17.7813,241.7969 C17.3594,241.7969 17.2031,241.8125 17.0469,241.9219 C16.7969,242.0781 16.6406,242.3594 16.6406,242.6563 C16.6406,243.2188 17.0156,243.5 17.7656,243.5 L20.0313,243.5 C20.3906,243.5 20.6094,243.4688 20.7344,243.375 C21,243.2344 21.1406,242.9375 21.1406,242.6563 C21.1406,242.375 21.0156,242.125 20.7969,241.9531 C20.625,241.8281 20.4844,241.7969 20.0313,241.7969 L19.6406,241.7969 L20.0313,240.8125 L24.0781,240.8125 Z M23.375,239.1094 L20.7031,239.1094 L22.0469,235.8438 L23.375,239.1094 Z " fill="#000000"/><text fill="#000000" font-family="sans-serif" font-size="12" font-style="italic" lengthAdjust="spacing" textLength="22" x="36" y="243.1543">Bild</text><line style="stroke:#A80036;stroke-width:1.5;" x1="8" x2="60" y1="255" y2="255"/><line style="stroke:#A80036;stroke-width:1.5;" x1="8" x2="60" y1="263" y2="263"/><!--MD5=[fccc419d627b37790932ddb688fb7ad6]
class Tutorial--><rect codeLine="2" fill="#FEFECE" filter="url(#fbuexevo3u6pb)" height="48" id="Tutorial" style="stroke:#A80036;stroke-width:1.5;" width="77" x="244.5" y="7"/><ellipse cx="259.5" cy="23" fill="#A9DCDF" rx="11" ry="11" style="stroke:#A80036;stroke-width:1.0;"/><path d="M261.5781,24.8125 L261.9688,25.7969 L261.5781,25.7969 C261.125,25.7969 261.0156,25.8125 260.8594,25.9219 C260.6094,26.0781 260.4531,26.3594 260.4531,26.6563 C260.4531,26.9219 260.5938,27.1719 260.8125,27.3281 C260.9531,27.4531 261.1563,27.5 261.5781,27.5 L263.9375,27.5 C264.2969,27.5 264.5156,27.4688 264.6563,27.375 C264.9063,27.2344 265.0625,26.9375 265.0625,26.6563 C265.0625,26.375 264.9219,26.125 264.7031,25.9688 C264.5313,25.8281 264.375,25.7969 263.9063,25.7969 L260.5156,17.5938 L256.8438,17.5938 C256.3906,17.5938 256.2656,17.6094 256.1094,17.7031 C255.8594,17.875 255.7031,18.1563 255.7031,18.4375 C255.7031,18.7188 255.8438,18.9688 256.0625,19.1406 C256.2344,19.25 256.4063,19.2813 256.8438,19.2813 L257.9219,19.2813 L255.2813,25.7969 C254.8594,25.7969 254.7031,25.8125 254.5469,25.9219 C254.2969,26.0781 254.1406,26.3594 254.1406,26.6563 C254.1406,27.2188 254.5156,27.5 255.2656,27.5 L257.5313,27.5 C257.8906,27.5 258.1094,27.4688 258.2344,27.375 C258.5,27.2344 258.6406,26.9375 258.6406,26.6563 C258.6406,26.375 258.5156,26.125 258.2969,25.9531 C258.125,25.8281 257.9844,25.7969 257.5313,25.7969 L257.1406,25.7969 L257.5313,24.8125 L261.5781,24.8125 Z M260.875,23.1094 L258.2031,23.1094 L259.5469,19.8438 L260.875,23.1094 Z " fill="#000000"/><text fill="#000000" font-family="sans-serif" font-size="12" font-style="italic" lengthAdjust="spacing" textLength="45" x="273.5" y="27.1543">Tutorial</text><line style="stroke:#A80036;stroke-width:1.5;" x1="245.5" x2="320.5" y1="39" y2="39"/><line style="stroke:#A80036;stroke-width:1.5;" x1="245.5" x2="320.5" y1="47" y2="47"/><!--MD5=[91cffcbb8234028742b6ac8b9b57d54f]
reverse link Bild to ZoomBild--><path codeLine="25" d="M73.4179,284.869 C90.5026,300.849 109.993,319.0792 125.035,333.1491 " fill="none" id="Bild-backto-ZoomBild" style="stroke:#A80036;stroke-width:1.0;"/><polygon fill="none" points="68.4254,289.784,58.6006,271.01,77.9888,279.56,68.4254,289.784" style="stroke:#A80036;stroke-width:1.0;"/><!--MD5=[74bcaaa80c1f5666ddc668b1a184278c]
reverse link Tutorial to ZoomTutorial--><path codeLine="26" d="M283,75.024 C283,88.579 283,103.038 283,114.678 " fill="none" id="Tutorial-backto-ZoomTutorial" style="stroke:#A80036;stroke-width:1.0;"/><polygon fill="none" points="276,75,283,55,290,75,276,75" style="stroke:#A80036;stroke-width:1.0;"/><!--MD5=[2708804abe4d1091750fa48cfee7ac00]
link ZoomInput to ZoomCalculator--><path codeLine="27" d="M146.689,163 C149.521,180.658 153.415,204.941 156.26,222.678 " fill="none" id="ZoomInput-ZoomCalculator" style="stroke:#A80036;stroke-width:1.0;"/><!--MD5=[d14beb75e4877be6f65874a887b5bf30]
link ZoomCalculator to ZoomBild--><path codeLine="28" d="M157.879,271.01 C156.194,289.298 153.846,314.7721 152.152,333.1491 " fill="none" id="ZoomCalculator-ZoomBild" style="stroke:#A80036;stroke-width:1.0;"/><!--MD5=[ab94cbc2495622a03fec4b24390f5618]
link ZoomCalculator to SpeicherMedium--><path codeLine="29" d="M220.865,271.01 C267.349,288.583 331.381,312.79 379.445,330.9609 " fill="none" id="ZoomCalculator-SpeicherMedium" style="stroke:#A80036;stroke-width:1.0;"/><!--MD5=[11e75eac219a5539bf2d24aab73310a2]
@startuml
abstract Bild
abstract Tutorial

package ZoomMaps {
  class ZoomTutorial {

  }

  class ZoomInput {
  }

  class ZoomCalculator {
  }

  class ZoomBild {

  }
  
}

package SpeicherMedium {
  
}

Bild <|- - ZoomBild
Tutorial <|- - ZoomTutorial
ZoomInput - - ZoomCalculator
ZoomCalculator - - ZoomBild
ZoomCalculator - - SpeicherMedium
@enduml

PlantUML version 1.2021.13beta8(Unknown compile time)
(GPL source distribution)
Java Runtime: Java(TM) SE Runtime Environment
JVM: Java HotSpot(TM) 64-Bit Server VM
Default Encoding: UTF-8
Language: en
Country: US
--></g></svg>