<?xml version="1.0" encoding="UTF-8" standalone="no"?><svg xmlns="http://www.w3.org/2000/svg" xmlns:xlink="http://www.w3.org/1999/xlink" contentScriptType="application/ecmascript" contentStyleType="text/css" height="735px" preserveAspectRatio="none" style="width:1406px;height:735px;background:#FFFFFF;" version="1.1" viewBox="0 0 1406 735" width="1406px" zoomAndPan="magnify"><defs><filter height="300%" id="fo3nbs9l48ja6" width="300%" x="-1" y="-1"><feGaussianBlur result="blurOut" stdDeviation="2.0"/><feColorMatrix in="blurOut" result="blurOut2" type="matrix" values="0 0 0 0 0 0 0 0 0 0 0 0 0 0 0 0 0 0 .4 0"/><feOffset dx="4.0" dy="4.0" in="blurOut2" result="blurOut3"/><feBlend in="SourceGraphic" in2="blurOut3" mode="normal"/></filter></defs><g><!--MD5=[7d78d958a1816327b68dab5e38143fdd]
cluster ZoomMaps--><polygon fill="#FFFFFF" filter="url(#fo3nbs9l48ja6)" points="401,255.685,496,255.685,503,277.9819,1229,277.9819,1229,728.685,401,728.685,401,255.685" style="stroke:#000000;stroke-width:1.5;"/><line style="stroke:#000000;stroke-width:1.5;" x1="401" x2="503" y1="277.9819" y2="277.9819"/><text fill="#000000" font-family="sans-serif" font-size="14" font-weight="bold" lengthAdjust="spacing" textLength="89" x="405" y="270.6801">ZoomMaps</text><!--MD5=[9767bd966f4d33191914ccb96558e57c]
class ZoomInput--><rect codeLine="52" fill="#FEFECE" filter="url(#fo3nbs9l48ja6)" height="73.6094" id="ZoomInput" style="stroke:#A80036;stroke-width:1.5;" width="114" x="1099" y="290.685"/><ellipse cx="1121.65" cy="306.685" fill="#ADD1B2" rx="11" ry="11" style="stroke:#A80036;stroke-width:1.0;"/><path d="M1123.9938,302.3569 C1123.0563,301.9194 1122.4625,301.7787 1121.5875,301.7787 C1118.9625,301.7787 1116.9625,303.8569 1116.9625,306.5756 L1116.9625,307.7006 C1116.9625,310.2787 1119.0719,312.1694 1121.9625,312.1694 C1123.1813,312.1694 1124.3375,311.8725 1125.0875,311.3256 C1125.6656,310.9194 1125.9938,310.4662 1125.9938,310.0756 C1125.9938,309.6225 1125.6031,309.2319 1125.1344,309.2319 C1124.9156,309.2319 1124.7125,309.31 1124.525,309.4975 C1124.0719,309.9819 1124.0719,309.9819 1123.8844,310.0756 C1123.4625,310.3412 1122.775,310.4662 1122.0094,310.4662 C1119.9625,310.4662 1118.6656,309.3725 1118.6656,307.6694 L1118.6656,306.5756 C1118.6656,304.7944 1119.9156,303.4819 1121.65,303.4819 C1122.2281,303.4819 1122.8375,303.6381 1123.3063,303.8881 C1123.7906,304.1694 1123.9625,304.3881 1124.0563,304.7944 C1124.1188,305.2006 1124.15,305.3256 1124.2906,305.4506 C1124.4313,305.5912 1124.6656,305.7006 1124.8844,305.7006 C1125.15,305.7006 1125.4156,305.56 1125.5875,305.3412 C1125.6969,305.185 1125.7281,304.9975 1125.7281,304.5756 L1125.7281,303.1537 C1125.7281,302.7162 1125.7125,302.5912 1125.6188,302.435 C1125.4625,302.1694 1125.1813,302.0287 1124.8844,302.0287 C1124.5875,302.0287 1124.3844,302.1225 1124.1656,302.435 L1123.9938,302.3569 Z " fill="#000000"/><text fill="#000000" font-family="sans-serif" font-size="12" lengthAdjust="spacing" textLength="65" x="1137.35" y="310.8393">ZoomInput</text><line style="stroke:#A80036;stroke-width:1.5;" x1="1100" x2="1212" y1="322.685" y2="322.685"/><line style="stroke:#A80036;stroke-width:1.5;" x1="1100" x2="1212" y1="330.685" y2="330.685"/><rect fill="#F24D5C" height="6" style="stroke:#C82930;stroke-width:1.0;" width="6" x="1107" y="338.685"/><text fill="#000000" font-family="sans-serif" font-size="11" lengthAdjust="spacing" textLength="83" x="1119" y="344.8954">onClick() : void</text><rect fill="#F24D5C" height="6" style="stroke:#C82930;stroke-width:1.0;" width="6" x="1107" y="351.4897"/><text fill="#000000" font-family="sans-serif" font-size="11" lengthAdjust="spacing" textLength="88" x="1119" y="357.7001">onScroll() : void</text><path d="M564,315.185 L564,340.3178 A0,0 0 0 0 564,340.3178 L1064,340.3178 A0,0 0 0 0 1064,340.3178 L1064,333.185 L1098.96,327.685 L1064,325.185 L1064,325.185 L1054,315.185 L564,315.185 A0,0 0 0 0 564,315.185 " fill="#FBFB77" filter="url(#fo3nbs9l48ja6)" style="stroke:#A80036;stroke-width:1.0;"/><path d="M1054,315.185 L1054,325.185 L1064,325.185 L1054,315.185 " fill="#FBFB77" style="stroke:#A80036;stroke-width:1.0;"/><text fill="#000000" font-family="sans-serif" font-size="13" lengthAdjust="spacing" textLength="479" x="570" y="332.2519">Kann sich noch ändern, je nachdem wie Schnittstelle zum System aussieht</text><!--MD5=[e6f9a0eef67c9f7cee45e688f45a88fd]
class ZoomTutorial--><rect codeLine="63" fill="#FEFECE" filter="url(#fo3nbs9l48ja6)" height="60.8047" id="ZoomTutorial" style="stroke:#A80036;stroke-width:1.5;" width="112" x="417" y="297.185"/><ellipse cx="432" cy="313.185" fill="#ADD1B2" rx="11" ry="11" style="stroke:#A80036;stroke-width:1.0;"/><path d="M434.3438,308.8569 C433.4063,308.4194 432.8125,308.2787 431.9375,308.2787 C429.3125,308.2787 427.3125,310.3569 427.3125,313.0756 L427.3125,314.2006 C427.3125,316.7787 429.4219,318.6694 432.3125,318.6694 C433.5313,318.6694 434.6875,318.3725 435.4375,317.8256 C436.0156,317.4194 436.3438,316.9662 436.3438,316.5756 C436.3438,316.1225 435.9531,315.7319 435.4844,315.7319 C435.2656,315.7319 435.0625,315.81 434.875,315.9975 C434.4219,316.4819 434.4219,316.4819 434.2344,316.5756 C433.8125,316.8412 433.125,316.9662 432.3594,316.9662 C430.3125,316.9662 429.0156,315.8725 429.0156,314.1694 L429.0156,313.0756 C429.0156,311.2944 430.2656,309.9819 432,309.9819 C432.5781,309.9819 433.1875,310.1381 433.6563,310.3881 C434.1406,310.6694 434.3125,310.8881 434.4063,311.2944 C434.4688,311.7006 434.5,311.8256 434.6406,311.9506 C434.7813,312.0912 435.0156,312.2006 435.2344,312.2006 C435.5,312.2006 435.7656,312.06 435.9375,311.8412 C436.0469,311.685 436.0781,311.4975 436.0781,311.0756 L436.0781,309.6537 C436.0781,309.2162 436.0625,309.0912 435.9688,308.935 C435.8125,308.6694 435.5313,308.5287 435.2344,308.5287 C434.9375,308.5287 434.7344,308.6225 434.5156,308.935 L434.3438,308.8569 Z " fill="#000000"/><text fill="#000000" font-family="sans-serif" font-size="12" lengthAdjust="spacing" textLength="80" x="446" y="317.3393">ZoomTutorial</text><line style="stroke:#A80036;stroke-width:1.5;" x1="418" x2="528" y1="329.185" y2="329.185"/><line style="stroke:#A80036;stroke-width:1.5;" x1="418" x2="528" y1="337.185" y2="337.185"/><rect fill="#F24D5C" height="6" style="stroke:#C82930;stroke-width:1.0;" width="6" x="425" y="345.185"/><text fill="#000000" font-family="sans-serif" font-size="11" lengthAdjust="spacing" textLength="82" x="437" y="351.3954">tutorial() : void</text><!--MD5=[72b9880496439479a2cac04af8a355bc]
class ZoomCalculator--><rect codeLine="68" fill="#FEFECE" filter="url(#fo3nbs9l48ja6)" height="137.6328" id="ZoomCalculator" style="stroke:#A80036;stroke-width:1.5;" width="252" x="547" y="429.685"/><ellipse cx="621.25" cy="445.685" fill="#ADD1B2" rx="11" ry="11" style="stroke:#A80036;stroke-width:1.0;"/><path d="M623.5938,441.3569 C622.6563,440.9194 622.0625,440.7787 621.1875,440.7787 C618.5625,440.7787 616.5625,442.8569 616.5625,445.5756 L616.5625,446.7006 C616.5625,449.2787 618.6719,451.1694 621.5625,451.1694 C622.7813,451.1694 623.9375,450.8725 624.6875,450.3256 C625.2656,449.9194 625.5938,449.4662 625.5938,449.0756 C625.5938,448.6225 625.2031,448.2319 624.7344,448.2319 C624.5156,448.2319 624.3125,448.31 624.125,448.4975 C623.6719,448.9819 623.6719,448.9819 623.4844,449.0756 C623.0625,449.3412 622.375,449.4662 621.6094,449.4662 C619.5625,449.4662 618.2656,448.3725 618.2656,446.6694 L618.2656,445.5756 C618.2656,443.7944 619.5156,442.4819 621.25,442.4819 C621.8281,442.4819 622.4375,442.6381 622.9063,442.8881 C623.3906,443.1694 623.5625,443.3881 623.6563,443.7944 C623.7188,444.2006 623.75,444.3256 623.8906,444.4506 C624.0313,444.5912 624.2656,444.7006 624.4844,444.7006 C624.75,444.7006 625.0156,444.56 625.1875,444.3412 C625.2969,444.185 625.3281,443.9975 625.3281,443.5756 L625.3281,442.1537 C625.3281,441.7162 625.3125,441.5912 625.2188,441.435 C625.0625,441.1694 624.7813,441.0287 624.4844,441.0287 C624.1875,441.0287 623.9844,441.1225 623.7656,441.435 L623.5938,441.3569 Z " fill="#000000"/><text fill="#000000" font-family="sans-serif" font-size="12" lengthAdjust="spacing" textLength="95" x="641.75" y="449.8393">ZoomCalculator</text><line style="stroke:#A80036;stroke-width:1.5;" x1="548" x2="798" y1="461.685" y2="461.685"/><rect fill="none" height="6" style="stroke:#C82930;stroke-width:1.0;" width="6" x="555" y="469.685"/><text fill="#000000" font-family="sans-serif" font-size="11" lengthAdjust="spacing" textLength="68" x="567" y="475.8954">speed: float</text><rect fill="none" height="6" style="stroke:#C82930;stroke-width:1.0;" width="6" x="555" y="482.4897"/><text fill="#000000" font-family="sans-serif" font-size="11" lengthAdjust="spacing" textLength="91" x="567" y="488.7001">position: float[3]</text><ellipse cx="558" cy="515.0991" fill="#84BE84" rx="3" ry="3" style="stroke:#038048;stroke-width:1.0;"/><text fill="#000000" font-family="sans-serif" font-size="11" lengthAdjust="spacing" textLength="226" x="567" y="518.3095">processInput(raw_input: unknown) : void</text><line style="stroke:#A80036;stroke-width:1.5;" x1="548" x2="632.5" y1="501.6967" y2="501.6967"/><text fill="#000000" font-family="sans-serif" font-size="11" lengthAdjust="spacing" textLength="81" x="632.5" y="505.0048">public method</text><line style="stroke:#A80036;stroke-width:1.5;" x1="713.5" x2="798" y1="501.6967" y2="501.6967"/><rect fill="#F24D5C" height="6" style="stroke:#C82930;stroke-width:1.0;" width="6" x="555" y="541.7084"/><text fill="#000000" font-family="sans-serif" font-size="11" lengthAdjust="spacing" textLength="221" x="567" y="547.9189">calculate(raw_input: unknown) : float[3]</text><rect fill="#F24D5C" height="6" style="stroke:#C82930;stroke-width:1.0;" width="6" x="555" y="554.5131"/><text fill="#000000" font-family="sans-serif" font-size="11" lengthAdjust="spacing" textLength="184" x="567" y="560.7236">save(position: float[3]) : boolean</text><line style="stroke:#A80036;stroke-width:1.5;" x1="548" x2="626" y1="531.3061" y2="531.3061"/><text fill="#000000" font-family="sans-serif" font-size="11" lengthAdjust="spacing" textLength="94" x="626" y="534.6142">private methods</text><line style="stroke:#A80036;stroke-width:1.5;" x1="720" x2="798" y1="531.3061" y2="531.3061"/><path d="M842.5,484.185 L842.5,492.685 L807.196,496.685 L842.5,500.685 L842.5,509.3178 A0,0 0 0 0 842.5,509.3178 L1089.5,509.3178 A0,0 0 0 0 1089.5,509.3178 L1089.5,494.185 L1079.5,484.185 L842.5,484.185 A0,0 0 0 0 842.5,484.185 " fill="#FBFB77" filter="url(#fo3nbs9l48ja6)" style="stroke:#A80036;stroke-width:1.0;"/><path d="M1079.5,484.185 L1079.5,494.185 L1089.5,494.185 L1079.5,484.185 " fill="#FBFB77" style="stroke:#A80036;stroke-width:1.0;"/><text fill="#000000" font-family="sans-serif" font-size="13" lengthAdjust="spacing" textLength="226" x="848.5" y="501.2519">Typ von raw_input noch unbekannt</text><!--MD5=[90447d4191c16dafea1a917a3aa79093]
class ZoomBild--><rect codeLine="84" fill="#FEFECE" filter="url(#fo3nbs9l48ja6)" height="60.8047" id="ZoomBild" style="stroke:#A80036;stroke-width:1.5;" width="205" x="891.5" y="648.685"/><ellipse cx="960.75" cy="664.685" fill="#ADD1B2" rx="11" ry="11" style="stroke:#A80036;stroke-width:1.0;"/><path d="M963.0938,660.3569 C962.1563,659.9194 961.5625,659.7788 960.6875,659.7788 C958.0625,659.7788 956.0625,661.8569 956.0625,664.5756 L956.0625,665.7006 C956.0625,668.2788 958.1719,670.1694 961.0625,670.1694 C962.2813,670.1694 963.4375,669.8725 964.1875,669.3256 C964.7656,668.9194 965.0938,668.4663 965.0938,668.0756 C965.0938,667.6225 964.7031,667.2319 964.2344,667.2319 C964.0156,667.2319 963.8125,667.31 963.625,667.4975 C963.1719,667.9819 963.1719,667.9819 962.9844,668.0756 C962.5625,668.3413 961.875,668.4663 961.1094,668.4663 C959.0625,668.4663 957.7656,667.3725 957.7656,665.6694 L957.7656,664.5756 C957.7656,662.7944 959.0156,661.4819 960.75,661.4819 C961.3281,661.4819 961.9375,661.6381 962.4063,661.8881 C962.8906,662.1694 963.0625,662.3881 963.1563,662.7944 C963.2188,663.2006 963.25,663.3256 963.3906,663.4506 C963.5313,663.5913 963.7656,663.7006 963.9844,663.7006 C964.25,663.7006 964.5156,663.56 964.6875,663.3413 C964.7969,663.185 964.8281,662.9975 964.8281,662.5756 L964.8281,661.1538 C964.8281,660.7163 964.8125,660.5913 964.7188,660.435 C964.5625,660.1694 964.2813,660.0288 963.9844,660.0288 C963.6875,660.0288 963.4844,660.1225 963.2656,660.435 L963.0938,660.3569 Z " fill="#000000"/><text fill="#000000" font-family="sans-serif" font-size="12" lengthAdjust="spacing" textLength="58" x="981.25" y="668.8393">ZoomBild</text><line style="stroke:#A80036;stroke-width:1.5;" x1="892.5" x2="1095.5" y1="680.685" y2="680.685"/><line style="stroke:#A80036;stroke-width:1.5;" x1="892.5" x2="1095.5" y1="688.685" y2="688.685"/><ellipse cx="902.5" cy="699.685" fill="#84BE84" rx="3" ry="3" style="stroke:#038048;stroke-width:1.0;"/><text fill="#000000" font-family="sans-serif" font-size="11" lengthAdjust="spacing" textLength="179" x="911.5" y="702.8954">move(position: float[3]): float[3]</text><polygon fill="#FFFFFF" filter="url(#fo3nbs9l48ja6)" points="16,95.185,74,95.185,81,117.4819,88,117.4819,88,147.7787,16,147.7787,16,95.185" style="stroke:#000000;stroke-width:1.5;"/><line style="stroke:#000000;stroke-width:1.5;" x1="16" x2="81" y1="117.4819" y2="117.4819"/><text fill="#000000" font-family="sans-serif" font-size="14" font-weight="bold" lengthAdjust="spacing" textLength="52" x="20" y="110.1801">Config</text><polygon fill="#FFFFFF" filter="url(#fo3nbs9l48ja6)" points="233,652.185,371,652.185,378,674.4819,385,674.4819,385,704.7788,233,704.7788,233,652.185" style="stroke:#000000;stroke-width:1.5;"/><line style="stroke:#000000;stroke-width:1.5;" x1="233" x2="378" y1="674.4819" y2="674.4819"/><text fill="#000000" font-family="sans-serif" font-size="14" font-weight="bold" lengthAdjust="spacing" textLength="132" x="237" y="667.1801">SpeicherMedium</text><!--MD5=[abea0b42432aea0f9ce66e53feda8644]
entity System--><ellipse cx="1330" cy="327.685" fill="#DA70D5" filter="url(#fo3nbs9l48ja6)" rx="8" ry="8" style="stroke:#A80036;stroke-width:1.5;"/><text fill="#000000" font-family="sans-serif" font-size="14" lengthAdjust="spacing" textLength="54" x="1303" y="357.6801">System</text><!--MD5=[fccc419d627b37790932ddb688fb7ad6]
class Tutorial--><rect codeLine="6" fill="#FEFECE" filter="url(#fo3nbs9l48ja6)" height="167.2422" id="Tutorial" style="stroke:#A80036;stroke-width:1.5;" width="236" x="522" y="38.685"/><ellipse cx="567.75" cy="54.685" fill="#A9DCDF" rx="11" ry="11" style="stroke:#A80036;stroke-width:1.0;"/><path d="M569.8281,56.4975 L570.2188,57.4819 L569.8281,57.4819 C569.375,57.4819 569.2656,57.4975 569.1094,57.6069 C568.8594,57.7631 568.7031,58.0444 568.7031,58.3412 C568.7031,58.6069 568.8438,58.8569 569.0625,59.0131 C569.2031,59.1381 569.4063,59.185 569.8281,59.185 L572.1875,59.185 C572.5469,59.185 572.7656,59.1537 572.9063,59.06 C573.1563,58.9194 573.3125,58.6225 573.3125,58.3412 C573.3125,58.06 573.1719,57.81 572.9531,57.6537 C572.7813,57.5131 572.625,57.4819 572.1563,57.4819 L568.7656,49.2787 L565.0938,49.2787 C564.6406,49.2787 564.5156,49.2944 564.3594,49.3881 C564.1094,49.56 563.9531,49.8412 563.9531,50.1225 C563.9531,50.4037 564.0938,50.6537 564.3125,50.8256 C564.4844,50.935 564.6563,50.9662 565.0938,50.9662 L566.1719,50.9662 L563.5313,57.4819 C563.1094,57.4819 562.9531,57.4975 562.7969,57.6069 C562.5469,57.7631 562.3906,58.0444 562.3906,58.3412 C562.3906,58.9037 562.7656,59.185 563.5156,59.185 L565.7813,59.185 C566.1406,59.185 566.3594,59.1537 566.4844,59.06 C566.75,58.9194 566.8906,58.6225 566.8906,58.3412 C566.8906,58.06 566.7656,57.81 566.5469,57.6381 C566.375,57.5131 566.2344,57.4819 565.7813,57.4819 L565.3906,57.4819 L565.7813,56.4975 L569.8281,56.4975 Z M569.125,54.7944 L566.4531,54.7944 L567.7969,51.5287 L569.125,54.7944 Z " fill="#000000"/><text fill="#000000" font-family="sans-serif" font-size="12" font-style="italic" lengthAdjust="spacing" textLength="45" x="588.25" y="58.8393">Tutorial</text><rect fill="#FFFFFF" height="15.9688" style="stroke:#000000;stroke-width:1.0;stroke-dasharray:2.0,2.0;" width="89" x="672" y="35.685"/><text fill="#000000" font-family="sans-serif" font-size="12" font-style="italic" lengthAdjust="spacing" textLength="87" x="673" y="47.8237">t: TutorialType</text><line style="stroke:#A80036;stroke-width:1.5;" x1="523" x2="757" y1="70.685" y2="70.685"/><rect fill="none" height="6" style="stroke:#C82930;stroke-width:1.0;" width="6" x="530" y="78.685"/><text fill="#000000" font-family="sans-serif" font-size="11" lengthAdjust="spacing" textLength="82" x="542" y="84.8954">t: TutorialType</text><ellipse cx="533" cy="111.2944" fill="#84BE84" rx="3" ry="3" style="stroke:#038048;stroke-width:1.0;"/><text fill="#000000" font-family="sans-serif" font-size="11" lengthAdjust="spacing" textLength="68" x="542" y="114.5048">start() : void</text><line style="stroke:#A80036;stroke-width:1.5;" x1="523" x2="599.5" y1="97.892" y2="97.892"/><text fill="#000000" font-family="sans-serif" font-size="11" lengthAdjust="spacing" textLength="81" x="599.5" y="101.2001">public method</text><line style="stroke:#A80036;stroke-width:1.5;" x1="680.5" x2="757" y1="97.892" y2="97.892"/><rect fill="#F24D5C" height="6" style="stroke:#C82930;stroke-width:1.0;" width="6" x="530" y="137.9037"/><text fill="#000000" font-family="sans-serif" font-size="11" lengthAdjust="spacing" textLength="151" x="542" y="144.1142">getConfigState() : boolean</text><rect fill="#F24D5C" height="6" style="stroke:#C82930;stroke-width:1.0;" width="6" x="530" y="150.7084"/><text fill="#000000" font-family="sans-serif" font-size="11" lengthAdjust="spacing" textLength="210" x="542" y="156.9189">setConfigState(state: boolean) : void</text><rect fill="#F24D5C" height="6" style="stroke:#C82930;stroke-width:1.0;" width="6" x="530" y="163.5131"/><text fill="#000000" font-family="sans-serif" font-size="11" lengthAdjust="spacing" textLength="94" x="542" y="169.7236">show() : boolean</text><line style="stroke:#A80036;stroke-width:1.5;" x1="523" x2="593" y1="127.5014" y2="127.5014"/><text fill="#000000" font-family="sans-serif" font-size="11" lengthAdjust="spacing" textLength="94" x="593" y="130.8095">private methods</text><line style="stroke:#A80036;stroke-width:1.5;" x1="687" x2="757" y1="127.5014" y2="127.5014"/><rect fill="#F24D5C" height="6" style="stroke:#C82930;stroke-width:1.0;" width="6" x="530" y="193.1225"/><text fill="#000000" font-family="sans-serif" font-size="11" font-style="italic" lengthAdjust="spacing" textLength="84" x="542" y="199.3329">tutorial() : void</text><line style="stroke:#A80036;stroke-width:1.5;" x1="523" x2="590.5" y1="182.7202" y2="182.7202"/><text fill="#000000" font-family="sans-serif" font-size="11" lengthAdjust="spacing" textLength="99" x="590.5" y="186.0283">abstract methods</text><line style="stroke:#A80036;stroke-width:1.5;" x1="689.5" x2="757" y1="182.7202" y2="182.7202"/><!--MD5=[b51717a605764d924c74fe29f3a07c77]
class TutorialType--><rect codeLine="18" fill="#FEFECE" filter="url(#fo3nbs9l48ja6)" height="86.4141" id="TutorialType" style="stroke:#A80036;stroke-width:1.5;" width="106" x="801" y="78.685"/><ellipse cx="816" cy="94.685" fill="#EB937F" rx="11" ry="11" style="stroke:#A80036;stroke-width:1.0;"/><path d="M814.7969,95.56 L816.25,95.56 L816.25,95.6694 C816.25,96.0756 816.2813,96.2319 816.3594,96.3881 C816.5156,96.6381 816.7969,96.7944 817.0938,96.7944 C817.3438,96.7944 817.6094,96.6537 817.7656,96.435 C817.8906,96.2787 817.9219,96.1225 817.9219,95.6694 L817.9219,93.7475 C817.9219,93.5912 817.9219,93.5444 817.9063,93.3881 C817.8438,92.9194 817.5313,92.6069 817.0781,92.6069 C816.8281,92.6069 816.5625,92.7475 816.3906,92.9662 C816.2813,93.1381 816.25,93.2944 816.25,93.7475 L816.25,93.8725 L814.7969,93.8725 L814.7969,91.4662 L818.7813,91.4662 L818.7813,92.3256 C818.7813,92.7319 818.8125,92.9037 818.8906,93.06 C819.0625,93.31 819.3438,93.4662 819.625,93.4662 C819.8906,93.4662 820.1563,93.3256 820.3281,93.1069 C820.4375,92.935 820.4688,92.7944 820.4688,92.3256 L820.4688,89.7787 L812.8438,89.7787 C812.4063,89.7787 812.2813,89.7944 812.125,89.8881 C811.875,90.0444 811.7188,90.3412 811.7188,90.6225 C811.7188,90.9037 811.8594,91.1537 812.0781,91.3256 C812.2344,91.435 812.4219,91.4662 812.8438,91.4662 L813.0938,91.4662 L813.0938,97.9819 L812.8438,97.9819 C812.4375,97.9819 812.2813,97.9975 812.125,98.1069 C811.875,98.2787 811.7188,98.5444 811.7188,98.8412 C811.7188,99.1069 811.8594,99.3569 812.0781,99.5131 C812.2188,99.6381 812.4531,99.685 812.8438,99.685 L820.8438,99.685 L820.8438,97.1069 C820.8438,96.6694 820.8125,96.5287 820.7344,96.3725 C820.5625,96.1225 820.2813,95.9662 820,95.9662 C819.7344,95.9662 819.4688,96.0756 819.2969,96.3256 C819.1875,96.4819 819.1563,96.6225 819.1563,97.1069 L819.1563,97.9819 L814.7969,97.9819 L814.7969,95.56 Z " fill="#000000"/><text fill="#000000" font-family="sans-serif" font-size="12" lengthAdjust="spacing" textLength="74" x="830" y="98.8393">TutorialType</text><line style="stroke:#A80036;stroke-width:1.5;" x1="802" x2="906" y1="110.685" y2="110.685"/><text fill="#000000" font-family="sans-serif" font-size="11" lengthAdjust="spacing" textLength="35" x="807" y="124.8954">ZOOM</text><text fill="#000000" font-family="sans-serif" font-size="11" lengthAdjust="spacing" textLength="78" x="807" y="137.7001">EYETRACKING</text><text fill="#000000" font-family="sans-serif" font-size="11" lengthAdjust="spacing" textLength="79" x="807" y="150.5048">CODECHARTS</text><line style="stroke:#A80036;stroke-width:1.5;" x1="802" x2="906" y1="157.0991" y2="157.0991"/><path d="M123.5,61.185 L123.5,86.3178 A0,0 0 0 0 123.5,86.3178 L413.5,86.3178 A0,0 0 0 0 413.5,86.3178 L413.5,79.185 L526,110.6967 L413.5,71.185 L413.5,71.185 L403.5,61.185 L123.5,61.185 A0,0 0 0 0 123.5,61.185 " fill="#FBFB77" filter="url(#fo3nbs9l48ja6)" style="stroke:#A80036;stroke-width:1.0;"/><path d="M403.5,61.185 L403.5,71.185 L413.5,71.185 L403.5,61.185 " fill="#FBFB77" style="stroke:#A80036;stroke-width:1.0;"/><text fill="#000000" font-family="sans-serif" font-size="13" lengthAdjust="spacing" textLength="269" x="129.5" y="78.2519">Startet Tutorial, beinhaltet interne Aufrufe</text><path d="M123.5,96.3178 L123.5,136.5834 A0,0 0 0 0 123.5,136.5834 L413.5,136.5834 A0,0 0 0 0 413.5,136.5834 L413.5,120.4506 L526,140.3061 L413.5,112.4506 L413.5,106.3178 L403.5,96.3178 L123.5,96.3178 A0,0 0 0 0 123.5,96.3178 " fill="#FBFB77" filter="url(#fo3nbs9l48ja6)" style="stroke:#A80036;stroke-width:1.0;"/><path d="M403.5,96.3178 L403.5,106.3178 L413.5,106.3178 L403.5,96.3178 " fill="#FBFB77" style="stroke:#A80036;stroke-width:1.0;"/><text fill="#000000" font-family="sans-serif" font-size="13" lengthAdjust="spacing" textLength="269" x="129.5" y="113.3847">Sendet eine Anfrage an das Config-Modul,</text><text fill="#000000" font-family="sans-serif" font-size="13" lengthAdjust="spacing" textLength="206" x="129.5" y="128.5175">abhängig vom Typ des Tutorials</text><path d="M123.5,146.5834 L123.5,171.7162 A0,0 0 0 0 123.5,171.7162 L478.5,171.7162 A0,0 0 0 0 478.5,171.7162 L478.5,164.5834 L526,195.5248 L478.5,156.5834 L478.5,156.5834 L468.5,146.5834 L123.5,146.5834 A0,0 0 0 0 123.5,146.5834 " fill="#FBFB77" filter="url(#fo3nbs9l48ja6)" style="stroke:#A80036;stroke-width:1.0;"/><path d="M468.5,146.5834 L468.5,156.5834 L478.5,156.5834 L468.5,146.5834 " fill="#FBFB77" style="stroke:#A80036;stroke-width:1.0;"/><text fill="#000000" font-family="sans-serif" font-size="13" lengthAdjust="spacing" textLength="334" x="129.5" y="163.6503">Beinhaltet eigentliche Implementierung der Tutorials</text><!--MD5=[626b00d2609f42ba755c8afb6d5f2b59]
class Bild--><rect codeLine="43" fill="#FEFECE" filter="url(#fo3nbs9l48ja6)" height="73.6094" id="Bild" style="stroke:#A80036;stroke-width:1.5;" width="147" x="1245.5" y="459.685"/><ellipse cx="1303.75" cy="475.685" fill="#A9DCDF" rx="11" ry="11" style="stroke:#A80036;stroke-width:1.0;"/><path d="M1305.8281,477.4975 L1306.2188,478.4819 L1305.8281,478.4819 C1305.375,478.4819 1305.2656,478.4975 1305.1094,478.6069 C1304.8594,478.7631 1304.7031,479.0444 1304.7031,479.3412 C1304.7031,479.6069 1304.8438,479.8569 1305.0625,480.0131 C1305.2031,480.1381 1305.4063,480.185 1305.8281,480.185 L1308.1875,480.185 C1308.5469,480.185 1308.7656,480.1537 1308.9063,480.06 C1309.1563,479.9194 1309.3125,479.6225 1309.3125,479.3412 C1309.3125,479.06 1309.1719,478.81 1308.9531,478.6537 C1308.7813,478.5131 1308.625,478.4819 1308.1563,478.4819 L1304.7656,470.2787 L1301.0938,470.2787 C1300.6406,470.2787 1300.5156,470.2944 1300.3594,470.3881 C1300.1094,470.56 1299.9531,470.8412 1299.9531,471.1225 C1299.9531,471.4037 1300.0938,471.6537 1300.3125,471.8256 C1300.4844,471.935 1300.6563,471.9662 1301.0938,471.9662 L1302.1719,471.9662 L1299.5313,478.4819 C1299.1094,478.4819 1298.9531,478.4975 1298.7969,478.6069 C1298.5469,478.7631 1298.3906,479.0444 1298.3906,479.3412 C1298.3906,479.9037 1298.7656,480.185 1299.5156,480.185 L1301.7813,480.185 C1302.1406,480.185 1302.3594,480.1537 1302.4844,480.06 C1302.75,479.9194 1302.8906,479.6225 1302.8906,479.3412 C1302.8906,479.06 1302.7656,478.81 1302.5469,478.6381 C1302.375,478.5131 1302.2344,478.4819 1301.7813,478.4819 L1301.3906,478.4819 L1301.7813,477.4975 L1305.8281,477.4975 Z M1305.125,475.7944 L1302.4531,475.7944 L1303.7969,472.5287 L1305.125,475.7944 Z " fill="#000000"/><text fill="#000000" font-family="sans-serif" font-size="12" font-style="italic" lengthAdjust="spacing" textLength="22" x="1324.25" y="479.8393">Bild</text><line style="stroke:#A80036;stroke-width:1.5;" x1="1246.5" x2="1391.5" y1="491.685" y2="491.685"/><line style="stroke:#A80036;stroke-width:1.5;" x1="1246.5" x2="1391.5" y1="499.685" y2="499.685"/><ellipse cx="1256.5" cy="510.685" fill="#84BE84" rx="3" ry="3" style="stroke:#038048;stroke-width:1.0;"/><text fill="#000000" font-family="sans-serif" font-size="11" lengthAdjust="spacing" textLength="121" x="1265.5" y="513.8954">load(url: String) : void</text><ellipse cx="1256.5" cy="523.4897" fill="#84BE84" rx="3" ry="3" style="stroke:#038048;stroke-width:1.0;"/><text fill="#000000" font-family="sans-serif" font-size="11" lengthAdjust="spacing" textLength="72" x="1265.5" y="526.7001">show() : void</text><!--MD5=[752ada4883e89279aa677b65655ebc35]
link Tutorial$$$LEFT to Tutorial--><!--MD5=[b7b30a6ba3bc0d032df5bb8d6b41e119]
link Tutorial to TutorialType--><path codeLine="37" d="M759,80.685 C769.905,80.685 780.973,83.032 791.501,86.603 " fill="none" id="Tutorial-TutorialType" style="stroke:#A80036;stroke-width:1.0;"/><line style="stroke:#A80036;stroke-width:1.0;" x1="791.501" x2="800.998" y1="86.603" y2="90.194"/><!--MD5=[c70e8cd4ad994e8ed3a66054848cf139]
link Config to Tutorial--><path codeLine="38" d="M60.7404,94.961 C70.9842,68.994 90.8452,31.765 123.5,19.685 C160.494,6 440.61,8.721 478.5,19.685 C491.401,23.418 504.263,28.523 516.774,34.472 " fill="none" id="Config-Tutorial" style="stroke:#A80036;stroke-width:1.0;"/><!--MD5=[91cffcbb8234028742b6ac8b9b57d54f]
reverse link Bild to ZoomBild--><path codeLine="90" d="M1260.43,546.224 C1250.23,553.806 1239.51,561.25 1229,567.685 C1180.31,597.501 1122.22,624.757 1075.98,644.68 " fill="none" id="Bild-backto-ZoomBild" style="stroke:#A80036;stroke-width:1.0;"/><polygon fill="none" points="1256.34,540.54,1276.47,533.908,1264.87,551.643,1256.34,540.54" style="stroke:#A80036;stroke-width:1.0;"/><!--MD5=[74bcaaa80c1f5666ddc668b1a184278c]
reverse link Tutorial to ZoomTutorial--><path codeLine="91" d="M556.71,224.428 C535.047,250.892 513.364,277.378 497.496,296.762 " fill="none" id="Tutorial-backto-ZoomTutorial" style="stroke:#A80036;stroke-width:1.0;"/><polygon fill="none" points="551.334,219.945,569.419,208.904,562.167,228.814,551.334,219.945" style="stroke:#A80036;stroke-width:1.0;"/><!--MD5=[2708804abe4d1091750fa48cfee7ac00]
link ZoomInput to ZoomCalculator--><path codeLine="94" d="M1098.76,358.043 C1093.16,360.453 1087.52,362.716 1082,364.685 C971.439,404.157 909.93,344.638 825,425.685 C795.895,453.46 840.231,512.685 800,512.685 " fill="none" id="ZoomInput-ZoomCalculator" style="stroke:#A80036;stroke-width:1.0;"/><!--MD5=[d14beb75e4877be6f65874a887b5bf30]
link ZoomCalculator to ZoomBild--><path codeLine="95" d="M800,512.685 C826.851,512.685 813.401,543.468 825,567.685 C853.161,626.483 825.806,698.685 891,698.685 " fill="none" id="ZoomCalculator-ZoomBild" style="stroke:#A80036;stroke-width:1.0;"/><polygon fill="#000000" points="844.1973,610.7427,842.8622,601.3263,837.5824,603.9094,844.1973,610.7427" style="stroke:#000000;stroke-width:1.0;"/><text fill="#000000" font-family="sans-serif" font-size="13" lengthAdjust="spacing" textLength="44" x="851" y="610.7519">moves</text><!--MD5=[ab94cbc2495622a03fec4b24390f5618]
link ZoomCalculator to SpeicherMedium--><path codeLine="98" d="M546,553.685 C461.948,553.685 378.276,615.672 336.464,651.9921 " fill="none" id="ZoomCalculator-SpeicherMedium" style="stroke:#A80036;stroke-width:1.0;"/><polygon fill="#000000" points="406.4734,608.3751,415.9104,607.1939,413.4138,601.8726,406.4734,608.3751" style="stroke:#000000;stroke-width:1.0;"/><text fill="#000000" font-family="sans-serif" font-size="13" lengthAdjust="spacing" textLength="73" x="420" y="610.7519">saves Data</text><!--MD5=[1dd3167bd21ea9adc9b14ed1a4dd4238]
link Config to ZoomCalculator--><path codeLine="99" d="M64.3537,148.422 C73.966,166.666 88.578,190.954 106,208.685 C265.674,371.194 318.173,471.685 546,471.685 " fill="none" id="Config-ZoomCalculator" style="stroke:#A80036;stroke-width:1.0;"/><polygon fill="#000000" points="266.1516,330.5378,260.2791,323.0569,257.0035,327.9374,266.1516,330.5378" style="stroke:#000000;stroke-width:1.0;"/><text fill="#000000" font-family="sans-serif" font-size="13" lengthAdjust="spacing" textLength="39" x="271" y="332.2519">speed</text><!--MD5=[917d2dfaeb525f74b5c3c05af4a701f0]
link ZoomInput to System--><path codeLine="100" d="M1213.46,327.685 C1252.66,327.685 1300.94,327.685 1320.8,327.685 " fill="none" id="ZoomInput-System" style="stroke:#A80036;stroke-width:1.0;"/><polygon fill="#000000" points="1240.5,316.2514,1231.4549,313.3125,1231.4549,319.1903,1240.5,316.2514" style="stroke:#000000;stroke-width:1.0;"/><text fill="#000000" font-family="sans-serif" font-size="13" lengthAdjust="spacing" textLength="58" x="1244.5" y="320.7519">listens to</text><!--MD5=[20105382e4288f19da5b8bb2bbd4879d]
@startuml
' skinparam backgroundColor transparent
() System #DA70D5
top to bottom direction

' - - - TUTORIAL - - -
abstract Tutorial<t: TutorialType> {
  - t: TutorialType
  __public method__
  + start() : void
  __private methods__
  - getConfigState() : boolean
  - setConfigState(state: boolean) : void
  - show() : boolean
  __abstract methods__
  - {abstract} tutorial() : void
}

enum TutorialType {
  ZOOM
  EYETRACKING
  CODECHARTS
}

' Notes
note left of Tutorial::start
    Startet Tutorial, beinhaltet interne Aufrufe
end note
note left of Tutorial::getConfigState
    Sendet eine Anfrage an das Config-Modul,
    abhängig vom Typ des Tutorials
end note
note left of Tutorial::tutorial
    Beinhaltet eigentliche Implementierung der Tutorials
end note

' Interaktionen
Tutorial::t -r- TutorialType
Tutorial -l- Config


' - - - BILD - - -

abstract Bild {
  + load(url: String) : void
  + show() : void
}

' === ZOOM MAPS ===
package ZoomMaps {

    ' Zoom Input
    class ZoomInput {
        - onClick() : void
        - onScroll() : void
    }

    ' Notiz
    note left of ZoomInput
        Kann sich noch ändern, je nachdem wie Schnittstelle zum System aussieht
    end note

    ' Zoom Tutorial 
    class ZoomTutorial {
        - tutorial() : void
    }
  
    ' Zoom Calculator
    class ZoomCalculator {
        - speed: float
        - position: float[3]
        __public method__
        + processInput(raw_input: unknown) : void
        __private methods__
        - calculate(raw_input: unknown) : float[3]
        - save(position: float[3]) : boolean
    }

    ' Notiz
    note right of ZoomCalculator
        Typ von raw_input noch unbekannt
    end note

    ' Zoom Bild
    class ZoomBild {
        + move(position: float[3]): float[3]
    }


    ' Vererbungen
    Bild <|- - ZoomBild
    Tutorial <|- - ZoomTutorial

    ' Interaktionen
    ZoomInput - - ZoomCalculator::processInput
    ZoomCalculator::processInput  - - ZoomBild::move : > moves

    ' Andere Module
    ZoomCalculator::save - - SpeicherMedium : > saves Data
    ZoomCalculator::speed -l- Config : < speed
    ZoomInput -r- System : > listens to
  
}

' Blackboxen / Andere Module
package Config {}

package SpeicherMedium {}
@enduml

@startuml
() System #DA70D5
top to bottom direction

abstract Tutorial<t: TutorialType> {
  - t: TutorialType
  __public method__
  + start() : void
  __private methods__
  - getConfigState() : boolean
  - setConfigState(state: boolean) : void
  - show() : boolean
  __abstract methods__
  - {abstract} tutorial() : void
}

enum TutorialType {
  ZOOM
  EYETRACKING
  CODECHARTS
}

note left of Tutorial::start
    Startet Tutorial, beinhaltet interne Aufrufe
end note
note left of Tutorial::getConfigState
    Sendet eine Anfrage an das Config-Modul,
    abhängig vom Typ des Tutorials
end note
note left of Tutorial::tutorial
    Beinhaltet eigentliche Implementierung der Tutorials
end note

Tutorial::t -r- TutorialType
Tutorial -l- Config



abstract Bild {
  + load(url: String) : void
  + show() : void
}

package ZoomMaps {

    class ZoomInput {
        - onClick() : void
        - onScroll() : void
    }

    note left of ZoomInput
        Kann sich noch ändern, je nachdem wie Schnittstelle zum System aussieht
    end note

    class ZoomTutorial {
        - tutorial() : void
    }
  
    class ZoomCalculator {
        - speed: float
        - position: float[3]
        __public method__
        + processInput(raw_input: unknown) : void
        __private methods__
        - calculate(raw_input: unknown) : float[3]
        - save(position: float[3]) : boolean
    }

    note right of ZoomCalculator
        Typ von raw_input noch unbekannt
    end note

    class ZoomBild {
        + move(position: float[3]): float[3]
    }


    Bild <|- - ZoomBild
    Tutorial <|- - ZoomTutorial

    ZoomInput - - ZoomCalculator::processInput
    ZoomCalculator::processInput  - - ZoomBild::move : > moves

    ZoomCalculator::save - - SpeicherMedium : > saves Data
    ZoomCalculator::speed -l- Config : < speed
    ZoomInput -r- System : > listens to
  
}

package Config {}

package SpeicherMedium {}
@enduml

PlantUML version 1.2021.13beta8(Unknown compile time)
(GPL source distribution)
Java Runtime: Java(TM) SE Runtime Environment
JVM: Java HotSpot(TM) 64-Bit Server VM
Default Encoding: UTF-8
Language: en
Country: US
--></g></svg>