<?xml version="1.0" encoding="UTF-8" standalone="no"?><svg xmlns="http://www.w3.org/2000/svg" xmlns:xlink="http://www.w3.org/1999/xlink" contentScriptType="application/ecmascript" contentStyleType="text/css" height="878px" preserveAspectRatio="none" style="width:802px;height:878px;background:#FFFFFF;" version="1.1" viewBox="0 0 802 878" width="802px" zoomAndPan="magnify"><defs><filter height="300%" id="ft122s56ox3ng" width="300%" x="-1" y="-1"><feGaussianBlur result="blurOut" stdDeviation="2.0"/><feColorMatrix in="blurOut" result="blurOut2" type="matrix" values="0 0 0 0 0 0 0 0 0 0 0 0 0 0 0 0 0 0 .4 0"/><feOffset dx="4.0" dy="4.0" in="blurOut2" result="blurOut3"/><feBlend in="SourceGraphic" in2="blurOut3" mode="normal"/></filter></defs><g><!--MD5=[a55135535b5c544b99c33b17428c3b14]
cluster Util--><polygon fill="#FFFFFF" filter="url(#ft122s56ox3ng)" points="16,6,51,6,58,28.2969,469,28.2969,469,371,16,371,16,6" style="stroke:#000000;stroke-width:1.5;"/><line style="stroke:#000000;stroke-width:1.5;" x1="16" x2="58" y1="28.2969" y2="28.2969"/><text fill="#000000" font-family="sans-serif" font-size="14" font-weight="bold" lengthAdjust="spacing" textLength="29" x="20" y="20.9951">Util</text><!--MD5=[7d78d958a1816327b68dab5e38143fdd]
cluster ZoomMaps--><polygon fill="#FFFFFF" filter="url(#ft122s56ox3ng)" points="133,404,228,404,235,426.2969,667,426.2969,667,756,133,756,133,404" style="stroke:#000000;stroke-width:1.5;"/><line style="stroke:#000000;stroke-width:1.5;" x1="133" x2="235" y1="426.2969" y2="426.2969"/><text fill="#000000" font-family="sans-serif" font-size="14" font-weight="bold" lengthAdjust="spacing" textLength="89" x="137" y="418.9951">ZoomMaps</text><!--MD5=[fccc419d627b37790932ddb688fb7ad6]
class Tutorial--><rect codeLine="7" fill="#FEFECE" filter="url(#ft122s56ox3ng)" height="167.2422" id="Tutorial" style="stroke:#A80036;stroke-width:1.5;" width="236" x="87" y="188"/><ellipse cx="143.25" cy="204" fill="#A9DCDF" rx="11" ry="11" style="stroke:#A80036;stroke-width:1.0;"/><path d="M145.3281,205.8125 L145.7188,206.7969 L145.3281,206.7969 C144.875,206.7969 144.7656,206.8125 144.6094,206.9219 C144.3594,207.0781 144.2031,207.3594 144.2031,207.6563 C144.2031,207.9219 144.3438,208.1719 144.5625,208.3281 C144.7031,208.4531 144.9063,208.5 145.3281,208.5 L147.6875,208.5 C148.0469,208.5 148.2656,208.4688 148.4063,208.375 C148.6563,208.2344 148.8125,207.9375 148.8125,207.6563 C148.8125,207.375 148.6719,207.125 148.4531,206.9688 C148.2813,206.8281 148.125,206.7969 147.6563,206.7969 L144.2656,198.5938 L140.5938,198.5938 C140.1406,198.5938 140.0156,198.6094 139.8594,198.7031 C139.6094,198.875 139.4531,199.1563 139.4531,199.4375 C139.4531,199.7188 139.5938,199.9688 139.8125,200.1406 C139.9844,200.25 140.1563,200.2813 140.5938,200.2813 L141.6719,200.2813 L139.0313,206.7969 C138.6094,206.7969 138.4531,206.8125 138.2969,206.9219 C138.0469,207.0781 137.8906,207.3594 137.8906,207.6563 C137.8906,208.2188 138.2656,208.5 139.0156,208.5 L141.2813,208.5 C141.6406,208.5 141.8594,208.4688 141.9844,208.375 C142.25,208.2344 142.3906,207.9375 142.3906,207.6563 C142.3906,207.375 142.2656,207.125 142.0469,206.9531 C141.875,206.8281 141.7344,206.7969 141.2813,206.7969 L140.8906,206.7969 L141.2813,205.8125 L145.3281,205.8125 Z M144.625,204.1094 L141.9531,204.1094 L143.2969,200.8438 L144.625,204.1094 Z " fill="#000000"/><text fill="#000000" font-family="sans-serif" font-size="12" font-style="italic" lengthAdjust="spacing" textLength="45" x="163.75" y="208.1543">Tutorial</text><rect fill="#FFFFFF" height="15.9688" style="stroke:#000000;stroke-width:1.0;stroke-dasharray:2.0,2.0;" width="68" x="258" y="185"/><text fill="#000000" font-family="sans-serif" font-size="12" font-style="italic" lengthAdjust="spacing" textLength="66" x="259" y="197.1387">t: ToolType</text><line style="stroke:#A80036;stroke-width:1.5;" x1="88" x2="322" y1="220" y2="220"/><rect fill="none" height="6" style="stroke:#C82930;stroke-width:1.0;" width="6" x="95" y="228"/><text fill="#000000" font-family="sans-serif" font-size="11" lengthAdjust="spacing" textLength="64" x="107" y="234.2104">t: ToolType</text><ellipse cx="98" cy="260.6094" fill="#84BE84" rx="3" ry="3" style="stroke:#038048;stroke-width:1.0;"/><text fill="#000000" font-family="sans-serif" font-size="11" lengthAdjust="spacing" textLength="68" x="107" y="263.8198">start() : void</text><line style="stroke:#A80036;stroke-width:1.5;" x1="88" x2="164.5" y1="247.207" y2="247.207"/><text fill="#000000" font-family="sans-serif" font-size="11" lengthAdjust="spacing" textLength="81" x="164.5" y="250.5151">public method</text><line style="stroke:#A80036;stroke-width:1.5;" x1="245.5" x2="322" y1="247.207" y2="247.207"/><rect fill="#F24D5C" height="6" style="stroke:#C82930;stroke-width:1.0;" width="6" x="95" y="287.2188"/><text fill="#000000" font-family="sans-serif" font-size="11" lengthAdjust="spacing" textLength="151" x="107" y="293.4292">getConfigState() : boolean</text><rect fill="#F24D5C" height="6" style="stroke:#C82930;stroke-width:1.0;" width="6" x="95" y="300.0234"/><text fill="#000000" font-family="sans-serif" font-size="11" lengthAdjust="spacing" textLength="210" x="107" y="306.2339">setConfigState(state: boolean) : void</text><rect fill="#F24D5C" height="6" style="stroke:#C82930;stroke-width:1.0;" width="6" x="95" y="312.8281"/><text fill="#000000" font-family="sans-serif" font-size="11" lengthAdjust="spacing" textLength="94" x="107" y="319.0386">show() : boolean</text><line style="stroke:#A80036;stroke-width:1.5;" x1="88" x2="158" y1="276.8164" y2="276.8164"/><text fill="#000000" font-family="sans-serif" font-size="11" lengthAdjust="spacing" textLength="94" x="158" y="280.1245">private methods</text><line style="stroke:#A80036;stroke-width:1.5;" x1="252" x2="322" y1="276.8164" y2="276.8164"/><rect fill="#F24D5C" height="6" style="stroke:#C82930;stroke-width:1.0;" width="6" x="95" y="342.4375"/><text fill="#000000" font-family="sans-serif" font-size="11" font-style="italic" lengthAdjust="spacing" textLength="84" x="107" y="348.6479">tutorial() : void</text><line style="stroke:#A80036;stroke-width:1.5;" x1="88" x2="155.5" y1="332.0352" y2="332.0352"/><text fill="#000000" font-family="sans-serif" font-size="11" lengthAdjust="spacing" textLength="99" x="155.5" y="335.3433">abstract methods</text><line style="stroke:#A80036;stroke-width:1.5;" x1="254.5" x2="322" y1="332.0352" y2="332.0352"/><!--MD5=[5c39798b83ace9e75333b1274a725e6c]
class ToolType--><rect codeLine="19" fill="#FEFECE" filter="url(#ft122s56ox3ng)" height="86.4141" id="ToolType" style="stroke:#A80036;stroke-width:1.5;" width="91" x="179.5" y="41"/><ellipse cx="195.85" cy="57" fill="#EB937F" rx="11" ry="11" style="stroke:#A80036;stroke-width:1.0;"/><path d="M194.6469,57.875 L196.1,57.875 L196.1,57.9844 C196.1,58.3906 196.1313,58.5469 196.2094,58.7031 C196.3656,58.9531 196.6469,59.1094 196.9438,59.1094 C197.1938,59.1094 197.4594,58.9688 197.6156,58.75 C197.7406,58.5938 197.7719,58.4375 197.7719,57.9844 L197.7719,56.0625 C197.7719,55.9063 197.7719,55.8594 197.7563,55.7031 C197.6938,55.2344 197.3813,54.9219 196.9281,54.9219 C196.6781,54.9219 196.4125,55.0625 196.2406,55.2813 C196.1313,55.4531 196.1,55.6094 196.1,56.0625 L196.1,56.1875 L194.6469,56.1875 L194.6469,53.7813 L198.6313,53.7813 L198.6313,54.6406 C198.6313,55.0469 198.6625,55.2188 198.7406,55.375 C198.9125,55.625 199.1938,55.7813 199.475,55.7813 C199.7406,55.7813 200.0063,55.6406 200.1781,55.4219 C200.2875,55.25 200.3188,55.1094 200.3188,54.6406 L200.3188,52.0938 L192.6938,52.0938 C192.2563,52.0938 192.1313,52.1094 191.975,52.2031 C191.725,52.3594 191.5688,52.6563 191.5688,52.9375 C191.5688,53.2188 191.7094,53.4688 191.9281,53.6406 C192.0844,53.75 192.2719,53.7813 192.6938,53.7813 L192.9438,53.7813 L192.9438,60.2969 L192.6938,60.2969 C192.2875,60.2969 192.1313,60.3125 191.975,60.4219 C191.725,60.5938 191.5688,60.8594 191.5688,61.1563 C191.5688,61.4219 191.7094,61.6719 191.9281,61.8281 C192.0688,61.9531 192.3031,62 192.6938,62 L200.6938,62 L200.6938,59.4219 C200.6938,58.9844 200.6625,58.8438 200.5844,58.6875 C200.4125,58.4375 200.1313,58.2813 199.85,58.2813 C199.5844,58.2813 199.3188,58.3906 199.1469,58.6406 C199.0375,58.7969 199.0063,58.9375 199.0063,59.4219 L199.0063,60.2969 L194.6469,60.2969 L194.6469,57.875 Z " fill="#000000"/><text fill="#000000" font-family="sans-serif" font-size="12" lengthAdjust="spacing" textLength="56" x="210.15" y="61.1543">ToolType</text><line style="stroke:#A80036;stroke-width:1.5;" x1="180.5" x2="269.5" y1="73" y2="73"/><text fill="#000000" font-family="sans-serif" font-size="11" lengthAdjust="spacing" textLength="35" x="185.5" y="87.2104">ZOOM</text><text fill="#000000" font-family="sans-serif" font-size="11" lengthAdjust="spacing" textLength="78" x="185.5" y="100.0151">EYETRACKING</text><text fill="#000000" font-family="sans-serif" font-size="11" lengthAdjust="spacing" textLength="79" x="185.5" y="112.8198">CODECHARTS</text><line style="stroke:#A80036;stroke-width:1.5;" x1="180.5" x2="269.5" y1="119.4141" y2="119.4141"/><!--MD5=[626b00d2609f42ba755c8afb6d5f2b59]
class Bild--><rect codeLine="32" fill="#FEFECE" filter="url(#ft122s56ox3ng)" height="73.6094" id="Bild" style="stroke:#A80036;stroke-width:1.5;" width="147" x="305.5" y="47"/><ellipse cx="363.75" cy="63" fill="#A9DCDF" rx="11" ry="11" style="stroke:#A80036;stroke-width:1.0;"/><path d="M365.8281,64.8125 L366.2188,65.7969 L365.8281,65.7969 C365.375,65.7969 365.2656,65.8125 365.1094,65.9219 C364.8594,66.0781 364.7031,66.3594 364.7031,66.6563 C364.7031,66.9219 364.8438,67.1719 365.0625,67.3281 C365.2031,67.4531 365.4063,67.5 365.8281,67.5 L368.1875,67.5 C368.5469,67.5 368.7656,67.4688 368.9063,67.375 C369.1563,67.2344 369.3125,66.9375 369.3125,66.6563 C369.3125,66.375 369.1719,66.125 368.9531,65.9688 C368.7813,65.8281 368.625,65.7969 368.1563,65.7969 L364.7656,57.5938 L361.0938,57.5938 C360.6406,57.5938 360.5156,57.6094 360.3594,57.7031 C360.1094,57.875 359.9531,58.1563 359.9531,58.4375 C359.9531,58.7188 360.0938,58.9688 360.3125,59.1406 C360.4844,59.25 360.6563,59.2813 361.0938,59.2813 L362.1719,59.2813 L359.5313,65.7969 C359.1094,65.7969 358.9531,65.8125 358.7969,65.9219 C358.5469,66.0781 358.3906,66.3594 358.3906,66.6563 C358.3906,67.2188 358.7656,67.5 359.5156,67.5 L361.7813,67.5 C362.1406,67.5 362.3594,67.4688 362.4844,67.375 C362.75,67.2344 362.8906,66.9375 362.8906,66.6563 C362.8906,66.375 362.7656,66.125 362.5469,65.9531 C362.375,65.8281 362.2344,65.7969 361.7813,65.7969 L361.3906,65.7969 L361.7813,64.8125 L365.8281,64.8125 Z M365.125,63.1094 L362.4531,63.1094 L363.7969,59.8438 L365.125,63.1094 Z " fill="#000000"/><text fill="#000000" font-family="sans-serif" font-size="12" font-style="italic" lengthAdjust="spacing" textLength="22" x="384.25" y="67.1543">Bild</text><line style="stroke:#A80036;stroke-width:1.5;" x1="306.5" x2="451.5" y1="79" y2="79"/><line style="stroke:#A80036;stroke-width:1.5;" x1="306.5" x2="451.5" y1="87" y2="87"/><ellipse cx="316.5" cy="98" fill="#84BE84" rx="3" ry="3" style="stroke:#038048;stroke-width:1.0;"/><text fill="#000000" font-family="sans-serif" font-size="11" lengthAdjust="spacing" textLength="121" x="325.5" y="101.2104">load(url: String) : void</text><ellipse cx="316.5" cy="110.8047" fill="#84BE84" rx="3" ry="3" style="stroke:#038048;stroke-width:1.0;"/><text fill="#000000" font-family="sans-serif" font-size="11" lengthAdjust="spacing" textLength="72" x="325.5" y="114.0151">show() : void</text><!--MD5=[60c9ed31c535bee25c55ce21b5b01399]
class Data--><rect codeLine="37" fill="#FEFECE" filter="url(#ft122s56ox3ng)" height="86.4141" id="Data" style="stroke:#A80036;stroke-width:1.5;" width="112" x="32" y="41"/><ellipse cx="70.85" cy="57" fill="#ADD1B2" rx="11" ry="11" style="stroke:#A80036;stroke-width:1.0;"/><path d="M73.1938,52.6719 C72.2563,52.2344 71.6625,52.0938 70.7875,52.0938 C68.1625,52.0938 66.1625,54.1719 66.1625,56.8906 L66.1625,58.0156 C66.1625,60.5938 68.2719,62.4844 71.1625,62.4844 C72.3813,62.4844 73.5375,62.1875 74.2875,61.6406 C74.8656,61.2344 75.1938,60.7813 75.1938,60.3906 C75.1938,59.9375 74.8031,59.5469 74.3344,59.5469 C74.1156,59.5469 73.9125,59.625 73.725,59.8125 C73.2719,60.2969 73.2719,60.2969 73.0844,60.3906 C72.6625,60.6563 71.975,60.7813 71.2094,60.7813 C69.1625,60.7813 67.8656,59.6875 67.8656,57.9844 L67.8656,56.8906 C67.8656,55.1094 69.1156,53.7969 70.85,53.7969 C71.4281,53.7969 72.0375,53.9531 72.5063,54.2031 C72.9906,54.4844 73.1625,54.7031 73.2563,55.1094 C73.3188,55.5156 73.35,55.6406 73.4906,55.7656 C73.6313,55.9063 73.8656,56.0156 74.0844,56.0156 C74.35,56.0156 74.6156,55.875 74.7875,55.6563 C74.8969,55.5 74.9281,55.3125 74.9281,54.8906 L74.9281,53.4688 C74.9281,53.0313 74.9125,52.9063 74.8188,52.75 C74.6625,52.4844 74.3813,52.3438 74.0844,52.3438 C73.7875,52.3438 73.5844,52.4375 73.3656,52.75 L73.1938,52.6719 Z " fill="#000000"/><text fill="#000000" font-family="sans-serif" font-size="12" lengthAdjust="spacing" textLength="27" x="90.15" y="61.1543">Data</text><line style="stroke:#A80036;stroke-width:1.5;" x1="33" x2="143" y1="73" y2="73"/><ellipse cx="43" cy="84" rx="3" ry="3" style="stroke:#038048;stroke-width:1.0;fill:none;"/><text fill="#000000" font-family="sans-serif" font-size="11" lengthAdjust="spacing" textLength="86" x="52" y="87.2104">type: ToolType</text><ellipse cx="43" cy="96.8047" rx="3" ry="3" style="stroke:#038048;stroke-width:1.0;fill:none;"/><text fill="#000000" font-family="sans-serif" font-size="11" lengthAdjust="spacing" textLength="82" x="52" y="100.0151">data: unknown</text><ellipse cx="43" cy="109.6094" rx="3" ry="3" style="stroke:#038048;stroke-width:1.0;fill:none;"/><text fill="#000000" font-family="sans-serif" font-size="11" lengthAdjust="spacing" textLength="71" x="52" y="112.8198">config_id: int</text><line style="stroke:#A80036;stroke-width:1.5;" x1="33" x2="143" y1="119.4141" y2="119.4141"/><!--MD5=[9767bd966f4d33191914ccb96558e57c]
class ZoomInput--><rect codeLine="50" fill="#FEFECE" filter="url(#ft122s56ox3ng)" height="73.6094" id="ZoomInput" style="stroke:#A80036;stroke-width:1.5;" width="114" x="537" y="439"/><ellipse cx="559.65" cy="455" fill="#ADD1B2" rx="11" ry="11" style="stroke:#A80036;stroke-width:1.0;"/><path d="M561.9938,450.6719 C561.0563,450.2344 560.4625,450.0938 559.5875,450.0938 C556.9625,450.0938 554.9625,452.1719 554.9625,454.8906 L554.9625,456.0156 C554.9625,458.5938 557.0719,460.4844 559.9625,460.4844 C561.1813,460.4844 562.3375,460.1875 563.0875,459.6406 C563.6656,459.2344 563.9938,458.7813 563.9938,458.3906 C563.9938,457.9375 563.6031,457.5469 563.1344,457.5469 C562.9156,457.5469 562.7125,457.625 562.525,457.8125 C562.0719,458.2969 562.0719,458.2969 561.8844,458.3906 C561.4625,458.6563 560.775,458.7813 560.0094,458.7813 C557.9625,458.7813 556.6656,457.6875 556.6656,455.9844 L556.6656,454.8906 C556.6656,453.1094 557.9156,451.7969 559.65,451.7969 C560.2281,451.7969 560.8375,451.9531 561.3063,452.2031 C561.7906,452.4844 561.9625,452.7031 562.0563,453.1094 C562.1188,453.5156 562.15,453.6406 562.2906,453.7656 C562.4313,453.9063 562.6656,454.0156 562.8844,454.0156 C563.15,454.0156 563.4156,453.875 563.5875,453.6563 C563.6969,453.5 563.7281,453.3125 563.7281,452.8906 L563.7281,451.4688 C563.7281,451.0313 563.7125,450.9063 563.6188,450.75 C563.4625,450.4844 563.1813,450.3438 562.8844,450.3438 C562.5875,450.3438 562.3844,450.4375 562.1656,450.75 L561.9938,450.6719 Z " fill="#000000"/><text fill="#000000" font-family="sans-serif" font-size="12" lengthAdjust="spacing" textLength="65" x="575.35" y="459.1543">ZoomInput</text><line style="stroke:#A80036;stroke-width:1.5;" x1="538" x2="650" y1="471" y2="471"/><line style="stroke:#A80036;stroke-width:1.5;" x1="538" x2="650" y1="479" y2="479"/><rect fill="#F24D5C" height="6" style="stroke:#C82930;stroke-width:1.0;" width="6" x="545" y="487"/><text fill="#000000" font-family="sans-serif" font-size="11" lengthAdjust="spacing" textLength="83" x="557" y="493.2104">onClick() : void</text><rect fill="#F24D5C" height="6" style="stroke:#C82930;stroke-width:1.0;" width="6" x="545" y="499.8047"/><text fill="#000000" font-family="sans-serif" font-size="11" lengthAdjust="spacing" textLength="88" x="557" y="506.0151">onScroll() : void</text><!--MD5=[e6f9a0eef67c9f7cee45e688f45a88fd]
class ZoomTutorial--><rect codeLine="56" fill="#FEFECE" filter="url(#ft122s56ox3ng)" height="60.8047" id="ZoomTutorial" style="stroke:#A80036;stroke-width:1.5;" width="112" x="149" y="445.5"/><ellipse cx="164" cy="461.5" fill="#ADD1B2" rx="11" ry="11" style="stroke:#A80036;stroke-width:1.0;"/><path d="M166.3438,457.1719 C165.4063,456.7344 164.8125,456.5938 163.9375,456.5938 C161.3125,456.5938 159.3125,458.6719 159.3125,461.3906 L159.3125,462.5156 C159.3125,465.0938 161.4219,466.9844 164.3125,466.9844 C165.5313,466.9844 166.6875,466.6875 167.4375,466.1406 C168.0156,465.7344 168.3438,465.2813 168.3438,464.8906 C168.3438,464.4375 167.9531,464.0469 167.4844,464.0469 C167.2656,464.0469 167.0625,464.125 166.875,464.3125 C166.4219,464.7969 166.4219,464.7969 166.2344,464.8906 C165.8125,465.1563 165.125,465.2813 164.3594,465.2813 C162.3125,465.2813 161.0156,464.1875 161.0156,462.4844 L161.0156,461.3906 C161.0156,459.6094 162.2656,458.2969 164,458.2969 C164.5781,458.2969 165.1875,458.4531 165.6563,458.7031 C166.1406,458.9844 166.3125,459.2031 166.4063,459.6094 C166.4688,460.0156 166.5,460.1406 166.6406,460.2656 C166.7813,460.4063 167.0156,460.5156 167.2344,460.5156 C167.5,460.5156 167.7656,460.375 167.9375,460.1563 C168.0469,460 168.0781,459.8125 168.0781,459.3906 L168.0781,457.9688 C168.0781,457.5313 168.0625,457.4063 167.9688,457.25 C167.8125,456.9844 167.5313,456.8438 167.2344,456.8438 C166.9375,456.8438 166.7344,456.9375 166.5156,457.25 L166.3438,457.1719 Z " fill="#000000"/><text fill="#000000" font-family="sans-serif" font-size="12" lengthAdjust="spacing" textLength="80" x="178" y="465.6543">ZoomTutorial</text><line style="stroke:#A80036;stroke-width:1.5;" x1="150" x2="260" y1="477.5" y2="477.5"/><line style="stroke:#A80036;stroke-width:1.5;" x1="150" x2="260" y1="485.5" y2="485.5"/><rect fill="#F24D5C" height="6" style="stroke:#C82930;stroke-width:1.0;" width="6" x="157" y="493.5"/><text fill="#000000" font-family="sans-serif" font-size="11" lengthAdjust="spacing" textLength="82" x="169" y="499.7104">tutorial() : void</text><!--MD5=[72b9880496439479a2cac04af8a355bc]
class ZoomCalculator--><rect codeLine="61" fill="#FEFECE" filter="url(#ft122s56ox3ng)" height="150.4375" id="ZoomCalculator" style="stroke:#A80036;stroke-width:1.5;" width="252" x="273" y="590"/><ellipse cx="347.25" cy="606" fill="#ADD1B2" rx="11" ry="11" style="stroke:#A80036;stroke-width:1.0;"/><path d="M349.5938,601.6719 C348.6563,601.2344 348.0625,601.0938 347.1875,601.0938 C344.5625,601.0938 342.5625,603.1719 342.5625,605.8906 L342.5625,607.0156 C342.5625,609.5938 344.6719,611.4844 347.5625,611.4844 C348.7813,611.4844 349.9375,611.1875 350.6875,610.6406 C351.2656,610.2344 351.5938,609.7813 351.5938,609.3906 C351.5938,608.9375 351.2031,608.5469 350.7344,608.5469 C350.5156,608.5469 350.3125,608.625 350.125,608.8125 C349.6719,609.2969 349.6719,609.2969 349.4844,609.3906 C349.0625,609.6563 348.375,609.7813 347.6094,609.7813 C345.5625,609.7813 344.2656,608.6875 344.2656,606.9844 L344.2656,605.8906 C344.2656,604.1094 345.5156,602.7969 347.25,602.7969 C347.8281,602.7969 348.4375,602.9531 348.9063,603.2031 C349.3906,603.4844 349.5625,603.7031 349.6563,604.1094 C349.7188,604.5156 349.75,604.6406 349.8906,604.7656 C350.0313,604.9063 350.2656,605.0156 350.4844,605.0156 C350.75,605.0156 351.0156,604.875 351.1875,604.6563 C351.2969,604.5 351.3281,604.3125 351.3281,603.8906 L351.3281,602.4688 C351.3281,602.0313 351.3125,601.9063 351.2188,601.75 C351.0625,601.4844 350.7813,601.3438 350.4844,601.3438 C350.1875,601.3438 349.9844,601.4375 349.7656,601.75 L349.5938,601.6719 Z " fill="#000000"/><text fill="#000000" font-family="sans-serif" font-size="12" lengthAdjust="spacing" textLength="95" x="367.75" y="610.1543">ZoomCalculator</text><line style="stroke:#A80036;stroke-width:1.5;" x1="274" x2="524" y1="622" y2="622"/><rect fill="none" height="6" style="stroke:#C82930;stroke-width:1.0;" width="6" x="281" y="630"/><text fill="#000000" font-family="sans-serif" font-size="11" lengthAdjust="spacing" textLength="68" x="293" y="636.2104">speed: float</text><rect fill="none" height="6" style="stroke:#C82930;stroke-width:1.0;" width="6" x="281" y="642.8047"/><text fill="#000000" font-family="sans-serif" font-size="11" lengthAdjust="spacing" textLength="91" x="293" y="649.0151">position: float[3]</text><rect fill="none" height="6" style="stroke:#C82930;stroke-width:1.0;" width="6" x="281" y="655.6094"/><text fill="#000000" font-family="sans-serif" font-size="11" lengthAdjust="spacing" textLength="59" x="293" y="661.8198">data: Data</text><ellipse cx="284" cy="688.2188" fill="#84BE84" rx="3" ry="3" style="stroke:#038048;stroke-width:1.0;"/><text fill="#000000" font-family="sans-serif" font-size="11" lengthAdjust="spacing" textLength="226" x="293" y="691.4292">processInput(raw_input: unknown) : void</text><ellipse cx="284" cy="701.0234" fill="#84BE84" rx="3" ry="3" style="stroke:#038048;stroke-width:1.0;"/><text fill="#000000" font-family="sans-serif" font-size="11" lengthAdjust="spacing" textLength="93" x="293" y="704.2339">save() : boolean</text><line style="stroke:#A80036;stroke-width:1.5;" x1="274" x2="358.5" y1="674.8164" y2="674.8164"/><text fill="#000000" font-family="sans-serif" font-size="11" lengthAdjust="spacing" textLength="81" x="358.5" y="678.1245">public method</text><line style="stroke:#A80036;stroke-width:1.5;" x1="439.5" x2="524" y1="674.8164" y2="674.8164"/><rect fill="#F24D5C" height="6" style="stroke:#C82930;stroke-width:1.0;" width="6" x="281" y="727.6328"/><text fill="#000000" font-family="sans-serif" font-size="11" lengthAdjust="spacing" textLength="221" x="293" y="733.8433">calculate(raw_input: unknown) : float[3]</text><line style="stroke:#A80036;stroke-width:1.5;" x1="274" x2="352" y1="717.2305" y2="717.2305"/><text fill="#000000" font-family="sans-serif" font-size="11" lengthAdjust="spacing" textLength="94" x="352" y="720.5386">private methods</text><line style="stroke:#A80036;stroke-width:1.5;" x1="446" x2="524" y1="717.2305" y2="717.2305"/><!--MD5=[90447d4191c16dafea1a917a3aa79093]
class ZoomBild--><rect codeLine="73" fill="#FEFECE" filter="url(#ft122s56ox3ng)" height="60.8047" id="ZoomBild" style="stroke:#A80036;stroke-width:1.5;" width="205" x="296.5" y="445.5"/><ellipse cx="365.75" cy="461.5" fill="#ADD1B2" rx="11" ry="11" style="stroke:#A80036;stroke-width:1.0;"/><path d="M368.0938,457.1719 C367.1563,456.7344 366.5625,456.5938 365.6875,456.5938 C363.0625,456.5938 361.0625,458.6719 361.0625,461.3906 L361.0625,462.5156 C361.0625,465.0938 363.1719,466.9844 366.0625,466.9844 C367.2813,466.9844 368.4375,466.6875 369.1875,466.1406 C369.7656,465.7344 370.0938,465.2813 370.0938,464.8906 C370.0938,464.4375 369.7031,464.0469 369.2344,464.0469 C369.0156,464.0469 368.8125,464.125 368.625,464.3125 C368.1719,464.7969 368.1719,464.7969 367.9844,464.8906 C367.5625,465.1563 366.875,465.2813 366.1094,465.2813 C364.0625,465.2813 362.7656,464.1875 362.7656,462.4844 L362.7656,461.3906 C362.7656,459.6094 364.0156,458.2969 365.75,458.2969 C366.3281,458.2969 366.9375,458.4531 367.4063,458.7031 C367.8906,458.9844 368.0625,459.2031 368.1563,459.6094 C368.2188,460.0156 368.25,460.1406 368.3906,460.2656 C368.5313,460.4063 368.7656,460.5156 368.9844,460.5156 C369.25,460.5156 369.5156,460.375 369.6875,460.1563 C369.7969,460 369.8281,459.8125 369.8281,459.3906 L369.8281,457.9688 C369.8281,457.5313 369.8125,457.4063 369.7188,457.25 C369.5625,456.9844 369.2813,456.8438 368.9844,456.8438 C368.6875,456.8438 368.4844,456.9375 368.2656,457.25 L368.0938,457.1719 Z " fill="#000000"/><text fill="#000000" font-family="sans-serif" font-size="12" lengthAdjust="spacing" textLength="58" x="386.25" y="465.6543">ZoomBild</text><line style="stroke:#A80036;stroke-width:1.5;" x1="297.5" x2="500.5" y1="477.5" y2="477.5"/><line style="stroke:#A80036;stroke-width:1.5;" x1="297.5" x2="500.5" y1="485.5" y2="485.5"/><ellipse cx="307.5" cy="496.5" fill="#84BE84" rx="3" ry="3" style="stroke:#038048;stroke-width:1.0;"/><text fill="#000000" font-family="sans-serif" font-size="11" lengthAdjust="spacing" textLength="179" x="316.5" y="499.7104">move(position: float[3]): float[3]</text><polygon fill="#FFFFFF" filter="url(#ft122s56ox3ng)" points="42,449.5,100,449.5,107,471.7969,114,471.7969,114,502.0938,42,502.0938,42,449.5" style="stroke:#000000;stroke-width:1.5;"/><line style="stroke:#000000;stroke-width:1.5;" x1="42" x2="107" y1="471.7969" y2="471.7969"/><text fill="#000000" font-family="sans-serif" font-size="14" font-weight="bold" lengthAdjust="spacing" textLength="52" x="46" y="464.4951">Config</text><polygon fill="#FFFFFF" filter="url(#ft122s56ox3ng)" points="323,819,461,819,468,841.2969,475,841.2969,475,871.5938,323,871.5938,323,819" style="stroke:#000000;stroke-width:1.5;"/><line style="stroke:#000000;stroke-width:1.5;" x1="323" x2="468" y1="841.2969" y2="841.2969"/><text fill="#000000" font-family="sans-serif" font-size="14" font-weight="bold" lengthAdjust="spacing" textLength="132" x="327" y="833.9951">SpeicherMedium</text><!--MD5=[abea0b42432aea0f9ce66e53feda8644]
entity System--><ellipse cx="768" cy="476" fill="#DA70D5" filter="url(#ft122s56ox3ng)" rx="8" ry="8" style="stroke:#A80036;stroke-width:1.5;"/><text fill="#000000" font-family="sans-serif" font-size="14" lengthAdjust="spacing" textLength="54" x="741" y="505.9951">System</text><!--MD5=[e72ca73ac73eca3f18a81a671fe51a7c]
link ToolType to Tutorial--><path codeLine="26" d="M220.462,127.093 C218.514,145.158 216.167,166.922 213.898,187.974 " fill="none" id="ToolType-Tutorial" style="stroke:#A80036;stroke-width:1.0;"/><!--MD5=[fc4ffdc4bb2ac5a3cd1bd4c856213de4]
link Tutorial to Config--><path codeLine="27" d="M153.161,355.157 C132.036,388.84 109.128,425.367 94.2268,449.127 " fill="none" id="Tutorial-Config" style="stroke:#A80036;stroke-width:1.0;"/><!--MD5=[91cffcbb8234028742b6ac8b9b57d54f]
reverse link Bild to ZoomBild--><path codeLine="79" d="M381.888,141.318 C386.198,225.362 394.161,380.637 397.483,445.413 " fill="none" id="Bild-backto-ZoomBild" style="stroke:#A80036;stroke-width:1.0;"/><polygon fill="none" points="374.897,141.672,380.864,121.34,388.879,140.955,374.897,141.672" style="stroke:#A80036;stroke-width:1.0;"/><!--MD5=[74bcaaa80c1f5666ddc668b1a184278c]
reverse link Tutorial to ZoomTutorial--><path codeLine="80" d="M205,375.201 C205,400.91 205,426.495 205,445.323 " fill="none" id="Tutorial-backto-ZoomTutorial" style="stroke:#A80036;stroke-width:1.0;"/><polygon fill="none" points="198,375.157,205,355.157,212,375.157,198,375.157" style="stroke:#A80036;stroke-width:1.0;"/><!--MD5=[2708804abe4d1091750fa48cfee7ac00]
link ZoomInput to ZoomCalculator--><path codeLine="83" d="M556.402,513.055 C533.714,534.813 503.961,563.345 476.437,589.74 " fill="none" id="ZoomInput-ZoomCalculator" style="stroke:#A80036;stroke-width:1.0;"/><!--MD5=[f1d0f4197788e2c83cd56df3430af640]
link ZoomBild to ZoomCalculator--><path codeLine="84" d="M399,506.631 C399,528.979 399,560.652 399,589.731 " fill="none" id="ZoomBild-ZoomCalculator" style="stroke:#A80036;stroke-width:1.0;"/><polygon fill="#000000" points="404,546.5664,401.0611,555.6115,406.9389,555.6115,404,546.5664" style="stroke:#000000;stroke-width:1.0;"/><text fill="#000000" font-family="sans-serif" font-size="13" lengthAdjust="spacing" textLength="44" x="413" y="556.0669">moves</text><!--MD5=[ab94cbc2495622a03fec4b24390f5618]
link ZoomCalculator to SpeicherMedium--><path codeLine="87" d="M399,740.149 C399,768.119 399,798.1265 399,818.7501 " fill="none" id="ZoomCalculator-SpeicherMedium" style="stroke:#A80036;stroke-width:1.0;"/><polygon fill="#000000" points="404,785.5664,406.9389,776.5213,401.0611,776.5213,404,785.5664" style="stroke:#000000;stroke-width:1.0;"/><text fill="#000000" font-family="sans-serif" font-size="13" lengthAdjust="spacing" textLength="73" x="413" y="785.0669">saves Data</text><!--MD5=[1dd3167bd21ea9adc9b14ed1a4dd4238]
link Config to ZoomCalculator--><path codeLine="88" d="M114.182,501.146 C120.415,505.173 126.863,509.255 133,513 C178.102,540.524 228.328,569.464 272.881,594.56 " fill="none" id="Config-ZoomCalculator" style="stroke:#A80036;stroke-width:1.0;"/><polygon fill="#000000" points="215.3089,554.1028,209.0048,546.9817,206.0232,552.0472,215.3089,554.1028" style="stroke:#000000;stroke-width:1.0;"/><text fill="#000000" font-family="sans-serif" font-size="13" lengthAdjust="spacing" textLength="39" x="220" y="556.0669">speed</text><!--MD5=[917d2dfaeb525f74b5c3c05af4a701f0]
link ZoomInput to System--><path codeLine="89" d="M651.456,476 C690.656,476 738.936,476 758.8,476 " fill="none" id="ZoomInput-System" style="stroke:#A80036;stroke-width:1.0;"/><polygon fill="#000000" points="678.5,464.5664,669.4549,461.6275,669.4549,467.5053,678.5,464.5664" style="stroke:#000000;stroke-width:1.0;"/><text fill="#000000" font-family="sans-serif" font-size="13" lengthAdjust="spacing" textLength="58" x="682.5" y="469.0669">listens to</text><!--MD5=[d6c036ecc52f71c1b349acaa39647d6e]
@startuml
' skinparam backgroundColor transparent
() System #DA70D5
top to bottom direction

package Util {
    ' - - - TUTORIAL - - -
    abstract Tutorial<t: ToolType> {
      - t: ToolType
      __public method__
      + start() : void
      __private methods__
      - getConfigState() : boolean
      - setConfigState(state: boolean) : void
      - show() : boolean
      __abstract methods__
      - {abstract} tutorial() : void
    }

    enum ToolType {
      ZOOM
      EYETRACKING
      CODECHARTS
    }

    ' Interaktionen
    Tutorial -u- ToolType
    Tutorial -d- Config


    ' - - - BILD - - -

    abstract Bild {
      + load(url: String) : void
      + show() : void
    }

    class Data {
        + type: ToolType
        + data: unknown
        + config_id: int
    }
}



' === ZOOM MAPS ===
package ZoomMaps {

    ' Zoom Input
    class ZoomInput {
        - onClick() : void
        - onScroll() : void
    }

    ' Zoom Tutorial
    class ZoomTutorial {
        - tutorial() : void
    }

    ' Zoom Calculator
    class ZoomCalculator {
        - speed: float
        - position: float[3]
        - data: Data
        __public method__
        + processInput(raw_input: unknown) : void
        + save() : boolean
        __private methods__
        - calculate(raw_input: unknown) : float[3]
    }

    ' Zoom Bild
    class ZoomBild {
        + move(position: float[3]): float[3]
    }


    ' Vererbungen
    Bild <|- - ZoomBild
    Tutorial <|- - ZoomTutorial

    ' Interaktionen
    ZoomInput -d- ZoomCalculator
    ZoomCalculator  -u- ZoomBild : > moves

    ' Andere Module
    ZoomCalculator - - SpeicherMedium : > saves Data
    ZoomCalculator -l- Config : < speed
    ZoomInput -r- System : > listens to

}

' Blackboxen / Andere Module
package Config {}

package SpeicherMedium {}
@enduml

@startuml
() System #DA70D5
top to bottom direction

package Util {
    abstract Tutorial<t: ToolType> {
      - t: ToolType
      __public method__
      + start() : void
      __private methods__
      - getConfigState() : boolean
      - setConfigState(state: boolean) : void
      - show() : boolean
      __abstract methods__
      - {abstract} tutorial() : void
    }

    enum ToolType {
      ZOOM
      EYETRACKING
      CODECHARTS
    }

    Tutorial -u- ToolType
    Tutorial -d- Config



    abstract Bild {
      + load(url: String) : void
      + show() : void
    }

    class Data {
        + type: ToolType
        + data: unknown
        + config_id: int
    }
}



package ZoomMaps {

    class ZoomInput {
        - onClick() : void
        - onScroll() : void
    }

    class ZoomTutorial {
        - tutorial() : void
    }

    class ZoomCalculator {
        - speed: float
        - position: float[3]
        - data: Data
        __public method__
        + processInput(raw_input: unknown) : void
        + save() : boolean
        __private methods__
        - calculate(raw_input: unknown) : float[3]
    }

    class ZoomBild {
        + move(position: float[3]): float[3]
    }


    Bild <|- - ZoomBild
    Tutorial <|- - ZoomTutorial

    ZoomInput -d- ZoomCalculator
    ZoomCalculator  -u- ZoomBild : > moves

    ZoomCalculator - - SpeicherMedium : > saves Data
    ZoomCalculator -l- Config : < speed
    ZoomInput -r- System : > listens to

}

package Config {}

package SpeicherMedium {}
@enduml

PlantUML version 1.2021.14beta3(Unknown compile time)
(GPL source distribution)
Java Runtime: Java(TM) SE Runtime Environment
JVM: Java HotSpot(TM) 64-Bit Server VM
Default Encoding: UTF-8
Language: en
Country: US
--></g></svg>