<?xml version="1.0" encoding="UTF-8" standalone="no"?><svg xmlns="http://www.w3.org/2000/svg" xmlns:xlink="http://www.w3.org/1999/xlink" contentScriptType="application/ecmascript" contentStyleType="text/css" height="706px" preserveAspectRatio="none" style="width:931px;height:706px;background:#FFFFFF;" version="1.1" viewBox="0 0 931 706" width="931px" zoomAndPan="magnify"><defs><filter height="300%" id="f1l26d6vvb9at1" width="300%" x="-1" y="-1"><feGaussianBlur result="blurOut" stdDeviation="2.0"/><feColorMatrix in="blurOut" result="blurOut2" type="matrix" values="0 0 0 0 0 0 0 0 0 0 0 0 0 0 0 0 0 0 .4 0"/><feOffset dx="4.0" dy="4.0" in="blurOut2" result="blurOut3"/><feBlend in="SourceGraphic" in2="blurOut3" mode="normal"/></filter></defs><g><!--MD5=[7d78d958a1816327b68dab5e38143fdd]
cluster ZoomMaps--><polygon fill="#FFFFFF" filter="url(#f1l26d6vvb9at1)" points="450.5,226,545.5,226,552.5,248.2969,750.5,248.2969,750.5,699,450.5,699,450.5,226" style="stroke:#000000;stroke-width:1.5;"/><line style="stroke:#000000;stroke-width:1.5;" x1="450.5" x2="552.5" y1="248.2969" y2="248.2969"/><text fill="#000000" font-family="sans-serif" font-size="14" font-weight="bold" lengthAdjust="spacing" textLength="89" x="454.5" y="240.9951">ZoomMaps</text><!--MD5=[9767bd966f4d33191914ccb96558e57c]
class ZoomInput--><rect codeLine="49" fill="#FEFECE" filter="url(#f1l26d6vvb9at1)" height="73.6094" id="ZoomInput" style="stroke:#A80036;stroke-width:1.5;" width="114" x="613.5" y="261"/><ellipse cx="636.15" cy="277" fill="#ADD1B2" rx="11" ry="11" style="stroke:#A80036;stroke-width:1.0;"/><path d="M638.4938,272.6719 C637.5563,272.2344 636.9625,272.0938 636.0875,272.0938 C633.4625,272.0938 631.4625,274.1719 631.4625,276.8906 L631.4625,278.0156 C631.4625,280.5938 633.5719,282.4844 636.4625,282.4844 C637.6813,282.4844 638.8375,282.1875 639.5875,281.6406 C640.1656,281.2344 640.4938,280.7813 640.4938,280.3906 C640.4938,279.9375 640.1031,279.5469 639.6344,279.5469 C639.4156,279.5469 639.2125,279.625 639.025,279.8125 C638.5719,280.2969 638.5719,280.2969 638.3844,280.3906 C637.9625,280.6563 637.275,280.7813 636.5094,280.7813 C634.4625,280.7813 633.1656,279.6875 633.1656,277.9844 L633.1656,276.8906 C633.1656,275.1094 634.4156,273.7969 636.15,273.7969 C636.7281,273.7969 637.3375,273.9531 637.8063,274.2031 C638.2906,274.4844 638.4625,274.7031 638.5563,275.1094 C638.6188,275.5156 638.65,275.6406 638.7906,275.7656 C638.9313,275.9063 639.1656,276.0156 639.3844,276.0156 C639.65,276.0156 639.9156,275.875 640.0875,275.6563 C640.1969,275.5 640.2281,275.3125 640.2281,274.8906 L640.2281,273.4688 C640.2281,273.0313 640.2125,272.9063 640.1188,272.75 C639.9625,272.4844 639.6813,272.3438 639.3844,272.3438 C639.0875,272.3438 638.8844,272.4375 638.6656,272.75 L638.4938,272.6719 Z " fill="#000000"/><text fill="#000000" font-family="sans-serif" font-size="12" lengthAdjust="spacing" textLength="65" x="651.85" y="281.1543">ZoomInput</text><line style="stroke:#A80036;stroke-width:1.5;" x1="614.5" x2="726.5" y1="293" y2="293"/><line style="stroke:#A80036;stroke-width:1.5;" x1="614.5" x2="726.5" y1="301" y2="301"/><rect fill="#F24D5C" height="6" style="stroke:#C82930;stroke-width:1.0;" width="6" x="621.5" y="309"/><text fill="#000000" font-family="sans-serif" font-size="11" lengthAdjust="spacing" textLength="83" x="633.5" y="315.2104">onClick() : void</text><rect fill="#F24D5C" height="6" style="stroke:#C82930;stroke-width:1.0;" width="6" x="621.5" y="321.8047"/><text fill="#000000" font-family="sans-serif" font-size="11" lengthAdjust="spacing" textLength="88" x="633.5" y="328.0151">onScroll() : void</text><!--MD5=[e6f9a0eef67c9f7cee45e688f45a88fd]
class ZoomTutorial--><rect codeLine="54" fill="#FEFECE" filter="url(#f1l26d6vvb9at1)" height="60.8047" id="ZoomTutorial" style="stroke:#A80036;stroke-width:1.5;" width="112" x="466.5" y="267.5"/><ellipse cx="481.5" cy="283.5" fill="#ADD1B2" rx="11" ry="11" style="stroke:#A80036;stroke-width:1.0;"/><path d="M483.8438,279.1719 C482.9063,278.7344 482.3125,278.5938 481.4375,278.5938 C478.8125,278.5938 476.8125,280.6719 476.8125,283.3906 L476.8125,284.5156 C476.8125,287.0938 478.9219,288.9844 481.8125,288.9844 C483.0313,288.9844 484.1875,288.6875 484.9375,288.1406 C485.5156,287.7344 485.8438,287.2813 485.8438,286.8906 C485.8438,286.4375 485.4531,286.0469 484.9844,286.0469 C484.7656,286.0469 484.5625,286.125 484.375,286.3125 C483.9219,286.7969 483.9219,286.7969 483.7344,286.8906 C483.3125,287.1563 482.625,287.2813 481.8594,287.2813 C479.8125,287.2813 478.5156,286.1875 478.5156,284.4844 L478.5156,283.3906 C478.5156,281.6094 479.7656,280.2969 481.5,280.2969 C482.0781,280.2969 482.6875,280.4531 483.1563,280.7031 C483.6406,280.9844 483.8125,281.2031 483.9063,281.6094 C483.9688,282.0156 484,282.1406 484.1406,282.2656 C484.2813,282.4063 484.5156,282.5156 484.7344,282.5156 C485,282.5156 485.2656,282.375 485.4375,282.1563 C485.5469,282 485.5781,281.8125 485.5781,281.3906 L485.5781,279.9688 C485.5781,279.5313 485.5625,279.4063 485.4688,279.25 C485.3125,278.9844 485.0313,278.8438 484.7344,278.8438 C484.4375,278.8438 484.2344,278.9375 484.0156,279.25 L483.8438,279.1719 Z " fill="#000000"/><text fill="#000000" font-family="sans-serif" font-size="12" lengthAdjust="spacing" textLength="80" x="495.5" y="287.6543">ZoomTutorial</text><line style="stroke:#A80036;stroke-width:1.5;" x1="467.5" x2="577.5" y1="299.5" y2="299.5"/><line style="stroke:#A80036;stroke-width:1.5;" x1="467.5" x2="577.5" y1="307.5" y2="307.5"/><rect fill="#F24D5C" height="6" style="stroke:#C82930;stroke-width:1.0;" width="6" x="474.5" y="315.5"/><text fill="#000000" font-family="sans-serif" font-size="11" lengthAdjust="spacing" textLength="82" x="486.5" y="321.7104">tutorial() : void</text><!--MD5=[72b9880496439479a2cac04af8a355bc]
class ZoomCalculator--><rect codeLine="58" fill="#FEFECE" filter="url(#f1l26d6vvb9at1)" height="137.6328" id="ZoomCalculator" style="stroke:#A80036;stroke-width:1.5;" width="252" x="474.5" y="400"/><ellipse cx="548.75" cy="416" fill="#ADD1B2" rx="11" ry="11" style="stroke:#A80036;stroke-width:1.0;"/><path d="M551.0938,411.6719 C550.1563,411.2344 549.5625,411.0938 548.6875,411.0938 C546.0625,411.0938 544.0625,413.1719 544.0625,415.8906 L544.0625,417.0156 C544.0625,419.5938 546.1719,421.4844 549.0625,421.4844 C550.2813,421.4844 551.4375,421.1875 552.1875,420.6406 C552.7656,420.2344 553.0938,419.7813 553.0938,419.3906 C553.0938,418.9375 552.7031,418.5469 552.2344,418.5469 C552.0156,418.5469 551.8125,418.625 551.625,418.8125 C551.1719,419.2969 551.1719,419.2969 550.9844,419.3906 C550.5625,419.6563 549.875,419.7813 549.1094,419.7813 C547.0625,419.7813 545.7656,418.6875 545.7656,416.9844 L545.7656,415.8906 C545.7656,414.1094 547.0156,412.7969 548.75,412.7969 C549.3281,412.7969 549.9375,412.9531 550.4063,413.2031 C550.8906,413.4844 551.0625,413.7031 551.1563,414.1094 C551.2188,414.5156 551.25,414.6406 551.3906,414.7656 C551.5313,414.9063 551.7656,415.0156 551.9844,415.0156 C552.25,415.0156 552.5156,414.875 552.6875,414.6563 C552.7969,414.5 552.8281,414.3125 552.8281,413.8906 L552.8281,412.4688 C552.8281,412.0313 552.8125,411.9063 552.7188,411.75 C552.5625,411.4844 552.2813,411.3438 551.9844,411.3438 C551.6875,411.3438 551.4844,411.4375 551.2656,411.75 L551.0938,411.6719 Z " fill="#000000"/><text fill="#000000" font-family="sans-serif" font-size="12" lengthAdjust="spacing" textLength="95" x="569.25" y="420.1543">ZoomCalculator</text><line style="stroke:#A80036;stroke-width:1.5;" x1="475.5" x2="725.5" y1="432" y2="432"/><rect fill="none" height="6" style="stroke:#C82930;stroke-width:1.0;" width="6" x="482.5" y="440"/><text fill="#000000" font-family="sans-serif" font-size="11" lengthAdjust="spacing" textLength="68" x="494.5" y="446.2104">speed: float</text><rect fill="none" height="6" style="stroke:#C82930;stroke-width:1.0;" width="6" x="482.5" y="452.8047"/><text fill="#000000" font-family="sans-serif" font-size="11" lengthAdjust="spacing" textLength="91" x="494.5" y="459.0151">position: float[3]</text><ellipse cx="485.5" cy="485.4141" fill="#84BE84" rx="3" ry="3" style="stroke:#038048;stroke-width:1.0;"/><text fill="#000000" font-family="sans-serif" font-size="11" lengthAdjust="spacing" textLength="226" x="494.5" y="488.6245">processInput(raw_input: unknown) : void</text><line style="stroke:#A80036;stroke-width:1.5;" x1="475.5" x2="560" y1="472.0117" y2="472.0117"/><text fill="#000000" font-family="sans-serif" font-size="11" lengthAdjust="spacing" textLength="81" x="560" y="475.3198">public method</text><line style="stroke:#A80036;stroke-width:1.5;" x1="641" x2="725.5" y1="472.0117" y2="472.0117"/><rect fill="#F24D5C" height="6" style="stroke:#C82930;stroke-width:1.0;" width="6" x="482.5" y="512.0234"/><text fill="#000000" font-family="sans-serif" font-size="11" lengthAdjust="spacing" textLength="221" x="494.5" y="518.2339">calculate(raw_input: unknown) : float[3]</text><rect fill="#F24D5C" height="6" style="stroke:#C82930;stroke-width:1.0;" width="6" x="482.5" y="524.8281"/><text fill="#000000" font-family="sans-serif" font-size="11" lengthAdjust="spacing" textLength="184" x="494.5" y="531.0386">save(position: float[3]) : boolean</text><line style="stroke:#A80036;stroke-width:1.5;" x1="475.5" x2="553.5" y1="501.6211" y2="501.6211"/><text fill="#000000" font-family="sans-serif" font-size="11" lengthAdjust="spacing" textLength="94" x="553.5" y="504.9292">private methods</text><line style="stroke:#A80036;stroke-width:1.5;" x1="647.5" x2="725.5" y1="501.6211" y2="501.6211"/><!--MD5=[90447d4191c16dafea1a917a3aa79093]
class ZoomBild--><rect codeLine="68" fill="#FEFECE" filter="url(#f1l26d6vvb9at1)" height="60.8047" id="ZoomBild" style="stroke:#A80036;stroke-width:1.5;" width="154" x="559.5" y="619"/><ellipse cx="603.3" cy="635" fill="#ADD1B2" rx="11" ry="11" style="stroke:#A80036;stroke-width:1.0;"/><path d="M605.6438,630.6719 C604.7063,630.2344 604.1125,630.0938 603.2375,630.0938 C600.6125,630.0938 598.6125,632.1719 598.6125,634.8906 L598.6125,636.0156 C598.6125,638.5938 600.7219,640.4844 603.6125,640.4844 C604.8313,640.4844 605.9875,640.1875 606.7375,639.6406 C607.3156,639.2344 607.6438,638.7813 607.6438,638.3906 C607.6438,637.9375 607.2531,637.5469 606.7844,637.5469 C606.5656,637.5469 606.3625,637.625 606.175,637.8125 C605.7219,638.2969 605.7219,638.2969 605.5344,638.3906 C605.1125,638.6563 604.425,638.7813 603.6594,638.7813 C601.6125,638.7813 600.3156,637.6875 600.3156,635.9844 L600.3156,634.8906 C600.3156,633.1094 601.5656,631.7969 603.3,631.7969 C603.8781,631.7969 604.4875,631.9531 604.9563,632.2031 C605.4406,632.4844 605.6125,632.7031 605.7063,633.1094 C605.7688,633.5156 605.8,633.6406 605.9406,633.7656 C606.0813,633.9063 606.3156,634.0156 606.5344,634.0156 C606.8,634.0156 607.0656,633.875 607.2375,633.6563 C607.3469,633.5 607.3781,633.3125 607.3781,632.8906 L607.3781,631.4688 C607.3781,631.0313 607.3625,630.9063 607.2688,630.75 C607.1125,630.4844 606.8313,630.3438 606.5344,630.3438 C606.2375,630.3438 606.0344,630.4375 605.8156,630.75 L605.6438,630.6719 Z " fill="#000000"/><text fill="#000000" font-family="sans-serif" font-size="12" lengthAdjust="spacing" textLength="58" x="623.7" y="639.1543">ZoomBild</text><line style="stroke:#A80036;stroke-width:1.5;" x1="560.5" x2="712.5" y1="651" y2="651"/><line style="stroke:#A80036;stroke-width:1.5;" x1="560.5" x2="712.5" y1="659" y2="659"/><ellipse cx="570.5" cy="670" fill="#84BE84" rx="3" ry="3" style="stroke:#038048;stroke-width:1.0;"/><text fill="#000000" font-family="sans-serif" font-size="11" lengthAdjust="spacing" textLength="128" x="579.5" y="673.2104">move(float[3]): float[3]</text><polygon fill="#FFFFFF" filter="url(#f1l26d6vvb9at1)" points="305.5,440.5,363.5,440.5,370.5,462.7969,377.5,462.7969,377.5,493.0938,305.5,493.0938,305.5,440.5" style="stroke:#000000;stroke-width:1.5;"/><line style="stroke:#000000;stroke-width:1.5;" x1="305.5" x2="370.5" y1="462.7969" y2="462.7969"/><text fill="#000000" font-family="sans-serif" font-size="14" font-weight="bold" lengthAdjust="spacing" textLength="52" x="309.5" y="455.4951">Config</text><polygon fill="#FFFFFF" filter="url(#f1l26d6vvb9at1)" points="282.5,622.5,420.5,622.5,427.5,644.7969,434.5,644.7969,434.5,675.0938,282.5,675.0938,282.5,622.5" style="stroke:#000000;stroke-width:1.5;"/><line style="stroke:#000000;stroke-width:1.5;" x1="282.5" x2="427.5" y1="644.7969" y2="644.7969"/><text fill="#000000" font-family="sans-serif" font-size="14" font-weight="bold" lengthAdjust="spacing" textLength="132" x="286.5" y="637.4951">SpeicherMedium</text><!--MD5=[abea0b42432aea0f9ce66e53feda8644]
entity System--><ellipse cx="844.5" cy="298" fill="#DA70D5" filter="url(#f1l26d6vvb9at1)" rx="8" ry="8" style="stroke:#A80036;stroke-width:1.5;"/><text fill="#000000" font-family="sans-serif" font-size="14" lengthAdjust="spacing" textLength="54" x="817.5" y="327.9951">System</text><!--MD5=[fccc419d627b37790932ddb688fb7ad6]
class Tutorial--><rect codeLine="6" fill="#FEFECE" filter="url(#f1l26d6vvb9at1)" height="167.2422" id="Tutorial" style="stroke:#A80036;stroke-width:1.5;" width="236" x="404.5" y="10"/><ellipse cx="450.25" cy="26" fill="#A9DCDF" rx="11" ry="11" style="stroke:#A80036;stroke-width:1.0;"/><path d="M452.3281,27.8125 L452.7188,28.7969 L452.3281,28.7969 C451.875,28.7969 451.7656,28.8125 451.6094,28.9219 C451.3594,29.0781 451.2031,29.3594 451.2031,29.6563 C451.2031,29.9219 451.3438,30.1719 451.5625,30.3281 C451.7031,30.4531 451.9063,30.5 452.3281,30.5 L454.6875,30.5 C455.0469,30.5 455.2656,30.4688 455.4063,30.375 C455.6563,30.2344 455.8125,29.9375 455.8125,29.6563 C455.8125,29.375 455.6719,29.125 455.4531,28.9688 C455.2813,28.8281 455.125,28.7969 454.6563,28.7969 L451.2656,20.5938 L447.5938,20.5938 C447.1406,20.5938 447.0156,20.6094 446.8594,20.7031 C446.6094,20.875 446.4531,21.1563 446.4531,21.4375 C446.4531,21.7188 446.5938,21.9688 446.8125,22.1406 C446.9844,22.25 447.1563,22.2813 447.5938,22.2813 L448.6719,22.2813 L446.0313,28.7969 C445.6094,28.7969 445.4531,28.8125 445.2969,28.9219 C445.0469,29.0781 444.8906,29.3594 444.8906,29.6563 C444.8906,30.2188 445.2656,30.5 446.0156,30.5 L448.2813,30.5 C448.6406,30.5 448.8594,30.4688 448.9844,30.375 C449.25,30.2344 449.3906,29.9375 449.3906,29.6563 C449.3906,29.375 449.2656,29.125 449.0469,28.9531 C448.875,28.8281 448.7344,28.7969 448.2813,28.7969 L447.8906,28.7969 L448.2813,27.8125 L452.3281,27.8125 Z M451.625,26.1094 L448.9531,26.1094 L450.2969,22.8438 L451.625,26.1094 Z " fill="#000000"/><text fill="#000000" font-family="sans-serif" font-size="12" font-style="italic" lengthAdjust="spacing" textLength="45" x="470.75" y="30.1543">Tutorial</text><rect fill="#FFFFFF" height="15.9688" style="stroke:#000000;stroke-width:1.0;stroke-dasharray:2.0,2.0;" width="89" x="554.5" y="7"/><text fill="#000000" font-family="sans-serif" font-size="12" font-style="italic" lengthAdjust="spacing" textLength="87" x="555.5" y="19.1387">t: TutorialType</text><line style="stroke:#A80036;stroke-width:1.5;" x1="405.5" x2="639.5" y1="42" y2="42"/><rect fill="none" height="6" style="stroke:#C82930;stroke-width:1.0;" width="6" x="412.5" y="50"/><text fill="#000000" font-family="sans-serif" font-size="11" lengthAdjust="spacing" textLength="82" x="424.5" y="56.2104">t: TutorialType</text><ellipse cx="415.5" cy="82.6094" fill="#84BE84" rx="3" ry="3" style="stroke:#038048;stroke-width:1.0;"/><text fill="#000000" font-family="sans-serif" font-size="11" lengthAdjust="spacing" textLength="68" x="424.5" y="85.8198">start() : void</text><line style="stroke:#A80036;stroke-width:1.5;" x1="405.5" x2="482" y1="69.207" y2="69.207"/><text fill="#000000" font-family="sans-serif" font-size="11" lengthAdjust="spacing" textLength="81" x="482" y="72.5151">public method</text><line style="stroke:#A80036;stroke-width:1.5;" x1="563" x2="639.5" y1="69.207" y2="69.207"/><rect fill="#F24D5C" height="6" style="stroke:#C82930;stroke-width:1.0;" width="6" x="412.5" y="109.2188"/><text fill="#000000" font-family="sans-serif" font-size="11" lengthAdjust="spacing" textLength="151" x="424.5" y="115.4292">getConfigState() : boolean</text><rect fill="#F24D5C" height="6" style="stroke:#C82930;stroke-width:1.0;" width="6" x="412.5" y="122.0234"/><text fill="#000000" font-family="sans-serif" font-size="11" lengthAdjust="spacing" textLength="210" x="424.5" y="128.2339">setConfigState(state: boolean) : void</text><rect fill="#F24D5C" height="6" style="stroke:#C82930;stroke-width:1.0;" width="6" x="412.5" y="134.8281"/><text fill="#000000" font-family="sans-serif" font-size="11" lengthAdjust="spacing" textLength="94" x="424.5" y="141.0386">show() : boolean</text><line style="stroke:#A80036;stroke-width:1.5;" x1="405.5" x2="475.5" y1="98.8164" y2="98.8164"/><text fill="#000000" font-family="sans-serif" font-size="11" lengthAdjust="spacing" textLength="94" x="475.5" y="102.1245">private methods</text><line style="stroke:#A80036;stroke-width:1.5;" x1="569.5" x2="639.5" y1="98.8164" y2="98.8164"/><rect fill="#F24D5C" height="6" style="stroke:#C82930;stroke-width:1.0;" width="6" x="412.5" y="164.4375"/><text fill="#000000" font-family="sans-serif" font-size="11" font-style="italic" lengthAdjust="spacing" textLength="84" x="424.5" y="170.6479">tutorial() : void</text><line style="stroke:#A80036;stroke-width:1.5;" x1="405.5" x2="473" y1="154.0352" y2="154.0352"/><text fill="#000000" font-family="sans-serif" font-size="11" lengthAdjust="spacing" textLength="99" x="473" y="157.3433">abstract methods</text><line style="stroke:#A80036;stroke-width:1.5;" x1="572" x2="639.5" y1="154.0352" y2="154.0352"/><path d="M6,32 L6,57.1328 A0,0 0 0 0 6,57.1328 L296,57.1328 A0,0 0 0 0 296,57.1328 L296,50 L408.5,82.0117 L296,42 L296,42 L286,32 L6,32 A0,0 0 0 0 6,32 " fill="#FBFB77" filter="url(#f1l26d6vvb9at1)" style="stroke:#A80036;stroke-width:1.0;"/><path d="M286,32 L286,42 L296,42 L286,32 " fill="#FBFB77" style="stroke:#A80036;stroke-width:1.0;"/><text fill="#000000" font-family="sans-serif" font-size="13" lengthAdjust="spacing" textLength="269" x="12" y="49.0669">Startet Tutorial, beinhaltet interne Aufrufe</text><path d="M6,67.1328 L6,107.3984 A0,0 0 0 0 6,107.3984 L296,107.3984 A0,0 0 0 0 296,107.3984 L296,91.2656 L408.5,111.6211 L296,83.2656 L296,77.1328 L286,67.1328 L6,67.1328 A0,0 0 0 0 6,67.1328 " fill="#FBFB77" filter="url(#f1l26d6vvb9at1)" style="stroke:#A80036;stroke-width:1.0;"/><path d="M286,67.1328 L286,77.1328 L296,77.1328 L286,67.1328 " fill="#FBFB77" style="stroke:#A80036;stroke-width:1.0;"/><text fill="#000000" font-family="sans-serif" font-size="13" lengthAdjust="spacing" textLength="269" x="12" y="84.1997">Sendet eine Anfrage an das Config-Modul,</text><text fill="#000000" font-family="sans-serif" font-size="13" lengthAdjust="spacing" textLength="206" x="12" y="99.3325">abhängig vom Typ des Tutorials</text><path d="M6,117.3984 L6,142.5313 A0,0 0 0 0 6,142.5313 L361,142.5313 A0,0 0 0 0 361,142.5313 L361,135.3984 L408.5,166.8398 L361,127.3984 L361,127.3984 L351,117.3984 L6,117.3984 A0,0 0 0 0 6,117.3984 " fill="#FBFB77" filter="url(#f1l26d6vvb9at1)" style="stroke:#A80036;stroke-width:1.0;"/><path d="M351,117.3984 L351,127.3984 L361,127.3984 L351,117.3984 " fill="#FBFB77" style="stroke:#A80036;stroke-width:1.0;"/><text fill="#000000" font-family="sans-serif" font-size="13" lengthAdjust="spacing" textLength="334" x="12" y="134.4653">Beinhaltet eigentliche Implementierung der Tutorials</text><!--MD5=[b51717a605764d924c74fe29f3a07c77]
class TutorialType--><rect codeLine="29" fill="#FEFECE" filter="url(#f1l26d6vvb9at1)" height="86.4141" id="TutorialType" style="stroke:#A80036;stroke-width:1.5;" width="106" x="683.5" y="49.5"/><ellipse cx="698.5" cy="65.5" fill="#EB937F" rx="11" ry="11" style="stroke:#A80036;stroke-width:1.0;"/><path d="M697.2969,66.375 L698.75,66.375 L698.75,66.4844 C698.75,66.8906 698.7813,67.0469 698.8594,67.2031 C699.0156,67.4531 699.2969,67.6094 699.5938,67.6094 C699.8438,67.6094 700.1094,67.4688 700.2656,67.25 C700.3906,67.0938 700.4219,66.9375 700.4219,66.4844 L700.4219,64.5625 C700.4219,64.4063 700.4219,64.3594 700.4063,64.2031 C700.3438,63.7344 700.0313,63.4219 699.5781,63.4219 C699.3281,63.4219 699.0625,63.5625 698.8906,63.7813 C698.7813,63.9531 698.75,64.1094 698.75,64.5625 L698.75,64.6875 L697.2969,64.6875 L697.2969,62.2813 L701.2813,62.2813 L701.2813,63.1406 C701.2813,63.5469 701.3125,63.7188 701.3906,63.875 C701.5625,64.125 701.8438,64.2813 702.125,64.2813 C702.3906,64.2813 702.6563,64.1406 702.8281,63.9219 C702.9375,63.75 702.9688,63.6094 702.9688,63.1406 L702.9688,60.5938 L695.3438,60.5938 C694.9063,60.5938 694.7813,60.6094 694.625,60.7031 C694.375,60.8594 694.2188,61.1563 694.2188,61.4375 C694.2188,61.7188 694.3594,61.9688 694.5781,62.1406 C694.7344,62.25 694.9219,62.2813 695.3438,62.2813 L695.5938,62.2813 L695.5938,68.7969 L695.3438,68.7969 C694.9375,68.7969 694.7813,68.8125 694.625,68.9219 C694.375,69.0938 694.2188,69.3594 694.2188,69.6563 C694.2188,69.9219 694.3594,70.1719 694.5781,70.3281 C694.7188,70.4531 694.9531,70.5 695.3438,70.5 L703.3438,70.5 L703.3438,67.9219 C703.3438,67.4844 703.3125,67.3438 703.2344,67.1875 C703.0625,66.9375 702.7813,66.7813 702.5,66.7813 C702.2344,66.7813 701.9688,66.8906 701.7969,67.1406 C701.6875,67.2969 701.6563,67.4375 701.6563,67.9219 L701.6563,68.7969 L697.2969,68.7969 L697.2969,66.375 Z " fill="#000000"/><text fill="#000000" font-family="sans-serif" font-size="12" lengthAdjust="spacing" textLength="74" x="712.5" y="69.6543">TutorialType</text><line style="stroke:#A80036;stroke-width:1.5;" x1="684.5" x2="788.5" y1="81.5" y2="81.5"/><text fill="#000000" font-family="sans-serif" font-size="11" lengthAdjust="spacing" textLength="35" x="689.5" y="95.7104">ZOOM</text><text fill="#000000" font-family="sans-serif" font-size="11" lengthAdjust="spacing" textLength="78" x="689.5" y="108.5151">EYETRACKING</text><text fill="#000000" font-family="sans-serif" font-size="11" lengthAdjust="spacing" textLength="79" x="689.5" y="121.3198">CODECHARTS</text><line style="stroke:#A80036;stroke-width:1.5;" x1="684.5" x2="788.5" y1="127.9141" y2="127.9141"/><!--MD5=[626b00d2609f42ba755c8afb6d5f2b59]
class Bild--><rect codeLine="41" fill="#FEFECE" filter="url(#f1l26d6vvb9at1)" height="73.6094" id="Bild" style="stroke:#A80036;stroke-width:1.5;" width="147" x="770" y="430"/><ellipse cx="828.25" cy="446" fill="#A9DCDF" rx="11" ry="11" style="stroke:#A80036;stroke-width:1.0;"/><path d="M830.3281,447.8125 L830.7188,448.7969 L830.3281,448.7969 C829.875,448.7969 829.7656,448.8125 829.6094,448.9219 C829.3594,449.0781 829.2031,449.3594 829.2031,449.6563 C829.2031,449.9219 829.3438,450.1719 829.5625,450.3281 C829.7031,450.4531 829.9063,450.5 830.3281,450.5 L832.6875,450.5 C833.0469,450.5 833.2656,450.4688 833.4063,450.375 C833.6563,450.2344 833.8125,449.9375 833.8125,449.6563 C833.8125,449.375 833.6719,449.125 833.4531,448.9688 C833.2813,448.8281 833.125,448.7969 832.6563,448.7969 L829.2656,440.5938 L825.5938,440.5938 C825.1406,440.5938 825.0156,440.6094 824.8594,440.7031 C824.6094,440.875 824.4531,441.1563 824.4531,441.4375 C824.4531,441.7188 824.5938,441.9688 824.8125,442.1406 C824.9844,442.25 825.1563,442.2813 825.5938,442.2813 L826.6719,442.2813 L824.0313,448.7969 C823.6094,448.7969 823.4531,448.8125 823.2969,448.9219 C823.0469,449.0781 822.8906,449.3594 822.8906,449.6563 C822.8906,450.2188 823.2656,450.5 824.0156,450.5 L826.2813,450.5 C826.6406,450.5 826.8594,450.4688 826.9844,450.375 C827.25,450.2344 827.3906,449.9375 827.3906,449.6563 C827.3906,449.375 827.2656,449.125 827.0469,448.9531 C826.875,448.8281 826.7344,448.7969 826.2813,448.7969 L825.8906,448.7969 L826.2813,447.8125 L830.3281,447.8125 Z M829.625,446.1094 L826.9531,446.1094 L828.2969,442.8438 L829.625,446.1094 Z " fill="#000000"/><text fill="#000000" font-family="sans-serif" font-size="12" font-style="italic" lengthAdjust="spacing" textLength="22" x="848.75" y="450.1543">Bild</text><line style="stroke:#A80036;stroke-width:1.5;" x1="771" x2="916" y1="462" y2="462"/><line style="stroke:#A80036;stroke-width:1.5;" x1="771" x2="916" y1="470" y2="470"/><ellipse cx="781" cy="481" fill="#84BE84" rx="3" ry="3" style="stroke:#038048;stroke-width:1.0;"/><text fill="#000000" font-family="sans-serif" font-size="11" lengthAdjust="spacing" textLength="121" x="790" y="484.2104">load(url: String) : void</text><ellipse cx="781" cy="493.8047" fill="#84BE84" rx="3" ry="3" style="stroke:#038048;stroke-width:1.0;"/><text fill="#000000" font-family="sans-serif" font-size="11" lengthAdjust="spacing" textLength="72" x="790" y="497.0151">show() : void</text><!--MD5=[752ada4883e89279aa677b65655ebc35]
link Tutorial$$$LEFT to Tutorial--><!--MD5=[b7b30a6ba3bc0d032df5bb8d6b41e119]
link Tutorial to TutorialType--><path codeLine="35" d="M641.5,52.5 C652.363,52.5 663.409,54.79 673.928,58.274 " fill="none" id="Tutorial-TutorialType" style="stroke:#A80036;stroke-width:1.0;"/><line style="stroke:#A80036;stroke-width:1.0;" x1="673.928" x2="683.421" y1="58.274" y2="61.777"/><!--MD5=[c1258afe1f320a3fd45f72e2b99af1b2]
link Tutorial to System--><path codeLine="36" d="M641.5,136.5 C663.415,136.5 650.271,164.274 666.5,179 C696.983,206.659 715.775,195.9 750.5,218 C785.029,239.976 820.64,273.426 836.287,288.777 " fill="none" id="Tutorial-System" style="stroke:#A80036;stroke-width:1.0;"/><!--MD5=[fc4ffdc4bb2ac5a3cd1bd4c856213de4]
link Tutorial to Config--><path codeLine="37" d="M471.285,179.22 C464.075,192.093 456.936,205.306 450.5,218 C410.306,297.281 370.05,394.674 351.731,440.222 " fill="none" id="Tutorial-Config" style="stroke:#A80036;stroke-width:1.0;"/><!--MD5=[91cffcbb8234028742b6ac8b9b57d54f]
reverse link Bild to ZoomBild--><path codeLine="74" d="M811.503,521.148 C796.674,542.792 777.647,566.918 756.5,585 C743.266,596.316 727.656,606.354 712.15,614.907 " fill="none" id="Bild-backto-ZoomBild" style="stroke:#A80036;stroke-width:1.0;"/><polygon fill="none" points="805.861,516.987,822.69,504.112,817.563,524.672,805.861,516.987" style="stroke:#A80036;stroke-width:1.0;"/><!--MD5=[74bcaaa80c1f5666ddc668b1a184278c]
reverse link Tutorial to ZoomTutorial--><path codeLine="75" d="M522.5,199.542 C522.5,224.361 522.5,248.839 522.5,267.055 " fill="none" id="Tutorial-backto-ZoomTutorial" style="stroke:#A80036;stroke-width:1.0;"/><polygon fill="none" points="515.5,199.213,522.5,179.213,529.5,199.212,515.5,199.213" style="stroke:#A80036;stroke-width:1.0;"/><!--MD5=[2708804abe4d1091750fa48cfee7ac00]
link ZoomInput to ZoomCalculator--><path codeLine="78" d="M697.371,335.236 C708.687,352.669 720.588,374.434 726.5,396 C736.722,433.294 766.169,483 727.5,483 " fill="none" id="ZoomInput-ZoomCalculator" style="stroke:#A80036;stroke-width:1.0;"/><!--MD5=[d14beb75e4877be6f65874a887b5bf30]
link ZoomCalculator to ZoomBild--><path codeLine="79" d="M727.5,483 C751.948,483 739.867,517.529 726.5,538 C681.813,606.434 604.198,546.574 559.5,615 C546.372,635.0964 534.496,669 558.5,669 " fill="none" id="ZoomCalculator-ZoomBild" style="stroke:#A80036;stroke-width:1.0;"/><polygon fill="#000000" points="691.1376,580.267,699.3954,575.5489,695.0451,571.5962,691.1376,580.267" style="stroke:#000000;stroke-width:1.0;"/><text fill="#000000" font-family="sans-serif" font-size="13" lengthAdjust="spacing" textLength="44" x="703.5" y="581.0669">moves</text><!--MD5=[ab94cbc2495622a03fec4b24390f5618]
link ZoomCalculator to SpeicherMedium--><path codeLine="82" d="M473.5,524 C420.357,524 384.874,585.987 368.644,622.3071 " fill="none" id="ZoomCalculator-SpeicherMedium" style="stroke:#A80036;stroke-width:1.0;"/><polygon fill="#000000" points="398.8524,579.9862,407.4611,575.9437,403.4409,571.6557,398.8524,579.9862" style="stroke:#000000;stroke-width:1.0;"/><text fill="#000000" font-family="sans-serif" font-size="13" lengthAdjust="spacing" textLength="73" x="411.5" y="581.0669">saves Data</text><!--MD5=[b5bf2730b290792fe768f0624d25067c]
link ZoomCalculator to Config--><path codeLine="83" d="M473.5,442 C438.731,442 429.502,440.735 395.5,448 C392.858,448.565 390.168,449.229 387.473,449.964 " fill="none" id="ZoomCalculator-Config" style="stroke:#A80036;stroke-width:1.0;"/><line style="stroke:#A80036;stroke-width:1.0;" x1="387.473" x2="377.757" y1="449.964" y2="452.891"/><polygon fill="#000000" points="405.4787,433.1055,396.2012,431.0129,396.7431,436.8657,405.4787,433.1055" style="stroke:#000000;stroke-width:1.0;"/><text fill="#000000" font-family="sans-serif" font-size="13" lengthAdjust="spacing" textLength="39" x="409.5" y="438.0669">speed</text><!--MD5=[917d2dfaeb525f74b5c3c05af4a701f0]
link ZoomInput to System--><path codeLine="84" d="M727.956,298 C767.156,298 815.436,298 835.3,298 " fill="none" id="ZoomInput-System" style="stroke:#A80036;stroke-width:1.0;"/><polygon fill="#000000" points="755,286.5664,745.9549,283.6275,745.9549,289.5053,755,286.5664" style="stroke:#000000;stroke-width:1.0;"/><text fill="#000000" font-family="sans-serif" font-size="13" lengthAdjust="spacing" textLength="58" x="759" y="291.0669">listens to</text><!--MD5=[3bc82c489a3ad42f108868321fcdcb80]
@startuml
' skinparam backgroundColor transparent
() System #DA70D5
top to bottom direction

' - - - TUTORIAL - - -
abstract Tutorial<t: TutorialType> {
  - t: TutorialType
  __public method__
  + start() : void
  __private methods__
  - getConfigState() : boolean
  - setConfigState(state: boolean) : void
  - show() : boolean
  __abstract methods__
  - {abstract} tutorial() : void
}

note left of Tutorial::start
    Startet Tutorial, beinhaltet interne Aufrufe
end note
note left of Tutorial::getConfigState
    Sendet eine Anfrage an das Config-Modul,
    abhängig vom Typ des Tutorials
end note
note left of Tutorial::tutorial
    Beinhaltet eigentliche Implementierung der Tutorials
end note

enum TutorialType {
  ZOOM
  EYETRACKING
  CODECHARTS
}

Tutorial::t -r- TutorialType
Tutorial::show - - System
Tutorial - - Config

' - - - BILD - - -

abstract Bild {
  + load(url: String) : void
  + show() : void
}


package ZoomMaps {

  class ZoomInput {
    - onClick() : void
    - onScroll() : void
  }

  class ZoomTutorial {
    - tutorial() : void
  }
  
  class ZoomCalculator {
    - speed: float
    - position: float[3]
    __public method__
    + processInput(raw_input: unknown) : void
    __private methods__
    - calculate(raw_input: unknown) : float[3]
    - save(position: float[3]) : boolean
  }

  class ZoomBild {
    + move(float[3]): float[3]
  }


  ' Vererbungen
  Bild <|- - ZoomBild
  Tutorial <|- - ZoomTutorial

  ' Interaktionen
  ZoomInput - - ZoomCalculator::processInput
  ZoomCalculator::processInput  - - ZoomBild::move : > moves

  ' Andere Module
  ZoomCalculator::save - - SpeicherMedium : > saves Data
  ZoomCalculator::speed -r- Config : < speed
  ZoomInput -r- System : > listens to
  
}

package Config {}

package SpeicherMedium {}
@enduml

@startuml
() System #DA70D5
top to bottom direction

abstract Tutorial<t: TutorialType> {
  - t: TutorialType
  __public method__
  + start() : void
  __private methods__
  - getConfigState() : boolean
  - setConfigState(state: boolean) : void
  - show() : boolean
  __abstract methods__
  - {abstract} tutorial() : void
}

note left of Tutorial::start
    Startet Tutorial, beinhaltet interne Aufrufe
end note
note left of Tutorial::getConfigState
    Sendet eine Anfrage an das Config-Modul,
    abhängig vom Typ des Tutorials
end note
note left of Tutorial::tutorial
    Beinhaltet eigentliche Implementierung der Tutorials
end note

enum TutorialType {
  ZOOM
  EYETRACKING
  CODECHARTS
}

Tutorial::t -r- TutorialType
Tutorial::show - - System
Tutorial - - Config


abstract Bild {
  + load(url: String) : void
  + show() : void
}


package ZoomMaps {

  class ZoomInput {
    - onClick() : void
    - onScroll() : void
  }

  class ZoomTutorial {
    - tutorial() : void
  }
  
  class ZoomCalculator {
    - speed: float
    - position: float[3]
    __public method__
    + processInput(raw_input: unknown) : void
    __private methods__
    - calculate(raw_input: unknown) : float[3]
    - save(position: float[3]) : boolean
  }

  class ZoomBild {
    + move(float[3]): float[3]
  }


  Bild <|- - ZoomBild
  Tutorial <|- - ZoomTutorial

  ZoomInput - - ZoomCalculator::processInput
  ZoomCalculator::processInput  - - ZoomBild::move : > moves

  ZoomCalculator::save - - SpeicherMedium : > saves Data
  ZoomCalculator::speed -r- Config : < speed
  ZoomInput -r- System : > listens to
  
}

package Config {}

package SpeicherMedium {}
@enduml

PlantUML version 1.2021.13beta8(Unknown compile time)
(GPL source distribution)
Java Runtime: Java(TM) SE Runtime Environment
JVM: Java HotSpot(TM) 64-Bit Server VM
Default Encoding: UTF-8
Language: en
Country: US
--></g></svg>