<?xml version="1.0" encoding="UTF-8" standalone="no"?><svg xmlns="http://www.w3.org/2000/svg" xmlns:xlink="http://www.w3.org/1999/xlink" contentScriptType="application/ecmascript" contentStyleType="text/css" height="404px" preserveAspectRatio="none" style="width:646px;height:404px;background:#FFFFFF;" version="1.1" viewBox="0 0 646 404" width="646px" zoomAndPan="magnify"><defs><filter height="300%" id="f155qd8wtfx00l" width="300%" x="-1" y="-1"><feGaussianBlur result="blurOut" stdDeviation="2.0"/><feColorMatrix in="blurOut" result="blurOut2" type="matrix" values="0 0 0 0 0 0 0 0 0 0 0 0 0 0 0 0 0 0 .4 0"/><feOffset dx="4.0" dy="4.0" in="blurOut2" result="blurOut3"/><feBlend in="SourceGraphic" in2="blurOut3" mode="normal"/></filter></defs><g><!--MD5=[7d78d958a1816327b68dab5e38143fdd]
cluster ZoomMaps--><polygon fill="#FFFFFF" filter="url(#f155qd8wtfx00l)" points="77,80,172,80,179,102.2969,354,102.2969,354,397.5,77,397.5,77,80" style="stroke:#000000;stroke-width:1.5;"/><line style="stroke:#000000;stroke-width:1.5;" x1="77" x2="179" y1="102.2969" y2="102.2969"/><text fill="#000000" font-family="sans-serif" font-size="14" font-weight="bold" lengthAdjust="spacing" textLength="89" x="81" y="94.9951">ZoomMaps</text><!--MD5=[e6f9a0eef67c9f7cee45e688f45a88fd]
class ZoomTutorial--><rect codeLine="5" fill="#FEFECE" filter="url(#f155qd8wtfx00l)" height="48" id="ZoomTutorial" style="stroke:#A80036;stroke-width:1.5;" width="112" x="226" y="115"/><ellipse cx="241" cy="131" fill="#ADD1B2" rx="11" ry="11" style="stroke:#A80036;stroke-width:1.0;"/><path d="M243.3438,126.6719 C242.4063,126.2344 241.8125,126.0938 240.9375,126.0938 C238.3125,126.0938 236.3125,128.1719 236.3125,130.8906 L236.3125,132.0156 C236.3125,134.5938 238.4219,136.4844 241.3125,136.4844 C242.5313,136.4844 243.6875,136.1875 244.4375,135.6406 C245.0156,135.2344 245.3438,134.7813 245.3438,134.3906 C245.3438,133.9375 244.9531,133.5469 244.4844,133.5469 C244.2656,133.5469 244.0625,133.625 243.875,133.8125 C243.4219,134.2969 243.4219,134.2969 243.2344,134.3906 C242.8125,134.6563 242.125,134.7813 241.3594,134.7813 C239.3125,134.7813 238.0156,133.6875 238.0156,131.9844 L238.0156,130.8906 C238.0156,129.1094 239.2656,127.7969 241,127.7969 C241.5781,127.7969 242.1875,127.9531 242.6563,128.2031 C243.1406,128.4844 243.3125,128.7031 243.4063,129.1094 C243.4688,129.5156 243.5,129.6406 243.6406,129.7656 C243.7813,129.9063 244.0156,130.0156 244.2344,130.0156 C244.5,130.0156 244.7656,129.875 244.9375,129.6563 C245.0469,129.5 245.0781,129.3125 245.0781,128.8906 L245.0781,127.4688 C245.0781,127.0313 245.0625,126.9063 244.9688,126.75 C244.8125,126.4844 244.5313,126.3438 244.2344,126.3438 C243.9375,126.3438 243.7344,126.4375 243.5156,126.75 L243.3438,126.6719 Z " fill="#000000"/><text fill="#000000" font-family="sans-serif" font-size="12" lengthAdjust="spacing" textLength="80" x="255" y="135.1543">ZoomTutorial</text><line style="stroke:#A80036;stroke-width:1.5;" x1="227" x2="337" y1="147" y2="147"/><line style="stroke:#A80036;stroke-width:1.5;" x1="227" x2="337" y1="155" y2="155"/><!--MD5=[9767bd966f4d33191914ccb96558e57c]
class ZoomInput--><rect codeLine="9" fill="#FEFECE" filter="url(#f155qd8wtfx00l)" height="48" id="ZoomInput" style="stroke:#A80036;stroke-width:1.5;" width="97" x="93.5" y="115"/><ellipse cx="108.5" cy="131" fill="#ADD1B2" rx="11" ry="11" style="stroke:#A80036;stroke-width:1.0;"/><path d="M110.8438,126.6719 C109.9063,126.2344 109.3125,126.0938 108.4375,126.0938 C105.8125,126.0938 103.8125,128.1719 103.8125,130.8906 L103.8125,132.0156 C103.8125,134.5938 105.9219,136.4844 108.8125,136.4844 C110.0313,136.4844 111.1875,136.1875 111.9375,135.6406 C112.5156,135.2344 112.8438,134.7813 112.8438,134.3906 C112.8438,133.9375 112.4531,133.5469 111.9844,133.5469 C111.7656,133.5469 111.5625,133.625 111.375,133.8125 C110.9219,134.2969 110.9219,134.2969 110.7344,134.3906 C110.3125,134.6563 109.625,134.7813 108.8594,134.7813 C106.8125,134.7813 105.5156,133.6875 105.5156,131.9844 L105.5156,130.8906 C105.5156,129.1094 106.7656,127.7969 108.5,127.7969 C109.0781,127.7969 109.6875,127.9531 110.1563,128.2031 C110.6406,128.4844 110.8125,128.7031 110.9063,129.1094 C110.9688,129.5156 111,129.6406 111.1406,129.7656 C111.2813,129.9063 111.5156,130.0156 111.7344,130.0156 C112,130.0156 112.2656,129.875 112.4375,129.6563 C112.5469,129.5 112.5781,129.3125 112.5781,128.8906 L112.5781,127.4688 C112.5781,127.0313 112.5625,126.9063 112.4688,126.75 C112.3125,126.4844 112.0313,126.3438 111.7344,126.3438 C111.4375,126.3438 111.2344,126.4375 111.0156,126.75 L110.8438,126.6719 Z " fill="#000000"/><text fill="#000000" font-family="sans-serif" font-size="12" lengthAdjust="spacing" textLength="65" x="122.5" y="135.1543">ZoomInput</text><line style="stroke:#A80036;stroke-width:1.5;" x1="94.5" x2="189.5" y1="147" y2="147"/><line style="stroke:#A80036;stroke-width:1.5;" x1="94.5" x2="189.5" y1="155" y2="155"/><!--MD5=[72b9880496439479a2cac04af8a355bc]
class ZoomCalculator--><rect codeLine="12" fill="#FEFECE" filter="url(#f155qd8wtfx00l)" height="48" id="ZoomCalculator" style="stroke:#A80036;stroke-width:1.5;" width="127" x="153.5" y="223"/><ellipse cx="168.5" cy="239" fill="#ADD1B2" rx="11" ry="11" style="stroke:#A80036;stroke-width:1.0;"/><path d="M170.8438,234.6719 C169.9063,234.2344 169.3125,234.0938 168.4375,234.0938 C165.8125,234.0938 163.8125,236.1719 163.8125,238.8906 L163.8125,240.0156 C163.8125,242.5938 165.9219,244.4844 168.8125,244.4844 C170.0313,244.4844 171.1875,244.1875 171.9375,243.6406 C172.5156,243.2344 172.8438,242.7813 172.8438,242.3906 C172.8438,241.9375 172.4531,241.5469 171.9844,241.5469 C171.7656,241.5469 171.5625,241.625 171.375,241.8125 C170.9219,242.2969 170.9219,242.2969 170.7344,242.3906 C170.3125,242.6563 169.625,242.7813 168.8594,242.7813 C166.8125,242.7813 165.5156,241.6875 165.5156,239.9844 L165.5156,238.8906 C165.5156,237.1094 166.7656,235.7969 168.5,235.7969 C169.0781,235.7969 169.6875,235.9531 170.1563,236.2031 C170.6406,236.4844 170.8125,236.7031 170.9063,237.1094 C170.9688,237.5156 171,237.6406 171.1406,237.7656 C171.2813,237.9063 171.5156,238.0156 171.7344,238.0156 C172,238.0156 172.2656,237.875 172.4375,237.6563 C172.5469,237.5 172.5781,237.3125 172.5781,236.8906 L172.5781,235.4688 C172.5781,235.0313 172.5625,234.9063 172.4688,234.75 C172.3125,234.4844 172.0313,234.3438 171.7344,234.3438 C171.4375,234.3438 171.2344,234.4375 171.0156,234.75 L170.8438,234.6719 Z " fill="#000000"/><text fill="#000000" font-family="sans-serif" font-size="12" lengthAdjust="spacing" textLength="95" x="182.5" y="243.1543">ZoomCalculator</text><line style="stroke:#A80036;stroke-width:1.5;" x1="154.5" x2="279.5" y1="255" y2="255"/><line style="stroke:#A80036;stroke-width:1.5;" x1="154.5" x2="279.5" y1="263" y2="263"/><!--MD5=[90447d4191c16dafea1a917a3aa79093]
class ZoomBild--><rect codeLine="15" fill="#FEFECE" filter="url(#f155qd8wtfx00l)" height="48" id="ZoomBild" style="stroke:#A80036;stroke-width:1.5;" width="90" x="104" y="333.5"/><ellipse cx="119" cy="349.5" fill="#ADD1B2" rx="11" ry="11" style="stroke:#A80036;stroke-width:1.0;"/><path d="M121.3438,345.1719 C120.4063,344.7344 119.8125,344.5938 118.9375,344.5938 C116.3125,344.5938 114.3125,346.6719 114.3125,349.3906 L114.3125,350.5156 C114.3125,353.0938 116.4219,354.9844 119.3125,354.9844 C120.5313,354.9844 121.6875,354.6875 122.4375,354.1406 C123.0156,353.7344 123.3438,353.2813 123.3438,352.8906 C123.3438,352.4375 122.9531,352.0469 122.4844,352.0469 C122.2656,352.0469 122.0625,352.125 121.875,352.3125 C121.4219,352.7969 121.4219,352.7969 121.2344,352.8906 C120.8125,353.1563 120.125,353.2813 119.3594,353.2813 C117.3125,353.2813 116.0156,352.1875 116.0156,350.4844 L116.0156,349.3906 C116.0156,347.6094 117.2656,346.2969 119,346.2969 C119.5781,346.2969 120.1875,346.4531 120.6563,346.7031 C121.1406,346.9844 121.3125,347.2031 121.4063,347.6094 C121.4688,348.0156 121.5,348.1406 121.6406,348.2656 C121.7813,348.4063 122.0156,348.5156 122.2344,348.5156 C122.5,348.5156 122.7656,348.375 122.9375,348.1563 C123.0469,348 123.0781,347.8125 123.0781,347.3906 L123.0781,345.9688 C123.0781,345.5313 123.0625,345.4063 122.9688,345.25 C122.8125,344.9844 122.5313,344.8438 122.2344,344.8438 C121.9375,344.8438 121.7344,344.9375 121.5156,345.25 L121.3438,345.1719 Z " fill="#000000"/><text fill="#000000" font-family="sans-serif" font-size="12" lengthAdjust="spacing" textLength="58" x="133" y="353.6543">ZoomBild</text><line style="stroke:#A80036;stroke-width:1.5;" x1="105" x2="193" y1="365.5" y2="365.5"/><line style="stroke:#A80036;stroke-width:1.5;" x1="105" x2="193" y1="373.5" y2="373.5"/><polygon fill="#FFFFFF" filter="url(#f155qd8wtfx00l)" points="370,331,508,331,515,353.2969,522,353.2969,522,383.5938,370,383.5938,370,331" style="stroke:#000000;stroke-width:1.5;"/><line style="stroke:#000000;stroke-width:1.5;" x1="370" x2="515" y1="353.2969" y2="353.2969"/><text fill="#000000" font-family="sans-serif" font-size="14" font-weight="bold" lengthAdjust="spacing" textLength="132" x="374" y="345.9951">SpeicherMedium</text><polygon fill="#FFFFFF" filter="url(#f155qd8wtfx00l)" points="557,331,615,331,622,353.2969,629,353.2969,629,383.5938,557,383.5938,557,331" style="stroke:#000000;stroke-width:1.5;"/><line style="stroke:#000000;stroke-width:1.5;" x1="557" x2="622" y1="353.2969" y2="353.2969"/><text fill="#000000" font-family="sans-serif" font-size="14" font-weight="bold" lengthAdjust="spacing" textLength="52" x="561" y="345.9951">Config</text><!--MD5=[626b00d2609f42ba755c8afb6d5f2b59]
class Bild--><rect codeLine="1" fill="#FEFECE" filter="url(#f155qd8wtfx00l)" height="48" id="Bild" style="stroke:#A80036;stroke-width:1.5;" width="54" x="7" y="223"/><ellipse cx="22" cy="239" fill="#A9DCDF" rx="11" ry="11" style="stroke:#A80036;stroke-width:1.0;"/><path d="M24.0781,240.8125 L24.4688,241.7969 L24.0781,241.7969 C23.625,241.7969 23.5156,241.8125 23.3594,241.9219 C23.1094,242.0781 22.9531,242.3594 22.9531,242.6563 C22.9531,242.9219 23.0938,243.1719 23.3125,243.3281 C23.4531,243.4531 23.6563,243.5 24.0781,243.5 L26.4375,243.5 C26.7969,243.5 27.0156,243.4688 27.1563,243.375 C27.4063,243.2344 27.5625,242.9375 27.5625,242.6563 C27.5625,242.375 27.4219,242.125 27.2031,241.9688 C27.0313,241.8281 26.875,241.7969 26.4063,241.7969 L23.0156,233.5938 L19.3438,233.5938 C18.8906,233.5938 18.7656,233.6094 18.6094,233.7031 C18.3594,233.875 18.2031,234.1563 18.2031,234.4375 C18.2031,234.7188 18.3438,234.9688 18.5625,235.1406 C18.7344,235.25 18.9063,235.2813 19.3438,235.2813 L20.4219,235.2813 L17.7813,241.7969 C17.3594,241.7969 17.2031,241.8125 17.0469,241.9219 C16.7969,242.0781 16.6406,242.3594 16.6406,242.6563 C16.6406,243.2188 17.0156,243.5 17.7656,243.5 L20.0313,243.5 C20.3906,243.5 20.6094,243.4688 20.7344,243.375 C21,243.2344 21.1406,242.9375 21.1406,242.6563 C21.1406,242.375 21.0156,242.125 20.7969,241.9531 C20.625,241.8281 20.4844,241.7969 20.0313,241.7969 L19.6406,241.7969 L20.0313,240.8125 L24.0781,240.8125 Z M23.375,239.1094 L20.7031,239.1094 L22.0469,235.8438 L23.375,239.1094 Z " fill="#000000"/><text fill="#000000" font-family="sans-serif" font-size="12" font-style="italic" lengthAdjust="spacing" textLength="22" x="36" y="243.1543">Bild</text><line style="stroke:#A80036;stroke-width:1.5;" x1="8" x2="60" y1="255" y2="255"/><line style="stroke:#A80036;stroke-width:1.5;" x1="8" x2="60" y1="263" y2="263"/><!--MD5=[fccc419d627b37790932ddb688fb7ad6]
class Tutorial--><rect codeLine="2" fill="#FEFECE" filter="url(#f155qd8wtfx00l)" height="48" id="Tutorial" style="stroke:#A80036;stroke-width:1.5;" width="77" x="243.5" y="7"/><ellipse cx="258.5" cy="23" fill="#A9DCDF" rx="11" ry="11" style="stroke:#A80036;stroke-width:1.0;"/><path d="M260.5781,24.8125 L260.9688,25.7969 L260.5781,25.7969 C260.125,25.7969 260.0156,25.8125 259.8594,25.9219 C259.6094,26.0781 259.4531,26.3594 259.4531,26.6563 C259.4531,26.9219 259.5938,27.1719 259.8125,27.3281 C259.9531,27.4531 260.1563,27.5 260.5781,27.5 L262.9375,27.5 C263.2969,27.5 263.5156,27.4688 263.6563,27.375 C263.9063,27.2344 264.0625,26.9375 264.0625,26.6563 C264.0625,26.375 263.9219,26.125 263.7031,25.9688 C263.5313,25.8281 263.375,25.7969 262.9063,25.7969 L259.5156,17.5938 L255.8438,17.5938 C255.3906,17.5938 255.2656,17.6094 255.1094,17.7031 C254.8594,17.875 254.7031,18.1563 254.7031,18.4375 C254.7031,18.7188 254.8438,18.9688 255.0625,19.1406 C255.2344,19.25 255.4063,19.2813 255.8438,19.2813 L256.9219,19.2813 L254.2813,25.7969 C253.8594,25.7969 253.7031,25.8125 253.5469,25.9219 C253.2969,26.0781 253.1406,26.3594 253.1406,26.6563 C253.1406,27.2188 253.5156,27.5 254.2656,27.5 L256.5313,27.5 C256.8906,27.5 257.1094,27.4688 257.2344,27.375 C257.5,27.2344 257.6406,26.9375 257.6406,26.6563 C257.6406,26.375 257.5156,26.125 257.2969,25.9531 C257.125,25.8281 256.9844,25.7969 256.5313,25.7969 L256.1406,25.7969 L256.5313,24.8125 L260.5781,24.8125 Z M259.875,23.1094 L257.2031,23.1094 L258.5469,19.8438 L259.875,23.1094 Z " fill="#000000"/><text fill="#000000" font-family="sans-serif" font-size="12" font-style="italic" lengthAdjust="spacing" textLength="45" x="272.5" y="27.1543">Tutorial</text><line style="stroke:#A80036;stroke-width:1.5;" x1="244.5" x2="319.5" y1="39" y2="39"/><line style="stroke:#A80036;stroke-width:1.5;" x1="244.5" x2="319.5" y1="47" y2="47"/><!--MD5=[91cffcbb8234028742b6ac8b9b57d54f]
reverse link Bild to ZoomBild--><path codeLine="26" d="M73.0781,284.869 C90.0155,300.849 109.337,319.0792 124.25,333.1491 " fill="none" id="Bild-backto-ZoomBild" style="stroke:#A80036;stroke-width:1.0;"/><polygon fill="none" points="68.1321,289.827,58.3885,271.01,77.7396,279.644,68.1321,289.827" style="stroke:#A80036;stroke-width:1.0;"/><!--MD5=[74bcaaa80c1f5666ddc668b1a184278c]
reverse link Tutorial to ZoomTutorial--><path codeLine="27" d="M282,75.024 C282,88.579 282,103.038 282,114.678 " fill="none" id="Tutorial-backto-ZoomTutorial" style="stroke:#A80036;stroke-width:1.0;"/><polygon fill="none" points="275,75,282,55,289,75,275,75" style="stroke:#A80036;stroke-width:1.0;"/><!--MD5=[2708804abe4d1091750fa48cfee7ac00]
link ZoomInput to ZoomCalculator--><path codeLine="30" d="M158.274,163 C170.768,180.658 187.949,204.941 200.499,222.678 " fill="none" id="ZoomInput-ZoomCalculator" style="stroke:#A80036;stroke-width:1.0;"/><!--MD5=[d14beb75e4877be6f65874a887b5bf30]
link ZoomCalculator to ZoomBild--><path codeLine="31" d="M202.579,271.01 C191.117,289.298 175.152,314.7721 163.635,333.1491 " fill="none" id="ZoomCalculator-ZoomBild" style="stroke:#A80036;stroke-width:1.0;"/><!--MD5=[ab94cbc2495622a03fec4b24390f5618]
link ZoomCalculator to SpeicherMedium--><path codeLine="34" d="M265.565,271.01 C302.589,288.552 353.566,312.705 391.893,330.8643 " fill="none" id="ZoomCalculator-SpeicherMedium" style="stroke:#A80036;stroke-width:1.0;"/><!--MD5=[b5bf2730b290792fe768f0624d25067c]
link ZoomCalculator to Config--><path codeLine="35" d="M280.639,260.474 C346.603,274.297 452.163,298.939 540,331 C545.563,333.0307 551.326,335.4501 556.913,337.978 " fill="none" id="ZoomCalculator-Config" style="stroke:#A80036;stroke-width:1.0;"/><!--MD5=[b20e104d163d0a96bd8b8c067cf29135]
@startuml
abstract Bild
abstract Tutorial

package ZoomMaps {
  class ZoomTutorial {

  }

  class ZoomInput {
  }

  class ZoomCalculator {
  }

  class ZoomBild {

  }
  
}

package SpeicherMedium {}

package Config {}

' Vererbungen
Bild <|- - ZoomBild
Tutorial <|- - ZoomTutorial

' Interaktionen
ZoomInput - - ZoomCalculator
ZoomCalculator - - ZoomBild

' Andere Module
ZoomCalculator - - SpeicherMedium
ZoomCalculator - - Config
@enduml

@startuml
abstract Bild
abstract Tutorial

package ZoomMaps {
  class ZoomTutorial {

  }

  class ZoomInput {
  }

  class ZoomCalculator {
  }

  class ZoomBild {

  }
  
}

package SpeicherMedium {}

package Config {}

Bild <|- - ZoomBild
Tutorial <|- - ZoomTutorial

ZoomInput - - ZoomCalculator
ZoomCalculator - - ZoomBild

ZoomCalculator - - SpeicherMedium
ZoomCalculator - - Config
@enduml

PlantUML version 1.2021.13beta8(Unknown compile time)
(GPL source distribution)
Java Runtime: Java(TM) SE Runtime Environment
JVM: Java HotSpot(TM) 64-Bit Server VM
Default Encoding: UTF-8
Language: en
Country: US
--></g></svg>