<?xml version="1.0" encoding="UTF-8" standalone="no"?><svg xmlns="http://www.w3.org/2000/svg" xmlns:xlink="http://www.w3.org/1999/xlink" contentScriptType="application/ecmascript" contentStyleType="text/css" height="894px" preserveAspectRatio="none" style="width:728px;height:894px;background:#FFFFFF;" version="1.1" viewBox="0 0 728 894" width="728px" zoomAndPan="magnify"><defs><filter height="300%" id="fwsxqk6csidh0" width="300%" x="-1" y="-1"><feGaussianBlur result="blurOut" stdDeviation="2.0"/><feColorMatrix in="blurOut" result="blurOut2" type="matrix" values="0 0 0 0 0 0 0 0 0 0 0 0 0 0 0 0 0 0 .4 0"/><feOffset dx="4.0" dy="4.0" in="blurOut2" result="blurOut3"/><feBlend in="SourceGraphic" in2="blurOut3" mode="normal"/></filter></defs><g><!--MD5=[a55135535b5c544b99c33b17428c3b14]
cluster Util--><polygon fill="#FFFFFF" filter="url(#fwsxqk6csidh0)" points="63,6,98,6,105,28.2969,533,28.2969,533,371,63,371,63,6" style="stroke:#000000;stroke-width:1.5;"/><line style="stroke:#000000;stroke-width:1.5;" x1="63" x2="105" y1="28.2969" y2="28.2969"/><text fill="#000000" font-family="sans-serif" font-size="14" font-weight="bold" lengthAdjust="spacing" textLength="29" x="67" y="20.9951">Util</text><!--MD5=[7d78d958a1816327b68dab5e38143fdd]
cluster ZoomMaps--><polygon fill="#FFFFFF" filter="url(#fwsxqk6csidh0)" points="107,420,202,420,209,442.2969,711,442.2969,711,772,107,772,107,420" style="stroke:#000000;stroke-width:1.5;"/><line style="stroke:#000000;stroke-width:1.5;" x1="107" x2="209" y1="442.2969" y2="442.2969"/><text fill="#000000" font-family="sans-serif" font-size="14" font-weight="bold" lengthAdjust="spacing" textLength="89" x="111" y="434.9951">ZoomMaps</text><!--MD5=[fccc419d627b37790932ddb688fb7ad6]
class Tutorial--><rect codeLine="7" fill="#FEFECE" filter="url(#fwsxqk6csidh0)" height="167.2422" id="Tutorial" style="stroke:#A80036;stroke-width:1.5;" width="236" x="79" y="188"/><ellipse cx="135.25" cy="204" fill="#A9DCDF" rx="11" ry="11" style="stroke:#A80036;stroke-width:1.0;"/><path d="M137.3281,205.8125 L137.7188,206.7969 L137.3281,206.7969 C136.875,206.7969 136.7656,206.8125 136.6094,206.9219 C136.3594,207.0781 136.2031,207.3594 136.2031,207.6563 C136.2031,207.9219 136.3438,208.1719 136.5625,208.3281 C136.7031,208.4531 136.9063,208.5 137.3281,208.5 L139.6875,208.5 C140.0469,208.5 140.2656,208.4688 140.4063,208.375 C140.6563,208.2344 140.8125,207.9375 140.8125,207.6563 C140.8125,207.375 140.6719,207.125 140.4531,206.9688 C140.2813,206.8281 140.125,206.7969 139.6563,206.7969 L136.2656,198.5938 L132.5938,198.5938 C132.1406,198.5938 132.0156,198.6094 131.8594,198.7031 C131.6094,198.875 131.4531,199.1563 131.4531,199.4375 C131.4531,199.7188 131.5938,199.9688 131.8125,200.1406 C131.9844,200.25 132.1563,200.2813 132.5938,200.2813 L133.6719,200.2813 L131.0313,206.7969 C130.6094,206.7969 130.4531,206.8125 130.2969,206.9219 C130.0469,207.0781 129.8906,207.3594 129.8906,207.6563 C129.8906,208.2188 130.2656,208.5 131.0156,208.5 L133.2813,208.5 C133.6406,208.5 133.8594,208.4688 133.9844,208.375 C134.25,208.2344 134.3906,207.9375 134.3906,207.6563 C134.3906,207.375 134.2656,207.125 134.0469,206.9531 C133.875,206.8281 133.7344,206.7969 133.2813,206.7969 L132.8906,206.7969 L133.2813,205.8125 L137.3281,205.8125 Z M136.625,204.1094 L133.9531,204.1094 L135.2969,200.8438 L136.625,204.1094 Z " fill="#000000"/><text fill="#000000" font-family="sans-serif" font-size="12" font-style="italic" lengthAdjust="spacing" textLength="45" x="155.75" y="208.1543">Tutorial</text><rect fill="#FFFFFF" height="15.9688" style="stroke:#000000;stroke-width:1.0;stroke-dasharray:2.0,2.0;" width="68" x="250" y="185"/><text fill="#000000" font-family="sans-serif" font-size="12" font-style="italic" lengthAdjust="spacing" textLength="66" x="251" y="197.1387">t: ToolType</text><line style="stroke:#A80036;stroke-width:1.5;" x1="80" x2="314" y1="220" y2="220"/><rect fill="none" height="6" style="stroke:#C82930;stroke-width:1.0;" width="6" x="87" y="228"/><text fill="#000000" font-family="sans-serif" font-size="11" lengthAdjust="spacing" textLength="64" x="99" y="234.2104">t: ToolType</text><ellipse cx="90" cy="260.6094" fill="#84BE84" rx="3" ry="3" style="stroke:#038048;stroke-width:1.0;"/><text fill="#000000" font-family="sans-serif" font-size="11" lengthAdjust="spacing" textLength="68" x="99" y="263.8198">start() : void</text><line style="stroke:#A80036;stroke-width:1.5;" x1="80" x2="156.5" y1="247.207" y2="247.207"/><text fill="#000000" font-family="sans-serif" font-size="11" lengthAdjust="spacing" textLength="81" x="156.5" y="250.5151">public method</text><line style="stroke:#A80036;stroke-width:1.5;" x1="237.5" x2="314" y1="247.207" y2="247.207"/><rect fill="#F24D5C" height="6" style="stroke:#C82930;stroke-width:1.0;" width="6" x="87" y="287.2188"/><text fill="#000000" font-family="sans-serif" font-size="11" lengthAdjust="spacing" textLength="151" x="99" y="293.4292">getConfigState() : boolean</text><rect fill="#F24D5C" height="6" style="stroke:#C82930;stroke-width:1.0;" width="6" x="87" y="300.0234"/><text fill="#000000" font-family="sans-serif" font-size="11" lengthAdjust="spacing" textLength="210" x="99" y="306.2339">setConfigState(state: boolean) : void</text><rect fill="#F24D5C" height="6" style="stroke:#C82930;stroke-width:1.0;" width="6" x="87" y="312.8281"/><text fill="#000000" font-family="sans-serif" font-size="11" lengthAdjust="spacing" textLength="94" x="99" y="319.0386">show() : boolean</text><line style="stroke:#A80036;stroke-width:1.5;" x1="80" x2="150" y1="276.8164" y2="276.8164"/><text fill="#000000" font-family="sans-serif" font-size="11" lengthAdjust="spacing" textLength="94" x="150" y="280.1245">private methods</text><line style="stroke:#A80036;stroke-width:1.5;" x1="244" x2="314" y1="276.8164" y2="276.8164"/><rect fill="#F24D5C" height="6" style="stroke:#C82930;stroke-width:1.0;" width="6" x="87" y="342.4375"/><text fill="#000000" font-family="sans-serif" font-size="11" font-style="italic" lengthAdjust="spacing" textLength="84" x="99" y="348.6479">tutorial() : void</text><line style="stroke:#A80036;stroke-width:1.5;" x1="80" x2="147.5" y1="332.0352" y2="332.0352"/><text fill="#000000" font-family="sans-serif" font-size="11" lengthAdjust="spacing" textLength="99" x="147.5" y="335.3433">abstract methods</text><line style="stroke:#A80036;stroke-width:1.5;" x1="246.5" x2="314" y1="332.0352" y2="332.0352"/><!--MD5=[5c39798b83ace9e75333b1274a725e6c]
class ToolType--><rect codeLine="19" fill="#FEFECE" filter="url(#fwsxqk6csidh0)" height="86.4141" id="ToolType" style="stroke:#A80036;stroke-width:1.5;" width="91" x="79.5" y="41"/><ellipse cx="95.85" cy="57" fill="#EB937F" rx="11" ry="11" style="stroke:#A80036;stroke-width:1.0;"/><path d="M94.6469,57.875 L96.1,57.875 L96.1,57.9844 C96.1,58.3906 96.1313,58.5469 96.2094,58.7031 C96.3656,58.9531 96.6469,59.1094 96.9438,59.1094 C97.1938,59.1094 97.4594,58.9688 97.6156,58.75 C97.7406,58.5938 97.7719,58.4375 97.7719,57.9844 L97.7719,56.0625 C97.7719,55.9063 97.7719,55.8594 97.7563,55.7031 C97.6938,55.2344 97.3813,54.9219 96.9281,54.9219 C96.6781,54.9219 96.4125,55.0625 96.2406,55.2813 C96.1313,55.4531 96.1,55.6094 96.1,56.0625 L96.1,56.1875 L94.6469,56.1875 L94.6469,53.7813 L98.6313,53.7813 L98.6313,54.6406 C98.6313,55.0469 98.6625,55.2188 98.7406,55.375 C98.9125,55.625 99.1938,55.7813 99.475,55.7813 C99.7406,55.7813 100.0063,55.6406 100.1781,55.4219 C100.2875,55.25 100.3188,55.1094 100.3188,54.6406 L100.3188,52.0938 L92.6938,52.0938 C92.2563,52.0938 92.1313,52.1094 91.975,52.2031 C91.725,52.3594 91.5688,52.6563 91.5688,52.9375 C91.5688,53.2188 91.7094,53.4688 91.9281,53.6406 C92.0844,53.75 92.2719,53.7813 92.6938,53.7813 L92.9438,53.7813 L92.9438,60.2969 L92.6938,60.2969 C92.2875,60.2969 92.1313,60.3125 91.975,60.4219 C91.725,60.5938 91.5688,60.8594 91.5688,61.1563 C91.5688,61.4219 91.7094,61.6719 91.9281,61.8281 C92.0688,61.9531 92.3031,62 92.6938,62 L100.6938,62 L100.6938,59.4219 C100.6938,58.9844 100.6625,58.8438 100.5844,58.6875 C100.4125,58.4375 100.1313,58.2813 99.85,58.2813 C99.5844,58.2813 99.3188,58.3906 99.1469,58.6406 C99.0375,58.7969 99.0063,58.9375 99.0063,59.4219 L99.0063,60.2969 L94.6469,60.2969 L94.6469,57.875 Z " fill="#000000"/><text fill="#000000" font-family="sans-serif" font-size="12" lengthAdjust="spacing" textLength="56" x="110.15" y="61.1543">ToolType</text><line style="stroke:#A80036;stroke-width:1.5;" x1="80.5" x2="169.5" y1="73" y2="73"/><text fill="#000000" font-family="sans-serif" font-size="11" lengthAdjust="spacing" textLength="35" x="85.5" y="87.2104">ZOOM</text><text fill="#000000" font-family="sans-serif" font-size="11" lengthAdjust="spacing" textLength="78" x="85.5" y="100.0151">EYETRACKING</text><text fill="#000000" font-family="sans-serif" font-size="11" lengthAdjust="spacing" textLength="79" x="85.5" y="112.8198">CODECHARTS</text><line style="stroke:#A80036;stroke-width:1.5;" x1="80.5" x2="169.5" y1="119.4141" y2="119.4141"/><!--MD5=[60c9ed31c535bee25c55ce21b5b01399]
class Data--><rect codeLine="38" fill="#FEFECE" filter="url(#fwsxqk6csidh0)" height="86.4141" id="Data" style="stroke:#A80036;stroke-width:1.5;" width="129" x="205.5" y="41"/><ellipse cx="220.5" cy="57" fill="#ADD1B2" rx="11" ry="11" style="stroke:#A80036;stroke-width:1.0;"/><path d="M222.8438,52.6719 C221.9063,52.2344 221.3125,52.0938 220.4375,52.0938 C217.8125,52.0938 215.8125,54.1719 215.8125,56.8906 L215.8125,58.0156 C215.8125,60.5938 217.9219,62.4844 220.8125,62.4844 C222.0313,62.4844 223.1875,62.1875 223.9375,61.6406 C224.5156,61.2344 224.8438,60.7813 224.8438,60.3906 C224.8438,59.9375 224.4531,59.5469 223.9844,59.5469 C223.7656,59.5469 223.5625,59.625 223.375,59.8125 C222.9219,60.2969 222.9219,60.2969 222.7344,60.3906 C222.3125,60.6563 221.625,60.7813 220.8594,60.7813 C218.8125,60.7813 217.5156,59.6875 217.5156,57.9844 L217.5156,56.8906 C217.5156,55.1094 218.7656,53.7969 220.5,53.7969 C221.0781,53.7969 221.6875,53.9531 222.1563,54.2031 C222.6406,54.4844 222.8125,54.7031 222.9063,55.1094 C222.9688,55.5156 223,55.6406 223.1406,55.7656 C223.2813,55.9063 223.5156,56.0156 223.7344,56.0156 C224,56.0156 224.2656,55.875 224.4375,55.6563 C224.5469,55.5 224.5781,55.3125 224.5781,54.8906 L224.5781,53.4688 C224.5781,53.0313 224.5625,52.9063 224.4688,52.75 C224.3125,52.4844 224.0313,52.3438 223.7344,52.3438 C223.4375,52.3438 223.2344,52.4375 223.0156,52.75 L222.8438,52.6719 Z " fill="#000000"/><text fill="#000000" font-family="sans-serif" font-size="12" lengthAdjust="spacing" textLength="27" x="234.5" y="61.1543">Data</text><rect fill="#FFFFFF" height="15.9688" style="stroke:#000000;stroke-width:1.0;stroke-dasharray:2.0,2.0;" width="68" x="269.5" y="38"/><text fill="#000000" font-family="sans-serif" font-size="12" font-style="italic" lengthAdjust="spacing" textLength="66" x="270.5" y="50.1387">t: ToolType</text><line style="stroke:#A80036;stroke-width:1.5;" x1="206.5" x2="333.5" y1="73" y2="73"/><ellipse cx="216.5" cy="84" rx="3" ry="3" style="stroke:#038048;stroke-width:1.0;fill:none;"/><text fill="#000000" font-family="sans-serif" font-size="11" lengthAdjust="spacing" textLength="64" x="225.5" y="87.2104">t: ToolType</text><ellipse cx="216.5" cy="96.8047" rx="3" ry="3" style="stroke:#038048;stroke-width:1.0;fill:none;"/><text fill="#000000" font-family="sans-serif" font-size="11" lengthAdjust="spacing" textLength="82" x="225.5" y="100.0151">data: unknown</text><ellipse cx="216.5" cy="109.6094" rx="3" ry="3" style="stroke:#038048;stroke-width:1.0;fill:none;"/><text fill="#000000" font-family="sans-serif" font-size="11" lengthAdjust="spacing" textLength="71" x="225.5" y="112.8198">config_id: int</text><line style="stroke:#A80036;stroke-width:1.5;" x1="206.5" x2="333.5" y1="119.4141" y2="119.4141"/><!--MD5=[626b00d2609f42ba755c8afb6d5f2b59]
class Bild--><rect codeLine="33" fill="#FEFECE" filter="url(#fwsxqk6csidh0)" height="73.6094" id="Bild" style="stroke:#A80036;stroke-width:1.5;" width="147" x="369.5" y="47"/><ellipse cx="427.75" cy="63" fill="#A9DCDF" rx="11" ry="11" style="stroke:#A80036;stroke-width:1.0;"/><path d="M429.8281,64.8125 L430.2188,65.7969 L429.8281,65.7969 C429.375,65.7969 429.2656,65.8125 429.1094,65.9219 C428.8594,66.0781 428.7031,66.3594 428.7031,66.6563 C428.7031,66.9219 428.8438,67.1719 429.0625,67.3281 C429.2031,67.4531 429.4063,67.5 429.8281,67.5 L432.1875,67.5 C432.5469,67.5 432.7656,67.4688 432.9063,67.375 C433.1563,67.2344 433.3125,66.9375 433.3125,66.6563 C433.3125,66.375 433.1719,66.125 432.9531,65.9688 C432.7813,65.8281 432.625,65.7969 432.1563,65.7969 L428.7656,57.5938 L425.0938,57.5938 C424.6406,57.5938 424.5156,57.6094 424.3594,57.7031 C424.1094,57.875 423.9531,58.1563 423.9531,58.4375 C423.9531,58.7188 424.0938,58.9688 424.3125,59.1406 C424.4844,59.25 424.6563,59.2813 425.0938,59.2813 L426.1719,59.2813 L423.5313,65.7969 C423.1094,65.7969 422.9531,65.8125 422.7969,65.9219 C422.5469,66.0781 422.3906,66.3594 422.3906,66.6563 C422.3906,67.2188 422.7656,67.5 423.5156,67.5 L425.7813,67.5 C426.1406,67.5 426.3594,67.4688 426.4844,67.375 C426.75,67.2344 426.8906,66.9375 426.8906,66.6563 C426.8906,66.375 426.7656,66.125 426.5469,65.9531 C426.375,65.8281 426.2344,65.7969 425.7813,65.7969 L425.3906,65.7969 L425.7813,64.8125 L429.8281,64.8125 Z M429.125,63.1094 L426.4531,63.1094 L427.7969,59.8438 L429.125,63.1094 Z " fill="#000000"/><text fill="#000000" font-family="sans-serif" font-size="12" font-style="italic" lengthAdjust="spacing" textLength="22" x="448.25" y="67.1543">Bild</text><line style="stroke:#A80036;stroke-width:1.5;" x1="370.5" x2="515.5" y1="79" y2="79"/><line style="stroke:#A80036;stroke-width:1.5;" x1="370.5" x2="515.5" y1="87" y2="87"/><ellipse cx="380.5" cy="98" fill="#84BE84" rx="3" ry="3" style="stroke:#038048;stroke-width:1.0;"/><text fill="#000000" font-family="sans-serif" font-size="11" lengthAdjust="spacing" textLength="121" x="389.5" y="101.2104">load(url: String) : void</text><ellipse cx="380.5" cy="110.8047" fill="#84BE84" rx="3" ry="3" style="stroke:#038048;stroke-width:1.0;"/><text fill="#000000" font-family="sans-serif" font-size="11" lengthAdjust="spacing" textLength="72" x="389.5" y="114.0151">show() : void</text><!--MD5=[9767bd966f4d33191914ccb96558e57c]
class ZoomInput--><rect codeLine="51" fill="#FEFECE" filter="url(#fwsxqk6csidh0)" height="73.6094" id="ZoomInput" style="stroke:#A80036;stroke-width:1.5;" width="114" x="581" y="455"/><ellipse cx="603.65" cy="471" fill="#ADD1B2" rx="11" ry="11" style="stroke:#A80036;stroke-width:1.0;"/><path d="M605.9938,466.6719 C605.0563,466.2344 604.4625,466.0938 603.5875,466.0938 C600.9625,466.0938 598.9625,468.1719 598.9625,470.8906 L598.9625,472.0156 C598.9625,474.5938 601.0719,476.4844 603.9625,476.4844 C605.1813,476.4844 606.3375,476.1875 607.0875,475.6406 C607.6656,475.2344 607.9938,474.7813 607.9938,474.3906 C607.9938,473.9375 607.6031,473.5469 607.1344,473.5469 C606.9156,473.5469 606.7125,473.625 606.525,473.8125 C606.0719,474.2969 606.0719,474.2969 605.8844,474.3906 C605.4625,474.6563 604.775,474.7813 604.0094,474.7813 C601.9625,474.7813 600.6656,473.6875 600.6656,471.9844 L600.6656,470.8906 C600.6656,469.1094 601.9156,467.7969 603.65,467.7969 C604.2281,467.7969 604.8375,467.9531 605.3063,468.2031 C605.7906,468.4844 605.9625,468.7031 606.0563,469.1094 C606.1188,469.5156 606.15,469.6406 606.2906,469.7656 C606.4313,469.9063 606.6656,470.0156 606.8844,470.0156 C607.15,470.0156 607.4156,469.875 607.5875,469.6563 C607.6969,469.5 607.7281,469.3125 607.7281,468.8906 L607.7281,467.4688 C607.7281,467.0313 607.7125,466.9063 607.6188,466.75 C607.4625,466.4844 607.1813,466.3438 606.8844,466.3438 C606.5875,466.3438 606.3844,466.4375 606.1656,466.75 L605.9938,466.6719 Z " fill="#000000"/><text fill="#000000" font-family="sans-serif" font-size="12" lengthAdjust="spacing" textLength="65" x="619.35" y="475.1543">ZoomInput</text><line style="stroke:#A80036;stroke-width:1.5;" x1="582" x2="694" y1="487" y2="487"/><line style="stroke:#A80036;stroke-width:1.5;" x1="582" x2="694" y1="495" y2="495"/><rect fill="#F24D5C" height="6" style="stroke:#C82930;stroke-width:1.0;" width="6" x="589" y="503"/><text fill="#000000" font-family="sans-serif" font-size="11" lengthAdjust="spacing" textLength="83" x="601" y="509.2104">onClick() : void</text><rect fill="#F24D5C" height="6" style="stroke:#C82930;stroke-width:1.0;" width="6" x="589" y="515.8047"/><text fill="#000000" font-family="sans-serif" font-size="11" lengthAdjust="spacing" textLength="88" x="601" y="522.0151">onScroll() : void</text><!--MD5=[e6f9a0eef67c9f7cee45e688f45a88fd]
class ZoomTutorial--><rect codeLine="57" fill="#FEFECE" filter="url(#fwsxqk6csidh0)" height="60.8047" id="ZoomTutorial" style="stroke:#A80036;stroke-width:1.5;" width="182" x="123" y="461.5"/><ellipse cx="138" cy="477.5" fill="#ADD1B2" rx="11" ry="11" style="stroke:#A80036;stroke-width:1.0;"/><path d="M140.3438,473.1719 C139.4063,472.7344 138.8125,472.5938 137.9375,472.5938 C135.3125,472.5938 133.3125,474.6719 133.3125,477.3906 L133.3125,478.5156 C133.3125,481.0938 135.4219,482.9844 138.3125,482.9844 C139.5313,482.9844 140.6875,482.6875 141.4375,482.1406 C142.0156,481.7344 142.3438,481.2813 142.3438,480.8906 C142.3438,480.4375 141.9531,480.0469 141.4844,480.0469 C141.2656,480.0469 141.0625,480.125 140.875,480.3125 C140.4219,480.7969 140.4219,480.7969 140.2344,480.8906 C139.8125,481.1563 139.125,481.2813 138.3594,481.2813 C136.3125,481.2813 135.0156,480.1875 135.0156,478.4844 L135.0156,477.3906 C135.0156,475.6094 136.2656,474.2969 138,474.2969 C138.5781,474.2969 139.1875,474.4531 139.6563,474.7031 C140.1406,474.9844 140.3125,475.2031 140.4063,475.6094 C140.4688,476.0156 140.5,476.1406 140.6406,476.2656 C140.7813,476.4063 141.0156,476.5156 141.2344,476.5156 C141.5,476.5156 141.7656,476.375 141.9375,476.1563 C142.0469,476 142.0781,475.8125 142.0781,475.3906 L142.0781,473.9688 C142.0781,473.5313 142.0625,473.4063 141.9688,473.25 C141.8125,472.9844 141.5313,472.8438 141.2344,472.8438 C140.9375,472.8438 140.7344,472.9375 140.5156,473.25 L140.3438,473.1719 Z " fill="#000000"/><text fill="#000000" font-family="sans-serif" font-size="12" lengthAdjust="spacing" textLength="80" x="152" y="481.6543">ZoomTutorial</text><rect fill="#FFFFFF" height="15.9688" style="stroke:#000000;stroke-width:1.0;stroke-dasharray:2.0,2.0;" width="68" x="240" y="458.5"/><text fill="#000000" font-family="sans-serif" font-size="12" font-style="italic" lengthAdjust="spacing" textLength="66" x="241" y="470.6387">t: ToolType</text><line style="stroke:#A80036;stroke-width:1.5;" x1="124" x2="304" y1="493.5" y2="493.5"/><line style="stroke:#A80036;stroke-width:1.5;" x1="124" x2="304" y1="501.5" y2="501.5"/><rect fill="#F24D5C" height="6" style="stroke:#C82930;stroke-width:1.0;" width="6" x="131" y="509.5"/><text fill="#000000" font-family="sans-serif" font-size="11" lengthAdjust="spacing" textLength="82" x="143" y="515.7104">tutorial() : void</text><!--MD5=[72b9880496439479a2cac04af8a355bc]
class ZoomCalculator--><rect codeLine="62" fill="#FEFECE" filter="url(#fwsxqk6csidh0)" height="150.4375" id="ZoomCalculator" style="stroke:#A80036;stroke-width:1.5;" width="252" x="317" y="606"/><ellipse cx="391.25" cy="622" fill="#ADD1B2" rx="11" ry="11" style="stroke:#A80036;stroke-width:1.0;"/><path d="M393.5938,617.6719 C392.6563,617.2344 392.0625,617.0938 391.1875,617.0938 C388.5625,617.0938 386.5625,619.1719 386.5625,621.8906 L386.5625,623.0156 C386.5625,625.5938 388.6719,627.4844 391.5625,627.4844 C392.7813,627.4844 393.9375,627.1875 394.6875,626.6406 C395.2656,626.2344 395.5938,625.7813 395.5938,625.3906 C395.5938,624.9375 395.2031,624.5469 394.7344,624.5469 C394.5156,624.5469 394.3125,624.625 394.125,624.8125 C393.6719,625.2969 393.6719,625.2969 393.4844,625.3906 C393.0625,625.6563 392.375,625.7813 391.6094,625.7813 C389.5625,625.7813 388.2656,624.6875 388.2656,622.9844 L388.2656,621.8906 C388.2656,620.1094 389.5156,618.7969 391.25,618.7969 C391.8281,618.7969 392.4375,618.9531 392.9063,619.2031 C393.3906,619.4844 393.5625,619.7031 393.6563,620.1094 C393.7188,620.5156 393.75,620.6406 393.8906,620.7656 C394.0313,620.9063 394.2656,621.0156 394.4844,621.0156 C394.75,621.0156 395.0156,620.875 395.1875,620.6563 C395.2969,620.5 395.3281,620.3125 395.3281,619.8906 L395.3281,618.4688 C395.3281,618.0313 395.3125,617.9063 395.2188,617.75 C395.0625,617.4844 394.7813,617.3438 394.4844,617.3438 C394.1875,617.3438 393.9844,617.4375 393.7656,617.75 L393.5938,617.6719 Z " fill="#000000"/><text fill="#000000" font-family="sans-serif" font-size="12" lengthAdjust="spacing" textLength="95" x="411.75" y="626.1543">ZoomCalculator</text><line style="stroke:#A80036;stroke-width:1.5;" x1="318" x2="568" y1="638" y2="638"/><rect fill="none" height="6" style="stroke:#C82930;stroke-width:1.0;" width="6" x="325" y="646"/><text fill="#000000" font-family="sans-serif" font-size="11" lengthAdjust="spacing" textLength="68" x="337" y="652.2104">speed: float</text><rect fill="none" height="6" style="stroke:#C82930;stroke-width:1.0;" width="6" x="325" y="658.8047"/><text fill="#000000" font-family="sans-serif" font-size="11" lengthAdjust="spacing" textLength="91" x="337" y="665.0151">position: float[3]</text><rect fill="none" height="6" style="stroke:#C82930;stroke-width:1.0;" width="6" x="325" y="671.6094"/><text fill="#000000" font-family="sans-serif" font-size="11" lengthAdjust="spacing" textLength="59" x="337" y="677.8198">data: Data</text><ellipse cx="328" cy="704.2188" fill="#84BE84" rx="3" ry="3" style="stroke:#038048;stroke-width:1.0;"/><text fill="#000000" font-family="sans-serif" font-size="11" lengthAdjust="spacing" textLength="226" x="337" y="707.4292">processInput(raw_input: unknown) : void</text><ellipse cx="328" cy="717.0234" fill="#84BE84" rx="3" ry="3" style="stroke:#038048;stroke-width:1.0;"/><text fill="#000000" font-family="sans-serif" font-size="11" lengthAdjust="spacing" textLength="93" x="337" y="720.2339">save() : boolean</text><line style="stroke:#A80036;stroke-width:1.5;" x1="318" x2="402.5" y1="690.8164" y2="690.8164"/><text fill="#000000" font-family="sans-serif" font-size="11" lengthAdjust="spacing" textLength="81" x="402.5" y="694.1245">public method</text><line style="stroke:#A80036;stroke-width:1.5;" x1="483.5" x2="568" y1="690.8164" y2="690.8164"/><rect fill="#F24D5C" height="6" style="stroke:#C82930;stroke-width:1.0;" width="6" x="325" y="743.6328"/><text fill="#000000" font-family="sans-serif" font-size="11" lengthAdjust="spacing" textLength="221" x="337" y="749.8433">calculate(raw_input: unknown) : float[3]</text><line style="stroke:#A80036;stroke-width:1.5;" x1="318" x2="396" y1="733.2305" y2="733.2305"/><text fill="#000000" font-family="sans-serif" font-size="11" lengthAdjust="spacing" textLength="94" x="396" y="736.5386">private methods</text><line style="stroke:#A80036;stroke-width:1.5;" x1="490" x2="568" y1="733.2305" y2="733.2305"/><!--MD5=[90447d4191c16dafea1a917a3aa79093]
class ZoomBild--><rect codeLine="74" fill="#FEFECE" filter="url(#fwsxqk6csidh0)" height="60.8047" id="ZoomBild" style="stroke:#A80036;stroke-width:1.5;" width="205" x="340.5" y="461.5"/><ellipse cx="409.75" cy="477.5" fill="#ADD1B2" rx="11" ry="11" style="stroke:#A80036;stroke-width:1.0;"/><path d="M412.0938,473.1719 C411.1563,472.7344 410.5625,472.5938 409.6875,472.5938 C407.0625,472.5938 405.0625,474.6719 405.0625,477.3906 L405.0625,478.5156 C405.0625,481.0938 407.1719,482.9844 410.0625,482.9844 C411.2813,482.9844 412.4375,482.6875 413.1875,482.1406 C413.7656,481.7344 414.0938,481.2813 414.0938,480.8906 C414.0938,480.4375 413.7031,480.0469 413.2344,480.0469 C413.0156,480.0469 412.8125,480.125 412.625,480.3125 C412.1719,480.7969 412.1719,480.7969 411.9844,480.8906 C411.5625,481.1563 410.875,481.2813 410.1094,481.2813 C408.0625,481.2813 406.7656,480.1875 406.7656,478.4844 L406.7656,477.3906 C406.7656,475.6094 408.0156,474.2969 409.75,474.2969 C410.3281,474.2969 410.9375,474.4531 411.4063,474.7031 C411.8906,474.9844 412.0625,475.2031 412.1563,475.6094 C412.2188,476.0156 412.25,476.1406 412.3906,476.2656 C412.5313,476.4063 412.7656,476.5156 412.9844,476.5156 C413.25,476.5156 413.5156,476.375 413.6875,476.1563 C413.7969,476 413.8281,475.8125 413.8281,475.3906 L413.8281,473.9688 C413.8281,473.5313 413.8125,473.4063 413.7188,473.25 C413.5625,472.9844 413.2813,472.8438 412.9844,472.8438 C412.6875,472.8438 412.4844,472.9375 412.2656,473.25 L412.0938,473.1719 Z " fill="#000000"/><text fill="#000000" font-family="sans-serif" font-size="12" lengthAdjust="spacing" textLength="58" x="430.25" y="481.6543">ZoomBild</text><line style="stroke:#A80036;stroke-width:1.5;" x1="341.5" x2="544.5" y1="493.5" y2="493.5"/><line style="stroke:#A80036;stroke-width:1.5;" x1="341.5" x2="544.5" y1="501.5" y2="501.5"/><ellipse cx="351.5" cy="512.5" fill="#84BE84" rx="3" ry="3" style="stroke:#038048;stroke-width:1.0;"/><text fill="#000000" font-family="sans-serif" font-size="11" lengthAdjust="spacing" textLength="179" x="360.5" y="515.7104">move(position: float[3]): float[3]</text><polygon fill="#FFFFFF" filter="url(#fwsxqk6csidh0)" points="16,465.5,74,465.5,81,487.7969,88,487.7969,88,518.0938,16,518.0938,16,465.5" style="stroke:#000000;stroke-width:1.5;"/><line style="stroke:#000000;stroke-width:1.5;" x1="16" x2="81" y1="487.7969" y2="487.7969"/><text fill="#000000" font-family="sans-serif" font-size="14" font-weight="bold" lengthAdjust="spacing" textLength="52" x="20" y="480.4951">Config</text><polygon fill="#FFFFFF" filter="url(#fwsxqk6csidh0)" points="367,835,505,835,512,857.2969,519,857.2969,519,887.5938,367,887.5938,367,835" style="stroke:#000000;stroke-width:1.5;"/><line style="stroke:#000000;stroke-width:1.5;" x1="367" x2="512" y1="857.2969" y2="857.2969"/><text fill="#000000" font-family="sans-serif" font-size="14" font-weight="bold" lengthAdjust="spacing" textLength="132" x="371" y="849.9951">SpeicherMedium</text><!--MD5=[abea0b42432aea0f9ce66e53feda8644]
entity System--><ellipse cx="638" cy="271.5" fill="#DA70D5" filter="url(#fwsxqk6csidh0)" rx="8" ry="8" style="stroke:#A80036;stroke-width:1.5;"/><text fill="#000000" font-family="sans-serif" font-size="14" lengthAdjust="spacing" textLength="54" x="611" y="301.4951">System</text><!--MD5=[e72ca73ac73eca3f18a81a671fe51a7c]
link ToolType to Tutorial--><path codeLine="26" d="M141.338,127.093 C148.35,145.158 156.797,166.922 164.968,187.974 " fill="none" id="ToolType-Tutorial" style="stroke:#A80036;stroke-width:1.0;"/><!--MD5=[9f1a00b177a5ae45176fc1e7f3c0daae]
link Data to ToolType--><path codeLine="27" d="M205.154,84 C193.635,84 182.115,84 170.596,84 " fill="none" id="Data-ToolType" style="stroke:#A80036;stroke-width:1.0;"/><!--MD5=[fc4ffdc4bb2ac5a3cd1bd4c856213de4]
link Tutorial to Config--><path codeLine="28" d="M142.182,355.105 C116.198,394.261 86.9861,438.279 69.0374,465.326 " fill="none" id="Tutorial-Config" style="stroke:#A80036;stroke-width:1.0;"/><!--MD5=[91cffcbb8234028742b6ac8b9b57d54f]
reverse link Bild to ZoomBild--><path codeLine="80" d="M443,141.222 C443,228.672 443,394.215 443,461.476 " fill="none" id="Bild-backto-ZoomBild" style="stroke:#A80036;stroke-width:1.0;"/><polygon fill="none" points="436,141.03,443,121.03,450,141.03,436,141.03" style="stroke:#A80036;stroke-width:1.0;"/><!--MD5=[74bcaaa80c1f5666ddc668b1a184278c]
reverse link Tutorial to ZoomTutorial--><path codeLine="81" d="M204.983,375.105 C207.44,406.683 209.955,439.004 211.702,461.463 " fill="none" id="Tutorial-backto-ZoomTutorial" style="stroke:#A80036;stroke-width:1.0;"/><polygon fill="none" points="198,375.588,203.427,355.105,211.957,374.502,198,375.588" style="stroke:#A80036;stroke-width:1.0;"/><!--MD5=[2708804abe4d1091750fa48cfee7ac00]
link ZoomInput to ZoomCalculator--><path codeLine="84" d="M600.402,529.055 C577.714,550.813 547.961,579.345 520.437,605.74 " fill="none" id="ZoomInput-ZoomCalculator" style="stroke:#A80036;stroke-width:1.0;"/><!--MD5=[f1d0f4197788e2c83cd56df3430af640]
link ZoomBild to ZoomCalculator--><path codeLine="85" d="M443,522.631 C443,544.979 443,576.652 443,605.731 " fill="none" id="ZoomBild-ZoomCalculator" style="stroke:#A80036;stroke-width:1.0;"/><polygon fill="#000000" points="448,562.5664,445.0611,571.6115,450.9389,571.6115,448,562.5664" style="stroke:#000000;stroke-width:1.0;"/><text fill="#000000" font-family="sans-serif" font-size="13" lengthAdjust="spacing" textLength="44" x="457" y="572.0669">moves</text><!--MD5=[ab94cbc2495622a03fec4b24390f5618]
link ZoomCalculator to SpeicherMedium--><path codeLine="88" d="M443,756.149 C443,784.119 443,814.1265 443,834.7501 " fill="none" id="ZoomCalculator-SpeicherMedium" style="stroke:#A80036;stroke-width:1.0;"/><polygon fill="#000000" points="448,801.5664,450.9389,792.5213,445.0611,792.5213,448,801.5664" style="stroke:#000000;stroke-width:1.0;"/><text fill="#000000" font-family="sans-serif" font-size="13" lengthAdjust="spacing" textLength="73" x="457" y="801.0669">saves Data</text><!--MD5=[1dd3167bd21ea9adc9b14ed1a4dd4238]
link Config to ZoomCalculator--><path codeLine="89" d="M88.1924,517.834 C94.3678,521.738 100.7939,525.602 107,529 C174.454,565.935 252.674,601.488 316.663,628.808 " fill="none" id="Config-ZoomCalculator" style="stroke:#A80036;stroke-width:1.0;"/><polygon fill="#000000" points="207.4975,569.751,200.6455,563.1555,198.0774,568.4426,207.4975,569.751" style="stroke:#000000;stroke-width:1.0;"/><text fill="#000000" font-family="sans-serif" font-size="13" lengthAdjust="spacing" textLength="39" x="212" y="572.0669">speed</text><!--MD5=[a66380e3caa08a1b9c02995811f0cc12]
link System to ZoomInput--><path codeLine="90" d="M638,280.536 C638,308.407 638,402.076 638,454.568 " fill="none" id="System-ZoomInput" style="stroke:#A80036;stroke-width:1.0;"/><polygon fill="#000000" points="643,390.5664,640.0611,399.6115,645.9389,399.6115,643,390.5664" style="stroke:#000000;stroke-width:1.0;"/><text fill="#000000" font-family="sans-serif" font-size="13" lengthAdjust="spacing" textLength="58" x="652" y="400.0669">listens to</text><!--MD5=[e894b13730ab08450f28e4290cb927bd]
@startuml
' skinparam backgroundColor transparent
() System #DA70D5
top to bottom direction

package Util {
    ' - - - TUTORIAL - - -
    abstract Tutorial<t: ToolType> {
      - t: ToolType
      __public method__
      + start() : void
      __private methods__
      - getConfigState() : boolean
      - setConfigState(state: boolean) : void
      - show() : boolean
      __abstract methods__
      - {abstract} tutorial() : void
    }

    enum ToolType {
      ZOOM
      EYETRACKING
      CODECHARTS
    }

    ' Interaktionen
    Tutorial -u- ToolType
    Data -r- ToolType
    Tutorial -d- Config


    ' - - - BILD - - -

    abstract Bild {
      + load(url: String) : void
      + show() : void
    }

    class Data<t: ToolType> {
        + t: ToolType
        + data: unknown
        + config_id: int
    }
}



' === ZOOM MAPS ===
package ZoomMaps {

    ' Zoom Input
    class ZoomInput {
        - onClick() : void
        - onScroll() : void
    }

    ' Zoom Tutorial
    class ZoomTutorial<t: ToolType> {
        - tutorial() : void
    }

    ' Zoom Calculator
    class ZoomCalculator {
        - speed: float
        - position: float[3]
        - data: Data
        __public method__
        + processInput(raw_input: unknown) : void
        + save() : boolean
        __private methods__
        - calculate(raw_input: unknown) : float[3]
    }

    ' Zoom Bild
    class ZoomBild {
        + move(position: float[3]): float[3]
    }


    ' Vererbungen
    Bild <|- - ZoomBild
    Tutorial <|- - ZoomTutorial

    ' Interaktionen
    ZoomInput -d- ZoomCalculator
    ZoomCalculator  -u- ZoomBild : > moves

    ' Andere Module
    ZoomCalculator - - SpeicherMedium : > saves Data
    ZoomCalculator -l- Config : < speed
    ZoomInput -u- System : > listens to

}

' Blackboxen / Andere Module
package Config {}

package SpeicherMedium {}
@enduml

@startuml
() System #DA70D5
top to bottom direction

package Util {
    abstract Tutorial<t: ToolType> {
      - t: ToolType
      __public method__
      + start() : void
      __private methods__
      - getConfigState() : boolean
      - setConfigState(state: boolean) : void
      - show() : boolean
      __abstract methods__
      - {abstract} tutorial() : void
    }

    enum ToolType {
      ZOOM
      EYETRACKING
      CODECHARTS
    }

    Tutorial -u- ToolType
    Data -r- ToolType
    Tutorial -d- Config



    abstract Bild {
      + load(url: String) : void
      + show() : void
    }

    class Data<t: ToolType> {
        + t: ToolType
        + data: unknown
        + config_id: int
    }
}



package ZoomMaps {

    class ZoomInput {
        - onClick() : void
        - onScroll() : void
    }

    class ZoomTutorial<t: ToolType> {
        - tutorial() : void
    }

    class ZoomCalculator {
        - speed: float
        - position: float[3]
        - data: Data
        __public method__
        + processInput(raw_input: unknown) : void
        + save() : boolean
        __private methods__
        - calculate(raw_input: unknown) : float[3]
    }

    class ZoomBild {
        + move(position: float[3]): float[3]
    }


    Bild <|- - ZoomBild
    Tutorial <|- - ZoomTutorial

    ZoomInput -d- ZoomCalculator
    ZoomCalculator  -u- ZoomBild : > moves

    ZoomCalculator - - SpeicherMedium : > saves Data
    ZoomCalculator -l- Config : < speed
    ZoomInput -u- System : > listens to

}

package Config {}

package SpeicherMedium {}
@enduml

PlantUML version 1.2021.14beta3(Unknown compile time)
(GPL source distribution)
Java Runtime: Java(TM) SE Runtime Environment
JVM: Java HotSpot(TM) 64-Bit Server VM
Default Encoding: UTF-8
Language: en
Country: US
--></g></svg>