<?xml version="1.0" encoding="UTF-8" standalone="no"?><svg xmlns="http://www.w3.org/2000/svg" xmlns:xlink="http://www.w3.org/1999/xlink" contentScriptType="application/ecmascript" contentStyleType="text/css" height="1228px" preserveAspectRatio="none" style="width:1039px;height:1228px;background:#FFFFFF;" version="1.1" viewBox="0 0 1039 1228" width="1039px" zoomAndPan="magnify"><defs><filter height="300%" id="f1g8n4gjiysfm2" width="300%" x="-1" y="-1"><feGaussianBlur result="blurOut" stdDeviation="2.0"/><feColorMatrix in="blurOut" result="blurOut2" type="matrix" values="0 0 0 0 0 0 0 0 0 0 0 0 0 0 0 0 0 0 .4 0"/><feOffset dx="4.0" dy="4.0" in="blurOut2" result="blurOut3"/><feBlend in="SourceGraphic" in2="blurOut3" mode="normal"/></filter></defs><g><rect fill="#DDDDDD" height="1216.3828" style="stroke:#A80036;stroke-width:1.0;" width="553.5" x="247" y="6"/><text fill="#000000" font-family="sans-serif" font-size="13" font-weight="bold" lengthAdjust="spacing" textLength="83" x="482.25" y="18.0669">ZoomMaps</text><rect fill="#FFFFFF" filter="url(#f1g8n4gjiysfm2)" height="783.1875" style="stroke:#FFFFFF;stroke-width:1.0;" width="10" x="42" y="98.2969"/><line style="stroke:#A80036;stroke-width:1.0;" x1="42" x2="42" y1="98.2969" y2="881.4844"/><line style="stroke:#A80036;stroke-width:1.0;" x1="52" x2="52" y1="98.2969" y2="881.4844"/><line style="stroke:#A80036;stroke-width:1.0;" x1="42" x2="52" y1="98.2969" y2="98.2969"/><rect fill="#FFFFFF" filter="url(#f1g8n4gjiysfm2)" height="204.7969" style="stroke:#FFFFFF;stroke-width:1.0;" width="10" x="42" y="922.2891"/><line style="stroke:#A80036;stroke-width:1.0;" x1="42" x2="42" y1="922.2891" y2="1127.0859"/><line style="stroke:#A80036;stroke-width:1.0;" x1="52" x2="52" y1="922.2891" y2="1127.0859"/><rect fill="#FFFFFF" filter="url(#f1g8n4gjiysfm2)" height="783.1875" style="stroke:#FFFFFF;stroke-width:1.0;" width="10" x="206" y="98.2969"/><line style="stroke:#A80036;stroke-width:1.0;" x1="206" x2="206" y1="98.2969" y2="881.4844"/><line style="stroke:#A80036;stroke-width:1.0;" x1="216" x2="216" y1="98.2969" y2="881.4844"/><line style="stroke:#A80036;stroke-width:1.0;" x1="206" x2="216" y1="98.2969" y2="98.2969"/><rect fill="#FFFFFF" filter="url(#f1g8n4gjiysfm2)" height="204.7969" style="stroke:#FFFFFF;stroke-width:1.0;" width="10" x="206" y="922.2891"/><line style="stroke:#A80036;stroke-width:1.0;" x1="206" x2="206" y1="922.2891" y2="1127.0859"/><line style="stroke:#A80036;stroke-width:1.0;" x1="216" x2="216" y1="922.2891" y2="1127.0859"/><rect fill="#FFFFFF" filter="url(#f1g8n4gjiysfm2)" height="220.7969" style="stroke:#A80036;stroke-width:1.0;" width="10" x="303.5" y="162.5625"/><rect fill="#FFFFFF" filter="url(#f1g8n4gjiysfm2)" height="433.8594" style="stroke:#FFFFFF;stroke-width:1.0;" width="10" x="437" y="447.625"/><line style="stroke:#A80036;stroke-width:1.0;" x1="437" x2="437" y1="447.625" y2="881.4844"/><line style="stroke:#A80036;stroke-width:1.0;" x1="447" x2="447" y1="447.625" y2="881.4844"/><line style="stroke:#A80036;stroke-width:1.0;" x1="437" x2="447" y1="447.625" y2="447.625"/><rect fill="#FFFFFF" filter="url(#f1g8n4gjiysfm2)" height="195.7969" style="stroke:#FFFFFF;stroke-width:1.0;" width="10" x="437" y="922.2891"/><line style="stroke:#A80036;stroke-width:1.0;" x1="437" x2="437" y1="922.2891" y2="1118.0859"/><line style="stroke:#A80036;stroke-width:1.0;" x1="447" x2="447" y1="922.2891" y2="1118.0859"/><line style="stroke:#A80036;stroke-width:1.0;" x1="437" x2="447" y1="1118.0859" y2="1118.0859"/><rect fill="#FFFFFF" filter="url(#f1g8n4gjiysfm2)" height="317.3281" style="stroke:#FFFFFF;stroke-width:1.0;" width="10" x="640" y="564.1563"/><line style="stroke:#A80036;stroke-width:1.0;" x1="640" x2="640" y1="564.1563" y2="881.4844"/><line style="stroke:#A80036;stroke-width:1.0;" x1="650" x2="650" y1="564.1563" y2="881.4844"/><line style="stroke:#A80036;stroke-width:1.0;" x1="640" x2="650" y1="564.1563" y2="564.1563"/><rect fill="#FFFFFF" filter="url(#f1g8n4gjiysfm2)" height="84.3984" style="stroke:#FFFFFF;stroke-width:1.0;" width="10" x="640" y="922.2891"/><line style="stroke:#A80036;stroke-width:1.0;" x1="640" x2="640" y1="922.2891" y2="1006.6875"/><line style="stroke:#A80036;stroke-width:1.0;" x1="650" x2="650" y1="922.2891" y2="1006.6875"/><line style="stroke:#A80036;stroke-width:1.0;" x1="640" x2="650" y1="1006.6875" y2="1006.6875"/><rect fill="#FFFFFF" filter="url(#f1g8n4gjiysfm2)" height="29.1328" style="stroke:#A80036;stroke-width:1.0;" width="10" x="742.5" y="773.0859"/><rect fill="#FFFFFF" filter="url(#f1g8n4gjiysfm2)" height="29.1328" style="stroke:#A80036;stroke-width:1.0;" width="10" x="836" y="162.5625"/><rect fill="#FFFFFF" filter="url(#f1g8n4gjiysfm2)" height="30" style="stroke:#A80036;stroke-width:1.0;" width="10" x="836" y="331.3594"/><rect fill="#FFFFFF" filter="url(#f1g8n4gjiysfm2)" height="87.3984" style="stroke:#A80036;stroke-width:1.0;" width="10" x="836" y="447.625"/><rect fill="#FFFFFF" filter="url(#f1g8n4gjiysfm2)" height="29.1328" style="stroke:#A80036;stroke-width:1.0;" width="10" x="951.5" y="1088.9531"/><rect fill="#FFFFFF" filter="url(#f1g8n4gjiysfm2)" height="169.6641" style="stroke:#000000;stroke-width:2.0;" width="885.5" x="10" y="206.6953"/><rect fill="#FFFFFF" filter="url(#f1g8n4gjiysfm2)" height="76.2656" style="stroke:#000000;stroke-width:2.0;" width="644.5" x="241" y="293.0938"/><rect fill="#FFFFFF" filter="url(#f1g8n4gjiysfm2)" height="294" style="stroke:#000000;stroke-width:2.0;" width="796.5" x="10" y="705.6875"/><line style="stroke:#A80036;stroke-width:1.0;" x1="47" x2="47" y1="88.2969" y2="881.4844"/><line style="stroke:#A80036;stroke-width:1.0;stroke-dasharray:1.0,4.0;" x1="47" x2="47" y1="881.4844" y2="922.2891"/><line style="stroke:#A80036;stroke-width:1.0;" x1="47" x2="47" y1="922.2891" y2="1136.0859"/><line style="stroke:#A80036;stroke-width:1.0;" x1="211" x2="211" y1="88.2969" y2="881.4844"/><line style="stroke:#A80036;stroke-width:1.0;stroke-dasharray:1.0,4.0;" x1="211" x2="211" y1="881.4844" y2="922.2891"/><line style="stroke:#A80036;stroke-width:1.0;" x1="211" x2="211" y1="922.2891" y2="1136.0859"/><line style="stroke:#A80036;stroke-width:1.0;" x1="308" x2="308" y1="88.2969" y2="881.4844"/><line style="stroke:#A80036;stroke-width:1.0;stroke-dasharray:1.0,4.0;" x1="308" x2="308" y1="881.4844" y2="922.2891"/><line style="stroke:#A80036;stroke-width:1.0;" x1="308" x2="308" y1="922.2891" y2="1136.0859"/><line style="stroke:#A80036;stroke-width:1.0;" x1="442" x2="442" y1="88.2969" y2="881.4844"/><line style="stroke:#A80036;stroke-width:1.0;stroke-dasharray:1.0,4.0;" x1="442" x2="442" y1="881.4844" y2="922.2891"/><line style="stroke:#A80036;stroke-width:1.0;" x1="442" x2="442" y1="922.2891" y2="1136.0859"/><line style="stroke:#A80036;stroke-width:1.0;" x1="644.5" x2="644.5" y1="88.2969" y2="881.4844"/><line style="stroke:#A80036;stroke-width:1.0;stroke-dasharray:1.0,4.0;" x1="644.5" x2="644.5" y1="881.4844" y2="922.2891"/><line style="stroke:#A80036;stroke-width:1.0;" x1="644.5" x2="644.5" y1="922.2891" y2="1136.0859"/><line style="stroke:#A80036;stroke-width:1.0;" x1="747.5" x2="747.5" y1="88.2969" y2="881.4844"/><line style="stroke:#A80036;stroke-width:1.0;stroke-dasharray:1.0,4.0;" x1="747.5" x2="747.5" y1="881.4844" y2="922.2891"/><line style="stroke:#A80036;stroke-width:1.0;" x1="747.5" x2="747.5" y1="922.2891" y2="1136.0859"/><line style="stroke:#A80036;stroke-width:1.0;" x1="840.5" x2="840.5" y1="88.2969" y2="881.4844"/><line style="stroke:#A80036;stroke-width:1.0;stroke-dasharray:1.0,4.0;" x1="840.5" x2="840.5" y1="881.4844" y2="922.2891"/><line style="stroke:#A80036;stroke-width:1.0;" x1="840.5" x2="840.5" y1="922.2891" y2="1136.0859"/><line style="stroke:#A80036;stroke-width:1.0;" x1="956.5" x2="956.5" y1="88.2969" y2="881.4844"/><line style="stroke:#A80036;stroke-width:1.0;stroke-dasharray:1.0,4.0;" x1="956.5" x2="956.5" y1="881.4844" y2="922.2891"/><line style="stroke:#A80036;stroke-width:1.0;" x1="956.5" x2="956.5" y1="922.2891" y2="1136.0859"/><text fill="#000000" font-family="sans-serif" font-size="14" lengthAdjust="spacing" textLength="48" x="20" y="84.9951">Nutzer</text><ellipse cx="47" cy="15" fill="#FEFECE" filter="url(#f1g8n4gjiysfm2)" rx="8" ry="8" style="stroke:#A80036;stroke-width:2.0;"/><path d="M47,23 L47,50 M34,31 L60,31 M47,50 L34,65 M47,50 L60,65 " fill="none" filter="url(#f1g8n4gjiysfm2)" style="stroke:#A80036;stroke-width:2.0;"/><text fill="#000000" font-family="sans-serif" font-size="14" lengthAdjust="spacing" textLength="48" x="20" y="1148.0811">Nutzer</text><ellipse cx="47" cy="1161.3828" fill="#FEFECE" filter="url(#f1g8n4gjiysfm2)" rx="8" ry="8" style="stroke:#A80036;stroke-width:2.0;"/><path d="M47,1169.3828 L47,1196.3828 M34,1177.3828 L60,1177.3828 M47,1196.3828 L34,1211.3828 M47,1196.3828 L60,1211.3828 " fill="none" filter="url(#f1g8n4gjiysfm2)" style="stroke:#A80036;stroke-width:2.0;"/><text fill="#000000" font-family="sans-serif" font-size="14" lengthAdjust="spacing" textLength="54" x="181" y="84.9951">System</text><ellipse cx="211" cy="56" fill="#DA70D5" filter="url(#f1g8n4gjiysfm2)" rx="12" ry="12" style="stroke:#A80036;stroke-width:2.0;"/><line style="stroke:#A80036;stroke-width:2.0;" x1="199" x2="223" y1="70" y2="70"/><text fill="#000000" font-family="sans-serif" font-size="14" lengthAdjust="spacing" textLength="54" x="181" y="1148.0811">System</text><ellipse cx="211" cy="1167.3828" fill="#DA70D5" filter="url(#f1g8n4gjiysfm2)" rx="12" ry="12" style="stroke:#A80036;stroke-width:2.0;"/><line style="stroke:#A80036;stroke-width:2.0;" x1="199" x2="223" y1="1181.3828" y2="1181.3828"/><rect fill="#FEFECE" filter="url(#f1g8n4gjiysfm2)" height="30.2969" style="stroke:#A80036;stroke-width:1.5;" width="111" x="251" y="53"/><text fill="#000000" font-family="sans-serif" font-size="14" lengthAdjust="spacing" textLength="97" x="258" y="72.9951">ZoomTutorial</text><rect fill="#FEFECE" filter="url(#f1g8n4gjiysfm2)" height="30.2969" style="stroke:#A80036;stroke-width:1.5;" width="111" x="251" y="1135.0859"/><text fill="#000000" font-family="sans-serif" font-size="14" lengthAdjust="spacing" textLength="97" x="258" y="1155.0811">ZoomTutorial</text><rect fill="#FEFECE" filter="url(#f1g8n4gjiysfm2)" height="30.2969" style="stroke:#A80036;stroke-width:1.5;" width="128" x="376" y="53"/><text fill="#000000" font-family="sans-serif" font-size="14" lengthAdjust="spacing" textLength="114" x="383" y="72.9951">ZoomCalculator</text><rect fill="#FEFECE" filter="url(#f1g8n4gjiysfm2)" height="30.2969" style="stroke:#A80036;stroke-width:1.5;" width="128" x="376" y="1135.0859"/><text fill="#000000" font-family="sans-serif" font-size="14" lengthAdjust="spacing" textLength="114" x="383" y="1155.0811">ZoomCalculator</text><rect fill="#FEFECE" filter="url(#f1g8n4gjiysfm2)" height="30.2969" style="stroke:#A80036;stroke-width:1.5;" width="83" x="601.5" y="53"/><text fill="#000000" font-family="sans-serif" font-size="14" lengthAdjust="spacing" textLength="69" x="608.5" y="72.9951">ZoomBild</text><rect fill="#FEFECE" filter="url(#f1g8n4gjiysfm2)" height="30.2969" style="stroke:#A80036;stroke-width:1.5;" width="83" x="601.5" y="1135.0859"/><text fill="#000000" font-family="sans-serif" font-size="14" lengthAdjust="spacing" textLength="69" x="608.5" y="1155.0811">ZoomBild</text><rect fill="#FEFECE" filter="url(#f1g8n4gjiysfm2)" height="30.2969" style="stroke:#A80036;stroke-width:1.5;" width="94" x="698.5" y="53"/><text fill="#000000" font-family="sans-serif" font-size="14" lengthAdjust="spacing" textLength="80" x="705.5" y="72.9951">ZoomInput</text><rect fill="#FEFECE" filter="url(#f1g8n4gjiysfm2)" height="30.2969" style="stroke:#A80036;stroke-width:1.5;" width="94" x="698.5" y="1135.0859"/><text fill="#000000" font-family="sans-serif" font-size="14" lengthAdjust="spacing" textLength="80" x="705.5" y="1155.0811">ZoomInput</text><rect fill="#FEFECE" filter="url(#f1g8n4gjiysfm2)" height="30.2969" style="stroke:#A80036;stroke-width:1.5;" width="61" x="810.5" y="49"/><rect fill="#FEFECE" filter="url(#f1g8n4gjiysfm2)" height="30.2969" style="stroke:#A80036;stroke-width:1.5;" width="61" x="806.5" y="53"/><text fill="#000000" font-family="sans-serif" font-size="14" lengthAdjust="spacing" textLength="47" x="813.5" y="72.9951">Config</text><rect fill="#FEFECE" filter="url(#f1g8n4gjiysfm2)" height="30.2969" style="stroke:#A80036;stroke-width:1.5;" width="61" x="810.5" y="1135.0859"/><rect fill="#FEFECE" filter="url(#f1g8n4gjiysfm2)" height="30.2969" style="stroke:#A80036;stroke-width:1.5;" width="61" x="806.5" y="1139.0859"/><text fill="#000000" font-family="sans-serif" font-size="14" lengthAdjust="spacing" textLength="47" x="813.5" y="1159.0811">Config</text><rect fill="#FEFECE" filter="url(#f1g8n4gjiysfm2)" height="30.2969" style="stroke:#A80036;stroke-width:1.5;" width="134" x="889.5" y="49"/><rect fill="#FEFECE" filter="url(#f1g8n4gjiysfm2)" height="30.2969" style="stroke:#A80036;stroke-width:1.5;" width="134" x="885.5" y="53"/><text fill="#000000" font-family="sans-serif" font-size="14" lengthAdjust="spacing" textLength="120" x="892.5" y="72.9951">SpeicherMedium</text><rect fill="#FEFECE" filter="url(#f1g8n4gjiysfm2)" height="30.2969" style="stroke:#A80036;stroke-width:1.5;" width="134" x="889.5" y="1135.0859"/><rect fill="#FEFECE" filter="url(#f1g8n4gjiysfm2)" height="30.2969" style="stroke:#A80036;stroke-width:1.5;" width="134" x="885.5" y="1139.0859"/><text fill="#000000" font-family="sans-serif" font-size="14" lengthAdjust="spacing" textLength="120" x="892.5" y="1159.0811">SpeicherMedium</text><rect fill="#FFFFFF" filter="url(#f1g8n4gjiysfm2)" height="783.1875" style="stroke:#FFFFFF;stroke-width:1.0;" width="10" x="42" y="98.2969"/><line style="stroke:#A80036;stroke-width:1.0;" x1="42" x2="42" y1="98.2969" y2="881.4844"/><line style="stroke:#A80036;stroke-width:1.0;" x1="52" x2="52" y1="98.2969" y2="881.4844"/><line style="stroke:#A80036;stroke-width:1.0;" x1="42" x2="52" y1="98.2969" y2="98.2969"/><rect fill="#FFFFFF" filter="url(#f1g8n4gjiysfm2)" height="204.7969" style="stroke:#FFFFFF;stroke-width:1.0;" width="10" x="42" y="922.2891"/><line style="stroke:#A80036;stroke-width:1.0;" x1="42" x2="42" y1="922.2891" y2="1127.0859"/><line style="stroke:#A80036;stroke-width:1.0;" x1="52" x2="52" y1="922.2891" y2="1127.0859"/><rect fill="#FFFFFF" filter="url(#f1g8n4gjiysfm2)" height="783.1875" style="stroke:#FFFFFF;stroke-width:1.0;" width="10" x="206" y="98.2969"/><line style="stroke:#A80036;stroke-width:1.0;" x1="206" x2="206" y1="98.2969" y2="881.4844"/><line style="stroke:#A80036;stroke-width:1.0;" x1="216" x2="216" y1="98.2969" y2="881.4844"/><line style="stroke:#A80036;stroke-width:1.0;" x1="206" x2="216" y1="98.2969" y2="98.2969"/><rect fill="#FFFFFF" filter="url(#f1g8n4gjiysfm2)" height="204.7969" style="stroke:#FFFFFF;stroke-width:1.0;" width="10" x="206" y="922.2891"/><line style="stroke:#A80036;stroke-width:1.0;" x1="206" x2="206" y1="922.2891" y2="1127.0859"/><line style="stroke:#A80036;stroke-width:1.0;" x1="216" x2="216" y1="922.2891" y2="1127.0859"/><rect fill="#FFFFFF" filter="url(#f1g8n4gjiysfm2)" height="220.7969" style="stroke:#A80036;stroke-width:1.0;" width="10" x="303.5" y="162.5625"/><rect fill="#FFFFFF" filter="url(#f1g8n4gjiysfm2)" height="433.8594" style="stroke:#FFFFFF;stroke-width:1.0;" width="10" x="437" y="447.625"/><line style="stroke:#A80036;stroke-width:1.0;" x1="437" x2="437" y1="447.625" y2="881.4844"/><line style="stroke:#A80036;stroke-width:1.0;" x1="447" x2="447" y1="447.625" y2="881.4844"/><line style="stroke:#A80036;stroke-width:1.0;" x1="437" x2="447" y1="447.625" y2="447.625"/><rect fill="#FFFFFF" filter="url(#f1g8n4gjiysfm2)" height="195.7969" style="stroke:#FFFFFF;stroke-width:1.0;" width="10" x="437" y="922.2891"/><line style="stroke:#A80036;stroke-width:1.0;" x1="437" x2="437" y1="922.2891" y2="1118.0859"/><line style="stroke:#A80036;stroke-width:1.0;" x1="447" x2="447" y1="922.2891" y2="1118.0859"/><line style="stroke:#A80036;stroke-width:1.0;" x1="437" x2="447" y1="1118.0859" y2="1118.0859"/><rect fill="#FFFFFF" filter="url(#f1g8n4gjiysfm2)" height="317.3281" style="stroke:#FFFFFF;stroke-width:1.0;" width="10" x="640" y="564.1563"/><line style="stroke:#A80036;stroke-width:1.0;" x1="640" x2="640" y1="564.1563" y2="881.4844"/><line style="stroke:#A80036;stroke-width:1.0;" x1="650" x2="650" y1="564.1563" y2="881.4844"/><line style="stroke:#A80036;stroke-width:1.0;" x1="640" x2="650" y1="564.1563" y2="564.1563"/><rect fill="#FFFFFF" filter="url(#f1g8n4gjiysfm2)" height="84.3984" style="stroke:#FFFFFF;stroke-width:1.0;" width="10" x="640" y="922.2891"/><line style="stroke:#A80036;stroke-width:1.0;" x1="640" x2="640" y1="922.2891" y2="1006.6875"/><line style="stroke:#A80036;stroke-width:1.0;" x1="650" x2="650" y1="922.2891" y2="1006.6875"/><line style="stroke:#A80036;stroke-width:1.0;" x1="640" x2="650" y1="1006.6875" y2="1006.6875"/><rect fill="#FFFFFF" filter="url(#f1g8n4gjiysfm2)" height="29.1328" style="stroke:#A80036;stroke-width:1.0;" width="10" x="742.5" y="773.0859"/><rect fill="#FFFFFF" filter="url(#f1g8n4gjiysfm2)" height="29.1328" style="stroke:#A80036;stroke-width:1.0;" width="10" x="836" y="162.5625"/><rect fill="#FFFFFF" filter="url(#f1g8n4gjiysfm2)" height="30" style="stroke:#A80036;stroke-width:1.0;" width="10" x="836" y="331.3594"/><rect fill="#FFFFFF" filter="url(#f1g8n4gjiysfm2)" height="87.3984" style="stroke:#A80036;stroke-width:1.0;" width="10" x="836" y="447.625"/><rect fill="#FFFFFF" filter="url(#f1g8n4gjiysfm2)" height="29.1328" style="stroke:#A80036;stroke-width:1.0;" width="10" x="951.5" y="1088.9531"/><rect fill="#EEEEEE" filter="url(#f1g8n4gjiysfm2)" height="3" style="stroke:#EEEEEE;stroke-width:1.0;" width="1032.5" x="0" y="118.8633"/><line style="stroke:#000000;stroke-width:1.0;" x1="0" x2="1032.5" y1="118.8633" y2="118.8633"/><line style="stroke:#000000;stroke-width:1.0;" x1="0" x2="1032.5" y1="121.8633" y2="121.8633"/><rect fill="#EEEEEE" filter="url(#f1g8n4gjiysfm2)" height="23.1328" style="stroke:#000000;stroke-width:2.0;" width="81" x="475.75" y="108.2969"/><text fill="#000000" font-family="sans-serif" font-size="13" font-weight="bold" lengthAdjust="spacing" textLength="62" x="481.75" y="124.3638">Tutorial</text><polygon fill="#A80036" points="824,158.5625,834,162.5625,824,166.5625,828,162.5625" style="stroke:#A80036;stroke-width:1.0;"/><line style="stroke:#A80036;stroke-width:1.0;" x1="313.5" x2="830" y1="162.5625" y2="162.5625"/><text fill="#000000" font-family="sans-serif" font-size="13" lengthAdjust="spacing" textLength="202" x="320.5" y="157.4966">getBool('zoom_maps', 'tutorial')</text><polygon fill="#A80036" points="324.5,187.6953,314.5,191.6953,324.5,195.6953,320.5,191.6953" style="stroke:#A80036;stroke-width:1.0;"/><line style="stroke:#A80036;stroke-width:1.0;stroke-dasharray:2.0,2.0;" x1="318.5" x2="840" y1="191.6953" y2="191.6953"/><text fill="#000000" font-family="sans-serif" font-size="13" lengthAdjust="spacing" textLength="143" x="330.5" y="186.6294">config_state : boolean</text><path d="M10,206.6953 L82,206.6953 L82,213.6953 L72,223.6953 L10,223.6953 L10,206.6953 " fill="#EEEEEE" style="stroke:#000000;stroke-width:1.0;"/><rect fill="none" height="169.6641" style="stroke:#000000;stroke-width:2.0;" width="885.5" x="10" y="206.6953"/><text fill="#000000" font-family="sans-serif" font-size="13" font-weight="bold" lengthAdjust="spacing" textLength="27" x="25" y="219.7622">opt</text><text fill="#000000" font-family="sans-serif" font-size="11" font-weight="bold" lengthAdjust="spacing" textLength="153" x="97" y="218.9058">[config_state == True]</text><polygon fill="#FFFFFF" filter="url(#f1g8n4gjiysfm2)" points="254,228.8281,363,228.8281,373,239.8281,363,251.8281,254,251.8281,244,239.8281,254,228.8281" style="stroke:#A80036;stroke-width:1.0;"/><text fill="#000000" font-family="sans-serif" font-size="13" lengthAdjust="spacing" textLength="105" x="256" y="244.895">showing Tutorial</text><polygon fill="#A80036" points="291.5,274.0938,301.5,278.0938,291.5,282.0938,295.5,278.0938" style="stroke:#A80036;stroke-width:1.0;"/><line style="stroke:#A80036;stroke-width:1.0;" x1="52" x2="297.5" y1="278.0938" y2="278.0938"/><text fill="#000000" font-family="sans-serif" font-size="13" lengthAdjust="spacing" textLength="140" x="59" y="273.0278">show_again : boolean</text><path d="M241,293.0938 L313,293.0938 L313,300.0938 L303,310.0938 L241,310.0938 L241,293.0938 " fill="#EEEEEE" style="stroke:#000000;stroke-width:1.0;"/><rect fill="none" height="76.2656" style="stroke:#000000;stroke-width:2.0;" width="644.5" x="241" y="293.0938"/><text fill="#000000" font-family="sans-serif" font-size="13" font-weight="bold" lengthAdjust="spacing" textLength="27" x="256" y="306.1606">opt</text><text fill="#000000" font-family="sans-serif" font-size="11" font-weight="bold" lengthAdjust="spacing" textLength="146" x="328" y="305.3042">[show_again == False]</text><polygon fill="#A80036" points="824,327.3594,834,331.3594,824,335.3594,828,331.3594" style="stroke:#A80036;stroke-width:1.0;"/><line style="stroke:#A80036;stroke-width:1.0;" x1="313.5" x2="830" y1="331.3594" y2="331.3594"/><text fill="#000000" font-family="sans-serif" font-size="13" lengthAdjust="spacing" textLength="240" x="320.5" y="326.2935">setBool('zoom_maps', 'tutorial', false)</text><rect fill="#EEEEEE" filter="url(#f1g8n4gjiysfm2)" height="3" style="stroke:#EEEEEE;stroke-width:1.0;" width="1032.5" x="0" y="403.9258"/><line style="stroke:#000000;stroke-width:1.0;" x1="0" x2="1032.5" y1="403.9258" y2="403.9258"/><line style="stroke:#000000;stroke-width:1.0;" x1="0" x2="1032.5" y1="406.9258" y2="406.9258"/><rect fill="#EEEEEE" filter="url(#f1g8n4gjiysfm2)" height="23.1328" style="stroke:#000000;stroke-width:2.0;" width="63" x="484.75" y="393.3594"/><text fill="#000000" font-family="sans-serif" font-size="13" font-weight="bold" lengthAdjust="spacing" textLength="44" x="490.75" y="409.4263">Setup</text><polygon fill="#A80036" points="824,443.625,834,447.625,824,451.625,828,447.625" style="stroke:#A80036;stroke-width:1.0;"/><line style="stroke:#A80036;stroke-width:1.0;" x1="447" x2="830" y1="447.625" y2="447.625"/><text fill="#000000" font-family="sans-serif" font-size="13" lengthAdjust="spacing" textLength="200" x="454" y="442.5591">getFloat('zoom_maps', 'speed')</text><polygon fill="#A80036" points="458,472.7578,448,476.7578,458,480.7578,454,476.7578" style="stroke:#A80036;stroke-width:1.0;"/><line style="stroke:#A80036;stroke-width:1.0;stroke-dasharray:2.0,2.0;" x1="452" x2="835" y1="476.7578" y2="476.7578"/><text fill="#000000" font-family="sans-serif" font-size="13" lengthAdjust="spacing" textLength="81" x="464" y="471.6919">speed : float</text><polygon fill="#A80036" points="824,501.8906,834,505.8906,824,509.8906,828,505.8906" style="stroke:#A80036;stroke-width:1.0;"/><line style="stroke:#A80036;stroke-width:1.0;" x1="447" x2="830" y1="505.8906" y2="505.8906"/><text fill="#000000" font-family="sans-serif" font-size="13" lengthAdjust="spacing" textLength="207" x="454" y="500.8247">getString('zoom_maps', 'image')</text><polygon fill="#A80036" points="458,531.0234,448,535.0234,458,539.0234,454,535.0234" style="stroke:#A80036;stroke-width:1.0;"/><line style="stroke:#A80036;stroke-width:1.0;stroke-dasharray:2.0,2.0;" x1="452" x2="840" y1="535.0234" y2="535.0234"/><text fill="#000000" font-family="sans-serif" font-size="13" lengthAdjust="spacing" textLength="100" x="464" y="529.9575">location : String</text><ellipse cx="639.5" cy="563.4063" rx="4" ry="4" style="stroke:#A80036;stroke-width:1.5;fill:none;"/><polygon fill="#A80036" points="622.5,560.1563,632.5,564.1563,622.5,568.1563,626.5,564.1563" style="stroke:#A80036;stroke-width:1.0;"/><line style="stroke:#A80036;stroke-width:1.0;" x1="447" x2="628.5" y1="564.1563" y2="564.1563"/><text fill="#000000" font-family="sans-serif" font-size="13" lengthAdjust="spacing" textLength="50" x="454" y="559.0903">location</text><path d="M389,577.1563 L389,617.1563 L696,617.1563 L696,587.1563 L686,577.1563 L389,577.1563 " fill="#FBFB77" filter="url(#f1g8n4gjiysfm2)" style="stroke:#A80036;stroke-width:1.0;"/><path d="M686,577.1563 L686,587.1563 L696,587.1563 L686,577.1563 " fill="#FBFB77" style="stroke:#A80036;stroke-width:1.0;"/><text fill="#000000" font-family="sans-serif" font-size="13" lengthAdjust="spacing" textLength="116" x="482.75" y="594.2231">Instanziierung des</text><text fill="#000000" font-family="sans-serif" font-size="13" lengthAdjust="spacing" textLength="114" x="483.75" y="609.356">ZoomBild-Objekts</text><polygon fill="#A80036" points="628,643.5547,638,647.5547,628,651.5547,632,647.5547" style="stroke:#A80036;stroke-width:1.0;"/><line style="stroke:#A80036;stroke-width:1.0;" x1="447" x2="634" y1="647.5547" y2="647.5547"/><text fill="#000000" font-family="sans-serif" font-size="13" lengthAdjust="spacing" textLength="44" x="454" y="642.4888">show()</text><rect fill="#EEEEEE" filter="url(#f1g8n4gjiysfm2)" height="3" style="stroke:#EEEEEE;stroke-width:1.0;" width="1032.5" x="0" y="676.1211"/><line style="stroke:#000000;stroke-width:1.0;" x1="0" x2="1032.5" y1="676.1211" y2="676.1211"/><line style="stroke:#000000;stroke-width:1.0;" x1="0" x2="1032.5" y1="679.1211" y2="679.1211"/><rect fill="#EEEEEE" filter="url(#f1g8n4gjiysfm2)" height="23.1328" style="stroke:#000000;stroke-width:2.0;" width="79" x="476.75" y="665.5547"/><text fill="#000000" font-family="sans-serif" font-size="13" font-weight="bold" lengthAdjust="spacing" textLength="60" x="482.75" y="681.6216">Versuch</text><path d="M10,705.6875 L88,705.6875 L88,712.6875 L78,722.6875 L10,722.6875 L10,705.6875 " fill="#EEEEEE" style="stroke:#000000;stroke-width:1.0;"/><rect fill="none" height="294" style="stroke:#000000;stroke-width:2.0;" width="796.5" x="10" y="705.6875"/><text fill="#000000" font-family="sans-serif" font-size="13" font-weight="bold" lengthAdjust="spacing" textLength="33" x="25" y="718.7544">loop</text><text fill="#000000" font-family="sans-serif" font-size="11" font-weight="bold" lengthAdjust="spacing" textLength="123" x="103" y="717.8979">[Versuchsschleife]</text><polygon fill="#A80036" points="194,739.9531,204,743.9531,194,747.9531,198,743.9531" style="stroke:#A80036;stroke-width:1.0;"/><line style="stroke:#A80036;stroke-width:1.0;" x1="52" x2="200" y1="743.9531" y2="743.9531"/><text fill="#000000" font-family="sans-serif" font-size="13" lengthAdjust="spacing" textLength="130" x="59" y="738.8872">Interaktion mit Maus</text><polygon fill="#A80036" points="730.5,769.0859,740.5,773.0859,730.5,777.0859,734.5,773.0859" style="stroke:#A80036;stroke-width:1.0;"/><line style="stroke:#A80036;stroke-width:1.0;" x1="216" x2="736.5" y1="773.0859" y2="773.0859"/><text fill="#000000" font-family="sans-serif" font-size="13" lengthAdjust="spacing" textLength="189" x="223" y="768.02">Klick- und Scrollinformationen</text><polygon fill="#A80036" points="458,798.2188,448,802.2188,458,806.2188,454,802.2188" style="stroke:#A80036;stroke-width:1.0;"/><line style="stroke:#A80036;stroke-width:1.0;" x1="452" x2="746.5" y1="802.2188" y2="802.2188"/><text fill="#000000" font-family="sans-serif" font-size="13" lengthAdjust="spacing" textLength="155" x="464" y="797.1528">processInput(raw_input)</text><line style="stroke:#A80036;stroke-width:1.0;" x1="447" x2="489" y1="831.3516" y2="831.3516"/><line style="stroke:#A80036;stroke-width:1.0;" x1="489" x2="489" y1="831.3516" y2="844.3516"/><line style="stroke:#A80036;stroke-width:1.0;" x1="448" x2="489" y1="844.3516" y2="844.3516"/><polygon fill="#A80036" points="458,840.3516,448,844.3516,458,848.3516,454,844.3516" style="stroke:#A80036;stroke-width:1.0;"/><text fill="#000000" font-family="sans-serif" font-size="13" lengthAdjust="spacing" textLength="130" x="454" y="826.2856">calculate(raw_input)</text><polygon fill="#A80036" points="628,869.4844,638,873.4844,628,877.4844,632,873.4844" style="stroke:#A80036;stroke-width:1.0;"/><line style="stroke:#A80036;stroke-width:1.0;" x1="447" x2="634" y1="873.4844" y2="873.4844"/><text fill="#000000" font-family="sans-serif" font-size="13" lengthAdjust="spacing" textLength="169" x="454" y="868.4185">move(calculated_position)</text><text fill="#000000" font-family="sans-serif" font-size="11" lengthAdjust="spacing" textLength="156" x="423.75" y="905.6948">Dauer abhängig von speed</text><polygon fill="#A80036" points="458,939.4219,448,943.4219,458,947.4219,454,943.4219" style="stroke:#A80036;stroke-width:1.0;"/><line style="stroke:#A80036;stroke-width:1.0;stroke-dasharray:2.0,2.0;" x1="452" x2="639" y1="943.4219" y2="943.4219"/><text fill="#000000" font-family="sans-serif" font-size="13" lengthAdjust="spacing" textLength="144" x="464" y="938.356">new_position : float[3]</text><polygon fill="#FFFFFF" filter="url(#f1g8n4gjiysfm2)" points="339,956.4219,545,956.4219,555,975.4219,545,994.4219,339,994.4219,329,975.4219,339,956.4219" style="stroke:#A80036;stroke-width:1.0;"/><text fill="#000000" font-family="sans-serif" font-size="13" lengthAdjust="spacing" textLength="202" x="341" y="972.4888">Abspeichern der neuen Position</text><text fill="#000000" font-family="sans-serif" font-size="13" lengthAdjust="spacing" textLength="44" x="420" y="987.6216">in data</text><line style="stroke:#A80036;stroke-width:2.0;" x1="636" x2="654" y1="1006.6875" y2="1024.6875"/><line style="stroke:#A80036;stroke-width:2.0;" x1="636" x2="654" y1="1024.6875" y2="1006.6875"/><rect fill="#EEEEEE" filter="url(#f1g8n4gjiysfm2)" height="3" style="stroke:#EEEEEE;stroke-width:1.0;" width="1032.5" x="0" y="1045.2539"/><line style="stroke:#000000;stroke-width:1.0;" x1="0" x2="1032.5" y1="1045.2539" y2="1045.2539"/><line style="stroke:#000000;stroke-width:1.0;" x1="0" x2="1032.5" y1="1048.2539" y2="1048.2539"/><rect fill="#EEEEEE" filter="url(#f1g8n4gjiysfm2)" height="23.1328" style="stroke:#000000;stroke-width:2.0;" width="92" x="470.25" y="1034.6875"/><text fill="#000000" font-family="sans-serif" font-size="13" font-weight="bold" lengthAdjust="spacing" textLength="73" x="476.25" y="1050.7544">Speichern</text><polygon fill="#A80036" points="939.5,1084.9531,949.5,1088.9531,939.5,1092.9531,943.5,1088.9531" style="stroke:#A80036;stroke-width:1.0;"/><line style="stroke:#A80036;stroke-width:1.0;" x1="447" x2="945.5" y1="1088.9531" y2="1088.9531"/><text fill="#000000" font-family="sans-serif" font-size="13" lengthAdjust="spacing" textLength="101" x="454" y="1083.8872">saveData(data)</text><polygon fill="#A80036" points="453,1114.0859,443,1118.0859,453,1122.0859,449,1118.0859" style="stroke:#A80036;stroke-width:1.0;"/><line style="stroke:#A80036;stroke-width:1.0;stroke-dasharray:2.0,2.0;" x1="447" x2="955.5" y1="1118.0859" y2="1118.0859"/><text fill="#000000" font-family="sans-serif" font-size="13" lengthAdjust="spacing" textLength="115" x="459" y="1113.02">success : boolean</text><!--MD5=[87684d8658320aaa37e7510a2a1dbf41]
@startuml
skinparam defaultTextAlignment center


actor       Nutzer          as n
entity      System          as s    #DA70D5

box ZoomMaps
participant ZoomTutorial    as zt
participant ZoomCalculator  as zc
participant ZoomBild        as zb
participant ZoomInput       as zi
end box

collections Config          as c
collections SpeicherMedium  as sm

activate n
activate s

== Tutorial ==
zt -> c : getBool('zoom_maps', 'tutorial')
activate zt
activate c
c - -> zt : config_state : boolean
deactivate c

opt config_state == True
    hnote over zt #FFFFFF: showing Tutorial
    n -> zt : show_again : boolean
    opt show_again == False
        zt -> c : setBool('zoom_maps', 'tutorial', false)
        activate c
        deactivate c
    end
end

deactivate zt

== Setup ==
zc -> c : getFloat('zoom_maps', 'speed')
activate zc
activate c
c - -> zc : speed : float
zc -> c : getString('zoom_maps', 'image')
c - -> zc : location : String
deactivate c

zc ->o zb : location
activate zb
note over zc, zb : Instanziierung des\nZoomBild-Objekts
zc -> zb : show()

== Versuch ==
loop Versuchsschleife
    n -> s : Interaktion mit Maus
    s -> zi : Klick- und Scrollinformationen
    activate zi
    zi -> zc : processInput(raw_input)
    deactivate zi
    zc -> zc : calculate(raw_input)
    zc -> zb : move(calculated_position)
    ... Dauer abhängig von speed ...
    zb - -> zc : new_position : float[3]
    hnote over zc #FFFFFF: Abspeichern der neuen Position\nin data
end
destroy zb


== Speichern ==
zc -> sm : saveData(data)
activate sm
sm - -> zc : success : boolean
deactivate sm
deactivate zc
@enduml

PlantUML version 1.2021.14beta6(Unknown compile time)
(GPL source distribution)
Java Runtime: Java(TM) SE Runtime Environment
JVM: Java HotSpot(TM) 64-Bit Server VM
Default Encoding: UTF-8
Language: en
Country: US
--></g></svg>