<?xml version="1.0" encoding="UTF-8" standalone="no"?><svg xmlns="http://www.w3.org/2000/svg" xmlns:xlink="http://www.w3.org/1999/xlink" contentScriptType="application/ecmascript" contentStyleType="text/css" height="396px" preserveAspectRatio="none" style="width:650px;height:396px;background:#FFFFFF;" version="1.1" viewBox="0 0 650 396" width="650px" zoomAndPan="magnify"><defs><filter height="300%" id="f1pf4xnjkol8h7" width="300%" x="-1" y="-1"><feGaussianBlur result="blurOut" stdDeviation="2.0"/><feColorMatrix in="blurOut" result="blurOut2" type="matrix" values="0 0 0 0 0 0 0 0 0 0 0 0 0 0 0 0 0 0 .4 0"/><feOffset dx="4.0" dy="4.0" in="blurOut2" result="blurOut3"/><feBlend in="SourceGraphic" in2="blurOut3" mode="normal"/></filter></defs><g><line style="stroke:#A80036;stroke-width:1.0;stroke-dasharray:5.0,5.0;" x1="54" x2="54" y1="88.2969" y2="312.2266"/><line style="stroke:#A80036;stroke-width:1.0;stroke-dasharray:5.0,5.0;" x1="136" x2="136" y1="88.2969" y2="312.2266"/><line style="stroke:#A80036;stroke-width:1.0;stroke-dasharray:5.0,5.0;" x1="205" x2="205" y1="88.2969" y2="312.2266"/><line style="stroke:#A80036;stroke-width:1.0;stroke-dasharray:5.0,5.0;" x1="282" x2="282" y1="88.2969" y2="312.2266"/><line style="stroke:#A80036;stroke-width:1.0;stroke-dasharray:5.0,5.0;" x1="347" x2="347" y1="88.2969" y2="312.2266"/><line style="stroke:#A80036;stroke-width:1.0;stroke-dasharray:5.0,5.0;" x1="419" x2="419" y1="88.2969" y2="312.2266"/><line style="stroke:#A80036;stroke-width:1.0;stroke-dasharray:5.0,5.0;" x1="517" x2="517" y1="88.2969" y2="312.2266"/><line style="stroke:#A80036;stroke-width:1.0;stroke-dasharray:5.0,5.0;" x1="610" x2="610" y1="88.2969" y2="312.2266"/><rect fill="#FEFECE" filter="url(#f1pf4xnjkol8h7)" height="30.2969" style="stroke:#A80036;stroke-width:1.5;" width="94" x="5" y="53"/><text fill="#000000" font-family="sans-serif" font-size="14" lengthAdjust="spacing" textLength="80" x="12" y="72.9951">Participant</text><rect fill="#FEFECE" filter="url(#f1pf4xnjkol8h7)" height="30.2969" style="stroke:#A80036;stroke-width:1.5;" width="94" x="5" y="311.2266"/><text fill="#000000" font-family="sans-serif" font-size="14" lengthAdjust="spacing" textLength="80" x="12" y="331.2217">Participant</text><text fill="#000000" font-family="sans-serif" font-size="14" lengthAdjust="spacing" textLength="40" x="113" y="84.9951">Actor</text><ellipse cx="136" cy="15" fill="#FEFECE" filter="url(#f1pf4xnjkol8h7)" rx="8" ry="8" style="stroke:#A80036;stroke-width:2.0;"/><path d="M136,23 L136,50 M123,31 L149,31 M136,50 L123,65 M136,50 L149,65 " fill="none" filter="url(#f1pf4xnjkol8h7)" style="stroke:#A80036;stroke-width:2.0;"/><text fill="#000000" font-family="sans-serif" font-size="14" lengthAdjust="spacing" textLength="40" x="113" y="324.2217">Actor</text><ellipse cx="136" cy="337.5234" fill="#FEFECE" filter="url(#f1pf4xnjkol8h7)" rx="8" ry="8" style="stroke:#A80036;stroke-width:2.0;"/><path d="M136,345.5234 L136,372.5234 M123,353.5234 L149,353.5234 M136,372.5234 L123,387.5234 M136,372.5234 L149,387.5234 " fill="none" filter="url(#f1pf4xnjkol8h7)" style="stroke:#A80036;stroke-width:2.0;"/><text fill="#000000" font-family="sans-serif" font-size="14" lengthAdjust="spacing" textLength="67" x="169" y="84.9951">Boundary</text><path d="M185,44 L185,68 M185,56 L202,56 " fill="none" filter="url(#f1pf4xnjkol8h7)" style="stroke:#A80036;stroke-width:2.0;"/><ellipse cx="214" cy="56" fill="#FEFECE" filter="url(#f1pf4xnjkol8h7)" rx="12" ry="12" style="stroke:#A80036;stroke-width:2.0;"/><text fill="#000000" font-family="sans-serif" font-size="14" lengthAdjust="spacing" textLength="67" x="169" y="324.2217">Boundary</text><path d="M185,331.5234 L185,355.5234 M185,343.5234 L202,343.5234 " fill="none" filter="url(#f1pf4xnjkol8h7)" style="stroke:#A80036;stroke-width:2.0;"/><ellipse cx="214" cy="343.5234" fill="#FEFECE" filter="url(#f1pf4xnjkol8h7)" rx="12" ry="12" style="stroke:#A80036;stroke-width:2.0;"/><text fill="#000000" font-family="sans-serif" font-size="14" lengthAdjust="spacing" textLength="54" x="252" y="84.9951">Control</text><ellipse cx="282" cy="56" fill="#FEFECE" filter="url(#f1pf4xnjkol8h7)" rx="12" ry="12" style="stroke:#A80036;stroke-width:2.0;"/><polygon fill="#A80036" points="278,44,284,39,282,44,284,49,278,44" style="stroke:#A80036;stroke-width:1.0;"/><text fill="#000000" font-family="sans-serif" font-size="14" lengthAdjust="spacing" textLength="54" x="252" y="324.2217">Control</text><ellipse cx="282" cy="343.5234" fill="#FEFECE" filter="url(#f1pf4xnjkol8h7)" rx="12" ry="12" style="stroke:#A80036;stroke-width:2.0;"/><polygon fill="#A80036" points="278,331.5234,284,326.5234,282,331.5234,284,336.5234,278,331.5234" style="stroke:#A80036;stroke-width:1.0;"/><text fill="#000000" font-family="sans-serif" font-size="14" lengthAdjust="spacing" textLength="44" x="322" y="84.9951">Entity</text><ellipse cx="347" cy="56" fill="#FEFECE" filter="url(#f1pf4xnjkol8h7)" rx="12" ry="12" style="stroke:#A80036;stroke-width:2.0;"/><line style="stroke:#A80036;stroke-width:2.0;" x1="335" x2="359" y1="70" y2="70"/><text fill="#000000" font-family="sans-serif" font-size="14" lengthAdjust="spacing" textLength="44" x="322" y="324.2217">Entity</text><ellipse cx="347" cy="343.5234" fill="#FEFECE" filter="url(#f1pf4xnjkol8h7)" rx="12" ry="12" style="stroke:#A80036;stroke-width:2.0;"/><line style="stroke:#A80036;stroke-width:2.0;" x1="335" x2="359" y1="357.5234" y2="357.5234"/><text fill="#000000" font-family="sans-serif" font-size="14" lengthAdjust="spacing" textLength="68" x="382" y="84.9951">Database</text><path d="M401,36 C401,26 419,26 419,26 C419,26 437,26 437,36 L437,62 C437,72 419,72 419,72 C419,72 401,72 401,62 L401,36 " fill="#FEFECE" filter="url(#f1pf4xnjkol8h7)" style="stroke:#000000;stroke-width:1.5;"/><path d="M401,36 C401,46 419,46 419,46 C419,46 437,46 437,36 " fill="none" style="stroke:#000000;stroke-width:1.5;"/><text fill="#000000" font-family="sans-serif" font-size="14" lengthAdjust="spacing" textLength="68" x="382" y="324.2217">Database</text><path d="M401,337.5234 C401,327.5234 419,327.5234 419,327.5234 C419,327.5234 437,327.5234 437,337.5234 L437,363.5234 C437,373.5234 419,373.5234 419,373.5234 C419,373.5234 401,373.5234 401,363.5234 L401,337.5234 " fill="#FEFECE" filter="url(#f1pf4xnjkol8h7)" style="stroke:#000000;stroke-width:1.5;"/><path d="M401,337.5234 C401,347.5234 419,347.5234 419,347.5234 C419,347.5234 437,347.5234 437,337.5234 " fill="none" style="stroke:#000000;stroke-width:1.5;"/><rect fill="#FEFECE" filter="url(#f1pf4xnjkol8h7)" height="30.2969" style="stroke:#A80036;stroke-width:1.5;" width="94" x="470" y="49"/><rect fill="#FEFECE" filter="url(#f1pf4xnjkol8h7)" height="30.2969" style="stroke:#A80036;stroke-width:1.5;" width="94" x="466" y="53"/><text fill="#000000" font-family="sans-serif" font-size="14" lengthAdjust="spacing" textLength="80" x="473" y="72.9951">Collections</text><rect fill="#FEFECE" filter="url(#f1pf4xnjkol8h7)" height="30.2969" style="stroke:#A80036;stroke-width:1.5;" width="94" x="470" y="311.2266"/><rect fill="#FEFECE" filter="url(#f1pf4xnjkol8h7)" height="30.2969" style="stroke:#A80036;stroke-width:1.5;" width="94" x="466" y="315.2266"/><text fill="#000000" font-family="sans-serif" font-size="14" lengthAdjust="spacing" textLength="80" x="473" y="335.2217">Collections</text><path d="M583,62 L638,62 C643,62 643,75.1484 643,75.1484 C643,75.1484 643,88.2969 638,88.2969 L583,88.2969 C578,88.2969 578,75.1484 578,75.1484 C578,75.1484 578,62 583,62 " fill="#FEFECE" filter="url(#f1pf4xnjkol8h7)" style="stroke:#A80036;stroke-width:2.0;"/><path d="M638,62 C633,62 633,75.1484 633,75.1484 C633,88.2969 638,88.2969 638,88.2969 " fill="none" style="stroke:#A80036;stroke-width:2.0;"/><text fill="#000000" font-family="sans-serif" font-size="14" lengthAdjust="spacing" textLength="45" x="583" y="79.9951">Queue</text><path d="M583,311.2266 L638,311.2266 C643,311.2266 643,324.375 643,324.375 C643,324.375 643,337.5234 638,337.5234 L583,337.5234 C578,337.5234 578,324.375 578,324.375 C578,324.375 578,311.2266 583,311.2266 " fill="#FEFECE" filter="url(#f1pf4xnjkol8h7)" style="stroke:#A80036;stroke-width:2.0;"/><path d="M638,311.2266 C633,311.2266 633,324.375 633,324.375 C633,337.5234 638,337.5234 638,337.5234 " fill="none" style="stroke:#A80036;stroke-width:2.0;"/><text fill="#000000" font-family="sans-serif" font-size="14" lengthAdjust="spacing" textLength="45" x="583" y="329.2217">Queue</text><polygon fill="#A80036" points="124,115.4297,134,119.4297,124,123.4297,128,119.4297" style="stroke:#A80036;stroke-width:1.0;"/><line style="stroke:#A80036;stroke-width:1.0;" x1="54" x2="130" y1="119.4297" y2="119.4297"/><text fill="#000000" font-family="sans-serif" font-size="13" lengthAdjust="spacing" textLength="53" x="61" y="114.3638">To actor</text><polygon fill="#A80036" points="193.5,144.5625,203.5,148.5625,193.5,152.5625,197.5,148.5625" style="stroke:#A80036;stroke-width:1.0;"/><line style="stroke:#A80036;stroke-width:1.0;" x1="54" x2="199.5" y1="148.5625" y2="148.5625"/><text fill="#000000" font-family="sans-serif" font-size="13" lengthAdjust="spacing" textLength="81" x="61" y="143.4966">To boundary</text><polygon fill="#A80036" points="270,173.6953,280,177.6953,270,181.6953,274,177.6953" style="stroke:#A80036;stroke-width:1.0;"/><line style="stroke:#A80036;stroke-width:1.0;" x1="54" x2="276" y1="177.6953" y2="177.6953"/><text fill="#000000" font-family="sans-serif" font-size="13" lengthAdjust="spacing" textLength="64" x="61" y="172.6294">To control</text><polygon fill="#A80036" points="335,202.8281,345,206.8281,335,210.8281,339,206.8281" style="stroke:#A80036;stroke-width:1.0;"/><line style="stroke:#A80036;stroke-width:1.0;" x1="54" x2="341" y1="206.8281" y2="206.8281"/><text fill="#000000" font-family="sans-serif" font-size="13" lengthAdjust="spacing" textLength="57" x="61" y="201.7622">To entity</text><polygon fill="#A80036" points="407,231.9609,417,235.9609,407,239.9609,411,235.9609" style="stroke:#A80036;stroke-width:1.0;"/><line style="stroke:#A80036;stroke-width:1.0;" x1="54" x2="413" y1="235.9609" y2="235.9609"/><text fill="#000000" font-family="sans-serif" font-size="13" lengthAdjust="spacing" textLength="80" x="61" y="230.895">To database</text><polygon fill="#A80036" points="505,261.0938,515,265.0938,505,269.0938,509,265.0938" style="stroke:#A80036;stroke-width:1.0;"/><line style="stroke:#A80036;stroke-width:1.0;" x1="54" x2="511" y1="265.0938" y2="265.0938"/><text fill="#000000" font-family="sans-serif" font-size="13" lengthAdjust="spacing" textLength="87" x="61" y="260.0278">To collections</text><polygon fill="#A80036" points="598.5,290.2266,608.5,294.2266,598.5,298.2266,602.5,294.2266" style="stroke:#A80036;stroke-width:1.0;"/><line style="stroke:#A80036;stroke-width:1.0;" x1="54" x2="604.5" y1="294.2266" y2="294.2266"/><text fill="#000000" font-family="sans-serif" font-size="13" lengthAdjust="spacing" textLength="60" x="61" y="289.1606">To queue</text><!--MD5=[e7c9b68a9434200635044b4cc68d5b13]
@startuml
participant Participant as Foo
actor       Actor       as Foo1
boundary    Boundary    as Foo2
control     Control     as Foo3
entity      Entity      as Foo4
database    Database    as Foo5
collections Collections as Foo6
queue       Queue       as Foo7
Foo -> Foo1 : To actor
Foo -> Foo2 : To boundary
Foo -> Foo3 : To control
Foo -> Foo4 : To entity
Foo -> Foo5 : To database
Foo -> Foo6 : To collections
Foo -> Foo7: To queue
@enduml

PlantUML version 1.2021.14beta6(Unknown compile time)
(GPL source distribution)
Java Runtime: Java(TM) SE Runtime Environment
JVM: Java HotSpot(TM) 64-Bit Server VM
Default Encoding: UTF-8
Language: en
Country: US
--></g></svg>