<?xml version="1.0" encoding="UTF-8" standalone="no"?><svg xmlns="http://www.w3.org/2000/svg" xmlns:xlink="http://www.w3.org/1999/xlink" contentScriptType="application/ecmascript" contentStyleType="text/css" height="248px" preserveAspectRatio="none" style="width:201px;height:248px;background:#FFFFFF;" version="1.1" viewBox="0 0 201 248" width="201px" zoomAndPan="magnify"><defs><filter height="300%" id="f1kxkvbe1qj2zb" width="300%" x="-1" y="-1"><feGaussianBlur result="blurOut" stdDeviation="2.0"/><feColorMatrix in="blurOut" result="blurOut2" type="matrix" values="0 0 0 0 0 0 0 0 0 0 0 0 0 0 0 0 0 0 .4 0"/><feOffset dx="4.0" dy="4.0" in="blurOut2" result="blurOut3"/><feBlend in="SourceGraphic" in2="blurOut3" mode="normal"/></filter></defs><g><!--MD5=[0154ce9715a30d7d18fef37a629d6312]
entity First Actor--><ellipse cx="46.5" cy="22.5" fill="#FEFECE" filter="url(#f1kxkvbe1qj2zb)" rx="8" ry="8" style="stroke:#A80036;stroke-width:1.5;"/><path d="M46.5,30.5 L46.5,57.5 M33.5,38.5 L59.5,38.5 M46.5,57.5 L33.5,72.5 M46.5,57.5 L59.5,72.5 " fill="none" filter="url(#f1kxkvbe1qj2zb)" style="stroke:#A80036;stroke-width:1.5;"/><text fill="#000000" font-family="sans-serif" font-size="14" lengthAdjust="spacing" textLength="76" x="8.5" y="90.9951">First Actor</text><!--MD5=[6ea34d01e93ce4124975866a19813a2a]
entity Man2--><ellipse cx="149.5" cy="14" fill="#FEFECE" filter="url(#f1kxkvbe1qj2zb)" rx="8" ry="8" style="stroke:#A80036;stroke-width:1.5;"/><path d="M149.5,22 L149.5,49 M136.5,30 L162.5,30 M149.5,49 L136.5,64 M149.5,49 L162.5,64 " fill="none" filter="url(#f1kxkvbe1qj2zb)" style="stroke:#A80036;stroke-width:1.5;"/><text fill="#000000" font-family="sans-serif" font-size="14" lengthAdjust="spacing" textLength="59" x="120" y="82.4951">Another</text><text fill="#000000" font-family="sans-serif" font-size="14" lengthAdjust="spacing" textLength="38" x="120" y="98.792">actor</text><!--MD5=[08ec05c7a7ba3f19a9364713b746951c]
entity Woman300--><ellipse cx="46.5" cy="172" fill="#FEFECE" filter="url(#f1kxkvbe1qj2zb)" rx="8" ry="8" style="stroke:#A80036;stroke-width:1.5;"/><path d="M46.5,180 L46.5,207 M33.5,188 L59.5,188 M46.5,207 L33.5,222 M46.5,207 L59.5,222 " fill="none" filter="url(#f1kxkvbe1qj2zb)" style="stroke:#A80036;stroke-width:1.5;"/><text fill="#000000" font-family="sans-serif" font-size="14" lengthAdjust="spacing" textLength="81" x="6" y="240.4951">Woman300</text><!--MD5=[aaed9c20c17fd8f2c8f2d382cb8776f5]
entity Person100--><ellipse cx="158.5" cy="172" fill="#FEFECE" filter="url(#f1kxkvbe1qj2zb)" rx="8" ry="8" style="stroke:#A80036;stroke-width:1.5;"/><path d="M158.5,180 L158.5,207 M145.5,188 L171.5,188 M158.5,207 L145.5,222 M158.5,207 L171.5,222 " fill="none" filter="url(#f1kxkvbe1qj2zb)" style="stroke:#A80036;stroke-width:1.5;"/><text fill="#000000" font-family="sans-serif" font-size="14" lengthAdjust="spacing" textLength="72" x="122.5" y="240.4951">Last actor</text><!--MD5=[b5fb66da371e057bbcaed64541d3455d]
link First Actor to Man2--><!--MD5=[e157b47d12101493796c5389da44798f]
link First Actor to Woman300--><!--MD5=[f0e0e4450e15beb7b9769dc907d7fdd6]
link Woman300 to Person100--><!--MD5=[44d5e95ad2acf5e4fec49a0c7ba94e76]
@startuml
:First Actor:
:Another\nactor: as Man2
actor Woman300
actor :Last actor: as Person100
@enduml

PlantUML version 1.2021.15beta3(Unknown compile time)
(GPL source distribution)
Java Runtime: Java(TM) SE Runtime Environment
JVM: Java HotSpot(TM) 64-Bit Server VM
Default Encoding: UTF-8
Language: en
Country: US
--></g></svg>