<?xml version="1.0" encoding="UTF-8" standalone="no"?><svg xmlns="http://www.w3.org/2000/svg" xmlns:xlink="http://www.w3.org/1999/xlink" contentScriptType="application/ecmascript" contentStyleType="text/css" height="248px" preserveAspectRatio="none" style="width:190px;height:248px;background:#FFFFFF;" version="1.1" viewBox="0 0 190 248" width="190px" zoomAndPan="magnify"><defs><filter height="300%" id="flarwpnphh7c9" width="300%" x="-1" y="-1"><feGaussianBlur result="blurOut" stdDeviation="2.0"/><feColorMatrix in="blurOut" result="blurOut2" type="matrix" values="0 0 0 0 0 0 0 0 0 0 0 0 0 0 0 0 0 0 .4 0"/><feOffset dx="4.0" dy="4.0" in="blurOut2" result="blurOut3"/><feBlend in="SourceGraphic" in2="blurOut3" mode="normal"/></filter></defs><g><!--MD5=[0154ce9715a30d7d18fef37a629d6312]
entity First Actor--><ellipse cx="44" cy="22.5" fill="#FEFECE" filter="url(#flarwpnphh7c9)" rx="8" ry="8" style="stroke:#A80036;stroke-width:1.5;"/><path d="M44,30.5 L44,57.5 M31,38.5 L57,38.5 M44,57.5 L31,72.5 M44,57.5 L57,72.5 " fill="none" filter="url(#flarwpnphh7c9)" style="stroke:#A80036;stroke-width:1.5;"/><text fill="#000000" font-family="sans-serif" font-size="14" lengthAdjust="spacing" textLength="76" x="6" y="90.9951">First Actor</text><!--MD5=[6ea34d01e93ce4124975866a19813a2a]
entity Man2--><ellipse cx="147" cy="14" fill="#FEFECE" filter="url(#flarwpnphh7c9)" rx="8" ry="8" style="stroke:#A80036;stroke-width:1.5;"/><path d="M147,22 L147,49 M134,30 L160,30 M147,49 L134,64 M147,49 L160,64 " fill="none" filter="url(#flarwpnphh7c9)" style="stroke:#A80036;stroke-width:1.5;"/><text fill="#000000" font-family="sans-serif" font-size="14" lengthAdjust="spacing" textLength="59" x="117.5" y="82.4951">Another</text><text fill="#000000" font-family="sans-serif" font-size="14" lengthAdjust="spacing" textLength="38" x="117.5" y="98.792">actor</text><!--MD5=[3d2197e14cb00aa5ec30b093ac7bde7f]
entity Woman3--><ellipse cx="44" cy="172" fill="#FEFECE" filter="url(#flarwpnphh7c9)" rx="8" ry="8" style="stroke:#A80036;stroke-width:1.5;"/><path d="M44,180 L44,207 M31,188 L57,188 M44,207 L31,222 M44,207 L57,222 " fill="none" filter="url(#flarwpnphh7c9)" style="stroke:#A80036;stroke-width:1.5;"/><text fill="#000000" font-family="sans-serif" font-size="14" lengthAdjust="spacing" textLength="63" x="12.5" y="240.4951">Woman3</text><!--MD5=[3bc476eaaedde3319bb81330de87a5cd]
entity Person1--><ellipse cx="147" cy="172" fill="#FEFECE" filter="url(#flarwpnphh7c9)" rx="8" ry="8" style="stroke:#A80036;stroke-width:1.5;"/><path d="M147,180 L147,207 M134,188 L160,188 M147,207 L134,222 M147,207 L160,222 " fill="none" filter="url(#flarwpnphh7c9)" style="stroke:#A80036;stroke-width:1.5;"/><text fill="#000000" font-family="sans-serif" font-size="14" lengthAdjust="spacing" textLength="72" x="111" y="240.4951">Last actor</text><!--MD5=[b5fb66da371e057bbcaed64541d3455d]
link First Actor to Man2--><!--MD5=[066958fc49c065f42480bed715d46a45]
link First Actor to Woman3--><!--MD5=[d321b4faffd3a800b2d2bcf22baf68eb]
link Woman3 to Person1--><!--MD5=[7bbeb12ebb3db1a68457bb7e09dc6808]
@startuml
:First Actor:
:Another\nactor: as Man2
actor Woman3
actor :Last actor: as Person1
@enduml

PlantUML version 1.2021.15beta3(Unknown compile time)
(GPL source distribution)
Java Runtime: Java(TM) SE Runtime Environment
JVM: Java HotSpot(TM) 64-Bit Server VM
Default Encoding: UTF-8
Language: en
Country: US
--></g></svg>