<?xml version="1.0" encoding="UTF-8" standalone="no"?><svg xmlns="http://www.w3.org/2000/svg" xmlns:xlink="http://www.w3.org/1999/xlink" contentScriptType="application/ecmascript" contentStyleType="text/css" height="356px" preserveAspectRatio="none" style="width:300px;height:356px;background:#FFFFFF;" version="1.1" viewBox="0 0 300 356" width="300px" zoomAndPan="magnify"><defs><filter height="300%" id="fzh3ovipbi636" width="300%" x="-1" y="-1"><feGaussianBlur result="blurOut" stdDeviation="2.0"/><feColorMatrix in="blurOut" result="blurOut2" type="matrix" values="0 0 0 0 0 0 0 0 0 0 0 0 0 0 0 0 0 0 .4 0"/><feOffset dx="4.0" dy="4.0" in="blurOut2" result="blurOut3"/><feBlend in="SourceGraphic" in2="blurOut3" mode="normal"/></filter></defs><g><!--MD5=[fee662a292a0353a69bd162820bae93b]
entity User--><ellipse cx="21.5" cy="156" fill="#FEFECE" filter="url(#fzh3ovipbi636)" rx="8" ry="8" style="stroke:#A80036;stroke-width:1.5;"/><path d="M21.5,164 L21.5,191 M8.5,172 L34.5,172 M21.5,191 L8.5,206 M21.5,191 L34.5,206 " fill="none" filter="url(#fzh3ovipbi636)" style="stroke:#A80036;stroke-width:1.5;"/><text fill="#000000" font-family="sans-serif" font-size="14" lengthAdjust="spacing" textLength="31" x="6" y="224.4951">User</text><ellipse cx="109.7231" cy="187.0485" fill="#FEFECE" filter="url(#fzh3ovipbi636)" rx="37.7231" ry="14.5485" style="stroke:#A80036;stroke-width:1.5;"/><text fill="#000000" font-family="sans-serif" font-size="14" lengthAdjust="spacing" textLength="37" x="89.6116" y="190.4312">Start</text><ellipse cx="141.2915" cy="324.6583" fill="#FEFECE" filter="url(#fzh3ovipbi636)" rx="88.7915" ry="20.1583" style="stroke:#A80036;stroke-width:1.5;"/><text fill="#000000" font-family="sans-serif" font-size="14" lengthAdjust="spacing" textLength="139" x="71.7915" y="327.505">Use the application</text><!--MD5=[9d80a031e6d406631f1782a5e0bf8feb]
entity Main Admin--><ellipse cx="217.5" cy="14" fill="#FEFECE" filter="url(#fzh3ovipbi636)" rx="8" ry="8" style="stroke:#A80036;stroke-width:1.5;"/><path d="M217.5,22 L217.5,49 M204.5,30 L230.5,30 M217.5,49 L204.5,64 M217.5,49 L230.5,64 " fill="none" filter="url(#fzh3ovipbi636)" style="stroke:#A80036;stroke-width:1.5;"/><text fill="#000000" font-family="sans-serif" font-size="14" lengthAdjust="spacing" textLength="83" x="176" y="82.4951">Main Admin</text><!--MD5=[f4b2be5085d6f52f3a0e36c62efcf3ad]
link User to Start--><path d="M37.3125,187 C47.1577,187 57.0028,187 66.848,187 " fill="none" id="User-to-Start" style="stroke:#A80036;stroke-width:1.0;"/><polygon fill="#A80036" points="71.9963,187,62.9963,183,66.9963,187,62.9963,191,71.9963,187" style="stroke:#A80036;stroke-width:1.0;"/><!--MD5=[d0b0c59f33bd08b0398cb18ab70d3659]
link User to Use the application--><path d="M37.1251,207.017 C42.5679,213.557 48.7512,220.894 54.5,227.5 C76.6482,252.9511 102.7106,281.5357 120.496,300.8438 " fill="none" id="User-to-Use the application" style="stroke:#A80036;stroke-width:1.0;"/><polygon fill="#A80036" points="123.939,304.578,120.7803,295.2494,120.5502,300.9016,114.8981,300.6714,123.939,304.578" style="stroke:#A80036;stroke-width:1.0;"/><text fill="#000000" font-family="sans-serif" font-size="13" lengthAdjust="spacing" textLength="81" x="96.5" y="270.5669">A small label</text><!--MD5=[84f62c86aeb01e7b0e45c962b4c6c2da]
link Main Admin to Use the application--><path d="M219.149,85.595 C219.575,132.817 215.333,213.073 186.5,274.5 C181.861,284.3837 174.512,293.6495 167.087,301.4059 " fill="none" id="Main Admin-to-Use the application" style="stroke:#A80036;stroke-width:1.0;"/><polygon fill="#A80036" points="163.447,305.0885,172.618,301.4979,166.9613,301.5318,166.9273,295.8751,163.447,305.0885" style="stroke:#A80036;stroke-width:1.0;"/><text fill="#000000" font-family="sans-serif" font-size="13" lengthAdjust="spacing" textLength="40" x="235" y="176.5669">This is</text><text fill="#000000" font-family="sans-serif" font-size="13" lengthAdjust="spacing" textLength="75" x="217.5" y="191.6997">yet another</text><text fill="#000000" font-family="sans-serif" font-size="13" lengthAdjust="spacing" textLength="30" x="240" y="206.8325">label</text><!--MD5=[327acdd796c521bbd753190ddce2af64]
@startuml
User -> (Start)
User - -> (Use the application) : A small label

:Main Admin: - - -> (Use the application) : This is\nyet another\nlabel
@enduml

PlantUML version 1.2021.15beta3(Unknown compile time)
(GPL source distribution)
Java Runtime: Java(TM) SE Runtime Environment
JVM: Java HotSpot(TM) 64-Bit Server VM
Default Encoding: UTF-8
Language: en
Country: US
--></g></svg>