<?xml version="1.0" encoding="UTF-8" standalone="no"?><svg xmlns="http://www.w3.org/2000/svg" xmlns:xlink="http://www.w3.org/1999/xlink" contentScriptType="application/ecmascript" contentStyleType="text/css" height="360px" preserveAspectRatio="none" style="width:287px;height:360px;" version="1.1" viewBox="0 0 287 360" width="287px" zoomAndPan="magnify"><defs><filter height="300%" id="f1umknj16qxn8a" width="300%" x="-1" y="-1"><feGaussianBlur result="blurOut" stdDeviation="2.0"/><feColorMatrix in="blurOut" result="blurOut2" type="matrix" values="0 0 0 0 0 0 0 0 0 0 0 0 0 0 0 0 0 0 .4 0"/><feOffset dx="4.0" dy="4.0" in="blurOut2" result="blurOut3"/><feBlend in="SourceGraphic" in2="blurOut3" mode="normal"/></filter></defs><g><!--entity User--><ellipse cx="22" cy="162" fill="#FEFECE" filter="url(#f1umknj16qxn8a)" rx="8" ry="8" style="stroke: #A80036; stroke-width: 2.0;"/><path d="M22,170 L22,197 M9,178 L35,178 M22,197 L9,212 M22,197 L35,212 " fill="none" filter="url(#f1umknj16qxn8a)" style="stroke: #A80036; stroke-width: 2.0;"/><text fill="#000000" font-family="sans-serif" font-size="14" lengthAdjust="spacingAndGlyphs" textLength="32" x="6" y="231.9951">User</text><ellipse cx="99.1274" cy="193.5236" fill="#FEFECE" filter="url(#f1umknj16qxn8a)" rx="25.6274" ry="14.5236" style="stroke: #A80036; stroke-width: 1.5;"/><text fill="#000000" font-family="sans-serif" font-size="14" lengthAdjust="spacingAndGlyphs" textLength="32" x="83.1274" y="198.1721">Start</text><ellipse cx="109.0624" cy="330.5125" fill="#FEFECE" filter="url(#f1umknj16qxn8a)" rx="80.5624" ry="18.5125" style="stroke: #A80036; stroke-width: 1.5;"/><text fill="#000000" font-family="sans-serif" font-size="14" lengthAdjust="spacingAndGlyphs" textLength="132" x="43.0624" y="335.1609">Use the application</text><!--entity Main Admin--><ellipse cx="195" cy="18" fill="#FEFECE" filter="url(#f1umknj16qxn8a)" rx="8" ry="8" style="stroke: #A80036; stroke-width: 2.0;"/><path d="M195,26 L195,53 M182,34 L208,34 M195,53 L182,68 M195,53 L208,68 " fill="none" filter="url(#f1umknj16qxn8a)" style="stroke: #A80036; stroke-width: 2.0;"/><text fill="#000000" font-family="sans-serif" font-size="14" lengthAdjust="spacingAndGlyphs" textLength="79" x="155.5" y="87.9951">Main Admin</text><!--link User to Start--><path d="M38.24,193.5 C48.21,193.5 58.18,193.5 68.15,193.5 " fill="none" id="User-Start" style="stroke: #A80036; stroke-width: 1.0;"/><polygon fill="#A80036" points="73.37,193.5,64.37,189.5,68.37,193.5,64.37,197.5,73.37,193.5" style="stroke: #A80036; stroke-width: 1.0;"/><!--link User to Use the application--><path d="M38.16,219.58 C54.44,244.84 79.32,283.45 94.85,307.54 " fill="none" id="User-Use the application" style="stroke: #A80036; stroke-width: 1.0;"/><polygon fill="#A80036" points="97.64,311.87,96.1379,302.1364,94.9362,307.6641,89.4085,306.4624,97.64,311.87" style="stroke: #A80036; stroke-width: 1.0;"/><text fill="#000000" font-family="sans-serif" font-size="13" lengthAdjust="spacingAndGlyphs" textLength="81" x="80" y="278.0669">A small label</text><!--link Main Admin to Use the application--><path d="M199.79,91.43 C203.5,140.06 203.35,222.15 170,282 C163.77,293.18 153.71,302.63 143.55,310.07 " fill="none" id="Main Admin-Use the application" style="stroke: #A80036; stroke-width: 1.0;"/><polygon fill="#A80036" points="139.2,313.14,148.8589,311.2151,143.284,310.2555,144.2437,304.6806,139.2,313.14" style="stroke: #A80036; stroke-width: 1.0;"/><text fill="#000000" font-family="sans-serif" font-size="13" lengthAdjust="spacingAndGlyphs" textLength="39" x="218.5" y="183.0669">This is</text><text fill="#000000" font-family="sans-serif" font-size="13" lengthAdjust="spacingAndGlyphs" textLength="74" x="201" y="198.1997">yet another</text><text fill="#000000" font-family="sans-serif" font-size="13" lengthAdjust="spacingAndGlyphs" textLength="30" x="223" y="213.3325">label</text><!--
@startuml {modul}
skinparam backgroundColor #FFFFFF

User -> (Start)
User - -> (Use the application) : A small label

:Main Admin: - - -> (Use the application) : This is\nyet another\nlabel

@enduml

PlantUML version 1.2019.06(Fri May 24 17:10:25 UTC 2019)
(GPL source distribution)
Java Runtime: OpenJDK Runtime Environment
JVM: OpenJDK 64-Bit Server VM
Java Version: 11.0.11+9
Operating System: Linux
OS Version: 5.11.0-1021-azure
Default Encoding: UTF-8
Language: en
Country: null
--></g></svg>