<?xml version="1.0" encoding="UTF-8" standalone="no"?><svg xmlns="http://www.w3.org/2000/svg" xmlns:xlink="http://www.w3.org/1999/xlink" contentScriptType="application/ecmascript" contentStyleType="text/css" height="619px" preserveAspectRatio="none" style="width:920px;height:619px;background:#FFFFFF;" version="1.1" viewBox="0 0 920 619" width="920px" zoomAndPan="magnify"><defs><filter height="300%" id="fq6mfd1kakerw" width="300%" x="-1" y="-1"><feGaussianBlur result="blurOut" stdDeviation="2.0"/><feColorMatrix in="blurOut" result="blurOut2" type="matrix" values="0 0 0 0 0 0 0 0 0 0 0 0 0 0 0 0 0 0 .4 0"/><feOffset dx="4.0" dy="4.0" in="blurOut2" result="blurOut3"/><feBlend in="SourceGraphic" in2="blurOut3" mode="normal"/></filter></defs><g><!--MD5=[3a4ecbc1d133d64cf2ebb2949f5932ed]
cluster Speichermedium--><polygon fill="#FFFFFF" filter="url(#fq6mfd1kakerw)" points="223,6,362,6,369,28.2969,903,28.2969,903,497,223,497,223,6" style="stroke:#000000;stroke-width:1.5;"/><line style="stroke:#000000;stroke-width:1.5;" x1="223" x2="369" y1="28.2969" y2="28.2969"/><text fill="#000000" font-family="sans-serif" font-size="14" font-weight="bold" lengthAdjust="spacing" textLength="133" x="227" y="20.9951">Speichermedium</text><!--MD5=[827fa8af465d414750422ffafb762a0b]
class SpeicherUtilities--><rect codeLine="4" fill="#FEFECE" filter="url(#fq6mfd1kakerw)" height="133.6328" id="SpeicherUtilities" style="stroke:#A80036;stroke-width:1.5;" width="273" x="247.5" y="346"/><ellipse cx="330.75" cy="362" fill="#ADD1B2" rx="11" ry="11" style="stroke:#A80036;stroke-width:1.0;"/><path d="M333.0938,357.6719 C332.1563,357.2344 331.5625,357.0938 330.6875,357.0938 C328.0625,357.0938 326.0625,359.1719 326.0625,361.8906 L326.0625,363.0156 C326.0625,365.5938 328.1719,367.4844 331.0625,367.4844 C332.2813,367.4844 333.4375,367.1875 334.1875,366.6406 C334.7656,366.2344 335.0938,365.7813 335.0938,365.3906 C335.0938,364.9375 334.7031,364.5469 334.2344,364.5469 C334.0156,364.5469 333.8125,364.625 333.625,364.8125 C333.1719,365.2969 333.1719,365.2969 332.9844,365.3906 C332.5625,365.6563 331.875,365.7813 331.1094,365.7813 C329.0625,365.7813 327.7656,364.6875 327.7656,362.9844 L327.7656,361.8906 C327.7656,360.1094 329.0156,358.7969 330.75,358.7969 C331.3281,358.7969 331.9375,358.9531 332.4063,359.2031 C332.8906,359.4844 333.0625,359.7031 333.1563,360.1094 C333.2188,360.5156 333.25,360.6406 333.3906,360.7656 C333.5313,360.9063 333.7656,361.0156 333.9844,361.0156 C334.25,361.0156 334.5156,360.875 334.6875,360.6563 C334.7969,360.5 334.8281,360.3125 334.8281,359.8906 L334.8281,358.4688 C334.8281,358.0313 334.8125,357.9063 334.7188,357.75 C334.5625,357.4844 334.2813,357.3438 333.9844,357.3438 C333.6875,357.3438 333.4844,357.4375 333.2656,357.75 L333.0938,357.6719 Z " fill="#000000"/><text fill="#000000" font-family="sans-serif" font-size="12" lengthAdjust="spacing" textLength="98" x="351.25" y="366.1543">SpeicherUtilities</text><line style="stroke:#A80036;stroke-width:1.5;" x1="248.5" x2="519.5" y1="378" y2="378"/><rect fill="none" height="6" style="stroke:#C82930;stroke-width:1.0;" width="6" x="255.5" y="386"/><text fill="#000000" font-family="sans-serif" font-size="11" lengthAdjust="spacing" textLength="87" x="267.5" y="392.2104">Location: String</text><ellipse cx="258.5" cy="418.6094" fill="#84BE84" rx="3" ry="3" style="stroke:#038048;stroke-width:1.0;"/><text fill="#000000" font-family="sans-serif" font-size="11" lengthAdjust="spacing" textLength="244" x="267.5" y="421.8198">deleteData(data_client_input: String) : void</text><ellipse cx="258.5" cy="431.4141" fill="#84BE84" rx="3" ry="3" style="stroke:#038048;stroke-width:1.0;"/><text fill="#000000" font-family="sans-serif" font-size="11" lengthAdjust="spacing" textLength="247" x="267.5" y="434.6245">searchData(data_client_input: String) : Data</text><ellipse cx="258.5" cy="444.2188" fill="#84BE84" rx="3" ry="3" style="stroke:#038048;stroke-width:1.0;"/><text fill="#000000" font-family="sans-serif" font-size="11" lengthAdjust="spacing" textLength="157" x="267.5" y="447.4292">saveData(data: Data) : void</text><ellipse cx="258.5" cy="457.0234" fill="#84BE84" rx="3" ry="3" style="stroke:#038048;stroke-width:1.0;"/><text fill="#000000" font-family="sans-serif" font-size="11" lengthAdjust="spacing" textLength="216" x="267.5" y="460.2339">setLocation(config_input: String) : void</text><ellipse cx="258.5" cy="469.8281" fill="#84BE84" rx="3" ry="3" style="stroke:#038048;stroke-width:1.0;"/><text fill="#000000" font-family="sans-serif" font-size="11" lengthAdjust="spacing" textLength="109" x="267.5" y="473.0386">getLocation() : void</text><line style="stroke:#A80036;stroke-width:1.5;" x1="248.5" x2="343.5" y1="405.207" y2="405.207"/><text fill="#000000" font-family="sans-serif" font-size="11" lengthAdjust="spacing" textLength="81" x="343.5" y="408.5151">public method</text><line style="stroke:#A80036;stroke-width:1.5;" x1="424.5" x2="519.5" y1="405.207" y2="405.207"/><!--MD5=[60c9ed31c535bee25c55ce21b5b01399]
class Data--><rect codeLine="14" fill="#FEFECE" filter="url(#fq6mfd1kakerw)" height="86.4141" id="Data" style="stroke:#A80036;stroke-width:1.5;" width="139" x="247.5" y="192"/><ellipse cx="299.25" cy="208" fill="#ADD1B2" rx="11" ry="11" style="stroke:#A80036;stroke-width:1.0;"/><path d="M301.5938,203.6719 C300.6563,203.2344 300.0625,203.0938 299.1875,203.0938 C296.5625,203.0938 294.5625,205.1719 294.5625,207.8906 L294.5625,209.0156 C294.5625,211.5938 296.6719,213.4844 299.5625,213.4844 C300.7813,213.4844 301.9375,213.1875 302.6875,212.6406 C303.2656,212.2344 303.5938,211.7813 303.5938,211.3906 C303.5938,210.9375 303.2031,210.5469 302.7344,210.5469 C302.5156,210.5469 302.3125,210.625 302.125,210.8125 C301.6719,211.2969 301.6719,211.2969 301.4844,211.3906 C301.0625,211.6563 300.375,211.7813 299.6094,211.7813 C297.5625,211.7813 296.2656,210.6875 296.2656,208.9844 L296.2656,207.8906 C296.2656,206.1094 297.5156,204.7969 299.25,204.7969 C299.8281,204.7969 300.4375,204.9531 300.9063,205.2031 C301.3906,205.4844 301.5625,205.7031 301.6563,206.1094 C301.7188,206.5156 301.75,206.6406 301.8906,206.7656 C302.0313,206.9063 302.2656,207.0156 302.4844,207.0156 C302.75,207.0156 303.0156,206.875 303.1875,206.6563 C303.2969,206.5 303.3281,206.3125 303.3281,205.8906 L303.3281,204.4688 C303.3281,204.0313 303.3125,203.9063 303.2188,203.75 C303.0625,203.4844 302.7813,203.3438 302.4844,203.3438 C302.1875,203.3438 301.9844,203.4375 301.7656,203.75 L301.5938,203.6719 Z " fill="#000000"/><text fill="#000000" font-family="sans-serif" font-size="12" lengthAdjust="spacing" textLength="27" x="319.75" y="212.1543">Data</text><line style="stroke:#A80036;stroke-width:1.5;" x1="248.5" x2="385.5" y1="224" y2="224"/><ellipse cx="258.5" cy="235" rx="3" ry="3" style="stroke:#038048;stroke-width:1.0;fill:none;"/><text fill="#000000" font-family="sans-serif" font-size="11" lengthAdjust="spacing" textLength="113" x="267.5" y="238.2104">type: SpeicherType</text><ellipse cx="258.5" cy="247.8047" rx="3" ry="3" style="stroke:#038048;stroke-width:1.0;fill:none;"/><text fill="#000000" font-family="sans-serif" font-size="11" lengthAdjust="spacing" textLength="82" x="267.5" y="251.0151">data: unknown</text><ellipse cx="258.5" cy="260.6094" rx="3" ry="3" style="stroke:#038048;stroke-width:1.0;fill:none;"/><text fill="#000000" font-family="sans-serif" font-size="11" lengthAdjust="spacing" textLength="71" x="267.5" y="263.8198">config_id: int</text><line style="stroke:#A80036;stroke-width:1.5;" x1="248.5" x2="385.5" y1="270.4141" y2="270.4141"/><path d="M429.5,214.5 L429.5,230.5 L394.591,234.5 L429.5,238.5 L429.5,254.7656 A0,0 0 0 0 429.5,254.7656 L886.5,254.7656 A0,0 0 0 0 886.5,254.7656 L886.5,224.5 L876.5,214.5 L429.5,214.5 A0,0 0 0 0 429.5,214.5 " fill="#FBFB77" filter="url(#fq6mfd1kakerw)" style="stroke:#A80036;stroke-width:1.0;"/><path d="M876.5,214.5 L876.5,224.5 L886.5,224.5 L876.5,214.5 " fill="#FBFB77" style="stroke:#A80036;stroke-width:1.0;"/><text fill="#000000" font-family="sans-serif" font-size="13" lengthAdjust="spacing" textLength="432" x="435.5" y="231.5669">Beinhaltet dann die Struktur/Variablen für die verschiedenen Daten,</text><text fill="#000000" font-family="sans-serif" font-size="13" lengthAdjust="spacing" textLength="166" x="435.5" y="246.6997">die abgespeichert werden</text><!--MD5=[3f1fbb3f50ef8de7465f2cfcc577a181]
class SpeicherType--><rect codeLine="26" fill="#FEFECE" filter="url(#fq6mfd1kakerw)" height="86.4141" id="SpeicherType" style="stroke:#A80036;stroke-width:1.5;" width="116" x="260" y="41"/><ellipse cx="275" cy="57" fill="#EB937F" rx="11" ry="11" style="stroke:#A80036;stroke-width:1.0;"/><path d="M273.7969,57.875 L275.25,57.875 L275.25,57.9844 C275.25,58.3906 275.2813,58.5469 275.3594,58.7031 C275.5156,58.9531 275.7969,59.1094 276.0938,59.1094 C276.3438,59.1094 276.6094,58.9688 276.7656,58.75 C276.8906,58.5938 276.9219,58.4375 276.9219,57.9844 L276.9219,56.0625 C276.9219,55.9063 276.9219,55.8594 276.9063,55.7031 C276.8438,55.2344 276.5313,54.9219 276.0781,54.9219 C275.8281,54.9219 275.5625,55.0625 275.3906,55.2813 C275.2813,55.4531 275.25,55.6094 275.25,56.0625 L275.25,56.1875 L273.7969,56.1875 L273.7969,53.7813 L277.7813,53.7813 L277.7813,54.6406 C277.7813,55.0469 277.8125,55.2188 277.8906,55.375 C278.0625,55.625 278.3438,55.7813 278.625,55.7813 C278.8906,55.7813 279.1563,55.6406 279.3281,55.4219 C279.4375,55.25 279.4688,55.1094 279.4688,54.6406 L279.4688,52.0938 L271.8438,52.0938 C271.4063,52.0938 271.2813,52.1094 271.125,52.2031 C270.875,52.3594 270.7188,52.6563 270.7188,52.9375 C270.7188,53.2188 270.8594,53.4688 271.0781,53.6406 C271.2344,53.75 271.4219,53.7813 271.8438,53.7813 L272.0938,53.7813 L272.0938,60.2969 L271.8438,60.2969 C271.4375,60.2969 271.2813,60.3125 271.125,60.4219 C270.875,60.5938 270.7188,60.8594 270.7188,61.1563 C270.7188,61.4219 270.8594,61.6719 271.0781,61.8281 C271.2188,61.9531 271.4531,62 271.8438,62 L279.8438,62 L279.8438,59.4219 C279.8438,58.9844 279.8125,58.8438 279.7344,58.6875 C279.5625,58.4375 279.2813,58.2813 279,58.2813 C278.7344,58.2813 278.4688,58.3906 278.2969,58.6406 C278.1875,58.7969 278.1563,58.9375 278.1563,59.4219 L278.1563,60.2969 L273.7969,60.2969 L273.7969,57.875 Z " fill="#000000"/><text fill="#000000" font-family="sans-serif" font-size="12" lengthAdjust="spacing" textLength="84" x="289" y="61.1543">SpeicherType</text><line style="stroke:#A80036;stroke-width:1.5;" x1="261" x2="375" y1="73" y2="73"/><text fill="#000000" font-family="sans-serif" font-size="11" lengthAdjust="spacing" textLength="35" x="266" y="87.2104">ZOOM</text><text fill="#000000" font-family="sans-serif" font-size="11" lengthAdjust="spacing" textLength="78" x="266" y="100.0151">EYETRACKING</text><text fill="#000000" font-family="sans-serif" font-size="11" lengthAdjust="spacing" textLength="79" x="266" y="112.8198">CODECHARTS</text><line style="stroke:#A80036;stroke-width:1.5;" x1="261" x2="375" y1="119.4141" y2="119.4141"/><polygon fill="#FFFFFF" filter="url(#fq6mfd1kakerw)" points="628,560,686,560,693,582.2969,700,582.2969,700,612.5938,628,612.5938,628,560" style="stroke:#000000;stroke-width:1.5;"/><line style="stroke:#000000;stroke-width:1.5;" x1="628" x2="693" y1="582.2969" y2="582.2969"/><text fill="#000000" font-family="sans-serif" font-size="14" font-weight="bold" lengthAdjust="spacing" textLength="52" x="632" y="574.9951">Config</text><polygon fill="#FFFFFF" filter="url(#fq6mfd1kakerw)" points="479.5,560,578.5,560,585.5,582.2969,592.5,582.2969,592.5,612.5938,479.5,612.5938,479.5,560" style="stroke:#000000;stroke-width:1.5;"/><line style="stroke:#000000;stroke-width:1.5;" x1="479.5" x2="585.5" y1="582.2969" y2="582.2969"/><text fill="#000000" font-family="sans-serif" font-size="14" font-weight="bold" lengthAdjust="spacing" textLength="93" x="483.5" y="574.9951">CodeCharts</text><polygon fill="#FFFFFF" filter="url(#fq6mfd1kakerw)" points="181.5,560,276.5,560,283.5,582.2969,290.5,582.2969,290.5,612.5938,181.5,612.5938,181.5,560" style="stroke:#000000;stroke-width:1.5;"/><line style="stroke:#000000;stroke-width:1.5;" x1="181.5" x2="283.5" y1="582.2969" y2="582.2969"/><text fill="#000000" font-family="sans-serif" font-size="14" font-weight="bold" lengthAdjust="spacing" textLength="89" x="185.5" y="574.9951">ZoomMaps</text><polygon fill="#FFFFFF" filter="url(#fq6mfd1kakerw)" points="326,560,430,560,437,582.2969,444,582.2969,444,612.5938,326,612.5938,326,560" style="stroke:#000000;stroke-width:1.5;"/><line style="stroke:#000000;stroke-width:1.5;" x1="326" x2="437" y1="582.2969" y2="582.2969"/><text fill="#000000" font-family="sans-serif" font-size="14" font-weight="bold" lengthAdjust="spacing" textLength="98" x="330" y="574.9951">EyeTracking</text><polygon fill="#FFFFFF" filter="url(#fq6mfd1kakerw)" points="16,560,132,560,139,582.2969,146,582.2969,146,612.5938,16,612.5938,16,560" style="stroke:#000000;stroke-width:1.5;"/><line style="stroke:#000000;stroke-width:1.5;" x1="16" x2="139" y1="582.2969" y2="582.2969"/><text fill="#000000" font-family="sans-serif" font-size="14" font-weight="bold" lengthAdjust="spacing" textLength="110" x="20" y="574.9951">AnalyseClient</text><!--MD5=[b360b7f4d6f354023795a1e1eaefcf55]
link SpeicherType to Data--><path codeLine="33" d="M355.182,127.042 C391.754,171.26 435.717,234.5 388,234.5 " fill="none" id="SpeicherType-Data" style="stroke:#A80036;stroke-width:1.0;"/><!--MD5=[a78a7d238e72dddcc847ae6ac6950621]
link Data to SpeicherUtilities--><path codeLine="34" d="M334.429,281.022 C341.524,299.555 349.88,321.381 357.689,341.778 " fill="none" id="Data-SpeicherUtilities" style="stroke:#A80036;stroke-width:1.0;"/><!--MD5=[be61eeeb27be34ef4ae07c1a066952f1]
link SpeicherUtilities to Config--><path codeLine="37" d="M522,388.5 C605.477,388.5 644.771,506.346 658.291,559.7457 " fill="none" id="SpeicherUtilities-Config" style="stroke:#A80036;stroke-width:1.0;"/><polygon fill="#000000" points="651.8864,517.6542,655.2195,526.5616,659.8185,522.9013,651.8864,517.6542" style="stroke:#000000;stroke-width:1.0;"/><text fill="#000000" font-family="sans-serif" font-size="13" lengthAdjust="spacing" textLength="54" x="664" y="526.0669">Location</text><!--MD5=[49d6d0147e3b94482ce135b8a0be2af5]
link SpeicherUtilities to CodeCharts--><path codeLine="38" d="M522,442.5 C568.647,442.5 554.616,518.8026 543.663,559.9345 " fill="none" id="SpeicherUtilities-CodeCharts" style="stroke:#A80036;stroke-width:1.0;"/><polygon fill="#000000" points="557.093,516.6494,555.8436,526.0775,561.624,525.0112,557.093,516.6494" style="stroke:#000000;stroke-width:1.0;"/><text fill="#000000" font-family="sans-serif" font-size="13" lengthAdjust="spacing" textLength="31" x="567" y="526.0669">Data</text><!--MD5=[a5b1ade112710dc4f95c1b1987853db1]
link SpeicherUtilities to ZoomMaps--><path codeLine="39" d="M247,442.5 C200.438,442.5 216.03,518.8026 227.819,559.9345 " fill="none" id="SpeicherUtilities-ZoomMaps" style="stroke:#A80036;stroke-width:1.0;"/><polygon fill="#000000" points="226.806,516.6318,222.4475,525.0848,228.2484,526.0323,226.806,516.6318" style="stroke:#000000;stroke-width:1.0;"/><text fill="#000000" font-family="sans-serif" font-size="13" lengthAdjust="spacing" textLength="31" x="235" y="526.0669">Data</text><!--MD5=[389cbc08bfc7a7d01aa6d7f2a706f8d1]
link SpeicherUtilities to EyeTracking--><path codeLine="40" d="M522,442.5 C539.117,442.5 530.584,466.818 521,481 C500.936,510.688 475.832,491.724 447,513 C429.543,525.8822 413.717,544.5648 402.424,559.7382 " fill="none" id="SpeicherUtilities-EyeTracking" style="stroke:#A80036;stroke-width:1.0;"/><polygon fill="#000000" points="455.5703,518.0659,447.0541,522.2998,451.1691,526.4969,455.5703,518.0659" style="stroke:#000000;stroke-width:1.0;"/><text fill="#000000" font-family="sans-serif" font-size="13" lengthAdjust="spacing" textLength="31" x="461" y="526.0669">Data</text><!--MD5=[7237edb64a5a2ff692c4c4aff579e11a]
link SpeicherUtilities to AnalyseClient--><path codeLine="41" d="M263.811,481.123 C215.235,508.858 162.167,539.1569 125.784,559.9304 " fill="none" id="SpeicherUtilities-AnalyseClient" style="stroke:#A80036;stroke-width:1.0;"/><!--MD5=[528dafc43239398c060915bcb01501db]
@startuml
' === Speichermedium ===
package Speichermedium {
      ' SpeicherUtilities
      class SpeicherUtilities {
         - Location: String
         __public method__
         + deleteData(data_client_input: String) : void
         + searchData(data_client_input: String) : Data
         + saveData(data: Data) : void
         + setLocation(config_input: String) : void
         + getLocation() : void
     }

      class Data {
         + type: SpeicherType
         + data: unknown
         + config_id: int
      }

      note right of Data
         Beinhaltet dann die Struktur/Variablen für die verschiedenen Daten, 
         die abgespeichert werden
      end note

      ' SpeicherType
      enum SpeicherType {
         ZOOM
         EYETRACKING
         CODECHARTS
      }

      ' Interaktionen
      SpeicherType - - Data::type
      Data - - SpeicherUtilities

     ' Andere Module
     SpeicherUtilities::Location - - Config : < Location
     SpeicherUtilities::saveData - - CodeCharts : < Data
     SpeicherUtilities::saveData - - ZoomMaps : < Data
     SpeicherUtilities::saveData - - EyeTracking : < Data
     SpeicherUtilities - - AnalyseClient
}


' Blackboxen / Andere Module
 package Config {}

 package CodeCharts {}

 package ZoomMaps {}

 package EyeTracking {}

 package AnalyseClient {}
@enduml

@startuml
package Speichermedium {
      class SpeicherUtilities {
         - Location: String
         __public method__
         + deleteData(data_client_input: String) : void
         + searchData(data_client_input: String) : Data
         + saveData(data: Data) : void
         + setLocation(config_input: String) : void
         + getLocation() : void
     }

      class Data {
         + type: SpeicherType
         + data: unknown
         + config_id: int
      }

      note right of Data
         Beinhaltet dann die Struktur/Variablen für die verschiedenen Daten, 
         die abgespeichert werden
      end note

      enum SpeicherType {
         ZOOM
         EYETRACKING
         CODECHARTS
      }

      SpeicherType - - Data::type
      Data - - SpeicherUtilities

     SpeicherUtilities::Location - - Config : < Location
     SpeicherUtilities::saveData - - CodeCharts : < Data
     SpeicherUtilities::saveData - - ZoomMaps : < Data
     SpeicherUtilities::saveData - - EyeTracking : < Data
     SpeicherUtilities - - AnalyseClient
}


 package Config {}

 package CodeCharts {}

 package ZoomMaps {}

 package EyeTracking {}

 package AnalyseClient {}
@enduml

PlantUML version 1.2021.14beta3(Unknown compile time)
(GPL source distribution)
Java Runtime: Java(TM) SE Runtime Environment
JVM: Java HotSpot(TM) 64-Bit Server VM
Default Encoding: UTF-8
Language: en
Country: US
--></g></svg>