<?xml version="1.0" encoding="UTF-8" standalone="no"?><svg xmlns="http://www.w3.org/2000/svg" xmlns:xlink="http://www.w3.org/1999/xlink" contentScriptType="application/ecmascript" contentStyleType="text/css" height="376px" preserveAspectRatio="none" style="width:1405px;height:376px;background:#FFFFFF;" version="1.1" viewBox="0 0 1405 376" width="1405px" zoomAndPan="magnify"><defs><filter height="300%" id="fasl47fexrb4r" width="300%" x="-1" y="-1"><feGaussianBlur result="blurOut" stdDeviation="2.0"/><feColorMatrix in="blurOut" result="blurOut2" type="matrix" values="0 0 0 0 0 0 0 0 0 0 0 0 0 0 0 0 0 0 .4 0"/><feOffset dx="4.0" dy="4.0" in="blurOut2" result="blurOut3"/><feBlend in="SourceGraphic" in2="blurOut3" mode="normal"/></filter></defs><g><!--MD5=[3a4ecbc1d133d64cf2ebb2949f5932ed]
cluster Speichermedium--><polygon fill="#FFFFFF" filter="url(#fasl47fexrb4r)" points="844,6,983,6,990,28.2969,1186,28.2969,1186,196,844,196,844,6" style="stroke:#000000;stroke-width:1.5;"/><line style="stroke:#000000;stroke-width:1.5;" x1="844" x2="990" y1="28.2969" y2="28.2969"/><text fill="#000000" font-family="sans-serif" font-size="14" font-weight="bold" lengthAdjust="spacing" textLength="133" x="848" y="20.9951">Speichermedium</text><!--MD5=[a55135535b5c544b99c33b17428c3b14]
cluster Util--><polygon fill="#FFFFFF" filter="url(#fasl47fexrb4r)" points="16,32.5,51,32.5,58,54.7969,686,54.7969,686,369,16,369,16,32.5" style="stroke:#000000;stroke-width:1.5;"/><line style="stroke:#000000;stroke-width:1.5;" x1="16" x2="58" y1="54.7969" y2="54.7969"/><text fill="#000000" font-family="sans-serif" font-size="14" font-weight="bold" lengthAdjust="spacing" textLength="29" x="20" y="47.4951">Util</text><!--MD5=[827fa8af465d414750422ffafb762a0b]
class SpeicherUtilities--><rect codeLine="4" fill="#FEFECE" filter="url(#fasl47fexrb4r)" height="133.6328" id="SpeicherUtilities" style="stroke:#A80036;stroke-width:1.5;" width="294" x="868" y="45"/><ellipse cx="961.75" cy="61" fill="#ADD1B2" rx="11" ry="11" style="stroke:#A80036;stroke-width:1.0;"/><path d="M964.0938,56.6719 C963.1563,56.2344 962.5625,56.0938 961.6875,56.0938 C959.0625,56.0938 957.0625,58.1719 957.0625,60.8906 L957.0625,62.0156 C957.0625,64.5938 959.1719,66.4844 962.0625,66.4844 C963.2813,66.4844 964.4375,66.1875 965.1875,65.6406 C965.7656,65.2344 966.0938,64.7813 966.0938,64.3906 C966.0938,63.9375 965.7031,63.5469 965.2344,63.5469 C965.0156,63.5469 964.8125,63.625 964.625,63.8125 C964.1719,64.2969 964.1719,64.2969 963.9844,64.3906 C963.5625,64.6563 962.875,64.7813 962.1094,64.7813 C960.0625,64.7813 958.7656,63.6875 958.7656,61.9844 L958.7656,60.8906 C958.7656,59.1094 960.0156,57.7969 961.75,57.7969 C962.3281,57.7969 962.9375,57.9531 963.4063,58.2031 C963.8906,58.4844 964.0625,58.7031 964.1563,59.1094 C964.2188,59.5156 964.25,59.6406 964.3906,59.7656 C964.5313,59.9063 964.7656,60.0156 964.9844,60.0156 C965.25,60.0156 965.5156,59.875 965.6875,59.6563 C965.7969,59.5 965.8281,59.3125 965.8281,58.8906 L965.8281,57.4688 C965.8281,57.0313 965.8125,56.9063 965.7188,56.75 C965.5625,56.4844 965.2813,56.3438 964.9844,56.3438 C964.6875,56.3438 964.4844,56.4375 964.2656,56.75 L964.0938,56.6719 Z " fill="#000000"/><text fill="#000000" font-family="sans-serif" font-size="12" lengthAdjust="spacing" textLength="98" x="982.25" y="65.1543">SpeicherUtilities</text><line style="stroke:#A80036;stroke-width:1.5;" x1="869" x2="1161" y1="77" y2="77"/><rect fill="none" height="6" style="stroke:#C82930;stroke-width:1.0;" width="6" x="876" y="85"/><text fill="#000000" font-family="sans-serif" font-size="11" lengthAdjust="spacing" textLength="87" x="888" y="91.2104">Location: String</text><ellipse cx="879" cy="117.6094" fill="#84BE84" rx="3" ry="3" style="stroke:#038048;stroke-width:1.0;"/><text fill="#000000" font-family="sans-serif" font-size="11" lengthAdjust="spacing" textLength="244" x="888" y="120.8198">deleteData(data_client_input: String) : void</text><ellipse cx="879" cy="130.4141" fill="#84BE84" rx="3" ry="3" style="stroke:#038048;stroke-width:1.0;"/><text fill="#000000" font-family="sans-serif" font-size="11" lengthAdjust="spacing" textLength="268" x="888" y="133.6245">searchData(data_client_input: String) : Util.Data</text><ellipse cx="879" cy="143.2188" fill="#84BE84" rx="3" ry="3" style="stroke:#038048;stroke-width:1.0;"/><text fill="#000000" font-family="sans-serif" font-size="11" lengthAdjust="spacing" textLength="178" x="888" y="146.4292">saveData(data: Util.Data) : void</text><ellipse cx="879" cy="156.0234" fill="#84BE84" rx="3" ry="3" style="stroke:#038048;stroke-width:1.0;"/><text fill="#000000" font-family="sans-serif" font-size="11" lengthAdjust="spacing" textLength="216" x="888" y="159.2339">setLocation(config_input: String) : void</text><ellipse cx="879" cy="168.8281" fill="#84BE84" rx="3" ry="3" style="stroke:#038048;stroke-width:1.0;"/><text fill="#000000" font-family="sans-serif" font-size="11" lengthAdjust="spacing" textLength="109" x="888" y="172.0386">getLocation() : void</text><line style="stroke:#A80036;stroke-width:1.5;" x1="869" x2="974.5" y1="104.207" y2="104.207"/><text fill="#000000" font-family="sans-serif" font-size="11" lengthAdjust="spacing" textLength="81" x="974.5" y="107.5151">public method</text><line style="stroke:#A80036;stroke-width:1.5;" x1="1055.5" x2="1161" y1="104.207" y2="104.207"/><!--MD5=[60c9ed31c535bee25c55ce21b5b01399]
class Data--><rect codeLine="26" fill="#FEFECE" filter="url(#fasl47fexrb4r)" height="86.4141" id="Data" style="stroke:#A80036;stroke-width:1.5;" width="129" x="40.5" y="263"/><ellipse cx="55.5" cy="279" fill="#ADD1B2" rx="11" ry="11" style="stroke:#A80036;stroke-width:1.0;"/><path d="M57.8438,274.6719 C56.9063,274.2344 56.3125,274.0938 55.4375,274.0938 C52.8125,274.0938 50.8125,276.1719 50.8125,278.8906 L50.8125,280.0156 C50.8125,282.5938 52.9219,284.4844 55.8125,284.4844 C57.0313,284.4844 58.1875,284.1875 58.9375,283.6406 C59.5156,283.2344 59.8438,282.7813 59.8438,282.3906 C59.8438,281.9375 59.4531,281.5469 58.9844,281.5469 C58.7656,281.5469 58.5625,281.625 58.375,281.8125 C57.9219,282.2969 57.9219,282.2969 57.7344,282.3906 C57.3125,282.6563 56.625,282.7813 55.8594,282.7813 C53.8125,282.7813 52.5156,281.6875 52.5156,279.9844 L52.5156,278.8906 C52.5156,277.1094 53.7656,275.7969 55.5,275.7969 C56.0781,275.7969 56.6875,275.9531 57.1563,276.2031 C57.6406,276.4844 57.8125,276.7031 57.9063,277.1094 C57.9688,277.5156 58,277.6406 58.1406,277.7656 C58.2813,277.9063 58.5156,278.0156 58.7344,278.0156 C59,278.0156 59.2656,277.875 59.4375,277.6563 C59.5469,277.5 59.5781,277.3125 59.5781,276.8906 L59.5781,275.4688 C59.5781,275.0313 59.5625,274.9063 59.4688,274.75 C59.3125,274.4844 59.0313,274.3438 58.7344,274.3438 C58.4375,274.3438 58.2344,274.4375 58.0156,274.75 L57.8438,274.6719 Z " fill="#000000"/><text fill="#000000" font-family="sans-serif" font-size="12" lengthAdjust="spacing" textLength="27" x="69.5" y="283.1543">Data</text><rect fill="#FFFFFF" height="15.9688" style="stroke:#000000;stroke-width:1.0;stroke-dasharray:2.0,2.0;" width="68" x="104.5" y="260"/><text fill="#000000" font-family="sans-serif" font-size="12" font-style="italic" lengthAdjust="spacing" textLength="66" x="105.5" y="272.1387">t: ToolType</text><line style="stroke:#A80036;stroke-width:1.5;" x1="41.5" x2="168.5" y1="295" y2="295"/><ellipse cx="51.5" cy="306" rx="3" ry="3" style="stroke:#038048;stroke-width:1.0;fill:none;"/><text fill="#000000" font-family="sans-serif" font-size="11" lengthAdjust="spacing" textLength="64" x="60.5" y="309.2104">t: ToolType</text><ellipse cx="51.5" cy="318.8047" rx="3" ry="3" style="stroke:#038048;stroke-width:1.0;fill:none;"/><text fill="#000000" font-family="sans-serif" font-size="11" lengthAdjust="spacing" textLength="82" x="60.5" y="322.0151">data: unknown</text><ellipse cx="51.5" cy="331.6094" rx="3" ry="3" style="stroke:#038048;stroke-width:1.0;fill:none;"/><text fill="#000000" font-family="sans-serif" font-size="11" lengthAdjust="spacing" textLength="71" x="60.5" y="334.8198">config_id: int</text><line style="stroke:#A80036;stroke-width:1.5;" x1="41.5" x2="168.5" y1="341.4141" y2="341.4141"/><path d="M212.5,286 L212.5,302 L177.516,306 L212.5,310 L212.5,326.2656 A0,0 0 0 0 212.5,326.2656 L669.5,326.2656 A0,0 0 0 0 669.5,326.2656 L669.5,296 L659.5,286 L212.5,286 A0,0 0 0 0 212.5,286 " fill="#FBFB77" filter="url(#fasl47fexrb4r)" style="stroke:#A80036;stroke-width:1.0;"/><path d="M659.5,286 L659.5,296 L669.5,296 L659.5,286 " fill="#FBFB77" style="stroke:#A80036;stroke-width:1.0;"/><text fill="#000000" font-family="sans-serif" font-size="13" lengthAdjust="spacing" textLength="432" x="218.5" y="303.0669">Beinhaltet dann die Struktur/Variablen für die verschiedenen Daten,</text><text fill="#000000" font-family="sans-serif" font-size="13" lengthAdjust="spacing" textLength="166" x="218.5" y="318.1997">die abgespeichert werden</text><!--MD5=[5c39798b83ace9e75333b1274a725e6c]
class ToolType--><rect codeLine="43" fill="#FEFECE" filter="url(#fasl47fexrb4r)" height="86.4141" id="ToolType" style="stroke:#A80036;stroke-width:1.5;" width="91" x="59.5" y="67.5"/><ellipse cx="75.85" cy="83.5" fill="#EB937F" rx="11" ry="11" style="stroke:#A80036;stroke-width:1.0;"/><path d="M74.6469,84.375 L76.1,84.375 L76.1,84.4844 C76.1,84.8906 76.1313,85.0469 76.2094,85.2031 C76.3656,85.4531 76.6469,85.6094 76.9438,85.6094 C77.1938,85.6094 77.4594,85.4688 77.6156,85.25 C77.7406,85.0938 77.7719,84.9375 77.7719,84.4844 L77.7719,82.5625 C77.7719,82.4063 77.7719,82.3594 77.7563,82.2031 C77.6938,81.7344 77.3813,81.4219 76.9281,81.4219 C76.6781,81.4219 76.4125,81.5625 76.2406,81.7813 C76.1313,81.9531 76.1,82.1094 76.1,82.5625 L76.1,82.6875 L74.6469,82.6875 L74.6469,80.2813 L78.6313,80.2813 L78.6313,81.1406 C78.6313,81.5469 78.6625,81.7188 78.7406,81.875 C78.9125,82.125 79.1938,82.2813 79.475,82.2813 C79.7406,82.2813 80.0063,82.1406 80.1781,81.9219 C80.2875,81.75 80.3188,81.6094 80.3188,81.1406 L80.3188,78.5938 L72.6938,78.5938 C72.2563,78.5938 72.1313,78.6094 71.975,78.7031 C71.725,78.8594 71.5688,79.1563 71.5688,79.4375 C71.5688,79.7188 71.7094,79.9688 71.9281,80.1406 C72.0844,80.25 72.2719,80.2813 72.6938,80.2813 L72.9438,80.2813 L72.9438,86.7969 L72.6938,86.7969 C72.2875,86.7969 72.1313,86.8125 71.975,86.9219 C71.725,87.0938 71.5688,87.3594 71.5688,87.6563 C71.5688,87.9219 71.7094,88.1719 71.9281,88.3281 C72.0688,88.4531 72.3031,88.5 72.6938,88.5 L80.6938,88.5 L80.6938,85.9219 C80.6938,85.4844 80.6625,85.3438 80.5844,85.1875 C80.4125,84.9375 80.1313,84.7813 79.85,84.7813 C79.5844,84.7813 79.3188,84.8906 79.1469,85.1406 C79.0375,85.2969 79.0063,85.4375 79.0063,85.9219 L79.0063,86.7969 L74.6469,86.7969 L74.6469,84.375 Z " fill="#000000"/><text fill="#000000" font-family="sans-serif" font-size="12" lengthAdjust="spacing" textLength="56" x="90.15" y="87.6543">ToolType</text><line style="stroke:#A80036;stroke-width:1.5;" x1="60.5" x2="149.5" y1="99.5" y2="99.5"/><text fill="#000000" font-family="sans-serif" font-size="11" lengthAdjust="spacing" textLength="35" x="65.5" y="113.7104">ZOOM</text><text fill="#000000" font-family="sans-serif" font-size="11" lengthAdjust="spacing" textLength="78" x="65.5" y="126.5151">EYETRACKING</text><text fill="#000000" font-family="sans-serif" font-size="11" lengthAdjust="spacing" textLength="79" x="65.5" y="139.3198">CODECHARTS</text><line style="stroke:#A80036;stroke-width:1.5;" x1="60.5" x2="149.5" y1="145.9141" y2="145.9141"/><polygon fill="#FFFFFF" filter="url(#fasl47fexrb4r)" points="705,279.5,763,279.5,770,301.7969,777,301.7969,777,332.0938,705,332.0938,705,279.5" style="stroke:#000000;stroke-width:1.5;"/><line style="stroke:#000000;stroke-width:1.5;" x1="705" x2="770" y1="301.7969" y2="301.7969"/><text fill="#000000" font-family="sans-serif" font-size="14" font-weight="bold" lengthAdjust="spacing" textLength="52" x="709" y="294.4951">Config</text><polygon fill="#FFFFFF" filter="url(#fasl47fexrb4r)" points="812.5,279.5,911.5,279.5,918.5,301.7969,925.5,301.7969,925.5,332.0938,812.5,332.0938,812.5,279.5" style="stroke:#000000;stroke-width:1.5;"/><line style="stroke:#000000;stroke-width:1.5;" x1="812.5" x2="918.5" y1="301.7969" y2="301.7969"/><text fill="#000000" font-family="sans-serif" font-size="14" font-weight="bold" lengthAdjust="spacing" textLength="93" x="816.5" y="294.4951">CodeCharts</text><polygon fill="#FFFFFF" filter="url(#fasl47fexrb4r)" points="960.5,279.5,1055.5,279.5,1062.5,301.7969,1069.5,301.7969,1069.5,332.0938,960.5,332.0938,960.5,279.5" style="stroke:#000000;stroke-width:1.5;"/><line style="stroke:#000000;stroke-width:1.5;" x1="960.5" x2="1062.5" y1="301.7969" y2="301.7969"/><text fill="#000000" font-family="sans-serif" font-size="14" font-weight="bold" lengthAdjust="spacing" textLength="89" x="964.5" y="294.4951">ZoomMaps</text><polygon fill="#FFFFFF" filter="url(#fasl47fexrb4r)" points="1105,279.5,1209,279.5,1216,301.7969,1223,301.7969,1223,332.0938,1105,332.0938,1105,279.5" style="stroke:#000000;stroke-width:1.5;"/><line style="stroke:#000000;stroke-width:1.5;" x1="1105" x2="1216" y1="301.7969" y2="301.7969"/><text fill="#000000" font-family="sans-serif" font-size="14" font-weight="bold" lengthAdjust="spacing" textLength="98" x="1109" y="294.4951">EyeTracking</text><polygon fill="#FFFFFF" filter="url(#fasl47fexrb4r)" points="1258,279.5,1374,279.5,1381,301.7969,1388,301.7969,1388,332.0938,1258,332.0938,1258,279.5" style="stroke:#000000;stroke-width:1.5;"/><line style="stroke:#000000;stroke-width:1.5;" x1="1258" x2="1381" y1="301.7969" y2="301.7969"/><text fill="#000000" font-family="sans-serif" font-size="14" font-weight="bold" lengthAdjust="spacing" textLength="110" x="1262" y="294.4951">AnalyseClient</text><!--MD5=[be61eeeb27be34ef4ae07c1a066952f1]
link SpeicherUtilities to Config--><path codeLine="17" d="M867,87.5 C779.286,87.5 751.635,221.582 743.803,279.196 " fill="none" id="SpeicherUtilities-Config" style="stroke:#A80036;stroke-width:1.0;"/><polygon fill="#000000" points="765.7032,216.3602,758.3407,222.3804,763.2854,225.5583,765.7032,216.3602" style="stroke:#000000;stroke-width:1.0;"/><text fill="#000000" font-family="sans-serif" font-size="13" lengthAdjust="spacing" textLength="54" x="772" y="225.0669">Location</text><!--MD5=[49d6d0147e3b94482ce135b8a0be2af5]
link SpeicherUtilities to CodeCharts--><path codeLine="18" d="M867,141.5 C812.496,141.5 840.873,233.469 858.468,279.453 " fill="none" id="SpeicherUtilities-CodeCharts" style="stroke:#A80036;stroke-width:1.0;"/><polygon fill="#000000" points="847.3086,215.5759,843.817,224.4224,849.6836,224.7852,847.3086,215.5759" style="stroke:#000000;stroke-width:1.0;"/><text fill="#000000" font-family="sans-serif" font-size="13" lengthAdjust="spacing" textLength="31" x="856" y="225.0669">Data</text><!--MD5=[a5b1ade112710dc4f95c1b1987853db1]
link SpeicherUtilities to ZoomMaps--><path codeLine="19" d="M1163,141.5 C1180.12,141.5 1171.98,166.09 1162,180 C1137.99,213.48 1107.16,186.25 1075,212 C1052.65,229.894 1035.99,258.463 1025.97,279.219 " fill="none" id="SpeicherUtilities-ZoomMaps" style="stroke:#A80036;stroke-width:1.0;"/><polygon fill="#000000" points="1083.5267,217.022,1075.0635,221.361,1079.2302,225.5068,1083.5267,217.022" style="stroke:#000000;stroke-width:1.0;"/><text fill="#000000" font-family="sans-serif" font-size="13" lengthAdjust="spacing" textLength="31" x="1089" y="225.0669">Data</text><!--MD5=[389cbc08bfc7a7d01aa6d7f2a706f8d1]
link SpeicherUtilities to EyeTracking--><path codeLine="20" d="M1163,141.5 C1217.5,141.5 1190.81,233.469 1174.06,279.453 " fill="none" id="SpeicherUtilities-EyeTracking" style="stroke:#A80036;stroke-width:1.0;"/><polygon fill="#000000" points="1197.6004,215.5824,1195.3937,224.8334,1201.2528,224.3637,1197.6004,215.5824" style="stroke:#000000;stroke-width:1.0;"/><text fill="#000000" font-family="sans-serif" font-size="13" lengthAdjust="spacing" textLength="31" x="1207" y="225.0669">Data</text><!--MD5=[7237edb64a5a2ff692c4c4aff579e11a]
link SpeicherUtilities to AnalyseClient--><path codeLine="21" d="M1170.19,166.392 C1197.07,179.276 1223.8,194.466 1247,212 C1271.62,230.608 1293.17,258.784 1306.98,279.245 " fill="none" id="SpeicherUtilities-AnalyseClient" style="stroke:#A80036;stroke-width:1.0;"/><!--MD5=[b0bc53235038902673d53aaf3a34627f]
link ToolType to Data--><path codeLine="40" d="M105,153.964 C105,185.003 105,227.063 105,258.916 " fill="none" id="ToolType-Data" style="stroke:#A80036;stroke-width:1.0;"/><!--MD5=[e08786f8322bdd74eabd6f54fdeca176]
@startuml
' === Speichermedium ===
package Speichermedium {
      ' SpeicherUtilities
      class SpeicherUtilities {
         - Location: String
         __public method__
         + deleteData(data_client_input: String) : void
         + searchData(data_client_input: String) : Util.Data
         + saveData(data: Util.Data) : void
         + setLocation(config_input: String) : void
         + getLocation() : void
     }

      

     ' Andere Module
     SpeicherUtilities::Location - - Config : < Location
     SpeicherUtilities::saveData - - CodeCharts : < Data
     SpeicherUtilities::saveData - - ZoomMaps : < Data
     SpeicherUtilities::saveData - - EyeTracking : < Data
     SpeicherUtilities - - AnalyseClient
}

package Util {

class Data<t: ToolType> {
         + t: ToolType
         + data: unknown
         + config_id: int
     }

note right of Data
   Beinhaltet dann die Struktur/Variablen für die verschiedenen Daten, 
   die abgespeichert werden
end note

      

' Interaktionen
ToolType - - Data::type

' ToolType
      enum ToolType {
       ZOOM
       EYETRACKING
       CODECHARTS
     }

}
' Blackboxen / Andere Module
 package Config {}

 package CodeCharts {}

 package ZoomMaps {}

 package EyeTracking {}

 package AnalyseClient {}
@enduml

@startuml
package Speichermedium {
      class SpeicherUtilities {
         - Location: String
         __public method__
         + deleteData(data_client_input: String) : void
         + searchData(data_client_input: String) : Util.Data
         + saveData(data: Util.Data) : void
         + setLocation(config_input: String) : void
         + getLocation() : void
     }

      

     SpeicherUtilities::Location - - Config : < Location
     SpeicherUtilities::saveData - - CodeCharts : < Data
     SpeicherUtilities::saveData - - ZoomMaps : < Data
     SpeicherUtilities::saveData - - EyeTracking : < Data
     SpeicherUtilities - - AnalyseClient
}

package Util {

class Data<t: ToolType> {
         + t: ToolType
         + data: unknown
         + config_id: int
     }

note right of Data
   Beinhaltet dann die Struktur/Variablen für die verschiedenen Daten, 
   die abgespeichert werden
end note

      

ToolType - - Data::type

      enum ToolType {
       ZOOM
       EYETRACKING
       CODECHARTS
     }

}
 package Config {}

 package CodeCharts {}

 package ZoomMaps {}

 package EyeTracking {}

 package AnalyseClient {}
@enduml

PlantUML version 1.2021.14beta4(Unknown compile time)
(GPL source distribution)
Java Runtime: Java(TM) SE Runtime Environment
JVM: Java HotSpot(TM) 64-Bit Server VM
Default Encoding: UTF-8
Language: en
Country: US
--></g></svg>