<?xml version="1.0" encoding="UTF-8" standalone="no"?><svg xmlns="http://www.w3.org/2000/svg" xmlns:xlink="http://www.w3.org/1999/xlink" contentScriptType="application/ecmascript" contentStyleType="text/css" height="604px" preserveAspectRatio="none" style="width:1081px;height:604px;background:#FFFFFF;" version="1.1" viewBox="0 0 1081 604" width="1081px" zoomAndPan="magnify"><defs><filter height="300%" id="f16ygh2bkbu2zy" width="300%" x="-1" y="-1"><feGaussianBlur result="blurOut" stdDeviation="2.0"/><feColorMatrix in="blurOut" result="blurOut2" type="matrix" values="0 0 0 0 0 0 0 0 0 0 0 0 0 0 0 0 0 0 .4 0"/><feOffset dx="4.0" dy="4.0" in="blurOut2" result="blurOut3"/><feBlend in="SourceGraphic" in2="blurOut3" mode="normal"/></filter></defs><g><!--MD5=[3a4ecbc1d133d64cf2ebb2949f5932ed]
cluster Speichermedium--><polygon fill="#FFFFFF" filter="url(#f16ygh2bkbu2zy)" points="384.5,6,523.5,6,530.5,28.2969,1064.5,28.2969,1064.5,482,384.5,482,384.5,6" style="stroke:#000000;stroke-width:1.5;"/><line style="stroke:#000000;stroke-width:1.5;" x1="384.5" x2="530.5" y1="28.2969" y2="28.2969"/><text fill="#000000" font-family="sans-serif" font-size="14" font-weight="bold" lengthAdjust="spacing" textLength="133" x="388.5" y="20.9951">Speichermedium</text><!--MD5=[bc3dbb82364292794515469e64288198]
class SpeicherUtilitys--><rect codeLine="4" fill="#FEFECE" filter="url(#f16ygh2bkbu2zy)" height="133.6328" id="SpeicherUtilitys" style="stroke:#A80036;stroke-width:1.5;" width="273" x="409" y="333"/><ellipse cx="494.25" cy="349" fill="#ADD1B2" rx="11" ry="11" style="stroke:#A80036;stroke-width:1.0;"/><path d="M496.5938,344.6719 C495.6563,344.2344 495.0625,344.0938 494.1875,344.0938 C491.5625,344.0938 489.5625,346.1719 489.5625,348.8906 L489.5625,350.0156 C489.5625,352.5938 491.6719,354.4844 494.5625,354.4844 C495.7813,354.4844 496.9375,354.1875 497.6875,353.6406 C498.2656,353.2344 498.5938,352.7813 498.5938,352.3906 C498.5938,351.9375 498.2031,351.5469 497.7344,351.5469 C497.5156,351.5469 497.3125,351.625 497.125,351.8125 C496.6719,352.2969 496.6719,352.2969 496.4844,352.3906 C496.0625,352.6563 495.375,352.7813 494.6094,352.7813 C492.5625,352.7813 491.2656,351.6875 491.2656,349.9844 L491.2656,348.8906 C491.2656,347.1094 492.5156,345.7969 494.25,345.7969 C494.8281,345.7969 495.4375,345.9531 495.9063,346.2031 C496.3906,346.4844 496.5625,346.7031 496.6563,347.1094 C496.7188,347.5156 496.75,347.6406 496.8906,347.7656 C497.0313,347.9063 497.2656,348.0156 497.4844,348.0156 C497.75,348.0156 498.0156,347.875 498.1875,347.6563 C498.2969,347.5 498.3281,347.3125 498.3281,346.8906 L498.3281,345.4688 C498.3281,345.0313 498.3125,344.9063 498.2188,344.75 C498.0625,344.4844 497.7813,344.3438 497.4844,344.3438 C497.1875,344.3438 496.9844,344.4375 496.7656,344.75 L496.5938,344.6719 Z " fill="#000000"/><text fill="#000000" font-family="sans-serif" font-size="12" lengthAdjust="spacing" textLength="94" x="514.75" y="353.1543">SpeicherUtilitys</text><line style="stroke:#A80036;stroke-width:1.5;" x1="410" x2="681" y1="365" y2="365"/><rect fill="none" height="6" style="stroke:#C82930;stroke-width:1.0;" width="6" x="417" y="373"/><text fill="#000000" font-family="sans-serif" font-size="11" lengthAdjust="spacing" textLength="87" x="429" y="379.2104">Location: String</text><ellipse cx="420" cy="405.6094" fill="#84BE84" rx="3" ry="3" style="stroke:#038048;stroke-width:1.0;"/><text fill="#000000" font-family="sans-serif" font-size="11" lengthAdjust="spacing" textLength="244" x="429" y="408.8198">deleteData(data_client_input: String) : void</text><ellipse cx="420" cy="418.4141" fill="#84BE84" rx="3" ry="3" style="stroke:#038048;stroke-width:1.0;"/><text fill="#000000" font-family="sans-serif" font-size="11" lengthAdjust="spacing" textLength="247" x="429" y="421.6245">searchData(data_client_input: String) : Data</text><ellipse cx="420" cy="431.2188" fill="#84BE84" rx="3" ry="3" style="stroke:#038048;stroke-width:1.0;"/><text fill="#000000" font-family="sans-serif" font-size="11" lengthAdjust="spacing" textLength="157" x="429" y="434.4292">saveData(data: Data) : void</text><ellipse cx="420" cy="444.0234" fill="#84BE84" rx="3" ry="3" style="stroke:#038048;stroke-width:1.0;"/><text fill="#000000" font-family="sans-serif" font-size="11" lengthAdjust="spacing" textLength="216" x="429" y="447.2339">setLocation(config_input: String) : void</text><ellipse cx="420" cy="456.8281" fill="#84BE84" rx="3" ry="3" style="stroke:#038048;stroke-width:1.0;"/><text fill="#000000" font-family="sans-serif" font-size="11" lengthAdjust="spacing" textLength="109" x="429" y="460.0386">getLocation() : void</text><line style="stroke:#A80036;stroke-width:1.5;" x1="410" x2="505" y1="392.207" y2="392.207"/><text fill="#000000" font-family="sans-serif" font-size="11" lengthAdjust="spacing" textLength="81" x="505" y="395.5151">public method</text><line style="stroke:#A80036;stroke-width:1.5;" x1="586" x2="681" y1="392.207" y2="392.207"/><!--MD5=[60c9ed31c535bee25c55ce21b5b01399]
class Data--><rect codeLine="14" fill="#FEFECE" filter="url(#f16ygh2bkbu2zy)" height="73.6094" id="Data" style="stroke:#A80036;stroke-width:1.5;" width="139" x="409" y="192"/><ellipse cx="460.25" cy="208" fill="#B4A7E5" rx="11" ry="11" style="stroke:#A80036;stroke-width:1.0;"/><path d="M461.2031,204.7813 L462.9219,204.7813 C463.3125,204.7813 463.5,204.75 463.625,204.6719 C463.8906,204.5156 464.0313,204.2344 464.0313,203.9375 C464.0313,203.6719 463.9219,203.4063 463.6875,203.2344 C463.5156,203.125 463.375,203.0938 462.9219,203.0938 L457.7813,203.0938 C457.3438,203.0938 457.2188,203.1094 457.0625,203.2031 C456.8125,203.3594 456.6563,203.6563 456.6563,203.9375 C456.6563,204.2188 456.7969,204.4688 457.0156,204.6406 C457.1719,204.75 457.3594,204.7813 457.7813,204.7813 L459.5,204.7813 L459.5,211.2969 L457.7813,211.2969 C457.3438,211.2969 457.2188,211.3125 457.0625,211.4219 C456.8125,211.5781 456.6563,211.8594 456.6563,212.1563 C456.6563,212.4063 456.7969,212.6719 457.0156,212.8281 C457.1719,212.9531 457.375,213 457.7813,213 L462.9219,213 C463.6719,213 464.0313,212.7188 464.0313,212.1563 C464.0313,211.875 463.9219,211.625 463.6875,211.4531 C463.5156,211.3281 463.375,211.2969 462.9219,211.2969 L461.2031,211.2969 L461.2031,204.7813 Z " fill="#000000"/><text fill="#000000" font-family="sans-serif" font-size="12" font-style="italic" lengthAdjust="spacing" textLength="28" x="480.75" y="212.1543">Data</text><line style="stroke:#A80036;stroke-width:1.5;" x1="410" x2="547" y1="224" y2="224"/><ellipse cx="420" cy="235" rx="3" ry="3" style="stroke:#038048;stroke-width:1.0;fill:none;"/><text fill="#000000" font-family="sans-serif" font-size="11" lengthAdjust="spacing" textLength="113" x="429" y="238.2104">type: SpeicherType</text><ellipse cx="420" cy="247.8047" rx="3" ry="3" style="stroke:#038048;stroke-width:1.0;fill:none;"/><text fill="#000000" font-family="sans-serif" font-size="11" lengthAdjust="spacing" textLength="71" x="429" y="251.0151">config_id: int</text><line style="stroke:#A80036;stroke-width:1.5;" x1="410" x2="547" y1="257.6094" y2="257.6094"/><path d="M591,208 L591,224 L556.091,228 L591,232 L591,248.2656 A0,0 0 0 0 591,248.2656 L1048,248.2656 A0,0 0 0 0 1048,248.2656 L1048,218 L1038,208 L591,208 A0,0 0 0 0 591,208 " fill="#FBFB77" filter="url(#f16ygh2bkbu2zy)" style="stroke:#A80036;stroke-width:1.0;"/><path d="M1038,208 L1038,218 L1048,218 L1038,208 " fill="#FBFB77" style="stroke:#A80036;stroke-width:1.0;"/><text fill="#000000" font-family="sans-serif" font-size="13" lengthAdjust="spacing" textLength="432" x="597" y="225.0669">Beinhaltet dann die Struktur/Variablen für die verschiedenen Daten,</text><text fill="#000000" font-family="sans-serif" font-size="13" lengthAdjust="spacing" textLength="166" x="597" y="240.1997">die abgespeichert werden</text><!--MD5=[3f1fbb3f50ef8de7465f2cfcc577a181]
class SpeicherType--><rect codeLine="25" fill="#FEFECE" filter="url(#f16ygh2bkbu2zy)" height="86.4141" id="SpeicherType" style="stroke:#A80036;stroke-width:1.5;" width="116" x="421.5" y="41"/><ellipse cx="436.5" cy="57" fill="#EB937F" rx="11" ry="11" style="stroke:#A80036;stroke-width:1.0;"/><path d="M435.2969,57.875 L436.75,57.875 L436.75,57.9844 C436.75,58.3906 436.7813,58.5469 436.8594,58.7031 C437.0156,58.9531 437.2969,59.1094 437.5938,59.1094 C437.8438,59.1094 438.1094,58.9688 438.2656,58.75 C438.3906,58.5938 438.4219,58.4375 438.4219,57.9844 L438.4219,56.0625 C438.4219,55.9063 438.4219,55.8594 438.4063,55.7031 C438.3438,55.2344 438.0313,54.9219 437.5781,54.9219 C437.3281,54.9219 437.0625,55.0625 436.8906,55.2813 C436.7813,55.4531 436.75,55.6094 436.75,56.0625 L436.75,56.1875 L435.2969,56.1875 L435.2969,53.7813 L439.2813,53.7813 L439.2813,54.6406 C439.2813,55.0469 439.3125,55.2188 439.3906,55.375 C439.5625,55.625 439.8438,55.7813 440.125,55.7813 C440.3906,55.7813 440.6563,55.6406 440.8281,55.4219 C440.9375,55.25 440.9688,55.1094 440.9688,54.6406 L440.9688,52.0938 L433.3438,52.0938 C432.9063,52.0938 432.7813,52.1094 432.625,52.2031 C432.375,52.3594 432.2188,52.6563 432.2188,52.9375 C432.2188,53.2188 432.3594,53.4688 432.5781,53.6406 C432.7344,53.75 432.9219,53.7813 433.3438,53.7813 L433.5938,53.7813 L433.5938,60.2969 L433.3438,60.2969 C432.9375,60.2969 432.7813,60.3125 432.625,60.4219 C432.375,60.5938 432.2188,60.8594 432.2188,61.1563 C432.2188,61.4219 432.3594,61.6719 432.5781,61.8281 C432.7188,61.9531 432.9531,62 433.3438,62 L441.3438,62 L441.3438,59.4219 C441.3438,58.9844 441.3125,58.8438 441.2344,58.6875 C441.0625,58.4375 440.7813,58.2813 440.5,58.2813 C440.2344,58.2813 439.9688,58.3906 439.7969,58.6406 C439.6875,58.7969 439.6563,58.9375 439.6563,59.4219 L439.6563,60.2969 L435.2969,60.2969 L435.2969,57.875 Z " fill="#000000"/><text fill="#000000" font-family="sans-serif" font-size="12" lengthAdjust="spacing" textLength="84" x="450.5" y="61.1543">SpeicherType</text><line style="stroke:#A80036;stroke-width:1.5;" x1="422.5" x2="536.5" y1="73" y2="73"/><text fill="#000000" font-family="sans-serif" font-size="11" lengthAdjust="spacing" textLength="35" x="427.5" y="87.2104">ZOOM</text><text fill="#000000" font-family="sans-serif" font-size="11" lengthAdjust="spacing" textLength="78" x="427.5" y="100.0151">EYETRACKING</text><text fill="#000000" font-family="sans-serif" font-size="11" lengthAdjust="spacing" textLength="79" x="427.5" y="112.8198">CODECHARTS</text><line style="stroke:#A80036;stroke-width:1.5;" x1="422.5" x2="536.5" y1="119.4141" y2="119.4141"/><polygon fill="#FFFFFF" filter="url(#f16ygh2bkbu2zy)" points="510.5,545,568.5,545,575.5,567.2969,582.5,567.2969,582.5,597.5938,510.5,597.5938,510.5,545" style="stroke:#000000;stroke-width:1.5;"/><line style="stroke:#000000;stroke-width:1.5;" x1="510.5" x2="575.5" y1="567.2969" y2="567.2969"/><text fill="#000000" font-family="sans-serif" font-size="14" font-weight="bold" lengthAdjust="spacing" textLength="52" x="514.5" y="559.9951">Config</text><polygon fill="#FFFFFF" filter="url(#f16ygh2bkbu2zy)" points="675,545,774,545,781,567.2969,788,567.2969,788,597.5938,675,597.5938,675,545" style="stroke:#000000;stroke-width:1.5;"/><line style="stroke:#000000;stroke-width:1.5;" x1="675" x2="781" y1="567.2969" y2="567.2969"/><text fill="#000000" font-family="sans-serif" font-size="14" font-weight="bold" lengthAdjust="spacing" textLength="93" x="679" y="559.9951">CodeCharts</text><polygon fill="#FFFFFF" filter="url(#f16ygh2bkbu2zy)" points="16,545,111,545,118,567.2969,125,567.2969,125,597.5938,16,597.5938,16,545" style="stroke:#000000;stroke-width:1.5;"/><line style="stroke:#000000;stroke-width:1.5;" x1="16" x2="118" y1="567.2969" y2="567.2969"/><text fill="#000000" font-family="sans-serif" font-size="14" font-weight="bold" lengthAdjust="spacing" textLength="89" x="20" y="559.9951">ZoomMaps</text><polygon fill="#FFFFFF" filter="url(#f16ygh2bkbu2zy)" points="851.5,545,955.5,545,962.5,567.2969,969.5,567.2969,969.5,597.5938,851.5,597.5938,851.5,545" style="stroke:#000000;stroke-width:1.5;"/><line style="stroke:#000000;stroke-width:1.5;" x1="851.5" x2="962.5" y1="567.2969" y2="567.2969"/><text fill="#000000" font-family="sans-serif" font-size="14" font-weight="bold" lengthAdjust="spacing" textLength="98" x="855.5" y="559.9951">EyeTracking</text><polygon fill="#FFFFFF" filter="url(#f16ygh2bkbu2zy)" points="250.5,545,366.5,545,373.5,567.2969,380.5,567.2969,380.5,597.5938,250.5,597.5938,250.5,545" style="stroke:#000000;stroke-width:1.5;"/><line style="stroke:#000000;stroke-width:1.5;" x1="250.5" x2="373.5" y1="567.2969" y2="567.2969"/><text fill="#000000" font-family="sans-serif" font-size="14" font-weight="bold" lengthAdjust="spacing" textLength="110" x="254.5" y="559.9951">AnalyseClient</text><!--MD5=[b360b7f4d6f354023795a1e1eaefcf55]
link SpeicherType to Data--><path codeLine="32" d="M516.964,127.299 C553.426,171.35 596.944,234 549.5,234 " fill="none" id="SpeicherType-Data" style="stroke:#A80036;stroke-width:1.0;"/><!--MD5=[2bead83efe010850ae2b2b106600419a]
link Data to SpeicherUtilitys--><path codeLine="33" d="M494.209,268.271 C501.441,286.353 510.233,308.332 518.48,328.949 " fill="none" id="Data-SpeicherUtilitys" style="stroke:#A80036;stroke-width:1.0;"/><!--MD5=[e129ff65f4551c7de55e5b5afc040126]
link SpeicherUtilitys to Config--><path codeLine="36" d="M683.5,375.5 C723.725,375.5 707.724,434.666 682.5,466 C642.748,515.3814 582.979,448.4 543.5,498 C533.223,510.9121 534.249,529.594 537.702,544.7596 " fill="none" id="SpeicherUtilitys-Config" style="stroke:#A80036;stroke-width:1.0;"/><polygon fill="#000000" points="551.7632,502.7781,543.6333,507.7132,548.0867,511.5493,551.7632,502.7781" style="stroke:#000000;stroke-width:1.0;"/><text fill="#000000" font-family="sans-serif" font-size="13" lengthAdjust="spacing" textLength="54" x="557.5" y="511.0669">Location</text><!--MD5=[eef60f989e051dc03bc82ed5e529c4d1]
link SpeicherUtilitys to CodeCharts--><path codeLine="37" d="M683.5,427.5 C700.617,427.5 689.001,450.166 682.5,466 C672.802,489.622 640.727,492.341 652.5,515 C658.682,526.899 668.716,536.781 679.589,544.7447 " fill="none" id="SpeicherUtilitys-CodeCharts" style="stroke:#A80036;stroke-width:1.0;"/><polygon fill="#000000" points="657.6667,501.5692,654.4278,510.5113,660.3024,510.7072,657.6667,501.5692" style="stroke:#000000;stroke-width:1.0;"/><text fill="#000000" font-family="sans-serif" font-size="13" lengthAdjust="spacing" textLength="31" x="666.5" y="511.0669">Data</text><!--MD5=[9b94509144814365ed5be03d7163b248]
link SpeicherUtilitys to ZoomMaps--><path codeLine="38" d="M408.5,427.5 C343.258,427.5 177.675,461.646 123.5,498 C106.1514,509.6415 92.4433,528.9599 83.3179,544.7288 " fill="none" id="SpeicherUtilitys-ZoomMaps" style="stroke:#A80036;stroke-width:1.0;"/><polygon fill="#000000" points="133.2037,504.8707,123.6979,505.1735,125.6913,510.703,133.2037,504.8707" style="stroke:#000000;stroke-width:1.0;"/><text fill="#000000" font-family="sans-serif" font-size="13" lengthAdjust="spacing" textLength="31" x="137.5" y="511.0669">Data</text><!--MD5=[379eec520aec00c8fa0741e6d3458725]
link SpeicherUtilitys to EyeTracking--><path codeLine="39" d="M683.5,427.5 C730.034,427.5 728.48,464.646 767.5,490 C797.96,509.7911 833.55,529.8365 861.605,544.9737 " fill="none" id="SpeicherUtilitys-EyeTracking" style="stroke:#A80036;stroke-width:1.0;"/><polygon fill="#000000" points="807.3261,503.8134,813.2586,511.2469,816.4949,506.3403,807.3261,503.8134" style="stroke:#000000;stroke-width:1.0;"/><text fill="#000000" font-family="sans-serif" font-size="13" lengthAdjust="spacing" textLength="31" x="820.5" y="511.0669">Data</text><!--MD5=[0f578e0dee7dd3716cca9395d8d39775]
link SpeicherUtilitys to AnalyseClient--><path codeLine="40" d="M408.5,415.5 C355.036,415.5 213.145,454.19 182.5,498 C160.568,529.3542 206.53,548.4873 250.294,559.1629 " fill="none" id="SpeicherUtilitys-AnalyseClient" style="stroke:#A80036;stroke-width:1.0;"/><text fill="#000000" font-family="sans-serif" font-size="13" lengthAdjust="spacing" textLength="177" x="183.5" y="511.0669">Datenanfrage und Ausgabe</text><!--MD5=[0f578e0dee7dd3716cca9395d8d39775]
link SpeicherUtilitys to AnalyseClient--><path codeLine="41" d="M408.5,403.5 C355.387,403.5 393.293,469.739 365.5,515 C358.985,525.6096 350.325,536.0666 342.045,544.9936 " fill="none" id="SpeicherUtilitys-AnalyseClient-1" style="stroke:#A80036;stroke-width:1.0;"/><polygon fill="#000000" points="380.6256,502.0407,374.1202,508.9784,379.4405,511.4772,380.6256,502.0407" style="stroke:#000000;stroke-width:1.0;"/><text fill="#000000" font-family="sans-serif" font-size="13" lengthAdjust="spacing" textLength="87" x="387.5" y="511.0669">Löschanfrage</text><!--MD5=[3c21fee9c725ae55d3b0fb7df3807553]
link Data to CodeCharts--><path codeLine="42" d="M556.044,261.344 C620.107,288.304 701.502,323.209 707.5,329 C767.425,386.851 770.041,416.778 788.5,498 C790.174,505.3677 791.438,508.039 788.5,515 C783.72,526.3253 775.375,536.4839 766.52,544.9183 " fill="none" id="Data-CodeCharts" style="stroke:#A80036;stroke-width:1.0;"/><polygon fill="#000000" points="794.48,401.5813,791.4491,392.5667,786.7292,396.0698,794.48,401.5813" style="stroke:#000000;stroke-width:1.0;"/><text fill="#000000" font-family="sans-serif" font-size="13" lengthAdjust="spacing" textLength="44" x="800.5" y="402.0669">Layout</text><!--MD5=[4617a9b60ec6ab4936e9e0fe16ef2fc9]
link Data to ZoomMaps--><path codeLine="43" d="M400.637,265.302 C314.827,309.051 178.286,390.322 97.5,498 C87.1019,511.8594 80.3272,530.1604 76.1646,544.9076 " fill="none" id="Data-ZoomMaps" style="stroke:#A80036;stroke-width:1.0;"/><polygon fill="#000000" points="286.7123,400.8304,295.4828,397.1522,291.6458,392.6995,286.7123,400.8304" style="stroke:#000000;stroke-width:1.0;"/><text fill="#000000" font-family="sans-serif" font-size="13" lengthAdjust="spacing" textLength="44" x="299.5" y="402.0669">Layout</text><!--MD5=[1388e581b3999e2c5464fee44db5e57d]
link Data to EyeTracking--><path codeLine="44" d="M556.123,262.145 C561.961,264.244 567.798,266.223 573.5,268 C695.098,305.885 762.666,239.722 853.5,329 C912.95,387.432 915.094,495.506 912.597,544.7934 " fill="none" id="Data-EyeTracking" style="stroke:#A80036;stroke-width:1.0;"/><polygon fill="#000000" points="921.4179,400.6729,916.1563,392.7503,912.5044,397.3561,921.4179,400.6729" style="stroke:#000000;stroke-width:1.0;"/><text fill="#000000" font-family="sans-serif" font-size="13" lengthAdjust="spacing" textLength="44" x="926.5" y="402.0669">Layout</text><!--MD5=[e870d5e7d1efcb10569c86a6ded64dc0]
@startuml
' === Speichermedium ===
package Speichermedium {
      ' SpeicherUtilitys
      class SpeicherUtilitys {
         - Location: String
         __public method__
         + deleteData(data_client_input: String) : void
         + searchData(data_client_input: String) : Data
         + saveData(data: Data) : void
         + setLocation(config_input: String) : void
         + getLocation() : void
     }

      interface Data {
         + type: SpeicherType
         + config_id: int
      }

      note right of Data
         Beinhaltet dann die Struktur/Variablen für die verschiedenen Daten, 
         die abgespeichert werden
      end note

      ' SpeicherType
      enum SpeicherType {
         ZOOM
         EYETRACKING
         CODECHARTS
      }

      ' Interaktionen
      SpeicherType - - Data::type
      Data - - SpeicherUtilitys

     ' Andere Module
     SpeicherUtilitys::Location - - Config : < Location
     SpeicherUtilitys::saveData - - CodeCharts : < Data
     SpeicherUtilitys::saveData - - ZoomMaps : < Data
     SpeicherUtilitys::saveData - - EyeTracking : < Data
     SpeicherUtilitys::searchData - - AnalyseClient : Datenanfrage und Ausgabe
     SpeicherUtilitys::deleteData - - AnalyseClient : < Löschanfrage
     Data - - CodeCharts : > Layout
     Data - - ZoomMaps : > Layout
     Data - - EyeTracking : > Layout
}


' Blackboxen / Andere Module
 package Config {}

 package CodeCharts {}

 package ZoomMaps {}

 package EyeTracking {}

 package AnalyseClient {}
@enduml

@startuml
package Speichermedium {
      class SpeicherUtilitys {
         - Location: String
         __public method__
         + deleteData(data_client_input: String) : void
         + searchData(data_client_input: String) : Data
         + saveData(data: Data) : void
         + setLocation(config_input: String) : void
         + getLocation() : void
     }

      interface Data {
         + type: SpeicherType
         + config_id: int
      }

      note right of Data
         Beinhaltet dann die Struktur/Variablen für die verschiedenen Daten, 
         die abgespeichert werden
      end note

      enum SpeicherType {
         ZOOM
         EYETRACKING
         CODECHARTS
      }

      SpeicherType - - Data::type
      Data - - SpeicherUtilitys

     SpeicherUtilitys::Location - - Config : < Location
     SpeicherUtilitys::saveData - - CodeCharts : < Data
     SpeicherUtilitys::saveData - - ZoomMaps : < Data
     SpeicherUtilitys::saveData - - EyeTracking : < Data
     SpeicherUtilitys::searchData - - AnalyseClient : Datenanfrage und Ausgabe
     SpeicherUtilitys::deleteData - - AnalyseClient : < Löschanfrage
     Data - - CodeCharts : > Layout
     Data - - ZoomMaps : > Layout
     Data - - EyeTracking : > Layout
}


 package Config {}

 package CodeCharts {}

 package ZoomMaps {}

 package EyeTracking {}

 package AnalyseClient {}
@enduml

PlantUML version 1.2021.13beta8(Unknown compile time)
(GPL source distribution)
Java Runtime: Java(TM) SE Runtime Environment
JVM: Java HotSpot(TM) 64-Bit Server VM
Default Encoding: UTF-8
Language: en
Country: US
--></g></svg>