<?xml version="1.0" encoding="UTF-8" standalone="no"?><svg xmlns="http://www.w3.org/2000/svg" xmlns:xlink="http://www.w3.org/1999/xlink" contentScriptType="application/ecmascript" contentStyleType="text/css" height="606px" preserveAspectRatio="none" style="width:920px;height:606px;background:#FFFFFF;" version="1.1" viewBox="0 0 920 606" width="920px" zoomAndPan="magnify"><defs><filter height="300%" id="f1fvq9umlcw8b" width="300%" x="-1" y="-1"><feGaussianBlur result="blurOut" stdDeviation="2.0"/><feColorMatrix in="blurOut" result="blurOut2" type="matrix" values="0 0 0 0 0 0 0 0 0 0 0 0 0 0 0 0 0 0 .4 0"/><feOffset dx="4.0" dy="4.0" in="blurOut2" result="blurOut3"/><feBlend in="SourceGraphic" in2="blurOut3" mode="normal"/></filter></defs><g><!--MD5=[3a4ecbc1d133d64cf2ebb2949f5932ed]
cluster Speichermedium--><polygon fill="#FFFFFF" filter="url(#f1fvq9umlcw8b)" points="223,6,362,6,369,28.2969,903,28.2969,903,484,223,484,223,6" style="stroke:#000000;stroke-width:1.5;"/><line style="stroke:#000000;stroke-width:1.5;" x1="223" x2="369" y1="28.2969" y2="28.2969"/><text fill="#000000" font-family="sans-serif" font-size="14" font-weight="bold" lengthAdjust="spacing" textLength="133" x="227" y="20.9951">Speichermedium</text><!--MD5=[827fa8af465d414750422ffafb762a0b]
class SpeicherUtilities--><rect codeLine="4" fill="#FEFECE" filter="url(#f1fvq9umlcw8b)" height="133.6328" id="SpeicherUtilities" style="stroke:#A80036;stroke-width:1.5;" width="273" x="247.5" y="333"/><ellipse cx="330.75" cy="349" fill="#ADD1B2" rx="11" ry="11" style="stroke:#A80036;stroke-width:1.0;"/><path d="M333.0938,344.6719 C332.1563,344.2344 331.5625,344.0938 330.6875,344.0938 C328.0625,344.0938 326.0625,346.1719 326.0625,348.8906 L326.0625,350.0156 C326.0625,352.5938 328.1719,354.4844 331.0625,354.4844 C332.2813,354.4844 333.4375,354.1875 334.1875,353.6406 C334.7656,353.2344 335.0938,352.7813 335.0938,352.3906 C335.0938,351.9375 334.7031,351.5469 334.2344,351.5469 C334.0156,351.5469 333.8125,351.625 333.625,351.8125 C333.1719,352.2969 333.1719,352.2969 332.9844,352.3906 C332.5625,352.6563 331.875,352.7813 331.1094,352.7813 C329.0625,352.7813 327.7656,351.6875 327.7656,349.9844 L327.7656,348.8906 C327.7656,347.1094 329.0156,345.7969 330.75,345.7969 C331.3281,345.7969 331.9375,345.9531 332.4063,346.2031 C332.8906,346.4844 333.0625,346.7031 333.1563,347.1094 C333.2188,347.5156 333.25,347.6406 333.3906,347.7656 C333.5313,347.9063 333.7656,348.0156 333.9844,348.0156 C334.25,348.0156 334.5156,347.875 334.6875,347.6563 C334.7969,347.5 334.8281,347.3125 334.8281,346.8906 L334.8281,345.4688 C334.8281,345.0313 334.8125,344.9063 334.7188,344.75 C334.5625,344.4844 334.2813,344.3438 333.9844,344.3438 C333.6875,344.3438 333.4844,344.4375 333.2656,344.75 L333.0938,344.6719 Z " fill="#000000"/><text fill="#000000" font-family="sans-serif" font-size="12" lengthAdjust="spacing" textLength="98" x="351.25" y="353.1543">SpeicherUtilities</text><line style="stroke:#A80036;stroke-width:1.5;" x1="248.5" x2="519.5" y1="365" y2="365"/><rect fill="none" height="6" style="stroke:#C82930;stroke-width:1.0;" width="6" x="255.5" y="373"/><text fill="#000000" font-family="sans-serif" font-size="11" lengthAdjust="spacing" textLength="87" x="267.5" y="379.2104">Location: String</text><ellipse cx="258.5" cy="405.6094" fill="#84BE84" rx="3" ry="3" style="stroke:#038048;stroke-width:1.0;"/><text fill="#000000" font-family="sans-serif" font-size="11" lengthAdjust="spacing" textLength="244" x="267.5" y="408.8198">deleteData(data_client_input: String) : void</text><ellipse cx="258.5" cy="418.4141" fill="#84BE84" rx="3" ry="3" style="stroke:#038048;stroke-width:1.0;"/><text fill="#000000" font-family="sans-serif" font-size="11" lengthAdjust="spacing" textLength="247" x="267.5" y="421.6245">searchData(data_client_input: String) : Data</text><ellipse cx="258.5" cy="431.2188" fill="#84BE84" rx="3" ry="3" style="stroke:#038048;stroke-width:1.0;"/><text fill="#000000" font-family="sans-serif" font-size="11" lengthAdjust="spacing" textLength="157" x="267.5" y="434.4292">saveData(data: Data) : void</text><ellipse cx="258.5" cy="444.0234" fill="#84BE84" rx="3" ry="3" style="stroke:#038048;stroke-width:1.0;"/><text fill="#000000" font-family="sans-serif" font-size="11" lengthAdjust="spacing" textLength="216" x="267.5" y="447.2339">setLocation(config_input: String) : void</text><ellipse cx="258.5" cy="456.8281" fill="#84BE84" rx="3" ry="3" style="stroke:#038048;stroke-width:1.0;"/><text fill="#000000" font-family="sans-serif" font-size="11" lengthAdjust="spacing" textLength="109" x="267.5" y="460.0386">getLocation() : void</text><line style="stroke:#A80036;stroke-width:1.5;" x1="248.5" x2="343.5" y1="392.207" y2="392.207"/><text fill="#000000" font-family="sans-serif" font-size="11" lengthAdjust="spacing" textLength="81" x="343.5" y="395.5151">public method</text><line style="stroke:#A80036;stroke-width:1.5;" x1="424.5" x2="519.5" y1="392.207" y2="392.207"/><!--MD5=[60c9ed31c535bee25c55ce21b5b01399]
class Data--><rect codeLine="14" fill="#FEFECE" filter="url(#f1fvq9umlcw8b)" height="73.6094" id="Data" style="stroke:#A80036;stroke-width:1.5;" width="139" x="247.5" y="192"/><ellipse cx="298.75" cy="208" fill="#B4A7E5" rx="11" ry="11" style="stroke:#A80036;stroke-width:1.0;"/><path d="M299.7031,204.7813 L301.4219,204.7813 C301.8125,204.7813 302,204.75 302.125,204.6719 C302.3906,204.5156 302.5313,204.2344 302.5313,203.9375 C302.5313,203.6719 302.4219,203.4063 302.1875,203.2344 C302.0156,203.125 301.875,203.0938 301.4219,203.0938 L296.2813,203.0938 C295.8438,203.0938 295.7188,203.1094 295.5625,203.2031 C295.3125,203.3594 295.1563,203.6563 295.1563,203.9375 C295.1563,204.2188 295.2969,204.4688 295.5156,204.6406 C295.6719,204.75 295.8594,204.7813 296.2813,204.7813 L298,204.7813 L298,211.2969 L296.2813,211.2969 C295.8438,211.2969 295.7188,211.3125 295.5625,211.4219 C295.3125,211.5781 295.1563,211.8594 295.1563,212.1563 C295.1563,212.4063 295.2969,212.6719 295.5156,212.8281 C295.6719,212.9531 295.875,213 296.2813,213 L301.4219,213 C302.1719,213 302.5313,212.7188 302.5313,212.1563 C302.5313,211.875 302.4219,211.625 302.1875,211.4531 C302.0156,211.3281 301.875,211.2969 301.4219,211.2969 L299.7031,211.2969 L299.7031,204.7813 Z " fill="#000000"/><text fill="#000000" font-family="sans-serif" font-size="12" font-style="italic" lengthAdjust="spacing" textLength="28" x="319.25" y="212.1543">Data</text><line style="stroke:#A80036;stroke-width:1.5;" x1="248.5" x2="385.5" y1="224" y2="224"/><ellipse cx="258.5" cy="235" rx="3" ry="3" style="stroke:#038048;stroke-width:1.0;fill:none;"/><text fill="#000000" font-family="sans-serif" font-size="11" lengthAdjust="spacing" textLength="113" x="267.5" y="238.2104">type: SpeicherType</text><ellipse cx="258.5" cy="247.8047" rx="3" ry="3" style="stroke:#038048;stroke-width:1.0;fill:none;"/><text fill="#000000" font-family="sans-serif" font-size="11" lengthAdjust="spacing" textLength="71" x="267.5" y="251.0151">config_id: int</text><line style="stroke:#A80036;stroke-width:1.5;" x1="248.5" x2="385.5" y1="257.6094" y2="257.6094"/><path d="M429.5,208 L429.5,224 L394.591,228 L429.5,232 L429.5,248.2656 A0,0 0 0 0 429.5,248.2656 L886.5,248.2656 A0,0 0 0 0 886.5,248.2656 L886.5,218 L876.5,208 L429.5,208 A0,0 0 0 0 429.5,208 " fill="#FBFB77" filter="url(#f1fvq9umlcw8b)" style="stroke:#A80036;stroke-width:1.0;"/><path d="M876.5,208 L876.5,218 L886.5,218 L876.5,208 " fill="#FBFB77" style="stroke:#A80036;stroke-width:1.0;"/><text fill="#000000" font-family="sans-serif" font-size="13" lengthAdjust="spacing" textLength="432" x="435.5" y="225.0669">Beinhaltet dann die Struktur/Variablen für die verschiedenen Daten,</text><text fill="#000000" font-family="sans-serif" font-size="13" lengthAdjust="spacing" textLength="166" x="435.5" y="240.1997">die abgespeichert werden</text><!--MD5=[3f1fbb3f50ef8de7465f2cfcc577a181]
class SpeicherType--><rect codeLine="25" fill="#FEFECE" filter="url(#f1fvq9umlcw8b)" height="86.4141" id="SpeicherType" style="stroke:#A80036;stroke-width:1.5;" width="116" x="260" y="41"/><ellipse cx="275" cy="57" fill="#EB937F" rx="11" ry="11" style="stroke:#A80036;stroke-width:1.0;"/><path d="M273.7969,57.875 L275.25,57.875 L275.25,57.9844 C275.25,58.3906 275.2813,58.5469 275.3594,58.7031 C275.5156,58.9531 275.7969,59.1094 276.0938,59.1094 C276.3438,59.1094 276.6094,58.9688 276.7656,58.75 C276.8906,58.5938 276.9219,58.4375 276.9219,57.9844 L276.9219,56.0625 C276.9219,55.9063 276.9219,55.8594 276.9063,55.7031 C276.8438,55.2344 276.5313,54.9219 276.0781,54.9219 C275.8281,54.9219 275.5625,55.0625 275.3906,55.2813 C275.2813,55.4531 275.25,55.6094 275.25,56.0625 L275.25,56.1875 L273.7969,56.1875 L273.7969,53.7813 L277.7813,53.7813 L277.7813,54.6406 C277.7813,55.0469 277.8125,55.2188 277.8906,55.375 C278.0625,55.625 278.3438,55.7813 278.625,55.7813 C278.8906,55.7813 279.1563,55.6406 279.3281,55.4219 C279.4375,55.25 279.4688,55.1094 279.4688,54.6406 L279.4688,52.0938 L271.8438,52.0938 C271.4063,52.0938 271.2813,52.1094 271.125,52.2031 C270.875,52.3594 270.7188,52.6563 270.7188,52.9375 C270.7188,53.2188 270.8594,53.4688 271.0781,53.6406 C271.2344,53.75 271.4219,53.7813 271.8438,53.7813 L272.0938,53.7813 L272.0938,60.2969 L271.8438,60.2969 C271.4375,60.2969 271.2813,60.3125 271.125,60.4219 C270.875,60.5938 270.7188,60.8594 270.7188,61.1563 C270.7188,61.4219 270.8594,61.6719 271.0781,61.8281 C271.2188,61.9531 271.4531,62 271.8438,62 L279.8438,62 L279.8438,59.4219 C279.8438,58.9844 279.8125,58.8438 279.7344,58.6875 C279.5625,58.4375 279.2813,58.2813 279,58.2813 C278.7344,58.2813 278.4688,58.3906 278.2969,58.6406 C278.1875,58.7969 278.1563,58.9375 278.1563,59.4219 L278.1563,60.2969 L273.7969,60.2969 L273.7969,57.875 Z " fill="#000000"/><text fill="#000000" font-family="sans-serif" font-size="12" lengthAdjust="spacing" textLength="84" x="289" y="61.1543">SpeicherType</text><line style="stroke:#A80036;stroke-width:1.5;" x1="261" x2="375" y1="73" y2="73"/><text fill="#000000" font-family="sans-serif" font-size="11" lengthAdjust="spacing" textLength="35" x="266" y="87.2104">ZOOM</text><text fill="#000000" font-family="sans-serif" font-size="11" lengthAdjust="spacing" textLength="78" x="266" y="100.0151">EYETRACKING</text><text fill="#000000" font-family="sans-serif" font-size="11" lengthAdjust="spacing" textLength="79" x="266" y="112.8198">CODECHARTS</text><line style="stroke:#A80036;stroke-width:1.5;" x1="261" x2="375" y1="119.4141" y2="119.4141"/><polygon fill="#FFFFFF" filter="url(#f1fvq9umlcw8b)" points="628,547,686,547,693,569.2969,700,569.2969,700,599.5938,628,599.5938,628,547" style="stroke:#000000;stroke-width:1.5;"/><line style="stroke:#000000;stroke-width:1.5;" x1="628" x2="693" y1="569.2969" y2="569.2969"/><text fill="#000000" font-family="sans-serif" font-size="14" font-weight="bold" lengthAdjust="spacing" textLength="52" x="632" y="561.9951">Config</text><polygon fill="#FFFFFF" filter="url(#f1fvq9umlcw8b)" points="479.5,547,578.5,547,585.5,569.2969,592.5,569.2969,592.5,599.5938,479.5,599.5938,479.5,547" style="stroke:#000000;stroke-width:1.5;"/><line style="stroke:#000000;stroke-width:1.5;" x1="479.5" x2="585.5" y1="569.2969" y2="569.2969"/><text fill="#000000" font-family="sans-serif" font-size="14" font-weight="bold" lengthAdjust="spacing" textLength="93" x="483.5" y="561.9951">CodeCharts</text><polygon fill="#FFFFFF" filter="url(#f1fvq9umlcw8b)" points="181.5,547,276.5,547,283.5,569.2969,290.5,569.2969,290.5,599.5938,181.5,599.5938,181.5,547" style="stroke:#000000;stroke-width:1.5;"/><line style="stroke:#000000;stroke-width:1.5;" x1="181.5" x2="283.5" y1="569.2969" y2="569.2969"/><text fill="#000000" font-family="sans-serif" font-size="14" font-weight="bold" lengthAdjust="spacing" textLength="89" x="185.5" y="561.9951">ZoomMaps</text><polygon fill="#FFFFFF" filter="url(#f1fvq9umlcw8b)" points="326,547,430,547,437,569.2969,444,569.2969,444,599.5938,326,599.5938,326,547" style="stroke:#000000;stroke-width:1.5;"/><line style="stroke:#000000;stroke-width:1.5;" x1="326" x2="437" y1="569.2969" y2="569.2969"/><text fill="#000000" font-family="sans-serif" font-size="14" font-weight="bold" lengthAdjust="spacing" textLength="98" x="330" y="561.9951">EyeTracking</text><polygon fill="#FFFFFF" filter="url(#f1fvq9umlcw8b)" points="16,547,132,547,139,569.2969,146,569.2969,146,599.5938,16,599.5938,16,547" style="stroke:#000000;stroke-width:1.5;"/><line style="stroke:#000000;stroke-width:1.5;" x1="16" x2="139" y1="569.2969" y2="569.2969"/><text fill="#000000" font-family="sans-serif" font-size="14" font-weight="bold" lengthAdjust="spacing" textLength="110" x="20" y="561.9951">AnalyseClient</text><!--MD5=[b360b7f4d6f354023795a1e1eaefcf55]
link SpeicherType to Data--><path codeLine="32" d="M355.464,127.299 C391.926,171.35 435.444,234 388,234 " fill="none" id="SpeicherType-Data" style="stroke:#A80036;stroke-width:1.0;"/><!--MD5=[a78a7d238e72dddcc847ae6ac6950621]
link Data to SpeicherUtilities--><path codeLine="33" d="M332.54,268.081 C339.73,286.164 348.487,308.188 356.724,328.904 " fill="none" id="Data-SpeicherUtilities" style="stroke:#A80036;stroke-width:1.0;"/><!--MD5=[be61eeeb27be34ef4ae07c1a066952f1]
link SpeicherUtilities to Config--><path codeLine="36" d="M522,375.5 C605.477,375.5 644.771,493.346 658.291,546.7457 " fill="none" id="SpeicherUtilities-Config" style="stroke:#A80036;stroke-width:1.0;"/><polygon fill="#000000" points="651.8864,504.6542,655.2195,513.5616,659.8185,509.9013,651.8864,504.6542" style="stroke:#000000;stroke-width:1.0;"/><text fill="#000000" font-family="sans-serif" font-size="13" lengthAdjust="spacing" textLength="54" x="664" y="513.0669">Location</text><!--MD5=[49d6d0147e3b94482ce135b8a0be2af5]
link SpeicherUtilities to CodeCharts--><path codeLine="37" d="M522,429.5 C568.647,429.5 554.616,505.8026 543.663,546.9345 " fill="none" id="SpeicherUtilities-CodeCharts" style="stroke:#A80036;stroke-width:1.0;"/><polygon fill="#000000" points="557.093,503.6494,555.8436,513.0775,561.624,512.0112,557.093,503.6494" style="stroke:#000000;stroke-width:1.0;"/><text fill="#000000" font-family="sans-serif" font-size="13" lengthAdjust="spacing" textLength="31" x="567" y="513.0669">Data</text><!--MD5=[a5b1ade112710dc4f95c1b1987853db1]
link SpeicherUtilities to ZoomMaps--><path codeLine="38" d="M247,429.5 C200.438,429.5 216.03,505.8026 227.819,546.9345 " fill="none" id="SpeicherUtilities-ZoomMaps" style="stroke:#A80036;stroke-width:1.0;"/><polygon fill="#000000" points="226.806,503.6318,222.4475,512.0848,228.2484,513.0323,226.806,503.6318" style="stroke:#000000;stroke-width:1.0;"/><text fill="#000000" font-family="sans-serif" font-size="13" lengthAdjust="spacing" textLength="31" x="235" y="513.0669">Data</text><!--MD5=[389cbc08bfc7a7d01aa6d7f2a706f8d1]
link SpeicherUtilities to EyeTracking--><path codeLine="39" d="M522,429.5 C539.117,429.5 530.584,453.818 521,468 C500.936,497.688 475.832,478.724 447,500 C429.543,512.8822 413.717,531.5648 402.424,546.7382 " fill="none" id="SpeicherUtilities-EyeTracking" style="stroke:#A80036;stroke-width:1.0;"/><polygon fill="#000000" points="455.5703,505.0659,447.0541,509.2998,451.1691,513.4969,455.5703,505.0659" style="stroke:#000000;stroke-width:1.0;"/><text fill="#000000" font-family="sans-serif" font-size="13" lengthAdjust="spacing" textLength="31" x="461" y="513.0669">Data</text><!--MD5=[7237edb64a5a2ff692c4c4aff579e11a]
link SpeicherUtilities to AnalyseClient--><path codeLine="40" d="M263.811,468.123 C215.235,495.858 162.167,526.1569 125.784,546.9304 " fill="none" id="SpeicherUtilities-AnalyseClient" style="stroke:#A80036;stroke-width:1.0;"/><!--MD5=[afe226d007bdc32d1732a82ff65296ef]
@startuml
' === Speichermedium ===
package Speichermedium {
      ' SpeicherUtilities
      class SpeicherUtilities {
         - Location: String
         __public method__
         + deleteData(data_client_input: String) : void
         + searchData(data_client_input: String) : Data
         + saveData(data: Data) : void
         + setLocation(config_input: String) : void
         + getLocation() : void
     }

      interface Data {
         + type: SpeicherType
         + config_id: int
      }

      note right of Data
         Beinhaltet dann die Struktur/Variablen für die verschiedenen Daten, 
         die abgespeichert werden
      end note

      ' SpeicherType
      enum SpeicherType {
         ZOOM
         EYETRACKING
         CODECHARTS
      }

      ' Interaktionen
      SpeicherType - - Data::type
      Data - - SpeicherUtilities

     ' Andere Module
     SpeicherUtilities::Location - - Config : < Location
     SpeicherUtilities::saveData - - CodeCharts : < Data
     SpeicherUtilities::saveData - - ZoomMaps : < Data
     SpeicherUtilities::saveData - - EyeTracking : < Data
     SpeicherUtilities - - AnalyseClient
}


' Blackboxen / Andere Module
 package Config {}

 package CodeCharts {}

 package ZoomMaps {}

 package EyeTracking {}

 package AnalyseClient {}
@enduml

@startuml
package Speichermedium {
      class SpeicherUtilities {
         - Location: String
         __public method__
         + deleteData(data_client_input: String) : void
         + searchData(data_client_input: String) : Data
         + saveData(data: Data) : void
         + setLocation(config_input: String) : void
         + getLocation() : void
     }

      interface Data {
         + type: SpeicherType
         + config_id: int
      }

      note right of Data
         Beinhaltet dann die Struktur/Variablen für die verschiedenen Daten, 
         die abgespeichert werden
      end note

      enum SpeicherType {
         ZOOM
         EYETRACKING
         CODECHARTS
      }

      SpeicherType - - Data::type
      Data - - SpeicherUtilities

     SpeicherUtilities::Location - - Config : < Location
     SpeicherUtilities::saveData - - CodeCharts : < Data
     SpeicherUtilities::saveData - - ZoomMaps : < Data
     SpeicherUtilities::saveData - - EyeTracking : < Data
     SpeicherUtilities - - AnalyseClient
}


 package Config {}

 package CodeCharts {}

 package ZoomMaps {}

 package EyeTracking {}

 package AnalyseClient {}
@enduml

PlantUML version 1.2021.14beta2(Unknown compile time)
(GPL source distribution)
Java Runtime: Java(TM) SE Runtime Environment
JVM: Java HotSpot(TM) 64-Bit Server VM
Default Encoding: UTF-8
Language: en
Country: US
--></g></svg>