<?xml version="1.0" encoding="UTF-8" standalone="no"?><svg xmlns="http://www.w3.org/2000/svg" xmlns:xlink="http://www.w3.org/1999/xlink" contentScriptType="application/ecmascript" contentStyleType="text/css" height="606px" preserveAspectRatio="none" style="width:920px;height:606px;background:#FFFFFF;" version="1.1" viewBox="0 0 920 606" width="920px" zoomAndPan="magnify"><defs><filter height="300%" id="fyp7qgnbo14il" width="300%" x="-1" y="-1"><feGaussianBlur result="blurOut" stdDeviation="2.0"/><feColorMatrix in="blurOut" result="blurOut2" type="matrix" values="0 0 0 0 0 0 0 0 0 0 0 0 0 0 0 0 0 0 .4 0"/><feOffset dx="4.0" dy="4.0" in="blurOut2" result="blurOut3"/><feBlend in="SourceGraphic" in2="blurOut3" mode="normal"/></filter></defs><g><!--MD5=[3a4ecbc1d133d64cf2ebb2949f5932ed]
cluster Speichermedium--><polygon fill="#FFFFFF" filter="url(#fyp7qgnbo14il)" points="223,140,362,140,369,162.2969,903,162.2969,903,484,223,484,223,140" style="stroke:#000000;stroke-width:1.5;"/><line style="stroke:#000000;stroke-width:1.5;" x1="223" x2="369" y1="162.2969" y2="162.2969"/><text fill="#000000" font-family="sans-serif" font-size="14" font-weight="bold" lengthAdjust="spacing" textLength="133" x="227" y="154.9951">Speichermedium</text><!--MD5=[827fa8af465d414750422ffafb762a0b]
class SpeicherUtilities--><rect codeLine="4" fill="#FEFECE" filter="url(#fyp7qgnbo14il)" height="133.6328" id="SpeicherUtilities" style="stroke:#A80036;stroke-width:1.5;" width="273" x="247.5" y="333"/><ellipse cx="330.75" cy="349" fill="#ADD1B2" rx="11" ry="11" style="stroke:#A80036;stroke-width:1.0;"/><path d="M333.0938,344.6719 C332.1563,344.2344 331.5625,344.0938 330.6875,344.0938 C328.0625,344.0938 326.0625,346.1719 326.0625,348.8906 L326.0625,350.0156 C326.0625,352.5938 328.1719,354.4844 331.0625,354.4844 C332.2813,354.4844 333.4375,354.1875 334.1875,353.6406 C334.7656,353.2344 335.0938,352.7813 335.0938,352.3906 C335.0938,351.9375 334.7031,351.5469 334.2344,351.5469 C334.0156,351.5469 333.8125,351.625 333.625,351.8125 C333.1719,352.2969 333.1719,352.2969 332.9844,352.3906 C332.5625,352.6563 331.875,352.7813 331.1094,352.7813 C329.0625,352.7813 327.7656,351.6875 327.7656,349.9844 L327.7656,348.8906 C327.7656,347.1094 329.0156,345.7969 330.75,345.7969 C331.3281,345.7969 331.9375,345.9531 332.4063,346.2031 C332.8906,346.4844 333.0625,346.7031 333.1563,347.1094 C333.2188,347.5156 333.25,347.6406 333.3906,347.7656 C333.5313,347.9063 333.7656,348.0156 333.9844,348.0156 C334.25,348.0156 334.5156,347.875 334.6875,347.6563 C334.7969,347.5 334.8281,347.3125 334.8281,346.8906 L334.8281,345.4688 C334.8281,345.0313 334.8125,344.9063 334.7188,344.75 C334.5625,344.4844 334.2813,344.3438 333.9844,344.3438 C333.6875,344.3438 333.4844,344.4375 333.2656,344.75 L333.0938,344.6719 Z " fill="#000000"/><text fill="#000000" font-family="sans-serif" font-size="12" lengthAdjust="spacing" textLength="98" x="351.25" y="353.1543">SpeicherUtilities</text><line style="stroke:#A80036;stroke-width:1.5;" x1="248.5" x2="519.5" y1="365" y2="365"/><rect fill="none" height="6" style="stroke:#C82930;stroke-width:1.0;" width="6" x="255.5" y="373"/><text fill="#000000" font-family="sans-serif" font-size="11" lengthAdjust="spacing" textLength="87" x="267.5" y="379.2104">Location: String</text><ellipse cx="258.5" cy="405.6094" fill="#84BE84" rx="3" ry="3" style="stroke:#038048;stroke-width:1.0;"/><text fill="#000000" font-family="sans-serif" font-size="11" lengthAdjust="spacing" textLength="244" x="267.5" y="408.8198">deleteData(data_client_input: String) : void</text><ellipse cx="258.5" cy="418.4141" fill="#84BE84" rx="3" ry="3" style="stroke:#038048;stroke-width:1.0;"/><text fill="#000000" font-family="sans-serif" font-size="11" lengthAdjust="spacing" textLength="247" x="267.5" y="421.6245">searchData(data_client_input: String) : Data</text><ellipse cx="258.5" cy="431.2188" fill="#84BE84" rx="3" ry="3" style="stroke:#038048;stroke-width:1.0;"/><text fill="#000000" font-family="sans-serif" font-size="11" lengthAdjust="spacing" textLength="157" x="267.5" y="434.4292">saveData(data: Data) : void</text><ellipse cx="258.5" cy="444.0234" fill="#84BE84" rx="3" ry="3" style="stroke:#038048;stroke-width:1.0;"/><text fill="#000000" font-family="sans-serif" font-size="11" lengthAdjust="spacing" textLength="216" x="267.5" y="447.2339">setLocation(config_input: String) : void</text><ellipse cx="258.5" cy="456.8281" fill="#84BE84" rx="3" ry="3" style="stroke:#038048;stroke-width:1.0;"/><text fill="#000000" font-family="sans-serif" font-size="11" lengthAdjust="spacing" textLength="109" x="267.5" y="460.0386">getLocation() : void</text><line style="stroke:#A80036;stroke-width:1.5;" x1="248.5" x2="343.5" y1="392.207" y2="392.207"/><text fill="#000000" font-family="sans-serif" font-size="11" lengthAdjust="spacing" textLength="81" x="343.5" y="395.5151">public method</text><line style="stroke:#A80036;stroke-width:1.5;" x1="424.5" x2="519.5" y1="392.207" y2="392.207"/><!--MD5=[60c9ed31c535bee25c55ce21b5b01399]
class Data--><rect codeLine="14" fill="#FEFECE" filter="url(#fyp7qgnbo14il)" height="86.4141" id="Data" style="stroke:#A80036;stroke-width:1.5;" width="139" x="247.5" y="179"/><ellipse cx="299.25" cy="195" fill="#ADD1B2" rx="11" ry="11" style="stroke:#A80036;stroke-width:1.0;"/><path d="M301.5938,190.6719 C300.6563,190.2344 300.0625,190.0938 299.1875,190.0938 C296.5625,190.0938 294.5625,192.1719 294.5625,194.8906 L294.5625,196.0156 C294.5625,198.5938 296.6719,200.4844 299.5625,200.4844 C300.7813,200.4844 301.9375,200.1875 302.6875,199.6406 C303.2656,199.2344 303.5938,198.7813 303.5938,198.3906 C303.5938,197.9375 303.2031,197.5469 302.7344,197.5469 C302.5156,197.5469 302.3125,197.625 302.125,197.8125 C301.6719,198.2969 301.6719,198.2969 301.4844,198.3906 C301.0625,198.6563 300.375,198.7813 299.6094,198.7813 C297.5625,198.7813 296.2656,197.6875 296.2656,195.9844 L296.2656,194.8906 C296.2656,193.1094 297.5156,191.7969 299.25,191.7969 C299.8281,191.7969 300.4375,191.9531 300.9063,192.2031 C301.3906,192.4844 301.5625,192.7031 301.6563,193.1094 C301.7188,193.5156 301.75,193.6406 301.8906,193.7656 C302.0313,193.9063 302.2656,194.0156 302.4844,194.0156 C302.75,194.0156 303.0156,193.875 303.1875,193.6563 C303.2969,193.5 303.3281,193.3125 303.3281,192.8906 L303.3281,191.4688 C303.3281,191.0313 303.3125,190.9063 303.2188,190.75 C303.0625,190.4844 302.7813,190.3438 302.4844,190.3438 C302.1875,190.3438 301.9844,190.4375 301.7656,190.75 L301.5938,190.6719 Z " fill="#000000"/><text fill="#000000" font-family="sans-serif" font-size="12" lengthAdjust="spacing" textLength="27" x="319.75" y="199.1543">Data</text><line style="stroke:#A80036;stroke-width:1.5;" x1="248.5" x2="385.5" y1="211" y2="211"/><ellipse cx="258.5" cy="222" rx="3" ry="3" style="stroke:#038048;stroke-width:1.0;fill:none;"/><text fill="#000000" font-family="sans-serif" font-size="11" lengthAdjust="spacing" textLength="113" x="267.5" y="225.2104">type: SpeicherType</text><ellipse cx="258.5" cy="234.8047" rx="3" ry="3" style="stroke:#038048;stroke-width:1.0;fill:none;"/><text fill="#000000" font-family="sans-serif" font-size="11" lengthAdjust="spacing" textLength="82" x="267.5" y="238.0151">data: unknown</text><ellipse cx="258.5" cy="247.6094" rx="3" ry="3" style="stroke:#038048;stroke-width:1.0;fill:none;"/><text fill="#000000" font-family="sans-serif" font-size="11" lengthAdjust="spacing" textLength="71" x="267.5" y="250.8198">config_id: int</text><line style="stroke:#A80036;stroke-width:1.5;" x1="248.5" x2="385.5" y1="257.4141" y2="257.4141"/><path d="M429.5,201.5 L429.5,217.5 L394.591,221.5 L429.5,225.5 L429.5,241.7656 A0,0 0 0 0 429.5,241.7656 L886.5,241.7656 A0,0 0 0 0 886.5,241.7656 L886.5,211.5 L876.5,201.5 L429.5,201.5 A0,0 0 0 0 429.5,201.5 " fill="#FBFB77" filter="url(#fyp7qgnbo14il)" style="stroke:#A80036;stroke-width:1.0;"/><path d="M876.5,201.5 L876.5,211.5 L886.5,211.5 L876.5,201.5 " fill="#FBFB77" style="stroke:#A80036;stroke-width:1.0;"/><text fill="#000000" font-family="sans-serif" font-size="13" lengthAdjust="spacing" textLength="432" x="435.5" y="218.5669">Beinhaltet dann die Struktur/Variablen für die verschiedenen Daten,</text><text fill="#000000" font-family="sans-serif" font-size="13" lengthAdjust="spacing" textLength="166" x="435.5" y="233.6997">die abgespeichert werden</text><polygon fill="#FFFFFF" filter="url(#fyp7qgnbo14il)" points="628,547,686,547,693,569.2969,700,569.2969,700,599.5938,628,599.5938,628,547" style="stroke:#000000;stroke-width:1.5;"/><line style="stroke:#000000;stroke-width:1.5;" x1="628" x2="693" y1="569.2969" y2="569.2969"/><text fill="#000000" font-family="sans-serif" font-size="14" font-weight="bold" lengthAdjust="spacing" textLength="52" x="632" y="561.9951">Config</text><polygon fill="#FFFFFF" filter="url(#fyp7qgnbo14il)" points="479.5,547,578.5,547,585.5,569.2969,592.5,569.2969,592.5,599.5938,479.5,599.5938,479.5,547" style="stroke:#000000;stroke-width:1.5;"/><line style="stroke:#000000;stroke-width:1.5;" x1="479.5" x2="585.5" y1="569.2969" y2="569.2969"/><text fill="#000000" font-family="sans-serif" font-size="14" font-weight="bold" lengthAdjust="spacing" textLength="93" x="483.5" y="561.9951">CodeCharts</text><polygon fill="#FFFFFF" filter="url(#fyp7qgnbo14il)" points="181.5,547,276.5,547,283.5,569.2969,290.5,569.2969,290.5,599.5938,181.5,599.5938,181.5,547" style="stroke:#000000;stroke-width:1.5;"/><line style="stroke:#000000;stroke-width:1.5;" x1="181.5" x2="283.5" y1="569.2969" y2="569.2969"/><text fill="#000000" font-family="sans-serif" font-size="14" font-weight="bold" lengthAdjust="spacing" textLength="89" x="185.5" y="561.9951">ZoomMaps</text><polygon fill="#FFFFFF" filter="url(#fyp7qgnbo14il)" points="326,547,430,547,437,569.2969,444,569.2969,444,599.5938,326,599.5938,326,547" style="stroke:#000000;stroke-width:1.5;"/><line style="stroke:#000000;stroke-width:1.5;" x1="326" x2="437" y1="569.2969" y2="569.2969"/><text fill="#000000" font-family="sans-serif" font-size="14" font-weight="bold" lengthAdjust="spacing" textLength="98" x="330" y="561.9951">EyeTracking</text><polygon fill="#FFFFFF" filter="url(#fyp7qgnbo14il)" points="16,547,132,547,139,569.2969,146,569.2969,146,599.5938,16,599.5938,16,547" style="stroke:#000000;stroke-width:1.5;"/><line style="stroke:#000000;stroke-width:1.5;" x1="16" x2="139" y1="569.2969" y2="569.2969"/><text fill="#000000" font-family="sans-serif" font-size="14" font-weight="bold" lengthAdjust="spacing" textLength="110" x="20" y="561.9951">AnalyseClient</text><!--MD5=[5c39798b83ace9e75333b1274a725e6c]
class ToolType--><rect codeLine="42" fill="#FEFECE" filter="url(#fyp7qgnbo14il)" height="86.4141" id="ToolType" style="stroke:#A80036;stroke-width:1.5;" width="91" x="272.5" y="7"/><ellipse cx="288.85" cy="23" fill="#EB937F" rx="11" ry="11" style="stroke:#A80036;stroke-width:1.0;"/><path d="M287.6469,23.875 L289.1,23.875 L289.1,23.9844 C289.1,24.3906 289.1313,24.5469 289.2094,24.7031 C289.3656,24.9531 289.6469,25.1094 289.9438,25.1094 C290.1938,25.1094 290.4594,24.9688 290.6156,24.75 C290.7406,24.5938 290.7719,24.4375 290.7719,23.9844 L290.7719,22.0625 C290.7719,21.9063 290.7719,21.8594 290.7563,21.7031 C290.6938,21.2344 290.3813,20.9219 289.9281,20.9219 C289.6781,20.9219 289.4125,21.0625 289.2406,21.2813 C289.1313,21.4531 289.1,21.6094 289.1,22.0625 L289.1,22.1875 L287.6469,22.1875 L287.6469,19.7813 L291.6313,19.7813 L291.6313,20.6406 C291.6313,21.0469 291.6625,21.2188 291.7406,21.375 C291.9125,21.625 292.1938,21.7813 292.475,21.7813 C292.7406,21.7813 293.0063,21.6406 293.1781,21.4219 C293.2875,21.25 293.3188,21.1094 293.3188,20.6406 L293.3188,18.0938 L285.6938,18.0938 C285.2563,18.0938 285.1313,18.1094 284.975,18.2031 C284.725,18.3594 284.5688,18.6563 284.5688,18.9375 C284.5688,19.2188 284.7094,19.4688 284.9281,19.6406 C285.0844,19.75 285.2719,19.7813 285.6938,19.7813 L285.9438,19.7813 L285.9438,26.2969 L285.6938,26.2969 C285.2875,26.2969 285.1313,26.3125 284.975,26.4219 C284.725,26.5938 284.5688,26.8594 284.5688,27.1563 C284.5688,27.4219 284.7094,27.6719 284.9281,27.8281 C285.0688,27.9531 285.3031,28 285.6938,28 L293.6938,28 L293.6938,25.4219 C293.6938,24.9844 293.6625,24.8438 293.5844,24.6875 C293.4125,24.4375 293.1313,24.2813 292.85,24.2813 C292.5844,24.2813 292.3188,24.3906 292.1469,24.6406 C292.0375,24.7969 292.0063,24.9375 292.0063,25.4219 L292.0063,26.2969 L287.6469,26.2969 L287.6469,23.875 Z " fill="#000000"/><text fill="#000000" font-family="sans-serif" font-size="12" lengthAdjust="spacing" textLength="56" x="303.15" y="27.1543">ToolType</text><line style="stroke:#A80036;stroke-width:1.5;" x1="273.5" x2="362.5" y1="39" y2="39"/><text fill="#000000" font-family="sans-serif" font-size="11" lengthAdjust="spacing" textLength="35" x="278.5" y="53.2104">ZOOM</text><text fill="#000000" font-family="sans-serif" font-size="11" lengthAdjust="spacing" textLength="78" x="278.5" y="66.0151">EYETRACKING</text><text fill="#000000" font-family="sans-serif" font-size="11" lengthAdjust="spacing" textLength="79" x="278.5" y="78.8198">CODECHARTS</text><line style="stroke:#A80036;stroke-width:1.5;" x1="273.5" x2="362.5" y1="85.4141" y2="85.4141"/><!--MD5=[a78a7d238e72dddcc847ae6ac6950621]
link Data to SpeicherUtilities--><path codeLine="29" d="M334.429,268.022 C341.524,286.555 349.88,308.381 357.689,328.778 " fill="none" id="Data-SpeicherUtilities" style="stroke:#A80036;stroke-width:1.0;"/><!--MD5=[be61eeeb27be34ef4ae07c1a066952f1]
link SpeicherUtilities to Config--><path codeLine="32" d="M522,375.5 C605.477,375.5 644.771,493.346 658.291,546.7457 " fill="none" id="SpeicherUtilities-Config" style="stroke:#A80036;stroke-width:1.0;"/><polygon fill="#000000" points="651.8864,504.6542,655.2195,513.5616,659.8185,509.9013,651.8864,504.6542" style="stroke:#000000;stroke-width:1.0;"/><text fill="#000000" font-family="sans-serif" font-size="13" lengthAdjust="spacing" textLength="54" x="664" y="513.0669">Location</text><!--MD5=[49d6d0147e3b94482ce135b8a0be2af5]
link SpeicherUtilities to CodeCharts--><path codeLine="33" d="M522,429.5 C568.647,429.5 554.616,505.8026 543.663,546.9345 " fill="none" id="SpeicherUtilities-CodeCharts" style="stroke:#A80036;stroke-width:1.0;"/><polygon fill="#000000" points="557.093,503.6494,555.8436,513.0775,561.624,512.0112,557.093,503.6494" style="stroke:#000000;stroke-width:1.0;"/><text fill="#000000" font-family="sans-serif" font-size="13" lengthAdjust="spacing" textLength="31" x="567" y="513.0669">Data</text><!--MD5=[a5b1ade112710dc4f95c1b1987853db1]
link SpeicherUtilities to ZoomMaps--><path codeLine="34" d="M247,429.5 C200.438,429.5 216.03,505.8026 227.819,546.9345 " fill="none" id="SpeicherUtilities-ZoomMaps" style="stroke:#A80036;stroke-width:1.0;"/><polygon fill="#000000" points="226.806,503.6318,222.4475,512.0848,228.2484,513.0323,226.806,503.6318" style="stroke:#000000;stroke-width:1.0;"/><text fill="#000000" font-family="sans-serif" font-size="13" lengthAdjust="spacing" textLength="31" x="235" y="513.0669">Data</text><!--MD5=[389cbc08bfc7a7d01aa6d7f2a706f8d1]
link SpeicherUtilities to EyeTracking--><path codeLine="35" d="M522,429.5 C539.117,429.5 530.584,453.818 521,468 C500.936,497.688 475.832,478.724 447,500 C429.543,512.8822 413.717,531.5648 402.424,546.7382 " fill="none" id="SpeicherUtilities-EyeTracking" style="stroke:#A80036;stroke-width:1.0;"/><polygon fill="#000000" points="455.5703,505.0659,447.0541,509.2998,451.1691,513.4969,455.5703,505.0659" style="stroke:#000000;stroke-width:1.0;"/><text fill="#000000" font-family="sans-serif" font-size="13" lengthAdjust="spacing" textLength="31" x="461" y="513.0669">Data</text><!--MD5=[7237edb64a5a2ff692c4c4aff579e11a]
link SpeicherUtilities to AnalyseClient--><path codeLine="36" d="M263.811,468.123 C215.235,495.858 162.167,526.1569 125.784,546.9304 " fill="none" id="SpeicherUtilities-AnalyseClient" style="stroke:#A80036;stroke-width:1.0;"/><!--MD5=[b0bc53235038902673d53aaf3a34627f]
link ToolType to Data--><path codeLine="39" d="M344.032,93.146 C373.98,143.636 415.679,221.5 388,221.5 " fill="none" id="ToolType-Data" style="stroke:#A80036;stroke-width:1.0;"/><!--MD5=[e88a3dafddbe0e0084dcdf1854badf8d]
@startuml
' === Speichermedium ===
package Speichermedium {
      ' SpeicherUtilities
      class SpeicherUtilities {
         - Location: String
         __public method__
         + deleteData(data_client_input: String) : void
         + searchData(data_client_input: String) : Data
         + saveData(data: Data) : void
         + setLocation(config_input: String) : void
         + getLocation() : void
     }

      class Data {
         + type: SpeicherType
         + data: unknown
         + config_id: int
      }

      note right of Data
         Beinhaltet dann die Struktur/Variablen für die verschiedenen Daten, 
         die abgespeichert werden
      end note

      

      ' Interaktionen
      
      Data - - SpeicherUtilities

     ' Andere Module
     SpeicherUtilities::Location - - Config : < Location
     SpeicherUtilities::saveData - - CodeCharts : < Data
     SpeicherUtilities::saveData - - ZoomMaps : < Data
     SpeicherUtilities::saveData - - EyeTracking : < Data
     SpeicherUtilities - - AnalyseClient
}

ToolType - - Data::type

' ToolType
      enum ToolType {
         ZOOM
         EYETRACKING
         CODECHARTS
      }

' Blackboxen / Andere Module
 package Config {}

 package CodeCharts {}

 package ZoomMaps {}

 package EyeTracking {}

 package AnalyseClient {}
@enduml

@startuml
package Speichermedium {
      class SpeicherUtilities {
         - Location: String
         __public method__
         + deleteData(data_client_input: String) : void
         + searchData(data_client_input: String) : Data
         + saveData(data: Data) : void
         + setLocation(config_input: String) : void
         + getLocation() : void
     }

      class Data {
         + type: SpeicherType
         + data: unknown
         + config_id: int
      }

      note right of Data
         Beinhaltet dann die Struktur/Variablen für die verschiedenen Daten, 
         die abgespeichert werden
      end note

      

      
      Data - - SpeicherUtilities

     SpeicherUtilities::Location - - Config : < Location
     SpeicherUtilities::saveData - - CodeCharts : < Data
     SpeicherUtilities::saveData - - ZoomMaps : < Data
     SpeicherUtilities::saveData - - EyeTracking : < Data
     SpeicherUtilities - - AnalyseClient
}

ToolType - - Data::type

      enum ToolType {
         ZOOM
         EYETRACKING
         CODECHARTS
      }

 package Config {}

 package CodeCharts {}

 package ZoomMaps {}

 package EyeTracking {}

 package AnalyseClient {}
@enduml

PlantUML version 1.2021.14beta3(Unknown compile time)
(GPL source distribution)
Java Runtime: Java(TM) SE Runtime Environment
JVM: Java HotSpot(TM) 64-Bit Server VM
Default Encoding: UTF-8
Language: en
Country: US
--></g></svg>