<?xml version="1.0" encoding="UTF-8" standalone="no"?><svg xmlns="http://www.w3.org/2000/svg" xmlns:xlink="http://www.w3.org/1999/xlink" contentScriptType="application/ecmascript" contentStyleType="text/css" height="643px" preserveAspectRatio="none" style="width:982px;height:643px;background:#FFFFFF;" version="1.1" viewBox="0 0 982 643" width="982px" zoomAndPan="magnify"><defs><filter height="300%" id="f1qv0jm1jmkn6e" width="300%" x="-1" y="-1"><feGaussianBlur result="blurOut" stdDeviation="2.0"/><feColorMatrix in="blurOut" result="blurOut2" type="matrix" values="0 0 0 0 0 0 0 0 0 0 0 0 0 0 0 0 0 0 .4 0"/><feOffset dx="4.0" dy="4.0" in="blurOut2" result="blurOut3"/><feBlend in="SourceGraphic" in2="blurOut3" mode="normal"/></filter></defs><g><!--MD5=[3a4ecbc1d133d64cf2ebb2949f5932ed]
cluster Speichermedium--><polygon fill="#FFFFFF" filter="url(#f1qv0jm1jmkn6e)" points="223,331,362,331,369,353.2969,545,353.2969,545,521,223,521,223,331" style="stroke:#000000;stroke-width:1.5;"/><line style="stroke:#000000;stroke-width:1.5;" x1="223" x2="369" y1="353.2969" y2="353.2969"/><text fill="#000000" font-family="sans-serif" font-size="14" font-weight="bold" lengthAdjust="spacing" textLength="133" x="227" y="345.9951">Speichermedium</text><!--MD5=[a55135535b5c544b99c33b17428c3b14]
cluster Util--><polygon fill="#FFFFFF" filter="url(#f1qv0jm1jmkn6e)" points="295,6,330,6,337,28.2969,965,28.2969,965,298,295,298,295,6" style="stroke:#000000;stroke-width:1.5;"/><line style="stroke:#000000;stroke-width:1.5;" x1="295" x2="337" y1="28.2969" y2="28.2969"/><text fill="#000000" font-family="sans-serif" font-size="14" font-weight="bold" lengthAdjust="spacing" textLength="29" x="299" y="20.9951">Util</text><!--MD5=[827fa8af465d414750422ffafb762a0b]
class SpeicherUtilities--><rect codeLine="4" fill="#FEFECE" filter="url(#f1qv0jm1jmkn6e)" height="133.6328" id="SpeicherUtilities" style="stroke:#A80036;stroke-width:1.5;" width="273" x="247.5" y="370"/><ellipse cx="330.75" cy="386" fill="#ADD1B2" rx="11" ry="11" style="stroke:#A80036;stroke-width:1.0;"/><path d="M333.0938,381.6719 C332.1563,381.2344 331.5625,381.0938 330.6875,381.0938 C328.0625,381.0938 326.0625,383.1719 326.0625,385.8906 L326.0625,387.0156 C326.0625,389.5938 328.1719,391.4844 331.0625,391.4844 C332.2813,391.4844 333.4375,391.1875 334.1875,390.6406 C334.7656,390.2344 335.0938,389.7813 335.0938,389.3906 C335.0938,388.9375 334.7031,388.5469 334.2344,388.5469 C334.0156,388.5469 333.8125,388.625 333.625,388.8125 C333.1719,389.2969 333.1719,389.2969 332.9844,389.3906 C332.5625,389.6563 331.875,389.7813 331.1094,389.7813 C329.0625,389.7813 327.7656,388.6875 327.7656,386.9844 L327.7656,385.8906 C327.7656,384.1094 329.0156,382.7969 330.75,382.7969 C331.3281,382.7969 331.9375,382.9531 332.4063,383.2031 C332.8906,383.4844 333.0625,383.7031 333.1563,384.1094 C333.2188,384.5156 333.25,384.6406 333.3906,384.7656 C333.5313,384.9063 333.7656,385.0156 333.9844,385.0156 C334.25,385.0156 334.5156,384.875 334.6875,384.6563 C334.7969,384.5 334.8281,384.3125 334.8281,383.8906 L334.8281,382.4688 C334.8281,382.0313 334.8125,381.9063 334.7188,381.75 C334.5625,381.4844 334.2813,381.3438 333.9844,381.3438 C333.6875,381.3438 333.4844,381.4375 333.2656,381.75 L333.0938,381.6719 Z " fill="#000000"/><text fill="#000000" font-family="sans-serif" font-size="12" lengthAdjust="spacing" textLength="98" x="351.25" y="390.1543">SpeicherUtilities</text><line style="stroke:#A80036;stroke-width:1.5;" x1="248.5" x2="519.5" y1="402" y2="402"/><rect fill="none" height="6" style="stroke:#C82930;stroke-width:1.0;" width="6" x="255.5" y="410"/><text fill="#000000" font-family="sans-serif" font-size="11" lengthAdjust="spacing" textLength="87" x="267.5" y="416.2104">Location: String</text><ellipse cx="258.5" cy="442.6094" fill="#84BE84" rx="3" ry="3" style="stroke:#038048;stroke-width:1.0;"/><text fill="#000000" font-family="sans-serif" font-size="11" lengthAdjust="spacing" textLength="244" x="267.5" y="445.8198">deleteData(data_client_input: String) : void</text><ellipse cx="258.5" cy="455.4141" fill="#84BE84" rx="3" ry="3" style="stroke:#038048;stroke-width:1.0;"/><text fill="#000000" font-family="sans-serif" font-size="11" lengthAdjust="spacing" textLength="247" x="267.5" y="458.6245">searchData(data_client_input: String) : Data</text><ellipse cx="258.5" cy="468.2188" fill="#84BE84" rx="3" ry="3" style="stroke:#038048;stroke-width:1.0;"/><text fill="#000000" font-family="sans-serif" font-size="11" lengthAdjust="spacing" textLength="157" x="267.5" y="471.4292">saveData(data: Data) : void</text><ellipse cx="258.5" cy="481.0234" fill="#84BE84" rx="3" ry="3" style="stroke:#038048;stroke-width:1.0;"/><text fill="#000000" font-family="sans-serif" font-size="11" lengthAdjust="spacing" textLength="216" x="267.5" y="484.2339">setLocation(config_input: String) : void</text><ellipse cx="258.5" cy="493.8281" fill="#84BE84" rx="3" ry="3" style="stroke:#038048;stroke-width:1.0;"/><text fill="#000000" font-family="sans-serif" font-size="11" lengthAdjust="spacing" textLength="109" x="267.5" y="497.0386">getLocation() : void</text><line style="stroke:#A80036;stroke-width:1.5;" x1="248.5" x2="343.5" y1="429.207" y2="429.207"/><text fill="#000000" font-family="sans-serif" font-size="11" lengthAdjust="spacing" textLength="81" x="343.5" y="432.5151">public method</text><line style="stroke:#A80036;stroke-width:1.5;" x1="424.5" x2="519.5" y1="429.207" y2="429.207"/><!--MD5=[60c9ed31c535bee25c55ce21b5b01399]
class Data--><rect codeLine="26" fill="#FEFECE" filter="url(#f1qv0jm1jmkn6e)" height="86.4141" id="Data" style="stroke:#A80036;stroke-width:1.5;" width="129" x="319.5" y="192"/><ellipse cx="334.5" cy="208" fill="#ADD1B2" rx="11" ry="11" style="stroke:#A80036;stroke-width:1.0;"/><path d="M336.8438,203.6719 C335.9063,203.2344 335.3125,203.0938 334.4375,203.0938 C331.8125,203.0938 329.8125,205.1719 329.8125,207.8906 L329.8125,209.0156 C329.8125,211.5938 331.9219,213.4844 334.8125,213.4844 C336.0313,213.4844 337.1875,213.1875 337.9375,212.6406 C338.5156,212.2344 338.8438,211.7813 338.8438,211.3906 C338.8438,210.9375 338.4531,210.5469 337.9844,210.5469 C337.7656,210.5469 337.5625,210.625 337.375,210.8125 C336.9219,211.2969 336.9219,211.2969 336.7344,211.3906 C336.3125,211.6563 335.625,211.7813 334.8594,211.7813 C332.8125,211.7813 331.5156,210.6875 331.5156,208.9844 L331.5156,207.8906 C331.5156,206.1094 332.7656,204.7969 334.5,204.7969 C335.0781,204.7969 335.6875,204.9531 336.1563,205.2031 C336.6406,205.4844 336.8125,205.7031 336.9063,206.1094 C336.9688,206.5156 337,206.6406 337.1406,206.7656 C337.2813,206.9063 337.5156,207.0156 337.7344,207.0156 C338,207.0156 338.2656,206.875 338.4375,206.6563 C338.5469,206.5 338.5781,206.3125 338.5781,205.8906 L338.5781,204.4688 C338.5781,204.0313 338.5625,203.9063 338.4688,203.75 C338.3125,203.4844 338.0313,203.3438 337.7344,203.3438 C337.4375,203.3438 337.2344,203.4375 337.0156,203.75 L336.8438,203.6719 Z " fill="#000000"/><text fill="#000000" font-family="sans-serif" font-size="12" lengthAdjust="spacing" textLength="27" x="348.5" y="212.1543">Data</text><rect fill="#FFFFFF" height="15.9688" style="stroke:#000000;stroke-width:1.0;stroke-dasharray:2.0,2.0;" width="68" x="383.5" y="189"/><text fill="#000000" font-family="sans-serif" font-size="12" font-style="italic" lengthAdjust="spacing" textLength="66" x="384.5" y="201.1387">t: ToolType</text><line style="stroke:#A80036;stroke-width:1.5;" x1="320.5" x2="447.5" y1="224" y2="224"/><ellipse cx="330.5" cy="235" rx="3" ry="3" style="stroke:#038048;stroke-width:1.0;fill:none;"/><text fill="#000000" font-family="sans-serif" font-size="11" lengthAdjust="spacing" textLength="64" x="339.5" y="238.2104">t: ToolType</text><ellipse cx="330.5" cy="247.8047" rx="3" ry="3" style="stroke:#038048;stroke-width:1.0;fill:none;"/><text fill="#000000" font-family="sans-serif" font-size="11" lengthAdjust="spacing" textLength="82" x="339.5" y="251.0151">data: unknown</text><ellipse cx="330.5" cy="260.6094" rx="3" ry="3" style="stroke:#038048;stroke-width:1.0;fill:none;"/><text fill="#000000" font-family="sans-serif" font-size="11" lengthAdjust="spacing" textLength="71" x="339.5" y="263.8198">config_id: int</text><line style="stroke:#A80036;stroke-width:1.5;" x1="320.5" x2="447.5" y1="270.4141" y2="270.4141"/><path d="M491.5,215 L491.5,231 L456.516,235 L491.5,239 L491.5,255.2656 A0,0 0 0 0 491.5,255.2656 L948.5,255.2656 A0,0 0 0 0 948.5,255.2656 L948.5,225 L938.5,215 L491.5,215 A0,0 0 0 0 491.5,215 " fill="#FBFB77" filter="url(#f1qv0jm1jmkn6e)" style="stroke:#A80036;stroke-width:1.0;"/><path d="M938.5,215 L938.5,225 L948.5,225 L938.5,215 " fill="#FBFB77" style="stroke:#A80036;stroke-width:1.0;"/><text fill="#000000" font-family="sans-serif" font-size="13" lengthAdjust="spacing" textLength="432" x="497.5" y="232.0669">Beinhaltet dann die Struktur/Variablen für die verschiedenen Daten,</text><text fill="#000000" font-family="sans-serif" font-size="13" lengthAdjust="spacing" textLength="166" x="497.5" y="247.1997">die abgespeichert werden</text><!--MD5=[5c39798b83ace9e75333b1274a725e6c]
class ToolType--><rect codeLine="45" fill="#FEFECE" filter="url(#f1qv0jm1jmkn6e)" height="86.4141" id="ToolType" style="stroke:#A80036;stroke-width:1.5;" width="91" x="338.5" y="41"/><ellipse cx="354.85" cy="57" fill="#EB937F" rx="11" ry="11" style="stroke:#A80036;stroke-width:1.0;"/><path d="M353.6469,57.875 L355.1,57.875 L355.1,57.9844 C355.1,58.3906 355.1313,58.5469 355.2094,58.7031 C355.3656,58.9531 355.6469,59.1094 355.9438,59.1094 C356.1938,59.1094 356.4594,58.9688 356.6156,58.75 C356.7406,58.5938 356.7719,58.4375 356.7719,57.9844 L356.7719,56.0625 C356.7719,55.9063 356.7719,55.8594 356.7563,55.7031 C356.6938,55.2344 356.3813,54.9219 355.9281,54.9219 C355.6781,54.9219 355.4125,55.0625 355.2406,55.2813 C355.1313,55.4531 355.1,55.6094 355.1,56.0625 L355.1,56.1875 L353.6469,56.1875 L353.6469,53.7813 L357.6313,53.7813 L357.6313,54.6406 C357.6313,55.0469 357.6625,55.2188 357.7406,55.375 C357.9125,55.625 358.1938,55.7813 358.475,55.7813 C358.7406,55.7813 359.0063,55.6406 359.1781,55.4219 C359.2875,55.25 359.3188,55.1094 359.3188,54.6406 L359.3188,52.0938 L351.6938,52.0938 C351.2563,52.0938 351.1313,52.1094 350.975,52.2031 C350.725,52.3594 350.5688,52.6563 350.5688,52.9375 C350.5688,53.2188 350.7094,53.4688 350.9281,53.6406 C351.0844,53.75 351.2719,53.7813 351.6938,53.7813 L351.9438,53.7813 L351.9438,60.2969 L351.6938,60.2969 C351.2875,60.2969 351.1313,60.3125 350.975,60.4219 C350.725,60.5938 350.5688,60.8594 350.5688,61.1563 C350.5688,61.4219 350.7094,61.6719 350.9281,61.8281 C351.0688,61.9531 351.3031,62 351.6938,62 L359.6938,62 L359.6938,59.4219 C359.6938,58.9844 359.6625,58.8438 359.5844,58.6875 C359.4125,58.4375 359.1313,58.2813 358.85,58.2813 C358.5844,58.2813 358.3188,58.3906 358.1469,58.6406 C358.0375,58.7969 358.0063,58.9375 358.0063,59.4219 L358.0063,60.2969 L353.6469,60.2969 L353.6469,57.875 Z " fill="#000000"/><text fill="#000000" font-family="sans-serif" font-size="12" lengthAdjust="spacing" textLength="56" x="369.15" y="61.1543">ToolType</text><line style="stroke:#A80036;stroke-width:1.5;" x1="339.5" x2="428.5" y1="73" y2="73"/><text fill="#000000" font-family="sans-serif" font-size="11" lengthAdjust="spacing" textLength="35" x="344.5" y="87.2104">ZOOM</text><text fill="#000000" font-family="sans-serif" font-size="11" lengthAdjust="spacing" textLength="78" x="344.5" y="100.0151">EYETRACKING</text><text fill="#000000" font-family="sans-serif" font-size="11" lengthAdjust="spacing" textLength="79" x="344.5" y="112.8198">CODECHARTS</text><line style="stroke:#A80036;stroke-width:1.5;" x1="339.5" x2="428.5" y1="119.4141" y2="119.4141"/><polygon fill="#FFFFFF" filter="url(#f1qv0jm1jmkn6e)" points="628,584,686,584,693,606.2969,700,606.2969,700,636.5938,628,636.5938,628,584" style="stroke:#000000;stroke-width:1.5;"/><line style="stroke:#000000;stroke-width:1.5;" x1="628" x2="693" y1="606.2969" y2="606.2969"/><text fill="#000000" font-family="sans-serif" font-size="14" font-weight="bold" lengthAdjust="spacing" textLength="52" x="632" y="598.9951">Config</text><polygon fill="#FFFFFF" filter="url(#f1qv0jm1jmkn6e)" points="479.5,584,578.5,584,585.5,606.2969,592.5,606.2969,592.5,636.5938,479.5,636.5938,479.5,584" style="stroke:#000000;stroke-width:1.5;"/><line style="stroke:#000000;stroke-width:1.5;" x1="479.5" x2="585.5" y1="606.2969" y2="606.2969"/><text fill="#000000" font-family="sans-serif" font-size="14" font-weight="bold" lengthAdjust="spacing" textLength="93" x="483.5" y="598.9951">CodeCharts</text><polygon fill="#FFFFFF" filter="url(#f1qv0jm1jmkn6e)" points="181.5,584,276.5,584,283.5,606.2969,290.5,606.2969,290.5,636.5938,181.5,636.5938,181.5,584" style="stroke:#000000;stroke-width:1.5;"/><line style="stroke:#000000;stroke-width:1.5;" x1="181.5" x2="283.5" y1="606.2969" y2="606.2969"/><text fill="#000000" font-family="sans-serif" font-size="14" font-weight="bold" lengthAdjust="spacing" textLength="89" x="185.5" y="598.9951">ZoomMaps</text><polygon fill="#FFFFFF" filter="url(#f1qv0jm1jmkn6e)" points="326,584,430,584,437,606.2969,444,606.2969,444,636.5938,326,636.5938,326,584" style="stroke:#000000;stroke-width:1.5;"/><line style="stroke:#000000;stroke-width:1.5;" x1="326" x2="437" y1="606.2969" y2="606.2969"/><text fill="#000000" font-family="sans-serif" font-size="14" font-weight="bold" lengthAdjust="spacing" textLength="98" x="330" y="598.9951">EyeTracking</text><polygon fill="#FFFFFF" filter="url(#f1qv0jm1jmkn6e)" points="16,584,132,584,139,606.2969,146,606.2969,146,636.5938,16,636.5938,16,584" style="stroke:#000000;stroke-width:1.5;"/><line style="stroke:#000000;stroke-width:1.5;" x1="16" x2="139" y1="606.2969" y2="606.2969"/><text fill="#000000" font-family="sans-serif" font-size="14" font-weight="bold" lengthAdjust="spacing" textLength="110" x="20" y="598.9951">AnalyseClient</text><!--MD5=[be61eeeb27be34ef4ae07c1a066952f1]
link SpeicherUtilities to Config--><path codeLine="17" d="M522,412.5 C605.477,412.5 644.771,530.346 658.291,583.7457 " fill="none" id="SpeicherUtilities-Config" style="stroke:#A80036;stroke-width:1.0;"/><polygon fill="#000000" points="651.8864,541.6542,655.2195,550.5616,659.8185,546.9013,651.8864,541.6542" style="stroke:#000000;stroke-width:1.0;"/><text fill="#000000" font-family="sans-serif" font-size="13" lengthAdjust="spacing" textLength="54" x="664" y="550.0669">Location</text><!--MD5=[49d6d0147e3b94482ce135b8a0be2af5]
link SpeicherUtilities to CodeCharts--><path codeLine="18" d="M522,466.5 C568.647,466.5 554.616,542.8026 543.663,583.9345 " fill="none" id="SpeicherUtilities-CodeCharts" style="stroke:#A80036;stroke-width:1.0;"/><polygon fill="#000000" points="557.093,540.6494,555.8436,550.0775,561.624,549.0112,557.093,540.6494" style="stroke:#000000;stroke-width:1.0;"/><text fill="#000000" font-family="sans-serif" font-size="13" lengthAdjust="spacing" textLength="31" x="567" y="550.0669">Data</text><!--MD5=[a5b1ade112710dc4f95c1b1987853db1]
link SpeicherUtilities to ZoomMaps--><path codeLine="19" d="M247,466.5 C200.438,466.5 216.03,542.8026 227.819,583.9345 " fill="none" id="SpeicherUtilities-ZoomMaps" style="stroke:#A80036;stroke-width:1.0;"/><polygon fill="#000000" points="226.806,540.6318,222.4475,549.0848,228.2484,550.0323,226.806,540.6318" style="stroke:#000000;stroke-width:1.0;"/><text fill="#000000" font-family="sans-serif" font-size="13" lengthAdjust="spacing" textLength="31" x="235" y="550.0669">Data</text><!--MD5=[389cbc08bfc7a7d01aa6d7f2a706f8d1]
link SpeicherUtilities to EyeTracking--><path codeLine="20" d="M522,466.5 C539.117,466.5 530.584,490.818 521,505 C500.936,534.688 475.832,515.724 447,537 C429.543,549.8822 413.717,568.5648 402.424,583.7382 " fill="none" id="SpeicherUtilities-EyeTracking" style="stroke:#A80036;stroke-width:1.0;"/><polygon fill="#000000" points="455.5703,542.0659,447.0541,546.2998,451.1691,550.4969,455.5703,542.0659" style="stroke:#000000;stroke-width:1.0;"/><text fill="#000000" font-family="sans-serif" font-size="13" lengthAdjust="spacing" textLength="31" x="461" y="550.0669">Data</text><!--MD5=[7237edb64a5a2ff692c4c4aff579e11a]
link SpeicherUtilities to AnalyseClient--><path codeLine="21" d="M263.811,505.123 C215.235,532.858 162.167,563.1569 125.784,583.9304 " fill="none" id="SpeicherUtilities-AnalyseClient" style="stroke:#A80036;stroke-width:1.0;"/><!--MD5=[a78a7d238e72dddcc847ae6ac6950621]
link Data to SpeicherUtilities--><path codeLine="41" d="M384,282.039 C384,306.892 384,338.064 384,365.736 " fill="none" id="Data-SpeicherUtilities" style="stroke:#A80036;stroke-width:1.0;"/><!--MD5=[b0bc53235038902673d53aaf3a34627f]
link ToolType to Data--><path codeLine="42" d="M384,127.299 C384,146.227 384,168.589 384,187.939 " fill="none" id="ToolType-Data" style="stroke:#A80036;stroke-width:1.0;"/><!--MD5=[288312880f03c4976a35961f009d216c]
@startuml
' === Speichermedium ===
package Speichermedium {
      ' SpeicherUtilities
      class SpeicherUtilities {
         - Location: String
         __public method__
         + deleteData(data_client_input: String) : void
         + searchData(data_client_input: String) : Data
         + saveData(data: Data) : void
         + setLocation(config_input: String) : void
         + getLocation() : void
     }

      

     ' Andere Module
     SpeicherUtilities::Location - - Config : < Location
     SpeicherUtilities::saveData - - CodeCharts : < Data
     SpeicherUtilities::saveData - - ZoomMaps : < Data
     SpeicherUtilities::saveData - - EyeTracking : < Data
     SpeicherUtilities - - AnalyseClient
}

package Util {

class Data<t: ToolType> {
         + t: ToolType
         + data: unknown
         + config_id: int
     }

note right of Data
   Beinhaltet dann die Struktur/Variablen für die verschiedenen Daten, 
   die abgespeichert werden
end note

      

' Interaktionen
      
Data - - SpeicherUtilities
ToolType - - Data::type

' ToolType
      enum ToolType {
       ZOOM
       EYETRACKING
       CODECHARTS
     }

}
' Blackboxen / Andere Module
 package Config {}

 package CodeCharts {}

 package ZoomMaps {}

 package EyeTracking {}

 package AnalyseClient {}
@enduml

@startuml
package Speichermedium {
      class SpeicherUtilities {
         - Location: String
         __public method__
         + deleteData(data_client_input: String) : void
         + searchData(data_client_input: String) : Data
         + saveData(data: Data) : void
         + setLocation(config_input: String) : void
         + getLocation() : void
     }

      

     SpeicherUtilities::Location - - Config : < Location
     SpeicherUtilities::saveData - - CodeCharts : < Data
     SpeicherUtilities::saveData - - ZoomMaps : < Data
     SpeicherUtilities::saveData - - EyeTracking : < Data
     SpeicherUtilities - - AnalyseClient
}

package Util {

class Data<t: ToolType> {
         + t: ToolType
         + data: unknown
         + config_id: int
     }

note right of Data
   Beinhaltet dann die Struktur/Variablen für die verschiedenen Daten, 
   die abgespeichert werden
end note

      

      
Data - - SpeicherUtilities
ToolType - - Data::type

      enum ToolType {
       ZOOM
       EYETRACKING
       CODECHARTS
     }

}
 package Config {}

 package CodeCharts {}

 package ZoomMaps {}

 package EyeTracking {}

 package AnalyseClient {}
@enduml

PlantUML version 1.2021.14beta3(Unknown compile time)
(GPL source distribution)
Java Runtime: Java(TM) SE Runtime Environment
JVM: Java HotSpot(TM) 64-Bit Server VM
Default Encoding: UTF-8
Language: en
Country: US
--></g></svg>