<?xml version="1.0" encoding="UTF-8" standalone="no"?><svg xmlns="http://www.w3.org/2000/svg" xmlns:xlink="http://www.w3.org/1999/xlink" contentScriptType="application/ecmascript" contentStyleType="text/css" height="642px" preserveAspectRatio="none" style="width:987px;height:642px;background:#FFFFFF;" version="1.1" viewBox="0 0 987 642" width="987px" zoomAndPan="magnify"><defs><filter height="300%" id="f16uegqcg7mswc" width="300%" x="-1" y="-1"><feGaussianBlur result="blurOut" stdDeviation="2.0"/><feColorMatrix in="blurOut" result="blurOut2" type="matrix" values="0 0 0 0 0 0 0 0 0 0 0 0 0 0 0 0 0 0 .4 0"/><feOffset dx="4.0" dy="4.0" in="blurOut2" result="blurOut3"/><feBlend in="SourceGraphic" in2="blurOut3" mode="normal"/></filter></defs><g><!--MD5=[3a4ecbc1d133d64cf2ebb2949f5932ed]
cluster Speichermedium--><polygon fill="#FFFFFF" filter="url(#f16uegqcg7mswc)" points="223,330,362,330,369,352.2969,545,352.2969,545,520,223,520,223,330" style="stroke:#000000;stroke-width:1.5;"/><line style="stroke:#000000;stroke-width:1.5;" x1="223" x2="369" y1="352.2969" y2="352.2969"/><text fill="#000000" font-family="sans-serif" font-size="14" font-weight="bold" lengthAdjust="spacing" textLength="133" x="227" y="344.9951">Speichermedium</text><!--MD5=[50a10f244c55f97e1e307b9b7c69d114]
cluster LayoutData--><polygon fill="#FFFFFF" filter="url(#f16uegqcg7mswc)" points="290,6,391,6,398,28.2969,970,28.2969,970,297,290,297,290,6" style="stroke:#000000;stroke-width:1.5;"/><line style="stroke:#000000;stroke-width:1.5;" x1="290" x2="398" y1="28.2969" y2="28.2969"/><text fill="#000000" font-family="sans-serif" font-size="14" font-weight="bold" lengthAdjust="spacing" textLength="95" x="294" y="20.9951">LayoutData</text><!--MD5=[827fa8af465d414750422ffafb762a0b]
class SpeicherUtilities--><rect codeLine="4" fill="#FEFECE" filter="url(#f16uegqcg7mswc)" height="133.6328" id="SpeicherUtilities" style="stroke:#A80036;stroke-width:1.5;" width="273" x="247.5" y="369"/><ellipse cx="330.75" cy="385" fill="#ADD1B2" rx="11" ry="11" style="stroke:#A80036;stroke-width:1.0;"/><path d="M333.0938,380.6719 C332.1563,380.2344 331.5625,380.0938 330.6875,380.0938 C328.0625,380.0938 326.0625,382.1719 326.0625,384.8906 L326.0625,386.0156 C326.0625,388.5938 328.1719,390.4844 331.0625,390.4844 C332.2813,390.4844 333.4375,390.1875 334.1875,389.6406 C334.7656,389.2344 335.0938,388.7813 335.0938,388.3906 C335.0938,387.9375 334.7031,387.5469 334.2344,387.5469 C334.0156,387.5469 333.8125,387.625 333.625,387.8125 C333.1719,388.2969 333.1719,388.2969 332.9844,388.3906 C332.5625,388.6563 331.875,388.7813 331.1094,388.7813 C329.0625,388.7813 327.7656,387.6875 327.7656,385.9844 L327.7656,384.8906 C327.7656,383.1094 329.0156,381.7969 330.75,381.7969 C331.3281,381.7969 331.9375,381.9531 332.4063,382.2031 C332.8906,382.4844 333.0625,382.7031 333.1563,383.1094 C333.2188,383.5156 333.25,383.6406 333.3906,383.7656 C333.5313,383.9063 333.7656,384.0156 333.9844,384.0156 C334.25,384.0156 334.5156,383.875 334.6875,383.6563 C334.7969,383.5 334.8281,383.3125 334.8281,382.8906 L334.8281,381.4688 C334.8281,381.0313 334.8125,380.9063 334.7188,380.75 C334.5625,380.4844 334.2813,380.3438 333.9844,380.3438 C333.6875,380.3438 333.4844,380.4375 333.2656,380.75 L333.0938,380.6719 Z " fill="#000000"/><text fill="#000000" font-family="sans-serif" font-size="12" lengthAdjust="spacing" textLength="98" x="351.25" y="389.1543">SpeicherUtilities</text><line style="stroke:#A80036;stroke-width:1.5;" x1="248.5" x2="519.5" y1="401" y2="401"/><rect fill="none" height="6" style="stroke:#C82930;stroke-width:1.0;" width="6" x="255.5" y="409"/><text fill="#000000" font-family="sans-serif" font-size="11" lengthAdjust="spacing" textLength="87" x="267.5" y="415.2104">Location: String</text><ellipse cx="258.5" cy="441.6094" fill="#84BE84" rx="3" ry="3" style="stroke:#038048;stroke-width:1.0;"/><text fill="#000000" font-family="sans-serif" font-size="11" lengthAdjust="spacing" textLength="244" x="267.5" y="444.8198">deleteData(data_client_input: String) : void</text><ellipse cx="258.5" cy="454.4141" fill="#84BE84" rx="3" ry="3" style="stroke:#038048;stroke-width:1.0;"/><text fill="#000000" font-family="sans-serif" font-size="11" lengthAdjust="spacing" textLength="247" x="267.5" y="457.6245">searchData(data_client_input: String) : Data</text><ellipse cx="258.5" cy="467.2188" fill="#84BE84" rx="3" ry="3" style="stroke:#038048;stroke-width:1.0;"/><text fill="#000000" font-family="sans-serif" font-size="11" lengthAdjust="spacing" textLength="157" x="267.5" y="470.4292">saveData(data: Data) : void</text><ellipse cx="258.5" cy="480.0234" fill="#84BE84" rx="3" ry="3" style="stroke:#038048;stroke-width:1.0;"/><text fill="#000000" font-family="sans-serif" font-size="11" lengthAdjust="spacing" textLength="216" x="267.5" y="483.2339">setLocation(config_input: String) : void</text><ellipse cx="258.5" cy="492.8281" fill="#84BE84" rx="3" ry="3" style="stroke:#038048;stroke-width:1.0;"/><text fill="#000000" font-family="sans-serif" font-size="11" lengthAdjust="spacing" textLength="109" x="267.5" y="496.0386">getLocation() : void</text><line style="stroke:#A80036;stroke-width:1.5;" x1="248.5" x2="343.5" y1="428.207" y2="428.207"/><text fill="#000000" font-family="sans-serif" font-size="11" lengthAdjust="spacing" textLength="81" x="343.5" y="431.5151">public method</text><line style="stroke:#A80036;stroke-width:1.5;" x1="424.5" x2="519.5" y1="428.207" y2="428.207"/><!--MD5=[60c9ed31c535bee25c55ce21b5b01399]
class Data--><rect codeLine="26" fill="#FEFECE" filter="url(#f16uegqcg7mswc)" height="86.4141" id="Data" style="stroke:#A80036;stroke-width:1.5;" width="139" x="314.5" y="192"/><ellipse cx="366.25" cy="208" fill="#ADD1B2" rx="11" ry="11" style="stroke:#A80036;stroke-width:1.0;"/><path d="M368.5938,203.6719 C367.6563,203.2344 367.0625,203.0938 366.1875,203.0938 C363.5625,203.0938 361.5625,205.1719 361.5625,207.8906 L361.5625,209.0156 C361.5625,211.5938 363.6719,213.4844 366.5625,213.4844 C367.7813,213.4844 368.9375,213.1875 369.6875,212.6406 C370.2656,212.2344 370.5938,211.7813 370.5938,211.3906 C370.5938,210.9375 370.2031,210.5469 369.7344,210.5469 C369.5156,210.5469 369.3125,210.625 369.125,210.8125 C368.6719,211.2969 368.6719,211.2969 368.4844,211.3906 C368.0625,211.6563 367.375,211.7813 366.6094,211.7813 C364.5625,211.7813 363.2656,210.6875 363.2656,208.9844 L363.2656,207.8906 C363.2656,206.1094 364.5156,204.7969 366.25,204.7969 C366.8281,204.7969 367.4375,204.9531 367.9063,205.2031 C368.3906,205.4844 368.5625,205.7031 368.6563,206.1094 C368.7188,206.5156 368.75,206.6406 368.8906,206.7656 C369.0313,206.9063 369.2656,207.0156 369.4844,207.0156 C369.75,207.0156 370.0156,206.875 370.1875,206.6563 C370.2969,206.5 370.3281,206.3125 370.3281,205.8906 L370.3281,204.4688 C370.3281,204.0313 370.3125,203.9063 370.2188,203.75 C370.0625,203.4844 369.7813,203.3438 369.4844,203.3438 C369.1875,203.3438 368.9844,203.4375 368.7656,203.75 L368.5938,203.6719 Z " fill="#000000"/><text fill="#000000" font-family="sans-serif" font-size="12" lengthAdjust="spacing" textLength="27" x="386.75" y="212.1543">Data</text><line style="stroke:#A80036;stroke-width:1.5;" x1="315.5" x2="452.5" y1="224" y2="224"/><ellipse cx="325.5" cy="235" rx="3" ry="3" style="stroke:#038048;stroke-width:1.0;fill:none;"/><text fill="#000000" font-family="sans-serif" font-size="11" lengthAdjust="spacing" textLength="113" x="334.5" y="238.2104">type: SpeicherType</text><ellipse cx="325.5" cy="247.8047" rx="3" ry="3" style="stroke:#038048;stroke-width:1.0;fill:none;"/><text fill="#000000" font-family="sans-serif" font-size="11" lengthAdjust="spacing" textLength="82" x="334.5" y="251.0151">data: unknown</text><ellipse cx="325.5" cy="260.6094" rx="3" ry="3" style="stroke:#038048;stroke-width:1.0;fill:none;"/><text fill="#000000" font-family="sans-serif" font-size="11" lengthAdjust="spacing" textLength="71" x="334.5" y="263.8198">config_id: int</text><line style="stroke:#A80036;stroke-width:1.5;" x1="315.5" x2="452.5" y1="270.4141" y2="270.4141"/><path d="M496.5,214.5 L496.5,230.5 L461.591,234.5 L496.5,238.5 L496.5,254.7656 A0,0 0 0 0 496.5,254.7656 L953.5,254.7656 A0,0 0 0 0 953.5,254.7656 L953.5,224.5 L943.5,214.5 L496.5,214.5 A0,0 0 0 0 496.5,214.5 " fill="#FBFB77" filter="url(#f16uegqcg7mswc)" style="stroke:#A80036;stroke-width:1.0;"/><path d="M943.5,214.5 L943.5,224.5 L953.5,224.5 L943.5,214.5 " fill="#FBFB77" style="stroke:#A80036;stroke-width:1.0;"/><text fill="#000000" font-family="sans-serif" font-size="13" lengthAdjust="spacing" textLength="432" x="502.5" y="231.5669">Beinhaltet dann die Struktur/Variablen für die verschiedenen Daten,</text><text fill="#000000" font-family="sans-serif" font-size="13" lengthAdjust="spacing" textLength="166" x="502.5" y="246.6997">die abgespeichert werden</text><!--MD5=[5c39798b83ace9e75333b1274a725e6c]
class ToolType--><rect codeLine="46" fill="#FEFECE" filter="url(#f16uegqcg7mswc)" height="86.4141" id="ToolType" style="stroke:#A80036;stroke-width:1.5;" width="91" x="339.5" y="41"/><ellipse cx="355.85" cy="57" fill="#EB937F" rx="11" ry="11" style="stroke:#A80036;stroke-width:1.0;"/><path d="M354.6469,57.875 L356.1,57.875 L356.1,57.9844 C356.1,58.3906 356.1313,58.5469 356.2094,58.7031 C356.3656,58.9531 356.6469,59.1094 356.9438,59.1094 C357.1938,59.1094 357.4594,58.9688 357.6156,58.75 C357.7406,58.5938 357.7719,58.4375 357.7719,57.9844 L357.7719,56.0625 C357.7719,55.9063 357.7719,55.8594 357.7563,55.7031 C357.6938,55.2344 357.3813,54.9219 356.9281,54.9219 C356.6781,54.9219 356.4125,55.0625 356.2406,55.2813 C356.1313,55.4531 356.1,55.6094 356.1,56.0625 L356.1,56.1875 L354.6469,56.1875 L354.6469,53.7813 L358.6313,53.7813 L358.6313,54.6406 C358.6313,55.0469 358.6625,55.2188 358.7406,55.375 C358.9125,55.625 359.1938,55.7813 359.475,55.7813 C359.7406,55.7813 360.0063,55.6406 360.1781,55.4219 C360.2875,55.25 360.3188,55.1094 360.3188,54.6406 L360.3188,52.0938 L352.6938,52.0938 C352.2563,52.0938 352.1313,52.1094 351.975,52.2031 C351.725,52.3594 351.5688,52.6563 351.5688,52.9375 C351.5688,53.2188 351.7094,53.4688 351.9281,53.6406 C352.0844,53.75 352.2719,53.7813 352.6938,53.7813 L352.9438,53.7813 L352.9438,60.2969 L352.6938,60.2969 C352.2875,60.2969 352.1313,60.3125 351.975,60.4219 C351.725,60.5938 351.5688,60.8594 351.5688,61.1563 C351.5688,61.4219 351.7094,61.6719 351.9281,61.8281 C352.0688,61.9531 352.3031,62 352.6938,62 L360.6938,62 L360.6938,59.4219 C360.6938,58.9844 360.6625,58.8438 360.5844,58.6875 C360.4125,58.4375 360.1313,58.2813 359.85,58.2813 C359.5844,58.2813 359.3188,58.3906 359.1469,58.6406 C359.0375,58.7969 359.0063,58.9375 359.0063,59.4219 L359.0063,60.2969 L354.6469,60.2969 L354.6469,57.875 Z " fill="#000000"/><text fill="#000000" font-family="sans-serif" font-size="12" lengthAdjust="spacing" textLength="56" x="370.15" y="61.1543">ToolType</text><line style="stroke:#A80036;stroke-width:1.5;" x1="340.5" x2="429.5" y1="73" y2="73"/><text fill="#000000" font-family="sans-serif" font-size="11" lengthAdjust="spacing" textLength="35" x="345.5" y="87.2104">ZOOM</text><text fill="#000000" font-family="sans-serif" font-size="11" lengthAdjust="spacing" textLength="78" x="345.5" y="100.0151">EYETRACKING</text><text fill="#000000" font-family="sans-serif" font-size="11" lengthAdjust="spacing" textLength="79" x="345.5" y="112.8198">CODECHARTS</text><line style="stroke:#A80036;stroke-width:1.5;" x1="340.5" x2="429.5" y1="119.4141" y2="119.4141"/><polygon fill="#FFFFFF" filter="url(#f16uegqcg7mswc)" points="628,583,686,583,693,605.2969,700,605.2969,700,635.5938,628,635.5938,628,583" style="stroke:#000000;stroke-width:1.5;"/><line style="stroke:#000000;stroke-width:1.5;" x1="628" x2="693" y1="605.2969" y2="605.2969"/><text fill="#000000" font-family="sans-serif" font-size="14" font-weight="bold" lengthAdjust="spacing" textLength="52" x="632" y="597.9951">Config</text><polygon fill="#FFFFFF" filter="url(#f16uegqcg7mswc)" points="479.5,583,578.5,583,585.5,605.2969,592.5,605.2969,592.5,635.5938,479.5,635.5938,479.5,583" style="stroke:#000000;stroke-width:1.5;"/><line style="stroke:#000000;stroke-width:1.5;" x1="479.5" x2="585.5" y1="605.2969" y2="605.2969"/><text fill="#000000" font-family="sans-serif" font-size="14" font-weight="bold" lengthAdjust="spacing" textLength="93" x="483.5" y="597.9951">CodeCharts</text><polygon fill="#FFFFFF" filter="url(#f16uegqcg7mswc)" points="181.5,583,276.5,583,283.5,605.2969,290.5,605.2969,290.5,635.5938,181.5,635.5938,181.5,583" style="stroke:#000000;stroke-width:1.5;"/><line style="stroke:#000000;stroke-width:1.5;" x1="181.5" x2="283.5" y1="605.2969" y2="605.2969"/><text fill="#000000" font-family="sans-serif" font-size="14" font-weight="bold" lengthAdjust="spacing" textLength="89" x="185.5" y="597.9951">ZoomMaps</text><polygon fill="#FFFFFF" filter="url(#f16uegqcg7mswc)" points="326,583,430,583,437,605.2969,444,605.2969,444,635.5938,326,635.5938,326,583" style="stroke:#000000;stroke-width:1.5;"/><line style="stroke:#000000;stroke-width:1.5;" x1="326" x2="437" y1="605.2969" y2="605.2969"/><text fill="#000000" font-family="sans-serif" font-size="14" font-weight="bold" lengthAdjust="spacing" textLength="98" x="330" y="597.9951">EyeTracking</text><polygon fill="#FFFFFF" filter="url(#f16uegqcg7mswc)" points="16,583,132,583,139,605.2969,146,605.2969,146,635.5938,16,635.5938,16,583" style="stroke:#000000;stroke-width:1.5;"/><line style="stroke:#000000;stroke-width:1.5;" x1="16" x2="139" y1="605.2969" y2="605.2969"/><text fill="#000000" font-family="sans-serif" font-size="14" font-weight="bold" lengthAdjust="spacing" textLength="110" x="20" y="597.9951">AnalyseClient</text><!--MD5=[be61eeeb27be34ef4ae07c1a066952f1]
link SpeicherUtilities to Config--><path codeLine="17" d="M522,411.5 C605.477,411.5 644.771,529.346 658.291,582.7457 " fill="none" id="SpeicherUtilities-Config" style="stroke:#A80036;stroke-width:1.0;"/><polygon fill="#000000" points="651.8864,540.6542,655.2195,549.5616,659.8185,545.9013,651.8864,540.6542" style="stroke:#000000;stroke-width:1.0;"/><text fill="#000000" font-family="sans-serif" font-size="13" lengthAdjust="spacing" textLength="54" x="664" y="549.0669">Location</text><!--MD5=[49d6d0147e3b94482ce135b8a0be2af5]
link SpeicherUtilities to CodeCharts--><path codeLine="18" d="M522,465.5 C568.647,465.5 554.616,541.8026 543.663,582.9345 " fill="none" id="SpeicherUtilities-CodeCharts" style="stroke:#A80036;stroke-width:1.0;"/><polygon fill="#000000" points="557.093,539.6494,555.8436,549.0775,561.624,548.0112,557.093,539.6494" style="stroke:#000000;stroke-width:1.0;"/><text fill="#000000" font-family="sans-serif" font-size="13" lengthAdjust="spacing" textLength="31" x="567" y="549.0669">Data</text><!--MD5=[a5b1ade112710dc4f95c1b1987853db1]
link SpeicherUtilities to ZoomMaps--><path codeLine="19" d="M247,465.5 C200.438,465.5 216.03,541.8026 227.819,582.9345 " fill="none" id="SpeicherUtilities-ZoomMaps" style="stroke:#A80036;stroke-width:1.0;"/><polygon fill="#000000" points="226.806,539.6318,222.4475,548.0848,228.2484,549.0323,226.806,539.6318" style="stroke:#000000;stroke-width:1.0;"/><text fill="#000000" font-family="sans-serif" font-size="13" lengthAdjust="spacing" textLength="31" x="235" y="549.0669">Data</text><!--MD5=[389cbc08bfc7a7d01aa6d7f2a706f8d1]
link SpeicherUtilities to EyeTracking--><path codeLine="20" d="M522,465.5 C539.117,465.5 530.584,489.818 521,504 C500.936,533.688 475.832,514.724 447,536 C429.543,548.8822 413.717,567.5648 402.424,582.7382 " fill="none" id="SpeicherUtilities-EyeTracking" style="stroke:#A80036;stroke-width:1.0;"/><polygon fill="#000000" points="455.5703,541.0659,447.0541,545.2998,451.1691,549.4969,455.5703,541.0659" style="stroke:#000000;stroke-width:1.0;"/><text fill="#000000" font-family="sans-serif" font-size="13" lengthAdjust="spacing" textLength="31" x="461" y="549.0669">Data</text><!--MD5=[7237edb64a5a2ff692c4c4aff579e11a]
link SpeicherUtilities to AnalyseClient--><path codeLine="21" d="M263.811,504.123 C215.235,531.858 162.167,562.1569 125.784,582.9304 " fill="none" id="SpeicherUtilities-AnalyseClient" style="stroke:#A80036;stroke-width:1.0;"/><!--MD5=[a78a7d238e72dddcc847ae6ac6950621]
link Data to SpeicherUtilities--><path codeLine="41" d="M384,281.423 C384,306.213 384,337.307 384,364.909 " fill="none" id="Data-SpeicherUtilities" style="stroke:#A80036;stroke-width:1.0;"/><!--MD5=[b0bc53235038902673d53aaf3a34627f]
link ToolType to Data--><path codeLine="43" d="M422.182,127.042 C458.754,171.26 502.717,234.5 455,234.5 " fill="none" id="ToolType-Data" style="stroke:#A80036;stroke-width:1.0;"/><!--MD5=[bec4e819430ed6ac4aa74d59f75dc8e0]
@startuml
' === Speichermedium ===
package Speichermedium {
      ' SpeicherUtilities
      class SpeicherUtilities {
         - Location: String
         __public method__
         + deleteData(data_client_input: String) : void
         + searchData(data_client_input: String) : Data
         + saveData(data: Data) : void
         + setLocation(config_input: String) : void
         + getLocation() : void
     }

      

     ' Andere Module
     SpeicherUtilities::Location - - Config : < Location
     SpeicherUtilities::saveData - - CodeCharts : < Data
     SpeicherUtilities::saveData - - ZoomMaps : < Data
     SpeicherUtilities::saveData - - EyeTracking : < Data
     SpeicherUtilities - - AnalyseClient
}

package LayoutData {

class Data {
   + type: SpeicherType
   + data: unknown
   + config_id: int
}

note right of Data
   Beinhaltet dann die Struktur/Variablen für die verschiedenen Daten, 
   die abgespeichert werden
end note

      

' Interaktionen
      
Data - - SpeicherUtilities

ToolType - - Data::type

' ToolType
      enum ToolType {
         ZOOM
         EYETRACKING
         CODECHARTS
      }

}
' Blackboxen / Andere Module
 package Config {}

 package CodeCharts {}

 package ZoomMaps {}

 package EyeTracking {}

 package AnalyseClient {}
@enduml

@startuml
package Speichermedium {
      class SpeicherUtilities {
         - Location: String
         __public method__
         + deleteData(data_client_input: String) : void
         + searchData(data_client_input: String) : Data
         + saveData(data: Data) : void
         + setLocation(config_input: String) : void
         + getLocation() : void
     }

      

     SpeicherUtilities::Location - - Config : < Location
     SpeicherUtilities::saveData - - CodeCharts : < Data
     SpeicherUtilities::saveData - - ZoomMaps : < Data
     SpeicherUtilities::saveData - - EyeTracking : < Data
     SpeicherUtilities - - AnalyseClient
}

package LayoutData {

class Data {
   + type: SpeicherType
   + data: unknown
   + config_id: int
}

note right of Data
   Beinhaltet dann die Struktur/Variablen für die verschiedenen Daten, 
   die abgespeichert werden
end note

      

      
Data - - SpeicherUtilities

ToolType - - Data::type

      enum ToolType {
         ZOOM
         EYETRACKING
         CODECHARTS
      }

}
 package Config {}

 package CodeCharts {}

 package ZoomMaps {}

 package EyeTracking {}

 package AnalyseClient {}
@enduml

PlantUML version 1.2021.14beta3(Unknown compile time)
(GPL source distribution)
Java Runtime: Java(TM) SE Runtime Environment
JVM: Java HotSpot(TM) 64-Bit Server VM
Default Encoding: UTF-8
Language: en
Country: US
--></g></svg>