<?xml version="1.0" encoding="UTF-8" standalone="no"?><svg xmlns="http://www.w3.org/2000/svg" xmlns:xlink="http://www.w3.org/1999/xlink" contentScriptType="application/ecmascript" contentStyleType="text/css" height="177px" preserveAspectRatio="none" style="width:642px;height:177px;background:#FFFFFF;" version="1.1" viewBox="0 0 642 177" width="642px" zoomAndPan="magnify"><defs><filter height="300%" id="f1fp8pfxn3xyif" width="300%" x="-1" y="-1"><feGaussianBlur result="blurOut" stdDeviation="2.0"/><feColorMatrix in="blurOut" result="blurOut2" type="matrix" values="0 0 0 0 0 0 0 0 0 0 0 0 0 0 0 0 0 0 .4 0"/><feOffset dx="4.0" dy="4.0" in="blurOut2" result="blurOut3"/><feBlend in="SourceGraphic" in2="blurOut3" mode="normal"/></filter></defs><g><!--MD5=[7f4f573a14302655a37ec253e865c7a3]
class Class011--><rect fill="#FEFECE" filter="url(#f1fp8pfxn3xyif)" height="48" id="Class011" style="stroke:#A80036;stroke-width:1.5;" width="86" x="7.5" y="7"/><ellipse cx="22.5" cy="23" fill="#ADD1B2" rx="11" ry="11" style="stroke:#A80036;stroke-width:1.0;"/><path d="M24.8438,18.6719 C23.9063,18.2344 23.3125,18.0938 22.4375,18.0938 C19.8125,18.0938 17.8125,20.1719 17.8125,22.8906 L17.8125,24.0156 C17.8125,26.5938 19.9219,28.4844 22.8125,28.4844 C24.0313,28.4844 25.1875,28.1875 25.9375,27.6406 C26.5156,27.2344 26.8438,26.7813 26.8438,26.3906 C26.8438,25.9375 26.4531,25.5469 25.9844,25.5469 C25.7656,25.5469 25.5625,25.625 25.375,25.8125 C24.9219,26.2969 24.9219,26.2969 24.7344,26.3906 C24.3125,26.6563 23.625,26.7813 22.8594,26.7813 C20.8125,26.7813 19.5156,25.6875 19.5156,23.9844 L19.5156,22.8906 C19.5156,21.1094 20.7656,19.7969 22.5,19.7969 C23.0781,19.7969 23.6875,19.9531 24.1563,20.2031 C24.6406,20.4844 24.8125,20.7031 24.9063,21.1094 C24.9688,21.5156 25,21.6406 25.1406,21.7656 C25.2813,21.9063 25.5156,22.0156 25.7344,22.0156 C26,22.0156 26.2656,21.875 26.4375,21.6563 C26.5469,21.5 26.5781,21.3125 26.5781,20.8906 L26.5781,19.4688 C26.5781,19.0313 26.5625,18.9063 26.4688,18.75 C26.3125,18.4844 26.0313,18.3438 25.7344,18.3438 C25.4375,18.3438 25.2344,18.4375 25.0156,18.75 L24.8438,18.6719 Z " fill="#000000"/><text fill="#000000" font-family="sans-serif" font-size="12" lengthAdjust="spacing" textLength="54" x="36.5" y="27.1543">Class011</text><line style="stroke:#A80036;stroke-width:1.5;" x1="8.5" x2="92.5" y1="39" y2="39"/><line style="stroke:#A80036;stroke-width:1.5;" x1="8.5" x2="92.5" y1="47" y2="47"/><!--MD5=[975b1b1497aac5071381187d749c3414]
class Class021--><rect fill="#FEFECE" filter="url(#f1fp8pfxn3xyif)" height="48" id="Class021" style="stroke:#A80036;stroke-width:1.5;" width="87" x="7" y="115"/><ellipse cx="22" cy="131" fill="#ADD1B2" rx="11" ry="11" style="stroke:#A80036;stroke-width:1.0;"/><path d="M24.3438,126.6719 C23.4063,126.2344 22.8125,126.0938 21.9375,126.0938 C19.3125,126.0938 17.3125,128.1719 17.3125,130.8906 L17.3125,132.0156 C17.3125,134.5938 19.4219,136.4844 22.3125,136.4844 C23.5313,136.4844 24.6875,136.1875 25.4375,135.6406 C26.0156,135.2344 26.3438,134.7813 26.3438,134.3906 C26.3438,133.9375 25.9531,133.5469 25.4844,133.5469 C25.2656,133.5469 25.0625,133.625 24.875,133.8125 C24.4219,134.2969 24.4219,134.2969 24.2344,134.3906 C23.8125,134.6563 23.125,134.7813 22.3594,134.7813 C20.3125,134.7813 19.0156,133.6875 19.0156,131.9844 L19.0156,130.8906 C19.0156,129.1094 20.2656,127.7969 22,127.7969 C22.5781,127.7969 23.1875,127.9531 23.6563,128.2031 C24.1406,128.4844 24.3125,128.7031 24.4063,129.1094 C24.4688,129.5156 24.5,129.6406 24.6406,129.7656 C24.7813,129.9063 25.0156,130.0156 25.2344,130.0156 C25.5,130.0156 25.7656,129.875 25.9375,129.6563 C26.0469,129.5 26.0781,129.3125 26.0781,128.8906 L26.0781,127.4688 C26.0781,127.0313 26.0625,126.9063 25.9688,126.75 C25.8125,126.4844 25.5313,126.3438 25.2344,126.3438 C24.9375,126.3438 24.7344,126.4375 24.5156,126.75 L24.3438,126.6719 Z " fill="#000000"/><text fill="#000000" font-family="sans-serif" font-size="12" lengthAdjust="spacing" textLength="55" x="36" y="135.1543">Class021</text><line style="stroke:#A80036;stroke-width:1.5;" x1="8" x2="93" y1="147" y2="147"/><line style="stroke:#A80036;stroke-width:1.5;" x1="8" x2="93" y1="155" y2="155"/><!--MD5=[0ea0889d054115d9126d3ad0ee23f126]
class Class031--><rect fill="#FEFECE" filter="url(#f1fp8pfxn3xyif)" height="48" id="Class031" style="stroke:#A80036;stroke-width:1.5;" width="87" x="129" y="7"/><ellipse cx="144" cy="23" fill="#ADD1B2" rx="11" ry="11" style="stroke:#A80036;stroke-width:1.0;"/><path d="M146.3438,18.6719 C145.4063,18.2344 144.8125,18.0938 143.9375,18.0938 C141.3125,18.0938 139.3125,20.1719 139.3125,22.8906 L139.3125,24.0156 C139.3125,26.5938 141.4219,28.4844 144.3125,28.4844 C145.5313,28.4844 146.6875,28.1875 147.4375,27.6406 C148.0156,27.2344 148.3438,26.7813 148.3438,26.3906 C148.3438,25.9375 147.9531,25.5469 147.4844,25.5469 C147.2656,25.5469 147.0625,25.625 146.875,25.8125 C146.4219,26.2969 146.4219,26.2969 146.2344,26.3906 C145.8125,26.6563 145.125,26.7813 144.3594,26.7813 C142.3125,26.7813 141.0156,25.6875 141.0156,23.9844 L141.0156,22.8906 C141.0156,21.1094 142.2656,19.7969 144,19.7969 C144.5781,19.7969 145.1875,19.9531 145.6563,20.2031 C146.1406,20.4844 146.3125,20.7031 146.4063,21.1094 C146.4688,21.5156 146.5,21.6406 146.6406,21.7656 C146.7813,21.9063 147.0156,22.0156 147.2344,22.0156 C147.5,22.0156 147.7656,21.875 147.9375,21.6563 C148.0469,21.5 148.0781,21.3125 148.0781,20.8906 L148.0781,19.4688 C148.0781,19.0313 148.0625,18.9063 147.9688,18.75 C147.8125,18.4844 147.5313,18.3438 147.2344,18.3438 C146.9375,18.3438 146.7344,18.4375 146.5156,18.75 L146.3438,18.6719 Z " fill="#000000"/><text fill="#000000" font-family="sans-serif" font-size="12" lengthAdjust="spacing" textLength="55" x="158" y="27.1543">Class031</text><line style="stroke:#A80036;stroke-width:1.5;" x1="130" x2="215" y1="39" y2="39"/><line style="stroke:#A80036;stroke-width:1.5;" x1="130" x2="215" y1="47" y2="47"/><!--MD5=[e1df34d05bf14e6910956540842d820c]
class Class041--><rect fill="#FEFECE" filter="url(#f1fp8pfxn3xyif)" height="48" id="Class041" style="stroke:#A80036;stroke-width:1.5;" width="87" x="129" y="115"/><ellipse cx="144" cy="131" fill="#ADD1B2" rx="11" ry="11" style="stroke:#A80036;stroke-width:1.0;"/><path d="M146.3438,126.6719 C145.4063,126.2344 144.8125,126.0938 143.9375,126.0938 C141.3125,126.0938 139.3125,128.1719 139.3125,130.8906 L139.3125,132.0156 C139.3125,134.5938 141.4219,136.4844 144.3125,136.4844 C145.5313,136.4844 146.6875,136.1875 147.4375,135.6406 C148.0156,135.2344 148.3438,134.7813 148.3438,134.3906 C148.3438,133.9375 147.9531,133.5469 147.4844,133.5469 C147.2656,133.5469 147.0625,133.625 146.875,133.8125 C146.4219,134.2969 146.4219,134.2969 146.2344,134.3906 C145.8125,134.6563 145.125,134.7813 144.3594,134.7813 C142.3125,134.7813 141.0156,133.6875 141.0156,131.9844 L141.0156,130.8906 C141.0156,129.1094 142.2656,127.7969 144,127.7969 C144.5781,127.7969 145.1875,127.9531 145.6563,128.2031 C146.1406,128.4844 146.3125,128.7031 146.4063,129.1094 C146.4688,129.5156 146.5,129.6406 146.6406,129.7656 C146.7813,129.9063 147.0156,130.0156 147.2344,130.0156 C147.5,130.0156 147.7656,129.875 147.9375,129.6563 C148.0469,129.5 148.0781,129.3125 148.0781,128.8906 L148.0781,127.4688 C148.0781,127.0313 148.0625,126.9063 147.9688,126.75 C147.8125,126.4844 147.5313,126.3438 147.2344,126.3438 C146.9375,126.3438 146.7344,126.4375 146.5156,126.75 L146.3438,126.6719 Z " fill="#000000"/><text fill="#000000" font-family="sans-serif" font-size="12" lengthAdjust="spacing" textLength="55" x="158" y="135.1543">Class041</text><line style="stroke:#A80036;stroke-width:1.5;" x1="130" x2="215" y1="147" y2="147"/><line style="stroke:#A80036;stroke-width:1.5;" x1="130" x2="215" y1="155" y2="155"/><!--MD5=[2a4b1e0a694a91ba65f0a5d9a571faf6]
class Class051--><rect fill="#FEFECE" filter="url(#f1fp8pfxn3xyif)" height="48" id="Class051" style="stroke:#A80036;stroke-width:1.5;" width="87" x="274" y="7"/><ellipse cx="289" cy="23" fill="#ADD1B2" rx="11" ry="11" style="stroke:#A80036;stroke-width:1.0;"/><path d="M291.3438,18.6719 C290.4063,18.2344 289.8125,18.0938 288.9375,18.0938 C286.3125,18.0938 284.3125,20.1719 284.3125,22.8906 L284.3125,24.0156 C284.3125,26.5938 286.4219,28.4844 289.3125,28.4844 C290.5313,28.4844 291.6875,28.1875 292.4375,27.6406 C293.0156,27.2344 293.3438,26.7813 293.3438,26.3906 C293.3438,25.9375 292.9531,25.5469 292.4844,25.5469 C292.2656,25.5469 292.0625,25.625 291.875,25.8125 C291.4219,26.2969 291.4219,26.2969 291.2344,26.3906 C290.8125,26.6563 290.125,26.7813 289.3594,26.7813 C287.3125,26.7813 286.0156,25.6875 286.0156,23.9844 L286.0156,22.8906 C286.0156,21.1094 287.2656,19.7969 289,19.7969 C289.5781,19.7969 290.1875,19.9531 290.6563,20.2031 C291.1406,20.4844 291.3125,20.7031 291.4063,21.1094 C291.4688,21.5156 291.5,21.6406 291.6406,21.7656 C291.7813,21.9063 292.0156,22.0156 292.2344,22.0156 C292.5,22.0156 292.7656,21.875 292.9375,21.6563 C293.0469,21.5 293.0781,21.3125 293.0781,20.8906 L293.0781,19.4688 C293.0781,19.0313 293.0625,18.9063 292.9688,18.75 C292.8125,18.4844 292.5313,18.3438 292.2344,18.3438 C291.9375,18.3438 291.7344,18.4375 291.5156,18.75 L291.3438,18.6719 Z " fill="#000000"/><text fill="#000000" font-family="sans-serif" font-size="12" lengthAdjust="spacing" textLength="55" x="303" y="27.1543">Class051</text><line style="stroke:#A80036;stroke-width:1.5;" x1="275" x2="360" y1="39" y2="39"/><line style="stroke:#A80036;stroke-width:1.5;" x1="275" x2="360" y1="47" y2="47"/><!--MD5=[7fce2848150b92212fd15a1902e74d64]
class nowichangedthis--><rect fill="#FEFECE" filter="url(#f1fp8pfxn3xyif)" height="48" id="nowichangedthis" style="stroke:#A80036;stroke-width:1.5;" width="133" x="251" y="115"/><ellipse cx="266" cy="131" fill="#ADD1B2" rx="11" ry="11" style="stroke:#A80036;stroke-width:1.0;"/><path d="M268.3438,126.6719 C267.4063,126.2344 266.8125,126.0938 265.9375,126.0938 C263.3125,126.0938 261.3125,128.1719 261.3125,130.8906 L261.3125,132.0156 C261.3125,134.5938 263.4219,136.4844 266.3125,136.4844 C267.5313,136.4844 268.6875,136.1875 269.4375,135.6406 C270.0156,135.2344 270.3438,134.7813 270.3438,134.3906 C270.3438,133.9375 269.9531,133.5469 269.4844,133.5469 C269.2656,133.5469 269.0625,133.625 268.875,133.8125 C268.4219,134.2969 268.4219,134.2969 268.2344,134.3906 C267.8125,134.6563 267.125,134.7813 266.3594,134.7813 C264.3125,134.7813 263.0156,133.6875 263.0156,131.9844 L263.0156,130.8906 C263.0156,129.1094 264.2656,127.7969 266,127.7969 C266.5781,127.7969 267.1875,127.9531 267.6563,128.2031 C268.1406,128.4844 268.3125,128.7031 268.4063,129.1094 C268.4688,129.5156 268.5,129.6406 268.6406,129.7656 C268.7813,129.9063 269.0156,130.0156 269.2344,130.0156 C269.5,130.0156 269.7656,129.875 269.9375,129.6563 C270.0469,129.5 270.0781,129.3125 270.0781,128.8906 L270.0781,127.4688 C270.0781,127.0313 270.0625,126.9063 269.9688,126.75 C269.8125,126.4844 269.5313,126.3438 269.2344,126.3438 C268.9375,126.3438 268.7344,126.4375 268.5156,126.75 L268.3438,126.6719 Z " fill="#000000"/><text fill="#000000" font-family="sans-serif" font-size="12" lengthAdjust="spacing" textLength="101" x="280" y="135.1543">nowichangedthis</text><line style="stroke:#A80036;stroke-width:1.5;" x1="252" x2="383" y1="147" y2="147"/><line style="stroke:#A80036;stroke-width:1.5;" x1="252" x2="383" y1="155" y2="155"/><!--MD5=[5f2b5185c63208c3f3d9c5e89640a698]
class Class071--><rect fill="#FEFECE" filter="url(#f1fp8pfxn3xyif)" height="48" id="Class071" style="stroke:#A80036;stroke-width:1.5;" width="87" x="419" y="7"/><ellipse cx="434" cy="23" fill="#ADD1B2" rx="11" ry="11" style="stroke:#A80036;stroke-width:1.0;"/><path d="M436.3438,18.6719 C435.4063,18.2344 434.8125,18.0938 433.9375,18.0938 C431.3125,18.0938 429.3125,20.1719 429.3125,22.8906 L429.3125,24.0156 C429.3125,26.5938 431.4219,28.4844 434.3125,28.4844 C435.5313,28.4844 436.6875,28.1875 437.4375,27.6406 C438.0156,27.2344 438.3438,26.7813 438.3438,26.3906 C438.3438,25.9375 437.9531,25.5469 437.4844,25.5469 C437.2656,25.5469 437.0625,25.625 436.875,25.8125 C436.4219,26.2969 436.4219,26.2969 436.2344,26.3906 C435.8125,26.6563 435.125,26.7813 434.3594,26.7813 C432.3125,26.7813 431.0156,25.6875 431.0156,23.9844 L431.0156,22.8906 C431.0156,21.1094 432.2656,19.7969 434,19.7969 C434.5781,19.7969 435.1875,19.9531 435.6563,20.2031 C436.1406,20.4844 436.3125,20.7031 436.4063,21.1094 C436.4688,21.5156 436.5,21.6406 436.6406,21.7656 C436.7813,21.9063 437.0156,22.0156 437.2344,22.0156 C437.5,22.0156 437.7656,21.875 437.9375,21.6563 C438.0469,21.5 438.0781,21.3125 438.0781,20.8906 L438.0781,19.4688 C438.0781,19.0313 438.0625,18.9063 437.9688,18.75 C437.8125,18.4844 437.5313,18.3438 437.2344,18.3438 C436.9375,18.3438 436.7344,18.4375 436.5156,18.75 L436.3438,18.6719 Z " fill="#000000"/><text fill="#000000" font-family="sans-serif" font-size="12" lengthAdjust="spacing" textLength="55" x="448" y="27.1543">Class071</text><line style="stroke:#A80036;stroke-width:1.5;" x1="420" x2="505" y1="39" y2="39"/><line style="stroke:#A80036;stroke-width:1.5;" x1="420" x2="505" y1="47" y2="47"/><!--MD5=[95faea82f7b0082336fd87f67ed4323c]
class Class081--><rect fill="#FEFECE" filter="url(#f1fp8pfxn3xyif)" height="48" id="Class081" style="stroke:#A80036;stroke-width:1.5;" width="87" x="419" y="115"/><ellipse cx="434" cy="131" fill="#ADD1B2" rx="11" ry="11" style="stroke:#A80036;stroke-width:1.0;"/><path d="M436.3438,126.6719 C435.4063,126.2344 434.8125,126.0938 433.9375,126.0938 C431.3125,126.0938 429.3125,128.1719 429.3125,130.8906 L429.3125,132.0156 C429.3125,134.5938 431.4219,136.4844 434.3125,136.4844 C435.5313,136.4844 436.6875,136.1875 437.4375,135.6406 C438.0156,135.2344 438.3438,134.7813 438.3438,134.3906 C438.3438,133.9375 437.9531,133.5469 437.4844,133.5469 C437.2656,133.5469 437.0625,133.625 436.875,133.8125 C436.4219,134.2969 436.4219,134.2969 436.2344,134.3906 C435.8125,134.6563 435.125,134.7813 434.3594,134.7813 C432.3125,134.7813 431.0156,133.6875 431.0156,131.9844 L431.0156,130.8906 C431.0156,129.1094 432.2656,127.7969 434,127.7969 C434.5781,127.7969 435.1875,127.9531 435.6563,128.2031 C436.1406,128.4844 436.3125,128.7031 436.4063,129.1094 C436.4688,129.5156 436.5,129.6406 436.6406,129.7656 C436.7813,129.9063 437.0156,130.0156 437.2344,130.0156 C437.5,130.0156 437.7656,129.875 437.9375,129.6563 C438.0469,129.5 438.0781,129.3125 438.0781,128.8906 L438.0781,127.4688 C438.0781,127.0313 438.0625,126.9063 437.9688,126.75 C437.8125,126.4844 437.5313,126.3438 437.2344,126.3438 C436.9375,126.3438 436.7344,126.4375 436.5156,126.75 L436.3438,126.6719 Z " fill="#000000"/><text fill="#000000" font-family="sans-serif" font-size="12" lengthAdjust="spacing" textLength="55" x="448" y="135.1543">Class081</text><line style="stroke:#A80036;stroke-width:1.5;" x1="420" x2="505" y1="147" y2="147"/><line style="stroke:#A80036;stroke-width:1.5;" x1="420" x2="505" y1="155" y2="155"/><!--MD5=[e489601af2c5bddd6a7c5da5b7300d8b]
class Class091--><rect fill="#FEFECE" filter="url(#f1fp8pfxn3xyif)" height="48" id="Class091" style="stroke:#A80036;stroke-width:1.5;" width="87" x="541" y="7"/><ellipse cx="556" cy="23" fill="#ADD1B2" rx="11" ry="11" style="stroke:#A80036;stroke-width:1.0;"/><path d="M558.3438,18.6719 C557.4063,18.2344 556.8125,18.0938 555.9375,18.0938 C553.3125,18.0938 551.3125,20.1719 551.3125,22.8906 L551.3125,24.0156 C551.3125,26.5938 553.4219,28.4844 556.3125,28.4844 C557.5313,28.4844 558.6875,28.1875 559.4375,27.6406 C560.0156,27.2344 560.3438,26.7813 560.3438,26.3906 C560.3438,25.9375 559.9531,25.5469 559.4844,25.5469 C559.2656,25.5469 559.0625,25.625 558.875,25.8125 C558.4219,26.2969 558.4219,26.2969 558.2344,26.3906 C557.8125,26.6563 557.125,26.7813 556.3594,26.7813 C554.3125,26.7813 553.0156,25.6875 553.0156,23.9844 L553.0156,22.8906 C553.0156,21.1094 554.2656,19.7969 556,19.7969 C556.5781,19.7969 557.1875,19.9531 557.6563,20.2031 C558.1406,20.4844 558.3125,20.7031 558.4063,21.1094 C558.4688,21.5156 558.5,21.6406 558.6406,21.7656 C558.7813,21.9063 559.0156,22.0156 559.2344,22.0156 C559.5,22.0156 559.7656,21.875 559.9375,21.6563 C560.0469,21.5 560.0781,21.3125 560.0781,20.8906 L560.0781,19.4688 C560.0781,19.0313 560.0625,18.9063 559.9688,18.75 C559.8125,18.4844 559.5313,18.3438 559.2344,18.3438 C558.9375,18.3438 558.7344,18.4375 558.5156,18.75 L558.3438,18.6719 Z " fill="#000000"/><text fill="#000000" font-family="sans-serif" font-size="12" lengthAdjust="spacing" textLength="55" x="570" y="27.1543">Class091</text><line style="stroke:#A80036;stroke-width:1.5;" x1="542" x2="627" y1="39" y2="39"/><line style="stroke:#A80036;stroke-width:1.5;" x1="542" x2="627" y1="47" y2="47"/><!--MD5=[62ac9fd4f316cff07e03af19c4e853ff]
class aoisdhfo--><rect fill="#FEFECE" filter="url(#f1fp8pfxn3xyif)" height="48" id="aoisdhfo" style="stroke:#A80036;stroke-width:1.5;" width="84" x="542.5" y="115"/><ellipse cx="557.5" cy="131" fill="#ADD1B2" rx="11" ry="11" style="stroke:#A80036;stroke-width:1.0;"/><path d="M559.8438,126.6719 C558.9063,126.2344 558.3125,126.0938 557.4375,126.0938 C554.8125,126.0938 552.8125,128.1719 552.8125,130.8906 L552.8125,132.0156 C552.8125,134.5938 554.9219,136.4844 557.8125,136.4844 C559.0313,136.4844 560.1875,136.1875 560.9375,135.6406 C561.5156,135.2344 561.8438,134.7813 561.8438,134.3906 C561.8438,133.9375 561.4531,133.5469 560.9844,133.5469 C560.7656,133.5469 560.5625,133.625 560.375,133.8125 C559.9219,134.2969 559.9219,134.2969 559.7344,134.3906 C559.3125,134.6563 558.625,134.7813 557.8594,134.7813 C555.8125,134.7813 554.5156,133.6875 554.5156,131.9844 L554.5156,130.8906 C554.5156,129.1094 555.7656,127.7969 557.5,127.7969 C558.0781,127.7969 558.6875,127.9531 559.1563,128.2031 C559.6406,128.4844 559.8125,128.7031 559.9063,129.1094 C559.9688,129.5156 560,129.6406 560.1406,129.7656 C560.2813,129.9063 560.5156,130.0156 560.7344,130.0156 C561,130.0156 561.2656,129.875 561.4375,129.6563 C561.5469,129.5 561.5781,129.3125 561.5781,128.8906 L561.5781,127.4688 C561.5781,127.0313 561.5625,126.9063 561.4688,126.75 C561.3125,126.4844 561.0313,126.3438 560.7344,126.3438 C560.4375,126.3438 560.2344,126.4375 560.0156,126.75 L559.8438,126.6719 Z " fill="#000000"/><text fill="#000000" font-family="sans-serif" font-size="12" lengthAdjust="spacing" textLength="52" x="571.5" y="135.1543">aoisdhfo</text><line style="stroke:#A80036;stroke-width:1.5;" x1="543.5" x2="625.5" y1="147" y2="147"/><line style="stroke:#A80036;stroke-width:1.5;" x1="543.5" x2="625.5" y1="155" y2="155"/><!--MD5=[430a53d5e89de336e05284099373b5c9]
reverse link Class011 to Class021--><path codeLine="1" d="M50.5,75.0236 C50.5,88.5792 50.5,103.0381 50.5,114.6784 " fill="none" id="Class011-backto-Class021" style="stroke:#A80036;stroke-width:1.0;"/><polygon fill="none" points="43.5001,75.0005,50.5,55,57.5001,75.0004,43.5001,75.0005" style="stroke:#A80036;stroke-width:1.0;"/><!--MD5=[f6561304ac5f7a58daddc0a08ac04ed7]
reverse link Class031 to Class041--><path codeLine="2" d="M172.5,68.3383 C172.5,83.6813 172.5,101.098 172.5,114.6784 " fill="none" id="Class031-backto-Class041" style="stroke:#A80036;stroke-width:1.0;"/><polygon fill="#A80036" points="172.5,55,168.5,61,172.5,67,176.5,61,172.5,55" style="stroke:#A80036;stroke-width:1.0;"/><!--MD5=[3e501d5e7d7f1777825d98699980bde1]
reverse link Class051 to nowichangedthis--><path codeLine="3" d="M317.5,68.3383 C317.5,83.6813 317.5,101.098 317.5,114.6784 " fill="none" id="Class051-backto-nowichangedthis" style="stroke:#A80036;stroke-width:1.0;"/><polygon fill="#FFFFFF" points="317.5,55,313.5,61,317.5,67,321.5,61,317.5,55" style="stroke:#A80036;stroke-width:1.0;"/><!--MD5=[9f2bc0abf3feda0eded3414ccfc8f749]
link Class071 to Class081--><path codeLine="4" d="M462.5,55 C462.5,72.6584 462.5,96.9408 462.5,114.6784 " fill="none" id="Class071-Class081" style="stroke:#A80036;stroke-width:1.0;stroke-dasharray:7.0,7.0;"/><!--MD5=[d99c71d3efa22a26b69f3508b696d060]
link Class091 to aoisdhfo--><path codeLine="5" d="M584.5,55 C584.5,72.6584 584.5,96.9408 584.5,114.6784 " fill="none" id="Class091-aoisdhfo" style="stroke:#A80036;stroke-width:1.0;"/><!--MD5=[40543cae8d7233c4a2bc77dc4e6657fd]
@startuml
Class011 <|- - Class021
Class031 *- - Class041
Class051 o- - nowichangedthis
Class071 .. Class081
Class091 - - aoisdhfo
@enduml

PlantUML version 1.2021.13beta8(Unknown compile time)
(GPL source distribution)
Java Runtime: Java(TM) SE Runtime Environment
JVM: Java HotSpot(TM) 64-Bit Server VM
Default Encoding: UTF-8
Language: en
Country: US
--></g></svg>