<?xml version="1.0" encoding="UTF-8" standalone="no"?><svg xmlns="http://www.w3.org/2000/svg" xmlns:xlink="http://www.w3.org/1999/xlink" contentScriptType="application/ecmascript" contentStyleType="text/css" height="177px" preserveAspectRatio="none" style="width:602px;height:177px;background:#FFFFFF;" version="1.1" viewBox="0 0 602 177" width="602px" zoomAndPan="magnify"><defs><filter height="300%" id="f1lcb9pbnfccil" width="300%" x="-1" y="-1"><feGaussianBlur result="blurOut" stdDeviation="2.0"/><feColorMatrix in="blurOut" result="blurOut2" type="matrix" values="0 0 0 0 0 0 0 0 0 0 0 0 0 0 0 0 0 0 .4 0"/><feOffset dx="4.0" dy="4.0" in="blurOut2" result="blurOut3"/><feBlend in="SourceGraphic" in2="blurOut3" mode="normal"/></filter></defs><g><!--MD5=[7f4f573a14302655a37ec253e865c7a3]
class Class011--><rect fill="#FEFECE" filter="url(#f1lcb9pbnfccil)" height="48" id="Class011" style="stroke:#A80036;stroke-width:1.5;" width="86" x="7.5" y="7"/><ellipse cx="22.5" cy="23" fill="#ADD1B2" rx="11" ry="11" style="stroke:#A80036;stroke-width:1.0;"/><path d="M24.8438,18.6719 C23.9063,18.2344 23.3125,18.0938 22.4375,18.0938 C19.8125,18.0938 17.8125,20.1719 17.8125,22.8906 L17.8125,24.0156 C17.8125,26.5938 19.9219,28.4844 22.8125,28.4844 C24.0313,28.4844 25.1875,28.1875 25.9375,27.6406 C26.5156,27.2344 26.8438,26.7813 26.8438,26.3906 C26.8438,25.9375 26.4531,25.5469 25.9844,25.5469 C25.7656,25.5469 25.5625,25.625 25.375,25.8125 C24.9219,26.2969 24.9219,26.2969 24.7344,26.3906 C24.3125,26.6563 23.625,26.7813 22.8594,26.7813 C20.8125,26.7813 19.5156,25.6875 19.5156,23.9844 L19.5156,22.8906 C19.5156,21.1094 20.7656,19.7969 22.5,19.7969 C23.0781,19.7969 23.6875,19.9531 24.1563,20.2031 C24.6406,20.4844 24.8125,20.7031 24.9063,21.1094 C24.9688,21.5156 25,21.6406 25.1406,21.7656 C25.2813,21.9063 25.5156,22.0156 25.7344,22.0156 C26,22.0156 26.2656,21.875 26.4375,21.6563 C26.5469,21.5 26.5781,21.3125 26.5781,20.8906 L26.5781,19.4688 C26.5781,19.0313 26.5625,18.9063 26.4688,18.75 C26.3125,18.4844 26.0313,18.3438 25.7344,18.3438 C25.4375,18.3438 25.2344,18.4375 25.0156,18.75 L24.8438,18.6719 Z " fill="#000000"/><text fill="#000000" font-family="sans-serif" font-size="12" lengthAdjust="spacing" textLength="54" x="36.5" y="27.1543">Class011</text><line style="stroke:#A80036;stroke-width:1.5;" x1="8.5" x2="92.5" y1="39" y2="39"/><line style="stroke:#A80036;stroke-width:1.5;" x1="8.5" x2="92.5" y1="47" y2="47"/><!--MD5=[975b1b1497aac5071381187d749c3414]
class Class021--><rect fill="#FEFECE" filter="url(#f1lcb9pbnfccil)" height="48" id="Class021" style="stroke:#A80036;stroke-width:1.5;" width="87" x="7" y="115"/><ellipse cx="22" cy="131" fill="#ADD1B2" rx="11" ry="11" style="stroke:#A80036;stroke-width:1.0;"/><path d="M24.3438,126.6719 C23.4063,126.2344 22.8125,126.0938 21.9375,126.0938 C19.3125,126.0938 17.3125,128.1719 17.3125,130.8906 L17.3125,132.0156 C17.3125,134.5938 19.4219,136.4844 22.3125,136.4844 C23.5313,136.4844 24.6875,136.1875 25.4375,135.6406 C26.0156,135.2344 26.3438,134.7813 26.3438,134.3906 C26.3438,133.9375 25.9531,133.5469 25.4844,133.5469 C25.2656,133.5469 25.0625,133.625 24.875,133.8125 C24.4219,134.2969 24.4219,134.2969 24.2344,134.3906 C23.8125,134.6563 23.125,134.7813 22.3594,134.7813 C20.3125,134.7813 19.0156,133.6875 19.0156,131.9844 L19.0156,130.8906 C19.0156,129.1094 20.2656,127.7969 22,127.7969 C22.5781,127.7969 23.1875,127.9531 23.6563,128.2031 C24.1406,128.4844 24.3125,128.7031 24.4063,129.1094 C24.4688,129.5156 24.5,129.6406 24.6406,129.7656 C24.7813,129.9063 25.0156,130.0156 25.2344,130.0156 C25.5,130.0156 25.7656,129.875 25.9375,129.6563 C26.0469,129.5 26.0781,129.3125 26.0781,128.8906 L26.0781,127.4688 C26.0781,127.0313 26.0625,126.9063 25.9688,126.75 C25.8125,126.4844 25.5313,126.3438 25.2344,126.3438 C24.9375,126.3438 24.7344,126.4375 24.5156,126.75 L24.3438,126.6719 Z " fill="#000000"/><text fill="#000000" font-family="sans-serif" font-size="12" lengthAdjust="spacing" textLength="55" x="36" y="135.1543">Class021</text><line style="stroke:#A80036;stroke-width:1.5;" x1="8" x2="93" y1="147" y2="147"/><line style="stroke:#A80036;stroke-width:1.5;" x1="8" x2="93" y1="155" y2="155"/><!--MD5=[0ea0889d054115d9126d3ad0ee23f126]
class Class031--><rect fill="#FEFECE" filter="url(#f1lcb9pbnfccil)" height="48" id="Class031" style="stroke:#A80036;stroke-width:1.5;" width="87" x="129" y="7"/><ellipse cx="144" cy="23" fill="#ADD1B2" rx="11" ry="11" style="stroke:#A80036;stroke-width:1.0;"/><path d="M146.3438,18.6719 C145.4063,18.2344 144.8125,18.0938 143.9375,18.0938 C141.3125,18.0938 139.3125,20.1719 139.3125,22.8906 L139.3125,24.0156 C139.3125,26.5938 141.4219,28.4844 144.3125,28.4844 C145.5313,28.4844 146.6875,28.1875 147.4375,27.6406 C148.0156,27.2344 148.3438,26.7813 148.3438,26.3906 C148.3438,25.9375 147.9531,25.5469 147.4844,25.5469 C147.2656,25.5469 147.0625,25.625 146.875,25.8125 C146.4219,26.2969 146.4219,26.2969 146.2344,26.3906 C145.8125,26.6563 145.125,26.7813 144.3594,26.7813 C142.3125,26.7813 141.0156,25.6875 141.0156,23.9844 L141.0156,22.8906 C141.0156,21.1094 142.2656,19.7969 144,19.7969 C144.5781,19.7969 145.1875,19.9531 145.6563,20.2031 C146.1406,20.4844 146.3125,20.7031 146.4063,21.1094 C146.4688,21.5156 146.5,21.6406 146.6406,21.7656 C146.7813,21.9063 147.0156,22.0156 147.2344,22.0156 C147.5,22.0156 147.7656,21.875 147.9375,21.6563 C148.0469,21.5 148.0781,21.3125 148.0781,20.8906 L148.0781,19.4688 C148.0781,19.0313 148.0625,18.9063 147.9688,18.75 C147.8125,18.4844 147.5313,18.3438 147.2344,18.3438 C146.9375,18.3438 146.7344,18.4375 146.5156,18.75 L146.3438,18.6719 Z " fill="#000000"/><text fill="#000000" font-family="sans-serif" font-size="12" lengthAdjust="spacing" textLength="55" x="158" y="27.1543">Class031</text><line style="stroke:#A80036;stroke-width:1.5;" x1="130" x2="215" y1="39" y2="39"/><line style="stroke:#A80036;stroke-width:1.5;" x1="130" x2="215" y1="47" y2="47"/><!--MD5=[e1df34d05bf14e6910956540842d820c]
class Class041--><rect fill="#FEFECE" filter="url(#f1lcb9pbnfccil)" height="48" id="Class041" style="stroke:#A80036;stroke-width:1.5;" width="87" x="129" y="115"/><ellipse cx="144" cy="131" fill="#ADD1B2" rx="11" ry="11" style="stroke:#A80036;stroke-width:1.0;"/><path d="M146.3438,126.6719 C145.4063,126.2344 144.8125,126.0938 143.9375,126.0938 C141.3125,126.0938 139.3125,128.1719 139.3125,130.8906 L139.3125,132.0156 C139.3125,134.5938 141.4219,136.4844 144.3125,136.4844 C145.5313,136.4844 146.6875,136.1875 147.4375,135.6406 C148.0156,135.2344 148.3438,134.7813 148.3438,134.3906 C148.3438,133.9375 147.9531,133.5469 147.4844,133.5469 C147.2656,133.5469 147.0625,133.625 146.875,133.8125 C146.4219,134.2969 146.4219,134.2969 146.2344,134.3906 C145.8125,134.6563 145.125,134.7813 144.3594,134.7813 C142.3125,134.7813 141.0156,133.6875 141.0156,131.9844 L141.0156,130.8906 C141.0156,129.1094 142.2656,127.7969 144,127.7969 C144.5781,127.7969 145.1875,127.9531 145.6563,128.2031 C146.1406,128.4844 146.3125,128.7031 146.4063,129.1094 C146.4688,129.5156 146.5,129.6406 146.6406,129.7656 C146.7813,129.9063 147.0156,130.0156 147.2344,130.0156 C147.5,130.0156 147.7656,129.875 147.9375,129.6563 C148.0469,129.5 148.0781,129.3125 148.0781,128.8906 L148.0781,127.4688 C148.0781,127.0313 148.0625,126.9063 147.9688,126.75 C147.8125,126.4844 147.5313,126.3438 147.2344,126.3438 C146.9375,126.3438 146.7344,126.4375 146.5156,126.75 L146.3438,126.6719 Z " fill="#000000"/><text fill="#000000" font-family="sans-serif" font-size="12" lengthAdjust="spacing" textLength="55" x="158" y="135.1543">Class041</text><line style="stroke:#A80036;stroke-width:1.5;" x1="130" x2="215" y1="147" y2="147"/><line style="stroke:#A80036;stroke-width:1.5;" x1="130" x2="215" y1="155" y2="155"/><!--MD5=[2a4b1e0a694a91ba65f0a5d9a571faf6]
class Class051--><rect fill="#FEFECE" filter="url(#f1lcb9pbnfccil)" height="48" id="Class051" style="stroke:#A80036;stroke-width:1.5;" width="87" x="251" y="7"/><ellipse cx="266" cy="23" fill="#ADD1B2" rx="11" ry="11" style="stroke:#A80036;stroke-width:1.0;"/><path d="M268.3438,18.6719 C267.4063,18.2344 266.8125,18.0938 265.9375,18.0938 C263.3125,18.0938 261.3125,20.1719 261.3125,22.8906 L261.3125,24.0156 C261.3125,26.5938 263.4219,28.4844 266.3125,28.4844 C267.5313,28.4844 268.6875,28.1875 269.4375,27.6406 C270.0156,27.2344 270.3438,26.7813 270.3438,26.3906 C270.3438,25.9375 269.9531,25.5469 269.4844,25.5469 C269.2656,25.5469 269.0625,25.625 268.875,25.8125 C268.4219,26.2969 268.4219,26.2969 268.2344,26.3906 C267.8125,26.6563 267.125,26.7813 266.3594,26.7813 C264.3125,26.7813 263.0156,25.6875 263.0156,23.9844 L263.0156,22.8906 C263.0156,21.1094 264.2656,19.7969 266,19.7969 C266.5781,19.7969 267.1875,19.9531 267.6563,20.2031 C268.1406,20.4844 268.3125,20.7031 268.4063,21.1094 C268.4688,21.5156 268.5,21.6406 268.6406,21.7656 C268.7813,21.9063 269.0156,22.0156 269.2344,22.0156 C269.5,22.0156 269.7656,21.875 269.9375,21.6563 C270.0469,21.5 270.0781,21.3125 270.0781,20.8906 L270.0781,19.4688 C270.0781,19.0313 270.0625,18.9063 269.9688,18.75 C269.8125,18.4844 269.5313,18.3438 269.2344,18.3438 C268.9375,18.3438 268.7344,18.4375 268.5156,18.75 L268.3438,18.6719 Z " fill="#000000"/><text fill="#000000" font-family="sans-serif" font-size="12" lengthAdjust="spacing" textLength="55" x="280" y="27.1543">Class051</text><line style="stroke:#A80036;stroke-width:1.5;" x1="252" x2="337" y1="39" y2="39"/><line style="stroke:#A80036;stroke-width:1.5;" x1="252" x2="337" y1="47" y2="47"/><!--MD5=[1a6f377cfaf5b297efc1bc18af3fa687]
class Class061--><rect fill="#FEFECE" filter="url(#f1lcb9pbnfccil)" height="48" id="Class061" style="stroke:#A80036;stroke-width:1.5;" width="87" x="251" y="115"/><ellipse cx="266" cy="131" fill="#ADD1B2" rx="11" ry="11" style="stroke:#A80036;stroke-width:1.0;"/><path d="M268.3438,126.6719 C267.4063,126.2344 266.8125,126.0938 265.9375,126.0938 C263.3125,126.0938 261.3125,128.1719 261.3125,130.8906 L261.3125,132.0156 C261.3125,134.5938 263.4219,136.4844 266.3125,136.4844 C267.5313,136.4844 268.6875,136.1875 269.4375,135.6406 C270.0156,135.2344 270.3438,134.7813 270.3438,134.3906 C270.3438,133.9375 269.9531,133.5469 269.4844,133.5469 C269.2656,133.5469 269.0625,133.625 268.875,133.8125 C268.4219,134.2969 268.4219,134.2969 268.2344,134.3906 C267.8125,134.6563 267.125,134.7813 266.3594,134.7813 C264.3125,134.7813 263.0156,133.6875 263.0156,131.9844 L263.0156,130.8906 C263.0156,129.1094 264.2656,127.7969 266,127.7969 C266.5781,127.7969 267.1875,127.9531 267.6563,128.2031 C268.1406,128.4844 268.3125,128.7031 268.4063,129.1094 C268.4688,129.5156 268.5,129.6406 268.6406,129.7656 C268.7813,129.9063 269.0156,130.0156 269.2344,130.0156 C269.5,130.0156 269.7656,129.875 269.9375,129.6563 C270.0469,129.5 270.0781,129.3125 270.0781,128.8906 L270.0781,127.4688 C270.0781,127.0313 270.0625,126.9063 269.9688,126.75 C269.8125,126.4844 269.5313,126.3438 269.2344,126.3438 C268.9375,126.3438 268.7344,126.4375 268.5156,126.75 L268.3438,126.6719 Z " fill="#000000"/><text fill="#000000" font-family="sans-serif" font-size="12" lengthAdjust="spacing" textLength="55" x="280" y="135.1543">Class061</text><line style="stroke:#A80036;stroke-width:1.5;" x1="252" x2="337" y1="147" y2="147"/><line style="stroke:#A80036;stroke-width:1.5;" x1="252" x2="337" y1="155" y2="155"/><!--MD5=[5f2b5185c63208c3f3d9c5e89640a698]
class Class071--><rect fill="#FEFECE" filter="url(#f1lcb9pbnfccil)" height="48" id="Class071" style="stroke:#A80036;stroke-width:1.5;" width="87" x="373" y="7"/><ellipse cx="388" cy="23" fill="#ADD1B2" rx="11" ry="11" style="stroke:#A80036;stroke-width:1.0;"/><path d="M390.3438,18.6719 C389.4063,18.2344 388.8125,18.0938 387.9375,18.0938 C385.3125,18.0938 383.3125,20.1719 383.3125,22.8906 L383.3125,24.0156 C383.3125,26.5938 385.4219,28.4844 388.3125,28.4844 C389.5313,28.4844 390.6875,28.1875 391.4375,27.6406 C392.0156,27.2344 392.3438,26.7813 392.3438,26.3906 C392.3438,25.9375 391.9531,25.5469 391.4844,25.5469 C391.2656,25.5469 391.0625,25.625 390.875,25.8125 C390.4219,26.2969 390.4219,26.2969 390.2344,26.3906 C389.8125,26.6563 389.125,26.7813 388.3594,26.7813 C386.3125,26.7813 385.0156,25.6875 385.0156,23.9844 L385.0156,22.8906 C385.0156,21.1094 386.2656,19.7969 388,19.7969 C388.5781,19.7969 389.1875,19.9531 389.6563,20.2031 C390.1406,20.4844 390.3125,20.7031 390.4063,21.1094 C390.4688,21.5156 390.5,21.6406 390.6406,21.7656 C390.7813,21.9063 391.0156,22.0156 391.2344,22.0156 C391.5,22.0156 391.7656,21.875 391.9375,21.6563 C392.0469,21.5 392.0781,21.3125 392.0781,20.8906 L392.0781,19.4688 C392.0781,19.0313 392.0625,18.9063 391.9688,18.75 C391.8125,18.4844 391.5313,18.3438 391.2344,18.3438 C390.9375,18.3438 390.7344,18.4375 390.5156,18.75 L390.3438,18.6719 Z " fill="#000000"/><text fill="#000000" font-family="sans-serif" font-size="12" lengthAdjust="spacing" textLength="55" x="402" y="27.1543">Class071</text><line style="stroke:#A80036;stroke-width:1.5;" x1="374" x2="459" y1="39" y2="39"/><line style="stroke:#A80036;stroke-width:1.5;" x1="374" x2="459" y1="47" y2="47"/><!--MD5=[95faea82f7b0082336fd87f67ed4323c]
class Class081--><rect fill="#FEFECE" filter="url(#f1lcb9pbnfccil)" height="48" id="Class081" style="stroke:#A80036;stroke-width:1.5;" width="87" x="373" y="115"/><ellipse cx="388" cy="131" fill="#ADD1B2" rx="11" ry="11" style="stroke:#A80036;stroke-width:1.0;"/><path d="M390.3438,126.6719 C389.4063,126.2344 388.8125,126.0938 387.9375,126.0938 C385.3125,126.0938 383.3125,128.1719 383.3125,130.8906 L383.3125,132.0156 C383.3125,134.5938 385.4219,136.4844 388.3125,136.4844 C389.5313,136.4844 390.6875,136.1875 391.4375,135.6406 C392.0156,135.2344 392.3438,134.7813 392.3438,134.3906 C392.3438,133.9375 391.9531,133.5469 391.4844,133.5469 C391.2656,133.5469 391.0625,133.625 390.875,133.8125 C390.4219,134.2969 390.4219,134.2969 390.2344,134.3906 C389.8125,134.6563 389.125,134.7813 388.3594,134.7813 C386.3125,134.7813 385.0156,133.6875 385.0156,131.9844 L385.0156,130.8906 C385.0156,129.1094 386.2656,127.7969 388,127.7969 C388.5781,127.7969 389.1875,127.9531 389.6563,128.2031 C390.1406,128.4844 390.3125,128.7031 390.4063,129.1094 C390.4688,129.5156 390.5,129.6406 390.6406,129.7656 C390.7813,129.9063 391.0156,130.0156 391.2344,130.0156 C391.5,130.0156 391.7656,129.875 391.9375,129.6563 C392.0469,129.5 392.0781,129.3125 392.0781,128.8906 L392.0781,127.4688 C392.0781,127.0313 392.0625,126.9063 391.9688,126.75 C391.8125,126.4844 391.5313,126.3438 391.2344,126.3438 C390.9375,126.3438 390.7344,126.4375 390.5156,126.75 L390.3438,126.6719 Z " fill="#000000"/><text fill="#000000" font-family="sans-serif" font-size="12" lengthAdjust="spacing" textLength="55" x="402" y="135.1543">Class081</text><line style="stroke:#A80036;stroke-width:1.5;" x1="374" x2="459" y1="147" y2="147"/><line style="stroke:#A80036;stroke-width:1.5;" x1="374" x2="459" y1="155" y2="155"/><!--MD5=[e489601af2c5bddd6a7c5da5b7300d8b]
class Class091--><rect fill="#FEFECE" filter="url(#f1lcb9pbnfccil)" height="48" id="Class091" style="stroke:#A80036;stroke-width:1.5;" width="87" x="498" y="7"/><ellipse cx="513" cy="23" fill="#ADD1B2" rx="11" ry="11" style="stroke:#A80036;stroke-width:1.0;"/><path d="M515.3438,18.6719 C514.4063,18.2344 513.8125,18.0938 512.9375,18.0938 C510.3125,18.0938 508.3125,20.1719 508.3125,22.8906 L508.3125,24.0156 C508.3125,26.5938 510.4219,28.4844 513.3125,28.4844 C514.5313,28.4844 515.6875,28.1875 516.4375,27.6406 C517.0156,27.2344 517.3438,26.7813 517.3438,26.3906 C517.3438,25.9375 516.9531,25.5469 516.4844,25.5469 C516.2656,25.5469 516.0625,25.625 515.875,25.8125 C515.4219,26.2969 515.4219,26.2969 515.2344,26.3906 C514.8125,26.6563 514.125,26.7813 513.3594,26.7813 C511.3125,26.7813 510.0156,25.6875 510.0156,23.9844 L510.0156,22.8906 C510.0156,21.1094 511.2656,19.7969 513,19.7969 C513.5781,19.7969 514.1875,19.9531 514.6563,20.2031 C515.1406,20.4844 515.3125,20.7031 515.4063,21.1094 C515.4688,21.5156 515.5,21.6406 515.6406,21.7656 C515.7813,21.9063 516.0156,22.0156 516.2344,22.0156 C516.5,22.0156 516.7656,21.875 516.9375,21.6563 C517.0469,21.5 517.0781,21.3125 517.0781,20.8906 L517.0781,19.4688 C517.0781,19.0313 517.0625,18.9063 516.9688,18.75 C516.8125,18.4844 516.5313,18.3438 516.2344,18.3438 C515.9375,18.3438 515.7344,18.4375 515.5156,18.75 L515.3438,18.6719 Z " fill="#000000"/><text fill="#000000" font-family="sans-serif" font-size="12" lengthAdjust="spacing" textLength="55" x="527" y="27.1543">Class091</text><line style="stroke:#A80036;stroke-width:1.5;" x1="499" x2="584" y1="39" y2="39"/><line style="stroke:#A80036;stroke-width:1.5;" x1="499" x2="584" y1="47" y2="47"/><!--MD5=[ac6fd676018cb1310819799509cf594a]
class Class1011--><rect fill="#FEFECE" filter="url(#f1lcb9pbnfccil)" height="48" id="Class1011" style="stroke:#A80036;stroke-width:1.5;" width="93" x="495" y="115"/><ellipse cx="510" cy="131" fill="#ADD1B2" rx="11" ry="11" style="stroke:#A80036;stroke-width:1.0;"/><path d="M512.3438,126.6719 C511.4063,126.2344 510.8125,126.0938 509.9375,126.0938 C507.3125,126.0938 505.3125,128.1719 505.3125,130.8906 L505.3125,132.0156 C505.3125,134.5938 507.4219,136.4844 510.3125,136.4844 C511.5313,136.4844 512.6875,136.1875 513.4375,135.6406 C514.0156,135.2344 514.3438,134.7813 514.3438,134.3906 C514.3438,133.9375 513.9531,133.5469 513.4844,133.5469 C513.2656,133.5469 513.0625,133.625 512.875,133.8125 C512.4219,134.2969 512.4219,134.2969 512.2344,134.3906 C511.8125,134.6563 511.125,134.7813 510.3594,134.7813 C508.3125,134.7813 507.0156,133.6875 507.0156,131.9844 L507.0156,130.8906 C507.0156,129.1094 508.2656,127.7969 510,127.7969 C510.5781,127.7969 511.1875,127.9531 511.6563,128.2031 C512.1406,128.4844 512.3125,128.7031 512.4063,129.1094 C512.4688,129.5156 512.5,129.6406 512.6406,129.7656 C512.7813,129.9063 513.0156,130.0156 513.2344,130.0156 C513.5,130.0156 513.7656,129.875 513.9375,129.6563 C514.0469,129.5 514.0781,129.3125 514.0781,128.8906 L514.0781,127.4688 C514.0781,127.0313 514.0625,126.9063 513.9688,126.75 C513.8125,126.4844 513.5313,126.3438 513.2344,126.3438 C512.9375,126.3438 512.7344,126.4375 512.5156,126.75 L512.3438,126.6719 Z " fill="#000000"/><text fill="#000000" font-family="sans-serif" font-size="12" lengthAdjust="spacing" textLength="61" x="524" y="135.1543">Class1011</text><line style="stroke:#A80036;stroke-width:1.5;" x1="496" x2="587" y1="147" y2="147"/><line style="stroke:#A80036;stroke-width:1.5;" x1="496" x2="587" y1="155" y2="155"/><!--MD5=[430a53d5e89de336e05284099373b5c9]
reverse link Class011 to Class021--><path codeLine="1" d="M50.5,75.0236 C50.5,88.5792 50.5,103.0381 50.5,114.6784 " fill="none" id="Class011-backto-Class021" style="stroke:#A80036;stroke-width:1.0;"/><polygon fill="none" points="43.5001,75.0005,50.5,55,57.5001,75.0004,43.5001,75.0005" style="stroke:#A80036;stroke-width:1.0;"/><!--MD5=[f6561304ac5f7a58daddc0a08ac04ed7]
reverse link Class031 to Class041--><path codeLine="2" d="M172.5,68.3383 C172.5,83.6813 172.5,101.098 172.5,114.6784 " fill="none" id="Class031-backto-Class041" style="stroke:#A80036;stroke-width:1.0;"/><polygon fill="#A80036" points="172.5,55,168.5,61,172.5,67,176.5,61,172.5,55" style="stroke:#A80036;stroke-width:1.0;"/><!--MD5=[360021137d12c1f928c61570d6ef8ef6]
reverse link Class051 to Class061--><path codeLine="3" d="M294.5,68.3383 C294.5,83.6813 294.5,101.098 294.5,114.6784 " fill="none" id="Class051-backto-Class061" style="stroke:#A80036;stroke-width:1.0;"/><polygon fill="#FFFFFF" points="294.5,55,290.5,61,294.5,67,298.5,61,294.5,55" style="stroke:#A80036;stroke-width:1.0;"/><!--MD5=[9f2bc0abf3feda0eded3414ccfc8f749]
link Class071 to Class081--><path codeLine="4" d="M416.5,55 C416.5,72.6584 416.5,96.9408 416.5,114.6784 " fill="none" id="Class071-Class081" style="stroke:#A80036;stroke-width:1.0;stroke-dasharray:7.0,7.0;"/><!--MD5=[3ae643fa69bf121960f51e8a86727ccd]
link Class091 to Class1011--><path codeLine="5" d="M541.5,55 C541.5,72.6584 541.5,96.9408 541.5,114.6784 " fill="none" id="Class091-Class1011" style="stroke:#A80036;stroke-width:1.0;"/><!--MD5=[12861711c3dda32aee0a9a741d82e153]
@startuml
Class011 <|- - Class021
Class031 *- - Class041
Class051 o- - Class061
Class071 .. Class081
Class091 - - Class1011
@enduml

PlantUML version 1.2021.13beta8(Unknown compile time)
(GPL source distribution)
Java Runtime: Java(TM) SE Runtime Environment
JVM: Java HotSpot(TM) 64-Bit Server VM
Default Encoding: UTF-8
Language: en
Country: US
--></g></svg>