<?xml version="1.0" encoding="UTF-8" standalone="no"?><svg xmlns="http://www.w3.org/2000/svg" xmlns:xlink="http://www.w3.org/1999/xlink" contentScriptType="application/ecmascript" contentStyleType="text/css" height="728px" preserveAspectRatio="none" style="width:1208px;height:728px;background:#FFFFFF;" version="1.1" viewBox="0 0 1208 728" width="1208px" zoomAndPan="magnify"><defs><filter height="300%" id="f1uuh8iw80y0sj" width="300%" x="-1" y="-1"><feGaussianBlur result="blurOut" stdDeviation="2.0"/><feColorMatrix in="blurOut" result="blurOut2" type="matrix" values="0 0 0 0 0 0 0 0 0 0 0 0 0 0 0 0 0 0 .4 0"/><feOffset dx="4.0" dy="4.0" in="blurOut2" result="blurOut3"/><feBlend in="SourceGraphic" in2="blurOut3" mode="normal"/></filter></defs><g><!--MD5=[275afd699dfec56c5bd304e04a3d58a6]
cluster Analyse-Client--><polygon fill="#FFFFFF" filter="url(#f1uuh8iw80y0sj)" points="16,156,138,156,145,178.2969,1120,178.2969,1120,721,16,721,16,156" style="stroke:#000000;stroke-width:1.5;"/><line style="stroke:#000000;stroke-width:1.5;" x1="16" x2="145" y1="178.2969" y2="178.2969"/><text fill="#000000" font-family="sans-serif" font-size="14" font-weight="bold" lengthAdjust="spacing" textLength="116" x="20" y="170.9951">Analyse-Client</text><!--MD5=[ed6624c6556d5e7b1bd23032162d20b7]
class Client--><rect codeLine="5" fill="#FEFECE" filter="url(#f1uuh8iw80y0sj)" height="172.0469" id="Client" style="stroke:#A80036;stroke-width:1.5;" width="378" x="322" y="195"/><ellipse cx="490.25" cy="211" fill="#ADD1B2" rx="11" ry="11" style="stroke:#A80036;stroke-width:1.0;"/><path d="M492.5938,206.6719 C491.6563,206.2344 491.0625,206.0938 490.1875,206.0938 C487.5625,206.0938 485.5625,208.1719 485.5625,210.8906 L485.5625,212.0156 C485.5625,214.5938 487.6719,216.4844 490.5625,216.4844 C491.7813,216.4844 492.9375,216.1875 493.6875,215.6406 C494.2656,215.2344 494.5938,214.7813 494.5938,214.3906 C494.5938,213.9375 494.2031,213.5469 493.7344,213.5469 C493.5156,213.5469 493.3125,213.625 493.125,213.8125 C492.6719,214.2969 492.6719,214.2969 492.4844,214.3906 C492.0625,214.6563 491.375,214.7813 490.6094,214.7813 C488.5625,214.7813 487.2656,213.6875 487.2656,211.9844 L487.2656,210.8906 C487.2656,209.1094 488.5156,207.7969 490.25,207.7969 C490.8281,207.7969 491.4375,207.9531 491.9063,208.2031 C492.3906,208.4844 492.5625,208.7031 492.6563,209.1094 C492.7188,209.5156 492.75,209.6406 492.8906,209.7656 C493.0313,209.9063 493.2656,210.0156 493.4844,210.0156 C493.75,210.0156 494.0156,209.875 494.1875,209.6563 C494.2969,209.5 494.3281,209.3125 494.3281,208.8906 L494.3281,207.4688 C494.3281,207.0313 494.3125,206.9063 494.2188,206.75 C494.0625,206.4844 493.7813,206.3438 493.4844,206.3438 C493.1875,206.3438 492.9844,206.4375 492.7656,206.75 L492.5938,206.6719 Z " fill="#000000"/><text fill="#000000" font-family="sans-serif" font-size="12" lengthAdjust="spacing" textLength="33" x="510.75" y="215.1543">Client</text><line style="stroke:#A80036;stroke-width:1.5;" x1="323" x2="699" y1="227" y2="227"/><rect fill="none" height="6" style="stroke:#C82930;stroke-width:1.0;" width="6" x="330" y="235"/><text fill="#000000" font-family="sans-serif" font-size="11" lengthAdjust="spacing" textLength="59" x="342" y="241.2104">data: Data</text><rect fill="none" height="6" style="stroke:#C82930;stroke-width:1.0;" width="6" x="330" y="247.8047"/><text fill="#000000" font-family="sans-serif" font-size="11" lengthAdjust="spacing" textLength="109" x="342" y="254.0151">dataForComp: Data</text><rect fill="none" height="6" style="stroke:#C82930;stroke-width:1.0;" width="6" x="330" y="260.6094"/><text fill="#000000" font-family="sans-serif" font-size="11" lengthAdjust="spacing" textLength="159" x="342" y="266.8198">analyseTypes: List&lt;Types&gt;</text><rect fill="none" height="6" style="stroke:#C82930;stroke-width:1.0;" width="6" x="330" y="273.4141"/><text fill="#000000" font-family="sans-serif" font-size="11" lengthAdjust="spacing" textLength="157" x="342" y="279.6245">analyzedData: List&lt;String&gt;</text><ellipse cx="333" cy="306.0234" fill="#84BE84" rx="3" ry="3" style="stroke:#038048;stroke-width:1.0;"/><text fill="#000000" font-family="sans-serif" font-size="11" lengthAdjust="spacing" textLength="352" x="342" y="309.2339">getData(start: Date, end: Date, dataType: ToolType): boolean</text><ellipse cx="333" cy="318.8281" fill="#84BE84" rx="3" ry="3" style="stroke:#038048;stroke-width:1.0;"/><text fill="#000000" font-family="sans-serif" font-size="11" lengthAdjust="spacing" textLength="160" x="342" y="322.0386">setAnalyseTypes(): boolean</text><ellipse cx="333" cy="331.6328" fill="#84BE84" rx="3" ry="3" style="stroke:#038048;stroke-width:1.0;"/><text fill="#000000" font-family="sans-serif" font-size="11" lengthAdjust="spacing" textLength="160" x="342" y="334.8433">displayAnalyzedData(): void</text><ellipse cx="333" cy="344.4375" fill="#84BE84" rx="3" ry="3" style="stroke:#038048;stroke-width:1.0;"/><text fill="#000000" font-family="sans-serif" font-size="11" lengthAdjust="spacing" textLength="98" x="342" y="347.6479">export(): boolean</text><ellipse cx="333" cy="357.2422" fill="#84BE84" rx="3" ry="3" style="stroke:#038048;stroke-width:1.0;"/><text fill="#000000" font-family="sans-serif" font-size="11" lengthAdjust="spacing" textLength="133" x="342" y="360.4526">analyseData(): boolean</text><line style="stroke:#A80036;stroke-width:1.5;" x1="323" x2="467.5" y1="292.6211" y2="292.6211"/><text fill="#000000" font-family="sans-serif" font-size="11" lengthAdjust="spacing" textLength="87" x="467.5" y="295.9292">public methods</text><line style="stroke:#A80036;stroke-width:1.5;" x1="554.5" x2="699" y1="292.6211" y2="292.6211"/><!--MD5=[90fa35dfc7d13cf977fc160ba1111d24]
class Analyse--><rect codeLine="19" fill="#FEFECE" filter="url(#f1uuh8iw80y0sj)" height="73.6094" id="Analyse" style="stroke:#A80036;stroke-width:1.5;" width="299" x="439.5" y="631"/><ellipse cx="561.75" cy="647" fill="#A9DCDF" rx="11" ry="11" style="stroke:#A80036;stroke-width:1.0;"/><path d="M563.8281,648.8125 L564.2188,649.7969 L563.8281,649.7969 C563.375,649.7969 563.2656,649.8125 563.1094,649.9219 C562.8594,650.0781 562.7031,650.3594 562.7031,650.6563 C562.7031,650.9219 562.8438,651.1719 563.0625,651.3281 C563.2031,651.4531 563.4063,651.5 563.8281,651.5 L566.1875,651.5 C566.5469,651.5 566.7656,651.4688 566.9063,651.375 C567.1563,651.2344 567.3125,650.9375 567.3125,650.6563 C567.3125,650.375 567.1719,650.125 566.9531,649.9688 C566.7813,649.8281 566.625,649.7969 566.1563,649.7969 L562.7656,641.5938 L559.0938,641.5938 C558.6406,641.5938 558.5156,641.6094 558.3594,641.7031 C558.1094,641.875 557.9531,642.1563 557.9531,642.4375 C557.9531,642.7188 558.0938,642.9688 558.3125,643.1406 C558.4844,643.25 558.6563,643.2813 559.0938,643.2813 L560.1719,643.2813 L557.5313,649.7969 C557.1094,649.7969 556.9531,649.8125 556.7969,649.9219 C556.5469,650.0781 556.3906,650.3594 556.3906,650.6563 C556.3906,651.2188 556.7656,651.5 557.5156,651.5 L559.7813,651.5 C560.1406,651.5 560.3594,651.4688 560.4844,651.375 C560.75,651.2344 560.8906,650.9375 560.8906,650.6563 C560.8906,650.375 560.7656,650.125 560.5469,649.9531 C560.375,649.8281 560.2344,649.7969 559.7813,649.7969 L559.3906,649.7969 L559.7813,648.8125 L563.8281,648.8125 Z M563.125,647.1094 L560.4531,647.1094 L561.7969,643.8438 L563.125,647.1094 Z " fill="#000000"/><text fill="#000000" font-family="sans-serif" font-size="12" font-style="italic" lengthAdjust="spacing" textLength="46" x="582.25" y="651.1543">Analyse</text><line style="stroke:#A80036;stroke-width:1.5;" x1="440.5" x2="737.5" y1="663" y2="663"/><line style="stroke:#A80036;stroke-width:1.5;" x1="440.5" x2="737.5" y1="671" y2="671"/><rect fill="#F24D5C" height="6" style="stroke:#C82930;stroke-width:1.0;" width="6" x="447.5" y="679"/><text fill="#000000" font-family="sans-serif" font-size="11" lengthAdjust="spacing" textLength="240" x="459.5" y="685.2104">calcRelFreq(data: Data): List&lt;List&lt;Float&gt;&gt;</text><rect fill="#F24D5C" height="6" style="stroke:#C82930;stroke-width:1.0;" width="6" x="447.5" y="691.8047"/><text fill="#000000" font-family="sans-serif" font-size="11" lengthAdjust="spacing" textLength="273" x="459.5" y="698.0151">createTimeTable(data: Data): List&lt;List&lt;Float&gt;&gt;</text><!--MD5=[3f91f8027f14bf24ffa62a72d32476ac]
class Heatmap--><rect codeLine="25" fill="#FEFECE" filter="url(#f1uuh8iw80y0sj)" height="95.2188" id="Heatmap" style="stroke:#A80036;stroke-width:1.5;" width="304" x="800" y="460"/><ellipse cx="920.75" cy="476" fill="#ADD1B2" rx="11" ry="11" style="stroke:#A80036;stroke-width:1.0;"/><path d="M923.0938,471.6719 C922.1563,471.2344 921.5625,471.0938 920.6875,471.0938 C918.0625,471.0938 916.0625,473.1719 916.0625,475.8906 L916.0625,477.0156 C916.0625,479.5938 918.1719,481.4844 921.0625,481.4844 C922.2813,481.4844 923.4375,481.1875 924.1875,480.6406 C924.7656,480.2344 925.0938,479.7813 925.0938,479.3906 C925.0938,478.9375 924.7031,478.5469 924.2344,478.5469 C924.0156,478.5469 923.8125,478.625 923.625,478.8125 C923.1719,479.2969 923.1719,479.2969 922.9844,479.3906 C922.5625,479.6563 921.875,479.7813 921.1094,479.7813 C919.0625,479.7813 917.7656,478.6875 917.7656,476.9844 L917.7656,475.8906 C917.7656,474.1094 919.0156,472.7969 920.75,472.7969 C921.3281,472.7969 921.9375,472.9531 922.4063,473.2031 C922.8906,473.4844 923.0625,473.7031 923.1563,474.1094 C923.2188,474.5156 923.25,474.6406 923.3906,474.7656 C923.5313,474.9063 923.7656,475.0156 923.9844,475.0156 C924.25,475.0156 924.5156,474.875 924.6875,474.6563 C924.7969,474.5 924.8281,474.3125 924.8281,473.8906 L924.8281,472.4688 C924.8281,472.0313 924.8125,471.9063 924.7188,471.75 C924.5625,471.4844 924.2813,471.3438 923.9844,471.3438 C923.6875,471.3438 923.4844,471.4375 923.2656,471.75 L923.0938,471.6719 Z " fill="#000000"/><text fill="#000000" font-family="sans-serif" font-size="12" lengthAdjust="spacing" textLength="54" x="941.25" y="480.1543">Heatmap</text><line style="stroke:#A80036;stroke-width:1.5;" x1="801" x2="1103" y1="492" y2="492"/><rect fill="none" height="6" style="stroke:#C82930;stroke-width:1.0;" width="6" x="808" y="500"/><text fill="#000000" font-family="sans-serif" font-size="11" lengthAdjust="spacing" textLength="159" x="820" y="506.2104">heatmap: List&lt;List&lt;Float&gt;&gt;</text><ellipse cx="811" cy="532.6094" fill="#84BE84" rx="3" ry="3" style="stroke:#038048;stroke-width:1.0;"/><text fill="#000000" font-family="sans-serif" font-size="11" lengthAdjust="spacing" textLength="196" x="820" y="535.8198">createHeatmap(data: Data): String</text><ellipse cx="811" cy="545.4141" fill="#84BE84" rx="3" ry="3" style="stroke:#038048;stroke-width:1.0;"/><text fill="#000000" font-family="sans-serif" font-size="11" lengthAdjust="spacing" textLength="278" x="820" y="548.6245">compHeatmaps(otherHeatmap: Heatmap): String</text><line style="stroke:#A80036;stroke-width:1.5;" x1="801" x2="908.5" y1="519.207" y2="519.207"/><text fill="#000000" font-family="sans-serif" font-size="11" lengthAdjust="spacing" textLength="87" x="908.5" y="522.5151">public methods</text><line style="stroke:#A80036;stroke-width:1.5;" x1="995.5" x2="1103" y1="519.207" y2="519.207"/><!--MD5=[a75dc2f5d5c9a4a0489ea15a737b99a8]
class Verlauf--><rect codeLine="33" fill="#FEFECE" filter="url(#f1uuh8iw80y0sj)" height="99.2188" id="Verlauf" style="stroke:#A80036;stroke-width:1.5;" width="352" x="413" y="458"/><ellipse cx="563.75" cy="474" fill="#ADD1B2" rx="11" ry="11" style="stroke:#A80036;stroke-width:1.0;"/><path d="M566.0938,469.6719 C565.1563,469.2344 564.5625,469.0938 563.6875,469.0938 C561.0625,469.0938 559.0625,471.1719 559.0625,473.8906 L559.0625,475.0156 C559.0625,477.5938 561.1719,479.4844 564.0625,479.4844 C565.2813,479.4844 566.4375,479.1875 567.1875,478.6406 C567.7656,478.2344 568.0938,477.7813 568.0938,477.3906 C568.0938,476.9375 567.7031,476.5469 567.2344,476.5469 C567.0156,476.5469 566.8125,476.625 566.625,476.8125 C566.1719,477.2969 566.1719,477.2969 565.9844,477.3906 C565.5625,477.6563 564.875,477.7813 564.1094,477.7813 C562.0625,477.7813 560.7656,476.6875 560.7656,474.9844 L560.7656,473.8906 C560.7656,472.1094 562.0156,470.7969 563.75,470.7969 C564.3281,470.7969 564.9375,470.9531 565.4063,471.2031 C565.8906,471.4844 566.0625,471.7031 566.1563,472.1094 C566.2188,472.5156 566.25,472.6406 566.3906,472.7656 C566.5313,472.9063 566.7656,473.0156 566.9844,473.0156 C567.25,473.0156 567.5156,472.875 567.6875,472.6563 C567.7969,472.5 567.8281,472.3125 567.8281,471.8906 L567.8281,470.4688 C567.8281,470.0313 567.8125,469.9063 567.7188,469.75 C567.5625,469.4844 567.2813,469.3438 566.9844,469.3438 C566.6875,469.3438 566.4844,469.4375 566.2656,469.75 L566.0938,469.6719 Z " fill="#000000"/><text fill="#000000" font-family="sans-serif" font-size="12" lengthAdjust="spacing" textLength="42" x="584.25" y="478.1543">Verlauf</text><line style="stroke:#A80036;stroke-width:1.5;" x1="414" x2="764" y1="490" y2="490"/><ellipse cx="424" cy="517.8047" fill="#84BE84" rx="3" ry="3" style="stroke:#038048;stroke-width:1.0;"/><text fill="#000000" font-family="sans-serif" font-size="11" lengthAdjust="spacing" textLength="185" x="433" y="521.0151">createVerlauf(data: Data): String</text><line style="stroke:#A80036;stroke-width:1.5;" x1="414" x2="548.5" y1="504.4023" y2="504.4023"/><text fill="#000000" font-family="sans-serif" font-size="11" lengthAdjust="spacing" textLength="81" x="548.5" y="507.7104">public method</text><line style="stroke:#A80036;stroke-width:1.5;" x1="629.5" x2="764" y1="504.4023" y2="504.4023"/><rect fill="#F24D5C" height="6" style="stroke:#C82930;stroke-width:1.0;" width="6" x="421" y="544.4141"/><text fill="#000000" font-family="sans-serif" font-size="11" lengthAdjust="spacing" textLength="326" x="433" y="550.6245">drawDiagramm(diagrammData: List&lt;List&lt;Float&gt;&gt;): String</text><line style="stroke:#A80036;stroke-width:1.5;" x1="414" x2="545" y1="534.0117" y2="534.0117"/><text fill="#000000" font-family="sans-serif" font-size="11" lengthAdjust="spacing" textLength="88" x="545" y="537.3198">private method</text><line style="stroke:#A80036;stroke-width:1.5;" x1="633" x2="764" y1="534.0117" y2="534.0117"/><!--MD5=[33dbb5cd9b1593568d30e59c5983c72e]
class Diagramm--><rect codeLine="41" fill="#FEFECE" filter="url(#f1uuh8iw80y0sj)" height="124.8281" id="Diagramm" style="stroke:#A80036;stroke-width:1.5;" width="345" x="32.5" y="445"/><ellipse cx="170.25" cy="461" fill="#ADD1B2" rx="11" ry="11" style="stroke:#A80036;stroke-width:1.0;"/><path d="M172.5938,456.6719 C171.6563,456.2344 171.0625,456.0938 170.1875,456.0938 C167.5625,456.0938 165.5625,458.1719 165.5625,460.8906 L165.5625,462.0156 C165.5625,464.5938 167.6719,466.4844 170.5625,466.4844 C171.7813,466.4844 172.9375,466.1875 173.6875,465.6406 C174.2656,465.2344 174.5938,464.7813 174.5938,464.3906 C174.5938,463.9375 174.2031,463.5469 173.7344,463.5469 C173.5156,463.5469 173.3125,463.625 173.125,463.8125 C172.6719,464.2969 172.6719,464.2969 172.4844,464.3906 C172.0625,464.6563 171.375,464.7813 170.6094,464.7813 C168.5625,464.7813 167.2656,463.6875 167.2656,461.9844 L167.2656,460.8906 C167.2656,459.1094 168.5156,457.7969 170.25,457.7969 C170.8281,457.7969 171.4375,457.9531 171.9063,458.2031 C172.3906,458.4844 172.5625,458.7031 172.6563,459.1094 C172.7188,459.5156 172.75,459.6406 172.8906,459.7656 C173.0313,459.9063 173.2656,460.0156 173.4844,460.0156 C173.75,460.0156 174.0156,459.875 174.1875,459.6563 C174.2969,459.5 174.3281,459.3125 174.3281,458.8906 L174.3281,457.4688 C174.3281,457.0313 174.3125,456.9063 174.2188,456.75 C174.0625,456.4844 173.7813,456.3438 173.4844,456.3438 C173.1875,456.3438 172.9844,456.4375 172.7656,456.75 L172.5938,456.6719 Z " fill="#000000"/><text fill="#000000" font-family="sans-serif" font-size="12" lengthAdjust="spacing" textLength="61" x="190.75" y="465.1543">Diagramm</text><line style="stroke:#A80036;stroke-width:1.5;" x1="33.5" x2="376.5" y1="477" y2="477"/><ellipse cx="43.5" cy="504.8047" fill="#84BE84" rx="3" ry="3" style="stroke:#038048;stroke-width:1.0;"/><text fill="#000000" font-family="sans-serif" font-size="11" lengthAdjust="spacing" textLength="235" x="52.5" y="508.0151">createRelFreqImgArea(data: Data): String</text><ellipse cx="43.5" cy="517.6094" fill="#84BE84" rx="3" ry="3" style="stroke:#038048;stroke-width:1.0;"/><text fill="#000000" font-family="sans-serif" font-size="11" lengthAdjust="spacing" textLength="227" x="52.5" y="520.8198">createViewTimeDistr(data: Data): String</text><line style="stroke:#A80036;stroke-width:1.5;" x1="33.5" x2="161.5" y1="491.4023" y2="491.4023"/><text fill="#000000" font-family="sans-serif" font-size="11" lengthAdjust="spacing" textLength="87" x="161.5" y="494.7104">public methods</text><line style="stroke:#A80036;stroke-width:1.5;" x1="248.5" x2="376.5" y1="491.4023" y2="491.4023"/><rect fill="#F24D5C" height="6" style="stroke:#C82930;stroke-width:1.0;" width="6" x="40.5" y="544.2188"/><text fill="#000000" font-family="sans-serif" font-size="11" lengthAdjust="spacing" textLength="160" x="52.5" y="550.4292">calcViewTimeDistr(): float[4]</text><rect fill="#F24D5C" height="6" style="stroke:#C82930;stroke-width:1.0;" width="6" x="40.5" y="557.0234"/><text fill="#000000" font-family="sans-serif" font-size="11" lengthAdjust="spacing" textLength="319" x="52.5" y="563.2339">drawDiagramm(diagrammData: float[4], type: int): String</text><line style="stroke:#A80036;stroke-width:1.5;" x1="33.5" x2="161" y1="533.8164" y2="533.8164"/><text fill="#000000" font-family="sans-serif" font-size="11" lengthAdjust="spacing" textLength="88" x="161" y="537.1245">private method</text><line style="stroke:#A80036;stroke-width:1.5;" x1="249" x2="376.5" y1="533.8164" y2="533.8164"/><!--MD5=[ff5b00e4f788038bc8b9934b246a9c20]
class Types--><rect codeLine="51" fill="#FEFECE" filter="url(#f1uuh8iw80y0sj)" height="112.0234" id="Types" style="stroke:#A80036;stroke-width:1.5;" width="105" x="173.5" y="223.5"/><ellipse cx="204.7" cy="239.5" fill="#EB937F" rx="11" ry="11" style="stroke:#A80036;stroke-width:1.0;"/><path d="M203.4969,240.375 L204.95,240.375 L204.95,240.4844 C204.95,240.8906 204.9813,241.0469 205.0594,241.2031 C205.2156,241.4531 205.4969,241.6094 205.7938,241.6094 C206.0438,241.6094 206.3094,241.4688 206.4656,241.25 C206.5906,241.0938 206.6219,240.9375 206.6219,240.4844 L206.6219,238.5625 C206.6219,238.4063 206.6219,238.3594 206.6063,238.2031 C206.5438,237.7344 206.2313,237.4219 205.7781,237.4219 C205.5281,237.4219 205.2625,237.5625 205.0906,237.7813 C204.9813,237.9531 204.95,238.1094 204.95,238.5625 L204.95,238.6875 L203.4969,238.6875 L203.4969,236.2813 L207.4813,236.2813 L207.4813,237.1406 C207.4813,237.5469 207.5125,237.7188 207.5906,237.875 C207.7625,238.125 208.0438,238.2813 208.325,238.2813 C208.5906,238.2813 208.8563,238.1406 209.0281,237.9219 C209.1375,237.75 209.1688,237.6094 209.1688,237.1406 L209.1688,234.5938 L201.5438,234.5938 C201.1063,234.5938 200.9813,234.6094 200.825,234.7031 C200.575,234.8594 200.4188,235.1563 200.4188,235.4375 C200.4188,235.7188 200.5594,235.9688 200.7781,236.1406 C200.9344,236.25 201.1219,236.2813 201.5438,236.2813 L201.7938,236.2813 L201.7938,242.7969 L201.5438,242.7969 C201.1375,242.7969 200.9813,242.8125 200.825,242.9219 C200.575,243.0938 200.4188,243.3594 200.4188,243.6563 C200.4188,243.9219 200.5594,244.1719 200.7781,244.3281 C200.9188,244.4531 201.1531,244.5 201.5438,244.5 L209.5438,244.5 L209.5438,241.9219 C209.5438,241.4844 209.5125,241.3438 209.4344,241.1875 C209.2625,240.9375 208.9813,240.7813 208.7,240.7813 C208.4344,240.7813 208.1688,240.8906 207.9969,241.1406 C207.8875,241.2969 207.8563,241.4375 207.8563,241.9219 L207.8563,242.7969 L203.4969,242.7969 L203.4969,240.375 Z " fill="#000000"/><text fill="#000000" font-family="sans-serif" font-size="12" lengthAdjust="spacing" textLength="37" x="222.3" y="243.6543">Types</text><line style="stroke:#A80036;stroke-width:1.5;" x1="174.5" x2="277.5" y1="255.5" y2="255.5"/><text fill="#000000" font-family="sans-serif" font-size="11" lengthAdjust="spacing" textLength="53" x="179.5" y="269.7104">HEATMAP</text><text fill="#000000" font-family="sans-serif" font-size="11" lengthAdjust="spacing" textLength="85" x="179.5" y="282.5151">COMPHEATMAP</text><text fill="#000000" font-family="sans-serif" font-size="11" lengthAdjust="spacing" textLength="50" x="179.5" y="295.3198">VERLAUF</text><text fill="#000000" font-family="sans-serif" font-size="11" lengthAdjust="spacing" textLength="93" x="179.5" y="308.1245">RELFRQIMGAREA</text><text fill="#000000" font-family="sans-serif" font-size="11" lengthAdjust="spacing" textLength="89" x="179.5" y="320.9292">VIEWTIMEDISTR</text><line style="stroke:#A80036;stroke-width:1.5;" x1="174.5" x2="277.5" y1="327.5234" y2="327.5234"/><!--MD5=[3079cd578e216c696855c75c2998d445]
class ClientGUI--><rect codeLine="60" fill="#FEFECE" filter="url(#f1uuh8iw80y0sj)" height="82.4141" id="ClientGUI" style="stroke:#A80036;stroke-width:1.5;" width="147" x="956.5" y="238.5"/><ellipse cx="998.95" cy="254.5" fill="#ADD1B2" rx="11" ry="11" style="stroke:#A80036;stroke-width:1.0;"/><path d="M1001.2938,250.1719 C1000.3563,249.7344 999.7625,249.5938 998.8875,249.5938 C996.2625,249.5938 994.2625,251.6719 994.2625,254.3906 L994.2625,255.5156 C994.2625,258.0938 996.3719,259.9844 999.2625,259.9844 C1000.4813,259.9844 1001.6375,259.6875 1002.3875,259.1406 C1002.9656,258.7344 1003.2938,258.2813 1003.2938,257.8906 C1003.2938,257.4375 1002.9031,257.0469 1002.4344,257.0469 C1002.2156,257.0469 1002.0125,257.125 1001.825,257.3125 C1001.3719,257.7969 1001.3719,257.7969 1001.1844,257.8906 C1000.7625,258.1563 1000.075,258.2813 999.3094,258.2813 C997.2625,258.2813 995.9656,257.1875 995.9656,255.4844 L995.9656,254.3906 C995.9656,252.6094 997.2156,251.2969 998.95,251.2969 C999.5281,251.2969 1000.1375,251.4531 1000.6063,251.7031 C1001.0906,251.9844 1001.2625,252.2031 1001.3563,252.6094 C1001.4188,253.0156 1001.45,253.1406 1001.5906,253.2656 C1001.7313,253.4063 1001.9656,253.5156 1002.1844,253.5156 C1002.45,253.5156 1002.7156,253.375 1002.8875,253.1563 C1002.9969,253 1003.0281,252.8125 1003.0281,252.3906 L1003.0281,250.9688 C1003.0281,250.5313 1003.0125,250.4063 1002.9188,250.25 C1002.7625,249.9844 1002.4813,249.8438 1002.1844,249.8438 C1001.8875,249.8438 1001.6844,249.9375 1001.4656,250.25 L1001.2938,250.1719 Z " fill="#000000"/><text fill="#000000" font-family="sans-serif" font-size="12" lengthAdjust="spacing" textLength="54" x="1019.05" y="258.6543">ClientGUI</text><line style="stroke:#A80036;stroke-width:1.5;" x1="957.5" x2="1102.5" y1="270.5" y2="270.5"/><rect fill="none" height="6" style="stroke:#C82930;stroke-width:1.0;" width="6" x="964.5" y="278.5"/><text fill="#000000" font-family="sans-serif" font-size="11" lengthAdjust="spacing" textLength="71" x="976.5" y="284.7104">client: Client</text><ellipse cx="967.5" cy="311.1094" fill="#84BE84" rx="3" ry="3" style="stroke:#038048;stroke-width:1.0;"/><text fill="#000000" font-family="sans-serif" font-size="11" lengthAdjust="spacing" textLength="121" x="976.5" y="314.3198">showClientGUI(): void</text><line style="stroke:#A80036;stroke-width:1.5;" x1="957.5" x2="989.5" y1="297.707" y2="297.707"/><text fill="#000000" font-family="sans-serif" font-size="11" lengthAdjust="spacing" textLength="81" x="989.5" y="301.0151">public method</text><line style="stroke:#A80036;stroke-width:1.5;" x1="1070.5" x2="1102.5" y1="297.707" y2="297.707"/><polygon fill="#FFFFFF" filter="url(#f1uuh8iw80y0sj)" points="514,23.5,652,23.5,659,45.7969,666,45.7969,666,76.0938,514,76.0938,514,23.5" style="stroke:#000000;stroke-width:1.5;"/><line style="stroke:#000000;stroke-width:1.5;" x1="514" x2="659" y1="45.7969" y2="45.7969"/><text fill="#000000" font-family="sans-serif" font-size="14" font-weight="bold" lengthAdjust="spacing" textLength="132" x="518" y="38.4951">SpeicherMedium</text><!--MD5=[5c39798b83ace9e75333b1274a725e6c]
class ToolType--><rect codeLine="83" fill="#FEFECE" filter="url(#f1uuh8iw80y0sj)" height="86.4141" id="ToolType" style="stroke:#A80036;stroke-width:1.5;" width="91" x="387.5" y="7"/><ellipse cx="403.85" cy="23" fill="#EB937F" rx="11" ry="11" style="stroke:#A80036;stroke-width:1.0;"/><path d="M402.6469,23.875 L404.1,23.875 L404.1,23.9844 C404.1,24.3906 404.1313,24.5469 404.2094,24.7031 C404.3656,24.9531 404.6469,25.1094 404.9438,25.1094 C405.1938,25.1094 405.4594,24.9688 405.6156,24.75 C405.7406,24.5938 405.7719,24.4375 405.7719,23.9844 L405.7719,22.0625 C405.7719,21.9063 405.7719,21.8594 405.7563,21.7031 C405.6938,21.2344 405.3813,20.9219 404.9281,20.9219 C404.6781,20.9219 404.4125,21.0625 404.2406,21.2813 C404.1313,21.4531 404.1,21.6094 404.1,22.0625 L404.1,22.1875 L402.6469,22.1875 L402.6469,19.7813 L406.6313,19.7813 L406.6313,20.6406 C406.6313,21.0469 406.6625,21.2188 406.7406,21.375 C406.9125,21.625 407.1938,21.7813 407.475,21.7813 C407.7406,21.7813 408.0063,21.6406 408.1781,21.4219 C408.2875,21.25 408.3188,21.1094 408.3188,20.6406 L408.3188,18.0938 L400.6938,18.0938 C400.2563,18.0938 400.1313,18.1094 399.975,18.2031 C399.725,18.3594 399.5688,18.6563 399.5688,18.9375 C399.5688,19.2188 399.7094,19.4688 399.9281,19.6406 C400.0844,19.75 400.2719,19.7813 400.6938,19.7813 L400.9438,19.7813 L400.9438,26.2969 L400.6938,26.2969 C400.2875,26.2969 400.1313,26.3125 399.975,26.4219 C399.725,26.5938 399.5688,26.8594 399.5688,27.1563 C399.5688,27.4219 399.7094,27.6719 399.9281,27.8281 C400.0688,27.9531 400.3031,28 400.6938,28 L408.6938,28 L408.6938,25.4219 C408.6938,24.9844 408.6625,24.8438 408.5844,24.6875 C408.4125,24.4375 408.1313,24.2813 407.85,24.2813 C407.5844,24.2813 407.3188,24.3906 407.1469,24.6406 C407.0375,24.7969 407.0063,24.9375 407.0063,25.4219 L407.0063,26.2969 L402.6469,26.2969 L402.6469,23.875 Z " fill="#000000"/><text fill="#000000" font-family="sans-serif" font-size="12" lengthAdjust="spacing" textLength="56" x="418.15" y="27.1543">ToolType</text><line style="stroke:#A80036;stroke-width:1.5;" x1="388.5" x2="477.5" y1="39" y2="39"/><text fill="#000000" font-family="sans-serif" font-size="11" lengthAdjust="spacing" textLength="66" x="393.5" y="53.2104">ZOOMMAPS</text><text fill="#000000" font-family="sans-serif" font-size="11" lengthAdjust="spacing" textLength="78" x="393.5" y="66.0151">EYETRACKING</text><text fill="#000000" font-family="sans-serif" font-size="11" lengthAdjust="spacing" textLength="79" x="393.5" y="78.8198">CODECHARTS</text><line style="stroke:#A80036;stroke-width:1.5;" x1="388.5" x2="477.5" y1="85.4141" y2="85.4141"/><!--MD5=[abea0b42432aea0f9ce66e53feda8644]
entity System--><ellipse cx="1174" cy="507.5" fill="#FEFECE" filter="url(#f1uuh8iw80y0sj)" rx="8" ry="8" style="stroke:#A80036;stroke-width:1.5;"/><text fill="#000000" font-family="sans-serif" font-size="14" lengthAdjust="spacing" textLength="54" x="1147" y="537.4951">System</text><!--MD5=[0142a10273876a6498763cbca717bc4b]
link Heatmap to Analyse--><path codeLine="67" d="M845.051,555.198 C796.017,576.608 738.197,601.855 689.92,622.934 " fill="none" id="Heatmap-to-Analyse" style="stroke:#A80036;stroke-width:1.0;"/><polygon fill="none" points="692.713,629.353,671.583,630.941,687.111,616.523,692.713,629.353" style="stroke:#A80036;stroke-width:1.0;"/><!--MD5=[49c5c3aad5e065304b1f0455c88d6c6a]
link Verlauf to Analyse--><path codeLine="68" d="M589,557.349 C589,574.226 589,593.273 589,610.699 " fill="none" id="Verlauf-to-Analyse" style="stroke:#A80036;stroke-width:1.0;"/><polygon fill="none" points="596,610.897,589,630.897,582,610.897,596,610.897" style="stroke:#A80036;stroke-width:1.0;"/><!--MD5=[eec8e75ff2920fb7be4f9035a3a6b788]
link Diagramm to Analyse--><path codeLine="69" d="M354.014,570.007 C397.05,587.771 443.123,606.788 482.97,623.235 " fill="none" id="Diagramm-to-Analyse" style="stroke:#A80036;stroke-width:1.0;"/><polygon fill="none" points="485.877,616.862,501.693,630.963,480.535,629.803,485.877,616.862" style="stroke:#A80036;stroke-width:1.0;"/><!--MD5=[458e23c55b866563aae54fc87d28c1cd]
link Client to Heatmap--><path codeLine="72" d="M681.818,368.039 C741.075,398.407 805.382,431.363 856.388,457.502 " fill="none" id="Client-to-Heatmap" style="stroke:#A80036;stroke-width:1.0;"/><polygon fill="#A80036" points="860.969,459.849,854.7861,452.1828,856.52,457.5673,851.1354,459.3012,860.969,459.849" style="stroke:#A80036;stroke-width:1.0;"/><!--MD5=[28cbb4bcdbacbdc16d11542d97316c4d]
link Client to Verlauf--><path codeLine="73" d="M541.268,368.201 C551.104,396.7 561.721,427.462 570.439,452.721 " fill="none" id="Client-to-Verlauf" style="stroke:#A80036;stroke-width:1.0;"/><polygon fill="#A80036" points="572.156,457.697,573.0001,447.8844,570.5244,452.9707,565.438,450.495,572.156,457.697" style="stroke:#A80036;stroke-width:1.0;"/><!--MD5=[5a584ab670d8f56708f0929dbbb811bb]
link Client to Diagramm--><path codeLine="74" d="M392.254,368.201 C359.134,392.662 323.756,418.791 292.77,441.676 " fill="none" id="Client-to-Diagramm" style="stroke:#A80036;stroke-width:1.0;"/><polygon fill="#A80036" points="288.624,444.739,298.2403,442.6115,292.6465,441.7693,293.4887,436.1754,288.624,444.739" style="stroke:#A80036;stroke-width:1.0;"/><!--MD5=[1446ce79daee994e8460d46ead5e4cd4]
link Types to Client--><path codeLine="75" d="M278.603,279.5 C290.253,279.5 301.903,279.5 313.553,279.5 " fill="none" id="Types-Client" style="stroke:#A80036;stroke-width:1.0;"/><!--MD5=[d87b49e9793fa2adf9873dcf0a70cfd9]
reverse link Client to ClientGUI--><path codeLine="76" d="M713.421,279.5 C798.931,279.5 893.14,279.5 956.369,279.5 " fill="none" id="Client-backto-ClientGUI" style="stroke:#A80036;stroke-width:1.0;"/><polygon fill="#A80036" points="708.322,279.5,717.322,283.5,713.322,279.5,717.322,275.5,708.322,279.5" style="stroke:#A80036;stroke-width:1.0;"/><polygon fill="#000000" points="725.25,268.0664,734.2951,271.0053,734.2951,265.1275,725.25,268.0664" style="stroke:#000000;stroke-width:1.0;"/><text fill="#000000" font-family="sans-serif" font-size="13" lengthAdjust="spacing" textLength="199" x="739.25" y="272.5669">graphische Benutzeroberfläche</text><!--MD5=[e915fa9e1e96e39591c06eed7939ff93]
link SpeicherMedium to Client--><path codeLine="79" d="M581.091,76.655 C571.467,104.37 555.6,150.062 541.395,190.97 " fill="none" id="SpeicherMedium-Client" style="stroke:#A80036;stroke-width:1.0;"/><polygon fill="#000000" points="567.3598,136.2897,573.1032,128.7092,567.5506,126.7811,567.3598,136.2897" style="stroke:#000000;stroke-width:1.0;"/><text fill="#000000" font-family="sans-serif" font-size="13" lengthAdjust="spacing" textLength="63" x="578" y="136.0669">gets Data</text><!--MD5=[d8fe5df92e8fb3bc8aac22f151a507a7]
link ToolType to Client--><path codeLine="95" d="M387.418,92.923 C362.974,118.564 335.224,153.564 322,191 C313.525,214.993 295.555,305.5 321,305.5 " fill="none" id="ToolType-Client" style="stroke:#A80036;stroke-width:1.0;"/><!--MD5=[b01be8bdc4fb25d848cf3e7fba7545c0]
link Client to System--><path codeLine="96" d="M701,342.5 C796.857,342.5 1038.03,395.3 1120,445 C1142.6,458.703 1160.86,484.959 1169.16,498.294 " fill="none" id="Client-System" style="stroke:#A80036;stroke-width:1.0;"/><polygon fill="#000000" points="1055.7442,408.1452,1048.0898,402.5006,1046.2339,408.0777,1055.7442,408.1452" style="stroke:#000000;stroke-width:1.0;"/><text fill="#000000" font-family="sans-serif" font-size="13" lengthAdjust="spacing" textLength="48" x="1060" y="411.0669">save to</text><!--MD5=[97212862e162b36a796109d6856d14dd]
@startuml
' === ANALYSE CLIENT ===
package Analyse-Client{
  
  ' Client
  class Client {
    - data: Data
    - dataForComp: Data
    - analyseTypes: List<Types>
    - analyzedData: List<String>
    __public methods__
    + getData(start: Date, end: Date, dataType: ToolType): boolean
    + setAnalyseTypes(): boolean
    + displayAnalyzedData(): void
    + export(): boolean
    + analyseData(): boolean
  }

  ' Analyse
  abstract Analyse {
    - calcRelFreq(data: Data): List<List<Float>>
    - createTimeTable(data: Data): List<List<Float>>
  }

  ' Heatmap
  class Heatmap {
    - heatmap: List<List<Float>>
    __public methods__
    + createHeatmap(data: Data): String
    + compHeatmaps(otherHeatmap: Heatmap): String
  }

  ' Verlauf
  class Verlauf {
    __public method__
    + createVerlauf(data: Data): String
    __private method__
    - drawDiagramm(diagrammData: List<List<Float>>): String
  }

  ' Diagramm
  class Diagramm {
    __public methods__
    + createRelFreqImgArea(data: Data): String
    + createViewTimeDistr(data: Data): String
    __private method__
    - calcViewTimeDistr(): float[4]
    - drawDiagramm(diagrammData: float[4], type: int): String
  }

  ' Types
  enum Types {
    HEATMAP
    COMPHEATMAP
    VERLAUF
    RELFRQIMGAREA
    VIEWTIMEDISTR
  }

  ' ClientGUI
  class ClientGUI {
    - client: Client
    __public method__
    + showClientGUI(): void
  }

  ' Vererbung
  Analyse <|-u- Heatmap
  Analyse <|-u- Verlauf
  Analyse <|-u- Diagramm

  ' Interaktionen
  Client -d-> Heatmap 
  Client -d-> Verlauf
  Client -d-> Diagramm
  Client -l- Types
  Client <-r- ClientGUI : < graphische Benutzeroberfläche

  ' Andere Module
  Client -u- SpeicherMedium : < gets Data
}

' Typen der erhobenen Daten
enum ToolType {
  ZOOMMAPS
  EYETRACKING
  CODECHARTS
}

' Blackbox
package SpeicherMedium {}

() System

' Interaktionen
Client::getData -u- ToolType
Client::export - - System: > save to
@enduml

@startuml
package Analyse-Client{
  
  class Client {
    - data: Data
    - dataForComp: Data
    - analyseTypes: List<Types>
    - analyzedData: List<String>
    __public methods__
    + getData(start: Date, end: Date, dataType: ToolType): boolean
    + setAnalyseTypes(): boolean
    + displayAnalyzedData(): void
    + export(): boolean
    + analyseData(): boolean
  }

  abstract Analyse {
    - calcRelFreq(data: Data): List<List<Float>>
    - createTimeTable(data: Data): List<List<Float>>
  }

  class Heatmap {
    - heatmap: List<List<Float>>
    __public methods__
    + createHeatmap(data: Data): String
    + compHeatmaps(otherHeatmap: Heatmap): String
  }

  class Verlauf {
    __public method__
    + createVerlauf(data: Data): String
    __private method__
    - drawDiagramm(diagrammData: List<List<Float>>): String
  }

  class Diagramm {
    __public methods__
    + createRelFreqImgArea(data: Data): String
    + createViewTimeDistr(data: Data): String
    __private method__
    - calcViewTimeDistr(): float[4]
    - drawDiagramm(diagrammData: float[4], type: int): String
  }

  enum Types {
    HEATMAP
    COMPHEATMAP
    VERLAUF
    RELFRQIMGAREA
    VIEWTIMEDISTR
  }

  class ClientGUI {
    - client: Client
    __public method__
    + showClientGUI(): void
  }

  Analyse <|-u- Heatmap
  Analyse <|-u- Verlauf
  Analyse <|-u- Diagramm

  Client -d-> Heatmap 
  Client -d-> Verlauf
  Client -d-> Diagramm
  Client -l- Types
  Client <-r- ClientGUI : < graphische Benutzeroberfläche

  Client -u- SpeicherMedium : < gets Data
}

enum ToolType {
  ZOOMMAPS
  EYETRACKING
  CODECHARTS
}

package SpeicherMedium {}

() System

Client::getData -u- ToolType
Client::export - - System: > save to
@enduml

PlantUML version 1.2021.14beta3(Unknown compile time)
(GPL source distribution)
Java Runtime: Java(TM) SE Runtime Environment
JVM: Java HotSpot(TM) 64-Bit Server VM
Default Encoding: UTF-8
Language: en
Country: US
--></g></svg>