<?xml version="1.0" encoding="UTF-8" standalone="no"?><svg xmlns="http://www.w3.org/2000/svg" xmlns:xlink="http://www.w3.org/1999/xlink" contentScriptType="application/ecmascript" contentStyleType="text/css" height="711px" preserveAspectRatio="none" style="width:1276px;height:711px;background:#FFFFFF;" version="1.1" viewBox="0 0 1276 711" width="1276px" zoomAndPan="magnify"><defs><filter height="300%" id="fm0rkwx1hg8zi" width="300%" x="-1" y="-1"><feGaussianBlur result="blurOut" stdDeviation="2.0"/><feColorMatrix in="blurOut" result="blurOut2" type="matrix" values="0 0 0 0 0 0 0 0 0 0 0 0 0 0 0 0 0 0 .4 0"/><feOffset dx="4.0" dy="4.0" in="blurOut2" result="blurOut3"/><feBlend in="SourceGraphic" in2="blurOut3" mode="normal"/></filter></defs><g><!--MD5=[275afd699dfec56c5bd304e04a3d58a6]
cluster Analyse-Client--><polygon fill="#FFFFFF" filter="url(#fm0rkwx1hg8zi)" points="16,122,138,122,145,144.2969,1120,144.2969,1120,704,16,704,16,122" style="stroke:#000000;stroke-width:1.5;"/><line style="stroke:#000000;stroke-width:1.5;" x1="16" x2="145" y1="144.2969" y2="144.2969"/><text fill="#000000" font-family="sans-serif" font-size="14" font-weight="bold" lengthAdjust="spacing" textLength="116" x="20" y="136.9951">Analyse-Client</text><!--MD5=[ed6624c6556d5e7b1bd23032162d20b7]
class Client--><rect codeLine="5" fill="#FEFECE" filter="url(#fm0rkwx1hg8zi)" height="184.8516" id="Client" style="stroke:#A80036;stroke-width:1.5;" width="428" x="617" y="172"/><ellipse cx="810.25" cy="188" fill="#ADD1B2" rx="11" ry="11" style="stroke:#A80036;stroke-width:1.0;"/><path d="M812.5938,183.6719 C811.6563,183.2344 811.0625,183.0938 810.1875,183.0938 C807.5625,183.0938 805.5625,185.1719 805.5625,187.8906 L805.5625,189.0156 C805.5625,191.5938 807.6719,193.4844 810.5625,193.4844 C811.7813,193.4844 812.9375,193.1875 813.6875,192.6406 C814.2656,192.2344 814.5938,191.7813 814.5938,191.3906 C814.5938,190.9375 814.2031,190.5469 813.7344,190.5469 C813.5156,190.5469 813.3125,190.625 813.125,190.8125 C812.6719,191.2969 812.6719,191.2969 812.4844,191.3906 C812.0625,191.6563 811.375,191.7813 810.6094,191.7813 C808.5625,191.7813 807.2656,190.6875 807.2656,188.9844 L807.2656,187.8906 C807.2656,186.1094 808.5156,184.7969 810.25,184.7969 C810.8281,184.7969 811.4375,184.9531 811.9063,185.2031 C812.3906,185.4844 812.5625,185.7031 812.6563,186.1094 C812.7188,186.5156 812.75,186.6406 812.8906,186.7656 C813.0313,186.9063 813.2656,187.0156 813.4844,187.0156 C813.75,187.0156 814.0156,186.875 814.1875,186.6563 C814.2969,186.5 814.3281,186.3125 814.3281,185.8906 L814.3281,184.4688 C814.3281,184.0313 814.3125,183.9063 814.2188,183.75 C814.0625,183.4844 813.7813,183.3438 813.4844,183.3438 C813.1875,183.3438 812.9844,183.4375 812.7656,183.75 L812.5938,183.6719 Z " fill="#000000"/><text fill="#000000" font-family="sans-serif" font-size="12" lengthAdjust="spacing" textLength="33" x="830.75" y="192.1543">Client</text><line style="stroke:#A80036;stroke-width:1.5;" x1="618" x2="1044" y1="204" y2="204"/><rect fill="none" height="6" style="stroke:#C82930;stroke-width:1.0;" width="6" x="625" y="212"/><text fill="#000000" font-family="sans-serif" font-size="11" lengthAdjust="spacing" textLength="59" x="637" y="218.2104">data: Data</text><rect fill="none" height="6" style="stroke:#C82930;stroke-width:1.0;" width="6" x="625" y="224.8047"/><text fill="#000000" font-family="sans-serif" font-size="11" lengthAdjust="spacing" textLength="109" x="637" y="231.0151">dataForComp: Data</text><rect fill="none" height="6" style="stroke:#C82930;stroke-width:1.0;" width="6" x="625" y="237.6094"/><text fill="#000000" font-family="sans-serif" font-size="11" lengthAdjust="spacing" textLength="122" x="637" y="243.8198">analyseTypes: Types</text><rect fill="none" height="6" style="stroke:#C82930;stroke-width:1.0;" width="6" x="625" y="250.4141"/><text fill="#000000" font-family="sans-serif" font-size="11" lengthAdjust="spacing" textLength="157" x="637" y="256.6245">analyzedData: List&lt;String&gt;</text><ellipse cx="628" cy="283.0234" fill="#84BE84" rx="3" ry="3" style="stroke:#038048;stroke-width:1.0;"/><text fill="#000000" font-family="sans-serif" font-size="11" lengthAdjust="spacing" textLength="352" x="637" y="286.2339">getData(start: Date, end: Date, dataType: ToolType): boolean</text><ellipse cx="628" cy="295.8281" fill="#84BE84" rx="3" ry="3" style="stroke:#038048;stroke-width:1.0;"/><text fill="#000000" font-family="sans-serif" font-size="11" lengthAdjust="spacing" textLength="402" x="637" y="299.0386">getDataForComp(start: Date, end: Date, dataType: ToolType): boolean</text><ellipse cx="628" cy="308.6328" fill="#84BE84" rx="3" ry="3" style="stroke:#038048;stroke-width:1.0;"/><text fill="#000000" font-family="sans-serif" font-size="11" lengthAdjust="spacing" textLength="160" x="637" y="311.8433">setAnalyseTypes(): boolean</text><ellipse cx="628" cy="321.4375" fill="#84BE84" rx="3" ry="3" style="stroke:#038048;stroke-width:1.0;"/><text fill="#000000" font-family="sans-serif" font-size="11" lengthAdjust="spacing" textLength="133" x="637" y="324.6479">analyseData(): boolean</text><ellipse cx="628" cy="334.2422" fill="#84BE84" rx="3" ry="3" style="stroke:#038048;stroke-width:1.0;"/><text fill="#000000" font-family="sans-serif" font-size="11" lengthAdjust="spacing" textLength="160" x="637" y="337.4526">displayAnalyzedData(): void</text><ellipse cx="628" cy="347.0469" fill="#84BE84" rx="3" ry="3" style="stroke:#038048;stroke-width:1.0;"/><text fill="#000000" font-family="sans-serif" font-size="11" lengthAdjust="spacing" textLength="98" x="637" y="350.2573">export(): boolean</text><line style="stroke:#A80036;stroke-width:1.5;" x1="618" x2="787.5" y1="269.6211" y2="269.6211"/><text fill="#000000" font-family="sans-serif" font-size="11" lengthAdjust="spacing" textLength="87" x="787.5" y="272.9292">public methods</text><line style="stroke:#A80036;stroke-width:1.5;" x1="874.5" x2="1044" y1="269.6211" y2="269.6211"/><!--MD5=[90fa35dfc7d13cf977fc160ba1111d24]
class Analyse--><rect codeLine="20" fill="#FEFECE" filter="url(#fm0rkwx1hg8zi)" height="73.6094" id="Analyse" style="stroke:#A80036;stroke-width:1.5;" width="299" x="439.5" y="614"/><ellipse cx="561.75" cy="630" fill="#A9DCDF" rx="11" ry="11" style="stroke:#A80036;stroke-width:1.0;"/><path d="M563.8281,631.8125 L564.2188,632.7969 L563.8281,632.7969 C563.375,632.7969 563.2656,632.8125 563.1094,632.9219 C562.8594,633.0781 562.7031,633.3594 562.7031,633.6563 C562.7031,633.9219 562.8438,634.1719 563.0625,634.3281 C563.2031,634.4531 563.4063,634.5 563.8281,634.5 L566.1875,634.5 C566.5469,634.5 566.7656,634.4688 566.9063,634.375 C567.1563,634.2344 567.3125,633.9375 567.3125,633.6563 C567.3125,633.375 567.1719,633.125 566.9531,632.9688 C566.7813,632.8281 566.625,632.7969 566.1563,632.7969 L562.7656,624.5938 L559.0938,624.5938 C558.6406,624.5938 558.5156,624.6094 558.3594,624.7031 C558.1094,624.875 557.9531,625.1563 557.9531,625.4375 C557.9531,625.7188 558.0938,625.9688 558.3125,626.1406 C558.4844,626.25 558.6563,626.2813 559.0938,626.2813 L560.1719,626.2813 L557.5313,632.7969 C557.1094,632.7969 556.9531,632.8125 556.7969,632.9219 C556.5469,633.0781 556.3906,633.3594 556.3906,633.6563 C556.3906,634.2188 556.7656,634.5 557.5156,634.5 L559.7813,634.5 C560.1406,634.5 560.3594,634.4688 560.4844,634.375 C560.75,634.2344 560.8906,633.9375 560.8906,633.6563 C560.8906,633.375 560.7656,633.125 560.5469,632.9531 C560.375,632.8281 560.2344,632.7969 559.7813,632.7969 L559.3906,632.7969 L559.7813,631.8125 L563.8281,631.8125 Z M563.125,630.1094 L560.4531,630.1094 L561.7969,626.8438 L563.125,630.1094 Z " fill="#000000"/><text fill="#000000" font-family="sans-serif" font-size="12" font-style="italic" lengthAdjust="spacing" textLength="46" x="582.25" y="634.1543">Analyse</text><line style="stroke:#A80036;stroke-width:1.5;" x1="440.5" x2="737.5" y1="646" y2="646"/><line style="stroke:#A80036;stroke-width:1.5;" x1="440.5" x2="737.5" y1="654" y2="654"/><rect fill="#F24D5C" height="6" style="stroke:#C82930;stroke-width:1.0;" width="6" x="447.5" y="662"/><text fill="#000000" font-family="sans-serif" font-size="11" lengthAdjust="spacing" textLength="240" x="459.5" y="668.2104">calcRelFreq(data: Data): List&lt;List&lt;Float&gt;&gt;</text><rect fill="#F24D5C" height="6" style="stroke:#C82930;stroke-width:1.0;" width="6" x="447.5" y="674.8047"/><text fill="#000000" font-family="sans-serif" font-size="11" lengthAdjust="spacing" textLength="273" x="459.5" y="681.0151">createTimeTable(data: Data): List&lt;List&lt;Float&gt;&gt;</text><!--MD5=[3f91f8027f14bf24ffa62a72d32476ac]
class Heatmap--><rect codeLine="26" fill="#FEFECE" filter="url(#fm0rkwx1hg8zi)" height="95.2188" id="Heatmap" style="stroke:#A80036;stroke-width:1.5;" width="304" x="800" y="443"/><ellipse cx="920.75" cy="459" fill="#ADD1B2" rx="11" ry="11" style="stroke:#A80036;stroke-width:1.0;"/><path d="M923.0938,454.6719 C922.1563,454.2344 921.5625,454.0938 920.6875,454.0938 C918.0625,454.0938 916.0625,456.1719 916.0625,458.8906 L916.0625,460.0156 C916.0625,462.5938 918.1719,464.4844 921.0625,464.4844 C922.2813,464.4844 923.4375,464.1875 924.1875,463.6406 C924.7656,463.2344 925.0938,462.7813 925.0938,462.3906 C925.0938,461.9375 924.7031,461.5469 924.2344,461.5469 C924.0156,461.5469 923.8125,461.625 923.625,461.8125 C923.1719,462.2969 923.1719,462.2969 922.9844,462.3906 C922.5625,462.6563 921.875,462.7813 921.1094,462.7813 C919.0625,462.7813 917.7656,461.6875 917.7656,459.9844 L917.7656,458.8906 C917.7656,457.1094 919.0156,455.7969 920.75,455.7969 C921.3281,455.7969 921.9375,455.9531 922.4063,456.2031 C922.8906,456.4844 923.0625,456.7031 923.1563,457.1094 C923.2188,457.5156 923.25,457.6406 923.3906,457.7656 C923.5313,457.9063 923.7656,458.0156 923.9844,458.0156 C924.25,458.0156 924.5156,457.875 924.6875,457.6563 C924.7969,457.5 924.8281,457.3125 924.8281,456.8906 L924.8281,455.4688 C924.8281,455.0313 924.8125,454.9063 924.7188,454.75 C924.5625,454.4844 924.2813,454.3438 923.9844,454.3438 C923.6875,454.3438 923.4844,454.4375 923.2656,454.75 L923.0938,454.6719 Z " fill="#000000"/><text fill="#000000" font-family="sans-serif" font-size="12" lengthAdjust="spacing" textLength="54" x="941.25" y="463.1543">Heatmap</text><line style="stroke:#A80036;stroke-width:1.5;" x1="801" x2="1103" y1="475" y2="475"/><rect fill="none" height="6" style="stroke:#C82930;stroke-width:1.0;" width="6" x="808" y="483"/><text fill="#000000" font-family="sans-serif" font-size="11" lengthAdjust="spacing" textLength="159" x="820" y="489.2104">heatmap: List&lt;List&lt;Float&gt;&gt;</text><ellipse cx="811" cy="515.6094" fill="#84BE84" rx="3" ry="3" style="stroke:#038048;stroke-width:1.0;"/><text fill="#000000" font-family="sans-serif" font-size="11" lengthAdjust="spacing" textLength="196" x="820" y="518.8198">createHeatmap(data: Data): String</text><ellipse cx="811" cy="528.4141" fill="#84BE84" rx="3" ry="3" style="stroke:#038048;stroke-width:1.0;"/><text fill="#000000" font-family="sans-serif" font-size="11" lengthAdjust="spacing" textLength="278" x="820" y="531.6245">compHeatmaps(otherHeatmap: Heatmap): String</text><line style="stroke:#A80036;stroke-width:1.5;" x1="801" x2="908.5" y1="502.207" y2="502.207"/><text fill="#000000" font-family="sans-serif" font-size="11" lengthAdjust="spacing" textLength="87" x="908.5" y="505.5151">public methods</text><line style="stroke:#A80036;stroke-width:1.5;" x1="995.5" x2="1103" y1="502.207" y2="502.207"/><!--MD5=[a75dc2f5d5c9a4a0489ea15a737b99a8]
class Verlauf--><rect codeLine="34" fill="#FEFECE" filter="url(#fm0rkwx1hg8zi)" height="99.2188" id="Verlauf" style="stroke:#A80036;stroke-width:1.5;" width="352" x="413" y="441"/><ellipse cx="563.75" cy="457" fill="#ADD1B2" rx="11" ry="11" style="stroke:#A80036;stroke-width:1.0;"/><path d="M566.0938,452.6719 C565.1563,452.2344 564.5625,452.0938 563.6875,452.0938 C561.0625,452.0938 559.0625,454.1719 559.0625,456.8906 L559.0625,458.0156 C559.0625,460.5938 561.1719,462.4844 564.0625,462.4844 C565.2813,462.4844 566.4375,462.1875 567.1875,461.6406 C567.7656,461.2344 568.0938,460.7813 568.0938,460.3906 C568.0938,459.9375 567.7031,459.5469 567.2344,459.5469 C567.0156,459.5469 566.8125,459.625 566.625,459.8125 C566.1719,460.2969 566.1719,460.2969 565.9844,460.3906 C565.5625,460.6563 564.875,460.7813 564.1094,460.7813 C562.0625,460.7813 560.7656,459.6875 560.7656,457.9844 L560.7656,456.8906 C560.7656,455.1094 562.0156,453.7969 563.75,453.7969 C564.3281,453.7969 564.9375,453.9531 565.4063,454.2031 C565.8906,454.4844 566.0625,454.7031 566.1563,455.1094 C566.2188,455.5156 566.25,455.6406 566.3906,455.7656 C566.5313,455.9063 566.7656,456.0156 566.9844,456.0156 C567.25,456.0156 567.5156,455.875 567.6875,455.6563 C567.7969,455.5 567.8281,455.3125 567.8281,454.8906 L567.8281,453.4688 C567.8281,453.0313 567.8125,452.9063 567.7188,452.75 C567.5625,452.4844 567.2813,452.3438 566.9844,452.3438 C566.6875,452.3438 566.4844,452.4375 566.2656,452.75 L566.0938,452.6719 Z " fill="#000000"/><text fill="#000000" font-family="sans-serif" font-size="12" lengthAdjust="spacing" textLength="42" x="584.25" y="461.1543">Verlauf</text><line style="stroke:#A80036;stroke-width:1.5;" x1="414" x2="764" y1="473" y2="473"/><ellipse cx="424" cy="500.8047" fill="#84BE84" rx="3" ry="3" style="stroke:#038048;stroke-width:1.0;"/><text fill="#000000" font-family="sans-serif" font-size="11" lengthAdjust="spacing" textLength="185" x="433" y="504.0151">createVerlauf(data: Data): String</text><line style="stroke:#A80036;stroke-width:1.5;" x1="414" x2="548.5" y1="487.4023" y2="487.4023"/><text fill="#000000" font-family="sans-serif" font-size="11" lengthAdjust="spacing" textLength="81" x="548.5" y="490.7104">public method</text><line style="stroke:#A80036;stroke-width:1.5;" x1="629.5" x2="764" y1="487.4023" y2="487.4023"/><rect fill="#F24D5C" height="6" style="stroke:#C82930;stroke-width:1.0;" width="6" x="421" y="527.4141"/><text fill="#000000" font-family="sans-serif" font-size="11" lengthAdjust="spacing" textLength="326" x="433" y="533.6245">drawDiagramm(diagrammData: List&lt;List&lt;Float&gt;&gt;): String</text><line style="stroke:#A80036;stroke-width:1.5;" x1="414" x2="545" y1="517.0117" y2="517.0117"/><text fill="#000000" font-family="sans-serif" font-size="11" lengthAdjust="spacing" textLength="88" x="545" y="520.3198">private method</text><line style="stroke:#A80036;stroke-width:1.5;" x1="633" x2="764" y1="517.0117" y2="517.0117"/><!--MD5=[33dbb5cd9b1593568d30e59c5983c72e]
class Diagramm--><rect codeLine="42" fill="#FEFECE" filter="url(#fm0rkwx1hg8zi)" height="124.8281" id="Diagramm" style="stroke:#A80036;stroke-width:1.5;" width="345" x="32.5" y="428"/><ellipse cx="170.25" cy="444" fill="#ADD1B2" rx="11" ry="11" style="stroke:#A80036;stroke-width:1.0;"/><path d="M172.5938,439.6719 C171.6563,439.2344 171.0625,439.0938 170.1875,439.0938 C167.5625,439.0938 165.5625,441.1719 165.5625,443.8906 L165.5625,445.0156 C165.5625,447.5938 167.6719,449.4844 170.5625,449.4844 C171.7813,449.4844 172.9375,449.1875 173.6875,448.6406 C174.2656,448.2344 174.5938,447.7813 174.5938,447.3906 C174.5938,446.9375 174.2031,446.5469 173.7344,446.5469 C173.5156,446.5469 173.3125,446.625 173.125,446.8125 C172.6719,447.2969 172.6719,447.2969 172.4844,447.3906 C172.0625,447.6563 171.375,447.7813 170.6094,447.7813 C168.5625,447.7813 167.2656,446.6875 167.2656,444.9844 L167.2656,443.8906 C167.2656,442.1094 168.5156,440.7969 170.25,440.7969 C170.8281,440.7969 171.4375,440.9531 171.9063,441.2031 C172.3906,441.4844 172.5625,441.7031 172.6563,442.1094 C172.7188,442.5156 172.75,442.6406 172.8906,442.7656 C173.0313,442.9063 173.2656,443.0156 173.4844,443.0156 C173.75,443.0156 174.0156,442.875 174.1875,442.6563 C174.2969,442.5 174.3281,442.3125 174.3281,441.8906 L174.3281,440.4688 C174.3281,440.0313 174.3125,439.9063 174.2188,439.75 C174.0625,439.4844 173.7813,439.3438 173.4844,439.3438 C173.1875,439.3438 172.9844,439.4375 172.7656,439.75 L172.5938,439.6719 Z " fill="#000000"/><text fill="#000000" font-family="sans-serif" font-size="12" lengthAdjust="spacing" textLength="61" x="190.75" y="448.1543">Diagramm</text><line style="stroke:#A80036;stroke-width:1.5;" x1="33.5" x2="376.5" y1="460" y2="460"/><ellipse cx="43.5" cy="487.8047" fill="#84BE84" rx="3" ry="3" style="stroke:#038048;stroke-width:1.0;"/><text fill="#000000" font-family="sans-serif" font-size="11" lengthAdjust="spacing" textLength="235" x="52.5" y="491.0151">createRelFreqImgArea(data: Data): String</text><ellipse cx="43.5" cy="500.6094" fill="#84BE84" rx="3" ry="3" style="stroke:#038048;stroke-width:1.0;"/><text fill="#000000" font-family="sans-serif" font-size="11" lengthAdjust="spacing" textLength="227" x="52.5" y="503.8198">createViewTimeDistr(data: Data): String</text><line style="stroke:#A80036;stroke-width:1.5;" x1="33.5" x2="161.5" y1="474.4023" y2="474.4023"/><text fill="#000000" font-family="sans-serif" font-size="11" lengthAdjust="spacing" textLength="87" x="161.5" y="477.7104">public methods</text><line style="stroke:#A80036;stroke-width:1.5;" x1="248.5" x2="376.5" y1="474.4023" y2="474.4023"/><rect fill="#F24D5C" height="6" style="stroke:#C82930;stroke-width:1.0;" width="6" x="40.5" y="527.2188"/><text fill="#000000" font-family="sans-serif" font-size="11" lengthAdjust="spacing" textLength="160" x="52.5" y="533.4292">calcViewTimeDistr(): float[4]</text><rect fill="#F24D5C" height="6" style="stroke:#C82930;stroke-width:1.0;" width="6" x="40.5" y="540.0234"/><text fill="#000000" font-family="sans-serif" font-size="11" lengthAdjust="spacing" textLength="319" x="52.5" y="546.2339">drawDiagramm(diagrammData: float[4], type: int): String</text><line style="stroke:#A80036;stroke-width:1.5;" x1="33.5" x2="161" y1="516.8164" y2="516.8164"/><text fill="#000000" font-family="sans-serif" font-size="11" lengthAdjust="spacing" textLength="88" x="161" y="520.1245">private method</text><line style="stroke:#A80036;stroke-width:1.5;" x1="249" x2="376.5" y1="516.8164" y2="516.8164"/><!--MD5=[ff5b00e4f788038bc8b9934b246a9c20]
class Types--><rect codeLine="52" fill="#FEFECE" filter="url(#fm0rkwx1hg8zi)" height="210.4609" id="Types" style="stroke:#A80036;stroke-width:1.5;" width="415" x="32.5" y="157"/><ellipse cx="217.25" cy="173" fill="#ADD1B2" rx="11" ry="11" style="stroke:#A80036;stroke-width:1.0;"/><path d="M219.5938,168.6719 C218.6563,168.2344 218.0625,168.0938 217.1875,168.0938 C214.5625,168.0938 212.5625,170.1719 212.5625,172.8906 L212.5625,174.0156 C212.5625,176.5938 214.6719,178.4844 217.5625,178.4844 C218.7813,178.4844 219.9375,178.1875 220.6875,177.6406 C221.2656,177.2344 221.5938,176.7813 221.5938,176.3906 C221.5938,175.9375 221.2031,175.5469 220.7344,175.5469 C220.5156,175.5469 220.3125,175.625 220.125,175.8125 C219.6719,176.2969 219.6719,176.2969 219.4844,176.3906 C219.0625,176.6563 218.375,176.7813 217.6094,176.7813 C215.5625,176.7813 214.2656,175.6875 214.2656,173.9844 L214.2656,172.8906 C214.2656,171.1094 215.5156,169.7969 217.25,169.7969 C217.8281,169.7969 218.4375,169.9531 218.9063,170.2031 C219.3906,170.4844 219.5625,170.7031 219.6563,171.1094 C219.7188,171.5156 219.75,171.6406 219.8906,171.7656 C220.0313,171.9063 220.2656,172.0156 220.4844,172.0156 C220.75,172.0156 221.0156,171.875 221.1875,171.6563 C221.2969,171.5 221.3281,171.3125 221.3281,170.8906 L221.3281,169.4688 C221.3281,169.0313 221.3125,168.9063 221.2188,168.75 C221.0625,168.4844 220.7813,168.3438 220.4844,168.3438 C220.1875,168.3438 219.9844,168.4375 219.7656,168.75 L219.5938,168.6719 Z " fill="#000000"/><text fill="#000000" font-family="sans-serif" font-size="12" lengthAdjust="spacing" textLength="37" x="237.75" y="177.1543">Types</text><line style="stroke:#A80036;stroke-width:1.5;" x1="33.5" x2="446.5" y1="189" y2="189"/><rect fill="none" height="6" style="stroke:#C82930;stroke-width:1.0;" width="6" x="40.5" y="197"/><text fill="#000000" font-family="sans-serif" font-size="11" lengthAdjust="spacing" textLength="104" x="52.5" y="203.2104">heatmap: boolean</text><rect fill="none" height="6" style="stroke:#C82930;stroke-width:1.0;" width="6" x="40.5" y="209.8047"/><text fill="#000000" font-family="sans-serif" font-size="11" lengthAdjust="spacing" textLength="136" x="52.5" y="216.0151">compHeatmap: boolean</text><rect fill="none" height="6" style="stroke:#C82930;stroke-width:1.0;" width="6" x="40.5" y="222.6094"/><text fill="#000000" font-family="sans-serif" font-size="11" lengthAdjust="spacing" textLength="93" x="52.5" y="228.8198">verlauf: boolean</text><rect fill="none" height="6" style="stroke:#C82930;stroke-width:1.0;" width="6" x="40.5" y="235.4141"/><text fill="#000000" font-family="sans-serif" font-size="11" lengthAdjust="spacing" textLength="133" x="52.5" y="241.6245">relFrqImgArea: boolean</text><rect fill="none" height="6" style="stroke:#C82930;stroke-width:1.0;" width="6" x="40.5" y="248.2188"/><text fill="#000000" font-family="sans-serif" font-size="11" lengthAdjust="spacing" textLength="135" x="52.5" y="254.4292">viewTimeDistr: boolean</text><ellipse cx="43.5" cy="280.8281" fill="#84BE84" rx="3" ry="3" style="stroke:#038048;stroke-width:1.0;"/><text fill="#000000" font-family="sans-serif" font-size="11" lengthAdjust="spacing" textLength="389" x="52.5" y="284.0386">Types(heatmap: boolean, compHeatmap: boolean, verlauf: boolean,</text><text fill="#000000" font-family="sans-serif" font-size="11" lengthAdjust="spacing" textLength="279" x="52.5" y="296.8433">relFrqImgArea: boolean, viewTimeDistr: boolean)</text><ellipse cx="43.5" cy="306.4375" fill="#84BE84" rx="3" ry="3" style="stroke:#038048;stroke-width:1.0;"/><text fill="#000000" font-family="sans-serif" font-size="11" lengthAdjust="spacing" textLength="132" x="52.5" y="309.6479">getHeatmap(): boolean</text><ellipse cx="43.5" cy="319.2422" fill="#84BE84" rx="3" ry="3" style="stroke:#038048;stroke-width:1.0;"/><text fill="#000000" font-family="sans-serif" font-size="11" lengthAdjust="spacing" textLength="165" x="52.5" y="322.4526">getCompHeatmap(): boolean</text><ellipse cx="43.5" cy="332.0469" fill="#84BE84" rx="3" ry="3" style="stroke:#038048;stroke-width:1.0;"/><text fill="#000000" font-family="sans-serif" font-size="11" lengthAdjust="spacing" textLength="121" x="52.5" y="335.2573">getVerlauf(): boolean</text><ellipse cx="43.5" cy="344.8516" fill="#84BE84" rx="3" ry="3" style="stroke:#038048;stroke-width:1.0;"/><text fill="#000000" font-family="sans-serif" font-size="11" lengthAdjust="spacing" textLength="163" x="52.5" y="348.062">getRelFrqImgArea(): boolean</text><ellipse cx="43.5" cy="357.6563" fill="#84BE84" rx="3" ry="3" style="stroke:#038048;stroke-width:1.0;"/><text fill="#000000" font-family="sans-serif" font-size="11" lengthAdjust="spacing" textLength="163" x="52.5" y="360.8667">getViewTimeDistr(): boolean</text><line style="stroke:#A80036;stroke-width:1.5;" x1="33.5" x2="196.5" y1="267.4258" y2="267.4258"/><text fill="#000000" font-family="sans-serif" font-size="11" lengthAdjust="spacing" textLength="87" x="196.5" y="270.7339">public methods</text><line style="stroke:#A80036;stroke-width:1.5;" x1="283.5" x2="446.5" y1="267.4258" y2="267.4258"/><!--MD5=[5c39798b83ace9e75333b1274a725e6c]
class ToolType--><rect codeLine="69" fill="#FEFECE" filter="url(#fm0rkwx1hg8zi)" height="86.4141" id="ToolType" style="stroke:#A80036;stroke-width:1.5;" width="91" x="482.5" y="219"/><ellipse cx="498.85" cy="235" fill="#EB937F" rx="11" ry="11" style="stroke:#A80036;stroke-width:1.0;"/><path d="M497.6469,235.875 L499.1,235.875 L499.1,235.9844 C499.1,236.3906 499.1313,236.5469 499.2094,236.7031 C499.3656,236.9531 499.6469,237.1094 499.9438,237.1094 C500.1938,237.1094 500.4594,236.9688 500.6156,236.75 C500.7406,236.5938 500.7719,236.4375 500.7719,235.9844 L500.7719,234.0625 C500.7719,233.9063 500.7719,233.8594 500.7563,233.7031 C500.6938,233.2344 500.3813,232.9219 499.9281,232.9219 C499.6781,232.9219 499.4125,233.0625 499.2406,233.2813 C499.1313,233.4531 499.1,233.6094 499.1,234.0625 L499.1,234.1875 L497.6469,234.1875 L497.6469,231.7813 L501.6313,231.7813 L501.6313,232.6406 C501.6313,233.0469 501.6625,233.2188 501.7406,233.375 C501.9125,233.625 502.1938,233.7813 502.475,233.7813 C502.7406,233.7813 503.0063,233.6406 503.1781,233.4219 C503.2875,233.25 503.3188,233.1094 503.3188,232.6406 L503.3188,230.0938 L495.6938,230.0938 C495.2563,230.0938 495.1313,230.1094 494.975,230.2031 C494.725,230.3594 494.5688,230.6563 494.5688,230.9375 C494.5688,231.2188 494.7094,231.4688 494.9281,231.6406 C495.0844,231.75 495.2719,231.7813 495.6938,231.7813 L495.9438,231.7813 L495.9438,238.2969 L495.6938,238.2969 C495.2875,238.2969 495.1313,238.3125 494.975,238.4219 C494.725,238.5938 494.5688,238.8594 494.5688,239.1563 C494.5688,239.4219 494.7094,239.6719 494.9281,239.8281 C495.0688,239.9531 495.3031,240 495.6938,240 L503.6938,240 L503.6938,237.4219 C503.6938,236.9844 503.6625,236.8438 503.5844,236.6875 C503.4125,236.4375 503.1313,236.2813 502.85,236.2813 C502.5844,236.2813 502.3188,236.3906 502.1469,236.6406 C502.0375,236.7969 502.0063,236.9375 502.0063,237.4219 L502.0063,238.2969 L497.6469,238.2969 L497.6469,235.875 Z " fill="#000000"/><text fill="#000000" font-family="sans-serif" font-size="12" lengthAdjust="spacing" textLength="56" x="513.15" y="239.1543">ToolType</text><line style="stroke:#A80036;stroke-width:1.5;" x1="483.5" x2="572.5" y1="251" y2="251"/><text fill="#000000" font-family="sans-serif" font-size="11" lengthAdjust="spacing" textLength="35" x="488.5" y="265.2104">ZOOM</text><text fill="#000000" font-family="sans-serif" font-size="11" lengthAdjust="spacing" textLength="78" x="488.5" y="278.0151">EYETRACKING</text><text fill="#000000" font-family="sans-serif" font-size="11" lengthAdjust="spacing" textLength="79" x="488.5" y="290.8198">CODECHARTS</text><line style="stroke:#A80036;stroke-width:1.5;" x1="483.5" x2="572.5" y1="297.4141" y2="297.4141"/><polygon fill="#FFFFFF" filter="url(#fm0rkwx1hg8zi)" points="755,6,893,6,900,28.2969,907,28.2969,907,58.5938,755,58.5938,755,6" style="stroke:#000000;stroke-width:1.5;"/><line style="stroke:#000000;stroke-width:1.5;" x1="755" x2="900" y1="28.2969" y2="28.2969"/><text fill="#000000" font-family="sans-serif" font-size="14" font-weight="bold" lengthAdjust="spacing" textLength="132" x="759" y="20.9951">SpeicherMedium</text><polygon fill="#FFFFFF" filter="url(#fm0rkwx1hg8zi)" points="1150.5,235.5,1245.5,235.5,1252.5,257.7969,1259.5,257.7969,1259.5,288.0938,1150.5,288.0938,1150.5,235.5" style="stroke:#000000;stroke-width:1.5;"/><line style="stroke:#000000;stroke-width:1.5;" x1="1150.5" x2="1252.5" y1="257.7969" y2="257.7969"/><text fill="#000000" font-family="sans-serif" font-size="14" font-weight="bold" lengthAdjust="spacing" textLength="89" x="1154.5" y="250.4951">PCSpeicher</text><!--MD5=[0142a10273876a6498763cbca717bc4b]
link Heatmap to Analyse--><path codeLine="76" d="M845.051,538.198 C796.017,559.608 738.197,584.855 689.92,605.934 " fill="none" id="Heatmap-to-Analyse" style="stroke:#A80036;stroke-width:1.0;"/><polygon fill="none" points="692.713,612.353,671.583,613.941,687.111,599.523,692.713,612.353" style="stroke:#A80036;stroke-width:1.0;"/><!--MD5=[49c5c3aad5e065304b1f0455c88d6c6a]
link Verlauf to Analyse--><path codeLine="77" d="M589,540.349 C589,557.226 589,576.273 589,593.699 " fill="none" id="Verlauf-to-Analyse" style="stroke:#A80036;stroke-width:1.0;"/><polygon fill="none" points="596,593.897,589,613.897,582,593.897,596,593.897" style="stroke:#A80036;stroke-width:1.0;"/><!--MD5=[eec8e75ff2920fb7be4f9035a3a6b788]
link Diagramm to Analyse--><path codeLine="78" d="M354.014,553.007 C397.05,570.771 443.123,589.788 482.97,606.235 " fill="none" id="Diagramm-to-Analyse" style="stroke:#A80036;stroke-width:1.0;"/><polygon fill="none" points="485.877,599.862,501.693,613.963,480.535,612.803,485.877,599.862" style="stroke:#A80036;stroke-width:1.0;"/><!--MD5=[d8fe5df92e8fb3bc8aac22f151a507a7]
link ToolType to Client--><path codeLine="81" d="M573.707,276.322 C583.9,278.752 594.922,280.76 605.733,281.59 " fill="none" id="ToolType-Client" style="stroke:#A80036;stroke-width:1.0;"/><line style="stroke:#A80036;stroke-width:1.0;" x1="605.733" x2="616" y1="281.59" y2="282"/><!--MD5=[d8fe5df92e8fb3bc8aac22f151a507a7]
link ToolType to Client--><path codeLine="82" d="M573.929,285.256 C584.037,289.056 595.027,292.163 605.979,293.41 " fill="none" id="ToolType-Client-1" style="stroke:#A80036;stroke-width:1.0;"/><line style="stroke:#A80036;stroke-width:1.0;" x1="605.979" x2="616" y1="293.41" y2="294"/><!--MD5=[458e23c55b866563aae54fc87d28c1cd]
link Client to Heatmap--><path codeLine="83" d="M1046,318 C1103.04,318 1044.73,391.859 997.907,442.637 " fill="none" id="Client-Heatmap" style="stroke:#A80036;stroke-width:1.0;"/><!--MD5=[28cbb4bcdbacbdc16d11542d97316c4d]
link Client to Verlauf--><path codeLine="84" d="M616,318 C590.983,318 587.057,390.111 587.389,440.814 " fill="none" id="Client-Verlauf" style="stroke:#A80036;stroke-width:1.0;"/><!--MD5=[5a584ab670d8f56708f0929dbbb811bb]
link Client to Diagramm--><path codeLine="85" d="M616,318 C591.552,318 609.693,351.243 591,367 C521.243,425.799 481.956,400.396 395,428 C389.3,429.81 383.505,431.654 377.654,433.522 " fill="none" id="Client-Diagramm" style="stroke:#A80036;stroke-width:1.0;"/><!--MD5=[e915fa9e1e96e39591c06eed7939ff93]
link SpeicherMedium to Client--><path codeLine="88" d="M755.596,59.07 C706.618,80.047 646.575,115.031 617,168 C604.649,190.12 590.666,282 616,282 " fill="none" id="SpeicherMedium-Client" style="stroke:#A80036;stroke-width:1.0;"/><polygon fill="#000000" points="704.6536,93.3287,697.3623,99.435,702.3441,102.5546,704.6536,93.3287" style="stroke:#000000;stroke-width:1.0;"/><text fill="#000000" font-family="sans-serif" font-size="13" lengthAdjust="spacing" textLength="63" x="711" y="102.0669">gets Data</text><!--MD5=[e915fa9e1e96e39591c06eed7939ff93]
link SpeicherMedium to Client--><path codeLine="89" d="M906.418,59.063 C955.402,80.035 1015.45,115.019 1045,168 C1072.28,216.908 1102,294 1046,294 " fill="none" id="SpeicherMedium-Client-1" style="stroke:#A80036;stroke-width:1.0;"/><polygon fill="#000000" points="990.4461,93.2678,992.5395,102.5452,997.5928,99.5429,990.4461,93.2678" style="stroke:#000000;stroke-width:1.0;"/><text fill="#000000" font-family="sans-serif" font-size="13" lengthAdjust="spacing" textLength="63" x="1002" y="102.0669">gets Data</text><!--MD5=[706a3f6f6484a8e1abec5964f8109e4d]
link Client to PCSpeicher--><path codeLine="90" d="M1046,342 C1090.12,342 1134.43,316.86 1164.85,294.766 " fill="none" id="Client-PCSpeicher" style="stroke:#A80036;stroke-width:1.0;"/><line style="stroke:#A80036;stroke-width:1.0;" x1="1164.85" x2="1173.05" y1="294.766" y2="288.639"/><polygon fill="#000000" points="1080.1465,305.7198,1070.6555,306.3292,1072.8263,311.7915,1080.1465,305.7198" style="stroke:#000000;stroke-width:1.0;"/><text fill="#000000" font-family="sans-serif" font-size="13" lengthAdjust="spacing" textLength="48" x="1084.5" y="312.0669">save to</text><!--MD5=[7886d73c8d783aebd697767547c42016]
@startuml
' === ANALYSE CLIENT ===
package Analyse-Client{
  
  ' Client
  class Client {
    - data: Data
    - dataForComp: Data
    - analyseTypes: Types
    - analyzedData: List<String>
    __public methods__
    + getData(start: Date, end: Date, dataType: ToolType): boolean
    + getDataForComp(start: Date, end: Date, dataType: ToolType): boolean
    + setAnalyseTypes(): boolean
    + analyseData(): boolean
    + displayAnalyzedData(): void
    + export(): boolean
  }

  ' Analyse
  abstract Analyse {
    - calcRelFreq(data: Data): List<List<Float>>
    - createTimeTable(data: Data): List<List<Float>>
  }

  ' Heatmap
  class Heatmap {
    - heatmap: List<List<Float>>
    __public methods__
    + createHeatmap(data: Data): String
    + compHeatmaps(otherHeatmap: Heatmap): String
  }

  ' Verlauf
  class Verlauf {
    __public method__
    + createVerlauf(data: Data): String
    __private method__
    - drawDiagramm(diagrammData: List<List<Float>>): String
  }

  ' Diagramm
  class Diagramm {
    __public methods__
    + createRelFreqImgArea(data: Data): String
    + createViewTimeDistr(data: Data): String
    __private method__
    - calcViewTimeDistr(): float[4]
    - drawDiagramm(diagrammData: float[4], type: int): String
  }

  ' Types
  class Types {
    - heatmap: boolean
    - compHeatmap: boolean
    - verlauf: boolean
    - relFrqImgArea: boolean
    - viewTimeDistr: boolean
    __public methods__
    + Types(heatmap: boolean, compHeatmap: boolean, verlauf: boolean,
     relFrqImgArea: boolean, viewTimeDistr: boolean)
    + getHeatmap(): boolean
    + getCompHeatmap(): boolean
    + getVerlauf(): boolean
    + getRelFrqImgArea(): boolean
    + getViewTimeDistr(): boolean
  }

  ' Typen der erhobenen Daten
  enum ToolType {
    ZOOM
    EYETRACKING
    CODECHARTS
  }

  ' Vererbung
  Analyse <|-u- Heatmap
  Analyse <|-u- Verlauf
  Analyse <|-u- Diagramm

  ' Interaktionen
  Client::getData -l- ToolType
  Client::getDataForComp -l- ToolType
  Client::analyseData -d- Heatmap 
  Client::analyseData -d- Verlauf
  Client::analyseData -d- Diagramm

  ' Andere Module
  Client::getData -u- SpeicherMedium : > gets Data
  Client::getDataForComp -u- SpeicherMedium : > gets Data
  Client::export -r- PCSpeicher : > save to

}
' Blackbox
package SpeicherMedium {}

package PCSpeicher {}

'package GUI {}

' Interaktion
'Client::displayAnalyzedData -l- GUI : > output
@enduml

@startuml
package Analyse-Client{
  
  class Client {
    - data: Data
    - dataForComp: Data
    - analyseTypes: Types
    - analyzedData: List<String>
    __public methods__
    + getData(start: Date, end: Date, dataType: ToolType): boolean
    + getDataForComp(start: Date, end: Date, dataType: ToolType): boolean
    + setAnalyseTypes(): boolean
    + analyseData(): boolean
    + displayAnalyzedData(): void
    + export(): boolean
  }

  abstract Analyse {
    - calcRelFreq(data: Data): List<List<Float>>
    - createTimeTable(data: Data): List<List<Float>>
  }

  class Heatmap {
    - heatmap: List<List<Float>>
    __public methods__
    + createHeatmap(data: Data): String
    + compHeatmaps(otherHeatmap: Heatmap): String
  }

  class Verlauf {
    __public method__
    + createVerlauf(data: Data): String
    __private method__
    - drawDiagramm(diagrammData: List<List<Float>>): String
  }

  class Diagramm {
    __public methods__
    + createRelFreqImgArea(data: Data): String
    + createViewTimeDistr(data: Data): String
    __private method__
    - calcViewTimeDistr(): float[4]
    - drawDiagramm(diagrammData: float[4], type: int): String
  }

  class Types {
    - heatmap: boolean
    - compHeatmap: boolean
    - verlauf: boolean
    - relFrqImgArea: boolean
    - viewTimeDistr: boolean
    __public methods__
    + Types(heatmap: boolean, compHeatmap: boolean, verlauf: boolean,
     relFrqImgArea: boolean, viewTimeDistr: boolean)
    + getHeatmap(): boolean
    + getCompHeatmap(): boolean
    + getVerlauf(): boolean
    + getRelFrqImgArea(): boolean
    + getViewTimeDistr(): boolean
  }

  enum ToolType {
    ZOOM
    EYETRACKING
    CODECHARTS
  }

  Analyse <|-u- Heatmap
  Analyse <|-u- Verlauf
  Analyse <|-u- Diagramm

  Client::getData -l- ToolType
  Client::getDataForComp -l- ToolType
  Client::analyseData -d- Heatmap 
  Client::analyseData -d- Verlauf
  Client::analyseData -d- Diagramm

  Client::getData -u- SpeicherMedium : > gets Data
  Client::getDataForComp -u- SpeicherMedium : > gets Data
  Client::export -r- PCSpeicher : > save to

}
package SpeicherMedium {}

package PCSpeicher {}


@enduml

PlantUML version 1.2021.13beta8(Unknown compile time)
(GPL source distribution)
Java Runtime: Java(TM) SE Runtime Environment
JVM: Java HotSpot(TM) 64-Bit Server VM
Default Encoding: UTF-8
Language: en
Country: US
--></g></svg>