<?xml version="1.0" encoding="UTF-8" standalone="no"?><svg xmlns="http://www.w3.org/2000/svg" xmlns:xlink="http://www.w3.org/1999/xlink" contentScriptType="application/ecmascript" contentStyleType="text/css" height="785px" preserveAspectRatio="none" style="width:1137px;height:785px;background:#FFFFFF;" version="1.1" viewBox="0 0 1137 785" width="1137px" zoomAndPan="magnify"><defs><filter height="300%" id="flld1jp0de5hz" width="300%" x="-1" y="-1"><feGaussianBlur result="blurOut" stdDeviation="2.0"/><feColorMatrix in="blurOut" result="blurOut2" type="matrix" values="0 0 0 0 0 0 0 0 0 0 0 0 0 0 0 0 0 0 .4 0"/><feOffset dx="4.0" dy="4.0" in="blurOut2" result="blurOut3"/><feBlend in="SourceGraphic" in2="blurOut3" mode="normal"/></filter></defs><g><!--MD5=[275afd699dfec56c5bd304e04a3d58a6]
cluster Analyse-Client--><polygon fill="#FFFFFF" filter="url(#flld1jp0de5hz)" points="16,229,138,229,145,251.2969,1120,251.2969,1120,778,16,778,16,229" style="stroke:#000000;stroke-width:1.5;"/><line style="stroke:#000000;stroke-width:1.5;" x1="16" x2="145" y1="251.2969" y2="251.2969"/><text fill="#000000" font-family="sans-serif" font-size="14" font-weight="bold" lengthAdjust="spacing" textLength="116" x="20" y="243.9951">Analyse-Client</text><!--MD5=[e80bb15367275d1948078cd56c7f2e26]
cluster SpeicherMedium--><polygon fill="#FFFFFF" filter="url(#flld1jp0de5hz)" points="579,6,717,6,724,28.2969,790,28.2969,790,172,579,172,579,6" style="stroke:#000000;stroke-width:1.5;"/><line style="stroke:#000000;stroke-width:1.5;" x1="579" x2="724" y1="28.2969" y2="28.2969"/><text fill="#000000" font-family="sans-serif" font-size="14" font-weight="bold" lengthAdjust="spacing" textLength="132" x="583" y="20.9951">SpeicherMedium</text><!--MD5=[ed6624c6556d5e7b1bd23032162d20b7]
class Client--><rect codeLine="5" fill="#FEFECE" filter="url(#flld1jp0de5hz)" height="172.0469" id="Client" style="stroke:#A80036;stroke-width:1.5;" width="378" x="400" y="268"/><ellipse cx="568.25" cy="284" fill="#ADD1B2" rx="11" ry="11" style="stroke:#A80036;stroke-width:1.0;"/><path d="M570.5938,279.6719 C569.6563,279.2344 569.0625,279.0938 568.1875,279.0938 C565.5625,279.0938 563.5625,281.1719 563.5625,283.8906 L563.5625,285.0156 C563.5625,287.5938 565.6719,289.4844 568.5625,289.4844 C569.7813,289.4844 570.9375,289.1875 571.6875,288.6406 C572.2656,288.2344 572.5938,287.7813 572.5938,287.3906 C572.5938,286.9375 572.2031,286.5469 571.7344,286.5469 C571.5156,286.5469 571.3125,286.625 571.125,286.8125 C570.6719,287.2969 570.6719,287.2969 570.4844,287.3906 C570.0625,287.6563 569.375,287.7813 568.6094,287.7813 C566.5625,287.7813 565.2656,286.6875 565.2656,284.9844 L565.2656,283.8906 C565.2656,282.1094 566.5156,280.7969 568.25,280.7969 C568.8281,280.7969 569.4375,280.9531 569.9063,281.2031 C570.3906,281.4844 570.5625,281.7031 570.6563,282.1094 C570.7188,282.5156 570.75,282.6406 570.8906,282.7656 C571.0313,282.9063 571.2656,283.0156 571.4844,283.0156 C571.75,283.0156 572.0156,282.875 572.1875,282.6563 C572.2969,282.5 572.3281,282.3125 572.3281,281.8906 L572.3281,280.4688 C572.3281,280.0313 572.3125,279.9063 572.2188,279.75 C572.0625,279.4844 571.7813,279.3438 571.4844,279.3438 C571.1875,279.3438 570.9844,279.4375 570.7656,279.75 L570.5938,279.6719 Z " fill="#000000"/><text fill="#000000" font-family="sans-serif" font-size="12" lengthAdjust="spacing" textLength="33" x="588.75" y="288.1543">Client</text><line style="stroke:#A80036;stroke-width:1.5;" x1="401" x2="777" y1="300" y2="300"/><rect fill="none" height="6" style="stroke:#C82930;stroke-width:1.0;" width="6" x="408" y="308"/><text fill="#000000" font-family="sans-serif" font-size="11" lengthAdjust="spacing" textLength="59" x="420" y="314.2104">data: Data</text><rect fill="none" height="6" style="stroke:#C82930;stroke-width:1.0;" width="6" x="408" y="320.8047"/><text fill="#000000" font-family="sans-serif" font-size="11" lengthAdjust="spacing" textLength="109" x="420" y="327.0151">dataForComp: Data</text><rect fill="none" height="6" style="stroke:#C82930;stroke-width:1.0;" width="6" x="408" y="333.6094"/><text fill="#000000" font-family="sans-serif" font-size="11" lengthAdjust="spacing" textLength="122" x="420" y="339.8198">analyseTypes: Types</text><rect fill="none" height="6" style="stroke:#C82930;stroke-width:1.0;" width="6" x="408" y="346.4141"/><text fill="#000000" font-family="sans-serif" font-size="11" lengthAdjust="spacing" textLength="157" x="420" y="352.6245">analyzedData: List&lt;String&gt;</text><ellipse cx="411" cy="379.0234" fill="#84BE84" rx="3" ry="3" style="stroke:#038048;stroke-width:1.0;"/><text fill="#000000" font-family="sans-serif" font-size="11" lengthAdjust="spacing" textLength="352" x="420" y="382.2339">getData(start: Date, end: Date, dataType: ToolType): boolean</text><ellipse cx="411" cy="391.8281" fill="#84BE84" rx="3" ry="3" style="stroke:#038048;stroke-width:1.0;"/><text fill="#000000" font-family="sans-serif" font-size="11" lengthAdjust="spacing" textLength="160" x="420" y="395.0386">setAnalyseTypes(): boolean</text><ellipse cx="411" cy="404.6328" fill="#84BE84" rx="3" ry="3" style="stroke:#038048;stroke-width:1.0;"/><text fill="#000000" font-family="sans-serif" font-size="11" lengthAdjust="spacing" textLength="160" x="420" y="407.8433">displayAnalyzedData(): void</text><ellipse cx="411" cy="417.4375" fill="#84BE84" rx="3" ry="3" style="stroke:#038048;stroke-width:1.0;"/><text fill="#000000" font-family="sans-serif" font-size="11" lengthAdjust="spacing" textLength="98" x="420" y="420.6479">export(): boolean</text><ellipse cx="411" cy="430.2422" fill="#84BE84" rx="3" ry="3" style="stroke:#038048;stroke-width:1.0;"/><text fill="#000000" font-family="sans-serif" font-size="11" lengthAdjust="spacing" textLength="133" x="420" y="433.4526">analyseData(): boolean</text><line style="stroke:#A80036;stroke-width:1.5;" x1="401" x2="545.5" y1="365.6211" y2="365.6211"/><text fill="#000000" font-family="sans-serif" font-size="11" lengthAdjust="spacing" textLength="87" x="545.5" y="368.9292">public methods</text><line style="stroke:#A80036;stroke-width:1.5;" x1="632.5" x2="777" y1="365.6211" y2="365.6211"/><!--MD5=[90fa35dfc7d13cf977fc160ba1111d24]
class Analyse--><rect codeLine="19" fill="#FEFECE" filter="url(#flld1jp0de5hz)" height="73.6094" id="Analyse" style="stroke:#A80036;stroke-width:1.5;" width="299" x="439.5" y="688"/><ellipse cx="561.75" cy="704" fill="#A9DCDF" rx="11" ry="11" style="stroke:#A80036;stroke-width:1.0;"/><path d="M563.8281,705.8125 L564.2188,706.7969 L563.8281,706.7969 C563.375,706.7969 563.2656,706.8125 563.1094,706.9219 C562.8594,707.0781 562.7031,707.3594 562.7031,707.6563 C562.7031,707.9219 562.8438,708.1719 563.0625,708.3281 C563.2031,708.4531 563.4063,708.5 563.8281,708.5 L566.1875,708.5 C566.5469,708.5 566.7656,708.4688 566.9063,708.375 C567.1563,708.2344 567.3125,707.9375 567.3125,707.6563 C567.3125,707.375 567.1719,707.125 566.9531,706.9688 C566.7813,706.8281 566.625,706.7969 566.1563,706.7969 L562.7656,698.5938 L559.0938,698.5938 C558.6406,698.5938 558.5156,698.6094 558.3594,698.7031 C558.1094,698.875 557.9531,699.1563 557.9531,699.4375 C557.9531,699.7188 558.0938,699.9688 558.3125,700.1406 C558.4844,700.25 558.6563,700.2813 559.0938,700.2813 L560.1719,700.2813 L557.5313,706.7969 C557.1094,706.7969 556.9531,706.8125 556.7969,706.9219 C556.5469,707.0781 556.3906,707.3594 556.3906,707.6563 C556.3906,708.2188 556.7656,708.5 557.5156,708.5 L559.7813,708.5 C560.1406,708.5 560.3594,708.4688 560.4844,708.375 C560.75,708.2344 560.8906,707.9375 560.8906,707.6563 C560.8906,707.375 560.7656,707.125 560.5469,706.9531 C560.375,706.8281 560.2344,706.7969 559.7813,706.7969 L559.3906,706.7969 L559.7813,705.8125 L563.8281,705.8125 Z M563.125,704.1094 L560.4531,704.1094 L561.7969,700.8438 L563.125,704.1094 Z " fill="#000000"/><text fill="#000000" font-family="sans-serif" font-size="12" font-style="italic" lengthAdjust="spacing" textLength="46" x="582.25" y="708.1543">Analyse</text><line style="stroke:#A80036;stroke-width:1.5;" x1="440.5" x2="737.5" y1="720" y2="720"/><line style="stroke:#A80036;stroke-width:1.5;" x1="440.5" x2="737.5" y1="728" y2="728"/><rect fill="#F24D5C" height="6" style="stroke:#C82930;stroke-width:1.0;" width="6" x="447.5" y="736"/><text fill="#000000" font-family="sans-serif" font-size="11" lengthAdjust="spacing" textLength="240" x="459.5" y="742.2104">calcRelFreq(data: Data): List&lt;List&lt;Float&gt;&gt;</text><rect fill="#F24D5C" height="6" style="stroke:#C82930;stroke-width:1.0;" width="6" x="447.5" y="748.8047"/><text fill="#000000" font-family="sans-serif" font-size="11" lengthAdjust="spacing" textLength="273" x="459.5" y="755.0151">createTimeTable(data: Data): List&lt;List&lt;Float&gt;&gt;</text><!--MD5=[3f91f8027f14bf24ffa62a72d32476ac]
class Heatmap--><rect codeLine="25" fill="#FEFECE" filter="url(#flld1jp0de5hz)" height="95.2188" id="Heatmap" style="stroke:#A80036;stroke-width:1.5;" width="304" x="800" y="517"/><ellipse cx="920.75" cy="533" fill="#ADD1B2" rx="11" ry="11" style="stroke:#A80036;stroke-width:1.0;"/><path d="M923.0938,528.6719 C922.1563,528.2344 921.5625,528.0938 920.6875,528.0938 C918.0625,528.0938 916.0625,530.1719 916.0625,532.8906 L916.0625,534.0156 C916.0625,536.5938 918.1719,538.4844 921.0625,538.4844 C922.2813,538.4844 923.4375,538.1875 924.1875,537.6406 C924.7656,537.2344 925.0938,536.7813 925.0938,536.3906 C925.0938,535.9375 924.7031,535.5469 924.2344,535.5469 C924.0156,535.5469 923.8125,535.625 923.625,535.8125 C923.1719,536.2969 923.1719,536.2969 922.9844,536.3906 C922.5625,536.6563 921.875,536.7813 921.1094,536.7813 C919.0625,536.7813 917.7656,535.6875 917.7656,533.9844 L917.7656,532.8906 C917.7656,531.1094 919.0156,529.7969 920.75,529.7969 C921.3281,529.7969 921.9375,529.9531 922.4063,530.2031 C922.8906,530.4844 923.0625,530.7031 923.1563,531.1094 C923.2188,531.5156 923.25,531.6406 923.3906,531.7656 C923.5313,531.9063 923.7656,532.0156 923.9844,532.0156 C924.25,532.0156 924.5156,531.875 924.6875,531.6563 C924.7969,531.5 924.8281,531.3125 924.8281,530.8906 L924.8281,529.4688 C924.8281,529.0313 924.8125,528.9063 924.7188,528.75 C924.5625,528.4844 924.2813,528.3438 923.9844,528.3438 C923.6875,528.3438 923.4844,528.4375 923.2656,528.75 L923.0938,528.6719 Z " fill="#000000"/><text fill="#000000" font-family="sans-serif" font-size="12" lengthAdjust="spacing" textLength="54" x="941.25" y="537.1543">Heatmap</text><line style="stroke:#A80036;stroke-width:1.5;" x1="801" x2="1103" y1="549" y2="549"/><rect fill="none" height="6" style="stroke:#C82930;stroke-width:1.0;" width="6" x="808" y="557"/><text fill="#000000" font-family="sans-serif" font-size="11" lengthAdjust="spacing" textLength="159" x="820" y="563.2104">heatmap: List&lt;List&lt;Float&gt;&gt;</text><ellipse cx="811" cy="589.6094" fill="#84BE84" rx="3" ry="3" style="stroke:#038048;stroke-width:1.0;"/><text fill="#000000" font-family="sans-serif" font-size="11" lengthAdjust="spacing" textLength="196" x="820" y="592.8198">createHeatmap(data: Data): String</text><ellipse cx="811" cy="602.4141" fill="#84BE84" rx="3" ry="3" style="stroke:#038048;stroke-width:1.0;"/><text fill="#000000" font-family="sans-serif" font-size="11" lengthAdjust="spacing" textLength="278" x="820" y="605.6245">compHeatmaps(otherHeatmap: Heatmap): String</text><line style="stroke:#A80036;stroke-width:1.5;" x1="801" x2="908.5" y1="576.207" y2="576.207"/><text fill="#000000" font-family="sans-serif" font-size="11" lengthAdjust="spacing" textLength="87" x="908.5" y="579.5151">public methods</text><line style="stroke:#A80036;stroke-width:1.5;" x1="995.5" x2="1103" y1="576.207" y2="576.207"/><!--MD5=[a75dc2f5d5c9a4a0489ea15a737b99a8]
class Verlauf--><rect codeLine="33" fill="#FEFECE" filter="url(#flld1jp0de5hz)" height="99.2188" id="Verlauf" style="stroke:#A80036;stroke-width:1.5;" width="352" x="413" y="515"/><ellipse cx="563.75" cy="531" fill="#ADD1B2" rx="11" ry="11" style="stroke:#A80036;stroke-width:1.0;"/><path d="M566.0938,526.6719 C565.1563,526.2344 564.5625,526.0938 563.6875,526.0938 C561.0625,526.0938 559.0625,528.1719 559.0625,530.8906 L559.0625,532.0156 C559.0625,534.5938 561.1719,536.4844 564.0625,536.4844 C565.2813,536.4844 566.4375,536.1875 567.1875,535.6406 C567.7656,535.2344 568.0938,534.7813 568.0938,534.3906 C568.0938,533.9375 567.7031,533.5469 567.2344,533.5469 C567.0156,533.5469 566.8125,533.625 566.625,533.8125 C566.1719,534.2969 566.1719,534.2969 565.9844,534.3906 C565.5625,534.6563 564.875,534.7813 564.1094,534.7813 C562.0625,534.7813 560.7656,533.6875 560.7656,531.9844 L560.7656,530.8906 C560.7656,529.1094 562.0156,527.7969 563.75,527.7969 C564.3281,527.7969 564.9375,527.9531 565.4063,528.2031 C565.8906,528.4844 566.0625,528.7031 566.1563,529.1094 C566.2188,529.5156 566.25,529.6406 566.3906,529.7656 C566.5313,529.9063 566.7656,530.0156 566.9844,530.0156 C567.25,530.0156 567.5156,529.875 567.6875,529.6563 C567.7969,529.5 567.8281,529.3125 567.8281,528.8906 L567.8281,527.4688 C567.8281,527.0313 567.8125,526.9063 567.7188,526.75 C567.5625,526.4844 567.2813,526.3438 566.9844,526.3438 C566.6875,526.3438 566.4844,526.4375 566.2656,526.75 L566.0938,526.6719 Z " fill="#000000"/><text fill="#000000" font-family="sans-serif" font-size="12" lengthAdjust="spacing" textLength="42" x="584.25" y="535.1543">Verlauf</text><line style="stroke:#A80036;stroke-width:1.5;" x1="414" x2="764" y1="547" y2="547"/><ellipse cx="424" cy="574.8047" fill="#84BE84" rx="3" ry="3" style="stroke:#038048;stroke-width:1.0;"/><text fill="#000000" font-family="sans-serif" font-size="11" lengthAdjust="spacing" textLength="185" x="433" y="578.0151">createVerlauf(data: Data): String</text><line style="stroke:#A80036;stroke-width:1.5;" x1="414" x2="548.5" y1="561.4023" y2="561.4023"/><text fill="#000000" font-family="sans-serif" font-size="11" lengthAdjust="spacing" textLength="81" x="548.5" y="564.7104">public method</text><line style="stroke:#A80036;stroke-width:1.5;" x1="629.5" x2="764" y1="561.4023" y2="561.4023"/><rect fill="#F24D5C" height="6" style="stroke:#C82930;stroke-width:1.0;" width="6" x="421" y="601.4141"/><text fill="#000000" font-family="sans-serif" font-size="11" lengthAdjust="spacing" textLength="326" x="433" y="607.6245">drawDiagramm(diagrammData: List&lt;List&lt;Float&gt;&gt;): String</text><line style="stroke:#A80036;stroke-width:1.5;" x1="414" x2="545" y1="591.0117" y2="591.0117"/><text fill="#000000" font-family="sans-serif" font-size="11" lengthAdjust="spacing" textLength="88" x="545" y="594.3198">private method</text><line style="stroke:#A80036;stroke-width:1.5;" x1="633" x2="764" y1="591.0117" y2="591.0117"/><!--MD5=[33dbb5cd9b1593568d30e59c5983c72e]
class Diagramm--><rect codeLine="41" fill="#FEFECE" filter="url(#flld1jp0de5hz)" height="124.8281" id="Diagramm" style="stroke:#A80036;stroke-width:1.5;" width="345" x="32.5" y="502"/><ellipse cx="170.25" cy="518" fill="#ADD1B2" rx="11" ry="11" style="stroke:#A80036;stroke-width:1.0;"/><path d="M172.5938,513.6719 C171.6563,513.2344 171.0625,513.0938 170.1875,513.0938 C167.5625,513.0938 165.5625,515.1719 165.5625,517.8906 L165.5625,519.0156 C165.5625,521.5938 167.6719,523.4844 170.5625,523.4844 C171.7813,523.4844 172.9375,523.1875 173.6875,522.6406 C174.2656,522.2344 174.5938,521.7813 174.5938,521.3906 C174.5938,520.9375 174.2031,520.5469 173.7344,520.5469 C173.5156,520.5469 173.3125,520.625 173.125,520.8125 C172.6719,521.2969 172.6719,521.2969 172.4844,521.3906 C172.0625,521.6563 171.375,521.7813 170.6094,521.7813 C168.5625,521.7813 167.2656,520.6875 167.2656,518.9844 L167.2656,517.8906 C167.2656,516.1094 168.5156,514.7969 170.25,514.7969 C170.8281,514.7969 171.4375,514.9531 171.9063,515.2031 C172.3906,515.4844 172.5625,515.7031 172.6563,516.1094 C172.7188,516.5156 172.75,516.6406 172.8906,516.7656 C173.0313,516.9063 173.2656,517.0156 173.4844,517.0156 C173.75,517.0156 174.0156,516.875 174.1875,516.6563 C174.2969,516.5 174.3281,516.3125 174.3281,515.8906 L174.3281,514.4688 C174.3281,514.0313 174.3125,513.9063 174.2188,513.75 C174.0625,513.4844 173.7813,513.3438 173.4844,513.3438 C173.1875,513.3438 172.9844,513.4375 172.7656,513.75 L172.5938,513.6719 Z " fill="#000000"/><text fill="#000000" font-family="sans-serif" font-size="12" lengthAdjust="spacing" textLength="61" x="190.75" y="522.1543">Diagramm</text><line style="stroke:#A80036;stroke-width:1.5;" x1="33.5" x2="376.5" y1="534" y2="534"/><ellipse cx="43.5" cy="561.8047" fill="#84BE84" rx="3" ry="3" style="stroke:#038048;stroke-width:1.0;"/><text fill="#000000" font-family="sans-serif" font-size="11" lengthAdjust="spacing" textLength="235" x="52.5" y="565.0151">createRelFreqImgArea(data: Data): String</text><ellipse cx="43.5" cy="574.6094" fill="#84BE84" rx="3" ry="3" style="stroke:#038048;stroke-width:1.0;"/><text fill="#000000" font-family="sans-serif" font-size="11" lengthAdjust="spacing" textLength="227" x="52.5" y="577.8198">createViewTimeDistr(data: Data): String</text><line style="stroke:#A80036;stroke-width:1.5;" x1="33.5" x2="161.5" y1="548.4023" y2="548.4023"/><text fill="#000000" font-family="sans-serif" font-size="11" lengthAdjust="spacing" textLength="87" x="161.5" y="551.7104">public methods</text><line style="stroke:#A80036;stroke-width:1.5;" x1="248.5" x2="376.5" y1="548.4023" y2="548.4023"/><rect fill="#F24D5C" height="6" style="stroke:#C82930;stroke-width:1.0;" width="6" x="40.5" y="601.2188"/><text fill="#000000" font-family="sans-serif" font-size="11" lengthAdjust="spacing" textLength="160" x="52.5" y="607.4292">calcViewTimeDistr(): float[4]</text><rect fill="#F24D5C" height="6" style="stroke:#C82930;stroke-width:1.0;" width="6" x="40.5" y="614.0234"/><text fill="#000000" font-family="sans-serif" font-size="11" lengthAdjust="spacing" textLength="319" x="52.5" y="620.2339">drawDiagramm(diagrammData: float[4], type: int): String</text><line style="stroke:#A80036;stroke-width:1.5;" x1="33.5" x2="161" y1="590.8164" y2="590.8164"/><text fill="#000000" font-family="sans-serif" font-size="11" lengthAdjust="spacing" textLength="88" x="161" y="594.1245">private method</text><line style="stroke:#A80036;stroke-width:1.5;" x1="249" x2="376.5" y1="590.8164" y2="590.8164"/><!--MD5=[ff5b00e4f788038bc8b9934b246a9c20]
class Types--><rect codeLine="51" fill="#FEFECE" filter="url(#flld1jp0de5hz)" height="112.0234" id="Types" style="stroke:#A80036;stroke-width:1.5;" width="162" x="195" y="296.5"/><ellipse cx="253.25" cy="312.5" fill="#ADD1B2" rx="11" ry="11" style="stroke:#A80036;stroke-width:1.0;"/><path d="M255.5938,308.1719 C254.6563,307.7344 254.0625,307.5938 253.1875,307.5938 C250.5625,307.5938 248.5625,309.6719 248.5625,312.3906 L248.5625,313.5156 C248.5625,316.0938 250.6719,317.9844 253.5625,317.9844 C254.7813,317.9844 255.9375,317.6875 256.6875,317.1406 C257.2656,316.7344 257.5938,316.2813 257.5938,315.8906 C257.5938,315.4375 257.2031,315.0469 256.7344,315.0469 C256.5156,315.0469 256.3125,315.125 256.125,315.3125 C255.6719,315.7969 255.6719,315.7969 255.4844,315.8906 C255.0625,316.1563 254.375,316.2813 253.6094,316.2813 C251.5625,316.2813 250.2656,315.1875 250.2656,313.4844 L250.2656,312.3906 C250.2656,310.6094 251.5156,309.2969 253.25,309.2969 C253.8281,309.2969 254.4375,309.4531 254.9063,309.7031 C255.3906,309.9844 255.5625,310.2031 255.6563,310.6094 C255.7188,311.0156 255.75,311.1406 255.8906,311.2656 C256.0313,311.4063 256.2656,311.5156 256.4844,311.5156 C256.75,311.5156 257.0156,311.375 257.1875,311.1563 C257.2969,311 257.3281,310.8125 257.3281,310.3906 L257.3281,308.9688 C257.3281,308.5313 257.3125,308.4063 257.2188,308.25 C257.0625,307.9844 256.7813,307.8438 256.4844,307.8438 C256.1875,307.8438 255.9844,307.9375 255.7656,308.25 L255.5938,308.1719 Z " fill="#000000"/><text fill="#000000" font-family="sans-serif" font-size="12" lengthAdjust="spacing" textLength="37" x="273.75" y="316.6543">Types</text><line style="stroke:#A80036;stroke-width:1.5;" x1="196" x2="356" y1="328.5" y2="328.5"/><ellipse cx="206" cy="339.5" rx="3" ry="3" style="stroke:#038048;stroke-width:1.0;fill:none;"/><text fill="#000000" font-family="sans-serif" font-size="11" lengthAdjust="spacing" textLength="104" x="215" y="342.7104">heatmap: boolean</text><ellipse cx="206" cy="352.3047" rx="3" ry="3" style="stroke:#038048;stroke-width:1.0;fill:none;"/><text fill="#000000" font-family="sans-serif" font-size="11" lengthAdjust="spacing" textLength="136" x="215" y="355.5151">compHeatmap: boolean</text><ellipse cx="206" cy="365.1094" rx="3" ry="3" style="stroke:#038048;stroke-width:1.0;fill:none;"/><text fill="#000000" font-family="sans-serif" font-size="11" lengthAdjust="spacing" textLength="93" x="215" y="368.3198">verlauf: boolean</text><ellipse cx="206" cy="377.9141" rx="3" ry="3" style="stroke:#038048;stroke-width:1.0;fill:none;"/><text fill="#000000" font-family="sans-serif" font-size="11" lengthAdjust="spacing" textLength="133" x="215" y="381.1245">relFrqImgArea: boolean</text><ellipse cx="206" cy="390.7188" rx="3" ry="3" style="stroke:#038048;stroke-width:1.0;fill:none;"/><text fill="#000000" font-family="sans-serif" font-size="11" lengthAdjust="spacing" textLength="135" x="215" y="393.9292">viewTimeDistr: boolean</text><line style="stroke:#A80036;stroke-width:1.5;" x1="196" x2="356" y1="400.5234" y2="400.5234"/><!--MD5=[5c39798b83ace9e75333b1274a725e6c]
class ToolType--><rect codeLine="60" fill="#FEFECE" filter="url(#flld1jp0de5hz)" height="86.4141" id="ToolType" style="stroke:#A80036;stroke-width:1.5;" width="91" x="821.5" y="309.5"/><ellipse cx="837.85" cy="325.5" fill="#EB937F" rx="11" ry="11" style="stroke:#A80036;stroke-width:1.0;"/><path d="M836.6469,326.375 L838.1,326.375 L838.1,326.4844 C838.1,326.8906 838.1313,327.0469 838.2094,327.2031 C838.3656,327.4531 838.6469,327.6094 838.9438,327.6094 C839.1938,327.6094 839.4594,327.4688 839.6156,327.25 C839.7406,327.0938 839.7719,326.9375 839.7719,326.4844 L839.7719,324.5625 C839.7719,324.4063 839.7719,324.3594 839.7563,324.2031 C839.6938,323.7344 839.3813,323.4219 838.9281,323.4219 C838.6781,323.4219 838.4125,323.5625 838.2406,323.7813 C838.1313,323.9531 838.1,324.1094 838.1,324.5625 L838.1,324.6875 L836.6469,324.6875 L836.6469,322.2813 L840.6313,322.2813 L840.6313,323.1406 C840.6313,323.5469 840.6625,323.7188 840.7406,323.875 C840.9125,324.125 841.1938,324.2813 841.475,324.2813 C841.7406,324.2813 842.0063,324.1406 842.1781,323.9219 C842.2875,323.75 842.3188,323.6094 842.3188,323.1406 L842.3188,320.5938 L834.6938,320.5938 C834.2563,320.5938 834.1313,320.6094 833.975,320.7031 C833.725,320.8594 833.5688,321.1563 833.5688,321.4375 C833.5688,321.7188 833.7094,321.9688 833.9281,322.1406 C834.0844,322.25 834.2719,322.2813 834.6938,322.2813 L834.9438,322.2813 L834.9438,328.7969 L834.6938,328.7969 C834.2875,328.7969 834.1313,328.8125 833.975,328.9219 C833.725,329.0938 833.5688,329.3594 833.5688,329.6563 C833.5688,329.9219 833.7094,330.1719 833.9281,330.3281 C834.0688,330.4531 834.3031,330.5 834.6938,330.5 L842.6938,330.5 L842.6938,327.9219 C842.6938,327.4844 842.6625,327.3438 842.5844,327.1875 C842.4125,326.9375 842.1313,326.7813 841.85,326.7813 C841.5844,326.7813 841.3188,326.8906 841.1469,327.1406 C841.0375,327.2969 841.0063,327.4375 841.0063,327.9219 L841.0063,328.7969 L836.6469,328.7969 L836.6469,326.375 Z " fill="#000000"/><text fill="#000000" font-family="sans-serif" font-size="12" lengthAdjust="spacing" textLength="56" x="852.15" y="329.6543">ToolType</text><line style="stroke:#A80036;stroke-width:1.5;" x1="822.5" x2="911.5" y1="341.5" y2="341.5"/><text fill="#000000" font-family="sans-serif" font-size="11" lengthAdjust="spacing" textLength="66" x="827.5" y="355.7104">ZOOMMAPS</text><text fill="#000000" font-family="sans-serif" font-size="11" lengthAdjust="spacing" textLength="78" x="827.5" y="368.5151">EYETRACKING</text><text fill="#000000" font-family="sans-serif" font-size="11" lengthAdjust="spacing" textLength="79" x="827.5" y="381.3198">CODECHARTS</text><line style="stroke:#A80036;stroke-width:1.5;" x1="822.5" x2="911.5" y1="387.9141" y2="387.9141"/><polygon fill="#FFFFFF" filter="url(#flld1jp0de5hz)" points="431.5,72,526.5,72,533.5,94.2969,540.5,94.2969,540.5,124.5938,431.5,124.5938,431.5,72" style="stroke:#000000;stroke-width:1.5;"/><line style="stroke:#000000;stroke-width:1.5;" x1="431.5" x2="533.5" y1="94.2969" y2="94.2969"/><text fill="#000000" font-family="sans-serif" font-size="14" font-weight="bold" lengthAdjust="spacing" textLength="89" x="435.5" y="86.9951">PCSpeicher</text><!--MD5=[60c9ed31c535bee25c55ce21b5b01399]
class Data--><rect codeLine="91" fill="#FEFECE" filter="url(#flld1jp0de5hz)" height="99.2188" id="Data" style="stroke:#A80036;stroke-width:1.5;" width="144" x="622" y="49"/><ellipse cx="676.25" cy="65" fill="#ADD1B2" rx="11" ry="11" style="stroke:#A80036;stroke-width:1.0;"/><path d="M678.5938,60.6719 C677.6563,60.2344 677.0625,60.0938 676.1875,60.0938 C673.5625,60.0938 671.5625,62.1719 671.5625,64.8906 L671.5625,66.0156 C671.5625,68.5938 673.6719,70.4844 676.5625,70.4844 C677.7813,70.4844 678.9375,70.1875 679.6875,69.6406 C680.2656,69.2344 680.5938,68.7813 680.5938,68.3906 C680.5938,67.9375 680.2031,67.5469 679.7344,67.5469 C679.5156,67.5469 679.3125,67.625 679.125,67.8125 C678.6719,68.2969 678.6719,68.2969 678.4844,68.3906 C678.0625,68.6563 677.375,68.7813 676.6094,68.7813 C674.5625,68.7813 673.2656,67.6875 673.2656,65.9844 L673.2656,64.8906 C673.2656,63.1094 674.5156,61.7969 676.25,61.7969 C676.8281,61.7969 677.4375,61.9531 677.9063,62.2031 C678.3906,62.4844 678.5625,62.7031 678.6563,63.1094 C678.7188,63.5156 678.75,63.6406 678.8906,63.7656 C679.0313,63.9063 679.2656,64.0156 679.4844,64.0156 C679.75,64.0156 680.0156,63.875 680.1875,63.6563 C680.2969,63.5 680.3281,63.3125 680.3281,62.8906 L680.3281,61.4688 C680.3281,61.0313 680.3125,60.9063 680.2188,60.75 C680.0625,60.4844 679.7813,60.3438 679.4844,60.3438 C679.1875,60.3438 678.9844,60.4375 678.7656,60.75 L678.5938,60.6719 Z " fill="#000000"/><text fill="#000000" font-family="sans-serif" font-size="12" lengthAdjust="spacing" textLength="27" x="696.75" y="69.1543">Data</text><line style="stroke:#A80036;stroke-width:1.5;" x1="623" x2="765" y1="81" y2="81"/><rect fill="none" height="6" style="stroke:#C82930;stroke-width:1.0;" width="6" x="630" y="89"/><text fill="#000000" font-family="sans-serif" font-size="11" lengthAdjust="spacing" textLength="113" x="642" y="95.2104">type: SpeicherType</text><rect fill="none" height="6" style="stroke:#C82930;stroke-width:1.0;" width="6" x="630" y="101.8047"/><text fill="#000000" font-family="sans-serif" font-size="11" lengthAdjust="spacing" textLength="82" x="642" y="108.0151">data: unknown</text><rect fill="none" height="6" style="stroke:#C82930;stroke-width:1.0;" width="6" x="630" y="114.6094"/><text fill="#000000" font-family="sans-serif" font-size="11" lengthAdjust="spacing" textLength="79" x="642" y="120.8198">picture: String</text><rect fill="none" height="6" style="stroke:#C82930;stroke-width:1.0;" width="6" x="630" y="127.4141"/><text fill="#000000" font-family="sans-serif" font-size="11" lengthAdjust="spacing" textLength="118" x="642" y="133.6245">configData: unknown</text><line style="stroke:#A80036;stroke-width:1.5;" x1="623" x2="765" y1="140.2188" y2="140.2188"/><!--MD5=[0142a10273876a6498763cbca717bc4b]
link Heatmap to Analyse--><path codeLine="67" d="M845.051,612.198 C796.017,633.608 738.197,658.855 689.92,679.934 " fill="none" id="Heatmap-to-Analyse" style="stroke:#A80036;stroke-width:1.0;"/><polygon fill="none" points="692.713,686.353,671.583,687.941,687.111,673.523,692.713,686.353" style="stroke:#A80036;stroke-width:1.0;"/><!--MD5=[49c5c3aad5e065304b1f0455c88d6c6a]
link Verlauf to Analyse--><path codeLine="68" d="M589,614.349 C589,631.226 589,650.273 589,667.699 " fill="none" id="Verlauf-to-Analyse" style="stroke:#A80036;stroke-width:1.0;"/><polygon fill="none" points="596,667.897,589,687.897,582,667.897,596,667.897" style="stroke:#A80036;stroke-width:1.0;"/><!--MD5=[eec8e75ff2920fb7be4f9035a3a6b788]
link Diagramm to Analyse--><path codeLine="69" d="M354.014,627.007 C397.05,644.771 443.123,663.788 482.97,680.235 " fill="none" id="Diagramm-to-Analyse" style="stroke:#A80036;stroke-width:1.0;"/><polygon fill="none" points="485.877,673.862,501.693,687.963,480.535,686.803,485.877,673.862" style="stroke:#A80036;stroke-width:1.0;"/><!--MD5=[2a5021de51eb7e073d8763129657903a]
link Client to ToolType--><path codeLine="72" d="M779,378.5 C789.632,378.5 800.701,376.695 811.238,374.037 " fill="none" id="Client-ToolType" style="stroke:#A80036;stroke-width:1.0;"/><line style="stroke:#A80036;stroke-width:1.0;" x1="811.238" x2="821.146" y1="374.037" y2="371.258"/><!--MD5=[458e23c55b866563aae54fc87d28c1cd]
link Client to Heatmap--><path codeLine="73" d="M779,427.5 C786.402,427.5 848.261,477.357 895.92,516.697 " fill="none" id="Client-Heatmap" style="stroke:#A80036;stroke-width:1.0;"/><!--MD5=[28cbb4bcdbacbdc16d11542d97316c4d]
link Client to Verlauf--><path codeLine="74" d="M779,427.5 C840.964,427.5 761.338,475.92 687.028,514.977 " fill="none" id="Client-Verlauf" style="stroke:#A80036;stroke-width:1.0;"/><!--MD5=[5a584ab670d8f56708f0929dbbb811bb]
link Client to Diagramm--><path codeLine="75" d="M399,427.5 C395.504,427.5 340.97,465.883 290.613,501.867 " fill="none" id="Client-Diagramm" style="stroke:#A80036;stroke-width:1.0;"/><!--MD5=[1446ce79daee994e8460d46ead5e4cd4]
link Types to Client--><path codeLine="76" d="M357.001,352.5 C368.631,352.5 380.261,352.5 391.891,352.5 " fill="none" id="Types-Client" style="stroke:#A80036;stroke-width:1.0;"/><!--MD5=[e915fa9e1e96e39591c06eed7939ff93]
link SpeicherMedium to Client--><path codeLine="79" d="M578.9521,124.6505 C578.9133,124.8042 578.8745,124.9583 578.8358,125.113 C578.7584,125.4222 578.6812,125.7335 578.6043,126.0466 C577.3741,131.0568 576.2156,136.5565 575.3006,142.3464 C571.6408,165.506 571.877,193.309 587,213 C640.518,282.683 724.178,194.551 778,264 C793.587,284.113 804.445,378.5 779,378.5 " fill="none" id="SpeicherMedium-Client" style="stroke:#A80036;stroke-width:1.0;"/><polygon fill="#000000" points="595.0948,208.4935,591.8046,199.5702,587.188,203.2084,595.0948,208.4935" style="stroke:#000000;stroke-width:1.0;"/><text fill="#000000" font-family="sans-serif" font-size="13" lengthAdjust="spacing" textLength="63" x="601" y="209.0669">gets Data</text><!--MD5=[3545b88b0ba23cc66af5ad5aa1a58b44]
link PCSpeicher to Client--><path codeLine="80" d="M467.515,125.272 C446.428,156.39 413.166,211.153 400,264 C391.861,296.669 365.333,415.5 399,415.5 " fill="none" id="PCSpeicher-Client" style="stroke:#A80036;stroke-width:1.0;"/><polygon fill="#000000" points="431.1488,199.7002,426.2103,207.828,431.9309,209.1785,431.1488,199.7002" style="stroke:#000000;stroke-width:1.0;"/><text fill="#000000" font-family="sans-serif" font-size="13" lengthAdjust="spacing" textLength="48" x="439" y="209.0669">save to</text><!--MD5=[c8efecfbc9e86c28dc7e81b39777014d]
link Data to Client--><path codeLine="100" d="M686.664,148.232 C682.725,168.661 676.996,192.404 669,213 C662.418,229.955 653.967,247.301 645.034,263.727 " fill="none" id="Data-Client" style="stroke:#A80036;stroke-width:1.0;"/><!--MD5=[2ebdc44b4bab1b85c75e9a264e62e320]
@startuml
' === ANALYSE CLIENT ===
package Analyse-Client{
  
  ' Client
  class Client {
    - data: Data
    - dataForComp: Data
    - analyseTypes: Types
    - analyzedData: List<String>
    __public methods__
    + getData(start: Date, end: Date, dataType: ToolType): boolean
    + setAnalyseTypes(): boolean
    + displayAnalyzedData(): void
    + export(): boolean
    + analyseData(): boolean
  }

  ' Analyse
  abstract Analyse {
    - calcRelFreq(data: Data): List<List<Float>>
    - createTimeTable(data: Data): List<List<Float>>
  }

  ' Heatmap
  class Heatmap {
    - heatmap: List<List<Float>>
    __public methods__
    + createHeatmap(data: Data): String
    + compHeatmaps(otherHeatmap: Heatmap): String
  }

  ' Verlauf
  class Verlauf {
    __public method__
    + createVerlauf(data: Data): String
    __private method__
    - drawDiagramm(diagrammData: List<List<Float>>): String
  }

  ' Diagramm
  class Diagramm {
    __public methods__
    + createRelFreqImgArea(data: Data): String
    + createViewTimeDistr(data: Data): String
    __private method__
    - calcViewTimeDistr(): float[4]
    - drawDiagramm(diagrammData: float[4], type: int): String
  }

  ' Types
  class Types {
    + heatmap: boolean
    + compHeatmap: boolean
    + verlauf: boolean
    + relFrqImgArea: boolean
    + viewTimeDistr: boolean
  }

  ' Typen der erhobenen Daten
  enum ToolType {
    ZOOMMAPS
    EYETRACKING
    CODECHARTS
  }

  ' Vererbung
  Analyse <|-u- Heatmap
  Analyse <|-u- Verlauf
  Analyse <|-u- Diagramm

  ' Interaktionen
  Client::getData -r- ToolType
  Client::analyseData -d- Heatmap 
  Client::analyseData -d- Verlauf
  Client::analyseData -d- Diagramm
  Client -l- Types

  ' Andere Module
  Client::getData -u- SpeicherMedium : < gets Data
  Client::export -u- PCSpeicher : > save to

}

' Blackbox

package PCSpeicher {}

package SpeicherMedium {
  
  ' Data
  class Data {
    - type: SpeicherType
    - data: unknown
    - picture: String
    - configData: unknown
  }
}

' Interaktionen
Client -u- Data
@enduml

@startuml
package Analyse-Client{
  
  class Client {
    - data: Data
    - dataForComp: Data
    - analyseTypes: Types
    - analyzedData: List<String>
    __public methods__
    + getData(start: Date, end: Date, dataType: ToolType): boolean
    + setAnalyseTypes(): boolean
    + displayAnalyzedData(): void
    + export(): boolean
    + analyseData(): boolean
  }

  abstract Analyse {
    - calcRelFreq(data: Data): List<List<Float>>
    - createTimeTable(data: Data): List<List<Float>>
  }

  class Heatmap {
    - heatmap: List<List<Float>>
    __public methods__
    + createHeatmap(data: Data): String
    + compHeatmaps(otherHeatmap: Heatmap): String
  }

  class Verlauf {
    __public method__
    + createVerlauf(data: Data): String
    __private method__
    - drawDiagramm(diagrammData: List<List<Float>>): String
  }

  class Diagramm {
    __public methods__
    + createRelFreqImgArea(data: Data): String
    + createViewTimeDistr(data: Data): String
    __private method__
    - calcViewTimeDistr(): float[4]
    - drawDiagramm(diagrammData: float[4], type: int): String
  }

  class Types {
    + heatmap: boolean
    + compHeatmap: boolean
    + verlauf: boolean
    + relFrqImgArea: boolean
    + viewTimeDistr: boolean
  }

  enum ToolType {
    ZOOMMAPS
    EYETRACKING
    CODECHARTS
  }

  Analyse <|-u- Heatmap
  Analyse <|-u- Verlauf
  Analyse <|-u- Diagramm

  Client::getData -r- ToolType
  Client::analyseData -d- Heatmap 
  Client::analyseData -d- Verlauf
  Client::analyseData -d- Diagramm
  Client -l- Types

  Client::getData -u- SpeicherMedium : < gets Data
  Client::export -u- PCSpeicher : > save to

}


package PCSpeicher {}

package SpeicherMedium {
  
  class Data {
    - type: SpeicherType
    - data: unknown
    - picture: String
    - configData: unknown
  }
}

Client -u- Data
@enduml

PlantUML version 1.2021.14beta3(Unknown compile time)
(GPL source distribution)
Java Runtime: Java(TM) SE Runtime Environment
JVM: Java HotSpot(TM) 64-Bit Server VM
Default Encoding: UTF-8
Language: en
Country: US
--></g></svg>