<?xml version="1.0" encoding="UTF-8" standalone="no"?><svg xmlns="http://www.w3.org/2000/svg" xmlns:xlink="http://www.w3.org/1999/xlink" contentScriptType="application/ecmascript" contentStyleType="text/css" height="743px" preserveAspectRatio="none" style="width:1089px;height:743px;background:#FFFFFF;" version="1.1" viewBox="0 0 1089 743" width="1089px" zoomAndPan="magnify"><defs><filter height="300%" id="f1vp3uqayk4ye0" width="300%" x="-1" y="-1"><feGaussianBlur result="blurOut" stdDeviation="2.0"/><feColorMatrix in="blurOut" result="blurOut2" type="matrix" values="0 0 0 0 0 0 0 0 0 0 0 0 0 0 0 0 0 0 .4 0"/><feOffset dx="4.0" dy="4.0" in="blurOut2" result="blurOut3"/><feBlend in="SourceGraphic" in2="blurOut3" mode="normal"/></filter></defs><g><!--MD5=[275afd699dfec56c5bd304e04a3d58a6]
cluster Analyse-Client--><polygon fill="#FFFFFF" filter="url(#f1vp3uqayk4ye0)" points="16,192,138,192,145,214.2969,1072,214.2969,1072,736,16,736,16,192" style="stroke:#000000;stroke-width:1.5;"/><line style="stroke:#000000;stroke-width:1.5;" x1="16" x2="145" y1="214.2969" y2="214.2969"/><text fill="#000000" font-family="sans-serif" font-size="14" font-weight="bold" lengthAdjust="spacing" textLength="116" x="20" y="206.9951">Analyse-Client</text><!--MD5=[a55135535b5c544b99c33b17428c3b14]
cluster Util--><polygon fill="#FFFFFF" filter="url(#f1vp3uqayk4ye0)" points="716,6,751,6,758,28.2969,1004,28.2969,1004,143,716,143,716,6" style="stroke:#000000;stroke-width:1.5;"/><line style="stroke:#000000;stroke-width:1.5;" x1="716" x2="758" y1="28.2969" y2="28.2969"/><text fill="#000000" font-family="sans-serif" font-size="14" font-weight="bold" lengthAdjust="spacing" textLength="29" x="720" y="20.9951">Util</text><!--MD5=[ed6624c6556d5e7b1bd23032162d20b7]
class Client--><rect codeLine="5" fill="#FEFECE" filter="url(#f1vp3uqayk4ye0)" height="172.0469" id="Client" style="stroke:#A80036;stroke-width:1.5;" width="399" x="260.5" y="227"/><ellipse cx="439.25" cy="243" fill="#ADD1B2" rx="11" ry="11" style="stroke:#A80036;stroke-width:1.0;"/><path d="M441.5938,238.6719 C440.6563,238.2344 440.0625,238.0938 439.1875,238.0938 C436.5625,238.0938 434.5625,240.1719 434.5625,242.8906 L434.5625,244.0156 C434.5625,246.5938 436.6719,248.4844 439.5625,248.4844 C440.7813,248.4844 441.9375,248.1875 442.6875,247.6406 C443.2656,247.2344 443.5938,246.7813 443.5938,246.3906 C443.5938,245.9375 443.2031,245.5469 442.7344,245.5469 C442.5156,245.5469 442.3125,245.625 442.125,245.8125 C441.6719,246.2969 441.6719,246.2969 441.4844,246.3906 C441.0625,246.6563 440.375,246.7813 439.6094,246.7813 C437.5625,246.7813 436.2656,245.6875 436.2656,243.9844 L436.2656,242.8906 C436.2656,241.1094 437.5156,239.7969 439.25,239.7969 C439.8281,239.7969 440.4375,239.9531 440.9063,240.2031 C441.3906,240.4844 441.5625,240.7031 441.6563,241.1094 C441.7188,241.5156 441.75,241.6406 441.8906,241.7656 C442.0313,241.9063 442.2656,242.0156 442.4844,242.0156 C442.75,242.0156 443.0156,241.875 443.1875,241.6563 C443.2969,241.5 443.3281,241.3125 443.3281,240.8906 L443.3281,239.4688 C443.3281,239.0313 443.3125,238.9063 443.2188,238.75 C443.0625,238.4844 442.7813,238.3438 442.4844,238.3438 C442.1875,238.3438 441.9844,238.4375 441.7656,238.75 L441.5938,238.6719 Z " fill="#000000"/><text fill="#000000" font-family="sans-serif" font-size="12" lengthAdjust="spacing" textLength="33" x="459.75" y="247.1543">Client</text><line style="stroke:#A80036;stroke-width:1.5;" x1="261.5" x2="658.5" y1="259" y2="259"/><rect fill="none" height="6" style="stroke:#C82930;stroke-width:1.0;" width="6" x="268.5" y="267"/><text fill="#000000" font-family="sans-serif" font-size="11" lengthAdjust="spacing" textLength="80" x="280.5" y="273.2104">data: Util.Data</text><rect fill="none" height="6" style="stroke:#C82930;stroke-width:1.0;" width="6" x="268.5" y="279.8047"/><text fill="#000000" font-family="sans-serif" font-size="11" lengthAdjust="spacing" textLength="130" x="280.5" y="286.0151">dataForComp: Util.Data</text><rect fill="none" height="6" style="stroke:#C82930;stroke-width:1.0;" width="6" x="268.5" y="292.6094"/><text fill="#000000" font-family="sans-serif" font-size="11" lengthAdjust="spacing" textLength="199" x="280.5" y="298.8198">analyseTypes: List&lt;AnalyseType&gt;</text><rect fill="none" height="6" style="stroke:#C82930;stroke-width:1.0;" width="6" x="268.5" y="305.4141"/><text fill="#000000" font-family="sans-serif" font-size="11" lengthAdjust="spacing" textLength="157" x="280.5" y="311.6245">analyzedData: List&lt;String&gt;</text><ellipse cx="271.5" cy="338.0234" fill="#84BE84" rx="3" ry="3" style="stroke:#038048;stroke-width:1.0;"/><text fill="#000000" font-family="sans-serif" font-size="11" lengthAdjust="spacing" textLength="373" x="280.5" y="341.2339">getData(start: Date, end: Date, dataType: Util.ToolType): boolean</text><ellipse cx="271.5" cy="350.8281" fill="#84BE84" rx="3" ry="3" style="stroke:#038048;stroke-width:1.0;"/><text fill="#000000" font-family="sans-serif" font-size="11" lengthAdjust="spacing" textLength="160" x="280.5" y="354.0386">setAnalyseTypes(): boolean</text><ellipse cx="271.5" cy="363.6328" fill="#84BE84" rx="3" ry="3" style="stroke:#038048;stroke-width:1.0;"/><text fill="#000000" font-family="sans-serif" font-size="11" lengthAdjust="spacing" textLength="160" x="280.5" y="366.8433">displayAnalyzedData(): void</text><ellipse cx="271.5" cy="376.4375" fill="#84BE84" rx="3" ry="3" style="stroke:#038048;stroke-width:1.0;"/><text fill="#000000" font-family="sans-serif" font-size="11" lengthAdjust="spacing" textLength="98" x="280.5" y="379.6479">export(): boolean</text><ellipse cx="271.5" cy="389.2422" fill="#84BE84" rx="3" ry="3" style="stroke:#038048;stroke-width:1.0;"/><text fill="#000000" font-family="sans-serif" font-size="11" lengthAdjust="spacing" textLength="133" x="280.5" y="392.4526">analyseData(): boolean</text><line style="stroke:#A80036;stroke-width:1.5;" x1="261.5" x2="416.5" y1="324.6211" y2="324.6211"/><text fill="#000000" font-family="sans-serif" font-size="11" lengthAdjust="spacing" textLength="87" x="416.5" y="327.9292">public methods</text><line style="stroke:#A80036;stroke-width:1.5;" x1="503.5" x2="658.5" y1="324.6211" y2="324.6211"/><!--MD5=[90fa35dfc7d13cf977fc160ba1111d24]
class Analyse--><rect codeLine="19" fill="#FEFECE" filter="url(#f1vp3uqayk4ye0)" height="73.6094" id="Analyse" style="stroke:#A80036;stroke-width:1.5;" width="272" x="429" y="646"/><ellipse cx="537.75" cy="662" fill="#A9DCDF" rx="11" ry="11" style="stroke:#A80036;stroke-width:1.0;"/><path d="M539.8281,663.8125 L540.2188,664.7969 L539.8281,664.7969 C539.375,664.7969 539.2656,664.8125 539.1094,664.9219 C538.8594,665.0781 538.7031,665.3594 538.7031,665.6563 C538.7031,665.9219 538.8438,666.1719 539.0625,666.3281 C539.2031,666.4531 539.4063,666.5 539.8281,666.5 L542.1875,666.5 C542.5469,666.5 542.7656,666.4688 542.9063,666.375 C543.1563,666.2344 543.3125,665.9375 543.3125,665.6563 C543.3125,665.375 543.1719,665.125 542.9531,664.9688 C542.7813,664.8281 542.625,664.7969 542.1563,664.7969 L538.7656,656.5938 L535.0938,656.5938 C534.6406,656.5938 534.5156,656.6094 534.3594,656.7031 C534.1094,656.875 533.9531,657.1563 533.9531,657.4375 C533.9531,657.7188 534.0938,657.9688 534.3125,658.1406 C534.4844,658.25 534.6563,658.2813 535.0938,658.2813 L536.1719,658.2813 L533.5313,664.7969 C533.1094,664.7969 532.9531,664.8125 532.7969,664.9219 C532.5469,665.0781 532.3906,665.3594 532.3906,665.6563 C532.3906,666.2188 532.7656,666.5 533.5156,666.5 L535.7813,666.5 C536.1406,666.5 536.3594,666.4688 536.4844,666.375 C536.75,666.2344 536.8906,665.9375 536.8906,665.6563 C536.8906,665.375 536.7656,665.125 536.5469,664.9531 C536.375,664.8281 536.2344,664.7969 535.7813,664.7969 L535.3906,664.7969 L535.7813,663.8125 L539.8281,663.8125 Z M539.125,662.1094 L536.4531,662.1094 L537.7969,658.8438 L539.125,662.1094 Z " fill="#000000"/><text fill="#000000" font-family="sans-serif" font-size="12" font-style="italic" lengthAdjust="spacing" textLength="46" x="558.25" y="666.1543">Analyse</text><line style="stroke:#A80036;stroke-width:1.5;" x1="430" x2="700" y1="678" y2="678"/><line style="stroke:#A80036;stroke-width:1.5;" x1="430" x2="700" y1="686" y2="686"/><rect fill="#F24D5C" height="6" style="stroke:#C82930;stroke-width:1.0;" width="6" x="437" y="694"/><text fill="#000000" font-family="sans-serif" font-size="11" lengthAdjust="spacing" textLength="213" x="449" y="700.2104">calcRelFreq(data: Util.Data): float[*][*]</text><rect fill="#F24D5C" height="6" style="stroke:#C82930;stroke-width:1.0;" width="6" x="437" y="706.8047"/><text fill="#000000" font-family="sans-serif" font-size="11" lengthAdjust="spacing" textLength="246" x="449" y="713.0151">createTimeTable(data: Util.Data): float[*][*]</text><!--MD5=[3f91f8027f14bf24ffa62a72d32476ac]
class Heatmap--><rect codeLine="25" fill="#FEFECE" filter="url(#f1vp3uqayk4ye0)" height="95.2188" id="Heatmap" style="stroke:#A80036;stroke-width:1.5;" width="304" x="752" y="475"/><ellipse cx="872.75" cy="491" fill="#ADD1B2" rx="11" ry="11" style="stroke:#A80036;stroke-width:1.0;"/><path d="M875.0938,486.6719 C874.1563,486.2344 873.5625,486.0938 872.6875,486.0938 C870.0625,486.0938 868.0625,488.1719 868.0625,490.8906 L868.0625,492.0156 C868.0625,494.5938 870.1719,496.4844 873.0625,496.4844 C874.2813,496.4844 875.4375,496.1875 876.1875,495.6406 C876.7656,495.2344 877.0938,494.7813 877.0938,494.3906 C877.0938,493.9375 876.7031,493.5469 876.2344,493.5469 C876.0156,493.5469 875.8125,493.625 875.625,493.8125 C875.1719,494.2969 875.1719,494.2969 874.9844,494.3906 C874.5625,494.6563 873.875,494.7813 873.1094,494.7813 C871.0625,494.7813 869.7656,493.6875 869.7656,491.9844 L869.7656,490.8906 C869.7656,489.1094 871.0156,487.7969 872.75,487.7969 C873.3281,487.7969 873.9375,487.9531 874.4063,488.2031 C874.8906,488.4844 875.0625,488.7031 875.1563,489.1094 C875.2188,489.5156 875.25,489.6406 875.3906,489.7656 C875.5313,489.9063 875.7656,490.0156 875.9844,490.0156 C876.25,490.0156 876.5156,489.875 876.6875,489.6563 C876.7969,489.5 876.8281,489.3125 876.8281,488.8906 L876.8281,487.4688 C876.8281,487.0313 876.8125,486.9063 876.7188,486.75 C876.5625,486.4844 876.2813,486.3438 875.9844,486.3438 C875.6875,486.3438 875.4844,486.4375 875.2656,486.75 L875.0938,486.6719 Z " fill="#000000"/><text fill="#000000" font-family="sans-serif" font-size="12" lengthAdjust="spacing" textLength="54" x="893.25" y="495.1543">Heatmap</text><line style="stroke:#A80036;stroke-width:1.5;" x1="753" x2="1055" y1="507" y2="507"/><rect fill="none" height="6" style="stroke:#C82930;stroke-width:1.0;" width="6" x="760" y="515"/><text fill="#000000" font-family="sans-serif" font-size="11" lengthAdjust="spacing" textLength="111" x="772" y="521.2104">heatmap: float[*][*]</text><ellipse cx="763" cy="547.6094" fill="#84BE84" rx="3" ry="3" style="stroke:#038048;stroke-width:1.0;"/><text fill="#000000" font-family="sans-serif" font-size="11" lengthAdjust="spacing" textLength="217" x="772" y="550.8198">createHeatmap(data: Util.Data): String</text><ellipse cx="763" cy="560.4141" fill="#84BE84" rx="3" ry="3" style="stroke:#038048;stroke-width:1.0;"/><text fill="#000000" font-family="sans-serif" font-size="11" lengthAdjust="spacing" textLength="278" x="772" y="563.6245">compHeatmaps(otherHeatmap: Heatmap): String</text><line style="stroke:#A80036;stroke-width:1.5;" x1="753" x2="860.5" y1="534.207" y2="534.207"/><text fill="#000000" font-family="sans-serif" font-size="11" lengthAdjust="spacing" textLength="87" x="860.5" y="537.5151">public methods</text><line style="stroke:#A80036;stroke-width:1.5;" x1="947.5" x2="1055" y1="534.207" y2="534.207"/><!--MD5=[a75dc2f5d5c9a4a0489ea15a737b99a8]
class Verlauf--><rect codeLine="33" fill="#FEFECE" filter="url(#f1vp3uqayk4ye0)" height="99.2188" id="Verlauf" style="stroke:#A80036;stroke-width:1.5;" width="304" x="413" y="473"/><ellipse cx="539.75" cy="489" fill="#ADD1B2" rx="11" ry="11" style="stroke:#A80036;stroke-width:1.0;"/><path d="M542.0938,484.6719 C541.1563,484.2344 540.5625,484.0938 539.6875,484.0938 C537.0625,484.0938 535.0625,486.1719 535.0625,488.8906 L535.0625,490.0156 C535.0625,492.5938 537.1719,494.4844 540.0625,494.4844 C541.2813,494.4844 542.4375,494.1875 543.1875,493.6406 C543.7656,493.2344 544.0938,492.7813 544.0938,492.3906 C544.0938,491.9375 543.7031,491.5469 543.2344,491.5469 C543.0156,491.5469 542.8125,491.625 542.625,491.8125 C542.1719,492.2969 542.1719,492.2969 541.9844,492.3906 C541.5625,492.6563 540.875,492.7813 540.1094,492.7813 C538.0625,492.7813 536.7656,491.6875 536.7656,489.9844 L536.7656,488.8906 C536.7656,487.1094 538.0156,485.7969 539.75,485.7969 C540.3281,485.7969 540.9375,485.9531 541.4063,486.2031 C541.8906,486.4844 542.0625,486.7031 542.1563,487.1094 C542.2188,487.5156 542.25,487.6406 542.3906,487.7656 C542.5313,487.9063 542.7656,488.0156 542.9844,488.0156 C543.25,488.0156 543.5156,487.875 543.6875,487.6563 C543.7969,487.5 543.8281,487.3125 543.8281,486.8906 L543.8281,485.4688 C543.8281,485.0313 543.8125,484.9063 543.7188,484.75 C543.5625,484.4844 543.2813,484.3438 542.9844,484.3438 C542.6875,484.3438 542.4844,484.4375 542.2656,484.75 L542.0938,484.6719 Z " fill="#000000"/><text fill="#000000" font-family="sans-serif" font-size="12" lengthAdjust="spacing" textLength="42" x="560.25" y="493.1543">Verlauf</text><line style="stroke:#A80036;stroke-width:1.5;" x1="414" x2="716" y1="505" y2="505"/><ellipse cx="424" cy="532.8047" fill="#84BE84" rx="3" ry="3" style="stroke:#038048;stroke-width:1.0;"/><text fill="#000000" font-family="sans-serif" font-size="11" lengthAdjust="spacing" textLength="206" x="433" y="536.0151">createVerlauf(data: Util.Data): String</text><line style="stroke:#A80036;stroke-width:1.5;" x1="414" x2="524.5" y1="519.4023" y2="519.4023"/><text fill="#000000" font-family="sans-serif" font-size="11" lengthAdjust="spacing" textLength="81" x="524.5" y="522.7104">public method</text><line style="stroke:#A80036;stroke-width:1.5;" x1="605.5" x2="716" y1="519.4023" y2="519.4023"/><rect fill="#F24D5C" height="6" style="stroke:#C82930;stroke-width:1.0;" width="6" x="421" y="559.4141"/><text fill="#000000" font-family="sans-serif" font-size="11" lengthAdjust="spacing" textLength="278" x="433" y="565.6245">drawDiagramm(diagrammData: float[*][*]): String</text><line style="stroke:#A80036;stroke-width:1.5;" x1="414" x2="521" y1="549.0117" y2="549.0117"/><text fill="#000000" font-family="sans-serif" font-size="11" lengthAdjust="spacing" textLength="88" x="521" y="552.3198">private method</text><line style="stroke:#A80036;stroke-width:1.5;" x1="609" x2="716" y1="549.0117" y2="549.0117"/><!--MD5=[33dbb5cd9b1593568d30e59c5983c72e]
class Diagramm--><rect codeLine="41" fill="#FEFECE" filter="url(#f1vp3uqayk4ye0)" height="124.8281" id="Diagramm" style="stroke:#A80036;stroke-width:1.5;" width="345" x="32.5" y="460"/><ellipse cx="170.25" cy="476" fill="#ADD1B2" rx="11" ry="11" style="stroke:#A80036;stroke-width:1.0;"/><path d="M172.5938,471.6719 C171.6563,471.2344 171.0625,471.0938 170.1875,471.0938 C167.5625,471.0938 165.5625,473.1719 165.5625,475.8906 L165.5625,477.0156 C165.5625,479.5938 167.6719,481.4844 170.5625,481.4844 C171.7813,481.4844 172.9375,481.1875 173.6875,480.6406 C174.2656,480.2344 174.5938,479.7813 174.5938,479.3906 C174.5938,478.9375 174.2031,478.5469 173.7344,478.5469 C173.5156,478.5469 173.3125,478.625 173.125,478.8125 C172.6719,479.2969 172.6719,479.2969 172.4844,479.3906 C172.0625,479.6563 171.375,479.7813 170.6094,479.7813 C168.5625,479.7813 167.2656,478.6875 167.2656,476.9844 L167.2656,475.8906 C167.2656,474.1094 168.5156,472.7969 170.25,472.7969 C170.8281,472.7969 171.4375,472.9531 171.9063,473.2031 C172.3906,473.4844 172.5625,473.7031 172.6563,474.1094 C172.7188,474.5156 172.75,474.6406 172.8906,474.7656 C173.0313,474.9063 173.2656,475.0156 173.4844,475.0156 C173.75,475.0156 174.0156,474.875 174.1875,474.6563 C174.2969,474.5 174.3281,474.3125 174.3281,473.8906 L174.3281,472.4688 C174.3281,472.0313 174.3125,471.9063 174.2188,471.75 C174.0625,471.4844 173.7813,471.3438 173.4844,471.3438 C173.1875,471.3438 172.9844,471.4375 172.7656,471.75 L172.5938,471.6719 Z " fill="#000000"/><text fill="#000000" font-family="sans-serif" font-size="12" lengthAdjust="spacing" textLength="61" x="190.75" y="480.1543">Diagramm</text><line style="stroke:#A80036;stroke-width:1.5;" x1="33.5" x2="376.5" y1="492" y2="492"/><ellipse cx="43.5" cy="519.8047" fill="#84BE84" rx="3" ry="3" style="stroke:#038048;stroke-width:1.0;"/><text fill="#000000" font-family="sans-serif" font-size="11" lengthAdjust="spacing" textLength="256" x="52.5" y="523.0151">createRelFreqImgArea(data: Util.Data): String</text><ellipse cx="43.5" cy="532.6094" fill="#84BE84" rx="3" ry="3" style="stroke:#038048;stroke-width:1.0;"/><text fill="#000000" font-family="sans-serif" font-size="11" lengthAdjust="spacing" textLength="248" x="52.5" y="535.8198">createViewTimeDistr(data: Util.Data): String</text><line style="stroke:#A80036;stroke-width:1.5;" x1="33.5" x2="161.5" y1="506.4023" y2="506.4023"/><text fill="#000000" font-family="sans-serif" font-size="11" lengthAdjust="spacing" textLength="87" x="161.5" y="509.7104">public methods</text><line style="stroke:#A80036;stroke-width:1.5;" x1="248.5" x2="376.5" y1="506.4023" y2="506.4023"/><rect fill="#F24D5C" height="6" style="stroke:#C82930;stroke-width:1.0;" width="6" x="40.5" y="559.2188"/><text fill="#000000" font-family="sans-serif" font-size="11" lengthAdjust="spacing" textLength="160" x="52.5" y="565.4292">calcViewTimeDistr(): float[4]</text><rect fill="#F24D5C" height="6" style="stroke:#C82930;stroke-width:1.0;" width="6" x="40.5" y="572.0234"/><text fill="#000000" font-family="sans-serif" font-size="11" lengthAdjust="spacing" textLength="319" x="52.5" y="578.2339">drawDiagramm(diagrammData: float[4], type: int): String</text><line style="stroke:#A80036;stroke-width:1.5;" x1="33.5" x2="158" y1="548.8164" y2="548.8164"/><text fill="#000000" font-family="sans-serif" font-size="11" lengthAdjust="spacing" textLength="94" x="158" y="552.1245">private methods</text><line style="stroke:#A80036;stroke-width:1.5;" x1="252" x2="376.5" y1="548.8164" y2="548.8164"/><!--MD5=[187bd564dfbdf57eb75091cc1a4a8baa]
class AnalyseType--><rect codeLine="51" fill="#FEFECE" filter="url(#f1vp3uqayk4ye0)" height="112.0234" id="AnalyseType" style="stroke:#A80036;stroke-width:1.5;" width="109" x="116.5" y="257"/><ellipse cx="131.5" cy="273" fill="#EB937F" rx="11" ry="11" style="stroke:#A80036;stroke-width:1.0;"/><path d="M130.2969,273.875 L131.75,273.875 L131.75,273.9844 C131.75,274.3906 131.7813,274.5469 131.8594,274.7031 C132.0156,274.9531 132.2969,275.1094 132.5938,275.1094 C132.8438,275.1094 133.1094,274.9688 133.2656,274.75 C133.3906,274.5938 133.4219,274.4375 133.4219,273.9844 L133.4219,272.0625 C133.4219,271.9063 133.4219,271.8594 133.4063,271.7031 C133.3438,271.2344 133.0313,270.9219 132.5781,270.9219 C132.3281,270.9219 132.0625,271.0625 131.8906,271.2813 C131.7813,271.4531 131.75,271.6094 131.75,272.0625 L131.75,272.1875 L130.2969,272.1875 L130.2969,269.7813 L134.2813,269.7813 L134.2813,270.6406 C134.2813,271.0469 134.3125,271.2188 134.3906,271.375 C134.5625,271.625 134.8438,271.7813 135.125,271.7813 C135.3906,271.7813 135.6563,271.6406 135.8281,271.4219 C135.9375,271.25 135.9688,271.1094 135.9688,270.6406 L135.9688,268.0938 L128.3438,268.0938 C127.9063,268.0938 127.7813,268.1094 127.625,268.2031 C127.375,268.3594 127.2188,268.6563 127.2188,268.9375 C127.2188,269.2188 127.3594,269.4688 127.5781,269.6406 C127.7344,269.75 127.9219,269.7813 128.3438,269.7813 L128.5938,269.7813 L128.5938,276.2969 L128.3438,276.2969 C127.9375,276.2969 127.7813,276.3125 127.625,276.4219 C127.375,276.5938 127.2188,276.8594 127.2188,277.1563 C127.2188,277.4219 127.3594,277.6719 127.5781,277.8281 C127.7188,277.9531 127.9531,278 128.3438,278 L136.3438,278 L136.3438,275.4219 C136.3438,274.9844 136.3125,274.8438 136.2344,274.6875 C136.0625,274.4375 135.7813,274.2813 135.5,274.2813 C135.2344,274.2813 134.9688,274.3906 134.7969,274.6406 C134.6875,274.7969 134.6563,274.9375 134.6563,275.4219 L134.6563,276.2969 L130.2969,276.2969 L130.2969,273.875 Z " fill="#000000"/><text fill="#000000" font-family="sans-serif" font-size="12" lengthAdjust="spacing" textLength="77" x="145.5" y="277.1543">AnalyseType</text><line style="stroke:#A80036;stroke-width:1.5;" x1="117.5" x2="224.5" y1="289" y2="289"/><text fill="#000000" font-family="sans-serif" font-size="11" lengthAdjust="spacing" textLength="53" x="122.5" y="303.2104">HEATMAP</text><text fill="#000000" font-family="sans-serif" font-size="11" lengthAdjust="spacing" textLength="85" x="122.5" y="316.0151">COMPHEATMAP</text><text fill="#000000" font-family="sans-serif" font-size="11" lengthAdjust="spacing" textLength="50" x="122.5" y="328.8198">VERLAUF</text><text fill="#000000" font-family="sans-serif" font-size="11" lengthAdjust="spacing" textLength="93" x="122.5" y="341.6245">RELFRQIMGAREA</text><text fill="#000000" font-family="sans-serif" font-size="11" lengthAdjust="spacing" textLength="89" x="122.5" y="354.4292">VIEWTIMEDISTR</text><line style="stroke:#A80036;stroke-width:1.5;" x1="117.5" x2="224.5" y1="361.0234" y2="361.0234"/><!--MD5=[3079cd578e216c696855c75c2998d445]
class ClientGUI--><rect codeLine="60" fill="#FEFECE" filter="url(#f1vp3uqayk4ye0)" height="82.4141" id="ClientGUI" style="stroke:#A80036;stroke-width:1.5;" width="147" x="908.5" y="272"/><ellipse cx="950.95" cy="288" fill="#ADD1B2" rx="11" ry="11" style="stroke:#A80036;stroke-width:1.0;"/><path d="M953.2938,283.6719 C952.3563,283.2344 951.7625,283.0938 950.8875,283.0938 C948.2625,283.0938 946.2625,285.1719 946.2625,287.8906 L946.2625,289.0156 C946.2625,291.5938 948.3719,293.4844 951.2625,293.4844 C952.4813,293.4844 953.6375,293.1875 954.3875,292.6406 C954.9656,292.2344 955.2938,291.7813 955.2938,291.3906 C955.2938,290.9375 954.9031,290.5469 954.4344,290.5469 C954.2156,290.5469 954.0125,290.625 953.825,290.8125 C953.3719,291.2969 953.3719,291.2969 953.1844,291.3906 C952.7625,291.6563 952.075,291.7813 951.3094,291.7813 C949.2625,291.7813 947.9656,290.6875 947.9656,288.9844 L947.9656,287.8906 C947.9656,286.1094 949.2156,284.7969 950.95,284.7969 C951.5281,284.7969 952.1375,284.9531 952.6063,285.2031 C953.0906,285.4844 953.2625,285.7031 953.3563,286.1094 C953.4188,286.5156 953.45,286.6406 953.5906,286.7656 C953.7313,286.9063 953.9656,287.0156 954.1844,287.0156 C954.45,287.0156 954.7156,286.875 954.8875,286.6563 C954.9969,286.5 955.0281,286.3125 955.0281,285.8906 L955.0281,284.4688 C955.0281,284.0313 955.0125,283.9063 954.9188,283.75 C954.7625,283.4844 954.4813,283.3438 954.1844,283.3438 C953.8875,283.3438 953.6844,283.4375 953.4656,283.75 L953.2938,283.6719 Z " fill="#000000"/><text fill="#000000" font-family="sans-serif" font-size="12" lengthAdjust="spacing" textLength="54" x="971.05" y="292.1543">ClientGUI</text><line style="stroke:#A80036;stroke-width:1.5;" x1="909.5" x2="1054.5" y1="304" y2="304"/><rect fill="none" height="6" style="stroke:#C82930;stroke-width:1.0;" width="6" x="916.5" y="312"/><text fill="#000000" font-family="sans-serif" font-size="11" lengthAdjust="spacing" textLength="71" x="928.5" y="318.2104">client: Client</text><ellipse cx="919.5" cy="344.6094" fill="#84BE84" rx="3" ry="3" style="stroke:#038048;stroke-width:1.0;"/><text fill="#000000" font-family="sans-serif" font-size="11" lengthAdjust="spacing" textLength="121" x="928.5" y="347.8198">showClientGUI(): void</text><line style="stroke:#A80036;stroke-width:1.5;" x1="909.5" x2="941.5" y1="331.207" y2="331.207"/><text fill="#000000" font-family="sans-serif" font-size="11" lengthAdjust="spacing" textLength="81" x="941.5" y="334.5151">public method</text><line style="stroke:#A80036;stroke-width:1.5;" x1="1022.5" x2="1054.5" y1="331.207" y2="331.207"/><polygon fill="#FFFFFF" filter="url(#f1vp3uqayk4ye0)" points="305,57.5,443,57.5,450,79.7969,457,79.7969,457,110.0938,305,110.0938,305,57.5" style="stroke:#000000;stroke-width:1.5;"/><line style="stroke:#000000;stroke-width:1.5;" x1="305" x2="450" y1="79.7969" y2="79.7969"/><text fill="#000000" font-family="sans-serif" font-size="14" font-weight="bold" lengthAdjust="spacing" textLength="132" x="309" y="72.4951">SpeicherMedium</text><!--MD5=[5c39798b83ace9e75333b1274a725e6c]
class ToolType--><rect codeLine="86" fill="#FEFECE" filter="url(#f1vp3uqayk4ye0)" height="86.4141" id="ToolType" style="stroke:#A80036;stroke-width:1.5;" width="91" x="732.5" y="41"/><ellipse cx="748.85" cy="57" fill="#EB937F" rx="11" ry="11" style="stroke:#A80036;stroke-width:1.0;"/><path d="M747.6469,57.875 L749.1,57.875 L749.1,57.9844 C749.1,58.3906 749.1313,58.5469 749.2094,58.7031 C749.3656,58.9531 749.6469,59.1094 749.9438,59.1094 C750.1938,59.1094 750.4594,58.9688 750.6156,58.75 C750.7406,58.5938 750.7719,58.4375 750.7719,57.9844 L750.7719,56.0625 C750.7719,55.9063 750.7719,55.8594 750.7563,55.7031 C750.6938,55.2344 750.3813,54.9219 749.9281,54.9219 C749.6781,54.9219 749.4125,55.0625 749.2406,55.2813 C749.1313,55.4531 749.1,55.6094 749.1,56.0625 L749.1,56.1875 L747.6469,56.1875 L747.6469,53.7813 L751.6313,53.7813 L751.6313,54.6406 C751.6313,55.0469 751.6625,55.2188 751.7406,55.375 C751.9125,55.625 752.1938,55.7813 752.475,55.7813 C752.7406,55.7813 753.0063,55.6406 753.1781,55.4219 C753.2875,55.25 753.3188,55.1094 753.3188,54.6406 L753.3188,52.0938 L745.6938,52.0938 C745.2563,52.0938 745.1313,52.1094 744.975,52.2031 C744.725,52.3594 744.5688,52.6563 744.5688,52.9375 C744.5688,53.2188 744.7094,53.4688 744.9281,53.6406 C745.0844,53.75 745.2719,53.7813 745.6938,53.7813 L745.9438,53.7813 L745.9438,60.2969 L745.6938,60.2969 C745.2875,60.2969 745.1313,60.3125 744.975,60.4219 C744.725,60.5938 744.5688,60.8594 744.5688,61.1563 C744.5688,61.4219 744.7094,61.6719 744.9281,61.8281 C745.0688,61.9531 745.3031,62 745.6938,62 L753.6938,62 L753.6938,59.4219 C753.6938,58.9844 753.6625,58.8438 753.5844,58.6875 C753.4125,58.4375 753.1313,58.2813 752.85,58.2813 C752.5844,58.2813 752.3188,58.3906 752.1469,58.6406 C752.0375,58.7969 752.0063,58.9375 752.0063,59.4219 L752.0063,60.2969 L747.6469,60.2969 L747.6469,57.875 Z " fill="#000000"/><text fill="#000000" font-family="sans-serif" font-size="12" lengthAdjust="spacing" textLength="56" x="763.15" y="61.1543">ToolType</text><line style="stroke:#A80036;stroke-width:1.5;" x1="733.5" x2="822.5" y1="73" y2="73"/><text fill="#000000" font-family="sans-serif" font-size="11" lengthAdjust="spacing" textLength="35" x="738.5" y="87.2104">ZOOM</text><text fill="#000000" font-family="sans-serif" font-size="11" lengthAdjust="spacing" textLength="78" x="738.5" y="100.0151">EYETRACKING</text><text fill="#000000" font-family="sans-serif" font-size="11" lengthAdjust="spacing" textLength="79" x="738.5" y="112.8198">CODECHARTS</text><line style="stroke:#A80036;stroke-width:1.5;" x1="733.5" x2="822.5" y1="119.4141" y2="119.4141"/><!--MD5=[60c9ed31c535bee25c55ce21b5b01399]
class Data--><rect codeLine="93" fill="#FEFECE" filter="url(#f1vp3uqayk4ye0)" height="86.4141" id="Data" style="stroke:#A80036;stroke-width:1.5;" width="129" x="858.5" y="41"/><ellipse cx="873.5" cy="57" fill="#ADD1B2" rx="11" ry="11" style="stroke:#A80036;stroke-width:1.0;"/><path d="M875.8438,52.6719 C874.9063,52.2344 874.3125,52.0938 873.4375,52.0938 C870.8125,52.0938 868.8125,54.1719 868.8125,56.8906 L868.8125,58.0156 C868.8125,60.5938 870.9219,62.4844 873.8125,62.4844 C875.0313,62.4844 876.1875,62.1875 876.9375,61.6406 C877.5156,61.2344 877.8438,60.7813 877.8438,60.3906 C877.8438,59.9375 877.4531,59.5469 876.9844,59.5469 C876.7656,59.5469 876.5625,59.625 876.375,59.8125 C875.9219,60.2969 875.9219,60.2969 875.7344,60.3906 C875.3125,60.6563 874.625,60.7813 873.8594,60.7813 C871.8125,60.7813 870.5156,59.6875 870.5156,57.9844 L870.5156,56.8906 C870.5156,55.1094 871.7656,53.7969 873.5,53.7969 C874.0781,53.7969 874.6875,53.9531 875.1563,54.2031 C875.6406,54.4844 875.8125,54.7031 875.9063,55.1094 C875.9688,55.5156 876,55.6406 876.1406,55.7656 C876.2813,55.9063 876.5156,56.0156 876.7344,56.0156 C877,56.0156 877.2656,55.875 877.4375,55.6563 C877.5469,55.5 877.5781,55.3125 877.5781,54.8906 L877.5781,53.4688 C877.5781,53.0313 877.5625,52.9063 877.4688,52.75 C877.3125,52.4844 877.0313,52.3438 876.7344,52.3438 C876.4375,52.3438 876.2344,52.4375 876.0156,52.75 L875.8438,52.6719 Z " fill="#000000"/><text fill="#000000" font-family="sans-serif" font-size="12" lengthAdjust="spacing" textLength="27" x="887.5" y="61.1543">Data</text><rect fill="#FFFFFF" height="15.9688" style="stroke:#000000;stroke-width:1.0;stroke-dasharray:2.0,2.0;" width="68" x="922.5" y="38"/><text fill="#000000" font-family="sans-serif" font-size="12" font-style="italic" lengthAdjust="spacing" textLength="66" x="923.5" y="50.1387">t: ToolType</text><line style="stroke:#A80036;stroke-width:1.5;" x1="859.5" x2="986.5" y1="73" y2="73"/><ellipse cx="869.5" cy="84" rx="3" ry="3" style="stroke:#038048;stroke-width:1.0;fill:none;"/><text fill="#000000" font-family="sans-serif" font-size="11" lengthAdjust="spacing" textLength="64" x="878.5" y="87.2104">t: ToolType</text><ellipse cx="869.5" cy="96.8047" rx="3" ry="3" style="stroke:#038048;stroke-width:1.0;fill:none;"/><text fill="#000000" font-family="sans-serif" font-size="11" lengthAdjust="spacing" textLength="82" x="878.5" y="100.0151">data: unknown</text><ellipse cx="869.5" cy="109.6094" rx="3" ry="3" style="stroke:#038048;stroke-width:1.0;fill:none;"/><text fill="#000000" font-family="sans-serif" font-size="11" lengthAdjust="spacing" textLength="71" x="878.5" y="112.8198">config_id: int</text><line style="stroke:#A80036;stroke-width:1.5;" x1="859.5" x2="986.5" y1="119.4141" y2="119.4141"/><!--MD5=[abea0b42432aea0f9ce66e53feda8644]
entity System--><ellipse cx="527" cy="84" fill="#DA70D5" filter="url(#f1vp3uqayk4ye0)" rx="8" ry="8" style="stroke:#A80036;stroke-width:1.5;"/><text fill="#000000" font-family="sans-serif" font-size="14" lengthAdjust="spacing" textLength="54" x="500" y="113.9951">System</text><!--MD5=[0142a10273876a6498763cbca717bc4b]
link Heatmap to Analyse--><path codeLine="67" d="M804.122,570.198 C758.735,591.419 705.286,616.409 660.444,637.375 " fill="none" id="Heatmap-to-Analyse" style="stroke:#A80036;stroke-width:1.0;"/><polygon fill="none" points="663.205,643.811,642.123,645.941,657.276,631.129,663.205,643.811" style="stroke:#A80036;stroke-width:1.0;"/><!--MD5=[49c5c3aad5e065304b1f0455c88d6c6a]
link Verlauf to Analyse--><path codeLine="68" d="M565,572.349 C565,589.226 565,608.273 565,625.699 " fill="none" id="Verlauf-to-Analyse" style="stroke:#A80036;stroke-width:1.0;"/><polygon fill="none" points="572,625.897,565,645.897,558,625.897,572,625.897" style="stroke:#A80036;stroke-width:1.0;"/><!--MD5=[eec8e75ff2920fb7be4f9035a3a6b788]
link Diagramm to Analyse--><path codeLine="69" d="M344.701,585.007 C384.772,602.65 427.652,621.529 464.833,637.899 " fill="none" id="Diagramm-to-Analyse" style="stroke:#A80036;stroke-width:1.0;"/><polygon fill="none" points="467.666,631.497,483.15,645.963,462.024,644.311,467.666,631.497" style="stroke:#A80036;stroke-width:1.0;"/><!--MD5=[458e23c55b866563aae54fc87d28c1cd]
link Client to Heatmap--><path codeLine="72" d="M642.193,399.147 C695.76,424.18 752.522,450.708 799.451,472.64 " fill="none" id="Client-to-Heatmap" style="stroke:#A80036;stroke-width:1.0;"/><polygon fill="#A80036" points="804.251,474.883,797.7911,467.4486,799.7213,472.766,794.4039,474.6962,804.251,474.883" style="stroke:#A80036;stroke-width:1.0;"/><!--MD5=[28cbb4bcdbacbdc16d11542d97316c4d]
link Client to Verlauf--><path codeLine="73" d="M503.162,399.296 C514.941,422.575 527.369,447.133 537.968,468.08 " fill="none" id="Client-to-Verlauf" style="stroke:#A80036;stroke-width:1.0;"/><polygon fill="#A80036" points="540.341,472.769,539.8473,462.9325,538.0838,468.3075,532.7089,466.544,540.341,472.769" style="stroke:#A80036;stroke-width:1.0;"/><!--MD5=[5a584ab670d8f56708f0929dbbb811bb]
link Client to Diagramm--><path codeLine="74" d="M355.178,399.296 C331.642,418.448 307.04,438.467 284.722,456.628 " fill="none" id="Client-to-Diagramm" style="stroke:#A80036;stroke-width:1.0;"/><polygon fill="#A80036" points="280.582,459.997,290.0876,457.4197,284.4604,456.8414,285.0387,451.2142,280.582,459.997" style="stroke:#A80036;stroke-width:1.0;"/><!--MD5=[f1ae28e25402a7e717ad4fc29abfecff]
link AnalyseType to Client--><path codeLine="75" d="M225.752,313 C237.19,313 248.628,313 260.066,313 " fill="none" id="AnalyseType-Client" style="stroke:#A80036;stroke-width:1.0;"/><!--MD5=[d87b49e9793fa2adf9873dcf0a70cfd9]
reverse link Client to ClientGUI--><path codeLine="76" d="M664.701,313 C750.562,313 844.958,313 908.282,313 " fill="none" id="Client-backto-ClientGUI" style="stroke:#A80036;stroke-width:1.0;"/><polygon fill="#A80036" points="659.58,313,668.58,317,664.58,313,668.58,309,659.58,313" style="stroke:#A80036;stroke-width:1.0;"/><polygon fill="#000000" points="677,301.5664,686.0451,304.5053,686.0451,298.6275,677,301.5664" style="stroke:#000000;stroke-width:1.0;"/><text fill="#000000" font-family="sans-serif" font-size="13" lengthAdjust="spacing" textLength="199" x="691" y="306.0669">graphische Benutzeroberfläche</text><!--MD5=[b0bc53235038902673d53aaf3a34627f]
link ToolType to Data--><path codeLine="100" d="M823.596,84 C835.115,84 846.635,84 858.154,84 " fill="none" id="ToolType-Data" style="stroke:#A80036;stroke-width:1.0;"/><!--MD5=[3bc31aaf38fcd7bd4122f97c2621c34e]
link System to Client--><path codeLine="106" d="M524.615,93.079 C518.275,114.562 500.435,175.004 485.103,226.949 " fill="none" id="System-Client" style="stroke:#A80036;stroke-width:1.0;"/><polygon fill="#000000" points="509.4154,162.7709,504.0362,170.6141,509.6736,172.278,509.4154,162.7709" style="stroke:#000000;stroke-width:1.0;"/><text fill="#000000" font-family="sans-serif" font-size="13" lengthAdjust="spacing" textLength="48" x="517" y="172.0669">save to</text><!--MD5=[e915fa9e1e96e39591c06eed7939ff93]
link SpeicherMedium to Client--><path codeLine="107" d="M389.909,110.599 C399.714,138.774 416.001,185.572 430.407,226.968 " fill="none" id="SpeicherMedium-Client" style="stroke:#A80036;stroke-width:1.0;"/><polygon fill="#000000" points="417.6434,172.2886,417.4461,162.7801,411.8948,164.712,417.6434,172.2886" style="stroke:#000000;stroke-width:1.0;"/><text fill="#000000" font-family="sans-serif" font-size="13" lengthAdjust="spacing" textLength="63" x="425" y="172.0669">gets Data</text><!--MD5=[124101862cc8bdcef797053b00c07894]
@startuml
' === ANALYSE CLIENT ===
package Analyse-Client{

    ' Client
    class Client {
        - data: Util.Data
        - dataForComp: Util.Data
        - analyseTypes: List<AnalyseType>
        - analyzedData: List<String>
        __public methods__
        + getData(start: Date, end: Date, dataType: Util.ToolType): boolean
        + setAnalyseTypes(): boolean
        + displayAnalyzedData(): void
        + export(): boolean
        + analyseData(): boolean
    }

    ' Analyse
    abstract Analyse {
        - calcRelFreq(data: Util.Data): float[*][*]
        - createTimeTable(data: Util.Data): float[*][*]
    }

    ' Heatmap
    class Heatmap {
        - heatmap: float[*][*]
        __public methods__
        + createHeatmap(data: Util.Data): String
        + compHeatmaps(otherHeatmap: Heatmap): String
    }

    ' Verlauf
    class Verlauf {
        __public method__
        + createVerlauf(data: Util.Data): String
        __private method__
        - drawDiagramm(diagrammData: float[*][*]): String
    }

    ' Diagramm
    class Diagramm {
        __public methods__
        + createRelFreqImgArea(data: Util.Data): String
        + createViewTimeDistr(data: Util.Data): String
        __private methods__
        - calcViewTimeDistr(): float[4]
        - drawDiagramm(diagrammData: float[4], type: int): String
    }

    ' Type
    enum AnalyseType {
        HEATMAP
        COMPHEATMAP
        VERLAUF
        RELFRQIMGAREA
        VIEWTIMEDISTR
    }

    ' ClientGUI
    class ClientGUI {
        - client: Client
        __public method__
        + showClientGUI(): void
    }

    ' Vererbung
    Analyse <|-u- Heatmap
    Analyse <|-u- Verlauf
    Analyse <|-u- Diagramm

    ' Interaktionen
    Client -d-> Heatmap
    Client -d-> Verlauf
    Client -d-> Diagramm
    Client -l- AnalyseType
    Client <-r- ClientGUI : < graphische Benutzeroberfläche

}

' Blackbox
package SpeicherMedium {}

package Util {

    ' Typen der erhobenen Daten
    enum ToolType {
        ZOOM
        EYETRACKING
        CODECHARTS
    }

    ' Daten
    class Data<t: ToolType> {
        + t: ToolType
        + data: unknown
        + config_id: int
    }

    ' Interaktionen
    Data -l- ToolType
}

() System #DA70D5

' Interaktionen
Client -u- System: > save to
Client -u- SpeicherMedium : < gets Data
@enduml

@startuml
package Analyse-Client{

    class Client {
        - data: Util.Data
        - dataForComp: Util.Data
        - analyseTypes: List<AnalyseType>
        - analyzedData: List<String>
        __public methods__
        + getData(start: Date, end: Date, dataType: Util.ToolType): boolean
        + setAnalyseTypes(): boolean
        + displayAnalyzedData(): void
        + export(): boolean
        + analyseData(): boolean
    }

    abstract Analyse {
        - calcRelFreq(data: Util.Data): float[*][*]
        - createTimeTable(data: Util.Data): float[*][*]
    }

    class Heatmap {
        - heatmap: float[*][*]
        __public methods__
        + createHeatmap(data: Util.Data): String
        + compHeatmaps(otherHeatmap: Heatmap): String
    }

    class Verlauf {
        __public method__
        + createVerlauf(data: Util.Data): String
        __private method__
        - drawDiagramm(diagrammData: float[*][*]): String
    }

    class Diagramm {
        __public methods__
        + createRelFreqImgArea(data: Util.Data): String
        + createViewTimeDistr(data: Util.Data): String
        __private methods__
        - calcViewTimeDistr(): float[4]
        - drawDiagramm(diagrammData: float[4], type: int): String
    }

    enum AnalyseType {
        HEATMAP
        COMPHEATMAP
        VERLAUF
        RELFRQIMGAREA
        VIEWTIMEDISTR
    }

    class ClientGUI {
        - client: Client
        __public method__
        + showClientGUI(): void
    }

    Analyse <|-u- Heatmap
    Analyse <|-u- Verlauf
    Analyse <|-u- Diagramm

    Client -d-> Heatmap
    Client -d-> Verlauf
    Client -d-> Diagramm
    Client -l- AnalyseType
    Client <-r- ClientGUI : < graphische Benutzeroberfläche

}

package SpeicherMedium {}

package Util {

    enum ToolType {
        ZOOM
        EYETRACKING
        CODECHARTS
    }

    class Data<t: ToolType> {
        + t: ToolType
        + data: unknown
        + config_id: int
    }

    Data -l- ToolType
}

() System #DA70D5

Client -u- System: > save to
Client -u- SpeicherMedium : < gets Data
@enduml

PlantUML version 1.2021.14beta4(Unknown compile time)
(GPL source distribution)
Java Runtime: Java(TM) SE Runtime Environment
JVM: Java HotSpot(TM) 64-Bit Server VM
Default Encoding: UTF-8
Language: en
Country: US
--></g></svg>