<?xml version="1.0" encoding="UTF-8" standalone="no"?><svg xmlns="http://www.w3.org/2000/svg" xmlns:xlink="http://www.w3.org/1999/xlink" contentScriptType="application/ecmascript" contentStyleType="text/css" height="771px" preserveAspectRatio="none" style="width:1208px;height:771px;background:#FFFFFF;" version="1.1" viewBox="0 0 1208 771" width="1208px" zoomAndPan="magnify"><defs><filter height="300%" id="fhufup9k8238u" width="300%" x="-1" y="-1"><feGaussianBlur result="blurOut" stdDeviation="2.0"/><feColorMatrix in="blurOut" result="blurOut2" type="matrix" values="0 0 0 0 0 0 0 0 0 0 0 0 0 0 0 0 0 0 .4 0"/><feOffset dx="4.0" dy="4.0" in="blurOut2" result="blurOut3"/><feBlend in="SourceGraphic" in2="blurOut3" mode="normal"/></filter></defs><g><!--MD5=[275afd699dfec56c5bd304e04a3d58a6]
cluster Analyse-Client--><polygon fill="#FFFFFF" filter="url(#fhufup9k8238u)" points="16,199,138,199,145,221.2969,1120,221.2969,1120,764,16,764,16,199" style="stroke:#000000;stroke-width:1.5;"/><line style="stroke:#000000;stroke-width:1.5;" x1="16" x2="145" y1="221.2969" y2="221.2969"/><text fill="#000000" font-family="sans-serif" font-size="14" font-weight="bold" lengthAdjust="spacing" textLength="116" x="20" y="213.9951">Analyse-Client</text><!--MD5=[1b38ea10d22dc872989d8406931a1632]
cluster DataStructure--><polygon fill="#FFFFFF" filter="url(#fhufup9k8238u)" points="541,6,664,6,671,28.2969,828,28.2969,828,150,541,150,541,6" style="stroke:#000000;stroke-width:1.5;"/><line style="stroke:#000000;stroke-width:1.5;" x1="541" x2="671" y1="28.2969" y2="28.2969"/><text fill="#000000" font-family="sans-serif" font-size="14" font-weight="bold" lengthAdjust="spacing" textLength="117" x="545" y="20.9951">DataStructure</text><!--MD5=[ed6624c6556d5e7b1bd23032162d20b7]
class Client--><rect codeLine="5" fill="#FEFECE" filter="url(#fhufup9k8238u)" height="172.0469" id="Client" style="stroke:#A80036;stroke-width:1.5;" width="378" x="322" y="238"/><ellipse cx="490.25" cy="254" fill="#ADD1B2" rx="11" ry="11" style="stroke:#A80036;stroke-width:1.0;"/><path d="M492.5938,249.6719 C491.6563,249.2344 491.0625,249.0938 490.1875,249.0938 C487.5625,249.0938 485.5625,251.1719 485.5625,253.8906 L485.5625,255.0156 C485.5625,257.5938 487.6719,259.4844 490.5625,259.4844 C491.7813,259.4844 492.9375,259.1875 493.6875,258.6406 C494.2656,258.2344 494.5938,257.7813 494.5938,257.3906 C494.5938,256.9375 494.2031,256.5469 493.7344,256.5469 C493.5156,256.5469 493.3125,256.625 493.125,256.8125 C492.6719,257.2969 492.6719,257.2969 492.4844,257.3906 C492.0625,257.6563 491.375,257.7813 490.6094,257.7813 C488.5625,257.7813 487.2656,256.6875 487.2656,254.9844 L487.2656,253.8906 C487.2656,252.1094 488.5156,250.7969 490.25,250.7969 C490.8281,250.7969 491.4375,250.9531 491.9063,251.2031 C492.3906,251.4844 492.5625,251.7031 492.6563,252.1094 C492.7188,252.5156 492.75,252.6406 492.8906,252.7656 C493.0313,252.9063 493.2656,253.0156 493.4844,253.0156 C493.75,253.0156 494.0156,252.875 494.1875,252.6563 C494.2969,252.5 494.3281,252.3125 494.3281,251.8906 L494.3281,250.4688 C494.3281,250.0313 494.3125,249.9063 494.2188,249.75 C494.0625,249.4844 493.7813,249.3438 493.4844,249.3438 C493.1875,249.3438 492.9844,249.4375 492.7656,249.75 L492.5938,249.6719 Z " fill="#000000"/><text fill="#000000" font-family="sans-serif" font-size="12" lengthAdjust="spacing" textLength="33" x="510.75" y="258.1543">Client</text><line style="stroke:#A80036;stroke-width:1.5;" x1="323" x2="699" y1="270" y2="270"/><rect fill="none" height="6" style="stroke:#C82930;stroke-width:1.0;" width="6" x="330" y="278"/><text fill="#000000" font-family="sans-serif" font-size="11" lengthAdjust="spacing" textLength="59" x="342" y="284.2104">data: Data</text><rect fill="none" height="6" style="stroke:#C82930;stroke-width:1.0;" width="6" x="330" y="290.8047"/><text fill="#000000" font-family="sans-serif" font-size="11" lengthAdjust="spacing" textLength="109" x="342" y="297.0151">dataForComp: Data</text><rect fill="none" height="6" style="stroke:#C82930;stroke-width:1.0;" width="6" x="330" y="303.6094"/><text fill="#000000" font-family="sans-serif" font-size="11" lengthAdjust="spacing" textLength="199" x="342" y="309.8198">analyseTypes: List&lt;AnalyseType&gt;</text><rect fill="none" height="6" style="stroke:#C82930;stroke-width:1.0;" width="6" x="330" y="316.4141"/><text fill="#000000" font-family="sans-serif" font-size="11" lengthAdjust="spacing" textLength="157" x="342" y="322.6245">analyzedData: List&lt;String&gt;</text><ellipse cx="333" cy="349.0234" fill="#84BE84" rx="3" ry="3" style="stroke:#038048;stroke-width:1.0;"/><text fill="#000000" font-family="sans-serif" font-size="11" lengthAdjust="spacing" textLength="352" x="342" y="352.2339">getData(start: Date, end: Date, dataType: ToolType): boolean</text><ellipse cx="333" cy="361.8281" fill="#84BE84" rx="3" ry="3" style="stroke:#038048;stroke-width:1.0;"/><text fill="#000000" font-family="sans-serif" font-size="11" lengthAdjust="spacing" textLength="160" x="342" y="365.0386">setAnalyseTypes(): boolean</text><ellipse cx="333" cy="374.6328" fill="#84BE84" rx="3" ry="3" style="stroke:#038048;stroke-width:1.0;"/><text fill="#000000" font-family="sans-serif" font-size="11" lengthAdjust="spacing" textLength="160" x="342" y="377.8433">displayAnalyzedData(): void</text><ellipse cx="333" cy="387.4375" fill="#84BE84" rx="3" ry="3" style="stroke:#038048;stroke-width:1.0;"/><text fill="#000000" font-family="sans-serif" font-size="11" lengthAdjust="spacing" textLength="98" x="342" y="390.6479">export(): boolean</text><ellipse cx="333" cy="400.2422" fill="#84BE84" rx="3" ry="3" style="stroke:#038048;stroke-width:1.0;"/><text fill="#000000" font-family="sans-serif" font-size="11" lengthAdjust="spacing" textLength="133" x="342" y="403.4526">analyseData(): boolean</text><line style="stroke:#A80036;stroke-width:1.5;" x1="323" x2="467.5" y1="335.6211" y2="335.6211"/><text fill="#000000" font-family="sans-serif" font-size="11" lengthAdjust="spacing" textLength="87" x="467.5" y="338.9292">public methods</text><line style="stroke:#A80036;stroke-width:1.5;" x1="554.5" x2="699" y1="335.6211" y2="335.6211"/><!--MD5=[90fa35dfc7d13cf977fc160ba1111d24]
class Analyse--><rect codeLine="19" fill="#FEFECE" filter="url(#fhufup9k8238u)" height="73.6094" id="Analyse" style="stroke:#A80036;stroke-width:1.5;" width="299" x="439.5" y="674"/><ellipse cx="561.75" cy="690" fill="#A9DCDF" rx="11" ry="11" style="stroke:#A80036;stroke-width:1.0;"/><path d="M563.8281,691.8125 L564.2188,692.7969 L563.8281,692.7969 C563.375,692.7969 563.2656,692.8125 563.1094,692.9219 C562.8594,693.0781 562.7031,693.3594 562.7031,693.6563 C562.7031,693.9219 562.8438,694.1719 563.0625,694.3281 C563.2031,694.4531 563.4063,694.5 563.8281,694.5 L566.1875,694.5 C566.5469,694.5 566.7656,694.4688 566.9063,694.375 C567.1563,694.2344 567.3125,693.9375 567.3125,693.6563 C567.3125,693.375 567.1719,693.125 566.9531,692.9688 C566.7813,692.8281 566.625,692.7969 566.1563,692.7969 L562.7656,684.5938 L559.0938,684.5938 C558.6406,684.5938 558.5156,684.6094 558.3594,684.7031 C558.1094,684.875 557.9531,685.1563 557.9531,685.4375 C557.9531,685.7188 558.0938,685.9688 558.3125,686.1406 C558.4844,686.25 558.6563,686.2813 559.0938,686.2813 L560.1719,686.2813 L557.5313,692.7969 C557.1094,692.7969 556.9531,692.8125 556.7969,692.9219 C556.5469,693.0781 556.3906,693.3594 556.3906,693.6563 C556.3906,694.2188 556.7656,694.5 557.5156,694.5 L559.7813,694.5 C560.1406,694.5 560.3594,694.4688 560.4844,694.375 C560.75,694.2344 560.8906,693.9375 560.8906,693.6563 C560.8906,693.375 560.7656,693.125 560.5469,692.9531 C560.375,692.8281 560.2344,692.7969 559.7813,692.7969 L559.3906,692.7969 L559.7813,691.8125 L563.8281,691.8125 Z M563.125,690.1094 L560.4531,690.1094 L561.7969,686.8438 L563.125,690.1094 Z " fill="#000000"/><text fill="#000000" font-family="sans-serif" font-size="12" font-style="italic" lengthAdjust="spacing" textLength="46" x="582.25" y="694.1543">Analyse</text><line style="stroke:#A80036;stroke-width:1.5;" x1="440.5" x2="737.5" y1="706" y2="706"/><line style="stroke:#A80036;stroke-width:1.5;" x1="440.5" x2="737.5" y1="714" y2="714"/><rect fill="#F24D5C" height="6" style="stroke:#C82930;stroke-width:1.0;" width="6" x="447.5" y="722"/><text fill="#000000" font-family="sans-serif" font-size="11" lengthAdjust="spacing" textLength="240" x="459.5" y="728.2104">calcRelFreq(data: Data): List&lt;List&lt;Float&gt;&gt;</text><rect fill="#F24D5C" height="6" style="stroke:#C82930;stroke-width:1.0;" width="6" x="447.5" y="734.8047"/><text fill="#000000" font-family="sans-serif" font-size="11" lengthAdjust="spacing" textLength="273" x="459.5" y="741.0151">createTimeTable(data: Data): List&lt;List&lt;Float&gt;&gt;</text><!--MD5=[3f91f8027f14bf24ffa62a72d32476ac]
class Heatmap--><rect codeLine="25" fill="#FEFECE" filter="url(#fhufup9k8238u)" height="95.2188" id="Heatmap" style="stroke:#A80036;stroke-width:1.5;" width="304" x="800" y="503"/><ellipse cx="920.75" cy="519" fill="#ADD1B2" rx="11" ry="11" style="stroke:#A80036;stroke-width:1.0;"/><path d="M923.0938,514.6719 C922.1563,514.2344 921.5625,514.0938 920.6875,514.0938 C918.0625,514.0938 916.0625,516.1719 916.0625,518.8906 L916.0625,520.0156 C916.0625,522.5938 918.1719,524.4844 921.0625,524.4844 C922.2813,524.4844 923.4375,524.1875 924.1875,523.6406 C924.7656,523.2344 925.0938,522.7813 925.0938,522.3906 C925.0938,521.9375 924.7031,521.5469 924.2344,521.5469 C924.0156,521.5469 923.8125,521.625 923.625,521.8125 C923.1719,522.2969 923.1719,522.2969 922.9844,522.3906 C922.5625,522.6563 921.875,522.7813 921.1094,522.7813 C919.0625,522.7813 917.7656,521.6875 917.7656,519.9844 L917.7656,518.8906 C917.7656,517.1094 919.0156,515.7969 920.75,515.7969 C921.3281,515.7969 921.9375,515.9531 922.4063,516.2031 C922.8906,516.4844 923.0625,516.7031 923.1563,517.1094 C923.2188,517.5156 923.25,517.6406 923.3906,517.7656 C923.5313,517.9063 923.7656,518.0156 923.9844,518.0156 C924.25,518.0156 924.5156,517.875 924.6875,517.6563 C924.7969,517.5 924.8281,517.3125 924.8281,516.8906 L924.8281,515.4688 C924.8281,515.0313 924.8125,514.9063 924.7188,514.75 C924.5625,514.4844 924.2813,514.3438 923.9844,514.3438 C923.6875,514.3438 923.4844,514.4375 923.2656,514.75 L923.0938,514.6719 Z " fill="#000000"/><text fill="#000000" font-family="sans-serif" font-size="12" lengthAdjust="spacing" textLength="54" x="941.25" y="523.1543">Heatmap</text><line style="stroke:#A80036;stroke-width:1.5;" x1="801" x2="1103" y1="535" y2="535"/><rect fill="none" height="6" style="stroke:#C82930;stroke-width:1.0;" width="6" x="808" y="543"/><text fill="#000000" font-family="sans-serif" font-size="11" lengthAdjust="spacing" textLength="159" x="820" y="549.2104">heatmap: List&lt;List&lt;Float&gt;&gt;</text><ellipse cx="811" cy="575.6094" fill="#84BE84" rx="3" ry="3" style="stroke:#038048;stroke-width:1.0;"/><text fill="#000000" font-family="sans-serif" font-size="11" lengthAdjust="spacing" textLength="196" x="820" y="578.8198">createHeatmap(data: Data): String</text><ellipse cx="811" cy="588.4141" fill="#84BE84" rx="3" ry="3" style="stroke:#038048;stroke-width:1.0;"/><text fill="#000000" font-family="sans-serif" font-size="11" lengthAdjust="spacing" textLength="278" x="820" y="591.6245">compHeatmaps(otherHeatmap: Heatmap): String</text><line style="stroke:#A80036;stroke-width:1.5;" x1="801" x2="908.5" y1="562.207" y2="562.207"/><text fill="#000000" font-family="sans-serif" font-size="11" lengthAdjust="spacing" textLength="87" x="908.5" y="565.5151">public methods</text><line style="stroke:#A80036;stroke-width:1.5;" x1="995.5" x2="1103" y1="562.207" y2="562.207"/><!--MD5=[a75dc2f5d5c9a4a0489ea15a737b99a8]
class Verlauf--><rect codeLine="33" fill="#FEFECE" filter="url(#fhufup9k8238u)" height="99.2188" id="Verlauf" style="stroke:#A80036;stroke-width:1.5;" width="352" x="413" y="501"/><ellipse cx="563.75" cy="517" fill="#ADD1B2" rx="11" ry="11" style="stroke:#A80036;stroke-width:1.0;"/><path d="M566.0938,512.6719 C565.1563,512.2344 564.5625,512.0938 563.6875,512.0938 C561.0625,512.0938 559.0625,514.1719 559.0625,516.8906 L559.0625,518.0156 C559.0625,520.5938 561.1719,522.4844 564.0625,522.4844 C565.2813,522.4844 566.4375,522.1875 567.1875,521.6406 C567.7656,521.2344 568.0938,520.7813 568.0938,520.3906 C568.0938,519.9375 567.7031,519.5469 567.2344,519.5469 C567.0156,519.5469 566.8125,519.625 566.625,519.8125 C566.1719,520.2969 566.1719,520.2969 565.9844,520.3906 C565.5625,520.6563 564.875,520.7813 564.1094,520.7813 C562.0625,520.7813 560.7656,519.6875 560.7656,517.9844 L560.7656,516.8906 C560.7656,515.1094 562.0156,513.7969 563.75,513.7969 C564.3281,513.7969 564.9375,513.9531 565.4063,514.2031 C565.8906,514.4844 566.0625,514.7031 566.1563,515.1094 C566.2188,515.5156 566.25,515.6406 566.3906,515.7656 C566.5313,515.9063 566.7656,516.0156 566.9844,516.0156 C567.25,516.0156 567.5156,515.875 567.6875,515.6563 C567.7969,515.5 567.8281,515.3125 567.8281,514.8906 L567.8281,513.4688 C567.8281,513.0313 567.8125,512.9063 567.7188,512.75 C567.5625,512.4844 567.2813,512.3438 566.9844,512.3438 C566.6875,512.3438 566.4844,512.4375 566.2656,512.75 L566.0938,512.6719 Z " fill="#000000"/><text fill="#000000" font-family="sans-serif" font-size="12" lengthAdjust="spacing" textLength="42" x="584.25" y="521.1543">Verlauf</text><line style="stroke:#A80036;stroke-width:1.5;" x1="414" x2="764" y1="533" y2="533"/><ellipse cx="424" cy="560.8047" fill="#84BE84" rx="3" ry="3" style="stroke:#038048;stroke-width:1.0;"/><text fill="#000000" font-family="sans-serif" font-size="11" lengthAdjust="spacing" textLength="185" x="433" y="564.0151">createVerlauf(data: Data): String</text><line style="stroke:#A80036;stroke-width:1.5;" x1="414" x2="548.5" y1="547.4023" y2="547.4023"/><text fill="#000000" font-family="sans-serif" font-size="11" lengthAdjust="spacing" textLength="81" x="548.5" y="550.7104">public method</text><line style="stroke:#A80036;stroke-width:1.5;" x1="629.5" x2="764" y1="547.4023" y2="547.4023"/><rect fill="#F24D5C" height="6" style="stroke:#C82930;stroke-width:1.0;" width="6" x="421" y="587.4141"/><text fill="#000000" font-family="sans-serif" font-size="11" lengthAdjust="spacing" textLength="326" x="433" y="593.6245">drawDiagramm(diagrammData: List&lt;List&lt;Float&gt;&gt;): String</text><line style="stroke:#A80036;stroke-width:1.5;" x1="414" x2="545" y1="577.0117" y2="577.0117"/><text fill="#000000" font-family="sans-serif" font-size="11" lengthAdjust="spacing" textLength="88" x="545" y="580.3198">private method</text><line style="stroke:#A80036;stroke-width:1.5;" x1="633" x2="764" y1="577.0117" y2="577.0117"/><!--MD5=[33dbb5cd9b1593568d30e59c5983c72e]
class Diagramm--><rect codeLine="41" fill="#FEFECE" filter="url(#fhufup9k8238u)" height="124.8281" id="Diagramm" style="stroke:#A80036;stroke-width:1.5;" width="345" x="32.5" y="488"/><ellipse cx="170.25" cy="504" fill="#ADD1B2" rx="11" ry="11" style="stroke:#A80036;stroke-width:1.0;"/><path d="M172.5938,499.6719 C171.6563,499.2344 171.0625,499.0938 170.1875,499.0938 C167.5625,499.0938 165.5625,501.1719 165.5625,503.8906 L165.5625,505.0156 C165.5625,507.5938 167.6719,509.4844 170.5625,509.4844 C171.7813,509.4844 172.9375,509.1875 173.6875,508.6406 C174.2656,508.2344 174.5938,507.7813 174.5938,507.3906 C174.5938,506.9375 174.2031,506.5469 173.7344,506.5469 C173.5156,506.5469 173.3125,506.625 173.125,506.8125 C172.6719,507.2969 172.6719,507.2969 172.4844,507.3906 C172.0625,507.6563 171.375,507.7813 170.6094,507.7813 C168.5625,507.7813 167.2656,506.6875 167.2656,504.9844 L167.2656,503.8906 C167.2656,502.1094 168.5156,500.7969 170.25,500.7969 C170.8281,500.7969 171.4375,500.9531 171.9063,501.2031 C172.3906,501.4844 172.5625,501.7031 172.6563,502.1094 C172.7188,502.5156 172.75,502.6406 172.8906,502.7656 C173.0313,502.9063 173.2656,503.0156 173.4844,503.0156 C173.75,503.0156 174.0156,502.875 174.1875,502.6563 C174.2969,502.5 174.3281,502.3125 174.3281,501.8906 L174.3281,500.4688 C174.3281,500.0313 174.3125,499.9063 174.2188,499.75 C174.0625,499.4844 173.7813,499.3438 173.4844,499.3438 C173.1875,499.3438 172.9844,499.4375 172.7656,499.75 L172.5938,499.6719 Z " fill="#000000"/><text fill="#000000" font-family="sans-serif" font-size="12" lengthAdjust="spacing" textLength="61" x="190.75" y="508.1543">Diagramm</text><line style="stroke:#A80036;stroke-width:1.5;" x1="33.5" x2="376.5" y1="520" y2="520"/><ellipse cx="43.5" cy="547.8047" fill="#84BE84" rx="3" ry="3" style="stroke:#038048;stroke-width:1.0;"/><text fill="#000000" font-family="sans-serif" font-size="11" lengthAdjust="spacing" textLength="235" x="52.5" y="551.0151">createRelFreqImgArea(data: Data): String</text><ellipse cx="43.5" cy="560.6094" fill="#84BE84" rx="3" ry="3" style="stroke:#038048;stroke-width:1.0;"/><text fill="#000000" font-family="sans-serif" font-size="11" lengthAdjust="spacing" textLength="227" x="52.5" y="563.8198">createViewTimeDistr(data: Data): String</text><line style="stroke:#A80036;stroke-width:1.5;" x1="33.5" x2="161.5" y1="534.4023" y2="534.4023"/><text fill="#000000" font-family="sans-serif" font-size="11" lengthAdjust="spacing" textLength="87" x="161.5" y="537.7104">public methods</text><line style="stroke:#A80036;stroke-width:1.5;" x1="248.5" x2="376.5" y1="534.4023" y2="534.4023"/><rect fill="#F24D5C" height="6" style="stroke:#C82930;stroke-width:1.0;" width="6" x="40.5" y="587.2188"/><text fill="#000000" font-family="sans-serif" font-size="11" lengthAdjust="spacing" textLength="160" x="52.5" y="593.4292">calcViewTimeDistr(): float[4]</text><rect fill="#F24D5C" height="6" style="stroke:#C82930;stroke-width:1.0;" width="6" x="40.5" y="600.0234"/><text fill="#000000" font-family="sans-serif" font-size="11" lengthAdjust="spacing" textLength="319" x="52.5" y="606.2339">drawDiagramm(diagrammData: float[4], type: int): String</text><line style="stroke:#A80036;stroke-width:1.5;" x1="33.5" x2="158" y1="576.8164" y2="576.8164"/><text fill="#000000" font-family="sans-serif" font-size="11" lengthAdjust="spacing" textLength="94" x="158" y="580.1245">private methods</text><line style="stroke:#A80036;stroke-width:1.5;" x1="252" x2="376.5" y1="576.8164" y2="576.8164"/><!--MD5=[187bd564dfbdf57eb75091cc1a4a8baa]
class AnalyseType--><rect codeLine="51" fill="#FEFECE" filter="url(#fhufup9k8238u)" height="112.0234" id="AnalyseType" style="stroke:#A80036;stroke-width:1.5;" width="109" x="169.5" y="266.5"/><ellipse cx="184.5" cy="282.5" fill="#EB937F" rx="11" ry="11" style="stroke:#A80036;stroke-width:1.0;"/><path d="M183.2969,283.375 L184.75,283.375 L184.75,283.4844 C184.75,283.8906 184.7813,284.0469 184.8594,284.2031 C185.0156,284.4531 185.2969,284.6094 185.5938,284.6094 C185.8438,284.6094 186.1094,284.4688 186.2656,284.25 C186.3906,284.0938 186.4219,283.9375 186.4219,283.4844 L186.4219,281.5625 C186.4219,281.4063 186.4219,281.3594 186.4063,281.2031 C186.3438,280.7344 186.0313,280.4219 185.5781,280.4219 C185.3281,280.4219 185.0625,280.5625 184.8906,280.7813 C184.7813,280.9531 184.75,281.1094 184.75,281.5625 L184.75,281.6875 L183.2969,281.6875 L183.2969,279.2813 L187.2813,279.2813 L187.2813,280.1406 C187.2813,280.5469 187.3125,280.7188 187.3906,280.875 C187.5625,281.125 187.8438,281.2813 188.125,281.2813 C188.3906,281.2813 188.6563,281.1406 188.8281,280.9219 C188.9375,280.75 188.9688,280.6094 188.9688,280.1406 L188.9688,277.5938 L181.3438,277.5938 C180.9063,277.5938 180.7813,277.6094 180.625,277.7031 C180.375,277.8594 180.2188,278.1563 180.2188,278.4375 C180.2188,278.7188 180.3594,278.9688 180.5781,279.1406 C180.7344,279.25 180.9219,279.2813 181.3438,279.2813 L181.5938,279.2813 L181.5938,285.7969 L181.3438,285.7969 C180.9375,285.7969 180.7813,285.8125 180.625,285.9219 C180.375,286.0938 180.2188,286.3594 180.2188,286.6563 C180.2188,286.9219 180.3594,287.1719 180.5781,287.3281 C180.7188,287.4531 180.9531,287.5 181.3438,287.5 L189.3438,287.5 L189.3438,284.9219 C189.3438,284.4844 189.3125,284.3438 189.2344,284.1875 C189.0625,283.9375 188.7813,283.7813 188.5,283.7813 C188.2344,283.7813 187.9688,283.8906 187.7969,284.1406 C187.6875,284.2969 187.6563,284.4375 187.6563,284.9219 L187.6563,285.7969 L183.2969,285.7969 L183.2969,283.375 Z " fill="#000000"/><text fill="#000000" font-family="sans-serif" font-size="12" lengthAdjust="spacing" textLength="77" x="198.5" y="286.6543">AnalyseType</text><line style="stroke:#A80036;stroke-width:1.5;" x1="170.5" x2="277.5" y1="298.5" y2="298.5"/><text fill="#000000" font-family="sans-serif" font-size="11" lengthAdjust="spacing" textLength="53" x="175.5" y="312.7104">HEATMAP</text><text fill="#000000" font-family="sans-serif" font-size="11" lengthAdjust="spacing" textLength="85" x="175.5" y="325.5151">COMPHEATMAP</text><text fill="#000000" font-family="sans-serif" font-size="11" lengthAdjust="spacing" textLength="50" x="175.5" y="338.3198">VERLAUF</text><text fill="#000000" font-family="sans-serif" font-size="11" lengthAdjust="spacing" textLength="93" x="175.5" y="351.1245">RELFRQIMGAREA</text><text fill="#000000" font-family="sans-serif" font-size="11" lengthAdjust="spacing" textLength="89" x="175.5" y="363.9292">VIEWTIMEDISTR</text><line style="stroke:#A80036;stroke-width:1.5;" x1="170.5" x2="277.5" y1="370.5234" y2="370.5234"/><!--MD5=[3079cd578e216c696855c75c2998d445]
class ClientGUI--><rect codeLine="60" fill="#FEFECE" filter="url(#fhufup9k8238u)" height="82.4141" id="ClientGUI" style="stroke:#A80036;stroke-width:1.5;" width="147" x="956.5" y="281.5"/><ellipse cx="998.95" cy="297.5" fill="#ADD1B2" rx="11" ry="11" style="stroke:#A80036;stroke-width:1.0;"/><path d="M1001.2938,293.1719 C1000.3563,292.7344 999.7625,292.5938 998.8875,292.5938 C996.2625,292.5938 994.2625,294.6719 994.2625,297.3906 L994.2625,298.5156 C994.2625,301.0938 996.3719,302.9844 999.2625,302.9844 C1000.4813,302.9844 1001.6375,302.6875 1002.3875,302.1406 C1002.9656,301.7344 1003.2938,301.2813 1003.2938,300.8906 C1003.2938,300.4375 1002.9031,300.0469 1002.4344,300.0469 C1002.2156,300.0469 1002.0125,300.125 1001.825,300.3125 C1001.3719,300.7969 1001.3719,300.7969 1001.1844,300.8906 C1000.7625,301.1563 1000.075,301.2813 999.3094,301.2813 C997.2625,301.2813 995.9656,300.1875 995.9656,298.4844 L995.9656,297.3906 C995.9656,295.6094 997.2156,294.2969 998.95,294.2969 C999.5281,294.2969 1000.1375,294.4531 1000.6063,294.7031 C1001.0906,294.9844 1001.2625,295.2031 1001.3563,295.6094 C1001.4188,296.0156 1001.45,296.1406 1001.5906,296.2656 C1001.7313,296.4063 1001.9656,296.5156 1002.1844,296.5156 C1002.45,296.5156 1002.7156,296.375 1002.8875,296.1563 C1002.9969,296 1003.0281,295.8125 1003.0281,295.3906 L1003.0281,293.9688 C1003.0281,293.5313 1003.0125,293.4063 1002.9188,293.25 C1002.7625,292.9844 1002.4813,292.8438 1002.1844,292.8438 C1001.8875,292.8438 1001.6844,292.9375 1001.4656,293.25 L1001.2938,293.1719 Z " fill="#000000"/><text fill="#000000" font-family="sans-serif" font-size="12" lengthAdjust="spacing" textLength="54" x="1019.05" y="301.6543">ClientGUI</text><line style="stroke:#A80036;stroke-width:1.5;" x1="957.5" x2="1102.5" y1="313.5" y2="313.5"/><rect fill="none" height="6" style="stroke:#C82930;stroke-width:1.0;" width="6" x="964.5" y="321.5"/><text fill="#000000" font-family="sans-serif" font-size="11" lengthAdjust="spacing" textLength="71" x="976.5" y="327.7104">client: Client</text><ellipse cx="967.5" cy="354.1094" fill="#84BE84" rx="3" ry="3" style="stroke:#038048;stroke-width:1.0;"/><text fill="#000000" font-family="sans-serif" font-size="11" lengthAdjust="spacing" textLength="121" x="976.5" y="357.3198">showClientGUI(): void</text><line style="stroke:#A80036;stroke-width:1.5;" x1="957.5" x2="989.5" y1="340.707" y2="340.707"/><text fill="#000000" font-family="sans-serif" font-size="11" lengthAdjust="spacing" textLength="81" x="989.5" y="344.0151">public method</text><line style="stroke:#A80036;stroke-width:1.5;" x1="1070.5" x2="1102.5" y1="340.707" y2="340.707"/><polygon fill="#FFFFFF" filter="url(#fhufup9k8238u)" points="370,61,508,61,515,83.2969,522,83.2969,522,113.5938,370,113.5938,370,61" style="stroke:#000000;stroke-width:1.5;"/><line style="stroke:#000000;stroke-width:1.5;" x1="370" x2="515" y1="83.2969" y2="83.2969"/><text fill="#000000" font-family="sans-serif" font-size="14" font-weight="bold" lengthAdjust="spacing" textLength="132" x="374" y="75.9951">SpeicherMedium</text><!--MD5=[5c39798b83ace9e75333b1274a725e6c]
class ToolType--><rect codeLine="86" fill="#FEFECE" filter="url(#fhufup9k8238u)" height="86.4141" id="ToolType" style="stroke:#A80036;stroke-width:1.5;" width="91" x="557.5" y="44.5"/><ellipse cx="573.85" cy="60.5" fill="#EB937F" rx="11" ry="11" style="stroke:#A80036;stroke-width:1.0;"/><path d="M572.6469,61.375 L574.1,61.375 L574.1,61.4844 C574.1,61.8906 574.1313,62.0469 574.2094,62.2031 C574.3656,62.4531 574.6469,62.6094 574.9438,62.6094 C575.1938,62.6094 575.4594,62.4688 575.6156,62.25 C575.7406,62.0938 575.7719,61.9375 575.7719,61.4844 L575.7719,59.5625 C575.7719,59.4063 575.7719,59.3594 575.7563,59.2031 C575.6938,58.7344 575.3813,58.4219 574.9281,58.4219 C574.6781,58.4219 574.4125,58.5625 574.2406,58.7813 C574.1313,58.9531 574.1,59.1094 574.1,59.5625 L574.1,59.6875 L572.6469,59.6875 L572.6469,57.2813 L576.6313,57.2813 L576.6313,58.1406 C576.6313,58.5469 576.6625,58.7188 576.7406,58.875 C576.9125,59.125 577.1938,59.2813 577.475,59.2813 C577.7406,59.2813 578.0063,59.1406 578.1781,58.9219 C578.2875,58.75 578.3188,58.6094 578.3188,58.1406 L578.3188,55.5938 L570.6938,55.5938 C570.2563,55.5938 570.1313,55.6094 569.975,55.7031 C569.725,55.8594 569.5688,56.1563 569.5688,56.4375 C569.5688,56.7188 569.7094,56.9688 569.9281,57.1406 C570.0844,57.25 570.2719,57.2813 570.6938,57.2813 L570.9438,57.2813 L570.9438,63.7969 L570.6938,63.7969 C570.2875,63.7969 570.1313,63.8125 569.975,63.9219 C569.725,64.0938 569.5688,64.3594 569.5688,64.6563 C569.5688,64.9219 569.7094,65.1719 569.9281,65.3281 C570.0688,65.4531 570.3031,65.5 570.6938,65.5 L578.6938,65.5 L578.6938,62.9219 C578.6938,62.4844 578.6625,62.3438 578.5844,62.1875 C578.4125,61.9375 578.1313,61.7813 577.85,61.7813 C577.5844,61.7813 577.3188,61.8906 577.1469,62.1406 C577.0375,62.2969 577.0063,62.4375 577.0063,62.9219 L577.0063,63.7969 L572.6469,63.7969 L572.6469,61.375 Z " fill="#000000"/><text fill="#000000" font-family="sans-serif" font-size="12" lengthAdjust="spacing" textLength="56" x="588.15" y="64.6543">ToolType</text><line style="stroke:#A80036;stroke-width:1.5;" x1="558.5" x2="647.5" y1="76.5" y2="76.5"/><text fill="#000000" font-family="sans-serif" font-size="11" lengthAdjust="spacing" textLength="66" x="563.5" y="90.7104">ZOOMMAPS</text><text fill="#000000" font-family="sans-serif" font-size="11" lengthAdjust="spacing" textLength="78" x="563.5" y="103.5151">EYETRACKING</text><text fill="#000000" font-family="sans-serif" font-size="11" lengthAdjust="spacing" textLength="79" x="563.5" y="116.3198">CODECHARTS</text><line style="stroke:#A80036;stroke-width:1.5;" x1="558.5" x2="647.5" y1="122.9141" y2="122.9141"/><!--MD5=[60c9ed31c535bee25c55ce21b5b01399]
class Data--><rect codeLine="93" fill="#FEFECE" filter="url(#fhufup9k8238u)" height="86.4141" id="Data" style="stroke:#A80036;stroke-width:1.5;" width="112" x="692" y="45"/><ellipse cx="730.85" cy="61" fill="#ADD1B2" rx="11" ry="11" style="stroke:#A80036;stroke-width:1.0;"/><path d="M733.1938,56.6719 C732.2563,56.2344 731.6625,56.0938 730.7875,56.0938 C728.1625,56.0938 726.1625,58.1719 726.1625,60.8906 L726.1625,62.0156 C726.1625,64.5938 728.2719,66.4844 731.1625,66.4844 C732.3813,66.4844 733.5375,66.1875 734.2875,65.6406 C734.8656,65.2344 735.1938,64.7813 735.1938,64.3906 C735.1938,63.9375 734.8031,63.5469 734.3344,63.5469 C734.1156,63.5469 733.9125,63.625 733.725,63.8125 C733.2719,64.2969 733.2719,64.2969 733.0844,64.3906 C732.6625,64.6563 731.975,64.7813 731.2094,64.7813 C729.1625,64.7813 727.8656,63.6875 727.8656,61.9844 L727.8656,60.8906 C727.8656,59.1094 729.1156,57.7969 730.85,57.7969 C731.4281,57.7969 732.0375,57.9531 732.5063,58.2031 C732.9906,58.4844 733.1625,58.7031 733.2563,59.1094 C733.3188,59.5156 733.35,59.6406 733.4906,59.7656 C733.6313,59.9063 733.8656,60.0156 734.0844,60.0156 C734.35,60.0156 734.6156,59.875 734.7875,59.6563 C734.8969,59.5 734.9281,59.3125 734.9281,58.8906 L734.9281,57.4688 C734.9281,57.0313 734.9125,56.9063 734.8188,56.75 C734.6625,56.4844 734.3813,56.3438 734.0844,56.3438 C733.7875,56.3438 733.5844,56.4375 733.3656,56.75 L733.1938,56.6719 Z " fill="#000000"/><text fill="#000000" font-family="sans-serif" font-size="12" lengthAdjust="spacing" textLength="27" x="750.15" y="65.1543">Data</text><line style="stroke:#A80036;stroke-width:1.5;" x1="693" x2="803" y1="77" y2="77"/><ellipse cx="703" cy="88" rx="3" ry="3" style="stroke:#038048;stroke-width:1.0;fill:none;"/><text fill="#000000" font-family="sans-serif" font-size="11" lengthAdjust="spacing" textLength="86" x="712" y="91.2104">type: ToolType</text><ellipse cx="703" cy="100.8047" rx="3" ry="3" style="stroke:#038048;stroke-width:1.0;fill:none;"/><text fill="#000000" font-family="sans-serif" font-size="11" lengthAdjust="spacing" textLength="82" x="712" y="104.0151">data: unknown</text><ellipse cx="703" cy="113.6094" rx="3" ry="3" style="stroke:#038048;stroke-width:1.0;fill:none;"/><text fill="#000000" font-family="sans-serif" font-size="11" lengthAdjust="spacing" textLength="71" x="712" y="116.8198">config_id: int</text><line style="stroke:#A80036;stroke-width:1.5;" x1="693" x2="803" y1="123.4141" y2="123.4141"/><!--MD5=[abea0b42432aea0f9ce66e53feda8644]
entity System--><ellipse cx="1174" cy="550.5" fill="#DA70D5" filter="url(#fhufup9k8238u)" rx="8" ry="8" style="stroke:#A80036;stroke-width:1.5;"/><text fill="#000000" font-family="sans-serif" font-size="14" lengthAdjust="spacing" textLength="54" x="1147" y="580.4951">System</text><!--MD5=[0142a10273876a6498763cbca717bc4b]
link Heatmap to Analyse--><path codeLine="67" d="M845.051,598.198 C796.017,619.608 738.197,644.855 689.92,665.934 " fill="none" id="Heatmap-to-Analyse" style="stroke:#A80036;stroke-width:1.0;"/><polygon fill="none" points="692.713,672.353,671.583,673.941,687.111,659.523,692.713,672.353" style="stroke:#A80036;stroke-width:1.0;"/><!--MD5=[49c5c3aad5e065304b1f0455c88d6c6a]
link Verlauf to Analyse--><path codeLine="68" d="M589,600.349 C589,617.226 589,636.273 589,653.699 " fill="none" id="Verlauf-to-Analyse" style="stroke:#A80036;stroke-width:1.0;"/><polygon fill="none" points="596,653.897,589,673.897,582,653.897,596,653.897" style="stroke:#A80036;stroke-width:1.0;"/><!--MD5=[eec8e75ff2920fb7be4f9035a3a6b788]
link Diagramm to Analyse--><path codeLine="69" d="M354.014,613.007 C397.05,630.771 443.123,649.788 482.97,666.235 " fill="none" id="Diagramm-to-Analyse" style="stroke:#A80036;stroke-width:1.0;"/><polygon fill="none" points="485.877,659.862,501.693,673.963,480.535,672.803,485.877,659.862" style="stroke:#A80036;stroke-width:1.0;"/><!--MD5=[458e23c55b866563aae54fc87d28c1cd]
link Client to Heatmap--><path codeLine="72" d="M681.818,411.039 C741.075,441.407 805.382,474.363 856.388,500.502 " fill="none" id="Client-to-Heatmap" style="stroke:#A80036;stroke-width:1.0;"/><polygon fill="#A80036" points="860.969,502.849,854.7861,495.1828,856.52,500.5673,851.1354,502.3012,860.969,502.849" style="stroke:#A80036;stroke-width:1.0;"/><!--MD5=[28cbb4bcdbacbdc16d11542d97316c4d]
link Client to Verlauf--><path codeLine="73" d="M541.268,411.201 C551.104,439.7 561.721,470.462 570.439,495.721 " fill="none" id="Client-to-Verlauf" style="stroke:#A80036;stroke-width:1.0;"/><polygon fill="#A80036" points="572.156,500.697,573.0001,490.8844,570.5244,495.9707,565.438,493.495,572.156,500.697" style="stroke:#A80036;stroke-width:1.0;"/><!--MD5=[5a584ab670d8f56708f0929dbbb811bb]
link Client to Diagramm--><path codeLine="74" d="M392.254,411.201 C359.134,435.662 323.756,461.791 292.77,484.676 " fill="none" id="Client-to-Diagramm" style="stroke:#A80036;stroke-width:1.0;"/><polygon fill="#A80036" points="288.624,487.739,298.2403,485.6115,292.6465,484.7693,293.4887,479.1754,288.624,487.739" style="stroke:#A80036;stroke-width:1.0;"/><!--MD5=[f1ae28e25402a7e717ad4fc29abfecff]
link AnalyseType to Client--><path codeLine="75" d="M278.653,322.5 C290.301,322.5 301.948,322.5 313.596,322.5 " fill="none" id="AnalyseType-Client" style="stroke:#A80036;stroke-width:1.0;"/><!--MD5=[d87b49e9793fa2adf9873dcf0a70cfd9]
reverse link Client to ClientGUI--><path codeLine="76" d="M713.421,322.5 C798.931,322.5 893.14,322.5 956.369,322.5 " fill="none" id="Client-backto-ClientGUI" style="stroke:#A80036;stroke-width:1.0;"/><polygon fill="#A80036" points="708.322,322.5,717.322,326.5,713.322,322.5,717.322,318.5,708.322,322.5" style="stroke:#A80036;stroke-width:1.0;"/><polygon fill="#000000" points="725.25,311.0664,734.2951,314.0053,734.2951,308.1275,725.25,311.0664" style="stroke:#000000;stroke-width:1.0;"/><text fill="#000000" font-family="sans-serif" font-size="13" lengthAdjust="spacing" textLength="199" x="739.25" y="315.5669">graphische Benutzeroberfläche</text><!--MD5=[b0bc53235038902673d53aaf3a34627f]
link ToolType to Data--><path codeLine="100" d="M648.706,87.5 C658.999,87.5 670.087,87.5 680.836,87.5 " fill="none" id="ToolType-Data" style="stroke:#A80036;stroke-width:1.0;"/><line style="stroke:#A80036;stroke-width:1.0;" x1="680.836" x2="691" y1="87.5" y2="87.5"/><!--MD5=[d8fe5df92e8fb3bc8aac22f151a507a7]
link ToolType to Client--><path codeLine="106" d="M636.788,130.562 C693.497,204.148 793.016,348.5 701,348.5 " fill="none" id="ToolType-Client" style="stroke:#A80036;stroke-width:1.0;"/><!--MD5=[b01be8bdc4fb25d848cf3e7fba7545c0]
link Client to System--><path codeLine="107" d="M701,385.5 C796.857,385.5 1038.03,438.3 1120,488 C1142.6,501.703 1160.86,527.959 1169.16,541.294 " fill="none" id="Client-System" style="stroke:#A80036;stroke-width:1.0;"/><polygon fill="#000000" points="1055.7442,451.1452,1048.0898,445.5006,1046.2339,451.0777,1055.7442,451.1452" style="stroke:#000000;stroke-width:1.0;"/><text fill="#000000" font-family="sans-serif" font-size="13" lengthAdjust="spacing" textLength="48" x="1060" y="454.0669">save to</text><!--MD5=[e915fa9e1e96e39591c06eed7939ff93]
link SpeicherMedium to Client--><path codeLine="108" d="M452.635,114.212 C457.586,133.239 464.575,159.774 471,183 C475.538,199.403 480.487,216.864 485.309,233.663 " fill="none" id="SpeicherMedium-Client" style="stroke:#A80036;stroke-width:1.0;"/><polygon fill="#000000" points="477.3192,179.3892,477.7675,169.8892,472.0979,171.4401,477.3192,179.3892" style="stroke:#000000;stroke-width:1.0;"/><text fill="#000000" font-family="sans-serif" font-size="13" lengthAdjust="spacing" textLength="63" x="485" y="179.0669">gets Data</text><!--MD5=[e9bda095c3bf992dc8c220eeba9f6671]
@startuml
' === ANALYSE CLIENT ===
package Analyse-Client{
  
  ' Client
  class Client {
    - data: Data
    - dataForComp: Data
    - analyseTypes: List<AnalyseType>
    - analyzedData: List<String>
    __public methods__
    + getData(start: Date, end: Date, dataType: ToolType): boolean
    + setAnalyseTypes(): boolean
    + displayAnalyzedData(): void
    + export(): boolean
    + analyseData(): boolean
  }

  ' Analyse
  abstract Analyse {
    - calcRelFreq(data: Data): List<List<Float>>
    - createTimeTable(data: Data): List<List<Float>>
  }

  ' Heatmap
  class Heatmap {
    - heatmap: List<List<Float>>
    __public methods__
    + createHeatmap(data: Data): String
    + compHeatmaps(otherHeatmap: Heatmap): String
  }

  ' Verlauf
  class Verlauf {
    __public method__
    + createVerlauf(data: Data): String
    __private method__
    - drawDiagramm(diagrammData: List<List<Float>>): String
  }

  ' Diagramm
  class Diagramm {
    __public methods__
    + createRelFreqImgArea(data: Data): String
    + createViewTimeDistr(data: Data): String
    __private methods__
    - calcViewTimeDistr(): float[4]
    - drawDiagramm(diagrammData: float[4], type: int): String
  }

  ' Type
  enum AnalyseType {
    HEATMAP
    COMPHEATMAP
    VERLAUF
    RELFRQIMGAREA
    VIEWTIMEDISTR
  }

  ' ClientGUI
  class ClientGUI {
    - client: Client
    __public method__
    + showClientGUI(): void
  }

  ' Vererbung
  Analyse <|-u- Heatmap
  Analyse <|-u- Verlauf
  Analyse <|-u- Diagramm

  ' Interaktionen
  Client -d-> Heatmap 
  Client -d-> Verlauf
  Client -d-> Diagramm
  Client -l- AnalyseType
  Client <-r- ClientGUI : < graphische Benutzeroberfläche

}

' Blackbox
package SpeicherMedium {}

package DataStructure {
  
  ' Typen der erhobenen Daten
  enum ToolType {
    ZOOMMAPS
    EYETRACKING
    CODECHARTS
  }

  ' Daten
  class Data {
    + type: ToolType
    + data: unknown
    + config_id: int
  }

  ' Interaktionen
  Data::type -l- ToolType
}

() System #DA70D5

' Interaktionen
Client::getData -u- ToolType
Client::export - - System: > save to
Client -u- SpeicherMedium : < gets Data
@enduml

@startuml
package Analyse-Client{
  
  class Client {
    - data: Data
    - dataForComp: Data
    - analyseTypes: List<AnalyseType>
    - analyzedData: List<String>
    __public methods__
    + getData(start: Date, end: Date, dataType: ToolType): boolean
    + setAnalyseTypes(): boolean
    + displayAnalyzedData(): void
    + export(): boolean
    + analyseData(): boolean
  }

  abstract Analyse {
    - calcRelFreq(data: Data): List<List<Float>>
    - createTimeTable(data: Data): List<List<Float>>
  }

  class Heatmap {
    - heatmap: List<List<Float>>
    __public methods__
    + createHeatmap(data: Data): String
    + compHeatmaps(otherHeatmap: Heatmap): String
  }

  class Verlauf {
    __public method__
    + createVerlauf(data: Data): String
    __private method__
    - drawDiagramm(diagrammData: List<List<Float>>): String
  }

  class Diagramm {
    __public methods__
    + createRelFreqImgArea(data: Data): String
    + createViewTimeDistr(data: Data): String
    __private methods__
    - calcViewTimeDistr(): float[4]
    - drawDiagramm(diagrammData: float[4], type: int): String
  }

  enum AnalyseType {
    HEATMAP
    COMPHEATMAP
    VERLAUF
    RELFRQIMGAREA
    VIEWTIMEDISTR
  }

  class ClientGUI {
    - client: Client
    __public method__
    + showClientGUI(): void
  }

  Analyse <|-u- Heatmap
  Analyse <|-u- Verlauf
  Analyse <|-u- Diagramm

  Client -d-> Heatmap 
  Client -d-> Verlauf
  Client -d-> Diagramm
  Client -l- AnalyseType
  Client <-r- ClientGUI : < graphische Benutzeroberfläche

}

package SpeicherMedium {}

package DataStructure {
  
  enum ToolType {
    ZOOMMAPS
    EYETRACKING
    CODECHARTS
  }

  class Data {
    + type: ToolType
    + data: unknown
    + config_id: int
  }

  Data::type -l- ToolType
}

() System #DA70D5

Client::getData -u- ToolType
Client::export - - System: > save to
Client -u- SpeicherMedium : < gets Data
@enduml

PlantUML version 1.2021.14beta3(Unknown compile time)
(GPL source distribution)
Java Runtime: Java(TM) SE Runtime Environment
JVM: Java HotSpot(TM) 64-Bit Server VM
Default Encoding: UTF-8
Language: en
Country: US
--></g></svg>