<?xml version="1.0" encoding="UTF-8" standalone="no"?><svg xmlns="http://www.w3.org/2000/svg" xmlns:xlink="http://www.w3.org/1999/xlink" contentScriptType="application/ecmascript" contentStyleType="text/css" height="764px" preserveAspectRatio="none" style="width:1208px;height:764px;background:#FFFFFF;" version="1.1" viewBox="0 0 1208 764" width="1208px" zoomAndPan="magnify"><defs><filter height="300%" id="fl573le0t41hg" width="300%" x="-1" y="-1"><feGaussianBlur result="blurOut" stdDeviation="2.0"/><feColorMatrix in="blurOut" result="blurOut2" type="matrix" values="0 0 0 0 0 0 0 0 0 0 0 0 0 0 0 0 0 0 .4 0"/><feOffset dx="4.0" dy="4.0" in="blurOut2" result="blurOut3"/><feBlend in="SourceGraphic" in2="blurOut3" mode="normal"/></filter></defs><g><!--MD5=[275afd699dfec56c5bd304e04a3d58a6]
cluster Analyse-Client--><polygon fill="#FFFFFF" filter="url(#fl573le0t41hg)" points="16,192,138,192,145,214.2969,1120,214.2969,1120,757,16,757,16,192" style="stroke:#000000;stroke-width:1.5;"/><line style="stroke:#000000;stroke-width:1.5;" x1="16" x2="145" y1="214.2969" y2="214.2969"/><text fill="#000000" font-family="sans-serif" font-size="14" font-weight="bold" lengthAdjust="spacing" textLength="116" x="20" y="206.9951">Analyse-Client</text><!--MD5=[a55135535b5c544b99c33b17428c3b14]
cluster Util--><polygon fill="#FFFFFF" filter="url(#fl573le0t41hg)" points="541,6,576,6,583,28.2969,829,28.2969,829,143,541,143,541,6" style="stroke:#000000;stroke-width:1.5;"/><line style="stroke:#000000;stroke-width:1.5;" x1="541" x2="583" y1="28.2969" y2="28.2969"/><text fill="#000000" font-family="sans-serif" font-size="14" font-weight="bold" lengthAdjust="spacing" textLength="29" x="545" y="20.9951">Util</text><!--MD5=[ed6624c6556d5e7b1bd23032162d20b7]
class Client--><rect codeLine="5" fill="#FEFECE" filter="url(#fl573le0t41hg)" height="172.0469" id="Client" style="stroke:#A80036;stroke-width:1.5;" width="378" x="322" y="231"/><ellipse cx="490.25" cy="247" fill="#ADD1B2" rx="11" ry="11" style="stroke:#A80036;stroke-width:1.0;"/><path d="M492.5938,242.6719 C491.6563,242.2344 491.0625,242.0938 490.1875,242.0938 C487.5625,242.0938 485.5625,244.1719 485.5625,246.8906 L485.5625,248.0156 C485.5625,250.5938 487.6719,252.4844 490.5625,252.4844 C491.7813,252.4844 492.9375,252.1875 493.6875,251.6406 C494.2656,251.2344 494.5938,250.7813 494.5938,250.3906 C494.5938,249.9375 494.2031,249.5469 493.7344,249.5469 C493.5156,249.5469 493.3125,249.625 493.125,249.8125 C492.6719,250.2969 492.6719,250.2969 492.4844,250.3906 C492.0625,250.6563 491.375,250.7813 490.6094,250.7813 C488.5625,250.7813 487.2656,249.6875 487.2656,247.9844 L487.2656,246.8906 C487.2656,245.1094 488.5156,243.7969 490.25,243.7969 C490.8281,243.7969 491.4375,243.9531 491.9063,244.2031 C492.3906,244.4844 492.5625,244.7031 492.6563,245.1094 C492.7188,245.5156 492.75,245.6406 492.8906,245.7656 C493.0313,245.9063 493.2656,246.0156 493.4844,246.0156 C493.75,246.0156 494.0156,245.875 494.1875,245.6563 C494.2969,245.5 494.3281,245.3125 494.3281,244.8906 L494.3281,243.4688 C494.3281,243.0313 494.3125,242.9063 494.2188,242.75 C494.0625,242.4844 493.7813,242.3438 493.4844,242.3438 C493.1875,242.3438 492.9844,242.4375 492.7656,242.75 L492.5938,242.6719 Z " fill="#000000"/><text fill="#000000" font-family="sans-serif" font-size="12" lengthAdjust="spacing" textLength="33" x="510.75" y="251.1543">Client</text><line style="stroke:#A80036;stroke-width:1.5;" x1="323" x2="699" y1="263" y2="263"/><rect fill="none" height="6" style="stroke:#C82930;stroke-width:1.0;" width="6" x="330" y="271"/><text fill="#000000" font-family="sans-serif" font-size="11" lengthAdjust="spacing" textLength="80" x="342" y="277.2104">data: Util.Data</text><rect fill="none" height="6" style="stroke:#C82930;stroke-width:1.0;" width="6" x="330" y="283.8047"/><text fill="#000000" font-family="sans-serif" font-size="11" lengthAdjust="spacing" textLength="130" x="342" y="290.0151">dataForComp: Util.Data</text><rect fill="none" height="6" style="stroke:#C82930;stroke-width:1.0;" width="6" x="330" y="296.6094"/><text fill="#000000" font-family="sans-serif" font-size="11" lengthAdjust="spacing" textLength="199" x="342" y="302.8198">analyseTypes: List&lt;AnalyseType&gt;</text><rect fill="none" height="6" style="stroke:#C82930;stroke-width:1.0;" width="6" x="330" y="309.4141"/><text fill="#000000" font-family="sans-serif" font-size="11" lengthAdjust="spacing" textLength="157" x="342" y="315.6245">analyzedData: List&lt;String&gt;</text><ellipse cx="333" cy="342.0234" fill="#84BE84" rx="3" ry="3" style="stroke:#038048;stroke-width:1.0;"/><text fill="#000000" font-family="sans-serif" font-size="11" lengthAdjust="spacing" textLength="352" x="342" y="345.2339">getData(start: Date, end: Date, dataType: ToolType): boolean</text><ellipse cx="333" cy="354.8281" fill="#84BE84" rx="3" ry="3" style="stroke:#038048;stroke-width:1.0;"/><text fill="#000000" font-family="sans-serif" font-size="11" lengthAdjust="spacing" textLength="160" x="342" y="358.0386">setAnalyseTypes(): boolean</text><ellipse cx="333" cy="367.6328" fill="#84BE84" rx="3" ry="3" style="stroke:#038048;stroke-width:1.0;"/><text fill="#000000" font-family="sans-serif" font-size="11" lengthAdjust="spacing" textLength="160" x="342" y="370.8433">displayAnalyzedData(): void</text><ellipse cx="333" cy="380.4375" fill="#84BE84" rx="3" ry="3" style="stroke:#038048;stroke-width:1.0;"/><text fill="#000000" font-family="sans-serif" font-size="11" lengthAdjust="spacing" textLength="98" x="342" y="383.6479">export(): boolean</text><ellipse cx="333" cy="393.2422" fill="#84BE84" rx="3" ry="3" style="stroke:#038048;stroke-width:1.0;"/><text fill="#000000" font-family="sans-serif" font-size="11" lengthAdjust="spacing" textLength="133" x="342" y="396.4526">analyseData(): boolean</text><line style="stroke:#A80036;stroke-width:1.5;" x1="323" x2="467.5" y1="328.6211" y2="328.6211"/><text fill="#000000" font-family="sans-serif" font-size="11" lengthAdjust="spacing" textLength="87" x="467.5" y="331.9292">public methods</text><line style="stroke:#A80036;stroke-width:1.5;" x1="554.5" x2="699" y1="328.6211" y2="328.6211"/><!--MD5=[90fa35dfc7d13cf977fc160ba1111d24]
class Analyse--><rect codeLine="19" fill="#FEFECE" filter="url(#fl573le0t41hg)" height="73.6094" id="Analyse" style="stroke:#A80036;stroke-width:1.5;" width="320" x="429" y="667"/><ellipse cx="561.75" cy="683" fill="#A9DCDF" rx="11" ry="11" style="stroke:#A80036;stroke-width:1.0;"/><path d="M563.8281,684.8125 L564.2188,685.7969 L563.8281,685.7969 C563.375,685.7969 563.2656,685.8125 563.1094,685.9219 C562.8594,686.0781 562.7031,686.3594 562.7031,686.6563 C562.7031,686.9219 562.8438,687.1719 563.0625,687.3281 C563.2031,687.4531 563.4063,687.5 563.8281,687.5 L566.1875,687.5 C566.5469,687.5 566.7656,687.4688 566.9063,687.375 C567.1563,687.2344 567.3125,686.9375 567.3125,686.6563 C567.3125,686.375 567.1719,686.125 566.9531,685.9688 C566.7813,685.8281 566.625,685.7969 566.1563,685.7969 L562.7656,677.5938 L559.0938,677.5938 C558.6406,677.5938 558.5156,677.6094 558.3594,677.7031 C558.1094,677.875 557.9531,678.1563 557.9531,678.4375 C557.9531,678.7188 558.0938,678.9688 558.3125,679.1406 C558.4844,679.25 558.6563,679.2813 559.0938,679.2813 L560.1719,679.2813 L557.5313,685.7969 C557.1094,685.7969 556.9531,685.8125 556.7969,685.9219 C556.5469,686.0781 556.3906,686.3594 556.3906,686.6563 C556.3906,687.2188 556.7656,687.5 557.5156,687.5 L559.7813,687.5 C560.1406,687.5 560.3594,687.4688 560.4844,687.375 C560.75,687.2344 560.8906,686.9375 560.8906,686.6563 C560.8906,686.375 560.7656,686.125 560.5469,685.9531 C560.375,685.8281 560.2344,685.7969 559.7813,685.7969 L559.3906,685.7969 L559.7813,684.8125 L563.8281,684.8125 Z M563.125,683.1094 L560.4531,683.1094 L561.7969,679.8438 L563.125,683.1094 Z " fill="#000000"/><text fill="#000000" font-family="sans-serif" font-size="12" font-style="italic" lengthAdjust="spacing" textLength="46" x="582.25" y="687.1543">Analyse</text><line style="stroke:#A80036;stroke-width:1.5;" x1="430" x2="748" y1="699" y2="699"/><line style="stroke:#A80036;stroke-width:1.5;" x1="430" x2="748" y1="707" y2="707"/><rect fill="#F24D5C" height="6" style="stroke:#C82930;stroke-width:1.0;" width="6" x="437" y="715"/><text fill="#000000" font-family="sans-serif" font-size="11" lengthAdjust="spacing" textLength="261" x="449" y="721.2104">calcRelFreq(data: Util.Data): List&lt;List&lt;Float&gt;&gt;</text><rect fill="#F24D5C" height="6" style="stroke:#C82930;stroke-width:1.0;" width="6" x="437" y="727.8047"/><text fill="#000000" font-family="sans-serif" font-size="11" lengthAdjust="spacing" textLength="294" x="449" y="734.0151">createTimeTable(data: Util.Data): List&lt;List&lt;Float&gt;&gt;</text><!--MD5=[3f91f8027f14bf24ffa62a72d32476ac]
class Heatmap--><rect codeLine="25" fill="#FEFECE" filter="url(#fl573le0t41hg)" height="95.2188" id="Heatmap" style="stroke:#A80036;stroke-width:1.5;" width="304" x="800" y="496"/><ellipse cx="920.75" cy="512" fill="#ADD1B2" rx="11" ry="11" style="stroke:#A80036;stroke-width:1.0;"/><path d="M923.0938,507.6719 C922.1563,507.2344 921.5625,507.0938 920.6875,507.0938 C918.0625,507.0938 916.0625,509.1719 916.0625,511.8906 L916.0625,513.0156 C916.0625,515.5938 918.1719,517.4844 921.0625,517.4844 C922.2813,517.4844 923.4375,517.1875 924.1875,516.6406 C924.7656,516.2344 925.0938,515.7813 925.0938,515.3906 C925.0938,514.9375 924.7031,514.5469 924.2344,514.5469 C924.0156,514.5469 923.8125,514.625 923.625,514.8125 C923.1719,515.2969 923.1719,515.2969 922.9844,515.3906 C922.5625,515.6563 921.875,515.7813 921.1094,515.7813 C919.0625,515.7813 917.7656,514.6875 917.7656,512.9844 L917.7656,511.8906 C917.7656,510.1094 919.0156,508.7969 920.75,508.7969 C921.3281,508.7969 921.9375,508.9531 922.4063,509.2031 C922.8906,509.4844 923.0625,509.7031 923.1563,510.1094 C923.2188,510.5156 923.25,510.6406 923.3906,510.7656 C923.5313,510.9063 923.7656,511.0156 923.9844,511.0156 C924.25,511.0156 924.5156,510.875 924.6875,510.6563 C924.7969,510.5 924.8281,510.3125 924.8281,509.8906 L924.8281,508.4688 C924.8281,508.0313 924.8125,507.9063 924.7188,507.75 C924.5625,507.4844 924.2813,507.3438 923.9844,507.3438 C923.6875,507.3438 923.4844,507.4375 923.2656,507.75 L923.0938,507.6719 Z " fill="#000000"/><text fill="#000000" font-family="sans-serif" font-size="12" lengthAdjust="spacing" textLength="54" x="941.25" y="516.1543">Heatmap</text><line style="stroke:#A80036;stroke-width:1.5;" x1="801" x2="1103" y1="528" y2="528"/><rect fill="none" height="6" style="stroke:#C82930;stroke-width:1.0;" width="6" x="808" y="536"/><text fill="#000000" font-family="sans-serif" font-size="11" lengthAdjust="spacing" textLength="159" x="820" y="542.2104">heatmap: List&lt;List&lt;Float&gt;&gt;</text><ellipse cx="811" cy="568.6094" fill="#84BE84" rx="3" ry="3" style="stroke:#038048;stroke-width:1.0;"/><text fill="#000000" font-family="sans-serif" font-size="11" lengthAdjust="spacing" textLength="217" x="820" y="571.8198">createHeatmap(data: Util.Data): String</text><ellipse cx="811" cy="581.4141" fill="#84BE84" rx="3" ry="3" style="stroke:#038048;stroke-width:1.0;"/><text fill="#000000" font-family="sans-serif" font-size="11" lengthAdjust="spacing" textLength="278" x="820" y="584.6245">compHeatmaps(otherHeatmap: Heatmap): String</text><line style="stroke:#A80036;stroke-width:1.5;" x1="801" x2="908.5" y1="555.207" y2="555.207"/><text fill="#000000" font-family="sans-serif" font-size="11" lengthAdjust="spacing" textLength="87" x="908.5" y="558.5151">public methods</text><line style="stroke:#A80036;stroke-width:1.5;" x1="995.5" x2="1103" y1="555.207" y2="555.207"/><!--MD5=[a75dc2f5d5c9a4a0489ea15a737b99a8]
class Verlauf--><rect codeLine="33" fill="#FEFECE" filter="url(#fl573le0t41hg)" height="99.2188" id="Verlauf" style="stroke:#A80036;stroke-width:1.5;" width="352" x="413" y="494"/><ellipse cx="563.75" cy="510" fill="#ADD1B2" rx="11" ry="11" style="stroke:#A80036;stroke-width:1.0;"/><path d="M566.0938,505.6719 C565.1563,505.2344 564.5625,505.0938 563.6875,505.0938 C561.0625,505.0938 559.0625,507.1719 559.0625,509.8906 L559.0625,511.0156 C559.0625,513.5938 561.1719,515.4844 564.0625,515.4844 C565.2813,515.4844 566.4375,515.1875 567.1875,514.6406 C567.7656,514.2344 568.0938,513.7813 568.0938,513.3906 C568.0938,512.9375 567.7031,512.5469 567.2344,512.5469 C567.0156,512.5469 566.8125,512.625 566.625,512.8125 C566.1719,513.2969 566.1719,513.2969 565.9844,513.3906 C565.5625,513.6563 564.875,513.7813 564.1094,513.7813 C562.0625,513.7813 560.7656,512.6875 560.7656,510.9844 L560.7656,509.8906 C560.7656,508.1094 562.0156,506.7969 563.75,506.7969 C564.3281,506.7969 564.9375,506.9531 565.4063,507.2031 C565.8906,507.4844 566.0625,507.7031 566.1563,508.1094 C566.2188,508.5156 566.25,508.6406 566.3906,508.7656 C566.5313,508.9063 566.7656,509.0156 566.9844,509.0156 C567.25,509.0156 567.5156,508.875 567.6875,508.6563 C567.7969,508.5 567.8281,508.3125 567.8281,507.8906 L567.8281,506.4688 C567.8281,506.0313 567.8125,505.9063 567.7188,505.75 C567.5625,505.4844 567.2813,505.3438 566.9844,505.3438 C566.6875,505.3438 566.4844,505.4375 566.2656,505.75 L566.0938,505.6719 Z " fill="#000000"/><text fill="#000000" font-family="sans-serif" font-size="12" lengthAdjust="spacing" textLength="42" x="584.25" y="514.1543">Verlauf</text><line style="stroke:#A80036;stroke-width:1.5;" x1="414" x2="764" y1="526" y2="526"/><ellipse cx="424" cy="553.8047" fill="#84BE84" rx="3" ry="3" style="stroke:#038048;stroke-width:1.0;"/><text fill="#000000" font-family="sans-serif" font-size="11" lengthAdjust="spacing" textLength="206" x="433" y="557.0151">createVerlauf(data: Util.Data): String</text><line style="stroke:#A80036;stroke-width:1.5;" x1="414" x2="548.5" y1="540.4023" y2="540.4023"/><text fill="#000000" font-family="sans-serif" font-size="11" lengthAdjust="spacing" textLength="81" x="548.5" y="543.7104">public method</text><line style="stroke:#A80036;stroke-width:1.5;" x1="629.5" x2="764" y1="540.4023" y2="540.4023"/><rect fill="#F24D5C" height="6" style="stroke:#C82930;stroke-width:1.0;" width="6" x="421" y="580.4141"/><text fill="#000000" font-family="sans-serif" font-size="11" lengthAdjust="spacing" textLength="326" x="433" y="586.6245">drawDiagramm(diagrammData: List&lt;List&lt;Float&gt;&gt;): String</text><line style="stroke:#A80036;stroke-width:1.5;" x1="414" x2="545" y1="570.0117" y2="570.0117"/><text fill="#000000" font-family="sans-serif" font-size="11" lengthAdjust="spacing" textLength="88" x="545" y="573.3198">private method</text><line style="stroke:#A80036;stroke-width:1.5;" x1="633" x2="764" y1="570.0117" y2="570.0117"/><!--MD5=[33dbb5cd9b1593568d30e59c5983c72e]
class Diagramm--><rect codeLine="41" fill="#FEFECE" filter="url(#fl573le0t41hg)" height="124.8281" id="Diagramm" style="stroke:#A80036;stroke-width:1.5;" width="345" x="32.5" y="481"/><ellipse cx="170.25" cy="497" fill="#ADD1B2" rx="11" ry="11" style="stroke:#A80036;stroke-width:1.0;"/><path d="M172.5938,492.6719 C171.6563,492.2344 171.0625,492.0938 170.1875,492.0938 C167.5625,492.0938 165.5625,494.1719 165.5625,496.8906 L165.5625,498.0156 C165.5625,500.5938 167.6719,502.4844 170.5625,502.4844 C171.7813,502.4844 172.9375,502.1875 173.6875,501.6406 C174.2656,501.2344 174.5938,500.7813 174.5938,500.3906 C174.5938,499.9375 174.2031,499.5469 173.7344,499.5469 C173.5156,499.5469 173.3125,499.625 173.125,499.8125 C172.6719,500.2969 172.6719,500.2969 172.4844,500.3906 C172.0625,500.6563 171.375,500.7813 170.6094,500.7813 C168.5625,500.7813 167.2656,499.6875 167.2656,497.9844 L167.2656,496.8906 C167.2656,495.1094 168.5156,493.7969 170.25,493.7969 C170.8281,493.7969 171.4375,493.9531 171.9063,494.2031 C172.3906,494.4844 172.5625,494.7031 172.6563,495.1094 C172.7188,495.5156 172.75,495.6406 172.8906,495.7656 C173.0313,495.9063 173.2656,496.0156 173.4844,496.0156 C173.75,496.0156 174.0156,495.875 174.1875,495.6563 C174.2969,495.5 174.3281,495.3125 174.3281,494.8906 L174.3281,493.4688 C174.3281,493.0313 174.3125,492.9063 174.2188,492.75 C174.0625,492.4844 173.7813,492.3438 173.4844,492.3438 C173.1875,492.3438 172.9844,492.4375 172.7656,492.75 L172.5938,492.6719 Z " fill="#000000"/><text fill="#000000" font-family="sans-serif" font-size="12" lengthAdjust="spacing" textLength="61" x="190.75" y="501.1543">Diagramm</text><line style="stroke:#A80036;stroke-width:1.5;" x1="33.5" x2="376.5" y1="513" y2="513"/><ellipse cx="43.5" cy="540.8047" fill="#84BE84" rx="3" ry="3" style="stroke:#038048;stroke-width:1.0;"/><text fill="#000000" font-family="sans-serif" font-size="11" lengthAdjust="spacing" textLength="256" x="52.5" y="544.0151">createRelFreqImgArea(data: Util.Data): String</text><ellipse cx="43.5" cy="553.6094" fill="#84BE84" rx="3" ry="3" style="stroke:#038048;stroke-width:1.0;"/><text fill="#000000" font-family="sans-serif" font-size="11" lengthAdjust="spacing" textLength="248" x="52.5" y="556.8198">createViewTimeDistr(data: Util.Data): String</text><line style="stroke:#A80036;stroke-width:1.5;" x1="33.5" x2="161.5" y1="527.4023" y2="527.4023"/><text fill="#000000" font-family="sans-serif" font-size="11" lengthAdjust="spacing" textLength="87" x="161.5" y="530.7104">public methods</text><line style="stroke:#A80036;stroke-width:1.5;" x1="248.5" x2="376.5" y1="527.4023" y2="527.4023"/><rect fill="#F24D5C" height="6" style="stroke:#C82930;stroke-width:1.0;" width="6" x="40.5" y="580.2188"/><text fill="#000000" font-family="sans-serif" font-size="11" lengthAdjust="spacing" textLength="160" x="52.5" y="586.4292">calcViewTimeDistr(): float[4]</text><rect fill="#F24D5C" height="6" style="stroke:#C82930;stroke-width:1.0;" width="6" x="40.5" y="593.0234"/><text fill="#000000" font-family="sans-serif" font-size="11" lengthAdjust="spacing" textLength="319" x="52.5" y="599.2339">drawDiagramm(diagrammData: float[4], type: int): String</text><line style="stroke:#A80036;stroke-width:1.5;" x1="33.5" x2="158" y1="569.8164" y2="569.8164"/><text fill="#000000" font-family="sans-serif" font-size="11" lengthAdjust="spacing" textLength="94" x="158" y="573.1245">private methods</text><line style="stroke:#A80036;stroke-width:1.5;" x1="252" x2="376.5" y1="569.8164" y2="569.8164"/><!--MD5=[187bd564dfbdf57eb75091cc1a4a8baa]
class AnalyseType--><rect codeLine="51" fill="#FEFECE" filter="url(#fl573le0t41hg)" height="112.0234" id="AnalyseType" style="stroke:#A80036;stroke-width:1.5;" width="109" x="169.5" y="259.5"/><ellipse cx="184.5" cy="275.5" fill="#EB937F" rx="11" ry="11" style="stroke:#A80036;stroke-width:1.0;"/><path d="M183.2969,276.375 L184.75,276.375 L184.75,276.4844 C184.75,276.8906 184.7813,277.0469 184.8594,277.2031 C185.0156,277.4531 185.2969,277.6094 185.5938,277.6094 C185.8438,277.6094 186.1094,277.4688 186.2656,277.25 C186.3906,277.0938 186.4219,276.9375 186.4219,276.4844 L186.4219,274.5625 C186.4219,274.4063 186.4219,274.3594 186.4063,274.2031 C186.3438,273.7344 186.0313,273.4219 185.5781,273.4219 C185.3281,273.4219 185.0625,273.5625 184.8906,273.7813 C184.7813,273.9531 184.75,274.1094 184.75,274.5625 L184.75,274.6875 L183.2969,274.6875 L183.2969,272.2813 L187.2813,272.2813 L187.2813,273.1406 C187.2813,273.5469 187.3125,273.7188 187.3906,273.875 C187.5625,274.125 187.8438,274.2813 188.125,274.2813 C188.3906,274.2813 188.6563,274.1406 188.8281,273.9219 C188.9375,273.75 188.9688,273.6094 188.9688,273.1406 L188.9688,270.5938 L181.3438,270.5938 C180.9063,270.5938 180.7813,270.6094 180.625,270.7031 C180.375,270.8594 180.2188,271.1563 180.2188,271.4375 C180.2188,271.7188 180.3594,271.9688 180.5781,272.1406 C180.7344,272.25 180.9219,272.2813 181.3438,272.2813 L181.5938,272.2813 L181.5938,278.7969 L181.3438,278.7969 C180.9375,278.7969 180.7813,278.8125 180.625,278.9219 C180.375,279.0938 180.2188,279.3594 180.2188,279.6563 C180.2188,279.9219 180.3594,280.1719 180.5781,280.3281 C180.7188,280.4531 180.9531,280.5 181.3438,280.5 L189.3438,280.5 L189.3438,277.9219 C189.3438,277.4844 189.3125,277.3438 189.2344,277.1875 C189.0625,276.9375 188.7813,276.7813 188.5,276.7813 C188.2344,276.7813 187.9688,276.8906 187.7969,277.1406 C187.6875,277.2969 187.6563,277.4375 187.6563,277.9219 L187.6563,278.7969 L183.2969,278.7969 L183.2969,276.375 Z " fill="#000000"/><text fill="#000000" font-family="sans-serif" font-size="12" lengthAdjust="spacing" textLength="77" x="198.5" y="279.6543">AnalyseType</text><line style="stroke:#A80036;stroke-width:1.5;" x1="170.5" x2="277.5" y1="291.5" y2="291.5"/><text fill="#000000" font-family="sans-serif" font-size="11" lengthAdjust="spacing" textLength="53" x="175.5" y="305.7104">HEATMAP</text><text fill="#000000" font-family="sans-serif" font-size="11" lengthAdjust="spacing" textLength="85" x="175.5" y="318.5151">COMPHEATMAP</text><text fill="#000000" font-family="sans-serif" font-size="11" lengthAdjust="spacing" textLength="50" x="175.5" y="331.3198">VERLAUF</text><text fill="#000000" font-family="sans-serif" font-size="11" lengthAdjust="spacing" textLength="93" x="175.5" y="344.1245">RELFRQIMGAREA</text><text fill="#000000" font-family="sans-serif" font-size="11" lengthAdjust="spacing" textLength="89" x="175.5" y="356.9292">VIEWTIMEDISTR</text><line style="stroke:#A80036;stroke-width:1.5;" x1="170.5" x2="277.5" y1="363.5234" y2="363.5234"/><!--MD5=[3079cd578e216c696855c75c2998d445]
class ClientGUI--><rect codeLine="60" fill="#FEFECE" filter="url(#fl573le0t41hg)" height="82.4141" id="ClientGUI" style="stroke:#A80036;stroke-width:1.5;" width="147" x="956.5" y="274.5"/><ellipse cx="998.95" cy="290.5" fill="#ADD1B2" rx="11" ry="11" style="stroke:#A80036;stroke-width:1.0;"/><path d="M1001.2938,286.1719 C1000.3563,285.7344 999.7625,285.5938 998.8875,285.5938 C996.2625,285.5938 994.2625,287.6719 994.2625,290.3906 L994.2625,291.5156 C994.2625,294.0938 996.3719,295.9844 999.2625,295.9844 C1000.4813,295.9844 1001.6375,295.6875 1002.3875,295.1406 C1002.9656,294.7344 1003.2938,294.2813 1003.2938,293.8906 C1003.2938,293.4375 1002.9031,293.0469 1002.4344,293.0469 C1002.2156,293.0469 1002.0125,293.125 1001.825,293.3125 C1001.3719,293.7969 1001.3719,293.7969 1001.1844,293.8906 C1000.7625,294.1563 1000.075,294.2813 999.3094,294.2813 C997.2625,294.2813 995.9656,293.1875 995.9656,291.4844 L995.9656,290.3906 C995.9656,288.6094 997.2156,287.2969 998.95,287.2969 C999.5281,287.2969 1000.1375,287.4531 1000.6063,287.7031 C1001.0906,287.9844 1001.2625,288.2031 1001.3563,288.6094 C1001.4188,289.0156 1001.45,289.1406 1001.5906,289.2656 C1001.7313,289.4063 1001.9656,289.5156 1002.1844,289.5156 C1002.45,289.5156 1002.7156,289.375 1002.8875,289.1563 C1002.9969,289 1003.0281,288.8125 1003.0281,288.3906 L1003.0281,286.9688 C1003.0281,286.5313 1003.0125,286.4063 1002.9188,286.25 C1002.7625,285.9844 1002.4813,285.8438 1002.1844,285.8438 C1001.8875,285.8438 1001.6844,285.9375 1001.4656,286.25 L1001.2938,286.1719 Z " fill="#000000"/><text fill="#000000" font-family="sans-serif" font-size="12" lengthAdjust="spacing" textLength="54" x="1019.05" y="294.6543">ClientGUI</text><line style="stroke:#A80036;stroke-width:1.5;" x1="957.5" x2="1102.5" y1="306.5" y2="306.5"/><rect fill="none" height="6" style="stroke:#C82930;stroke-width:1.0;" width="6" x="964.5" y="314.5"/><text fill="#000000" font-family="sans-serif" font-size="11" lengthAdjust="spacing" textLength="71" x="976.5" y="320.7104">client: Client</text><ellipse cx="967.5" cy="347.1094" fill="#84BE84" rx="3" ry="3" style="stroke:#038048;stroke-width:1.0;"/><text fill="#000000" font-family="sans-serif" font-size="11" lengthAdjust="spacing" textLength="121" x="976.5" y="350.3198">showClientGUI(): void</text><line style="stroke:#A80036;stroke-width:1.5;" x1="957.5" x2="989.5" y1="333.707" y2="333.707"/><text fill="#000000" font-family="sans-serif" font-size="11" lengthAdjust="spacing" textLength="81" x="989.5" y="337.0151">public method</text><line style="stroke:#A80036;stroke-width:1.5;" x1="1070.5" x2="1102.5" y1="333.707" y2="333.707"/><polygon fill="#FFFFFF" filter="url(#fl573le0t41hg)" points="370,57.5,508,57.5,515,79.7969,522,79.7969,522,110.0938,370,110.0938,370,57.5" style="stroke:#000000;stroke-width:1.5;"/><line style="stroke:#000000;stroke-width:1.5;" x1="370" x2="515" y1="79.7969" y2="79.7969"/><text fill="#000000" font-family="sans-serif" font-size="14" font-weight="bold" lengthAdjust="spacing" textLength="132" x="374" y="72.4951">SpeicherMedium</text><!--MD5=[5c39798b83ace9e75333b1274a725e6c]
class ToolType--><rect codeLine="86" fill="#FEFECE" filter="url(#fl573le0t41hg)" height="86.4141" id="ToolType" style="stroke:#A80036;stroke-width:1.5;" width="91" x="557.5" y="41"/><ellipse cx="573.85" cy="57" fill="#EB937F" rx="11" ry="11" style="stroke:#A80036;stroke-width:1.0;"/><path d="M572.6469,57.875 L574.1,57.875 L574.1,57.9844 C574.1,58.3906 574.1313,58.5469 574.2094,58.7031 C574.3656,58.9531 574.6469,59.1094 574.9438,59.1094 C575.1938,59.1094 575.4594,58.9688 575.6156,58.75 C575.7406,58.5938 575.7719,58.4375 575.7719,57.9844 L575.7719,56.0625 C575.7719,55.9063 575.7719,55.8594 575.7563,55.7031 C575.6938,55.2344 575.3813,54.9219 574.9281,54.9219 C574.6781,54.9219 574.4125,55.0625 574.2406,55.2813 C574.1313,55.4531 574.1,55.6094 574.1,56.0625 L574.1,56.1875 L572.6469,56.1875 L572.6469,53.7813 L576.6313,53.7813 L576.6313,54.6406 C576.6313,55.0469 576.6625,55.2188 576.7406,55.375 C576.9125,55.625 577.1938,55.7813 577.475,55.7813 C577.7406,55.7813 578.0063,55.6406 578.1781,55.4219 C578.2875,55.25 578.3188,55.1094 578.3188,54.6406 L578.3188,52.0938 L570.6938,52.0938 C570.2563,52.0938 570.1313,52.1094 569.975,52.2031 C569.725,52.3594 569.5688,52.6563 569.5688,52.9375 C569.5688,53.2188 569.7094,53.4688 569.9281,53.6406 C570.0844,53.75 570.2719,53.7813 570.6938,53.7813 L570.9438,53.7813 L570.9438,60.2969 L570.6938,60.2969 C570.2875,60.2969 570.1313,60.3125 569.975,60.4219 C569.725,60.5938 569.5688,60.8594 569.5688,61.1563 C569.5688,61.4219 569.7094,61.6719 569.9281,61.8281 C570.0688,61.9531 570.3031,62 570.6938,62 L578.6938,62 L578.6938,59.4219 C578.6938,58.9844 578.6625,58.8438 578.5844,58.6875 C578.4125,58.4375 578.1313,58.2813 577.85,58.2813 C577.5844,58.2813 577.3188,58.3906 577.1469,58.6406 C577.0375,58.7969 577.0063,58.9375 577.0063,59.4219 L577.0063,60.2969 L572.6469,60.2969 L572.6469,57.875 Z " fill="#000000"/><text fill="#000000" font-family="sans-serif" font-size="12" lengthAdjust="spacing" textLength="56" x="588.15" y="61.1543">ToolType</text><line style="stroke:#A80036;stroke-width:1.5;" x1="558.5" x2="647.5" y1="73" y2="73"/><text fill="#000000" font-family="sans-serif" font-size="11" lengthAdjust="spacing" textLength="35" x="563.5" y="87.2104">ZOOM</text><text fill="#000000" font-family="sans-serif" font-size="11" lengthAdjust="spacing" textLength="78" x="563.5" y="100.0151">EYETRACKING</text><text fill="#000000" font-family="sans-serif" font-size="11" lengthAdjust="spacing" textLength="79" x="563.5" y="112.8198">CODECHARTS</text><line style="stroke:#A80036;stroke-width:1.5;" x1="558.5" x2="647.5" y1="119.4141" y2="119.4141"/><!--MD5=[60c9ed31c535bee25c55ce21b5b01399]
class Data--><rect codeLine="93" fill="#FEFECE" filter="url(#fl573le0t41hg)" height="86.4141" id="Data" style="stroke:#A80036;stroke-width:1.5;" width="129" x="683.5" y="41"/><ellipse cx="698.5" cy="57" fill="#ADD1B2" rx="11" ry="11" style="stroke:#A80036;stroke-width:1.0;"/><path d="M700.8438,52.6719 C699.9063,52.2344 699.3125,52.0938 698.4375,52.0938 C695.8125,52.0938 693.8125,54.1719 693.8125,56.8906 L693.8125,58.0156 C693.8125,60.5938 695.9219,62.4844 698.8125,62.4844 C700.0313,62.4844 701.1875,62.1875 701.9375,61.6406 C702.5156,61.2344 702.8438,60.7813 702.8438,60.3906 C702.8438,59.9375 702.4531,59.5469 701.9844,59.5469 C701.7656,59.5469 701.5625,59.625 701.375,59.8125 C700.9219,60.2969 700.9219,60.2969 700.7344,60.3906 C700.3125,60.6563 699.625,60.7813 698.8594,60.7813 C696.8125,60.7813 695.5156,59.6875 695.5156,57.9844 L695.5156,56.8906 C695.5156,55.1094 696.7656,53.7969 698.5,53.7969 C699.0781,53.7969 699.6875,53.9531 700.1563,54.2031 C700.6406,54.4844 700.8125,54.7031 700.9063,55.1094 C700.9688,55.5156 701,55.6406 701.1406,55.7656 C701.2813,55.9063 701.5156,56.0156 701.7344,56.0156 C702,56.0156 702.2656,55.875 702.4375,55.6563 C702.5469,55.5 702.5781,55.3125 702.5781,54.8906 L702.5781,53.4688 C702.5781,53.0313 702.5625,52.9063 702.4688,52.75 C702.3125,52.4844 702.0313,52.3438 701.7344,52.3438 C701.4375,52.3438 701.2344,52.4375 701.0156,52.75 L700.8438,52.6719 Z " fill="#000000"/><text fill="#000000" font-family="sans-serif" font-size="12" lengthAdjust="spacing" textLength="27" x="712.5" y="61.1543">Data</text><rect fill="#FFFFFF" height="15.9688" style="stroke:#000000;stroke-width:1.0;stroke-dasharray:2.0,2.0;" width="68" x="747.5" y="38"/><text fill="#000000" font-family="sans-serif" font-size="12" font-style="italic" lengthAdjust="spacing" textLength="66" x="748.5" y="50.1387">t: ToolType</text><line style="stroke:#A80036;stroke-width:1.5;" x1="684.5" x2="811.5" y1="73" y2="73"/><ellipse cx="694.5" cy="84" rx="3" ry="3" style="stroke:#038048;stroke-width:1.0;fill:none;"/><text fill="#000000" font-family="sans-serif" font-size="11" lengthAdjust="spacing" textLength="64" x="703.5" y="87.2104">t: ToolType</text><ellipse cx="694.5" cy="96.8047" rx="3" ry="3" style="stroke:#038048;stroke-width:1.0;fill:none;"/><text fill="#000000" font-family="sans-serif" font-size="11" lengthAdjust="spacing" textLength="82" x="703.5" y="100.0151">data: unknown</text><ellipse cx="694.5" cy="109.6094" rx="3" ry="3" style="stroke:#038048;stroke-width:1.0;fill:none;"/><text fill="#000000" font-family="sans-serif" font-size="11" lengthAdjust="spacing" textLength="71" x="703.5" y="112.8198">config_id: int</text><line style="stroke:#A80036;stroke-width:1.5;" x1="684.5" x2="811.5" y1="119.4141" y2="119.4141"/><!--MD5=[abea0b42432aea0f9ce66e53feda8644]
entity System--><ellipse cx="1174" cy="543.5" fill="#DA70D5" filter="url(#fl573le0t41hg)" rx="8" ry="8" style="stroke:#A80036;stroke-width:1.5;"/><text fill="#000000" font-family="sans-serif" font-size="14" lengthAdjust="spacing" textLength="54" x="1147" y="573.4951">System</text><!--MD5=[0142a10273876a6498763cbca717bc4b]
link Heatmap to Analyse--><path codeLine="67" d="M845.051,591.198 C796.017,612.608 738.197,637.855 689.92,658.934 " fill="none" id="Heatmap-to-Analyse" style="stroke:#A80036;stroke-width:1.0;"/><polygon fill="none" points="692.713,665.353,671.583,666.941,687.111,652.523,692.713,665.353" style="stroke:#A80036;stroke-width:1.0;"/><!--MD5=[49c5c3aad5e065304b1f0455c88d6c6a]
link Verlauf to Analyse--><path codeLine="68" d="M589,593.349 C589,610.226 589,629.273 589,646.699 " fill="none" id="Verlauf-to-Analyse" style="stroke:#A80036;stroke-width:1.0;"/><polygon fill="none" points="596,646.897,589,666.897,582,646.897,596,646.897" style="stroke:#A80036;stroke-width:1.0;"/><!--MD5=[eec8e75ff2920fb7be4f9035a3a6b788]
link Diagramm to Analyse--><path codeLine="69" d="M354.014,606.007 C397.05,623.771 443.123,642.788 482.97,659.235 " fill="none" id="Diagramm-to-Analyse" style="stroke:#A80036;stroke-width:1.0;"/><polygon fill="none" points="485.877,652.862,501.693,666.963,480.535,665.803,485.877,652.862" style="stroke:#A80036;stroke-width:1.0;"/><!--MD5=[458e23c55b866563aae54fc87d28c1cd]
link Client to Heatmap--><path codeLine="72" d="M681.818,404.039 C741.075,434.407 805.382,467.363 856.388,493.502 " fill="none" id="Client-to-Heatmap" style="stroke:#A80036;stroke-width:1.0;"/><polygon fill="#A80036" points="860.969,495.849,854.7861,488.1828,856.52,493.5673,851.1354,495.3012,860.969,495.849" style="stroke:#A80036;stroke-width:1.0;"/><!--MD5=[28cbb4bcdbacbdc16d11542d97316c4d]
link Client to Verlauf--><path codeLine="73" d="M541.268,404.201 C551.104,432.7 561.721,463.462 570.439,488.721 " fill="none" id="Client-to-Verlauf" style="stroke:#A80036;stroke-width:1.0;"/><polygon fill="#A80036" points="572.156,493.697,573.0001,483.8844,570.5244,488.9707,565.438,486.495,572.156,493.697" style="stroke:#A80036;stroke-width:1.0;"/><!--MD5=[5a584ab670d8f56708f0929dbbb811bb]
link Client to Diagramm--><path codeLine="74" d="M392.254,404.201 C359.134,428.662 323.756,454.791 292.77,477.676 " fill="none" id="Client-to-Diagramm" style="stroke:#A80036;stroke-width:1.0;"/><polygon fill="#A80036" points="288.624,480.739,298.2403,478.6115,292.6465,477.7693,293.4887,472.1754,288.624,480.739" style="stroke:#A80036;stroke-width:1.0;"/><!--MD5=[f1ae28e25402a7e717ad4fc29abfecff]
link AnalyseType to Client--><path codeLine="75" d="M278.653,315.5 C290.301,315.5 301.948,315.5 313.596,315.5 " fill="none" id="AnalyseType-Client" style="stroke:#A80036;stroke-width:1.0;"/><!--MD5=[d87b49e9793fa2adf9873dcf0a70cfd9]
reverse link Client to ClientGUI--><path codeLine="76" d="M713.421,315.5 C798.931,315.5 893.14,315.5 956.369,315.5 " fill="none" id="Client-backto-ClientGUI" style="stroke:#A80036;stroke-width:1.0;"/><polygon fill="#A80036" points="708.322,315.5,717.322,319.5,713.322,315.5,717.322,311.5,708.322,315.5" style="stroke:#A80036;stroke-width:1.0;"/><polygon fill="#000000" points="725.25,304.0664,734.2951,307.0053,734.2951,301.1275,725.25,304.0664" style="stroke:#000000;stroke-width:1.0;"/><text fill="#000000" font-family="sans-serif" font-size="13" lengthAdjust="spacing" textLength="199" x="739.25" y="308.5669">graphische Benutzeroberfläche</text><!--MD5=[b0bc53235038902673d53aaf3a34627f]
link ToolType to Data--><path codeLine="100" d="M648.596,84 C660.115,84 671.635,84 683.154,84 " fill="none" id="ToolType-Data" style="stroke:#A80036;stroke-width:1.0;"/><!--MD5=[d8fe5df92e8fb3bc8aac22f151a507a7]
link ToolType to Client--><path codeLine="106" d="M637.021,127.069 C693.462,199.837 791.694,341.5 701,341.5 " fill="none" id="ToolType-Client" style="stroke:#A80036;stroke-width:1.0;"/><!--MD5=[b01be8bdc4fb25d848cf3e7fba7545c0]
link Client to System--><path codeLine="107" d="M701,378.5 C796.857,378.5 1038.03,431.3 1120,481 C1142.6,494.703 1160.86,520.959 1169.16,534.294 " fill="none" id="Client-System" style="stroke:#A80036;stroke-width:1.0;"/><polygon fill="#000000" points="1055.7442,444.1452,1048.0898,438.5006,1046.2339,444.0777,1055.7442,444.1452" style="stroke:#000000;stroke-width:1.0;"/><text fill="#000000" font-family="sans-serif" font-size="13" lengthAdjust="spacing" textLength="48" x="1060" y="447.0669">save to</text><!--MD5=[e915fa9e1e96e39591c06eed7939ff93]
link SpeicherMedium to Client--><path codeLine="108" d="M452.916,110.521 C457.886,128.776 464.779,153.922 471,176 C475.649,192.502 480.675,210.089 485.542,226.999 " fill="none" id="SpeicherMedium-Client" style="stroke:#A80036;stroke-width:1.0;"/><polygon fill="#000000" points="477.3486,172.3811,477.739,162.8785,472.0789,164.4639,477.3486,172.3811" style="stroke:#000000;stroke-width:1.0;"/><text fill="#000000" font-family="sans-serif" font-size="13" lengthAdjust="spacing" textLength="63" x="485" y="172.0669">gets Data</text><!--MD5=[bc45d83f524e683ef446618133ff9b96]
@startuml
' === ANALYSE CLIENT ===
package Analyse-Client{
  
  ' Client
  class Client {
    - data: Util.Data
    - dataForComp: Util.Data
    - analyseTypes: List<AnalyseType>
    - analyzedData: List<String>
    __public methods__
    + getData(start: Date, end: Date, dataType: ToolType): boolean
    + setAnalyseTypes(): boolean
    + displayAnalyzedData(): void
    + export(): boolean
    + analyseData(): boolean
  }

  ' Analyse
  abstract Analyse {
    - calcRelFreq(data: Util.Data): List<List<Float>>
    - createTimeTable(data: Util.Data): List<List<Float>>
  }

  ' Heatmap
  class Heatmap {
    - heatmap: List<List<Float>>
    __public methods__
    + createHeatmap(data: Util.Data): String
    + compHeatmaps(otherHeatmap: Heatmap): String
  }

  ' Verlauf
  class Verlauf {
    __public method__
    + createVerlauf(data: Util.Data): String
    __private method__
    - drawDiagramm(diagrammData: List<List<Float>>): String
  }

  ' Diagramm
  class Diagramm {
    __public methods__
    + createRelFreqImgArea(data: Util.Data): String
    + createViewTimeDistr(data: Util.Data): String
    __private methods__
    - calcViewTimeDistr(): float[4]
    - drawDiagramm(diagrammData: float[4], type: int): String
  }

  ' Type
  enum AnalyseType {
    HEATMAP
    COMPHEATMAP
    VERLAUF
    RELFRQIMGAREA
    VIEWTIMEDISTR
  }

  ' ClientGUI
  class ClientGUI {
    - client: Client
    __public method__
    + showClientGUI(): void
  }

  ' Vererbung
  Analyse <|-u- Heatmap
  Analyse <|-u- Verlauf
  Analyse <|-u- Diagramm

  ' Interaktionen
  Client -d-> Heatmap 
  Client -d-> Verlauf
  Client -d-> Diagramm
  Client -l- AnalyseType
  Client <-r- ClientGUI : < graphische Benutzeroberfläche

}

' Blackbox
package SpeicherMedium {}

package Util {
  
  ' Typen der erhobenen Daten
  enum ToolType {
    ZOOM
    EYETRACKING
    CODECHARTS
  }

  ' Daten
  class Data<t: ToolType> {
    + t: ToolType
    + data: unknown
    + config_id: int
  }

  ' Interaktionen
  Data -l- ToolType
}

() System #DA70D5

' Interaktionen
Client::getData -u- ToolType
Client::export - - System: > save to
Client -u- SpeicherMedium : < gets Data
@enduml

@startuml
package Analyse-Client{
  
  class Client {
    - data: Util.Data
    - dataForComp: Util.Data
    - analyseTypes: List<AnalyseType>
    - analyzedData: List<String>
    __public methods__
    + getData(start: Date, end: Date, dataType: ToolType): boolean
    + setAnalyseTypes(): boolean
    + displayAnalyzedData(): void
    + export(): boolean
    + analyseData(): boolean
  }

  abstract Analyse {
    - calcRelFreq(data: Util.Data): List<List<Float>>
    - createTimeTable(data: Util.Data): List<List<Float>>
  }

  class Heatmap {
    - heatmap: List<List<Float>>
    __public methods__
    + createHeatmap(data: Util.Data): String
    + compHeatmaps(otherHeatmap: Heatmap): String
  }

  class Verlauf {
    __public method__
    + createVerlauf(data: Util.Data): String
    __private method__
    - drawDiagramm(diagrammData: List<List<Float>>): String
  }

  class Diagramm {
    __public methods__
    + createRelFreqImgArea(data: Util.Data): String
    + createViewTimeDistr(data: Util.Data): String
    __private methods__
    - calcViewTimeDistr(): float[4]
    - drawDiagramm(diagrammData: float[4], type: int): String
  }

  enum AnalyseType {
    HEATMAP
    COMPHEATMAP
    VERLAUF
    RELFRQIMGAREA
    VIEWTIMEDISTR
  }

  class ClientGUI {
    - client: Client
    __public method__
    + showClientGUI(): void
  }

  Analyse <|-u- Heatmap
  Analyse <|-u- Verlauf
  Analyse <|-u- Diagramm

  Client -d-> Heatmap 
  Client -d-> Verlauf
  Client -d-> Diagramm
  Client -l- AnalyseType
  Client <-r- ClientGUI : < graphische Benutzeroberfläche

}

package SpeicherMedium {}

package Util {
  
  enum ToolType {
    ZOOM
    EYETRACKING
    CODECHARTS
  }

  class Data<t: ToolType> {
    + t: ToolType
    + data: unknown
    + config_id: int
  }

  Data -l- ToolType
}

() System #DA70D5

Client::getData -u- ToolType
Client::export - - System: > save to
Client -u- SpeicherMedium : < gets Data
@enduml

PlantUML version 1.2021.14beta4(Unknown compile time)
(GPL source distribution)
Java Runtime: Java(TM) SE Runtime Environment
JVM: Java HotSpot(TM) 64-Bit Server VM
Default Encoding: UTF-8
Language: en
Country: US
--></g></svg>