<?xml version="1.0" encoding="UTF-8" standalone="no"?><svg xmlns="http://www.w3.org/2000/svg" xmlns:xlink="http://www.w3.org/1999/xlink" contentScriptType="application/ecmascript" contentStyleType="text/css" height="894px" preserveAspectRatio="none" style="width:1555px;height:894px;background:#FFFFFF;" version="1.1" viewBox="0 0 1555 894" width="1555px" zoomAndPan="magnify"><defs><filter height="300%" id="f1jgw9cj6olgkp" width="300%" x="-1" y="-1"><feGaussianBlur result="blurOut" stdDeviation="2.0"/><feColorMatrix in="blurOut" result="blurOut2" type="matrix" values="0 0 0 0 0 0 0 0 0 0 0 0 0 0 0 0 0 0 .4 0"/><feOffset dx="4.0" dy="4.0" in="blurOut2" result="blurOut3"/><feBlend in="SourceGraphic" in2="blurOut3" mode="normal"/></filter></defs><g><!--MD5=[a55135535b5c544b99c33b17428c3b14]
cluster Util--><polygon fill="#FFFFFF" filter="url(#f1jgw9cj6olgkp)" points="16,6,51,6,58,28.2969,675,28.2969,675,371,16,371,16,6" style="stroke:#000000;stroke-width:1.5;"/><line style="stroke:#000000;stroke-width:1.5;" x1="16" x2="58" y1="28.2969" y2="28.2969"/><text fill="#000000" font-family="sans-serif" font-size="14" font-weight="bold" lengthAdjust="spacing" textLength="29" x="20" y="20.9951">Util</text><!--MD5=[7d78d958a1816327b68dab5e38143fdd]
cluster ZoomMaps--><polygon fill="#FFFFFF" filter="url(#f1jgw9cj6olgkp)" points="469,420,564,420,571,442.2969,1538,442.2969,1538,772,469,772,469,420" style="stroke:#000000;stroke-width:1.5;"/><line style="stroke:#000000;stroke-width:1.5;" x1="469" x2="571" y1="442.2969" y2="442.2969"/><text fill="#000000" font-family="sans-serif" font-size="14" font-weight="bold" lengthAdjust="spacing" textLength="89" x="473" y="434.9951">ZoomMaps</text><!--MD5=[fccc419d627b37790932ddb688fb7ad6]
class Tutorial--><rect codeLine="7" fill="#FEFECE" filter="url(#f1jgw9cj6olgkp)" height="167.2422" id="Tutorial" style="stroke:#A80036;stroke-width:1.5;" width="236" x="423" y="188"/><ellipse cx="479.25" cy="204" fill="#A9DCDF" rx="11" ry="11" style="stroke:#A80036;stroke-width:1.0;"/><path d="M481.3281,205.8125 L481.7188,206.7969 L481.3281,206.7969 C480.875,206.7969 480.7656,206.8125 480.6094,206.9219 C480.3594,207.0781 480.2031,207.3594 480.2031,207.6563 C480.2031,207.9219 480.3438,208.1719 480.5625,208.3281 C480.7031,208.4531 480.9063,208.5 481.3281,208.5 L483.6875,208.5 C484.0469,208.5 484.2656,208.4688 484.4063,208.375 C484.6563,208.2344 484.8125,207.9375 484.8125,207.6563 C484.8125,207.375 484.6719,207.125 484.4531,206.9688 C484.2813,206.8281 484.125,206.7969 483.6563,206.7969 L480.2656,198.5938 L476.5938,198.5938 C476.1406,198.5938 476.0156,198.6094 475.8594,198.7031 C475.6094,198.875 475.4531,199.1563 475.4531,199.4375 C475.4531,199.7188 475.5938,199.9688 475.8125,200.1406 C475.9844,200.25 476.1563,200.2813 476.5938,200.2813 L477.6719,200.2813 L475.0313,206.7969 C474.6094,206.7969 474.4531,206.8125 474.2969,206.9219 C474.0469,207.0781 473.8906,207.3594 473.8906,207.6563 C473.8906,208.2188 474.2656,208.5 475.0156,208.5 L477.2813,208.5 C477.6406,208.5 477.8594,208.4688 477.9844,208.375 C478.25,208.2344 478.3906,207.9375 478.3906,207.6563 C478.3906,207.375 478.2656,207.125 478.0469,206.9531 C477.875,206.8281 477.7344,206.7969 477.2813,206.7969 L476.8906,206.7969 L477.2813,205.8125 L481.3281,205.8125 Z M480.625,204.1094 L477.9531,204.1094 L479.2969,200.8438 L480.625,204.1094 Z " fill="#000000"/><text fill="#000000" font-family="sans-serif" font-size="12" font-style="italic" lengthAdjust="spacing" textLength="45" x="499.75" y="208.1543">Tutorial</text><rect fill="#FFFFFF" height="15.9688" style="stroke:#000000;stroke-width:1.0;stroke-dasharray:2.0,2.0;" width="68" x="594" y="185"/><text fill="#000000" font-family="sans-serif" font-size="12" font-style="italic" lengthAdjust="spacing" textLength="66" x="595" y="197.1387">t: ToolType</text><line style="stroke:#A80036;stroke-width:1.5;" x1="424" x2="658" y1="220" y2="220"/><rect fill="none" height="6" style="stroke:#C82930;stroke-width:1.0;" width="6" x="431" y="228"/><text fill="#000000" font-family="sans-serif" font-size="11" lengthAdjust="spacing" textLength="64" x="443" y="234.2104">t: ToolType</text><ellipse cx="434" cy="260.6094" fill="#84BE84" rx="3" ry="3" style="stroke:#038048;stroke-width:1.0;"/><text fill="#000000" font-family="sans-serif" font-size="11" lengthAdjust="spacing" textLength="68" x="443" y="263.8198">start() : void</text><line style="stroke:#A80036;stroke-width:1.5;" x1="424" x2="500.5" y1="247.207" y2="247.207"/><text fill="#000000" font-family="sans-serif" font-size="11" lengthAdjust="spacing" textLength="81" x="500.5" y="250.5151">public method</text><line style="stroke:#A80036;stroke-width:1.5;" x1="581.5" x2="658" y1="247.207" y2="247.207"/><rect fill="#F24D5C" height="6" style="stroke:#C82930;stroke-width:1.0;" width="6" x="431" y="287.2188"/><text fill="#000000" font-family="sans-serif" font-size="11" lengthAdjust="spacing" textLength="151" x="443" y="293.4292">getConfigState() : boolean</text><rect fill="#F24D5C" height="6" style="stroke:#C82930;stroke-width:1.0;" width="6" x="431" y="300.0234"/><text fill="#000000" font-family="sans-serif" font-size="11" lengthAdjust="spacing" textLength="210" x="443" y="306.2339">setConfigState(state: boolean) : void</text><rect fill="#F24D5C" height="6" style="stroke:#C82930;stroke-width:1.0;" width="6" x="431" y="312.8281"/><text fill="#000000" font-family="sans-serif" font-size="11" lengthAdjust="spacing" textLength="94" x="443" y="319.0386">show() : boolean</text><line style="stroke:#A80036;stroke-width:1.5;" x1="424" x2="494" y1="276.8164" y2="276.8164"/><text fill="#000000" font-family="sans-serif" font-size="11" lengthAdjust="spacing" textLength="94" x="494" y="280.1245">private methods</text><line style="stroke:#A80036;stroke-width:1.5;" x1="588" x2="658" y1="276.8164" y2="276.8164"/><rect fill="#F24D5C" height="6" style="stroke:#C82930;stroke-width:1.0;" width="6" x="431" y="342.4375"/><text fill="#000000" font-family="sans-serif" font-size="11" font-style="italic" lengthAdjust="spacing" textLength="84" x="443" y="348.6479">tutorial() : void</text><line style="stroke:#A80036;stroke-width:1.5;" x1="424" x2="491.5" y1="332.0352" y2="332.0352"/><text fill="#000000" font-family="sans-serif" font-size="11" lengthAdjust="spacing" textLength="99" x="491.5" y="335.3433">abstract methods</text><line style="stroke:#A80036;stroke-width:1.5;" x1="590.5" x2="658" y1="332.0352" y2="332.0352"/><!--MD5=[5c39798b83ace9e75333b1274a725e6c]
class ToolType--><rect codeLine="19" fill="#FEFECE" filter="url(#f1jgw9cj6olgkp)" height="86.4141" id="ToolType" style="stroke:#A80036;stroke-width:1.5;" width="91" x="385.5" y="41"/><ellipse cx="401.85" cy="57" fill="#EB937F" rx="11" ry="11" style="stroke:#A80036;stroke-width:1.0;"/><path d="M400.6469,57.875 L402.1,57.875 L402.1,57.9844 C402.1,58.3906 402.1313,58.5469 402.2094,58.7031 C402.3656,58.9531 402.6469,59.1094 402.9438,59.1094 C403.1938,59.1094 403.4594,58.9688 403.6156,58.75 C403.7406,58.5938 403.7719,58.4375 403.7719,57.9844 L403.7719,56.0625 C403.7719,55.9063 403.7719,55.8594 403.7563,55.7031 C403.6938,55.2344 403.3813,54.9219 402.9281,54.9219 C402.6781,54.9219 402.4125,55.0625 402.2406,55.2813 C402.1313,55.4531 402.1,55.6094 402.1,56.0625 L402.1,56.1875 L400.6469,56.1875 L400.6469,53.7813 L404.6313,53.7813 L404.6313,54.6406 C404.6313,55.0469 404.6625,55.2188 404.7406,55.375 C404.9125,55.625 405.1938,55.7813 405.475,55.7813 C405.7406,55.7813 406.0063,55.6406 406.1781,55.4219 C406.2875,55.25 406.3188,55.1094 406.3188,54.6406 L406.3188,52.0938 L398.6938,52.0938 C398.2563,52.0938 398.1313,52.1094 397.975,52.2031 C397.725,52.3594 397.5688,52.6563 397.5688,52.9375 C397.5688,53.2188 397.7094,53.4688 397.9281,53.6406 C398.0844,53.75 398.2719,53.7813 398.6938,53.7813 L398.9438,53.7813 L398.9438,60.2969 L398.6938,60.2969 C398.2875,60.2969 398.1313,60.3125 397.975,60.4219 C397.725,60.5938 397.5688,60.8594 397.5688,61.1563 C397.5688,61.4219 397.7094,61.6719 397.9281,61.8281 C398.0688,61.9531 398.3031,62 398.6938,62 L406.6938,62 L406.6938,59.4219 C406.6938,58.9844 406.6625,58.8438 406.5844,58.6875 C406.4125,58.4375 406.1313,58.2813 405.85,58.2813 C405.5844,58.2813 405.3188,58.3906 405.1469,58.6406 C405.0375,58.7969 405.0063,58.9375 405.0063,59.4219 L405.0063,60.2969 L400.6469,60.2969 L400.6469,57.875 Z " fill="#000000"/><text fill="#000000" font-family="sans-serif" font-size="12" lengthAdjust="spacing" textLength="56" x="416.15" y="61.1543">ToolType</text><line style="stroke:#A80036;stroke-width:1.5;" x1="386.5" x2="475.5" y1="73" y2="73"/><text fill="#000000" font-family="sans-serif" font-size="11" lengthAdjust="spacing" textLength="35" x="391.5" y="87.2104">ZOOM</text><text fill="#000000" font-family="sans-serif" font-size="11" lengthAdjust="spacing" textLength="78" x="391.5" y="100.0151">EYETRACKING</text><text fill="#000000" font-family="sans-serif" font-size="11" lengthAdjust="spacing" textLength="79" x="391.5" y="112.8198">CODECHARTS</text><line style="stroke:#A80036;stroke-width:1.5;" x1="386.5" x2="475.5" y1="119.4141" y2="119.4141"/><path d="M32.5,211 L32.5,236.1328 A0,0 0 0 0 32.5,236.1328 L322.5,236.1328 A0,0 0 0 0 322.5,236.1328 L322.5,229 L427,260.0117 L322.5,221 L322.5,221 L312.5,211 L32.5,211 A0,0 0 0 0 32.5,211 " fill="#FBFB77" filter="url(#f1jgw9cj6olgkp)" style="stroke:#A80036;stroke-width:1.0;"/><path d="M312.5,211 L312.5,221 L322.5,221 L312.5,211 " fill="#FBFB77" style="stroke:#A80036;stroke-width:1.0;"/><text fill="#000000" font-family="sans-serif" font-size="13" lengthAdjust="spacing" textLength="269" x="38.5" y="228.0669">Startet Tutorial, beinhaltet interne Aufrufe</text><path d="M32.5,246.1328 L32.5,286.3984 A0,0 0 0 0 32.5,286.3984 L322.5,286.3984 A0,0 0 0 0 322.5,286.3984 L322.5,270.2656 L427,289.6211 L322.5,262.2656 L322.5,256.1328 L312.5,246.1328 L32.5,246.1328 A0,0 0 0 0 32.5,246.1328 " fill="#FBFB77" filter="url(#f1jgw9cj6olgkp)" style="stroke:#A80036;stroke-width:1.0;"/><path d="M312.5,246.1328 L312.5,256.1328 L322.5,256.1328 L312.5,246.1328 " fill="#FBFB77" style="stroke:#A80036;stroke-width:1.0;"/><text fill="#000000" font-family="sans-serif" font-size="13" lengthAdjust="spacing" textLength="269" x="38.5" y="263.1997">Sendet eine Anfrage an das Config-Modul,</text><text fill="#000000" font-family="sans-serif" font-size="13" lengthAdjust="spacing" textLength="206" x="38.5" y="278.3325">abhängig vom Typ des Tutorials</text><path d="M32.5,296.3984 L32.5,321.5313 A0,0 0 0 0 32.5,321.5313 L387.5,321.5313 A0,0 0 0 0 387.5,321.5313 L387.5,314.3984 L427,344.8398 L387.5,306.3984 L387.5,306.3984 L377.5,296.3984 L32.5,296.3984 A0,0 0 0 0 32.5,296.3984 " fill="#FBFB77" filter="url(#f1jgw9cj6olgkp)" style="stroke:#A80036;stroke-width:1.0;"/><path d="M377.5,296.3984 L377.5,306.3984 L387.5,306.3984 L377.5,296.3984 " fill="#FBFB77" style="stroke:#A80036;stroke-width:1.0;"/><text fill="#000000" font-family="sans-serif" font-size="13" lengthAdjust="spacing" textLength="334" x="38.5" y="313.4653">Beinhaltet eigentliche Implementierung der Tutorials</text><!--MD5=[626b00d2609f42ba755c8afb6d5f2b59]
class Bild--><rect codeLine="44" fill="#FEFECE" filter="url(#f1jgw9cj6olgkp)" height="73.6094" id="Bild" style="stroke:#A80036;stroke-width:1.5;" width="147" x="511.5" y="47"/><ellipse cx="569.75" cy="63" fill="#A9DCDF" rx="11" ry="11" style="stroke:#A80036;stroke-width:1.0;"/><path d="M571.8281,64.8125 L572.2188,65.7969 L571.8281,65.7969 C571.375,65.7969 571.2656,65.8125 571.1094,65.9219 C570.8594,66.0781 570.7031,66.3594 570.7031,66.6563 C570.7031,66.9219 570.8438,67.1719 571.0625,67.3281 C571.2031,67.4531 571.4063,67.5 571.8281,67.5 L574.1875,67.5 C574.5469,67.5 574.7656,67.4688 574.9063,67.375 C575.1563,67.2344 575.3125,66.9375 575.3125,66.6563 C575.3125,66.375 575.1719,66.125 574.9531,65.9688 C574.7813,65.8281 574.625,65.7969 574.1563,65.7969 L570.7656,57.5938 L567.0938,57.5938 C566.6406,57.5938 566.5156,57.6094 566.3594,57.7031 C566.1094,57.875 565.9531,58.1563 565.9531,58.4375 C565.9531,58.7188 566.0938,58.9688 566.3125,59.1406 C566.4844,59.25 566.6563,59.2813 567.0938,59.2813 L568.1719,59.2813 L565.5313,65.7969 C565.1094,65.7969 564.9531,65.8125 564.7969,65.9219 C564.5469,66.0781 564.3906,66.3594 564.3906,66.6563 C564.3906,67.2188 564.7656,67.5 565.5156,67.5 L567.7813,67.5 C568.1406,67.5 568.3594,67.4688 568.4844,67.375 C568.75,67.2344 568.8906,66.9375 568.8906,66.6563 C568.8906,66.375 568.7656,66.125 568.5469,65.9531 C568.375,65.8281 568.2344,65.7969 567.7813,65.7969 L567.3906,65.7969 L567.7813,64.8125 L571.8281,64.8125 Z M571.125,63.1094 L568.4531,63.1094 L569.7969,59.8438 L571.125,63.1094 Z " fill="#000000"/><text fill="#000000" font-family="sans-serif" font-size="12" font-style="italic" lengthAdjust="spacing" textLength="22" x="590.25" y="67.1543">Bild</text><line style="stroke:#A80036;stroke-width:1.5;" x1="512.5" x2="657.5" y1="79" y2="79"/><line style="stroke:#A80036;stroke-width:1.5;" x1="512.5" x2="657.5" y1="87" y2="87"/><ellipse cx="522.5" cy="98" fill="#84BE84" rx="3" ry="3" style="stroke:#038048;stroke-width:1.0;"/><text fill="#000000" font-family="sans-serif" font-size="11" lengthAdjust="spacing" textLength="121" x="531.5" y="101.2104">load(url: String) : void</text><ellipse cx="522.5" cy="110.8047" fill="#84BE84" rx="3" ry="3" style="stroke:#038048;stroke-width:1.0;"/><text fill="#000000" font-family="sans-serif" font-size="11" lengthAdjust="spacing" textLength="72" x="531.5" y="114.0151">show() : void</text><!--MD5=[60c9ed31c535bee25c55ce21b5b01399]
class Data--><rect codeLine="49" fill="#FEFECE" filter="url(#f1jgw9cj6olgkp)" height="86.4141" id="Data" style="stroke:#A80036;stroke-width:1.5;" width="112" x="135" y="41"/><ellipse cx="173.85" cy="57" fill="#ADD1B2" rx="11" ry="11" style="stroke:#A80036;stroke-width:1.0;"/><path d="M176.1938,52.6719 C175.2563,52.2344 174.6625,52.0938 173.7875,52.0938 C171.1625,52.0938 169.1625,54.1719 169.1625,56.8906 L169.1625,58.0156 C169.1625,60.5938 171.2719,62.4844 174.1625,62.4844 C175.3813,62.4844 176.5375,62.1875 177.2875,61.6406 C177.8656,61.2344 178.1938,60.7813 178.1938,60.3906 C178.1938,59.9375 177.8031,59.5469 177.3344,59.5469 C177.1156,59.5469 176.9125,59.625 176.725,59.8125 C176.2719,60.2969 176.2719,60.2969 176.0844,60.3906 C175.6625,60.6563 174.975,60.7813 174.2094,60.7813 C172.1625,60.7813 170.8656,59.6875 170.8656,57.9844 L170.8656,56.8906 C170.8656,55.1094 172.1156,53.7969 173.85,53.7969 C174.4281,53.7969 175.0375,53.9531 175.5063,54.2031 C175.9906,54.4844 176.1625,54.7031 176.2563,55.1094 C176.3188,55.5156 176.35,55.6406 176.4906,55.7656 C176.6313,55.9063 176.8656,56.0156 177.0844,56.0156 C177.35,56.0156 177.6156,55.875 177.7875,55.6563 C177.8969,55.5 177.9281,55.3125 177.9281,54.8906 L177.9281,53.4688 C177.9281,53.0313 177.9125,52.9063 177.8188,52.75 C177.6625,52.4844 177.3813,52.3438 177.0844,52.3438 C176.7875,52.3438 176.5844,52.4375 176.3656,52.75 L176.1938,52.6719 Z " fill="#000000"/><text fill="#000000" font-family="sans-serif" font-size="12" lengthAdjust="spacing" textLength="27" x="193.15" y="61.1543">Data</text><line style="stroke:#A80036;stroke-width:1.5;" x1="136" x2="246" y1="73" y2="73"/><ellipse cx="146" cy="84" rx="3" ry="3" style="stroke:#038048;stroke-width:1.0;fill:none;"/><text fill="#000000" font-family="sans-serif" font-size="11" lengthAdjust="spacing" textLength="86" x="155" y="87.2104">type: ToolType</text><ellipse cx="146" cy="96.8047" rx="3" ry="3" style="stroke:#038048;stroke-width:1.0;fill:none;"/><text fill="#000000" font-family="sans-serif" font-size="11" lengthAdjust="spacing" textLength="82" x="155" y="100.0151">data: unknown</text><ellipse cx="146" cy="109.6094" rx="3" ry="3" style="stroke:#038048;stroke-width:1.0;fill:none;"/><text fill="#000000" font-family="sans-serif" font-size="11" lengthAdjust="spacing" textLength="71" x="155" y="112.8198">config_id: int</text><line style="stroke:#A80036;stroke-width:1.5;" x1="136" x2="246" y1="119.4141" y2="119.4141"/><!--MD5=[9767bd966f4d33191914ccb96558e57c]
class ZoomInput--><rect codeLine="62" fill="#FEFECE" filter="url(#f1jgw9cj6olgkp)" height="73.6094" id="ZoomInput" style="stroke:#A80036;stroke-width:1.5;" width="114" x="873" y="455"/><ellipse cx="895.65" cy="471" fill="#ADD1B2" rx="11" ry="11" style="stroke:#A80036;stroke-width:1.0;"/><path d="M897.9938,466.6719 C897.0563,466.2344 896.4625,466.0938 895.5875,466.0938 C892.9625,466.0938 890.9625,468.1719 890.9625,470.8906 L890.9625,472.0156 C890.9625,474.5938 893.0719,476.4844 895.9625,476.4844 C897.1813,476.4844 898.3375,476.1875 899.0875,475.6406 C899.6656,475.2344 899.9938,474.7813 899.9938,474.3906 C899.9938,473.9375 899.6031,473.5469 899.1344,473.5469 C898.9156,473.5469 898.7125,473.625 898.525,473.8125 C898.0719,474.2969 898.0719,474.2969 897.8844,474.3906 C897.4625,474.6563 896.775,474.7813 896.0094,474.7813 C893.9625,474.7813 892.6656,473.6875 892.6656,471.9844 L892.6656,470.8906 C892.6656,469.1094 893.9156,467.7969 895.65,467.7969 C896.2281,467.7969 896.8375,467.9531 897.3063,468.2031 C897.7906,468.4844 897.9625,468.7031 898.0563,469.1094 C898.1188,469.5156 898.15,469.6406 898.2906,469.7656 C898.4313,469.9063 898.6656,470.0156 898.8844,470.0156 C899.15,470.0156 899.4156,469.875 899.5875,469.6563 C899.6969,469.5 899.7281,469.3125 899.7281,468.8906 L899.7281,467.4688 C899.7281,467.0313 899.7125,466.9063 899.6188,466.75 C899.4625,466.4844 899.1813,466.3438 898.8844,466.3438 C898.5875,466.3438 898.3844,466.4375 898.1656,466.75 L897.9938,466.6719 Z " fill="#000000"/><text fill="#000000" font-family="sans-serif" font-size="12" lengthAdjust="spacing" textLength="65" x="911.35" y="475.1543">ZoomInput</text><line style="stroke:#A80036;stroke-width:1.5;" x1="874" x2="986" y1="487" y2="487"/><line style="stroke:#A80036;stroke-width:1.5;" x1="874" x2="986" y1="495" y2="495"/><rect fill="#F24D5C" height="6" style="stroke:#C82930;stroke-width:1.0;" width="6" x="881" y="503"/><text fill="#000000" font-family="sans-serif" font-size="11" lengthAdjust="spacing" textLength="83" x="893" y="509.2104">onClick() : void</text><rect fill="#F24D5C" height="6" style="stroke:#C82930;stroke-width:1.0;" width="6" x="881" y="515.8047"/><text fill="#000000" font-family="sans-serif" font-size="11" lengthAdjust="spacing" textLength="88" x="893" y="522.0151">onScroll() : void</text><path d="M1022,479.5 L1022,488 L987.111,492 L1022,496 L1022,504.6328 A0,0 0 0 0 1022,504.6328 L1522,504.6328 A0,0 0 0 0 1522,504.6328 L1522,489.5 L1512,479.5 L1022,479.5 A0,0 0 0 0 1022,479.5 " fill="#FBFB77" filter="url(#f1jgw9cj6olgkp)" style="stroke:#A80036;stroke-width:1.0;"/><path d="M1512,479.5 L1512,489.5 L1522,489.5 L1512,479.5 " fill="#FBFB77" style="stroke:#A80036;stroke-width:1.0;"/><text fill="#000000" font-family="sans-serif" font-size="13" lengthAdjust="spacing" textLength="479" x="1028" y="496.5669">Kann sich noch ändern, je nachdem wie Schnittstelle zum System aussieht</text><!--MD5=[e6f9a0eef67c9f7cee45e688f45a88fd]
class ZoomTutorial--><rect codeLine="73" fill="#FEFECE" filter="url(#f1jgw9cj6olgkp)" height="60.8047" id="ZoomTutorial" style="stroke:#A80036;stroke-width:1.5;" width="112" x="485" y="461.5"/><ellipse cx="500" cy="477.5" fill="#ADD1B2" rx="11" ry="11" style="stroke:#A80036;stroke-width:1.0;"/><path d="M502.3438,473.1719 C501.4063,472.7344 500.8125,472.5938 499.9375,472.5938 C497.3125,472.5938 495.3125,474.6719 495.3125,477.3906 L495.3125,478.5156 C495.3125,481.0938 497.4219,482.9844 500.3125,482.9844 C501.5313,482.9844 502.6875,482.6875 503.4375,482.1406 C504.0156,481.7344 504.3438,481.2813 504.3438,480.8906 C504.3438,480.4375 503.9531,480.0469 503.4844,480.0469 C503.2656,480.0469 503.0625,480.125 502.875,480.3125 C502.4219,480.7969 502.4219,480.7969 502.2344,480.8906 C501.8125,481.1563 501.125,481.2813 500.3594,481.2813 C498.3125,481.2813 497.0156,480.1875 497.0156,478.4844 L497.0156,477.3906 C497.0156,475.6094 498.2656,474.2969 500,474.2969 C500.5781,474.2969 501.1875,474.4531 501.6563,474.7031 C502.1406,474.9844 502.3125,475.2031 502.4063,475.6094 C502.4688,476.0156 502.5,476.1406 502.6406,476.2656 C502.7813,476.4063 503.0156,476.5156 503.2344,476.5156 C503.5,476.5156 503.7656,476.375 503.9375,476.1563 C504.0469,476 504.0781,475.8125 504.0781,475.3906 L504.0781,473.9688 C504.0781,473.5313 504.0625,473.4063 503.9688,473.25 C503.8125,472.9844 503.5313,472.8438 503.2344,472.8438 C502.9375,472.8438 502.7344,472.9375 502.5156,473.25 L502.3438,473.1719 Z " fill="#000000"/><text fill="#000000" font-family="sans-serif" font-size="12" lengthAdjust="spacing" textLength="80" x="514" y="481.6543">ZoomTutorial</text><line style="stroke:#A80036;stroke-width:1.5;" x1="486" x2="596" y1="493.5" y2="493.5"/><line style="stroke:#A80036;stroke-width:1.5;" x1="486" x2="596" y1="501.5" y2="501.5"/><rect fill="#F24D5C" height="6" style="stroke:#C82930;stroke-width:1.0;" width="6" x="493" y="509.5"/><text fill="#000000" font-family="sans-serif" font-size="11" lengthAdjust="spacing" textLength="82" x="505" y="515.7104">tutorial() : void</text><!--MD5=[72b9880496439479a2cac04af8a355bc]
class ZoomCalculator--><rect codeLine="78" fill="#FEFECE" filter="url(#f1jgw9cj6olgkp)" height="150.4375" id="ZoomCalculator" style="stroke:#A80036;stroke-width:1.5;" width="252" x="609" y="606"/><ellipse cx="683.25" cy="622" fill="#ADD1B2" rx="11" ry="11" style="stroke:#A80036;stroke-width:1.0;"/><path d="M685.5938,617.6719 C684.6563,617.2344 684.0625,617.0938 683.1875,617.0938 C680.5625,617.0938 678.5625,619.1719 678.5625,621.8906 L678.5625,623.0156 C678.5625,625.5938 680.6719,627.4844 683.5625,627.4844 C684.7813,627.4844 685.9375,627.1875 686.6875,626.6406 C687.2656,626.2344 687.5938,625.7813 687.5938,625.3906 C687.5938,624.9375 687.2031,624.5469 686.7344,624.5469 C686.5156,624.5469 686.3125,624.625 686.125,624.8125 C685.6719,625.2969 685.6719,625.2969 685.4844,625.3906 C685.0625,625.6563 684.375,625.7813 683.6094,625.7813 C681.5625,625.7813 680.2656,624.6875 680.2656,622.9844 L680.2656,621.8906 C680.2656,620.1094 681.5156,618.7969 683.25,618.7969 C683.8281,618.7969 684.4375,618.9531 684.9063,619.2031 C685.3906,619.4844 685.5625,619.7031 685.6563,620.1094 C685.7188,620.5156 685.75,620.6406 685.8906,620.7656 C686.0313,620.9063 686.2656,621.0156 686.4844,621.0156 C686.75,621.0156 687.0156,620.875 687.1875,620.6563 C687.2969,620.5 687.3281,620.3125 687.3281,619.8906 L687.3281,618.4688 C687.3281,618.0313 687.3125,617.9063 687.2188,617.75 C687.0625,617.4844 686.7813,617.3438 686.4844,617.3438 C686.1875,617.3438 685.9844,617.4375 685.7656,617.75 L685.5938,617.6719 Z " fill="#000000"/><text fill="#000000" font-family="sans-serif" font-size="12" lengthAdjust="spacing" textLength="95" x="703.75" y="626.1543">ZoomCalculator</text><line style="stroke:#A80036;stroke-width:1.5;" x1="610" x2="860" y1="638" y2="638"/><rect fill="none" height="6" style="stroke:#C82930;stroke-width:1.0;" width="6" x="617" y="646"/><text fill="#000000" font-family="sans-serif" font-size="11" lengthAdjust="spacing" textLength="68" x="629" y="652.2104">speed: float</text><rect fill="none" height="6" style="stroke:#C82930;stroke-width:1.0;" width="6" x="617" y="658.8047"/><text fill="#000000" font-family="sans-serif" font-size="11" lengthAdjust="spacing" textLength="91" x="629" y="665.0151">position: float[3]</text><rect fill="none" height="6" style="stroke:#C82930;stroke-width:1.0;" width="6" x="617" y="671.6094"/><text fill="#000000" font-family="sans-serif" font-size="11" lengthAdjust="spacing" textLength="59" x="629" y="677.8198">data: Data</text><ellipse cx="620" cy="704.2188" fill="#84BE84" rx="3" ry="3" style="stroke:#038048;stroke-width:1.0;"/><text fill="#000000" font-family="sans-serif" font-size="11" lengthAdjust="spacing" textLength="226" x="629" y="707.4292">processInput(raw_input: unknown) : void</text><ellipse cx="620" cy="717.0234" fill="#84BE84" rx="3" ry="3" style="stroke:#038048;stroke-width:1.0;"/><text fill="#000000" font-family="sans-serif" font-size="11" lengthAdjust="spacing" textLength="93" x="629" y="720.2339">save() : boolean</text><line style="stroke:#A80036;stroke-width:1.5;" x1="610" x2="694.5" y1="690.8164" y2="690.8164"/><text fill="#000000" font-family="sans-serif" font-size="11" lengthAdjust="spacing" textLength="81" x="694.5" y="694.1245">public method</text><line style="stroke:#A80036;stroke-width:1.5;" x1="775.5" x2="860" y1="690.8164" y2="690.8164"/><rect fill="#F24D5C" height="6" style="stroke:#C82930;stroke-width:1.0;" width="6" x="617" y="743.6328"/><text fill="#000000" font-family="sans-serif" font-size="11" lengthAdjust="spacing" textLength="221" x="629" y="749.8433">calculate(raw_input: unknown) : float[3]</text><line style="stroke:#A80036;stroke-width:1.5;" x1="610" x2="688" y1="733.2305" y2="733.2305"/><text fill="#000000" font-family="sans-serif" font-size="11" lengthAdjust="spacing" textLength="94" x="688" y="736.5386">private methods</text><line style="stroke:#A80036;stroke-width:1.5;" x1="782" x2="860" y1="733.2305" y2="733.2305"/><path d="M896.5,668.5 L896.5,677 L861.079,681 L896.5,685 L896.5,693.6328 A0,0 0 0 0 896.5,693.6328 L1143.5,693.6328 A0,0 0 0 0 1143.5,693.6328 L1143.5,678.5 L1133.5,668.5 L896.5,668.5 A0,0 0 0 0 896.5,668.5 " fill="#FBFB77" filter="url(#f1jgw9cj6olgkp)" style="stroke:#A80036;stroke-width:1.0;"/><path d="M1133.5,668.5 L1133.5,678.5 L1143.5,678.5 L1133.5,668.5 " fill="#FBFB77" style="stroke:#A80036;stroke-width:1.0;"/><text fill="#000000" font-family="sans-serif" font-size="13" lengthAdjust="spacing" textLength="226" x="902.5" y="685.5669">Typ von raw_input noch unbekannt</text><!--MD5=[90447d4191c16dafea1a917a3aa79093]
class ZoomBild--><rect codeLine="95" fill="#FEFECE" filter="url(#f1jgw9cj6olgkp)" height="60.8047" id="ZoomBild" style="stroke:#A80036;stroke-width:1.5;" width="205" x="632.5" y="461.5"/><ellipse cx="701.75" cy="477.5" fill="#ADD1B2" rx="11" ry="11" style="stroke:#A80036;stroke-width:1.0;"/><path d="M704.0938,473.1719 C703.1563,472.7344 702.5625,472.5938 701.6875,472.5938 C699.0625,472.5938 697.0625,474.6719 697.0625,477.3906 L697.0625,478.5156 C697.0625,481.0938 699.1719,482.9844 702.0625,482.9844 C703.2813,482.9844 704.4375,482.6875 705.1875,482.1406 C705.7656,481.7344 706.0938,481.2813 706.0938,480.8906 C706.0938,480.4375 705.7031,480.0469 705.2344,480.0469 C705.0156,480.0469 704.8125,480.125 704.625,480.3125 C704.1719,480.7969 704.1719,480.7969 703.9844,480.8906 C703.5625,481.1563 702.875,481.2813 702.1094,481.2813 C700.0625,481.2813 698.7656,480.1875 698.7656,478.4844 L698.7656,477.3906 C698.7656,475.6094 700.0156,474.2969 701.75,474.2969 C702.3281,474.2969 702.9375,474.4531 703.4063,474.7031 C703.8906,474.9844 704.0625,475.2031 704.1563,475.6094 C704.2188,476.0156 704.25,476.1406 704.3906,476.2656 C704.5313,476.4063 704.7656,476.5156 704.9844,476.5156 C705.25,476.5156 705.5156,476.375 705.6875,476.1563 C705.7969,476 705.8281,475.8125 705.8281,475.3906 L705.8281,473.9688 C705.8281,473.5313 705.8125,473.4063 705.7188,473.25 C705.5625,472.9844 705.2813,472.8438 704.9844,472.8438 C704.6875,472.8438 704.4844,472.9375 704.2656,473.25 L704.0938,473.1719 Z " fill="#000000"/><text fill="#000000" font-family="sans-serif" font-size="12" lengthAdjust="spacing" textLength="58" x="722.25" y="481.6543">ZoomBild</text><line style="stroke:#A80036;stroke-width:1.5;" x1="633.5" x2="836.5" y1="493.5" y2="493.5"/><line style="stroke:#A80036;stroke-width:1.5;" x1="633.5" x2="836.5" y1="501.5" y2="501.5"/><ellipse cx="643.5" cy="512.5" fill="#84BE84" rx="3" ry="3" style="stroke:#038048;stroke-width:1.0;"/><text fill="#000000" font-family="sans-serif" font-size="11" lengthAdjust="spacing" textLength="179" x="652.5" y="515.7104">move(position: float[3]): float[3]</text><polygon fill="#FFFFFF" filter="url(#f1jgw9cj6olgkp)" points="378,465.5,436,465.5,443,487.7969,450,487.7969,450,518.0938,378,518.0938,378,465.5" style="stroke:#000000;stroke-width:1.5;"/><line style="stroke:#000000;stroke-width:1.5;" x1="378" x2="443" y1="487.7969" y2="487.7969"/><text fill="#000000" font-family="sans-serif" font-size="14" font-weight="bold" lengthAdjust="spacing" textLength="52" x="382" y="480.4951">Config</text><polygon fill="#FFFFFF" filter="url(#f1jgw9cj6olgkp)" points="659,835,797,835,804,857.2969,811,857.2969,811,887.5938,659,887.5938,659,835" style="stroke:#000000;stroke-width:1.5;"/><line style="stroke:#000000;stroke-width:1.5;" x1="659" x2="804" y1="857.2969" y2="857.2969"/><text fill="#000000" font-family="sans-serif" font-size="14" font-weight="bold" lengthAdjust="spacing" textLength="132" x="663" y="849.9951">SpeicherMedium</text><!--MD5=[abea0b42432aea0f9ce66e53feda8644]
entity System--><ellipse cx="930" cy="271.5" fill="#DA70D5" filter="url(#f1jgw9cj6olgkp)" rx="8" ry="8" style="stroke:#A80036;stroke-width:1.5;"/><text fill="#000000" font-family="sans-serif" font-size="14" lengthAdjust="spacing" textLength="54" x="903" y="301.4951">System</text><!--MD5=[752ada4883e89279aa677b65655ebc35]
link Tutorial$$$LEFT to Tutorial--><!--MD5=[e72ca73ac73eca3f18a81a671fe51a7c]
link ToolType to Tutorial--><path codeLine="38" d="M455.961,127.093 C466.673,145.158 479.579,166.922 492.063,187.974 " fill="none" id="ToolType-Tutorial" style="stroke:#A80036;stroke-width:1.0;"/><!--MD5=[fc4ffdc4bb2ac5a3cd1bd4c856213de4]
link Tutorial to Config--><path codeLine="39" d="M492.987,355.105 C470.228,394.261 444.643,438.279 428.922,465.326 " fill="none" id="Tutorial-Config" style="stroke:#A80036;stroke-width:1.0;"/><!--MD5=[91cffcbb8234028742b6ac8b9b57d54f]
reverse link Bild to ZoomBild--><path codeLine="101" d="M640.26,135.95 C654.17,151.415 667.756,169.3 677,188 C722.688,280.426 732.46,405.178 734.498,461.38 " fill="none" id="Bild-backto-ZoomBild" style="stroke:#A80036;stroke-width:1.0;"/><polygon fill="none" points="635.092,140.672,626.392,121.351,645.242,131.03,635.092,140.672" style="stroke:#A80036;stroke-width:1.0;"/><!--MD5=[74bcaaa80c1f5666ddc668b1a184278c]
reverse link Tutorial to ZoomTutorial--><path codeLine="102" d="M541,375.554 C541,406.989 541,439.11 541,461.463 " fill="none" id="Tutorial-backto-ZoomTutorial" style="stroke:#A80036;stroke-width:1.0;"/><polygon fill="none" points="534,375.106,541,355.105,548,375.105,534,375.106" style="stroke:#A80036;stroke-width:1.0;"/><!--MD5=[2708804abe4d1091750fa48cfee7ac00]
link ZoomInput to ZoomCalculator--><path codeLine="105" d="M892.402,529.055 C869.714,550.813 839.961,579.345 812.437,605.74 " fill="none" id="ZoomInput-ZoomCalculator" style="stroke:#A80036;stroke-width:1.0;"/><!--MD5=[f1d0f4197788e2c83cd56df3430af640]
link ZoomBild to ZoomCalculator--><path codeLine="106" d="M735,522.631 C735,544.979 735,576.652 735,605.731 " fill="none" id="ZoomBild-ZoomCalculator" style="stroke:#A80036;stroke-width:1.0;"/><polygon fill="#000000" points="740,562.5664,737.0611,571.6115,742.9389,571.6115,740,562.5664" style="stroke:#000000;stroke-width:1.0;"/><text fill="#000000" font-family="sans-serif" font-size="13" lengthAdjust="spacing" textLength="44" x="749" y="572.0669">moves</text><!--MD5=[ab94cbc2495622a03fec4b24390f5618]
link ZoomCalculator to SpeicherMedium--><path codeLine="109" d="M735,756.149 C735,784.119 735,814.1265 735,834.7501 " fill="none" id="ZoomCalculator-SpeicherMedium" style="stroke:#A80036;stroke-width:1.0;"/><polygon fill="#000000" points="740,801.5664,742.9389,792.5213,737.0611,792.5213,740,801.5664" style="stroke:#000000;stroke-width:1.0;"/><text fill="#000000" font-family="sans-serif" font-size="13" lengthAdjust="spacing" textLength="73" x="749" y="801.0669">saves Data</text><!--MD5=[1dd3167bd21ea9adc9b14ed1a4dd4238]
link Config to ZoomCalculator--><path codeLine="110" d="M450.182,517.146 C456.415,521.173 462.863,525.255 469,529 C514.102,556.524 564.328,585.464 608.881,610.56 " fill="none" id="Config-ZoomCalculator" style="stroke:#A80036;stroke-width:1.0;"/><polygon fill="#000000" points="551.3089,570.1028,545.0048,562.9817,542.0232,568.0472,551.3089,570.1028" style="stroke:#000000;stroke-width:1.0;"/><text fill="#000000" font-family="sans-serif" font-size="13" lengthAdjust="spacing" textLength="39" x="556" y="572.0669">speed</text><!--MD5=[a66380e3caa08a1b9c02995811f0cc12]
link System to ZoomInput--><path codeLine="111" d="M930,280.536 C930,308.407 930,402.076 930,454.568 " fill="none" id="System-ZoomInput" style="stroke:#A80036;stroke-width:1.0;"/><polygon fill="#000000" points="935,390.5664,932.0611,399.6115,937.9389,399.6115,935,390.5664" style="stroke:#000000;stroke-width:1.0;"/><text fill="#000000" font-family="sans-serif" font-size="13" lengthAdjust="spacing" textLength="58" x="944" y="400.0669">listens to</text><!--MD5=[a9601ebed30c3427f978e357924874eb]
@startuml
' skinparam backgroundColor transparent
() System #DA70D5
top to bottom direction

package Util {
    ' - - - TUTORIAL - - -
    abstract Tutorial<t: ToolType> {
      - t: ToolType
      __public method__
      + start() : void
      __private methods__
      - getConfigState() : boolean
      - setConfigState(state: boolean) : void
      - show() : boolean
      __abstract methods__
      - {abstract} tutorial() : void
    }

    enum ToolType {
      ZOOM
      EYETRACKING
      CODECHARTS
    }

    ' Notes
    note left of Tutorial::start
        Startet Tutorial, beinhaltet interne Aufrufe
    end note
    note left of Tutorial::getConfigState
        Sendet eine Anfrage an das Config-Modul,
        abhängig vom Typ des Tutorials
    end note
    note left of Tutorial::tutorial
        Beinhaltet eigentliche Implementierung der Tutorials
    end note

    ' Interaktionen
    Tutorial -u- ToolType
    Tutorial -d- Config


    ' - - - BILD - - -

    abstract Bild {
      + load(url: String) : void
      + show() : void
    }

    class Data {
        + type: ToolType
        + data: unknown
        + config_id: int
    }
}



' === ZOOM MAPS ===
package ZoomMaps {

    ' Zoom Input
    class ZoomInput {
        - onClick() : void
        - onScroll() : void
    }

    ' Notiz
    note right of ZoomInput
        Kann sich noch ändern, je nachdem wie Schnittstelle zum System aussieht
    end note

    ' Zoom Tutorial
    class ZoomTutorial {
        - tutorial() : void
    }

    ' Zoom Calculator
    class ZoomCalculator {
        - speed: float
        - position: float[3]
        - data: Data
        __public method__
        + processInput(raw_input: unknown) : void
        + save() : boolean
        __private methods__
        - calculate(raw_input: unknown) : float[3]
    }

    ' Notiz
    note right of ZoomCalculator
        Typ von raw_input noch unbekannt
    end note

    ' Zoom Bild
    class ZoomBild {
        + move(position: float[3]): float[3]
    }


    ' Vererbungen
    Bild <|- - ZoomBild
    Tutorial <|- - ZoomTutorial

    ' Interaktionen
    ZoomInput -d- ZoomCalculator
    ZoomCalculator  -u- ZoomBild : > moves

    ' Andere Module
    ZoomCalculator - - SpeicherMedium : > saves Data
    ZoomCalculator -l- Config : < speed
    ZoomInput -u- System : > listens to

}

' Blackboxen / Andere Module
package Config {}

package SpeicherMedium {}
@enduml

@startuml
() System #DA70D5
top to bottom direction

package Util {
    abstract Tutorial<t: ToolType> {
      - t: ToolType
      __public method__
      + start() : void
      __private methods__
      - getConfigState() : boolean
      - setConfigState(state: boolean) : void
      - show() : boolean
      __abstract methods__
      - {abstract} tutorial() : void
    }

    enum ToolType {
      ZOOM
      EYETRACKING
      CODECHARTS
    }

    note left of Tutorial::start
        Startet Tutorial, beinhaltet interne Aufrufe
    end note
    note left of Tutorial::getConfigState
        Sendet eine Anfrage an das Config-Modul,
        abhängig vom Typ des Tutorials
    end note
    note left of Tutorial::tutorial
        Beinhaltet eigentliche Implementierung der Tutorials
    end note

    Tutorial -u- ToolType
    Tutorial -d- Config



    abstract Bild {
      + load(url: String) : void
      + show() : void
    }

    class Data {
        + type: ToolType
        + data: unknown
        + config_id: int
    }
}



package ZoomMaps {

    class ZoomInput {
        - onClick() : void
        - onScroll() : void
    }

    note right of ZoomInput
        Kann sich noch ändern, je nachdem wie Schnittstelle zum System aussieht
    end note

    class ZoomTutorial {
        - tutorial() : void
    }

    class ZoomCalculator {
        - speed: float
        - position: float[3]
        - data: Data
        __public method__
        + processInput(raw_input: unknown) : void
        + save() : boolean
        __private methods__
        - calculate(raw_input: unknown) : float[3]
    }

    note right of ZoomCalculator
        Typ von raw_input noch unbekannt
    end note

    class ZoomBild {
        + move(position: float[3]): float[3]
    }


    Bild <|- - ZoomBild
    Tutorial <|- - ZoomTutorial

    ZoomInput -d- ZoomCalculator
    ZoomCalculator  -u- ZoomBild : > moves

    ZoomCalculator - - SpeicherMedium : > saves Data
    ZoomCalculator -l- Config : < speed
    ZoomInput -u- System : > listens to

}

package Config {}

package SpeicherMedium {}
@enduml

PlantUML version 1.2021.14beta3(Unknown compile time)
(GPL source distribution)
Java Runtime: Java(TM) SE Runtime Environment
JVM: Java HotSpot(TM) 64-Bit Server VM
Default Encoding: UTF-8
Language: en
Country: US
--></g></svg>