<?xml version="1.0" encoding="UTF-8" standalone="no"?><svg xmlns="http://www.w3.org/2000/svg" xmlns:xlink="http://www.w3.org/1999/xlink" contentScriptType="application/ecmascript" contentStyleType="text/css" height="894px" preserveAspectRatio="none" style="width:1590px;height:894px;background:#FFFFFF;" version="1.1" viewBox="0 0 1590 894" width="1590px" zoomAndPan="magnify"><defs><filter height="300%" id="ffgcbl33aq1b0" width="300%" x="-1" y="-1"><feGaussianBlur result="blurOut" stdDeviation="2.0"/><feColorMatrix in="blurOut" result="blurOut2" type="matrix" values="0 0 0 0 0 0 0 0 0 0 0 0 0 0 0 0 0 0 .4 0"/><feOffset dx="4.0" dy="4.0" in="blurOut2" result="blurOut3"/><feBlend in="SourceGraphic" in2="blurOut3" mode="normal"/></filter></defs><g><!--MD5=[a55135535b5c544b99c33b17428c3b14]
cluster Util--><polygon fill="#FFFFFF" filter="url(#ffgcbl33aq1b0)" points="16,6,51,6,58,28.2969,675,28.2969,675,371,16,371,16,6" style="stroke:#000000;stroke-width:1.5;"/><line style="stroke:#000000;stroke-width:1.5;" x1="16" x2="58" y1="28.2969" y2="28.2969"/><text fill="#000000" font-family="sans-serif" font-size="14" font-weight="bold" lengthAdjust="spacing" textLength="29" x="20" y="20.9951">Util</text><!--MD5=[7d78d958a1816327b68dab5e38143fdd]
cluster ZoomMaps--><polygon fill="#FFFFFF" filter="url(#ffgcbl33aq1b0)" points="434,420,529,420,536,442.2969,1573,442.2969,1573,772,434,772,434,420" style="stroke:#000000;stroke-width:1.5;"/><line style="stroke:#000000;stroke-width:1.5;" x1="434" x2="536" y1="442.2969" y2="442.2969"/><text fill="#000000" font-family="sans-serif" font-size="14" font-weight="bold" lengthAdjust="spacing" textLength="89" x="438" y="434.9951">ZoomMaps</text><!--MD5=[fccc419d627b37790932ddb688fb7ad6]
class Tutorial--><rect codeLine="7" fill="#FEFECE" filter="url(#ffgcbl33aq1b0)" height="167.2422" id="Tutorial" style="stroke:#A80036;stroke-width:1.5;" width="236" x="423" y="188"/><ellipse cx="479.25" cy="204" fill="#A9DCDF" rx="11" ry="11" style="stroke:#A80036;stroke-width:1.0;"/><path d="M481.3281,205.8125 L481.7188,206.7969 L481.3281,206.7969 C480.875,206.7969 480.7656,206.8125 480.6094,206.9219 C480.3594,207.0781 480.2031,207.3594 480.2031,207.6563 C480.2031,207.9219 480.3438,208.1719 480.5625,208.3281 C480.7031,208.4531 480.9063,208.5 481.3281,208.5 L483.6875,208.5 C484.0469,208.5 484.2656,208.4688 484.4063,208.375 C484.6563,208.2344 484.8125,207.9375 484.8125,207.6563 C484.8125,207.375 484.6719,207.125 484.4531,206.9688 C484.2813,206.8281 484.125,206.7969 483.6563,206.7969 L480.2656,198.5938 L476.5938,198.5938 C476.1406,198.5938 476.0156,198.6094 475.8594,198.7031 C475.6094,198.875 475.4531,199.1563 475.4531,199.4375 C475.4531,199.7188 475.5938,199.9688 475.8125,200.1406 C475.9844,200.25 476.1563,200.2813 476.5938,200.2813 L477.6719,200.2813 L475.0313,206.7969 C474.6094,206.7969 474.4531,206.8125 474.2969,206.9219 C474.0469,207.0781 473.8906,207.3594 473.8906,207.6563 C473.8906,208.2188 474.2656,208.5 475.0156,208.5 L477.2813,208.5 C477.6406,208.5 477.8594,208.4688 477.9844,208.375 C478.25,208.2344 478.3906,207.9375 478.3906,207.6563 C478.3906,207.375 478.2656,207.125 478.0469,206.9531 C477.875,206.8281 477.7344,206.7969 477.2813,206.7969 L476.8906,206.7969 L477.2813,205.8125 L481.3281,205.8125 Z M480.625,204.1094 L477.9531,204.1094 L479.2969,200.8438 L480.625,204.1094 Z " fill="#000000"/><text fill="#000000" font-family="sans-serif" font-size="12" font-style="italic" lengthAdjust="spacing" textLength="45" x="499.75" y="208.1543">Tutorial</text><rect fill="#FFFFFF" height="15.9688" style="stroke:#000000;stroke-width:1.0;stroke-dasharray:2.0,2.0;" width="68" x="594" y="185"/><text fill="#000000" font-family="sans-serif" font-size="12" font-style="italic" lengthAdjust="spacing" textLength="66" x="595" y="197.1387">t: ToolType</text><line style="stroke:#A80036;stroke-width:1.5;" x1="424" x2="658" y1="220" y2="220"/><rect fill="none" height="6" style="stroke:#C82930;stroke-width:1.0;" width="6" x="431" y="228"/><text fill="#000000" font-family="sans-serif" font-size="11" lengthAdjust="spacing" textLength="64" x="443" y="234.2104">t: ToolType</text><ellipse cx="434" cy="260.6094" fill="#84BE84" rx="3" ry="3" style="stroke:#038048;stroke-width:1.0;"/><text fill="#000000" font-family="sans-serif" font-size="11" lengthAdjust="spacing" textLength="68" x="443" y="263.8198">start() : void</text><line style="stroke:#A80036;stroke-width:1.5;" x1="424" x2="500.5" y1="247.207" y2="247.207"/><text fill="#000000" font-family="sans-serif" font-size="11" lengthAdjust="spacing" textLength="81" x="500.5" y="250.5151">public method</text><line style="stroke:#A80036;stroke-width:1.5;" x1="581.5" x2="658" y1="247.207" y2="247.207"/><rect fill="#F24D5C" height="6" style="stroke:#C82930;stroke-width:1.0;" width="6" x="431" y="287.2188"/><text fill="#000000" font-family="sans-serif" font-size="11" lengthAdjust="spacing" textLength="151" x="443" y="293.4292">getConfigState() : boolean</text><rect fill="#F24D5C" height="6" style="stroke:#C82930;stroke-width:1.0;" width="6" x="431" y="300.0234"/><text fill="#000000" font-family="sans-serif" font-size="11" lengthAdjust="spacing" textLength="210" x="443" y="306.2339">setConfigState(state: boolean) : void</text><rect fill="#F24D5C" height="6" style="stroke:#C82930;stroke-width:1.0;" width="6" x="431" y="312.8281"/><text fill="#000000" font-family="sans-serif" font-size="11" lengthAdjust="spacing" textLength="94" x="443" y="319.0386">show() : boolean</text><line style="stroke:#A80036;stroke-width:1.5;" x1="424" x2="494" y1="276.8164" y2="276.8164"/><text fill="#000000" font-family="sans-serif" font-size="11" lengthAdjust="spacing" textLength="94" x="494" y="280.1245">private methods</text><line style="stroke:#A80036;stroke-width:1.5;" x1="588" x2="658" y1="276.8164" y2="276.8164"/><rect fill="#F24D5C" height="6" style="stroke:#C82930;stroke-width:1.0;" width="6" x="431" y="342.4375"/><text fill="#000000" font-family="sans-serif" font-size="11" font-style="italic" lengthAdjust="spacing" textLength="84" x="443" y="348.6479">tutorial() : void</text><line style="stroke:#A80036;stroke-width:1.5;" x1="424" x2="491.5" y1="332.0352" y2="332.0352"/><text fill="#000000" font-family="sans-serif" font-size="11" lengthAdjust="spacing" textLength="99" x="491.5" y="335.3433">abstract methods</text><line style="stroke:#A80036;stroke-width:1.5;" x1="590.5" x2="658" y1="332.0352" y2="332.0352"/><!--MD5=[5c39798b83ace9e75333b1274a725e6c]
class ToolType--><rect codeLine="19" fill="#FEFECE" filter="url(#ffgcbl33aq1b0)" height="86.4141" id="ToolType" style="stroke:#A80036;stroke-width:1.5;" width="91" x="221.5" y="41"/><ellipse cx="237.85" cy="57" fill="#EB937F" rx="11" ry="11" style="stroke:#A80036;stroke-width:1.0;"/><path d="M236.6469,57.875 L238.1,57.875 L238.1,57.9844 C238.1,58.3906 238.1313,58.5469 238.2094,58.7031 C238.3656,58.9531 238.6469,59.1094 238.9438,59.1094 C239.1938,59.1094 239.4594,58.9688 239.6156,58.75 C239.7406,58.5938 239.7719,58.4375 239.7719,57.9844 L239.7719,56.0625 C239.7719,55.9063 239.7719,55.8594 239.7563,55.7031 C239.6938,55.2344 239.3813,54.9219 238.9281,54.9219 C238.6781,54.9219 238.4125,55.0625 238.2406,55.2813 C238.1313,55.4531 238.1,55.6094 238.1,56.0625 L238.1,56.1875 L236.6469,56.1875 L236.6469,53.7813 L240.6313,53.7813 L240.6313,54.6406 C240.6313,55.0469 240.6625,55.2188 240.7406,55.375 C240.9125,55.625 241.1938,55.7813 241.475,55.7813 C241.7406,55.7813 242.0063,55.6406 242.1781,55.4219 C242.2875,55.25 242.3188,55.1094 242.3188,54.6406 L242.3188,52.0938 L234.6938,52.0938 C234.2563,52.0938 234.1313,52.1094 233.975,52.2031 C233.725,52.3594 233.5688,52.6563 233.5688,52.9375 C233.5688,53.2188 233.7094,53.4688 233.9281,53.6406 C234.0844,53.75 234.2719,53.7813 234.6938,53.7813 L234.9438,53.7813 L234.9438,60.2969 L234.6938,60.2969 C234.2875,60.2969 234.1313,60.3125 233.975,60.4219 C233.725,60.5938 233.5688,60.8594 233.5688,61.1563 C233.5688,61.4219 233.7094,61.6719 233.9281,61.8281 C234.0688,61.9531 234.3031,62 234.6938,62 L242.6938,62 L242.6938,59.4219 C242.6938,58.9844 242.6625,58.8438 242.5844,58.6875 C242.4125,58.4375 242.1313,58.2813 241.85,58.2813 C241.5844,58.2813 241.3188,58.3906 241.1469,58.6406 C241.0375,58.7969 241.0063,58.9375 241.0063,59.4219 L241.0063,60.2969 L236.6469,60.2969 L236.6469,57.875 Z " fill="#000000"/><text fill="#000000" font-family="sans-serif" font-size="12" lengthAdjust="spacing" textLength="56" x="252.15" y="61.1543">ToolType</text><line style="stroke:#A80036;stroke-width:1.5;" x1="222.5" x2="311.5" y1="73" y2="73"/><text fill="#000000" font-family="sans-serif" font-size="11" lengthAdjust="spacing" textLength="35" x="227.5" y="87.2104">ZOOM</text><text fill="#000000" font-family="sans-serif" font-size="11" lengthAdjust="spacing" textLength="78" x="227.5" y="100.0151">EYETRACKING</text><text fill="#000000" font-family="sans-serif" font-size="11" lengthAdjust="spacing" textLength="79" x="227.5" y="112.8198">CODECHARTS</text><line style="stroke:#A80036;stroke-width:1.5;" x1="222.5" x2="311.5" y1="119.4141" y2="119.4141"/><path d="M32.5,211 L32.5,236.1328 A0,0 0 0 0 32.5,236.1328 L322.5,236.1328 A0,0 0 0 0 322.5,236.1328 L322.5,229 L427,260.0117 L322.5,221 L322.5,221 L312.5,211 L32.5,211 A0,0 0 0 0 32.5,211 " fill="#FBFB77" filter="url(#ffgcbl33aq1b0)" style="stroke:#A80036;stroke-width:1.0;"/><path d="M312.5,211 L312.5,221 L322.5,221 L312.5,211 " fill="#FBFB77" style="stroke:#A80036;stroke-width:1.0;"/><text fill="#000000" font-family="sans-serif" font-size="13" lengthAdjust="spacing" textLength="269" x="38.5" y="228.0669">Startet Tutorial, beinhaltet interne Aufrufe</text><path d="M32.5,246.1328 L32.5,286.3984 A0,0 0 0 0 32.5,286.3984 L322.5,286.3984 A0,0 0 0 0 322.5,286.3984 L322.5,270.2656 L427,289.6211 L322.5,262.2656 L322.5,256.1328 L312.5,246.1328 L32.5,246.1328 A0,0 0 0 0 32.5,246.1328 " fill="#FBFB77" filter="url(#ffgcbl33aq1b0)" style="stroke:#A80036;stroke-width:1.0;"/><path d="M312.5,246.1328 L312.5,256.1328 L322.5,256.1328 L312.5,246.1328 " fill="#FBFB77" style="stroke:#A80036;stroke-width:1.0;"/><text fill="#000000" font-family="sans-serif" font-size="13" lengthAdjust="spacing" textLength="269" x="38.5" y="263.1997">Sendet eine Anfrage an das Config-Modul,</text><text fill="#000000" font-family="sans-serif" font-size="13" lengthAdjust="spacing" textLength="206" x="38.5" y="278.3325">abhängig vom Typ des Tutorials</text><path d="M32.5,296.3984 L32.5,321.5313 A0,0 0 0 0 32.5,321.5313 L387.5,321.5313 A0,0 0 0 0 387.5,321.5313 L387.5,314.3984 L427,344.8398 L387.5,306.3984 L387.5,306.3984 L377.5,296.3984 L32.5,296.3984 A0,0 0 0 0 32.5,296.3984 " fill="#FBFB77" filter="url(#ffgcbl33aq1b0)" style="stroke:#A80036;stroke-width:1.0;"/><path d="M377.5,296.3984 L377.5,306.3984 L387.5,306.3984 L377.5,296.3984 " fill="#FBFB77" style="stroke:#A80036;stroke-width:1.0;"/><text fill="#000000" font-family="sans-serif" font-size="13" lengthAdjust="spacing" textLength="334" x="38.5" y="313.4653">Beinhaltet eigentliche Implementierung der Tutorials</text><!--MD5=[60c9ed31c535bee25c55ce21b5b01399]
class Data--><rect codeLine="50" fill="#FEFECE" filter="url(#ffgcbl33aq1b0)" height="86.4141" id="Data" style="stroke:#A80036;stroke-width:1.5;" width="129" x="347.5" y="41"/><ellipse cx="362.5" cy="57" fill="#ADD1B2" rx="11" ry="11" style="stroke:#A80036;stroke-width:1.0;"/><path d="M364.8438,52.6719 C363.9063,52.2344 363.3125,52.0938 362.4375,52.0938 C359.8125,52.0938 357.8125,54.1719 357.8125,56.8906 L357.8125,58.0156 C357.8125,60.5938 359.9219,62.4844 362.8125,62.4844 C364.0313,62.4844 365.1875,62.1875 365.9375,61.6406 C366.5156,61.2344 366.8438,60.7813 366.8438,60.3906 C366.8438,59.9375 366.4531,59.5469 365.9844,59.5469 C365.7656,59.5469 365.5625,59.625 365.375,59.8125 C364.9219,60.2969 364.9219,60.2969 364.7344,60.3906 C364.3125,60.6563 363.625,60.7813 362.8594,60.7813 C360.8125,60.7813 359.5156,59.6875 359.5156,57.9844 L359.5156,56.8906 C359.5156,55.1094 360.7656,53.7969 362.5,53.7969 C363.0781,53.7969 363.6875,53.9531 364.1563,54.2031 C364.6406,54.4844 364.8125,54.7031 364.9063,55.1094 C364.9688,55.5156 365,55.6406 365.1406,55.7656 C365.2813,55.9063 365.5156,56.0156 365.7344,56.0156 C366,56.0156 366.2656,55.875 366.4375,55.6563 C366.5469,55.5 366.5781,55.3125 366.5781,54.8906 L366.5781,53.4688 C366.5781,53.0313 366.5625,52.9063 366.4688,52.75 C366.3125,52.4844 366.0313,52.3438 365.7344,52.3438 C365.4375,52.3438 365.2344,52.4375 365.0156,52.75 L364.8438,52.6719 Z " fill="#000000"/><text fill="#000000" font-family="sans-serif" font-size="12" lengthAdjust="spacing" textLength="27" x="376.5" y="61.1543">Data</text><rect fill="#FFFFFF" height="15.9688" style="stroke:#000000;stroke-width:1.0;stroke-dasharray:2.0,2.0;" width="68" x="411.5" y="38"/><text fill="#000000" font-family="sans-serif" font-size="12" font-style="italic" lengthAdjust="spacing" textLength="66" x="412.5" y="50.1387">t: ToolType</text><line style="stroke:#A80036;stroke-width:1.5;" x1="348.5" x2="475.5" y1="73" y2="73"/><ellipse cx="358.5" cy="84" rx="3" ry="3" style="stroke:#038048;stroke-width:1.0;fill:none;"/><text fill="#000000" font-family="sans-serif" font-size="11" lengthAdjust="spacing" textLength="64" x="367.5" y="87.2104">t: ToolType</text><ellipse cx="358.5" cy="96.8047" rx="3" ry="3" style="stroke:#038048;stroke-width:1.0;fill:none;"/><text fill="#000000" font-family="sans-serif" font-size="11" lengthAdjust="spacing" textLength="82" x="367.5" y="100.0151">data: unknown</text><ellipse cx="358.5" cy="109.6094" rx="3" ry="3" style="stroke:#038048;stroke-width:1.0;fill:none;"/><text fill="#000000" font-family="sans-serif" font-size="11" lengthAdjust="spacing" textLength="71" x="367.5" y="112.8198">config_id: int</text><line style="stroke:#A80036;stroke-width:1.5;" x1="348.5" x2="475.5" y1="119.4141" y2="119.4141"/><!--MD5=[626b00d2609f42ba755c8afb6d5f2b59]
class Bild--><rect codeLine="45" fill="#FEFECE" filter="url(#ffgcbl33aq1b0)" height="73.6094" id="Bild" style="stroke:#A80036;stroke-width:1.5;" width="147" x="511.5" y="47"/><ellipse cx="569.75" cy="63" fill="#A9DCDF" rx="11" ry="11" style="stroke:#A80036;stroke-width:1.0;"/><path d="M571.8281,64.8125 L572.2188,65.7969 L571.8281,65.7969 C571.375,65.7969 571.2656,65.8125 571.1094,65.9219 C570.8594,66.0781 570.7031,66.3594 570.7031,66.6563 C570.7031,66.9219 570.8438,67.1719 571.0625,67.3281 C571.2031,67.4531 571.4063,67.5 571.8281,67.5 L574.1875,67.5 C574.5469,67.5 574.7656,67.4688 574.9063,67.375 C575.1563,67.2344 575.3125,66.9375 575.3125,66.6563 C575.3125,66.375 575.1719,66.125 574.9531,65.9688 C574.7813,65.8281 574.625,65.7969 574.1563,65.7969 L570.7656,57.5938 L567.0938,57.5938 C566.6406,57.5938 566.5156,57.6094 566.3594,57.7031 C566.1094,57.875 565.9531,58.1563 565.9531,58.4375 C565.9531,58.7188 566.0938,58.9688 566.3125,59.1406 C566.4844,59.25 566.6563,59.2813 567.0938,59.2813 L568.1719,59.2813 L565.5313,65.7969 C565.1094,65.7969 564.9531,65.8125 564.7969,65.9219 C564.5469,66.0781 564.3906,66.3594 564.3906,66.6563 C564.3906,67.2188 564.7656,67.5 565.5156,67.5 L567.7813,67.5 C568.1406,67.5 568.3594,67.4688 568.4844,67.375 C568.75,67.2344 568.8906,66.9375 568.8906,66.6563 C568.8906,66.375 568.7656,66.125 568.5469,65.9531 C568.375,65.8281 568.2344,65.7969 567.7813,65.7969 L567.3906,65.7969 L567.7813,64.8125 L571.8281,64.8125 Z M571.125,63.1094 L568.4531,63.1094 L569.7969,59.8438 L571.125,63.1094 Z " fill="#000000"/><text fill="#000000" font-family="sans-serif" font-size="12" font-style="italic" lengthAdjust="spacing" textLength="22" x="590.25" y="67.1543">Bild</text><line style="stroke:#A80036;stroke-width:1.5;" x1="512.5" x2="657.5" y1="79" y2="79"/><line style="stroke:#A80036;stroke-width:1.5;" x1="512.5" x2="657.5" y1="87" y2="87"/><ellipse cx="522.5" cy="98" fill="#84BE84" rx="3" ry="3" style="stroke:#038048;stroke-width:1.0;"/><text fill="#000000" font-family="sans-serif" font-size="11" lengthAdjust="spacing" textLength="121" x="531.5" y="101.2104">load(url: String) : void</text><ellipse cx="522.5" cy="110.8047" fill="#84BE84" rx="3" ry="3" style="stroke:#038048;stroke-width:1.0;"/><text fill="#000000" font-family="sans-serif" font-size="11" lengthAdjust="spacing" textLength="72" x="531.5" y="114.0151">show() : void</text><!--MD5=[9767bd966f4d33191914ccb96558e57c]
class ZoomInput--><rect codeLine="63" fill="#FEFECE" filter="url(#ffgcbl33aq1b0)" height="73.6094" id="ZoomInput" style="stroke:#A80036;stroke-width:1.5;" width="114" x="908" y="455"/><ellipse cx="930.65" cy="471" fill="#ADD1B2" rx="11" ry="11" style="stroke:#A80036;stroke-width:1.0;"/><path d="M932.9938,466.6719 C932.0563,466.2344 931.4625,466.0938 930.5875,466.0938 C927.9625,466.0938 925.9625,468.1719 925.9625,470.8906 L925.9625,472.0156 C925.9625,474.5938 928.0719,476.4844 930.9625,476.4844 C932.1813,476.4844 933.3375,476.1875 934.0875,475.6406 C934.6656,475.2344 934.9938,474.7813 934.9938,474.3906 C934.9938,473.9375 934.6031,473.5469 934.1344,473.5469 C933.9156,473.5469 933.7125,473.625 933.525,473.8125 C933.0719,474.2969 933.0719,474.2969 932.8844,474.3906 C932.4625,474.6563 931.775,474.7813 931.0094,474.7813 C928.9625,474.7813 927.6656,473.6875 927.6656,471.9844 L927.6656,470.8906 C927.6656,469.1094 928.9156,467.7969 930.65,467.7969 C931.2281,467.7969 931.8375,467.9531 932.3063,468.2031 C932.7906,468.4844 932.9625,468.7031 933.0563,469.1094 C933.1188,469.5156 933.15,469.6406 933.2906,469.7656 C933.4313,469.9063 933.6656,470.0156 933.8844,470.0156 C934.15,470.0156 934.4156,469.875 934.5875,469.6563 C934.6969,469.5 934.7281,469.3125 934.7281,468.8906 L934.7281,467.4688 C934.7281,467.0313 934.7125,466.9063 934.6188,466.75 C934.4625,466.4844 934.1813,466.3438 933.8844,466.3438 C933.5875,466.3438 933.3844,466.4375 933.1656,466.75 L932.9938,466.6719 Z " fill="#000000"/><text fill="#000000" font-family="sans-serif" font-size="12" lengthAdjust="spacing" textLength="65" x="946.35" y="475.1543">ZoomInput</text><line style="stroke:#A80036;stroke-width:1.5;" x1="909" x2="1021" y1="487" y2="487"/><line style="stroke:#A80036;stroke-width:1.5;" x1="909" x2="1021" y1="495" y2="495"/><rect fill="#F24D5C" height="6" style="stroke:#C82930;stroke-width:1.0;" width="6" x="916" y="503"/><text fill="#000000" font-family="sans-serif" font-size="11" lengthAdjust="spacing" textLength="83" x="928" y="509.2104">onClick() : void</text><rect fill="#F24D5C" height="6" style="stroke:#C82930;stroke-width:1.0;" width="6" x="916" y="515.8047"/><text fill="#000000" font-family="sans-serif" font-size="11" lengthAdjust="spacing" textLength="88" x="928" y="522.0151">onScroll() : void</text><path d="M1057,479.5 L1057,488 L1022.11,492 L1057,496 L1057,504.6328 A0,0 0 0 0 1057,504.6328 L1557,504.6328 A0,0 0 0 0 1557,504.6328 L1557,489.5 L1547,479.5 L1057,479.5 A0,0 0 0 0 1057,479.5 " fill="#FBFB77" filter="url(#ffgcbl33aq1b0)" style="stroke:#A80036;stroke-width:1.0;"/><path d="M1547,479.5 L1547,489.5 L1557,489.5 L1547,479.5 " fill="#FBFB77" style="stroke:#A80036;stroke-width:1.0;"/><text fill="#000000" font-family="sans-serif" font-size="13" lengthAdjust="spacing" textLength="479" x="1063" y="496.5669">Kann sich noch ändern, je nachdem wie Schnittstelle zum System aussieht</text><!--MD5=[e6f9a0eef67c9f7cee45e688f45a88fd]
class ZoomTutorial--><rect codeLine="74" fill="#FEFECE" filter="url(#ffgcbl33aq1b0)" height="60.8047" id="ZoomTutorial" style="stroke:#A80036;stroke-width:1.5;" width="182" x="450" y="461.5"/><ellipse cx="465" cy="477.5" fill="#ADD1B2" rx="11" ry="11" style="stroke:#A80036;stroke-width:1.0;"/><path d="M467.3438,473.1719 C466.4063,472.7344 465.8125,472.5938 464.9375,472.5938 C462.3125,472.5938 460.3125,474.6719 460.3125,477.3906 L460.3125,478.5156 C460.3125,481.0938 462.4219,482.9844 465.3125,482.9844 C466.5313,482.9844 467.6875,482.6875 468.4375,482.1406 C469.0156,481.7344 469.3438,481.2813 469.3438,480.8906 C469.3438,480.4375 468.9531,480.0469 468.4844,480.0469 C468.2656,480.0469 468.0625,480.125 467.875,480.3125 C467.4219,480.7969 467.4219,480.7969 467.2344,480.8906 C466.8125,481.1563 466.125,481.2813 465.3594,481.2813 C463.3125,481.2813 462.0156,480.1875 462.0156,478.4844 L462.0156,477.3906 C462.0156,475.6094 463.2656,474.2969 465,474.2969 C465.5781,474.2969 466.1875,474.4531 466.6563,474.7031 C467.1406,474.9844 467.3125,475.2031 467.4063,475.6094 C467.4688,476.0156 467.5,476.1406 467.6406,476.2656 C467.7813,476.4063 468.0156,476.5156 468.2344,476.5156 C468.5,476.5156 468.7656,476.375 468.9375,476.1563 C469.0469,476 469.0781,475.8125 469.0781,475.3906 L469.0781,473.9688 C469.0781,473.5313 469.0625,473.4063 468.9688,473.25 C468.8125,472.9844 468.5313,472.8438 468.2344,472.8438 C467.9375,472.8438 467.7344,472.9375 467.5156,473.25 L467.3438,473.1719 Z " fill="#000000"/><text fill="#000000" font-family="sans-serif" font-size="12" lengthAdjust="spacing" textLength="80" x="479" y="481.6543">ZoomTutorial</text><rect fill="#FFFFFF" height="15.9688" style="stroke:#000000;stroke-width:1.0;stroke-dasharray:2.0,2.0;" width="68" x="567" y="458.5"/><text fill="#000000" font-family="sans-serif" font-size="12" font-style="italic" lengthAdjust="spacing" textLength="66" x="568" y="470.6387">t: ToolType</text><line style="stroke:#A80036;stroke-width:1.5;" x1="451" x2="631" y1="493.5" y2="493.5"/><line style="stroke:#A80036;stroke-width:1.5;" x1="451" x2="631" y1="501.5" y2="501.5"/><rect fill="#F24D5C" height="6" style="stroke:#C82930;stroke-width:1.0;" width="6" x="458" y="509.5"/><text fill="#000000" font-family="sans-serif" font-size="11" lengthAdjust="spacing" textLength="82" x="470" y="515.7104">tutorial() : void</text><!--MD5=[72b9880496439479a2cac04af8a355bc]
class ZoomCalculator--><rect codeLine="79" fill="#FEFECE" filter="url(#ffgcbl33aq1b0)" height="150.4375" id="ZoomCalculator" style="stroke:#A80036;stroke-width:1.5;" width="252" x="644" y="606"/><ellipse cx="718.25" cy="622" fill="#ADD1B2" rx="11" ry="11" style="stroke:#A80036;stroke-width:1.0;"/><path d="M720.5938,617.6719 C719.6563,617.2344 719.0625,617.0938 718.1875,617.0938 C715.5625,617.0938 713.5625,619.1719 713.5625,621.8906 L713.5625,623.0156 C713.5625,625.5938 715.6719,627.4844 718.5625,627.4844 C719.7813,627.4844 720.9375,627.1875 721.6875,626.6406 C722.2656,626.2344 722.5938,625.7813 722.5938,625.3906 C722.5938,624.9375 722.2031,624.5469 721.7344,624.5469 C721.5156,624.5469 721.3125,624.625 721.125,624.8125 C720.6719,625.2969 720.6719,625.2969 720.4844,625.3906 C720.0625,625.6563 719.375,625.7813 718.6094,625.7813 C716.5625,625.7813 715.2656,624.6875 715.2656,622.9844 L715.2656,621.8906 C715.2656,620.1094 716.5156,618.7969 718.25,618.7969 C718.8281,618.7969 719.4375,618.9531 719.9063,619.2031 C720.3906,619.4844 720.5625,619.7031 720.6563,620.1094 C720.7188,620.5156 720.75,620.6406 720.8906,620.7656 C721.0313,620.9063 721.2656,621.0156 721.4844,621.0156 C721.75,621.0156 722.0156,620.875 722.1875,620.6563 C722.2969,620.5 722.3281,620.3125 722.3281,619.8906 L722.3281,618.4688 C722.3281,618.0313 722.3125,617.9063 722.2188,617.75 C722.0625,617.4844 721.7813,617.3438 721.4844,617.3438 C721.1875,617.3438 720.9844,617.4375 720.7656,617.75 L720.5938,617.6719 Z " fill="#000000"/><text fill="#000000" font-family="sans-serif" font-size="12" lengthAdjust="spacing" textLength="95" x="738.75" y="626.1543">ZoomCalculator</text><line style="stroke:#A80036;stroke-width:1.5;" x1="645" x2="895" y1="638" y2="638"/><rect fill="none" height="6" style="stroke:#C82930;stroke-width:1.0;" width="6" x="652" y="646"/><text fill="#000000" font-family="sans-serif" font-size="11" lengthAdjust="spacing" textLength="68" x="664" y="652.2104">speed: float</text><rect fill="none" height="6" style="stroke:#C82930;stroke-width:1.0;" width="6" x="652" y="658.8047"/><text fill="#000000" font-family="sans-serif" font-size="11" lengthAdjust="spacing" textLength="91" x="664" y="665.0151">position: float[3]</text><rect fill="none" height="6" style="stroke:#C82930;stroke-width:1.0;" width="6" x="652" y="671.6094"/><text fill="#000000" font-family="sans-serif" font-size="11" lengthAdjust="spacing" textLength="59" x="664" y="677.8198">data: Data</text><ellipse cx="655" cy="704.2188" fill="#84BE84" rx="3" ry="3" style="stroke:#038048;stroke-width:1.0;"/><text fill="#000000" font-family="sans-serif" font-size="11" lengthAdjust="spacing" textLength="226" x="664" y="707.4292">processInput(raw_input: unknown) : void</text><ellipse cx="655" cy="717.0234" fill="#84BE84" rx="3" ry="3" style="stroke:#038048;stroke-width:1.0;"/><text fill="#000000" font-family="sans-serif" font-size="11" lengthAdjust="spacing" textLength="93" x="664" y="720.2339">save() : boolean</text><line style="stroke:#A80036;stroke-width:1.5;" x1="645" x2="729.5" y1="690.8164" y2="690.8164"/><text fill="#000000" font-family="sans-serif" font-size="11" lengthAdjust="spacing" textLength="81" x="729.5" y="694.1245">public method</text><line style="stroke:#A80036;stroke-width:1.5;" x1="810.5" x2="895" y1="690.8164" y2="690.8164"/><rect fill="#F24D5C" height="6" style="stroke:#C82930;stroke-width:1.0;" width="6" x="652" y="743.6328"/><text fill="#000000" font-family="sans-serif" font-size="11" lengthAdjust="spacing" textLength="221" x="664" y="749.8433">calculate(raw_input: unknown) : float[3]</text><line style="stroke:#A80036;stroke-width:1.5;" x1="645" x2="723" y1="733.2305" y2="733.2305"/><text fill="#000000" font-family="sans-serif" font-size="11" lengthAdjust="spacing" textLength="94" x="723" y="736.5386">private methods</text><line style="stroke:#A80036;stroke-width:1.5;" x1="817" x2="895" y1="733.2305" y2="733.2305"/><path d="M931.5,668.5 L931.5,677 L896.079,681 L931.5,685 L931.5,693.6328 A0,0 0 0 0 931.5,693.6328 L1178.5,693.6328 A0,0 0 0 0 1178.5,693.6328 L1178.5,678.5 L1168.5,668.5 L931.5,668.5 A0,0 0 0 0 931.5,668.5 " fill="#FBFB77" filter="url(#ffgcbl33aq1b0)" style="stroke:#A80036;stroke-width:1.0;"/><path d="M1168.5,668.5 L1168.5,678.5 L1178.5,678.5 L1168.5,668.5 " fill="#FBFB77" style="stroke:#A80036;stroke-width:1.0;"/><text fill="#000000" font-family="sans-serif" font-size="13" lengthAdjust="spacing" textLength="226" x="937.5" y="685.5669">Typ von raw_input noch unbekannt</text><!--MD5=[90447d4191c16dafea1a917a3aa79093]
class ZoomBild--><rect codeLine="96" fill="#FEFECE" filter="url(#ffgcbl33aq1b0)" height="60.8047" id="ZoomBild" style="stroke:#A80036;stroke-width:1.5;" width="205" x="667.5" y="461.5"/><ellipse cx="736.75" cy="477.5" fill="#ADD1B2" rx="11" ry="11" style="stroke:#A80036;stroke-width:1.0;"/><path d="M739.0938,473.1719 C738.1563,472.7344 737.5625,472.5938 736.6875,472.5938 C734.0625,472.5938 732.0625,474.6719 732.0625,477.3906 L732.0625,478.5156 C732.0625,481.0938 734.1719,482.9844 737.0625,482.9844 C738.2813,482.9844 739.4375,482.6875 740.1875,482.1406 C740.7656,481.7344 741.0938,481.2813 741.0938,480.8906 C741.0938,480.4375 740.7031,480.0469 740.2344,480.0469 C740.0156,480.0469 739.8125,480.125 739.625,480.3125 C739.1719,480.7969 739.1719,480.7969 738.9844,480.8906 C738.5625,481.1563 737.875,481.2813 737.1094,481.2813 C735.0625,481.2813 733.7656,480.1875 733.7656,478.4844 L733.7656,477.3906 C733.7656,475.6094 735.0156,474.2969 736.75,474.2969 C737.3281,474.2969 737.9375,474.4531 738.4063,474.7031 C738.8906,474.9844 739.0625,475.2031 739.1563,475.6094 C739.2188,476.0156 739.25,476.1406 739.3906,476.2656 C739.5313,476.4063 739.7656,476.5156 739.9844,476.5156 C740.25,476.5156 740.5156,476.375 740.6875,476.1563 C740.7969,476 740.8281,475.8125 740.8281,475.3906 L740.8281,473.9688 C740.8281,473.5313 740.8125,473.4063 740.7188,473.25 C740.5625,472.9844 740.2813,472.8438 739.9844,472.8438 C739.6875,472.8438 739.4844,472.9375 739.2656,473.25 L739.0938,473.1719 Z " fill="#000000"/><text fill="#000000" font-family="sans-serif" font-size="12" lengthAdjust="spacing" textLength="58" x="757.25" y="481.6543">ZoomBild</text><line style="stroke:#A80036;stroke-width:1.5;" x1="668.5" x2="871.5" y1="493.5" y2="493.5"/><line style="stroke:#A80036;stroke-width:1.5;" x1="668.5" x2="871.5" y1="501.5" y2="501.5"/><ellipse cx="678.5" cy="512.5" fill="#84BE84" rx="3" ry="3" style="stroke:#038048;stroke-width:1.0;"/><text fill="#000000" font-family="sans-serif" font-size="11" lengthAdjust="spacing" textLength="179" x="687.5" y="515.7104">move(position: float[3]): float[3]</text><polygon fill="#FFFFFF" filter="url(#ffgcbl33aq1b0)" points="343,465.5,401,465.5,408,487.7969,415,487.7969,415,518.0938,343,518.0938,343,465.5" style="stroke:#000000;stroke-width:1.5;"/><line style="stroke:#000000;stroke-width:1.5;" x1="343" x2="408" y1="487.7969" y2="487.7969"/><text fill="#000000" font-family="sans-serif" font-size="14" font-weight="bold" lengthAdjust="spacing" textLength="52" x="347" y="480.4951">Config</text><polygon fill="#FFFFFF" filter="url(#ffgcbl33aq1b0)" points="694,835,832,835,839,857.2969,846,857.2969,846,887.5938,694,887.5938,694,835" style="stroke:#000000;stroke-width:1.5;"/><line style="stroke:#000000;stroke-width:1.5;" x1="694" x2="839" y1="857.2969" y2="857.2969"/><text fill="#000000" font-family="sans-serif" font-size="14" font-weight="bold" lengthAdjust="spacing" textLength="132" x="698" y="849.9951">SpeicherMedium</text><!--MD5=[abea0b42432aea0f9ce66e53feda8644]
entity System--><ellipse cx="965" cy="271.5" fill="#DA70D5" filter="url(#ffgcbl33aq1b0)" rx="8" ry="8" style="stroke:#A80036;stroke-width:1.5;"/><text fill="#000000" font-family="sans-serif" font-size="14" lengthAdjust="spacing" textLength="54" x="938" y="301.4951">System</text><!--MD5=[752ada4883e89279aa677b65655ebc35]
link Tutorial$$$LEFT to Tutorial--><!--MD5=[e72ca73ac73eca3f18a81a671fe51a7c]
link ToolType to Tutorial--><path codeLine="38" d="M312.553,115.84 C342.76,136.29 383.882,164.13 422.915,190.556 " fill="none" id="ToolType-Tutorial" style="stroke:#A80036;stroke-width:1.0;"/><!--MD5=[9f1a00b177a5ae45176fc1e7f3c0daae]
link Data to ToolType--><path codeLine="39" d="M347.154,84 C335.635,84 324.115,84 312.596,84 " fill="none" id="Data-ToolType" style="stroke:#A80036;stroke-width:1.0;"/><!--MD5=[fc4ffdc4bb2ac5a3cd1bd4c856213de4]
link Tutorial to Config--><path codeLine="40" d="M476.713,355.01 C462.484,373.632 447.6,393.396 434,412 C421.179,429.539 407.196,449.637 396.538,465.172 " fill="none" id="Tutorial-Config" style="stroke:#A80036;stroke-width:1.0;"/><!--MD5=[91cffcbb8234028742b6ac8b9b57d54f]
reverse link Bild to ZoomBild--><path codeLine="102" d="M638.232,135.844 C652.367,151.503 666.578,169.517 677,188 C729.027,280.268 755.395,405.1 765.276,461.351 " fill="none" id="Bild-backto-ZoomBild" style="stroke:#A80036;stroke-width:1.0;"/><polygon fill="none" points="632.898,140.39,624.265,121.039,643.081,130.783,632.898,140.39" style="stroke:#A80036;stroke-width:1.0;"/><!--MD5=[74bcaaa80c1f5666ddc668b1a184278c]
reverse link Tutorial to ZoomTutorial--><path codeLine="103" d="M541,375.554 C541,406.989 541,439.11 541,461.463 " fill="none" id="Tutorial-backto-ZoomTutorial" style="stroke:#A80036;stroke-width:1.0;"/><polygon fill="none" points="534,375.106,541,355.105,548,375.105,534,375.106" style="stroke:#A80036;stroke-width:1.0;"/><!--MD5=[2708804abe4d1091750fa48cfee7ac00]
link ZoomInput to ZoomCalculator--><path codeLine="106" d="M927.402,529.055 C904.714,550.813 874.961,579.345 847.437,605.74 " fill="none" id="ZoomInput-ZoomCalculator" style="stroke:#A80036;stroke-width:1.0;"/><!--MD5=[f1d0f4197788e2c83cd56df3430af640]
link ZoomBild to ZoomCalculator--><path codeLine="107" d="M770,522.631 C770,544.979 770,576.652 770,605.731 " fill="none" id="ZoomBild-ZoomCalculator" style="stroke:#A80036;stroke-width:1.0;"/><polygon fill="#000000" points="775,562.5664,772.0611,571.6115,777.9389,571.6115,775,562.5664" style="stroke:#000000;stroke-width:1.0;"/><text fill="#000000" font-family="sans-serif" font-size="13" lengthAdjust="spacing" textLength="44" x="784" y="572.0669">moves</text><!--MD5=[ab94cbc2495622a03fec4b24390f5618]
link ZoomCalculator to SpeicherMedium--><path codeLine="110" d="M770,756.149 C770,784.119 770,814.1265 770,834.7501 " fill="none" id="ZoomCalculator-SpeicherMedium" style="stroke:#A80036;stroke-width:1.0;"/><polygon fill="#000000" points="775,801.5664,777.9389,792.5213,772.0611,792.5213,775,801.5664" style="stroke:#000000;stroke-width:1.0;"/><text fill="#000000" font-family="sans-serif" font-size="13" lengthAdjust="spacing" textLength="73" x="784" y="801.0669">saves Data</text><!--MD5=[1dd3167bd21ea9adc9b14ed1a4dd4238]
link Config to ZoomCalculator--><path codeLine="111" d="M415.192,517.834 C421.368,521.738 427.794,525.602 434,529 C501.454,565.935 579.674,601.488 643.663,628.808 " fill="none" id="Config-ZoomCalculator" style="stroke:#A80036;stroke-width:1.0;"/><polygon fill="#000000" points="534.4975,569.751,527.6455,563.1555,525.0774,568.4426,534.4975,569.751" style="stroke:#000000;stroke-width:1.0;"/><text fill="#000000" font-family="sans-serif" font-size="13" lengthAdjust="spacing" textLength="39" x="539" y="572.0669">speed</text><!--MD5=[a66380e3caa08a1b9c02995811f0cc12]
link System to ZoomInput--><path codeLine="112" d="M965,280.536 C965,308.407 965,402.076 965,454.568 " fill="none" id="System-ZoomInput" style="stroke:#A80036;stroke-width:1.0;"/><polygon fill="#000000" points="970,390.5664,967.0611,399.6115,972.9389,399.6115,970,390.5664" style="stroke:#000000;stroke-width:1.0;"/><text fill="#000000" font-family="sans-serif" font-size="13" lengthAdjust="spacing" textLength="58" x="979" y="400.0669">listens to</text><!--MD5=[ddabe8842c11e0a0782a80df43f7aa5a]
@startuml
' skinparam backgroundColor transparent
() System #DA70D5
top to bottom direction

package Util {
    ' - - - TUTORIAL - - -
    abstract Tutorial<t: ToolType> {
      - t: ToolType
      __public method__
      + start() : void
      __private methods__
      - getConfigState() : boolean
      - setConfigState(state: boolean) : void
      - show() : boolean
      __abstract methods__
      - {abstract} tutorial() : void
    }

    enum ToolType {
      ZOOM
      EYETRACKING
      CODECHARTS
    }

    ' Notes
    note left of Tutorial::start
        Startet Tutorial, beinhaltet interne Aufrufe
    end note
    note left of Tutorial::getConfigState
        Sendet eine Anfrage an das Config-Modul,
        abhängig vom Typ des Tutorials
    end note
    note left of Tutorial::tutorial
        Beinhaltet eigentliche Implementierung der Tutorials
    end note

    ' Interaktionen
    Tutorial -u- ToolType
    Data -r- ToolType
    Tutorial -d- Config


    ' - - - BILD - - -

    abstract Bild {
      + load(url: String) : void
      + show() : void
    }

    class Data<t: ToolType> {
        + t: ToolType
        + data: unknown
        + config_id: int
    }
}



' === ZOOM MAPS ===
package ZoomMaps {

    ' Zoom Input
    class ZoomInput {
        - onClick() : void
        - onScroll() : void
    }

    ' Notiz
    note right of ZoomInput
        Kann sich noch ändern, je nachdem wie Schnittstelle zum System aussieht
    end note

    ' Zoom Tutorial
    class ZoomTutorial<t: ToolType> {
        - tutorial() : void
    }

    ' Zoom Calculator
    class ZoomCalculator {
        - speed: float
        - position: float[3]
        - data: Data
        __public method__
        + processInput(raw_input: unknown) : void
        + save() : boolean
        __private methods__
        - calculate(raw_input: unknown) : float[3]
    }

    ' Notiz
    note right of ZoomCalculator
        Typ von raw_input noch unbekannt
    end note

    ' Zoom Bild
    class ZoomBild {
        + move(position: float[3]): float[3]
    }


    ' Vererbungen
    Bild <|- - ZoomBild
    Tutorial <|- - ZoomTutorial

    ' Interaktionen
    ZoomInput -d- ZoomCalculator
    ZoomCalculator  -u- ZoomBild : > moves

    ' Andere Module
    ZoomCalculator - - SpeicherMedium : > saves Data
    ZoomCalculator -l- Config : < speed
    ZoomInput -u- System : > listens to

}

' Blackboxen / Andere Module
package Config {}

package SpeicherMedium {}
@enduml

@startuml
() System #DA70D5
top to bottom direction

package Util {
    abstract Tutorial<t: ToolType> {
      - t: ToolType
      __public method__
      + start() : void
      __private methods__
      - getConfigState() : boolean
      - setConfigState(state: boolean) : void
      - show() : boolean
      __abstract methods__
      - {abstract} tutorial() : void
    }

    enum ToolType {
      ZOOM
      EYETRACKING
      CODECHARTS
    }

    note left of Tutorial::start
        Startet Tutorial, beinhaltet interne Aufrufe
    end note
    note left of Tutorial::getConfigState
        Sendet eine Anfrage an das Config-Modul,
        abhängig vom Typ des Tutorials
    end note
    note left of Tutorial::tutorial
        Beinhaltet eigentliche Implementierung der Tutorials
    end note

    Tutorial -u- ToolType
    Data -r- ToolType
    Tutorial -d- Config



    abstract Bild {
      + load(url: String) : void
      + show() : void
    }

    class Data<t: ToolType> {
        + t: ToolType
        + data: unknown
        + config_id: int
    }
}



package ZoomMaps {

    class ZoomInput {
        - onClick() : void
        - onScroll() : void
    }

    note right of ZoomInput
        Kann sich noch ändern, je nachdem wie Schnittstelle zum System aussieht
    end note

    class ZoomTutorial<t: ToolType> {
        - tutorial() : void
    }

    class ZoomCalculator {
        - speed: float
        - position: float[3]
        - data: Data
        __public method__
        + processInput(raw_input: unknown) : void
        + save() : boolean
        __private methods__
        - calculate(raw_input: unknown) : float[3]
    }

    note right of ZoomCalculator
        Typ von raw_input noch unbekannt
    end note

    class ZoomBild {
        + move(position: float[3]): float[3]
    }


    Bild <|- - ZoomBild
    Tutorial <|- - ZoomTutorial

    ZoomInput -d- ZoomCalculator
    ZoomCalculator  -u- ZoomBild : > moves

    ZoomCalculator - - SpeicherMedium : > saves Data
    ZoomCalculator -l- Config : < speed
    ZoomInput -u- System : > listens to

}

package Config {}

package SpeicherMedium {}
@enduml

PlantUML version 1.2021.14beta3(Unknown compile time)
(GPL source distribution)
Java Runtime: Java(TM) SE Runtime Environment
JVM: Java HotSpot(TM) 64-Bit Server VM
Default Encoding: UTF-8
Language: en
Country: US
--></g></svg>