<?xml version="1.0" encoding="UTF-8" standalone="no"?><svg xmlns="http://www.w3.org/2000/svg" xmlns:xlink="http://www.w3.org/1999/xlink" contentScriptType="application/ecmascript" contentStyleType="text/css" height="583px" preserveAspectRatio="none" style="width:888px;height:583px;" version="1.1" viewBox="0 0 888 583" width="888px" zoomAndPan="magnify"><defs><filter height="300%" id="ftftvmual2lea" width="300%" x="-1" y="-1"><feGaussianBlur result="blurOut" stdDeviation="2.0"/><feColorMatrix in="blurOut" result="blurOut2" type="matrix" values="0 0 0 0 0 0 0 0 0 0 0 0 0 0 0 0 0 0 .4 0"/><feOffset dx="4.0" dy="4.0" in="blurOut2" result="blurOut3"/><feBlend in="SourceGraphic" in2="blurOut3" mode="normal"/></filter></defs><g><!--cluster AnalyseClient - ZoomMaps - Heatmap(s)--><rect fill="#789DD5" filter="url(#ftftvmual2lea)" height="548" style="stroke: #000000; stroke-width: 1.5;" width="462" x="136" y="24"/><text fill="#000000" font-family="sans-serif" font-size="14" font-weight="bold" lengthAdjust="spacingAndGlyphs" textLength="315" x="209.5" y="38.9951">AnalyseClient - ZoomMaps - Heatmap(s)</text><ellipse cx="366.9527" cy="211.8905" fill="#FEFECE" filter="url(#ftftvmual2lea)" rx="214.9527" ry="45.3905" style="stroke: #A80036; stroke-width: 1.5;"/><text fill="#000000" font-family="sans-serif" font-size="14" lengthAdjust="spacingAndGlyphs" textLength="135" x="299.4527" y="196.2421">Versuch auswählen</text><line style="stroke: #A80036; stroke-width: 1.0; stroke-dasharray: 1.0,2.0;" x1="161.1049" x2="572.8004" y1="199.5439" y2="199.5439"/><text fill="#000000" font-family="sans-serif" font-size="14" lengthAdjust="spacingAndGlyphs" textLength="416" x="158.9527" y="216.539">der konkrete Versuch in dem ZoomMaps verwendet wurden</text><ellipse cx="366.8083" cy="87.0617" fill="#FEFECE" filter="url(#ftftvmual2lea)" rx="128.3083" ry="28.0617" style="stroke: #A80036; stroke-width: 1.5;"/><text fill="#000000" font-family="sans-serif" font-size="14" lengthAdjust="spacingAndGlyphs" textLength="237" x="248.3083" y="91.7101">Versuch zum Vergleich auswählen</text><ellipse cx="367.1396" cy="320.9084" fill="#FEFECE" filter="url(#ftftvmual2lea)" rx="98.1396" ry="28.4084" style="stroke: #A80036; stroke-width: 1.5;"/><text fill="#000000" font-family="sans-serif" font-size="14" lengthAdjust="spacingAndGlyphs" textLength="123" x="305.6396" y="314.3191">Daten anschauen</text><line style="stroke: #A80036; stroke-width: 1.0; stroke-dasharray: 1.0,2.0;" x1="270.6594" x2="463.6198" y1="317.6209" y2="317.6209"/><text fill="#000000" font-family="sans-serif" font-size="14" lengthAdjust="spacingAndGlyphs" textLength="140" x="297.1396" y="334.616">Generierte Heatmap</text><ellipse cx="367.0051" cy="430.801" fill="#FEFECE" filter="url(#ftftvmual2lea)" rx="134.5051" ry="29.301" style="stroke: #A80036; stroke-width: 1.5;"/><text fill="#000000" font-family="sans-serif" font-size="14" lengthAdjust="spacingAndGlyphs" textLength="125" x="304.5051" y="420.4572">Analyse anpassen</text><line style="stroke: #A80036; stroke-width: 1.0; stroke-dasharray: 1.0,2.0;" x1="237.4424" x2="496.5678" y1="423.7589" y2="423.7589"/><text fill="#000000" font-family="sans-serif" font-size="14" lengthAdjust="spacingAndGlyphs" textLength="226" x="254.0051" y="440.754">Optionen zur Veranschaulichung</text><ellipse cx="367.1403" cy="526.0281" fill="#FEFECE" filter="url(#ftftvmual2lea)" rx="138.1403" ry="30.0281" style="stroke: #A80036; stroke-width: 1.5;"/><text fill="#000000" font-family="sans-serif" font-size="14" lengthAdjust="spacingAndGlyphs" textLength="79" x="327.6403" y="512.9772">Exportieren</text><line style="stroke: #A80036; stroke-width: 1.0; stroke-dasharray: 1.0,2.0;" x1="237.4833" x2="496.7974" y1="516.2789" y2="516.2789"/><text fill="#000000" font-family="sans-serif" font-size="14" lengthAdjust="spacingAndGlyphs" textLength="248" x="243.1403" y="533.2741">sowohl Rohdaten als auch Heatmap</text><!--entity f--><ellipse cx="47.5" cy="289.5" fill="#FEFECE" filter="url(#ftftvmual2lea)" rx="8" ry="8" style="stroke: #A80036; stroke-width: 2.0;"/><path d="M47.5,297.5 L47.5,324.5 M34.5,305.5 L60.5,305.5 M47.5,324.5 L34.5,339.5 M47.5,324.5 L60.5,339.5 " fill="none" filter="url(#ftftvmual2lea)" style="stroke: #A80036; stroke-width: 2.0;"/><text fill="#000000" font-family="sans-serif" font-size="14" lengthAdjust="spacingAndGlyphs" textLength="83" x="6" y="359.4951">Forschende</text><!--entity s--><rect fill="#FFFFFF" filter="url(#ftftvmual2lea)" height="36.2969" style="stroke: #000000; stroke-width: 1.5;" width="137" x="740" y="194"/><text fill="#000000" font-family="sans-serif" font-size="14" lengthAdjust="spacingAndGlyphs" textLength="117" x="750" y="216.9951">Speichermedium</text><!--link f to da--><path d="M89.03,321 C132.77,321 204.12,321 263.44,321 " fill="none" id="f-da" style="stroke: #A80036; stroke-width: 1.0;"/><polygon fill="#A80036" points="268.78,321,259.78,317,263.78,321,259.78,325,268.78,321" style="stroke: #A80036; stroke-width: 1.0;"/><!--link f to aa--><path d="M89.12,347.24 C101.29,354.34 114.89,361.56 128,367 C171.09,384.9 220.66,399.16 263.36,409.63 " fill="none" id="f-aa" style="stroke: #A80036; stroke-width: 1.0;"/><polygon fill="#A80036" points="268.27,410.83,260.4754,404.8097,263.4126,409.6442,258.5781,412.5815,268.27,410.83" style="stroke: #A80036; stroke-width: 1.0;"/><!--link f to ex--><path d="M58.58,362.69 C69.53,398.81 90.68,449.6 128,478 C156.21,499.47 191.58,512.02 226.35,519.18 " fill="none" id="f-ex" style="stroke: #A80036; stroke-width: 1.0;"/><polygon fill="#A80036" points="231.48,520.2,223.4456,514.5036,226.5782,519.2139,221.8679,522.3465,231.48,520.2" style="stroke: #A80036; stroke-width: 1.0;"/><!--link f to va--><path d="M89.11,294.73 C101.28,287.63 114.88,280.42 128,275 C154.8,263.93 184.1,254.31 212.7,246.14 " fill="none" id="f-va" style="stroke: #A80036; stroke-width: 1.0;"/><polygon fill="#A80036" points="217.66,244.74,207.9123,243.332,212.8476,246.0966,210.0829,251.0319,217.66,244.74" style="stroke: #A80036; stroke-width: 1.0;"/><!--link f to vv--><path d="M57,279.34 C67.19,240.04 88.12,182.34 128,149 C159.82,122.4 201.76,107.06 241.56,98.26 " fill="none" id="f-vv" style="stroke: #A80036; stroke-width: 1.0;"/><polygon fill="#A80036" points="246.9,97.11,237.2633,95.0769,242.0102,98.1537,238.9333,102.9006,246.9,97.11" style="stroke: #A80036; stroke-width: 1.0;"/><!--link va to s--><path d="M582.28,212 C637.19,212 692.56,212 734.65,212 " fill="none" id="va-s" style="stroke: #A80036; stroke-width: 1.0; stroke-dasharray: 7.0,7.0;"/><polygon fill="#A80036" points="739.72,212,730.72,208,734.72,212,730.72,216,739.72,212" style="stroke: #A80036; stroke-width: 1.0;"/><text fill="#000000" font-family="sans-serif" font-size="13" lengthAdjust="spacingAndGlyphs" textLength="88" x="618" y="208.0669">Datenabfrage</text><!--link vv to s--><path d="M452.53,107.97 C498.13,119.54 555.31,134.48 606,149 C653.74,162.67 707.39,179.52 747.32,192.35 " fill="none" id="vv-s" style="stroke: #A80036; stroke-width: 1.0; stroke-dasharray: 7.0,7.0;"/><polygon fill="#A80036" points="752.12,193.9,744.7751,187.3385,747.3597,192.3704,742.3278,194.955,752.12,193.9" style="stroke: #A80036; stroke-width: 1.0;"/><text fill="#000000" font-family="sans-serif" font-size="13" lengthAdjust="spacingAndGlyphs" textLength="88" x="618" y="149.0669">Datenabfrage</text><!--link s to da--><path d="M755.35,230.07 C714.94,243.65 657.36,262.05 606,275 C557.38,287.26 502.45,298.07 457.63,306.13 " fill="none" id="s-da" style="stroke: #A80036; stroke-width: 1.0; stroke-dasharray: 7.0,7.0;"/><polygon fill="#A80036" points="452.49,307.05,462.049,309.4219,457.4136,306.1794,460.6561,301.5441,452.49,307.05" style="stroke: #A80036; stroke-width: 1.0;"/><text fill="#000000" font-family="sans-serif" font-size="13" lengthAdjust="spacingAndGlyphs" textLength="94" x="615" y="243.0669">Datenlieferung</text><!--link vv to va--><path d="M367,115.02 C367,128.55 367,145.22 367,160.89 " fill="none" id="vv-va" style="stroke: #A80036; stroke-width: 1.0; stroke-dasharray: 7.0,7.0;"/><polygon fill="#A80036" points="367,166.16,371,157.16,367,161.16,363,157.16,367,166.16" style="stroke: #A80036; stroke-width: 1.0;"/><text fill="#000000" font-family="sans-serif" font-size="13" lengthAdjust="spacingAndGlyphs" textLength="49" x="331" y="145.3169">braucht</text><!--link da to aa--><path d="M367,354.98 C367,369.77 367,386.95 367,401.23 " fill="none" id="da-aa" style="stroke: #A80036; stroke-width: 1.0; stroke-dasharray: 7.0,7.0;"/><polygon fill="#A80036" points="367,349.65,363,358.65,367,354.65,371,358.65,367,349.65" style="stroke: #A80036; stroke-width: 1.0;"/><text fill="#000000" font-family="sans-serif" font-size="13" lengthAdjust="spacingAndGlyphs" textLength="42" x="334.5" y="380.0669">ändert</text><!--
@startuml analyse-zoommaps
left to right direction

actor Forschende as f

rectangle "AnalyseClient - ZoomMaps - Heatmap(s)" #789dd5 {
    usecase va as "Versuch auswählen
    ..
    der konkrete Versuch in dem ZoomMaps verwendet wurden"
    usecase vv as "Versuch zum Vergleich auswählen"
    usecase da as "Daten anschauen
    ..
    Generierte Heatmap"
    usecase aa as "Analyse anpassen
    ..
    Optionen zur Veranschaulichung"
    usecase ex as "Exportieren
    ..
    sowohl Rohdaten als auch Heatmap"
}

rectangle Speichermedium as s #FFFFFF

f - -> da
f - -> aa
f - -> ex
f - -> va
f - -> vv

va ..> s : Datenabfrage
vv ..> s : Datenabfrage
s ..> da : Datenlieferung

va <.l. vv : braucht
da <.r. aa : ändert

@enduml

PlantUML version 1.2019.06(Fri May 24 17:10:25 UTC 2019)
(GPL source distribution)
Java Runtime: OpenJDK Runtime Environment
JVM: OpenJDK 64-Bit Server VM
Java Version: 11.0.11+9
Operating System: Linux
OS Version: 5.11.0-1021-azure
Default Encoding: UTF-8
Language: en
Country: null
--></g></svg>