<?xml version="1.0" encoding="UTF-8" standalone="no"?><svg xmlns="http://www.w3.org/2000/svg" xmlns:xlink="http://www.w3.org/1999/xlink" contentScriptType="application/ecmascript" contentStyleType="text/css" height="590px" preserveAspectRatio="none" style="width:928px;height:590px;background:#FFFFFF;" version="1.1" viewBox="0 0 928 590" width="928px" zoomAndPan="magnify"><defs><filter height="300%" id="feqymqvpa0lkp" width="300%" x="-1" y="-1"><feGaussianBlur result="blurOut" stdDeviation="2.0"/><feColorMatrix in="blurOut" result="blurOut2" type="matrix" values="0 0 0 0 0 0 0 0 0 0 0 0 0 0 0 0 0 0 .4 0"/><feOffset dx="4.0" dy="4.0" in="blurOut2" result="blurOut3"/><feBlend in="SourceGraphic" in2="blurOut3" mode="normal"/></filter></defs><g><!--MD5=[f7e507e04297ff785c430a966a49e1c2]
cluster AnalyseClient - ZoomMaps - Heatmap(s)--><rect fill="#789DD5" filter="url(#feqymqvpa0lkp)" height="571" style="stroke:#000000;stroke-width:1.5;" width="495" x="136" y="7"/><text fill="#000000" font-family="sans-serif" font-size="14" font-weight="bold" lengthAdjust="spacing" textLength="326" x="220.5" y="21.9951">AnalyseClient - ZoomMaps - Heatmap(s)</text><ellipse cx="383.7135" cy="202.2427" fill="#FEFECE" filter="url(#feqymqvpa0lkp)" rx="231.7135" ry="48.7427" style="stroke:#A80036;stroke-width:1.5;"/><text fill="#000000" font-family="sans-serif" font-size="14" lengthAdjust="spacing" textLength="134" x="316.7135" y="184.7925">Versuch auswählen</text><line style="stroke:#A80036;stroke-width:1.0;stroke-dasharray:1.0,2.0;" x1="162.9763" x2="604.4507" y1="188.0943" y2="188.0943"/><text fill="#000000" font-family="sans-serif" font-size="14" lengthAdjust="spacing" textLength="429" x="169.2135" y="205.0894">der konkrete Versuch in dem ZoomMaps verwendet wurden</text><ellipse cx="383.4233" cy="71.9847" fill="#FEFECE" filter="url(#feqymqvpa0lkp)" rx="135.4233" ry="29.4847" style="stroke:#A80036;stroke-width:1.5;"/><text fill="#000000" font-family="sans-serif" font-size="14" lengthAdjust="spacing" textLength="240" x="263.4233" y="74.8313">Versuch zum Vergleich auswählen</text><ellipse cx="383.5421" cy="316.2455" fill="#FEFECE" filter="url(#feqymqvpa0lkp)" rx="113.0421" ry="30.7455" style="stroke:#A80036;stroke-width:1.5;"/><text fill="#000000" font-family="sans-serif" font-size="14" lengthAdjust="spacing" textLength="123" x="312.5421" y="307.8446">Daten anschauen</text><line style="stroke:#A80036;stroke-width:1.0;stroke-dasharray:1.0,2.0;" x1="273.0655" x2="494.0187" y1="311.1464" y2="311.1464"/><text fill="#000000" font-family="sans-serif" font-size="14" lengthAdjust="spacing" textLength="149" x="299.5421" y="328.1415">Generierte Heatmap</text><ellipse cx="383.2762" cy="429.9552" fill="#FEFECE" filter="url(#feqymqvpa0lkp)" rx="145.2762" ry="31.4552" style="stroke:#A80036;stroke-width:1.5;"/><text fill="#000000" font-family="sans-serif" font-size="14" lengthAdjust="spacing" textLength="126" x="307.8733" y="418.6217">Analyse anpassen</text><line style="stroke:#A80036;stroke-width:1.0;stroke-dasharray:1.0,2.0;" x1="243.8157" x2="522.7367" y1="421.9235" y2="421.9235"/><text fill="#000000" font-family="sans-serif" font-size="14" lengthAdjust="spacing" textLength="231" x="255.3733" y="438.9186">Optionen zur Veranschaulichung</text><ellipse cx="383.4824" cy="528.7965" fill="#FEFECE" filter="url(#feqymqvpa0lkp)" rx="149.4824" ry="32.2965" style="stroke:#A80036;stroke-width:1.5;"/><text fill="#000000" font-family="sans-serif" font-size="14" lengthAdjust="spacing" textLength="86" x="334.4258" y="513.9886">Exportieren</text><line style="stroke:#A80036;stroke-width:1.0;stroke-dasharray:1.0,2.0;" x1="244.8083" x2="522.1565" y1="517.2904" y2="517.2904"/><text fill="#000000" font-family="sans-serif" font-size="14" lengthAdjust="spacing" textLength="253" x="250.9258" y="534.2855">sowohl Rohdaten als auch Heatmap</text><!--MD5=[8f89c3b771be60a8fe1c771d5b27a045]
entity f--><ellipse cx="47.5" cy="285" fill="#FEFECE" filter="url(#feqymqvpa0lkp)" rx="8" ry="8" style="stroke:#A80036;stroke-width:1.5;"/><path d="M47.5,293 L47.5,320 M34.5,301 L60.5,301 M47.5,320 L34.5,335 M47.5,320 L60.5,335 " fill="none" filter="url(#feqymqvpa0lkp)" style="stroke:#A80036;stroke-width:1.5;"/><text fill="#000000" font-family="sans-serif" font-size="14" lengthAdjust="spacing" textLength="83" x="6" y="353.4951">Forschende</text><!--MD5=[d8322213e5f4465576b8bf70cd9bce59]
entity s--><rect fill="#FFFFFF" filter="url(#feqymqvpa0lkp)" height="36.2969" style="stroke:#000000;stroke-width:1.5;" width="142" x="774" y="184"/><text fill="#000000" font-family="sans-serif" font-size="14" lengthAdjust="spacing" textLength="122" x="784" y="206.9951">Speichermedium</text><!--MD5=[dc634cd686d7907141002aebb5db3231]
link f to da--><path d="M89.121,316 C132.664,316 203.81,316 265.135,316 " fill="none" id="f-to-da" style="stroke:#A80036;stroke-width:1.0;"/><polygon fill="#A80036" points="270.282,316,261.282,312,265.282,316,261.282,320,270.282,316" style="stroke:#A80036;stroke-width:1.0;"/><!--MD5=[5247012ab2ec820e8c451b9cc12a57f6]
link f to aa--><path d="M89.3816,343.771 C101.4431,351.103 114.924,358.495 128,364 C172.751,382.84 224.254,397.418 269.171,408.024 " fill="none" id="f-to-aa" style="stroke:#A80036;stroke-width:1.0;"/><polygon fill="#A80036" points="274.054,409.167,266.203,403.2205,269.1857,408.0271,264.3791,411.0098,274.054,409.167" style="stroke:#A80036;stroke-width:1.0;"/><!--MD5=[8ff99f706185a253fd592e702411e456]
link f to ex--><path d="M57.3912,356.758 C67.7907,394.389 88.8136,448.869 128,479 C157.55,501.722 194.602,514.9771 231.214,522.512 " fill="none" id="f-to-ex" style="stroke:#A80036;stroke-width:1.0;"/><polygon fill="#A80036" points="236.142,523.4927,228.0956,517.8133,231.2381,522.517,226.5345,525.6595,236.142,523.4927" style="stroke:#A80036;stroke-width:1.0;"/><!--MD5=[2798e5c860a2f0e8ca88ad079a5ab1e2]
link f to va--><path d="M89.3816,288.229 C101.4431,280.897 114.924,273.505 128,268 C155.54,256.406 185.637,246.426 215.182,237.992 " fill="none" id="f-to-va" style="stroke:#A80036;stroke-width:1.0;"/><polygon fill="#A80036" points="220.304,236.544,210.5549,235.1455,215.4929,237.9053,212.7331,242.8433,220.304,236.544" style="stroke:#A80036;stroke-width:1.0;"/><!--MD5=[7475f1492c1bb734163f889fd2af5006]
link f to vv--><path d="M55.6726,275.448 C65.0955,234.283 85.6939,171.679 128,136 C161.954,107.364 206.958,91.257 249.67,82.289 " fill="none" id="f-to-vv" style="stroke:#A80036;stroke-width:1.0;"/><polygon fill="#A80036" points="254.597,81.284,244.9788,79.165,249.698,82.2841,246.5789,87.0033,254.597,81.284" style="stroke:#A80036;stroke-width:1.0;"/><!--MD5=[318067c3824ee7cdb1fc15c31ba5ca15]
link va to s--><path d="M615.26,202 C670.721,202 726.104,202 768.481,202 " fill="none" id="va-to-s" style="stroke:#A80036;stroke-width:1.0;stroke-dasharray:7.0,7.0;"/><polygon fill="#A80036" points="773.583,202,764.583,198,768.583,202,764.583,206,773.583,202" style="stroke:#A80036;stroke-width:1.0;"/><text fill="#000000" font-family="sans-serif" font-size="13" lengthAdjust="spacing" textLength="89" x="651" y="198.0669">Datenabfrage</text><!--MD5=[52e849dfd88b871a60c1f279fdfc955b]
link vv to s--><path d="M476.174,93.525 C524.766,105.32 585.346,120.634 639,136 C689.083,150.343 745.378,168.625 786.285,182.309 " fill="none" id="vv-to-s" style="stroke:#A80036;stroke-width:1.0;stroke-dasharray:7.0,7.0;"/><polygon fill="#A80036" points="791.196,183.954,783.933,177.3021,786.455,182.3656,781.3915,184.8876,791.196,183.954" style="stroke:#A80036;stroke-width:1.0;"/><text fill="#000000" font-family="sans-serif" font-size="13" lengthAdjust="spacing" textLength="89" x="651" y="136.0669">Datenabfrage</text><!--MD5=[7da3d405e600ff39ba44f23daabd8785]
link s to da--><path d="M793.963,220.049 C752.767,234.437 692.63,254.366 639,268 C589.282,280.639 533.33,291.547 486.575,299.755 " fill="none" id="s-to-da" style="stroke:#A80036;stroke-width:1.0;stroke-dasharray:7.0,7.0;"/><polygon fill="#A80036" points="481.502,300.642,491.0565,303.0318,486.4272,299.7807,489.6784,295.1514,481.502,300.642" style="stroke:#A80036;stroke-width:1.0;"/><text fill="#000000" font-family="sans-serif" font-size="13" lengthAdjust="spacing" textLength="95" x="648" y="234.0669">Datenlieferung</text><!--MD5=[b5b37e969d0783a81c8b162d7bb937a9]
link vv to va--><path d="M383.5,101.774 C383.5,115.457 383.5,132.125 383.5,147.909 " fill="none" id="vv-to-va" style="stroke:#A80036;stroke-width:1.0;stroke-dasharray:7.0,7.0;"/><polygon fill="#A80036" points="383.5,153.223,387.5,144.223,383.5,148.223,379.5,144.223,383.5,153.223" style="stroke:#A80036;stroke-width:1.0;"/><text fill="#000000" font-family="sans-serif" font-size="13" lengthAdjust="spacing" textLength="49" x="347.5" y="132.0669">braucht</text><!--MD5=[0455da5a12b35b0053a22f9e60fc746e]
reverse link da to aa--><path d="M383.5,352.145 C383.5,366.948 383.5,383.928 383.5,398.245 " fill="none" id="da-backto-aa" style="stroke:#A80036;stroke-width:1.0;stroke-dasharray:7.0,7.0;"/><polygon fill="#A80036" points="383.5,346.798,379.5,355.798,383.5,351.798,387.5,355.798,383.5,346.798" style="stroke:#A80036;stroke-width:1.0;"/><text fill="#000000" font-family="sans-serif" font-size="13" lengthAdjust="spacing" textLength="42" x="351" y="377.0669">ändert</text><!--MD5=[66e000f6b0f72a66e0961584e0e7cf32]
@startuml
left to right direction

actor Forschende as f

rectangle "AnalyseClient - ZoomMaps - Heatmap(s)" #789dd5 {
    ' usecase aw as "Analysemethode wählen
    ' ..
    ' hier: Heatmap"
    usecase va as "Versuch auswählen
    ..
    der konkrete Versuch in dem ZoomMaps verwendet wurden"
    usecase vv as "Versuch zum Vergleich auswählen"
    usecase da as "Daten anschauen
    ..
    Generierte Heatmap"
    usecase aa as "Analyse anpassen
    ..
    Optionen zur Veranschaulichung"
    usecase ex as "Exportieren
    ..
    sowohl Rohdaten als auch Heatmap"
}

rectangle Speichermedium as s #FFFFFF

' f - -> aw
f - -> da
f - -> aa
f - -> ex
f - -> va
f - -> vv

' intern
va ..> s : Datenabfrage
vv ..> s : Datenabfrage
s ..> da : Datenlieferung

va <.l. vv : braucht
da <.r. aa : ändert
' n .l. va
@enduml

@startuml
left to right direction

actor Forschende as f

rectangle "AnalyseClient - ZoomMaps - Heatmap(s)" #789dd5 {
    usecase va as "Versuch auswählen
    ..
    der konkrete Versuch in dem ZoomMaps verwendet wurden"
    usecase vv as "Versuch zum Vergleich auswählen"
    usecase da as "Daten anschauen
    ..
    Generierte Heatmap"
    usecase aa as "Analyse anpassen
    ..
    Optionen zur Veranschaulichung"
    usecase ex as "Exportieren
    ..
    sowohl Rohdaten als auch Heatmap"
}

rectangle Speichermedium as s #FFFFFF

f - -> da
f - -> aa
f - -> ex
f - -> va
f - -> vv

va ..> s : Datenabfrage
vv ..> s : Datenabfrage
s ..> da : Datenlieferung

va <.l. vv : braucht
da <.r. aa : ändert
@enduml

PlantUML version 1.2021.15beta6(Unknown compile time)
(GPL source distribution)
Java Runtime: Java(TM) SE Runtime Environment
JVM: Java HotSpot(TM) 64-Bit Server VM
Default Encoding: UTF-8
Language: en
Country: US
--></g></svg>