<?xml version="1.0" encoding="UTF-8" standalone="no"?><svg xmlns="http://www.w3.org/2000/svg" xmlns:xlink="http://www.w3.org/1999/xlink" contentScriptType="application/ecmascript" contentStyleType="text/css" height="602px" preserveAspectRatio="none" style="width:928px;height:602px;background:#FFFFFF;" version="1.1" viewBox="0 0 928 602" width="928px" zoomAndPan="magnify"><defs><filter height="300%" id="f1u5tgnion3tm0" width="300%" x="-1" y="-1"><feGaussianBlur result="blurOut" stdDeviation="2.0"/><feColorMatrix in="blurOut" result="blurOut2" type="matrix" values="0 0 0 0 0 0 0 0 0 0 0 0 0 0 0 0 0 0 .4 0"/><feOffset dx="4.0" dy="4.0" in="blurOut2" result="blurOut3"/><feBlend in="SourceGraphic" in2="blurOut3" mode="normal"/></filter></defs><g><!--MD5=[f7e507e04297ff785c430a966a49e1c2]
cluster AnalyseClient - ZoomMaps - Heatmap(s)--><rect fill="#789DD5" filter="url(#f1u5tgnion3tm0)" height="583" style="stroke:#000000;stroke-width:1.5;" width="495" x="136" y="7"/><text fill="#000000" font-family="sans-serif" font-size="14" font-weight="bold" lengthAdjust="spacing" textLength="326" x="220.5" y="21.9951">AnalyseClient - ZoomMaps - Heatmap(s)</text><ellipse cx="383.7135" cy="214.2427" fill="#FEFECE" filter="url(#f1u5tgnion3tm0)" rx="231.7135" ry="48.7427" style="stroke:#A80036;stroke-width:1.5;"/><text fill="#000000" font-family="sans-serif" font-size="14" lengthAdjust="spacing" textLength="134" x="316.7135" y="196.7925">Versuch auswählen</text><line style="stroke:#A80036;stroke-width:1.0;stroke-dasharray:1.0,2.0;" x1="162.9763" x2="604.4507" y1="200.0943" y2="200.0943"/><text fill="#000000" font-family="sans-serif" font-size="14" lengthAdjust="spacing" textLength="429" x="169.2135" y="217.0894">der konkrete Versuch in dem ZoomMaps verwendet wurden</text><ellipse cx="383.6843" cy="78.0369" fill="#FEFECE" filter="url(#f1u5tgnion3tm0)" rx="165.6843" ry="35.5369" style="stroke:#A80036;stroke-width:1.5;"/><text fill="#000000" font-family="sans-serif" font-size="14" lengthAdjust="spacing" textLength="303" x="232.1843" y="80.8835">anderen Versuch zum Vergleich auswählen</text><ellipse cx="383.5421" cy="328.2455" fill="#FEFECE" filter="url(#f1u5tgnion3tm0)" rx="113.0421" ry="30.7455" style="stroke:#A80036;stroke-width:1.5;"/><text fill="#000000" font-family="sans-serif" font-size="14" lengthAdjust="spacing" textLength="123" x="312.5421" y="319.8446">Daten anschauen</text><line style="stroke:#A80036;stroke-width:1.0;stroke-dasharray:1.0,2.0;" x1="273.0655" x2="494.0187" y1="323.1464" y2="323.1464"/><text fill="#000000" font-family="sans-serif" font-size="14" lengthAdjust="spacing" textLength="149" x="299.5421" y="340.1415">Generierte Heatmap</text><ellipse cx="383.2762" cy="441.9552" fill="#FEFECE" filter="url(#f1u5tgnion3tm0)" rx="145.2762" ry="31.4552" style="stroke:#A80036;stroke-width:1.5;"/><text fill="#000000" font-family="sans-serif" font-size="14" lengthAdjust="spacing" textLength="126" x="307.8733" y="430.6217">Analyse anpassen</text><line style="stroke:#A80036;stroke-width:1.0;stroke-dasharray:1.0,2.0;" x1="243.8157" x2="522.7367" y1="433.9235" y2="433.9235"/><text fill="#000000" font-family="sans-serif" font-size="14" lengthAdjust="spacing" textLength="231" x="255.3733" y="450.9186">Optionen zur Veranschaulichung</text><ellipse cx="383.4824" cy="540.7965" fill="#FEFECE" filter="url(#f1u5tgnion3tm0)" rx="149.4824" ry="32.2965" style="stroke:#A80036;stroke-width:1.5;"/><text fill="#000000" font-family="sans-serif" font-size="14" lengthAdjust="spacing" textLength="86" x="334.4258" y="525.9886">Exportieren</text><line style="stroke:#A80036;stroke-width:1.0;stroke-dasharray:1.0,2.0;" x1="244.8083" x2="522.1565" y1="529.2904" y2="529.2904"/><text fill="#000000" font-family="sans-serif" font-size="14" lengthAdjust="spacing" textLength="253" x="250.9258" y="546.2855">sowohl Rohdaten als auch Heatmap</text><!--MD5=[8f89c3b771be60a8fe1c771d5b27a045]
entity f--><ellipse cx="47.5" cy="297" fill="#FEFECE" filter="url(#f1u5tgnion3tm0)" rx="8" ry="8" style="stroke:#A80036;stroke-width:1.5;"/><path d="M47.5,305 L47.5,332 M34.5,313 L60.5,313 M47.5,332 L34.5,347 M47.5,332 L60.5,347 " fill="none" filter="url(#f1u5tgnion3tm0)" style="stroke:#A80036;stroke-width:1.5;"/><text fill="#000000" font-family="sans-serif" font-size="14" lengthAdjust="spacing" textLength="83" x="6" y="365.4951">Forschende</text><!--MD5=[d8322213e5f4465576b8bf70cd9bce59]
entity s--><rect fill="#FFFFFF" filter="url(#f1u5tgnion3tm0)" height="36.2969" style="stroke:#000000;stroke-width:1.5;" width="142" x="774" y="196"/><text fill="#000000" font-family="sans-serif" font-size="14" lengthAdjust="spacing" textLength="122" x="784" y="218.9951">Speichermedium</text><!--MD5=[dc634cd686d7907141002aebb5db3231]
link f to da--><path d="M89.121,328 C132.664,328 203.81,328 265.135,328 " fill="none" id="f-to-da" style="stroke:#A80036;stroke-width:1.0;"/><polygon fill="#A80036" points="270.282,328,261.282,324,265.282,328,261.282,332,270.282,328" style="stroke:#A80036;stroke-width:1.0;"/><!--MD5=[5247012ab2ec820e8c451b9cc12a57f6]
link f to aa--><path d="M89.3816,355.771 C101.4431,363.103 114.924,370.495 128,376 C172.751,394.84 224.254,409.418 269.171,420.024 " fill="none" id="f-to-aa" style="stroke:#A80036;stroke-width:1.0;"/><polygon fill="#A80036" points="274.054,421.167,266.203,415.2205,269.1857,420.0271,264.3791,423.0098,274.054,421.167" style="stroke:#A80036;stroke-width:1.0;"/><!--MD5=[8ff99f706185a253fd592e702411e456]
link f to ex--><path d="M57.3912,368.758 C67.7907,406.389 88.8136,460.869 128,491 C157.55,513.722 194.602,526.9771 231.214,534.512 " fill="none" id="f-to-ex" style="stroke:#A80036;stroke-width:1.0;"/><polygon fill="#A80036" points="236.142,535.4927,228.0956,529.8133,231.2381,534.517,226.5345,537.6595,236.142,535.4927" style="stroke:#A80036;stroke-width:1.0;"/><!--MD5=[2798e5c860a2f0e8ca88ad079a5ab1e2]
link f to va--><path d="M89.3816,300.229 C101.4431,292.897 114.924,285.505 128,280 C155.54,268.406 185.637,258.426 215.182,249.992 " fill="none" id="f-to-va" style="stroke:#A80036;stroke-width:1.0;"/><polygon fill="#A80036" points="220.304,248.544,210.5549,247.1455,215.4929,249.9053,212.7331,254.8433,220.304,248.544" style="stroke:#A80036;stroke-width:1.0;"/><!--MD5=[7475f1492c1bb734163f889fd2af5006]
link f to vv--><path d="M55.9215,287.255 C65.5143,246.239 86.2191,184.032 128,148 C157.309,122.724 194.98,106.506 232.305,96.122 " fill="none" id="f-to-vv" style="stroke:#A80036;stroke-width:1.0;"/><polygon fill="#A80036" points="237.329,94.758,227.5954,93.2555,232.5036,96.0679,229.6913,100.9761,237.329,94.758" style="stroke:#A80036;stroke-width:1.0;"/><!--MD5=[318067c3824ee7cdb1fc15c31ba5ca15]
link va to s--><path d="M615.26,214 C670.721,214 726.104,214 768.481,214 " fill="none" id="va-to-s" style="stroke:#A80036;stroke-width:1.0;stroke-dasharray:7.0,7.0;"/><polygon fill="#A80036" points="773.583,214,764.583,210,768.583,214,764.583,218,773.583,214" style="stroke:#A80036;stroke-width:1.0;"/><text fill="#000000" font-family="sans-serif" font-size="13" lengthAdjust="spacing" textLength="89" x="651" y="210.0669">Datenabfrage</text><!--MD5=[52e849dfd88b871a60c1f279fdfc955b]
link vv to s--><path d="M488.492,105.517 C534.713,118.026 589.709,133.294 639,148 C688.578,162.792 744.454,180.876 785.335,194.372 " fill="none" id="vv-to-s" style="stroke:#A80036;stroke-width:1.0;stroke-dasharray:7.0,7.0;"/><polygon fill="#A80036" points="790.245,195.994,782.9544,189.3723,785.4975,194.4253,780.4445,196.9684,790.245,195.994" style="stroke:#A80036;stroke-width:1.0;"/><text fill="#000000" font-family="sans-serif" font-size="13" lengthAdjust="spacing" textLength="89" x="651" y="148.0669">Datenabfrage</text><!--MD5=[7da3d405e600ff39ba44f23daabd8785]
link s to da--><path d="M793.963,232.049 C752.767,246.437 692.63,266.366 639,280 C589.282,292.639 533.33,303.547 486.575,311.755 " fill="none" id="s-to-da" style="stroke:#A80036;stroke-width:1.0;stroke-dasharray:7.0,7.0;"/><polygon fill="#A80036" points="481.502,312.642,491.0565,315.0318,486.4272,311.7807,489.6784,307.1514,481.502,312.642" style="stroke:#A80036;stroke-width:1.0;"/><text fill="#000000" font-family="sans-serif" font-size="13" lengthAdjust="spacing" textLength="95" x="648" y="246.0669">Datenlieferung</text><!--MD5=[b5b37e969d0783a81c8b162d7bb937a9]
link vv to va--><path d="M383.5,113.577 C383.5,127.767 383.5,144.416 383.5,160.033 " fill="none" id="vv-to-va" style="stroke:#A80036;stroke-width:1.0;stroke-dasharray:7.0,7.0;"/><polygon fill="#A80036" points="383.5,165.285,387.5,156.285,383.5,160.285,379.5,156.285,383.5,165.285" style="stroke:#A80036;stroke-width:1.0;"/><text fill="#000000" font-family="sans-serif" font-size="13" lengthAdjust="spacing" textLength="68" x="338" y="144.0669">«extends»</text><!--MD5=[0455da5a12b35b0053a22f9e60fc746e]
reverse link da to aa--><path d="M383.5,364.145 C383.5,378.948 383.5,395.928 383.5,410.245 " fill="none" id="da-backto-aa" style="stroke:#A80036;stroke-width:1.0;stroke-dasharray:7.0,7.0;"/><polygon fill="#A80036" points="383.5,358.798,379.5,367.798,383.5,363.798,387.5,367.798,383.5,358.798" style="stroke:#A80036;stroke-width:1.0;"/><text fill="#000000" font-family="sans-serif" font-size="13" lengthAdjust="spacing" textLength="68" x="338" y="389.0669">«extends»</text><!--MD5=[e164a31cb874267ca42d7ddba3656efc]
@startuml
left to right direction

actor Forschende as f

rectangle "AnalyseClient - ZoomMaps - Heatmap(s)" #789dd5 {
    usecase va as "Versuch auswählen
    ..
    der konkrete Versuch in dem ZoomMaps verwendet wurden"
    usecase vv as "anderen Versuch zum Vergleich auswählen"
    usecase da as "Daten anschauen
    ..
    Generierte Heatmap"
    usecase aa as "Analyse anpassen
    ..
    Optionen zur Veranschaulichung"
    usecase ex as "Exportieren
    ..
    sowohl Rohdaten als auch Heatmap"
}

rectangle Speichermedium as s #FFFFFF

f - -> da
f - -> aa
f - -> ex
f - -> va
f - -> vv

' intern
va ..> s : Datenabfrage
vv ..> s : Datenabfrage
s ..> da : Datenlieferung

va <.l. vv : <<extends>>
da <.r. aa : <<extends>>
@enduml

@startuml
left to right direction

actor Forschende as f

rectangle "AnalyseClient - ZoomMaps - Heatmap(s)" #789dd5 {
    usecase va as "Versuch auswählen
    ..
    der konkrete Versuch in dem ZoomMaps verwendet wurden"
    usecase vv as "anderen Versuch zum Vergleich auswählen"
    usecase da as "Daten anschauen
    ..
    Generierte Heatmap"
    usecase aa as "Analyse anpassen
    ..
    Optionen zur Veranschaulichung"
    usecase ex as "Exportieren
    ..
    sowohl Rohdaten als auch Heatmap"
}

rectangle Speichermedium as s #FFFFFF

f - -> da
f - -> aa
f - -> ex
f - -> va
f - -> vv

va ..> s : Datenabfrage
vv ..> s : Datenabfrage
s ..> da : Datenlieferung

va <.l. vv : <<extends>>
da <.r. aa : <<extends>>
@enduml

PlantUML version 1.2021.15beta6(Unknown compile time)
(GPL source distribution)
Java Runtime: Java(TM) SE Runtime Environment
JVM: Java HotSpot(TM) 64-Bit Server VM
Default Encoding: UTF-8
Language: en
Country: US
--></g></svg>