<?xml version="1.0" encoding="UTF-8" standalone="no"?><svg xmlns="http://www.w3.org/2000/svg" xmlns:xlink="http://www.w3.org/1999/xlink" contentScriptType="application/ecmascript" contentStyleType="text/css" height="560px" preserveAspectRatio="none" style="width:721px;height:560px;background:#FFFFFF;" version="1.1" viewBox="0 0 721 560" width="721px" zoomAndPan="magnify"><defs><filter height="300%" id="ff7sid622uo35" width="300%" x="-1" y="-1"><feGaussianBlur result="blurOut" stdDeviation="2.0"/><feColorMatrix in="blurOut" result="blurOut2" type="matrix" values="0 0 0 0 0 0 0 0 0 0 0 0 0 0 0 0 0 0 .4 0"/><feOffset dx="4.0" dy="4.0" in="blurOut2" result="blurOut3"/><feBlend in="SourceGraphic" in2="blurOut3" mode="normal"/></filter></defs><g><!--MD5=[a55135535b5c544b99c33b17428c3b14]
cluster Util--><polygon fill="#FFFFFF" filter="url(#ff7sid622uo35)" points="153,6,188,6,195,28.2969,333,28.2969,333,150,153,150,153,6" style="stroke:#000000;stroke-width:1.5;"/><line style="stroke:#000000;stroke-width:1.5;" x1="153" x2="195" y1="28.2969" y2="28.2969"/><text fill="#000000" font-family="sans-serif" font-size="14" font-weight="bold" lengthAdjust="spacing" textLength="29" x="157" y="20.9951">Util</text><!--MD5=[15e8d9eb20d97f96a8a970822392017a]
cluster EYETRACKING--><polygon fill="#FFFFFF" filter="url(#ff7sid622uo35)" points="16,199,131,199,138,221.2969,536,221.2969,536,553,16,553,16,199" style="stroke:#000000;stroke-width:1.5;"/><line style="stroke:#000000;stroke-width:1.5;" x1="16" x2="138" y1="221.2969" y2="221.2969"/><text fill="#000000" font-family="sans-serif" font-size="14" font-weight="bold" lengthAdjust="spacing" textLength="109" x="20" y="213.9951">EYETRACKING</text><!--MD5=[626b00d2609f42ba755c8afb6d5f2b59]
class Bild--><rect codeLine="15" fill="#FEFECE" filter="url(#ff7sid622uo35)" height="73.6094" id="Bild" style="stroke:#A80036;stroke-width:1.5;" width="147" x="169.5" y="60"/><ellipse cx="227.75" cy="76" fill="#A9DCDF" rx="11" ry="11" style="stroke:#A80036;stroke-width:1.0;"/><path d="M229.8281,77.8125 L230.2188,78.7969 L229.8281,78.7969 C229.375,78.7969 229.2656,78.8125 229.1094,78.9219 C228.8594,79.0781 228.7031,79.3594 228.7031,79.6563 C228.7031,79.9219 228.8438,80.1719 229.0625,80.3281 C229.2031,80.4531 229.4063,80.5 229.8281,80.5 L232.1875,80.5 C232.5469,80.5 232.7656,80.4688 232.9063,80.375 C233.1563,80.2344 233.3125,79.9375 233.3125,79.6563 C233.3125,79.375 233.1719,79.125 232.9531,78.9688 C232.7813,78.8281 232.625,78.7969 232.1563,78.7969 L228.7656,70.5938 L225.0938,70.5938 C224.6406,70.5938 224.5156,70.6094 224.3594,70.7031 C224.1094,70.875 223.9531,71.1563 223.9531,71.4375 C223.9531,71.7188 224.0938,71.9688 224.3125,72.1406 C224.4844,72.25 224.6563,72.2813 225.0938,72.2813 L226.1719,72.2813 L223.5313,78.7969 C223.1094,78.7969 222.9531,78.8125 222.7969,78.9219 C222.5469,79.0781 222.3906,79.3594 222.3906,79.6563 C222.3906,80.2188 222.7656,80.5 223.5156,80.5 L225.7813,80.5 C226.1406,80.5 226.3594,80.4688 226.4844,80.375 C226.75,80.2344 226.8906,79.9375 226.8906,79.6563 C226.8906,79.375 226.7656,79.125 226.5469,78.9531 C226.375,78.8281 226.2344,78.7969 225.7813,78.7969 L225.3906,78.7969 L225.7813,77.8125 L229.8281,77.8125 Z M229.125,76.1094 L226.4531,76.1094 L227.7969,72.8438 L229.125,76.1094 Z " fill="#000000"/><text fill="#000000" font-family="sans-serif" font-size="12" font-style="italic" lengthAdjust="spacing" textLength="22" x="248.25" y="80.1543">Bild</text><line style="stroke:#A80036;stroke-width:1.5;" x1="170.5" x2="315.5" y1="92" y2="92"/><line style="stroke:#A80036;stroke-width:1.5;" x1="170.5" x2="315.5" y1="100" y2="100"/><ellipse cx="180.5" cy="111" fill="#84BE84" rx="3" ry="3" style="stroke:#038048;stroke-width:1.0;"/><text fill="#000000" font-family="sans-serif" font-size="11" lengthAdjust="spacing" textLength="121" x="189.5" y="114.2104">load(url: String) : void</text><ellipse cx="180.5" cy="123.8047" fill="#84BE84" rx="3" ry="3" style="stroke:#038048;stroke-width:1.0;"/><text fill="#000000" font-family="sans-serif" font-size="11" lengthAdjust="spacing" textLength="72" x="189.5" y="127.0151">show() : void</text><!--MD5=[dbe15b140cda4176ff2227ff19165deb]
class Auge--><rect codeLine="28" fill="#FEFECE" filter="url(#ff7sid622uo35)" height="86.4141" id="Auge" style="stroke:#A80036;stroke-width:1.5;" width="118" x="32" y="253"/><ellipse cx="71.75" cy="269" fill="#ADD1B2" rx="11" ry="11" style="stroke:#A80036;stroke-width:1.0;"/><path d="M74.0938,264.6719 C73.1563,264.2344 72.5625,264.0938 71.6875,264.0938 C69.0625,264.0938 67.0625,266.1719 67.0625,268.8906 L67.0625,270.0156 C67.0625,272.5938 69.1719,274.4844 72.0625,274.4844 C73.2813,274.4844 74.4375,274.1875 75.1875,273.6406 C75.7656,273.2344 76.0938,272.7813 76.0938,272.3906 C76.0938,271.9375 75.7031,271.5469 75.2344,271.5469 C75.0156,271.5469 74.8125,271.625 74.625,271.8125 C74.1719,272.2969 74.1719,272.2969 73.9844,272.3906 C73.5625,272.6563 72.875,272.7813 72.1094,272.7813 C70.0625,272.7813 68.7656,271.6875 68.7656,269.9844 L68.7656,268.8906 C68.7656,267.1094 70.0156,265.7969 71.75,265.7969 C72.3281,265.7969 72.9375,265.9531 73.4063,266.2031 C73.8906,266.4844 74.0625,266.7031 74.1563,267.1094 C74.2188,267.5156 74.25,267.6406 74.3906,267.7656 C74.5313,267.9063 74.7656,268.0156 74.9844,268.0156 C75.25,268.0156 75.5156,267.875 75.6875,267.6563 C75.7969,267.5 75.8281,267.3125 75.8281,266.8906 L75.8281,265.4688 C75.8281,265.0313 75.8125,264.9063 75.7188,264.75 C75.5625,264.4844 75.2813,264.3438 74.9844,264.3438 C74.6875,264.3438 74.4844,264.4375 74.2656,264.75 L74.0938,264.6719 Z " fill="#000000"/><text fill="#000000" font-family="sans-serif" font-size="12" lengthAdjust="spacing" textLength="31" x="91.25" y="273.1543">Auge</text><line style="stroke:#A80036;stroke-width:1.5;" x1="33" x2="149" y1="285" y2="285"/><rect fill="none" height="6" style="stroke:#C82930;stroke-width:1.0;" width="6" x="40" y="293"/><text fill="#000000" font-family="sans-serif" font-size="11" lengthAdjust="spacing" textLength="75" x="52" y="299.2104">input camera</text><line style="stroke:#A80036;stroke-width:1.5;" x1="33" x2="149" y1="305.8047" y2="305.8047"/><rect fill="#F24D5C" height="6" style="stroke:#C82930;stroke-width:1.0;" width="6" x="40" y="313.8047"/><text fill="#000000" font-family="sans-serif" font-size="11" lengthAdjust="spacing" textLength="88" x="52" y="320.0151">get Eye() : void</text><rect fill="#F24D5C" height="6" style="stroke:#C82930;stroke-width:1.0;" width="6" x="40" y="326.6094"/><text fill="#000000" font-family="sans-serif" font-size="11" lengthAdjust="spacing" textLength="92" x="52" y="332.8198">get Pupil() : void</text><!--MD5=[c5595181ce750286cf64e48f3c8b93cc]
class EytrackingBild--><rect codeLine="35" fill="#FEFECE" filter="url(#ff7sid622uo35)" height="86.4141" id="EytrackingBild" style="stroke:#A80036;stroke-width:1.5;" width="116" x="185" y="253"/><ellipse cx="200" cy="269" fill="#ADD1B2" rx="11" ry="11" style="stroke:#A80036;stroke-width:1.0;"/><path d="M202.3438,264.6719 C201.4063,264.2344 200.8125,264.0938 199.9375,264.0938 C197.3125,264.0938 195.3125,266.1719 195.3125,268.8906 L195.3125,270.0156 C195.3125,272.5938 197.4219,274.4844 200.3125,274.4844 C201.5313,274.4844 202.6875,274.1875 203.4375,273.6406 C204.0156,273.2344 204.3438,272.7813 204.3438,272.3906 C204.3438,271.9375 203.9531,271.5469 203.4844,271.5469 C203.2656,271.5469 203.0625,271.625 202.875,271.8125 C202.4219,272.2969 202.4219,272.2969 202.2344,272.3906 C201.8125,272.6563 201.125,272.7813 200.3594,272.7813 C198.3125,272.7813 197.0156,271.6875 197.0156,269.9844 L197.0156,268.8906 C197.0156,267.1094 198.2656,265.7969 200,265.7969 C200.5781,265.7969 201.1875,265.9531 201.6563,266.2031 C202.1406,266.4844 202.3125,266.7031 202.4063,267.1094 C202.4688,267.5156 202.5,267.6406 202.6406,267.7656 C202.7813,267.9063 203.0156,268.0156 203.2344,268.0156 C203.5,268.0156 203.7656,267.875 203.9375,267.6563 C204.0469,267.5 204.0781,267.3125 204.0781,266.8906 L204.0781,265.4688 C204.0781,265.0313 204.0625,264.9063 203.9688,264.75 C203.8125,264.4844 203.5313,264.3438 203.2344,264.3438 C202.9375,264.3438 202.7344,264.4375 202.5156,264.75 L202.3438,264.6719 Z " fill="#000000"/><text fill="#000000" font-family="sans-serif" font-size="12" lengthAdjust="spacing" textLength="84" x="214" y="273.1543">EytrackingBild</text><line style="stroke:#A80036;stroke-width:1.5;" x1="186" x2="300" y1="285" y2="285"/><rect fill="none" height="6" style="stroke:#C82930;stroke-width:1.0;" width="6" x="193" y="293"/><text fill="#000000" font-family="sans-serif" font-size="11" lengthAdjust="spacing" textLength="51" x="205" y="299.2104">width: int</text><rect fill="none" height="6" style="stroke:#C82930;stroke-width:1.0;" width="6" x="193" y="305.8047"/><text fill="#000000" font-family="sans-serif" font-size="11" lengthAdjust="spacing" textLength="57" x="205" y="312.0151">height: int</text><line style="stroke:#A80036;stroke-width:1.5;" x1="186" x2="300" y1="318.6094" y2="318.6094"/><ellipse cx="196" cy="329.6094" rx="3" ry="3" style="stroke:#038048;stroke-width:1.0;fill:none;"/><text fill="#000000" font-family="sans-serif" font-size="11" lengthAdjust="spacing" textLength="46" x="205" y="332.8198">load grit</text><!--MD5=[a541f3baafda59537ec3a67c6f74e0c5]
class Setup--><rect codeLine="43" fill="#FEFECE" filter="url(#ff7sid622uo35)" height="120.8281" id="Setup" style="stroke:#A80036;stroke-width:1.5;" width="351" x="67.5" y="416"/><ellipse cx="221.25" cy="432" fill="#ADD1B2" rx="11" ry="11" style="stroke:#A80036;stroke-width:1.0;"/><path d="M223.5938,427.6719 C222.6563,427.2344 222.0625,427.0938 221.1875,427.0938 C218.5625,427.0938 216.5625,429.1719 216.5625,431.8906 L216.5625,433.0156 C216.5625,435.5938 218.6719,437.4844 221.5625,437.4844 C222.7813,437.4844 223.9375,437.1875 224.6875,436.6406 C225.2656,436.2344 225.5938,435.7813 225.5938,435.3906 C225.5938,434.9375 225.2031,434.5469 224.7344,434.5469 C224.5156,434.5469 224.3125,434.625 224.125,434.8125 C223.6719,435.2969 223.6719,435.2969 223.4844,435.3906 C223.0625,435.6563 222.375,435.7813 221.6094,435.7813 C219.5625,435.7813 218.2656,434.6875 218.2656,432.9844 L218.2656,431.8906 C218.2656,430.1094 219.5156,428.7969 221.25,428.7969 C221.8281,428.7969 222.4375,428.9531 222.9063,429.2031 C223.3906,429.4844 223.5625,429.7031 223.6563,430.1094 C223.7188,430.5156 223.75,430.6406 223.8906,430.7656 C224.0313,430.9063 224.2656,431.0156 224.4844,431.0156 C224.75,431.0156 225.0156,430.875 225.1875,430.6563 C225.2969,430.5 225.3281,430.3125 225.3281,429.8906 L225.3281,428.4688 C225.3281,428.0313 225.3125,427.9063 225.2188,427.75 C225.0625,427.4844 224.7813,427.3438 224.4844,427.3438 C224.1875,427.3438 223.9844,427.4375 223.7656,427.75 L223.5938,427.6719 Z " fill="#000000"/><text fill="#000000" font-family="sans-serif" font-size="12" lengthAdjust="spacing" textLength="35" x="241.75" y="436.1543">Setup</text><line style="stroke:#A80036;stroke-width:1.5;" x1="68.5" x2="417.5" y1="448" y2="448"/><rect fill="none" height="6" style="stroke:#C82930;stroke-width:1.0;" width="6" x="75.5" y="456"/><text fill="#000000" font-family="sans-serif" font-size="11" lengthAdjust="spacing" textLength="80" x="87.5" y="462.2104">distance: float</text><rect fill="none" height="6" style="stroke:#C82930;stroke-width:1.0;" width="6" x="75.5" y="468.8047"/><text fill="#000000" font-family="sans-serif" font-size="11" lengthAdjust="spacing" textLength="76" x="87.5" y="475.0151">position: float</text><rect fill="none" height="6" style="stroke:#C82930;stroke-width:1.0;" width="6" x="75.5" y="481.6094"/><text fill="#000000" font-family="sans-serif" font-size="11" lengthAdjust="spacing" textLength="104" x="87.5" y="487.8198">angle_from _Auge</text><rect fill="#F24D5C" height="6" style="stroke:#C82930;stroke-width:1.0;" width="6" x="75.5" y="511.2188"/><text fill="#000000" font-family="sans-serif" font-size="11" lengthAdjust="spacing" textLength="325" x="87.5" y="517.4292">calculate(input_pupil: position, angle) : return coordinates</text><rect fill="#F24D5C" height="6" style="stroke:#C82930;stroke-width:1.0;" width="6" x="75.5" y="524.0234"/><text fill="#000000" font-family="sans-serif" font-size="11" lengthAdjust="spacing" textLength="162" x="87.5" y="530.2339">save_in_results(coordinates)</text><line style="stroke:#A80036;stroke-width:1.5;" x1="68.5" x2="196" y1="500.8164" y2="500.8164"/><text fill="#000000" font-family="sans-serif" font-size="11" lengthAdjust="spacing" textLength="94" x="196" y="504.1245">private methods</text><line style="stroke:#A80036;stroke-width:1.5;" x1="290" x2="417.5" y1="500.8164" y2="500.8164"/><!--MD5=[f856f85595ce4f8bf435bc42f531c692]
class Results--><rect codeLine="53" fill="#FEFECE" filter="url(#ff7sid622uo35)" height="60.8047" id="Results" style="stroke:#A80036;stroke-width:1.5;" width="167" x="344.5" y="266"/><ellipse cx="402.25" cy="282" fill="#ADD1B2" rx="11" ry="11" style="stroke:#A80036;stroke-width:1.0;"/><path d="M404.5938,277.6719 C403.6563,277.2344 403.0625,277.0938 402.1875,277.0938 C399.5625,277.0938 397.5625,279.1719 397.5625,281.8906 L397.5625,283.0156 C397.5625,285.5938 399.6719,287.4844 402.5625,287.4844 C403.7813,287.4844 404.9375,287.1875 405.6875,286.6406 C406.2656,286.2344 406.5938,285.7813 406.5938,285.3906 C406.5938,284.9375 406.2031,284.5469 405.7344,284.5469 C405.5156,284.5469 405.3125,284.625 405.125,284.8125 C404.6719,285.2969 404.6719,285.2969 404.4844,285.3906 C404.0625,285.6563 403.375,285.7813 402.6094,285.7813 C400.5625,285.7813 399.2656,284.6875 399.2656,282.9844 L399.2656,281.8906 C399.2656,280.1094 400.5156,278.7969 402.25,278.7969 C402.8281,278.7969 403.4375,278.9531 403.9063,279.2031 C404.3906,279.4844 404.5625,279.7031 404.6563,280.1094 C404.7188,280.5156 404.75,280.6406 404.8906,280.7656 C405.0313,280.9063 405.2656,281.0156 405.4844,281.0156 C405.75,281.0156 406.0156,280.875 406.1875,280.6563 C406.2969,280.5 406.3281,280.3125 406.3281,279.8906 L406.3281,278.4688 C406.3281,278.0313 406.3125,277.9063 406.2188,277.75 C406.0625,277.4844 405.7813,277.3438 405.4844,277.3438 C405.1875,277.3438 404.9844,277.4375 404.7656,277.75 L404.5938,277.6719 Z " fill="#000000"/><text fill="#000000" font-family="sans-serif" font-size="12" lengthAdjust="spacing" textLength="43" x="422.75" y="286.1543">Results</text><line style="stroke:#A80036;stroke-width:1.5;" x1="345.5" x2="510.5" y1="298" y2="298"/><line style="stroke:#A80036;stroke-width:1.5;" x1="345.5" x2="510.5" y1="306" y2="306"/><ellipse cx="355.5" cy="317" fill="#84BE84" rx="3" ry="3" style="stroke:#038048;stroke-width:1.0;"/><text fill="#000000" font-family="sans-serif" font-size="11" lengthAdjust="spacing" textLength="141" x="364.5" y="320.2104">save(position: x, y, time)</text><polygon fill="#FFFFFF" filter="url(#ff7sid622uo35)" points="552,450,690,450,697,472.2969,704,472.2969,704,502.5938,552,502.5938,552,450" style="stroke:#000000;stroke-width:1.5;"/><line style="stroke:#000000;stroke-width:1.5;" x1="552" x2="697" y1="472.2969" y2="472.2969"/><text fill="#000000" font-family="sans-serif" font-size="14" font-weight="bold" lengthAdjust="spacing" textLength="132" x="556" y="464.9951">SpeicherMedium</text><!--MD5=[abea0b42432aea0f9ce66e53feda8644]
entity System--><ellipse cx="564" cy="296" fill="#DA70D5" filter="url(#ff7sid622uo35)" rx="8" ry="8" style="stroke:#A80036;stroke-width:1.5;"/><text fill="#000000" font-family="sans-serif" font-size="14" lengthAdjust="spacing" textLength="54" x="537" y="325.9951">System</text><!--MD5=[e0f505bf9e819c44ead7d389f7fd9876]
link Results to Setup--><path codeLine="59" d="M393.636,330.156 C368.767,354.152 334.469,387.245 304.882,415.793 " fill="none" id="Results-Setup" style="stroke:#A80036;stroke-width:1.0;"/><!--MD5=[c226bab2dc3964255b8777c5db738a43]
link Auge to Setup--><path codeLine="60" d="M127.022,339.302 C146.511,362.189 170.904,390.835 192.284,415.942 " fill="none" id="Auge-Setup" style="stroke:#A80036;stroke-width:1.0;"/><!--MD5=[f5ef2e1c41eb762c0c5e8f3ad1e12ca4]
link EytrackingBild to Setup--><path codeLine="61" d="M243,339.302 C243,362.189 243,390.835 243,415.942 " fill="none" id="EytrackingBild-Setup" style="stroke:#A80036;stroke-width:1.0;"/><!--MD5=[bc00481dc39fcf4d3ee232fc2e0a76ae]
reverse link Bild to EytrackingBild--><path codeLine="62" d="M243,154.527 C243,185.892 243,224.242 243,252.942 " fill="none" id="Bild-backto-EytrackingBild" style="stroke:#A80036;stroke-width:1.0;"/><polygon fill="none" points="236,154.133,243,134.133,250,154.133,236,154.133" style="stroke:#A80036;stroke-width:1.0;"/><!--MD5=[8c71991090da22fa4a1caf09425f88e4]
link Results to SpeicherMedium--><path codeLine="68" d="M513,316 C521.15,316 581.154,404.787 611.1,449.874 " fill="none" id="Results-SpeicherMedium" style="stroke:#A80036;stroke-width:1.0;"/><polygon fill="#000000" points="573.9554,381.5995,570.9797,372.5664,566.2385,376.0407,573.9554,381.5995" style="stroke:#000000;stroke-width:1.0;"/><text fill="#000000" font-family="sans-serif" font-size="13" lengthAdjust="spacing" textLength="73" x="580" y="382.0669">saves Data</text><!--MD5=[d543d64830650b42feb0976e9aaa5b48]
link EytrackingBild to System--><path codeLine="69" d="M263.614,252.982 C276.339,231.661 294.874,207.967 319,196 C362.2,174.572 497.579,166.859 536,196 C564.729,217.79 565.659,266.568 564.691,286.866 " fill="none" id="EytrackingBild-System" style="stroke:#A80036;stroke-width:1.0;"/><polygon fill="#000000" points="432.5314,174.0072,441.191,177.9393,441.8484,172.0983,432.5314,174.0072" style="stroke:#000000;stroke-width:1.0;"/><text fill="#000000" font-family="sans-serif" font-size="13" lengthAdjust="spacing" textLength="68" x="446.5" y="179.0669">screensize</text><!--MD5=[16398876a860c72353f21df041a38284]
link Auge to System--><path codeLine="70" d="M111.614,252.982 C124.339,231.661 142.874,207.967 167,196 C203.73,177.781 503.333,171.223 536,196 C564.729,217.79 565.659,266.568 564.691,286.866 " fill="none" id="Auge-System" style="stroke:#A80036;stroke-width:1.0;"/><polygon fill="#000000" points="305.5139,174.1935,314.3146,177.7988,314.753,171.9373,305.5139,174.1935" style="stroke:#000000;stroke-width:1.0;"/><text fill="#000000" font-family="sans-serif" font-size="13" lengthAdjust="spacing" textLength="28" x="319.5" y="179.0669">cam</text><!--MD5=[7398e6eae256c5fcf0285998f3ec51a8]
@startuml
' skinparam backgroundColor transparent
() System #DA70D5
top to bottom direction


package Util {

   

  


    ' - - - BILD - - -

    abstract Bild {
      + load(url: String) : void
      + show() : void
    }

  
}


' === EYETRACKING ===
package EYETRACKING {

    ' Auge
    class Auge {
        - input camera
        - get Eye() : void
        - get Pupil() : void
    }

    ' EytrackingBild
    class EytrackingBild {
        - width: int
        - height: int
        __
        + load grit
    }
  
    ' Setup
    class Setup {
        - distance: float
        - position: float
        - angle_from _Auge
        __private methods__
        - calculate(input_pupil: position, angle) : return coordinates
        - save_in_results(coordinates)
    }

    ' Results
    class Results {
        + save(position: x, y, time)
    }


    ' Vererbungen
    Results - - Setup
    Auge - - Setup
    EytrackingBild - - Setup
    Bild <|- - EytrackingBild
    

    

    ' Andere Module
    Results::save - - SpeicherMedium : > saves Data 
    EytrackingBild  -r- System : < screensize
    Auge -r- System : < cam
  
}

' Blackboxen / Andere Module



package SpeicherMedium {}
@enduml

@startuml
() System #DA70D5
top to bottom direction


package Util {

   

  



    abstract Bild {
      + load(url: String) : void
      + show() : void
    }

  
}


package EYETRACKING {

    class Auge {
        - input camera
        - get Eye() : void
        - get Pupil() : void
    }

    class EytrackingBild {
        - width: int
        - height: int
        __
        + load grit
    }
  
    class Setup {
        - distance: float
        - position: float
        - angle_from _Auge
        __private methods__
        - calculate(input_pupil: position, angle) : return coordinates
        - save_in_results(coordinates)
    }

    class Results {
        + save(position: x, y, time)
    }


    Results - - Setup
    Auge - - Setup
    EytrackingBild - - Setup
    Bild <|- - EytrackingBild
    

    

    Results::save - - SpeicherMedium : > saves Data 
    EytrackingBild  -r- System : < screensize
    Auge -r- System : < cam
  
}




package SpeicherMedium {}
@enduml

PlantUML version 1.2021.14beta4(Unknown compile time)
(GPL source distribution)
Java Runtime: Java(TM) SE Runtime Environment
JVM: Java HotSpot(TM) 64-Bit Server VM
Default Encoding: UTF-8
Language: en
Country: US
--></g></svg>