<?xml version="1.0" encoding="UTF-8" standalone="no"?><svg xmlns="http://www.w3.org/2000/svg" xmlns:xlink="http://www.w3.org/1999/xlink" contentScriptType="application/ecmascript" contentStyleType="text/css" height="843px" preserveAspectRatio="none" style="width:1195px;height:843px;" version="1.1" viewBox="0 0 1195 843" width="1195px" zoomAndPan="magnify"><defs><filter height="300%" id="f11npiu76q3do5" width="300%" x="-1" y="-1"><feGaussianBlur result="blurOut" stdDeviation="2.0"/><feColorMatrix in="blurOut" result="blurOut2" type="matrix" values="0 0 0 0 0 0 0 0 0 0 0 0 0 0 0 0 0 0 .4 0"/><feOffset dx="4.0" dy="4.0" in="blurOut2" result="blurOut3"/><feBlend in="SourceGraphic" in2="blurOut3" mode="normal"/></filter></defs><g><!--cluster z--><rect fill="#789DD5" filter="url(#f11npiu76q3do5)" height="385" style="stroke: #000000; stroke-width: 1.5;" width="874.5" x="141" y="32"/><text fill="#000000" font-family="sans-serif" font-size="14" font-weight="bold" lengthAdjust="spacingAndGlyphs" textLength="96" x="530.25" y="46.9951">EyeTracking</text><!--cluster a--><rect fill="#FFFFFF" filter="url(#f11npiu76q3do5)" height="128" style="stroke: #000000; stroke-width: 1.5;" width="233" x="802.5" y="457"/><text fill="#000000" font-family="sans-serif" font-size="14" font-weight="bold" lengthAdjust="spacingAndGlyphs" textLength="107" x="865.5" y="471.9951">AnalyseClient</text><!--cluster c--><rect fill="#FFFFFF" filter="url(#f11npiu76q3do5)" height="207" style="stroke: #000000; stroke-width: 1.5;" width="252" x="793" y="625"/><text fill="#000000" font-family="sans-serif" font-size="14" font-weight="bold" lengthAdjust="spacingAndGlyphs" textLength="51" x="893.5" y="639.9951">Config</text><ellipse cx="311.9752" cy="102.995" fill="#FEFECE" filter="url(#f11npiu76q3do5)" rx="125.4752" ry="27.495" style="stroke: #A80036; stroke-width: 1.5;"/><text fill="#000000" font-family="sans-serif" font-size="14" lengthAdjust="spacingAndGlyphs" textLength="231" x="196.4752" y="107.6435">Distanz zum Bildschirm eingeben</text><ellipse cx="312.2005" cy="184.9401" fill="#FEFECE" filter="url(#f11npiu76q3do5)" rx="82.7005" ry="18.9401" style="stroke: #A80036; stroke-width: 1.5;"/><text fill="#000000" font-family="sans-serif" font-size="14" lengthAdjust="spacingAndGlyphs" textLength="137" x="243.7005" y="189.5885">Kalibrieren (Tutorial)</text><ellipse cx="311.8886" cy="270.7777" fill="#FEFECE" filter="url(#f11npiu76q3do5)" rx="146.8886" ry="31.7777" style="stroke: #A80036; stroke-width: 1.5;"/><text fill="#000000" font-family="sans-serif" font-size="14" lengthAdjust="spacingAndGlyphs" textLength="276" x="173.8886" y="275.4262">zukünftige Sichtbarkeit wählen (Tutorial)</text><ellipse cx="312.1122" cy="355.9224" fill="#FEFECE" filter="url(#f11npiu76q3do5)" rx="75.1122" ry="17.4224" style="stroke: #A80036; stroke-width: 1.5;"/><text fill="#000000" font-family="sans-serif" font-size="14" lengthAdjust="spacingAndGlyphs" textLength="119" x="252.6122" y="360.5709">Bilder betrachten</text><ellipse cx="918.7526" cy="102.8505" fill="#FEFECE" filter="url(#f11npiu76q3do5)" rx="72.2526" ry="16.8505" style="stroke: #A80036; stroke-width: 1.5;"/><text fill="#000000" font-family="sans-serif" font-size="14" lengthAdjust="spacingAndGlyphs" textLength="112" x="862.7526" y="107.499">Fehler Anzeigen</text><ellipse cx="918.8318" cy="520.8664" fill="#FEFECE" filter="url(#f11npiu76q3do5)" rx="92.3318" ry="20.8664" style="stroke: #A80036; stroke-width: 1.5;"/><text fill="#000000" font-family="sans-serif" font-size="14" lengthAdjust="spacingAndGlyphs" textLength="159" x="839.3318" y="525.5148">Ergebnisse anschauen</text><ellipse cx="919.0998" cy="707.22" fill="#FEFECE" filter="url(#f11npiu76q3do5)" rx="86.5998" ry="19.72" style="stroke: #A80036; stroke-width: 1.5;"/><text fill="#000000" font-family="sans-serif" font-size="14" lengthAdjust="spacingAndGlyphs" textLength="146" x="846.0998" y="711.8684">Einstellungen setzen</text><ellipse cx="918.7923" cy="784.7585" fill="#FEFECE" filter="url(#f11npiu76q3do5)" rx="101.7923" ry="22.7585" style="stroke: #A80036; stroke-width: 1.5;"/><text fill="#000000" font-family="sans-serif" font-size="14" lengthAdjust="spacingAndGlyphs" textLength="180" x="828.7923" y="789.4069">Tutorialeinstellung ändern</text><!--entity t--><ellipse cx="46" cy="208.5" fill="#FEFECE" filter="url(#f11npiu76q3do5)" rx="8" ry="8" style="stroke: #A80036; stroke-width: 2.0;"/><path d="M46,216.5 L46,243.5 M33,224.5 L59,224.5 M46,243.5 L33,258.5 M46,243.5 L59,258.5 " fill="none" filter="url(#f11npiu76q3do5)" style="stroke: #A80036; stroke-width: 2.0;"/><text fill="#000000" font-family="sans-serif" font-size="14" lengthAdjust="spacingAndGlyphs" textLength="80" x="6" y="278.4951">Testperson</text><!--entity f--><ellipse cx="1141.5" cy="565.5" fill="#FEFECE" filter="url(#f11npiu76q3do5)" rx="8" ry="8" style="stroke: #A80036; stroke-width: 2.0;"/><path d="M1141.5,573.5 L1141.5,600.5 M1128.5,581.5 L1154.5,581.5 M1141.5,600.5 L1128.5,615.5 M1141.5,600.5 L1154.5,615.5 " fill="none" filter="url(#f11npiu76q3do5)" style="stroke: #A80036; stroke-width: 2.0;"/><text fill="#000000" font-family="sans-serif" font-size="14" lengthAdjust="spacingAndGlyphs" textLength="83" x="1100" y="635.4951">Forschende</text><!--link t to db--><path d="M73.62,198.05 C86.99,180.14 104.68,160.53 125,148 C148.61,133.44 176.61,123.59 203.62,116.93 " fill="none" id="t-db" style="stroke: #A80036; stroke-width: 1.0;"/><!--link t to kt--><path d="M86.01,230.22 C95.79,227.82 106.27,225.28 116,223 C158.98,212.93 207.73,203.43 245.74,196.45 " fill="none" id="t-kt" style="stroke: #A80036; stroke-width: 1.0;"/><!--link t to tw--><path d="M86.24,244.61 C112.02,247.64 147.35,251.78 182.37,255.9 " fill="none" id="t-tw" style="stroke: #A80036; stroke-width: 1.0;"/><!--link t to bb--><path d="M78.81,281.82 C91.67,296 107.59,310.61 125,320 C159.74,338.74 202.78,347.82 238.71,352.18 " fill="none" id="t-bb" style="stroke: #A80036; stroke-width: 1.0;"/><!--link es to f--><path d="M1003.55,702.73 C1023.24,699.23 1043.55,693.44 1061,684 C1080.97,673.19 1098.57,655.4 1112.1,638.71 " fill="none" id="es-f" style="stroke: #A80036; stroke-width: 1.0;"/><!--link ea to f--><path d="M1002.77,530.06 C1022.28,533.72 1042.71,538.84 1061,546 C1074.29,551.2 1087.72,558.75 1099.67,566.46 " fill="none" id="ea-f" style="stroke: #A80036; stroke-width: 1.0;"/><!--link tw to tä--><path d="M453.93,283.53 C559.8,301.14 698.25,343.46 769,445 C788,472.27 756.69,717.69 777,744 C788.99,759.54 806.53,769.44 825.19,775.69 " fill="none" id="tw-tä" style="stroke: #A80036; stroke-width: 1.0; stroke-dasharray: 7.0,7.0;"/><polygon fill="#A80036" points="448.91,282.71,457.1376,288.1236,453.8431,283.525,458.4417,280.2306,448.91,282.71" style="stroke: #A80036; stroke-width: 1.0;"/><text fill="#000000" font-family="sans-serif" font-size="13" lengthAdjust="spacingAndGlyphs" textLength="73" x="592.5" y="288.0669">«excluded»</text><!--link z to a--><path d="M337.3136,417.0831 C338.9331,417.621 340.6241,418.1826 342.3839,418.7668 C345.9035,419.9353 349.6978,421.1946 353.7441,422.5367 C361.8366,425.221 370.9367,428.2369 380.8608,431.5219 C420.5572,444.6619 473.4381,462.1075 527.7588,479.8575 C636.4,515.3575 750.8,552.075 777,558 C784.5888,559.7163 792.4448,561.2978 800.3876,562.7519 C800.884,562.8427 801.3808,562.9331 801.8778,563.023 " fill="none" id="z-a" style="stroke: #A80036; stroke-width: 1.0; stroke-dasharray: 7.0,7.0;"/><text fill="#000000" font-family="sans-serif" font-size="13" lengthAdjust="spacingAndGlyphs" textLength="142" x="558" y="466.0669">über Speichermedium</text><!--link z to c--><path d="M318.6502,417.3431 C318.7399,417.4723 318.8308,417.6028 318.9226,417.7347 C319.1063,417.9985 319.294,418.2676 319.4858,418.542 C320.253,419.6396 321.085,420.8211 321.9802,422.0811 C323.7704,424.6011 325.813,427.4347 328.0941,430.5367 C337.2181,442.9447 350.1563,459.6469 366.0125,477.7488 C397.725,513.9525 441.11,555.755 489,580 C574.57,623.32 680.82,641.3775 766.1713,648.5763 C771.5057,649.0262 776.7585,649.4337 781.9196,649.8023 C784.5001,649.9866 787.0576,650.1612 789.591,650.3265 C790.2243,650.3678 790.8562,650.4085 791.4864,650.4487 " fill="none" id="z-c" style="stroke: #A80036; stroke-width: 1.0; stroke-dasharray: 7.0,7.0;"/><polygon fill="#A80036" points="791.4864,650.4487,782.7591,645.8844,786.4966,650.1307,782.2503,653.8682,791.4864,650.4487" style="stroke: #A80036; stroke-width: 1.0;"/><text fill="#000000" font-family="sans-serif" font-size="13" lengthAdjust="spacingAndGlyphs" textLength="278" x="490" y="576.0669">«included» Versuchseinstellungen abfragen</text><!--link db to fa--><path d="M442.71,103 C565.97,103 746.8,103 846.11,103 " fill="none" id="db-fa" style="stroke: #A80036; stroke-width: 1.0; stroke-dasharray: 7.0,7.0;"/><polygon fill="#A80036" points="437.62,103,446.62,107,442.62,103,446.62,99,437.62,103" style="stroke: #A80036; stroke-width: 1.0;"/><text fill="#000000" font-family="sans-serif" font-size="13" lengthAdjust="spacingAndGlyphs" textLength="73" x="592.5" y="99.0669">«excluded»</text><!--
@startuml EyeTracking
left to right direction

actor Testperson as t
actor Forschende as f

rectangle EyeTracking as z #789dd5 {
    usecase "Distanz zum Bildschirm eingeben" as db
    usecase "Kalibrieren (Tutorial)" as kt
    usecase "zukünftige Sichtbarkeit wählen (Tutorial)" as tw
    usecase "Bilder betrachten" as bb
    usecase "Fehler Anzeigen" as fa
}

rectangle AnalyseClient as a {
    usecase "Ergebnisse anschauen" as ea
}

rectangle Config as c {
    usecase "Einstellungen setzen" as es
    usecase "Tutorialeinstellung ändern" as tä
}

t - - db
t - - kt
t - - tw
t - - bb

es - - f
ea - - f

tw <.. tä : <<excluded>> 
z .. a : über Speichermedium
z ..> c : <<included>> Versuchseinstellungen abfragen
db <.. fa : <<excluded>>

@enduml

PlantUML version 1.2019.06(Fri May 24 17:10:25 UTC 2019)
(GPL source distribution)
Java Runtime: OpenJDK Runtime Environment
JVM: OpenJDK 64-Bit Server VM
Java Version: 11.0.11+9
Operating System: Linux
OS Version: 5.11.0-1021-azure
Default Encoding: UTF-8
Language: en
Country: null
--></g></svg>