<?xml version="1.0" encoding="UTF-8" standalone="no"?><svg xmlns="http://www.w3.org/2000/svg" xmlns:xlink="http://www.w3.org/1999/xlink" contentScriptType="application/ecmascript" contentStyleType="text/css" height="734px" preserveAspectRatio="none" style="width:1198px;height:734px;background:#FFFFFF;" version="1.1" viewBox="0 0 1198 734" width="1198px" zoomAndPan="magnify"><defs><filter height="300%" id="fdyygdcfypdlt" width="300%" x="-1" y="-1"><feGaussianBlur result="blurOut" stdDeviation="2.0"/><feColorMatrix in="blurOut" result="blurOut2" type="matrix" values="0 0 0 0 0 0 0 0 0 0 0 0 0 0 0 0 0 0 .4 0"/><feOffset dx="4.0" dy="4.0" in="blurOut2" result="blurOut3"/><feBlend in="SourceGraphic" in2="blurOut3" mode="normal"/></filter></defs><g><!--MD5=[0dddb7f964ed21e384072c4693cca302]
cluster z--><rect fill="#789DD5" filter="url(#fdyygdcfypdlt)" height="272" style="stroke:#000000;stroke-width:1.5;" width="761" x="7" y="140.5"/><text fill="#000000" font-family="sans-serif" font-size="14" font-weight="bold" lengthAdjust="spacing" textLength="98" x="338.5" y="155.4951">EyeTracking</text><!--MD5=[03c9795141fffc1586b10a901fd13311]
cluster a--><rect fill="#FFFFFF" filter="url(#fdyygdcfypdlt)" height="111" style="stroke:#000000;stroke-width:1.5;" width="263" x="923" y="480"/><text fill="#000000" font-family="sans-serif" font-size="14" font-weight="bold" lengthAdjust="spacing" textLength="110" x="999.5" y="494.9951">AnalyseClient</text><!--MD5=[b3179ce4f793cc951a1964cbf548eaa1]
cluster c--><rect fill="#FFFFFF" filter="url(#fdyygdcfypdlt)" height="116" style="stroke:#000000;stroke-width:1.5;" width="512" x="299" y="477.5"/><text fill="#000000" font-family="sans-serif" font-size="14" font-weight="bold" lengthAdjust="spacing" textLength="52" x="529" y="492.4951">Config</text><ellipse cx="165.9476" cy="212.8895" fill="#FEFECE" filter="url(#fdyygdcfypdlt)" rx="134.9476" ry="29.3895" style="stroke:#A80036;stroke-width:1.5;"/><text fill="#000000" font-family="sans-serif" font-size="14" lengthAdjust="spacing" textLength="239" x="46.4476" y="215.7362">Distanz zum Bildschirm eingeben</text><ellipse cx="428.7771" cy="212.9554" fill="#FEFECE" filter="url(#fdyygdcfypdlt)" rx="92.7771" ry="20.9554" style="stroke:#A80036;stroke-width:1.5;"/><text fill="#000000" font-family="sans-serif" font-size="14" lengthAdjust="spacing" textLength="148" x="354.7771" y="215.8021">Kalibrieren (Tutorial)</text><ellipse cx="433.8317" cy="354.1663" fill="#FEFECE" filter="url(#fdyygdcfypdlt)" rx="161.3317" ry="34.6663" style="stroke:#A80036;stroke-width:1.5;"/><text fill="#000000" font-family="sans-serif" font-size="14" lengthAdjust="spacing" textLength="294" x="286.8317" y="357.013">zukünftige Sichtbarkeit wählen (Tutorial)</text><ellipse cx="640.995" cy="213.199" fill="#FEFECE" filter="url(#fdyygdcfypdlt)" rx="83.995" ry="19.199" style="stroke:#A80036;stroke-width:1.5;"/><text fill="#000000" font-family="sans-serif" font-size="14" lengthAdjust="spacing" textLength="128" x="576.7335" y="216.1356">Bilder betrachten</text><ellipse cx="157.9652" cy="354.193" fill="#FEFECE" filter="url(#fdyygdcfypdlt)" rx="78.9652" ry="18.193" style="stroke:#A80036;stroke-width:1.5;"/><text fill="#000000" font-family="sans-serif" font-size="14" lengthAdjust="spacing" textLength="116" x="97.9" y="357.6886">Fehler Anzeigen</text><ellipse cx="1063.7599" cy="544.852" fill="#FEFECE" filter="url(#fdyygdcfypdlt)" rx="97.2599" ry="21.852" style="stroke:#A80036;stroke-width:1.5;"/><text fill="#000000" font-family="sans-serif" font-size="14" lengthAdjust="spacing" textLength="158" x="984.7599" y="547.6987">Ergebnisse anschauen</text><ellipse cx="674.1693" cy="545.1339" fill="#FEFECE" filter="url(#fdyygdcfypdlt)" rx="93.6693" ry="21.1339" style="stroke:#A80036;stroke-width:1.5;"/><text fill="#000000" font-family="sans-serif" font-size="14" lengthAdjust="spacing" textLength="150" x="599.1693" y="547.9805">Einstellungen setzen</text><ellipse cx="433.9811" cy="545.0962" fill="#FEFECE" filter="url(#fdyygdcfypdlt)" rx="110.9811" ry="24.5962" style="stroke:#A80036;stroke-width:1.5;"/><text fill="#000000" font-family="sans-serif" font-size="14" lengthAdjust="spacing" textLength="188" x="339.9811" y="547.9429">Tutorialeinstellung ändern</text><!--MD5=[4b52362e67c82d91eba5cb75921775cc]
entity t--><ellipse cx="429" cy="14" fill="#FEFECE" filter="url(#fdyygdcfypdlt)" rx="8" ry="8" style="stroke:#A80036;stroke-width:1.5;"/><path d="M429,22 L429,49 M416,30 L442,30 M429,49 L416,64 M429,49 L442,64 " fill="none" filter="url(#fdyygdcfypdlt)" style="stroke:#A80036;stroke-width:1.5;"/><text fill="#000000" font-family="sans-serif" font-size="14" lengthAdjust="spacing" textLength="82" x="388" y="82.4951">Testperson</text><!--MD5=[8f89c3b771be60a8fe1c771d5b27a045]
entity f--><ellipse cx="912" cy="658" fill="#FEFECE" filter="url(#fdyygdcfypdlt)" rx="8" ry="8" style="stroke:#A80036;stroke-width:1.5;"/><path d="M912,666 L912,693 M899,674 L925,674 M912,693 L899,708 M912,693 L925,708 " fill="none" filter="url(#fdyygdcfypdlt)" style="stroke:#A80036;stroke-width:1.5;"/><text fill="#000000" font-family="sans-serif" font-size="14" lengthAdjust="spacing" textLength="83" x="870.5" y="726.4951">Forschende</text><!--MD5=[f4b652cb6e635502adcf6cbd29b1c2e6]
link t to db--><path d="M387.906,71.938 C339.22,102.667 258.488,153.624 208.988,184.867 " fill="none" id="t-db" style="stroke:#A80036;stroke-width:1.0;"/><!--MD5=[1d038bd30d8cfb743713e1d9592c2619]
link t to kt--><path d="M429,85.761 C429,119.14 429,165.464 429,191.715 " fill="none" id="t-kt" style="stroke:#A80036;stroke-width:1.0;"/><!--MD5=[a47cc61414be02f1a1dc46a9068d5641]
link t to bb--><path d="M470.122,74.045 C491.067,88.654 516.743,107.068 539,124.5 C568.573,147.662 601.292,176.299 621.503,194.363 " fill="none" id="t-bb" style="stroke:#A80036;stroke-width:1.0;"/><!--MD5=[87062a31269c98bfe6fc3d0ae56b2396]
link es to f--><path d="M702.097,565.158 C721.282,578.05 747.403,595.232 771,609.5 C803.846,629.36 841.918,650.4452 870.216,665.7568 " fill="none" id="es-f" style="stroke:#A80036;stroke-width:1.0;"/><!--MD5=[138a0e8de6b50cd1dd0c7fc97c7a4d6c]
link ea to f--><path d="M1041.9,566.648 C1018.84,588.186 982.156,622.46 953.641,649.0981 " fill="none" id="ea-f" style="stroke:#A80036;stroke-width:1.0;"/><!--MD5=[2827afe277d74b8b1048bdf68fbae7e3]
reverse link tw to tä--><path d="M434,393.797 C434,431.844 434,488.625 434,520.36 " fill="none" id="tw-backto-tä" style="stroke:#A80036;stroke-width:1.0;stroke-dasharray:7.0,7.0;"/><polygon fill="#A80036" points="434,388.789,430,397.789,434,393.789,438,397.789,434,388.789" style="stroke:#A80036;stroke-width:1.0;"/><text fill="#000000" font-family="sans-serif" font-size="13" lengthAdjust="spacing" textLength="77" x="435" y="449.5669">«extended»</text><!--MD5=[63b0b4f2c04a4d4323df6b79656b845a]
link z to a--><path d="M768.4003,215.7661 C768.5372,215.7972 768.6756,215.8287 768.8155,215.8606 C769.375,215.9883 769.9584,216.123 770.5648,216.2648 C771.7777,216.5484 773.0826,216.8603 774.4732,217.2014 C777.2545,217.8836 780.3782,218.6828 783.7922,219.6065 C797.4485,223.301 815.7502,228.9864 835.3594,237.14 C874.5778,253.4473 919.026,279.6275 942,319.5 C954.2735,340.801 951.8005,395.5187 946.1239,445.5984 C945.4143,451.8583 944.6547,458.0458 943.8675,464.0865 C943.4739,467.1068 943.0735,470.0905 942.669,473.0281 C942.4667,474.497 942.2635,475.9543 942.0595,477.399 C941.9576,478.1213 941.8554,478.8405 941.7532,479.5563 " fill="none" id="z-to-a" style="stroke:#A80036;stroke-width:1.0;stroke-dasharray:7.0,7.0;"/><polygon fill="#A80036" points="941.7532,479.5563,946.9856,471.2124,942.4602,474.6066,939.066,470.0811,941.7532,479.5563" style="stroke:#A80036;stroke-width:1.0;"/><text fill="#000000" font-family="sans-serif" font-size="13" lengthAdjust="spacing" textLength="141" x="952" y="358.5669">über Speichermedium</text><!--MD5=[e555bde5371ff03b38ff4a3e0b52fb34]
reverse link z to c--><path d="M768.0699,275.9317 C768.2024,276.9482 768.336,277.9735 768.4707,279.0072 C769.0094,283.1419 769.5657,287.4111 770.137,291.7955 C771.2796,300.5645 772.4823,309.7945 773.725,319.3319 C776.2105,338.4068 778.8562,358.7111 781.5019,379.0151 C784.1475,399.3192 786.7931,419.6229 789.2785,438.6965 C790.5211,448.2333 791.7237,457.4626 792.8662,466.2306 C793.1518,468.4226 793.4337,470.5858 793.7115,472.7177 C793.8504,473.7837 793.9883,474.8419 794.1251,475.8919 C794.1935,476.417 794.2617,476.94 794.3296,477.4609 " fill="none" id="z-backto-c" style="stroke:#A80036;stroke-width:1.0;stroke-dasharray:7.0,7.0;"/><polygon fill="#A80036" points="768.0699,275.9317,765.2663,285.3731,768.716,280.8898,773.1993,284.3394,768.0699,275.9317" style="stroke:#A80036;stroke-width:1.0;"/><text fill="#000000" font-family="sans-serif" font-size="13" lengthAdjust="spacing" textLength="144" x="789" y="358.5669">Versuchseinstellungen</text><!--MD5=[20bf6e442aaac7bf2343ed0776c5b5d5]
reverse link db to fa--><path d="M164.052,247.855 C162.455,275.603 160.259,313.744 158.999,335.642 " fill="none" id="db-backto-fa" style="stroke:#A80036;stroke-width:1.0;stroke-dasharray:7.0,7.0;"/><polygon fill="#A80036" points="164.342,242.801,159.8317,251.5564,164.0548,247.7927,167.8185,252.0159,164.342,242.801" style="stroke:#A80036;stroke-width:1.0;"/><text fill="#000000" font-family="sans-serif" font-size="13" lengthAdjust="spacing" textLength="68" x="164" y="285.5669">«extends»</text><!--MD5=[e6b5f3c851887964057047144eb875f9]
link kt to tw--><path d="M429.727,234.212 C430.479,255.106 431.671,288.246 432.605,314.22 " fill="none" id="kt-to-tw" style="stroke:#A80036;stroke-width:1.0;stroke-dasharray:7.0,7.0;"/><polygon fill="#A80036" points="432.788,319.313,436.4613,310.1748,432.608,314.3162,428.4665,310.4629,432.788,319.313" style="stroke:#A80036;stroke-width:1.0;"/><text fill="#000000" font-family="sans-serif" font-size="13" lengthAdjust="spacing" textLength="61" x="433" y="285.5669">«include»</text><!--MD5=[8f527ff8ce30d928e3e83af96a1e66e6]
@startuml
' left to right direction

actor Testperson as t
actor Forschende as f

rectangle EyeTracking as z #789dd5 {
    usecase "Distanz zum Bildschirm eingeben" as db
    usecase "Kalibrieren (Tutorial)" as kt
    usecase "zukünftige Sichtbarkeit wählen (Tutorial)" as tw
    usecase "Bilder betrachten" as bb
    usecase "Fehler Anzeigen" as fa
}

rectangle AnalyseClient as a {
    usecase "Ergebnisse anschauen" as ea
}

rectangle Config as c {
    usecase "Einstellungen setzen" as es
    usecase "Tutorialeinstellung ändern" as tä
}

' Testperson
t - - db
t - - kt
t - - bb

' Forschende
es - - f
ea - - f

' intern
tw <.. tä : <<extended>> 
z ..> a : über Speichermedium
z <.. c : Versuchseinstellungen
db <.. fa : <<extends>>
kt ..> tw : <<include>>
@enduml

@startuml

actor Testperson as t
actor Forschende as f

rectangle EyeTracking as z #789dd5 {
    usecase "Distanz zum Bildschirm eingeben" as db
    usecase "Kalibrieren (Tutorial)" as kt
    usecase "zukünftige Sichtbarkeit wählen (Tutorial)" as tw
    usecase "Bilder betrachten" as bb
    usecase "Fehler Anzeigen" as fa
}

rectangle AnalyseClient as a {
    usecase "Ergebnisse anschauen" as ea
}

rectangle Config as c {
    usecase "Einstellungen setzen" as es
    usecase "Tutorialeinstellung ändern" as tä
}

t - - db
t - - kt
t - - bb

es - - f
ea - - f

tw <.. tä : <<extended>> 
z ..> a : über Speichermedium
z <.. c : Versuchseinstellungen
db <.. fa : <<extends>>
kt ..> tw : <<include>>
@enduml

PlantUML version 1.2021.15beta6(Unknown compile time)
(GPL source distribution)
Java Runtime: Java(TM) SE Runtime Environment
JVM: Java HotSpot(TM) 64-Bit Server VM
Default Encoding: UTF-8
Language: en
Country: US
--></g></svg>