<?xml version="1.0" encoding="UTF-8" standalone="no"?><svg xmlns="http://www.w3.org/2000/svg" xmlns:xlink="http://www.w3.org/1999/xlink" contentScriptType="application/ecmascript" contentStyleType="text/css" height="843px" preserveAspectRatio="none" style="width:1240px;height:843px;background:#FFFFFF;" version="1.1" viewBox="0 0 1240 843" width="1240px" zoomAndPan="magnify"><defs><filter height="300%" id="f1m0gdvzo7kg0" width="300%" x="-1" y="-1"><feGaussianBlur result="blurOut" stdDeviation="2.0"/><feColorMatrix in="blurOut" result="blurOut2" type="matrix" values="0 0 0 0 0 0 0 0 0 0 0 0 0 0 0 0 0 0 .4 0"/><feOffset dx="4.0" dy="4.0" in="blurOut2" result="blurOut3"/><feBlend in="SourceGraphic" in2="blurOut3" mode="normal"/></filter></defs><g><!--MD5=[0dddb7f964ed21e384072c4693cca302]
cluster z--><rect fill="#789DD5" filter="url(#f1m0gdvzo7kg0)" height="401" style="stroke:#000000;stroke-width:1.5;" width="920" x="143" y="7"/><text fill="#000000" font-family="sans-serif" font-size="14" font-weight="bold" lengthAdjust="spacing" textLength="98" x="554" y="21.9951">EyeTracking</text><!--MD5=[03c9795141fffc1586b10a901fd13311]
cluster a--><rect fill="#FFFFFF" filter="url(#f1m0gdvzo7kg0)" height="130" style="stroke:#000000;stroke-width:1.5;" width="243" x="838.5" y="448"/><text fill="#000000" font-family="sans-serif" font-size="14" font-weight="bold" lengthAdjust="spacing" textLength="110" x="905" y="462.9951">AnalyseClient</text><!--MD5=[b3179ce4f793cc951a1964cbf548eaa1]
cluster c--><rect fill="#FFFFFF" filter="url(#f1m0gdvzo7kg0)" height="213" style="stroke:#000000;stroke-width:1.5;" width="270" x="825" y="618"/><text fill="#000000" font-family="sans-serif" font-size="14" font-weight="bold" lengthAdjust="spacing" textLength="52" x="934" y="632.9951">Config</text><ellipse cx="328.4476" cy="79.8895" fill="#FEFECE" filter="url(#f1m0gdvzo7kg0)" rx="134.9476" ry="29.3895" style="stroke:#A80036;stroke-width:1.5;"/><text fill="#000000" font-family="sans-serif" font-size="14" lengthAdjust="spacing" textLength="239" x="208.9476" y="82.7362">Distanz zum Bildschirm eingeben</text><ellipse cx="328.2771" cy="165.9554" fill="#FEFECE" filter="url(#f1m0gdvzo7kg0)" rx="92.7771" ry="20.9554" style="stroke:#A80036;stroke-width:1.5;"/><text fill="#000000" font-family="sans-serif" font-size="14" lengthAdjust="spacing" textLength="148" x="254.2771" y="168.8021">Kalibrieren (Tutorial)</text><ellipse cx="328.3317" cy="257.1663" fill="#FEFECE" filter="url(#f1m0gdvzo7kg0)" rx="161.3317" ry="34.6663" style="stroke:#A80036;stroke-width:1.5;"/><text fill="#000000" font-family="sans-serif" font-size="14" lengthAdjust="spacing" textLength="294" x="181.3317" y="260.013">zukünftige Sichtbarkeit wählen (Tutorial)</text><ellipse cx="328.495" cy="346.199" fill="#FEFECE" filter="url(#f1m0gdvzo7kg0)" rx="83.995" ry="19.199" style="stroke:#A80036;stroke-width:1.5;"/><text fill="#000000" font-family="sans-serif" font-size="14" lengthAdjust="spacing" textLength="128" x="264.2335" y="349.1356">Bilder betrachten</text><ellipse cx="959.9652" cy="80.193" fill="#FEFECE" filter="url(#f1m0gdvzo7kg0)" rx="78.9652" ry="18.193" style="stroke:#A80036;stroke-width:1.5;"/><text fill="#000000" font-family="sans-serif" font-size="14" lengthAdjust="spacing" textLength="116" x="899.9" y="83.6886">Fehler Anzeigen</text><ellipse cx="959.7599" cy="512.852" fill="#FEFECE" filter="url(#f1m0gdvzo7kg0)" rx="97.2599" ry="21.852" style="stroke:#A80036;stroke-width:1.5;"/><text fill="#000000" font-family="sans-serif" font-size="14" lengthAdjust="spacing" textLength="158" x="880.7599" y="515.6987">Ergebnisse anschauen</text><ellipse cx="960.1693" cy="701.1339" fill="#FEFECE" filter="url(#f1m0gdvzo7kg0)" rx="93.6693" ry="21.1339" style="stroke:#A80036;stroke-width:1.5;"/><text fill="#000000" font-family="sans-serif" font-size="14" lengthAdjust="spacing" textLength="150" x="885.1693" y="703.9805">Einstellungen setzen</text><ellipse cx="959.9811" cy="782.0962" fill="#FEFECE" filter="url(#f1m0gdvzo7kg0)" rx="110.9811" ry="24.5962" style="stroke:#A80036;stroke-width:1.5;"/><text fill="#000000" font-family="sans-serif" font-size="14" lengthAdjust="spacing" textLength="188" x="865.9811" y="784.9429">Tutorialeinstellung ändern</text><!--MD5=[4b52362e67c82d91eba5cb75921775cc]
entity t--><ellipse cx="47" cy="181" fill="#FEFECE" filter="url(#f1m0gdvzo7kg0)" rx="8" ry="8" style="stroke:#A80036;stroke-width:1.5;"/><path d="M47,189 L47,216 M34,197 L60,197 M47,216 L34,231 M47,216 L60,231 " fill="none" filter="url(#f1m0gdvzo7kg0)" style="stroke:#A80036;stroke-width:1.5;"/><text fill="#000000" font-family="sans-serif" font-size="14" lengthAdjust="spacing" textLength="82" x="6" y="249.4951">Testperson</text><!--MD5=[8f89c3b771be60a8fe1c771d5b27a045]
entity f--><ellipse cx="1191.5" cy="558" fill="#FEFECE" filter="url(#f1m0gdvzo7kg0)" rx="8" ry="8" style="stroke:#A80036;stroke-width:1.5;"/><path d="M1191.5,566 L1191.5,593 M1178.5,574 L1204.5,574 M1191.5,593 L1178.5,608 M1191.5,593 L1204.5,608 " fill="none" filter="url(#f1m0gdvzo7kg0)" style="stroke:#A80036;stroke-width:1.5;"/><text fill="#000000" font-family="sans-serif" font-size="14" lengthAdjust="spacing" textLength="83" x="1150" y="626.4951">Forschende</text><!--MD5=[f4b652cb6e635502adcf6cbd29b1c2e6]
link t to db--><path d="M77.0774,171.453 C90.5551,155.387 107.836,138.129 127,127 C152.739,112.053 182.941,101.857 211.981,94.903 " fill="none" id="t-db" style="stroke:#A80036;stroke-width:1.0;"/><!--MD5=[1d038bd30d8cfb743713e1d9592c2619]
link t to kt--><path d="M88.0455,205.409 C130.914,198.354 199.9,187 252.84,178.287 " fill="none" id="t-kt" style="stroke:#A80036;stroke-width:1.0;"/><!--MD5=[af6959071ebafe7e84c012ab58a7e6fb]
link t to tw--><path d="M88.0455,218.447 C117.329,223.162 158.8,229.839 199.017,236.314 " fill="none" id="t-tw" style="stroke:#A80036;stroke-width:1.0;"/><!--MD5=[a47cc61414be02f1a1dc46a9068d5641]
link t to bb--><path d="M71.5381,252.805 C85.1939,272.83 104.2042,295.493 127,309 C162.325,329.931 206.804,339.49 244.888,343.685 " fill="none" id="t-bb" style="stroke:#A80036;stroke-width:1.0;"/><!--MD5=[87062a31269c98bfe6fc3d0ae56b2396]
link es to f--><path d="M1051.07,695.882 C1071.64,692.073 1092.79,685.896 1111,676 C1131.31,664.961 1149.18,646.716 1162.81,629.778 " fill="none" id="es-f" style="stroke:#A80036;stroke-width:1.0;"/><!--MD5=[138a0e8de6b50cd1dd0c7fc97c7a4d6c]
link ea to f--><path d="M1048.61,522.297 C1069.49,526.109 1091.38,531.47 1111,539 C1124.24,544.084 1137.67,551.487 1149.62,559.045 " fill="none" id="ea-f" style="stroke:#A80036;stroke-width:1.0;"/><!--MD5=[2827afe277d74b8b1048bdf68fbae7e3]
reverse link tw to tä--><path d="M486.943,268.653 C594.525,285.741 730.003,327.186 801,427 C821.164,455.349 787.624,712.553 809,740 C821.213,755.6821 838.778,765.8214 857.615,772.308 " fill="none" id="tw-backto-tä" style="stroke:#A80036;stroke-width:1.0;stroke-dasharray:7.0,7.0;"/><polygon fill="#A80036" points="481.842,267.858,490.1171,273.1987,486.7821,268.6294,491.3514,265.2945,481.842,267.858" style="stroke:#A80036;stroke-width:1.0;"/><text fill="#000000" font-family="sans-serif" font-size="13" lengthAdjust="spacing" textLength="74" x="623.5" y="272.0669">«excluded»</text><!--MD5=[63b0b4f2c04a4d4323df6b79656b845a]
link z to a--><path d="M361.6757,408.1042 C363.189,408.4935 364.7499,408.8959 366.3572,409.3114 C369.5718,410.1423 372.9722,411.0254 376.5485,411.9591 C405.1583,419.4288 445.0216,430.1421 491.0688,443.3669 C583.163,469.8165 699.9925,506.3125 801,547 C804.687,548.485 805.196,549.845 809,551 C816.9119,553.4026 825.1478,555.5017 833.5081,557.3354 C834.5532,557.5646 835.6002,557.7897 836.6487,558.0107 C837.173,558.1212 837.6977,558.2307 838.2227,558.3392 " fill="none" id="z-a" style="stroke:#A80036;stroke-width:1.0;stroke-dasharray:7.0,7.0;"/><text fill="#000000" font-family="sans-serif" font-size="13" lengthAdjust="spacing" textLength="141" x="590" y="448.0669">über Speichermedium</text><!--MD5=[2e912e8d00683dfe37a836230474a3d6]
link z to c--><path d="M335.4823,408.0024 C335.8717,408.5112 336.2791,409.042 336.7044,409.5938 C337.555,410.6975 338.477,411.8858 339.4682,413.1529 C341.4506,415.6872 343.7101,418.5368 346.2297,421.6564 C356.308,434.1348 370.5477,450.9324 387.864,469.1388 C422.4965,505.5515 469.435,547.5995 520,572 C608.3715,614.644 717.1038,632.943 804.246,640.5568 C809.6924,641.0326 815.0544,641.4667 820.3219,641.8624 C821.6388,641.9614 822.9497,642.0579 824.2546,642.1521 " fill="none" id="z-to-c" style="stroke:#A80036;stroke-width:1.0;stroke-dasharray:7.0,7.0;"/><polygon fill="#A80036" points="824.2546,642.1521,815.5659,637.5146,819.2676,641.7921,814.99,645.4938,824.2546,642.1521" style="stroke:#A80036;stroke-width:1.0;"/><text fill="#000000" font-family="sans-serif" font-size="13" lengthAdjust="spacing" textLength="279" x="521" y="568.0669">«included» Versuchseinstellungen abfragen</text><!--MD5=[20bf6e442aaac7bf2343ed0776c5b5d5]
reverse link db to fa--><path d="M469.01,80 C595.766,80 778.179,80 880.933,80 " fill="none" id="db-backto-fa" style="stroke:#A80036;stroke-width:1.0;stroke-dasharray:7.0,7.0;"/><polygon fill="#A80036" points="463.771,80,472.771,84,468.771,80,472.771,76,463.771,80" style="stroke:#A80036;stroke-width:1.0;"/><text fill="#000000" font-family="sans-serif" font-size="13" lengthAdjust="spacing" textLength="74" x="623.5" y="76.0669">«excluded»</text><!--MD5=[51755da9bef524c0d0ecf59b85a7515c]
@startuml
left to right direction

actor Testperson as t
actor Forschende as f

rectangle EyeTracking as z #789dd5 {
    usecase "Distanz zum Bildschirm eingeben" as db
    usecase "Kalibrieren (Tutorial)" as kt
    usecase "zukünftige Sichtbarkeit wählen (Tutorial)" as tw
    usecase "Bilder betrachten" as bb
    usecase "Fehler Anzeigen" as fa
}

rectangle AnalyseClient as a {
    usecase "Ergebnisse anschauen" as ea
}

rectangle Config as c {
    usecase "Einstellungen setzen" as es
    usecase "Tutorialeinstellung ändern" as tä
}

' Testperson
t - - db
t - - kt
t - - tw
t - - bb

' Forschende
es - - f
ea - - f

' intern
tw <.. tä : <<excluded>> 
z .. a : über Speichermedium
z ..> c : <<included>> Versuchseinstellungen abfragen
db <.. fa : <<excluded>>
@enduml

@startuml
left to right direction

actor Testperson as t
actor Forschende as f

rectangle EyeTracking as z #789dd5 {
    usecase "Distanz zum Bildschirm eingeben" as db
    usecase "Kalibrieren (Tutorial)" as kt
    usecase "zukünftige Sichtbarkeit wählen (Tutorial)" as tw
    usecase "Bilder betrachten" as bb
    usecase "Fehler Anzeigen" as fa
}

rectangle AnalyseClient as a {
    usecase "Ergebnisse anschauen" as ea
}

rectangle Config as c {
    usecase "Einstellungen setzen" as es
    usecase "Tutorialeinstellung ändern" as tä
}

t - - db
t - - kt
t - - tw
t - - bb

es - - f
ea - - f

tw <.. tä : <<excluded>> 
z .. a : über Speichermedium
z ..> c : <<included>> Versuchseinstellungen abfragen
db <.. fa : <<excluded>>
@enduml

PlantUML version 1.2021.15beta6(Unknown compile time)
(GPL source distribution)
Java Runtime: Java(TM) SE Runtime Environment
JVM: Java HotSpot(TM) 64-Bit Server VM
Default Encoding: UTF-8
Language: en
Country: US
--></g></svg>