<?xml version="1.0" encoding="UTF-8" standalone="no"?><svg xmlns="http://www.w3.org/2000/svg" xmlns:xlink="http://www.w3.org/1999/xlink" contentScriptType="application/ecmascript" contentStyleType="text/css" height="467px" preserveAspectRatio="none" style="width:861px;height:467px;background:#FFFFFF;" version="1.1" viewBox="0 0 861 467" width="861px" zoomAndPan="magnify"><defs><filter height="300%" id="f130aufsio4p0m" width="300%" x="-1" y="-1"><feGaussianBlur result="blurOut" stdDeviation="2.0"/><feColorMatrix in="blurOut" result="blurOut2" type="matrix" values="0 0 0 0 0 0 0 0 0 0 0 0 0 0 0 0 0 0 .4 0"/><feOffset dx="4.0" dy="4.0" in="blurOut2" result="blurOut3"/><feBlend in="SourceGraphic" in2="blurOut3" mode="normal"/></filter></defs><g><!--MD5=[754b3ade72492b0e081ea5ab5af8e5be]
cluster active--><rect fill="#FEFECE" filter="url(#f130aufsio4p0m)" height="316" rx="12.5" ry="12.5" style="stroke:#A80036;stroke-width:1.5;" width="680" x="7" y="124"/><rect fill="#FFFFFF" height="283.7031" rx="12.5" ry="12.5" style="stroke:#FFFFFF;stroke-width:1.0;" width="674" x="10" y="153.2969"/><line style="stroke:#A80036;stroke-width:1.5;" x1="7" x2="687" y1="150.2969" y2="150.2969"/><text fill="#000000" font-family="sans-serif" font-size="14" lengthAdjust="spacing" textLength="44" x="325" y="141.9951">active</text><g id="active.lgh"><rect fill="#FEFECE" filter="url(#f130aufsio4p0m)" height="50.2656" rx="12.5" ry="12.5" style="stroke:#A80036;stroke-width:1.5;" width="133" x="209.5" y="196"/><line style="stroke:#A80036;stroke-width:1.5;" x1="209.5" x2="342.5" y1="222.2969" y2="222.2969"/><text fill="#000000" font-family="sans-serif" font-size="14" lengthAdjust="spacing" textLength="113" x="219.5" y="213.9951">Location geholt</text><text fill="#000000" font-family="sans-serif" font-size="12" lengthAdjust="spacing" textLength="71" x="214.5" y="238.4355">Speicherort</text></g><g id="active.ig"><rect fill="#FEFECE" filter="url(#f130aufsio4p0m)" height="50" rx="12.5" ry="12.5" style="stroke:#A80036;stroke-width:1.5;" width="195" x="445.5" y="196"/><line style="stroke:#A80036;stroke-width:1.5;" x1="445.5" x2="640.5" y1="222.2969" y2="222.2969"/><text fill="#000000" font-family="sans-serif" font-size="14" lengthAdjust="spacing" textLength="175" x="455.5" y="213.9951">Informationen gefunden</text></g><g id="active.ide"><rect fill="#FEFECE" filter="url(#f130aufsio4p0m)" height="50" rx="12.5" ry="12.5" style="stroke:#A80036;stroke-width:1.5;" width="298" x="23" y="323"/><line style="stroke:#A80036;stroke-width:1.5;" x1="23" x2="321" y1="349.2969" y2="349.2969"/><text fill="#000000" font-family="sans-serif" font-size="14" lengthAdjust="spacing" textLength="278" x="33" y="340.9951">Information in Datenbank eingetragen</text></g><g id="active.dg"><rect fill="#FEFECE" filter="url(#f130aufsio4p0m)" height="50" rx="12.5" ry="12.5" style="stroke:#A80036;stroke-width:1.5;" width="130" x="356" y="323"/><line style="stroke:#A80036;stroke-width:1.5;" x1="356" x2="486" y1="349.2969" y2="349.2969"/><text fill="#000000" font-family="sans-serif" font-size="14" lengthAdjust="spacing" textLength="110" x="366" y="340.9951">Daten gelöscht</text></g><g id="active.du"><rect fill="#FEFECE" filter="url(#f130aufsio4p0m)" height="50.2656" rx="12.5" ry="12.5" style="stroke:#A80036;stroke-width:1.5;" width="149" x="521.5" y="323"/><line style="stroke:#A80036;stroke-width:1.5;" x1="521.5" x2="670.5" y1="349.2969" y2="349.2969"/><text fill="#000000" font-family="sans-serif" font-size="14" lengthAdjust="spacing" textLength="129" x="531.5" y="340.9951">Daten übertragen</text><text fill="#000000" font-family="sans-serif" font-size="12" lengthAdjust="spacing" textLength="98" x="526.5" y="365.4355">an AnalyseClient</text></g><text fill="#000000" font-family="sans-serif" font-size="14" lengthAdjust="spacing" textLength="144" x="415" y="458.9951">Funktion ausgeführt</text><ellipse cx="487" cy="440" fill="#FEFECE" rx="6" ry="6" style="stroke:#A80036;stroke-width:1.5;"/><line style="stroke:#A80036;stroke-width:1.5;" x1="491.3891" x2="483.6109" y1="444.3891" y2="436.6109"/><line style="stroke:#A80036;stroke-width:1.5;" x1="491.3891" x2="483.6109" y1="436.6109" y2="444.3891"/><text fill="#000000" font-family="sans-serif" font-size="14" lengthAdjust="spacing" textLength="76" x="282" y="102.6982">saveData()</text><ellipse cx="320" cy="124" fill="#FEFECE" rx="6" ry="6" style="stroke:#A80036;stroke-width:1.5;"/><text fill="#000000" font-family="sans-serif" font-size="14" lengthAdjust="spacing" textLength="91" x="446.5" y="102.6982">searchData()</text><ellipse cx="492" cy="124" fill="#FEFECE" rx="6" ry="6" style="stroke:#A80036;stroke-width:1.5;"/><text fill="#000000" font-family="sans-serif" font-size="14" lengthAdjust="spacing" textLength="91" x="550.5" y="102.6982">deleteData()</text><ellipse cx="596" cy="124" fill="#FEFECE" rx="6" ry="6" style="stroke:#A80036;stroke-width:1.5;"/><g id="lgs"><rect fill="#FEFECE" filter="url(#f130aufsio4p0m)" height="50.2656" rx="12.5" ry="12.5" style="stroke:#A80036;stroke-width:1.5;" width="173" x="206.5" y="7"/><line style="stroke:#A80036;stroke-width:1.5;" x1="206.5" x2="379.5" y1="33.2969" y2="33.2969"/><text fill="#000000" font-family="sans-serif" font-size="14" lengthAdjust="spacing" textLength="153" x="216.5" y="24.9951">Location gespeichert</text><text fill="#000000" font-family="sans-serif" font-size="12" lengthAdjust="spacing" textLength="135" x="211.5" y="49.4355">Speicherort der Daten</text></g><g id="i"><rect fill="#FEFECE" filter="url(#f130aufsio4p0m)" height="50" rx="12.5" ry="12.5" style="stroke:#A80036;stroke-width:1.5;" width="50" x="504" y="7"/><line style="stroke:#A80036;stroke-width:1.5;" x1="504" x2="554" y1="33.2969" y2="33.2969"/><text fill="#000000" font-family="sans-serif" font-size="14" lengthAdjust="spacing" textLength="26" x="516" y="24.9951">idle</text></g><ellipse cx="76" cy="32" fill="#000000" filter="url(#f130aufsio4p0m)" rx="10" ry="10" style="stroke:none;stroke-width:1.0;"/><!--MD5=[9f3fb695505dec1356e5ff21be03ce42]
link *start to lgs--><path d="M86.1753,32 C106.951,32 156.108,32 201.286,32 " fill="none" id="*start-to-lgs" style="stroke:#A80036;stroke-width:1.0;"/><polygon fill="#A80036" points="206.49,32,197.49,28,201.49,32,197.49,36,206.49,32" style="stroke:#A80036;stroke-width:1.0;"/><text fill="#000000" font-family="sans-serif" font-size="13" lengthAdjust="spacing" textLength="84" x="104.25" y="25.0669">setLocation()</text><!--MD5=[3b6ee433c328c0a9b81474e98328b22e]
link lgs to i--><path d="M379.538,32 C421.322,32 468.784,32 498.798,32 " fill="none" id="lgs-to-i" style="stroke:#A80036;stroke-width:1.0;"/><polygon fill="#A80036" points="503.828,32,494.828,28,498.828,32,494.828,36,503.828,32" style="stroke:#A80036;stroke-width:1.0;"/><text fill="#000000" font-family="sans-serif" font-size="13" lengthAdjust="spacing" textLength="88" x="397.75" y="25.0669">Funktionsloop</text><!--MD5=[5dd7ffd7995d82b10101c3ecc30eb6de]
link i to sed--><path d="M519.085,57.118 C511.45,75.689 501.309,100.356 495.858,113.614 " fill="none" id="i-to-sed" style="stroke:#A80036;stroke-width:1.0;"/><polygon fill="#A80036" points="493.953,118.25,501.0733,111.4455,495.8532,113.6252,493.6735,108.4051,493.953,118.25" style="stroke:#A80036;stroke-width:1.0;"/><!--MD5=[26409fb10e4aa1720436374b75f4ad86]
link i to ded--><path d="M546.955,57.118 C561.04,76.039 579.836,101.287 589.562,114.352 " fill="none" id="i-to-ded" style="stroke:#A80036;stroke-width:1.0;"/><polygon fill="#A80036" points="592.709,118.579,590.5441,108.971,589.7236,114.5681,584.1266,113.7476,592.709,118.579" style="stroke:#A80036;stroke-width:1.0;"/><!--MD5=[d5053a70b817160bea4b731f58e8fffb]
link sed to ig--><path d="M494.46,129.582 C500.367,140.586 515.744,169.229 527.623,191.356 " fill="none" id="sed-to-ig" style="stroke:#A80036;stroke-width:1.0;"/><polygon fill="#A80036" points="530.1,195.97,529.3689,186.1483,527.7357,191.5643,522.3197,189.9312,530.1,195.97" style="stroke:#A80036;stroke-width:1.0;"/><!--MD5=[d74a8048c152f82959c8678f2e3cf086]
link ded to ig--><path d="M593.444,129.582 C587.305,140.586 571.325,169.229 558.98,191.356 " fill="none" id="ded-to-ig" style="stroke:#A80036;stroke-width:1.0;"/><polygon fill="#A80036" points="556.406,195.97,564.2833,190.0583,558.8415,191.6033,557.2965,186.1615,556.406,195.97" style="stroke:#A80036;stroke-width:1.0;"/><!--MD5=[7aef3d5c4c4375a2418fdc5551d8e7dd]
link ig to dg--><path d="M509.078,246.256 C497.725,255.057 485.337,265.445 475,276 C462.234,289.035 449.782,305.11 440.058,318.665 " fill="none" id="ig-to-dg" style="stroke:#A80036;stroke-width:1.0;"/><polygon fill="#A80036" points="437.13,322.785,445.6034,317.7649,440.0259,318.709,439.0818,313.1315,437.13,322.785" style="stroke:#A80036;stroke-width:1.0;"/><text fill="#000000" font-family="sans-serif" font-size="13" lengthAdjust="spacing" textLength="81" x="476" y="289.0669">deleteData()</text><!--MD5=[28e2c9e664b6642be1590ccbe481282e]
link ig to du--><path d="M553.219,246.101 C561.944,266.68 574.514,296.325 583.772,318.16 " fill="none" id="ig-to-du" style="stroke:#A80036;stroke-width:1.0;"/><polygon fill="#A80036" points="585.812,322.973,585.9802,313.1256,583.8597,318.3699,578.6153,316.2493,585.812,322.973" style="stroke:#A80036;stroke-width:1.0;"/><text fill="#000000" font-family="sans-serif" font-size="13" lengthAdjust="spacing" textLength="84" x="573" y="289.0669">searchData()</text><!--MD5=[7de4149de44fb598cb2c1ddc8b88c4f3]
link du to fa--><path d="M566.79,373.1183 C542.787,392.9369 510.376,419.6988 495.323,432.1277 " fill="none" id="du-to-fa" style="stroke:#A80036;stroke-width:1.0;"/><polygon fill="#A80036" points="491.237,435.5012,500.7241,432.8563,495.0929,432.3181,495.6311,426.6869,491.237,435.5012" style="stroke:#A80036;stroke-width:1.0;"/><!--MD5=[a17a005527efc19caf83a0a0d6828cf3]
link dg to fa--><path d="M438.687,373.1183 C452.562,392.0388 471.077,417.2873 480.658,430.3515 " fill="none" id="dg-to-fa" style="stroke:#A80036;stroke-width:1.0;"/><polygon fill="#A80036" points="483.758,434.5791,481.6606,424.9562,480.8009,430.5473,475.2097,429.6876,483.758,434.5791" style="stroke:#A80036;stroke-width:1.0;"/><!--MD5=[7a1242ae10c7c3be598df1f236022dbd]
link i to sad--><path d="M503.79,43.856 C457.605,63.744 361.295,105.217 330.033,118.679 " fill="none" id="i-to-sad" style="stroke:#A80036;stroke-width:1.0;"/><polygon fill="#A80036" points="325.283,120.725,335.1312,120.8378,329.875,118.7468,331.9661,113.4906,325.283,120.725" style="stroke:#A80036;stroke-width:1.0;"/><!--MD5=[362efca8f580d09d2b0a2519f26953b9]
link sad to lgh--><path d="M317.758,129.842 C312.591,140.996 299.515,169.23 289.359,191.157 " fill="none" id="sad-to-lgh" style="stroke:#A80036;stroke-width:1.0;"/><polygon fill="#A80036" points="287.24,195.732,294.6528,189.2474,289.3419,191.1953,287.394,185.8843,287.24,195.732" style="stroke:#A80036;stroke-width:1.0;"/><!--MD5=[28f5c93a0629bba37aa8d1cf5a0c4d2f]
link lgh to ide--><path d="M255.948,246.101 C238.611,266.939 213.538,297.074 195.311,318.982 " fill="none" id="lgh-to-ide" style="stroke:#A80036;stroke-width:1.0;"/><polygon fill="#A80036" points="191.991,322.973,200.8212,318.611,195.1881,319.1287,194.6704,313.4956,191.991,322.973" style="stroke:#A80036;stroke-width:1.0;"/><text fill="#000000" font-family="sans-serif" font-size="13" lengthAdjust="spacing" textLength="150" x="231" y="289.0669">eintragen in Datenbank</text><!--MD5=[bca0958a79b078520bfc6e2c48c59198]
link ide to fa--><path d="M256,373.0001 C333.53,395.1513 441.688,426.0538 476.062,435.8748 " fill="none" id="ide-to-fa" style="stroke:#A80036;stroke-width:1.0;"/><polygon fill="#A80036" points="481.266,437.3618,473.712,431.0422,476.4586,435.9876,471.5132,438.7341,481.266,437.3618" style="stroke:#A80036;stroke-width:1.0;"/><!--MD5=[761ca4167a52b8332afa0cbccc395f25]
link fa to i--><path d="M492.858,438.1214 C529.354,432.4888 724,400.0548 724,349 C724,123 724,123 724,123 C724,51.3 613.973,36.535 559.215,33.626 " fill="none" id="fa-to-i" style="stroke:#A80036;stroke-width:1.0;"/><polygon fill="#A80036" points="554.094,33.38,562.8916,37.8074,559.0882,33.62,563.2756,29.8166,554.094,33.38" style="stroke:#A80036;stroke-width:1.0;"/><text fill="#000000" font-family="sans-serif" font-size="13" lengthAdjust="spacing" textLength="128" x="725" y="225.5669">Funktion ausgeführt</text><!--MD5=[8f162a98cdca58a63a5b6d9b18197f21]
@startuml
state "Location gespeichert" as lgs : Speicherort der Daten
state "idle" as i
state active {
    state "Location geholt" as lgh : Speicherort
    state "Informationen gefunden" as ig
    state "Information in Datenbank eingetragen" as ide
    state "Daten gelöscht" as dg
    state "Daten übertragen" as du : an AnalyseClient
    state "Funktion ausgeführt"  as fa <<exitPoint>>
    state "saveData()"  as sad <<entryPoint>>
    state "searchData()"  as sed <<entryPoint>>
    state "deleteData()"  as ded <<entryPoint>>
}

[*] -r-> lgs : setLocation()
lgs -r-> i : Funktionsloop
i - -> sed
i - -> ded
sed - -> ig
ded - -> ig
ig - -> dg : deleteData()
ig - -> du : searchData()
du - -> fa
dg - -> fa
i - -> sad
sad - -> lgh
lgh - -> ide : eintragen in Datenbank
ide - -> fa
fa - -> i : Funktion ausgeführt
@enduml

PlantUML version 1.2021.15beta8(Unknown compile time)
(GPL source distribution)
Java Runtime: Java(TM) SE Runtime Environment
JVM: Java HotSpot(TM) 64-Bit Server VM
Default Encoding: UTF-8
Language: en
Country: US
--></g></svg>