<?xml version="1.0" encoding="UTF-8" standalone="no"?><svg xmlns="http://www.w3.org/2000/svg" xmlns:xlink="http://www.w3.org/1999/xlink" contentScriptType="application/ecmascript" contentStyleType="text/css" height="467px" preserveAspectRatio="none" style="width:861px;height:467px;background:#FFFFFF;" version="1.1" viewBox="0 0 861 467" width="861px" zoomAndPan="magnify"><defs><filter height="300%" id="f1anqm6yfw6l23" width="300%" x="-1" y="-1"><feGaussianBlur result="blurOut" stdDeviation="2.0"/><feColorMatrix in="blurOut" result="blurOut2" type="matrix" values="0 0 0 0 0 0 0 0 0 0 0 0 0 0 0 0 0 0 .4 0"/><feOffset dx="4.0" dy="4.0" in="blurOut2" result="blurOut3"/><feBlend in="SourceGraphic" in2="blurOut3" mode="normal"/></filter></defs><g><!--MD5=[754b3ade72492b0e081ea5ab5af8e5be]
cluster active--><rect fill="#FEFECE" filter="url(#f1anqm6yfw6l23)" height="316" rx="12.5" ry="12.5" style="stroke:#A80036;stroke-width:1.5;" width="680" x="7" y="124"/><rect fill="#FFFFFF" height="283.7031" rx="12.5" ry="12.5" style="stroke:#FFFFFF;stroke-width:1.0;" width="674" x="10" y="153.2969"/><line style="stroke:#A80036;stroke-width:1.5;" x1="7" x2="687" y1="150.2969" y2="150.2969"/><text fill="#000000" font-family="sans-serif" font-size="14" lengthAdjust="spacing" textLength="44" x="325" y="141.9951">active</text><g id="active.lgh"><rect fill="#FEFECE" filter="url(#f1anqm6yfw6l23)" height="50.2656" rx="12.5" ry="12.5" style="stroke:#A80036;stroke-width:1.5;" width="133" x="105.5" y="196"/><line style="stroke:#A80036;stroke-width:1.5;" x1="105.5" x2="238.5" y1="222.2969" y2="222.2969"/><text fill="#000000" font-family="sans-serif" font-size="14" lengthAdjust="spacing" textLength="113" x="115.5" y="213.9951">Location geholt</text><text fill="#000000" font-family="sans-serif" font-size="12" lengthAdjust="spacing" textLength="71" x="110.5" y="238.4355">Speicherort</text></g><g id="active.ig"><rect fill="#FEFECE" filter="url(#f1anqm6yfw6l23)" height="50" rx="12.5" ry="12.5" style="stroke:#A80036;stroke-width:1.5;" width="195" x="445.5" y="196"/><line style="stroke:#A80036;stroke-width:1.5;" x1="445.5" x2="640.5" y1="222.2969" y2="222.2969"/><text fill="#000000" font-family="sans-serif" font-size="14" lengthAdjust="spacing" textLength="175" x="455.5" y="213.9951">Informationen gefunden</text></g><g id="active.ide"><rect fill="#FEFECE" filter="url(#f1anqm6yfw6l23)" height="50" rx="12.5" ry="12.5" style="stroke:#A80036;stroke-width:1.5;" width="298" x="23" y="323"/><line style="stroke:#A80036;stroke-width:1.5;" x1="23" x2="321" y1="349.2969" y2="349.2969"/><text fill="#000000" font-family="sans-serif" font-size="14" lengthAdjust="spacing" textLength="278" x="33" y="340.9951">Information in Datenbank eingetragen</text></g><g id="active.dg"><rect fill="#FEFECE" filter="url(#f1anqm6yfw6l23)" height="50" rx="12.5" ry="12.5" style="stroke:#A80036;stroke-width:1.5;" width="130" x="356" y="323"/><line style="stroke:#A80036;stroke-width:1.5;" x1="356" x2="486" y1="349.2969" y2="349.2969"/><text fill="#000000" font-family="sans-serif" font-size="14" lengthAdjust="spacing" textLength="110" x="366" y="340.9951">Daten gelöscht</text></g><g id="active.du"><rect fill="#FEFECE" filter="url(#f1anqm6yfw6l23)" height="50.2656" rx="12.5" ry="12.5" style="stroke:#A80036;stroke-width:1.5;" width="149" x="521.5" y="323"/><line style="stroke:#A80036;stroke-width:1.5;" x1="521.5" x2="670.5" y1="349.2969" y2="349.2969"/><text fill="#000000" font-family="sans-serif" font-size="14" lengthAdjust="spacing" textLength="129" x="531.5" y="340.9951">Daten übertragen</text><text fill="#000000" font-family="sans-serif" font-size="12" lengthAdjust="spacing" textLength="98" x="526.5" y="365.4355">an AnalyseClient</text></g><text fill="#000000" font-family="sans-serif" font-size="14" lengthAdjust="spacing" textLength="144" x="524" y="458.9951">Funktion ausgeführt</text><ellipse cx="596" cy="440" fill="#FEFECE" rx="6" ry="6" style="stroke:#A80036;stroke-width:1.5;"/><line style="stroke:#A80036;stroke-width:1.5;" x1="600.3891" x2="592.6109" y1="444.3891" y2="436.6109"/><line style="stroke:#A80036;stroke-width:1.5;" x1="600.3891" x2="592.6109" y1="436.6109" y2="444.3891"/><text fill="#000000" font-family="sans-serif" font-size="14" lengthAdjust="spacing" textLength="76" x="627" y="102.6982">saveData()</text><ellipse cx="665" cy="124" fill="#FEFECE" rx="6" ry="6" style="stroke:#A80036;stroke-width:1.5;"/><text fill="#000000" font-family="sans-serif" font-size="14" lengthAdjust="spacing" textLength="91" x="411.5" y="102.6982">searchData()</text><ellipse cx="457" cy="124" fill="#FEFECE" rx="6" ry="6" style="stroke:#A80036;stroke-width:1.5;"/><text fill="#000000" font-family="sans-serif" font-size="14" lengthAdjust="spacing" textLength="91" x="515.5" y="102.6982">deleteData()</text><ellipse cx="561" cy="124" fill="#FEFECE" rx="6" ry="6" style="stroke:#A80036;stroke-width:1.5;"/><g id="lgs"><rect fill="#FEFECE" filter="url(#f1anqm6yfw6l23)" height="50.2656" rx="12.5" ry="12.5" style="stroke:#A80036;stroke-width:1.5;" width="173" x="238.5" y="7"/><line style="stroke:#A80036;stroke-width:1.5;" x1="238.5" x2="411.5" y1="33.2969" y2="33.2969"/><text fill="#000000" font-family="sans-serif" font-size="14" lengthAdjust="spacing" textLength="153" x="248.5" y="24.9951">Location gespeichert</text><text fill="#000000" font-family="sans-serif" font-size="12" lengthAdjust="spacing" textLength="135" x="243.5" y="49.4355">Speicherort der Daten</text></g><g id="i"><rect fill="#FEFECE" filter="url(#f1anqm6yfw6l23)" height="50" rx="12.5" ry="12.5" style="stroke:#A80036;stroke-width:1.5;" width="50" x="536" y="7"/><line style="stroke:#A80036;stroke-width:1.5;" x1="536" x2="586" y1="33.2969" y2="33.2969"/><text fill="#000000" font-family="sans-serif" font-size="14" lengthAdjust="spacing" textLength="26" x="548" y="24.9951">idle</text></g><ellipse cx="108" cy="32" fill="#000000" filter="url(#f1anqm6yfw6l23)" rx="10" ry="10" style="stroke:none;stroke-width:1.0;"/><!--MD5=[9f3fb695505dec1356e5ff21be03ce42]
link *start to lgs--><path d="M118.175,32 C138.951,32 188.108,32 233.286,32 " fill="none" id="*start-to-lgs" style="stroke:#A80036;stroke-width:1.0;"/><polygon fill="#A80036" points="238.49,32,229.49,28,233.49,32,229.49,36,238.49,32" style="stroke:#A80036;stroke-width:1.0;"/><text fill="#000000" font-family="sans-serif" font-size="13" lengthAdjust="spacing" textLength="84" x="136.25" y="25.0669">setLocation()</text><!--MD5=[3b6ee433c328c0a9b81474e98328b22e]
link lgs to i--><path d="M411.538,32 C453.322,32 500.784,32 530.798,32 " fill="none" id="lgs-to-i" style="stroke:#A80036;stroke-width:1.0;"/><polygon fill="#A80036" points="535.828,32,526.828,28,530.828,32,526.828,36,535.828,32" style="stroke:#A80036;stroke-width:1.0;"/><text fill="#000000" font-family="sans-serif" font-size="13" lengthAdjust="spacing" textLength="88" x="429.75" y="25.0669">Funktionsloop</text><!--MD5=[5dd7ffd7995d82b10101c3ecc30eb6de]
link i to sed--><path d="M535.825,54.786 C512.943,74.588 480.519,102.647 465.386,115.742 " fill="none" id="i-to-sed" style="stroke:#A80036;stroke-width:1.0;"/><polygon fill="#A80036" points="461.275,119.301,470.6984,116.4377,465.0563,116.0297,465.4643,110.3875,461.275,119.301" style="stroke:#A80036;stroke-width:1.0;"/><!--MD5=[26409fb10e4aa1720436374b75f4ad86]
link i to ded--><path d="M561,57.118 C561,75.342 561,99.437 561,112.86 " fill="none" id="i-to-ded" style="stroke:#A80036;stroke-width:1.0;"/><polygon fill="#A80036" points="561,117.911,565,108.911,561,112.911,557,108.911,561,117.911" style="stroke:#A80036;stroke-width:1.0;"/><!--MD5=[d5053a70b817160bea4b731f58e8fffb]
link sed to ig--><path d="M460.695,129.082 C470.36,139.758 497.048,169.239 517.438,191.763 " fill="none" id="sed-to-ig" style="stroke:#A80036;stroke-width:1.0;"/><polygon fill="#A80036" points="520.909,195.597,517.8329,186.2409,517.5528,191.8908,511.9029,191.6107,520.909,195.597" style="stroke:#A80036;stroke-width:1.0;"/><!--MD5=[d74a8048c152f82959c8678f2e3cf086]
link ded to ig--><path d="M560.032,130.108 C557.896,141.382 552.64,169.12 548.527,190.827 " fill="none" id="ded-to-ig" style="stroke:#A80036;stroke-width:1.0;"/><polygon fill="#A80036" points="547.563,195.92,553.1672,187.821,548.493,191.0072,545.3068,186.3331,547.563,195.92" style="stroke:#A80036;stroke-width:1.0;"/><!--MD5=[7aef3d5c4c4375a2418fdc5551d8e7dd]
link ig to dg--><path d="M509.078,246.256 C497.725,255.057 485.337,265.445 475,276 C462.234,289.035 449.782,305.11 440.058,318.665 " fill="none" id="ig-to-dg" style="stroke:#A80036;stroke-width:1.0;"/><polygon fill="#A80036" points="437.13,322.785,445.6034,317.7649,440.0259,318.709,439.0818,313.1315,437.13,322.785" style="stroke:#A80036;stroke-width:1.0;"/><text fill="#000000" font-family="sans-serif" font-size="13" lengthAdjust="spacing" textLength="81" x="476" y="289.0669">deleteData()</text><!--MD5=[28e2c9e664b6642be1590ccbe481282e]
link ig to du--><path d="M553.219,246.101 C561.944,266.68 574.514,296.325 583.772,318.16 " fill="none" id="ig-to-du" style="stroke:#A80036;stroke-width:1.0;"/><polygon fill="#A80036" points="585.812,322.973,585.9802,313.1256,583.8597,318.3699,578.6153,316.2493,585.812,322.973" style="stroke:#A80036;stroke-width:1.0;"/><text fill="#000000" font-family="sans-serif" font-size="13" lengthAdjust="spacing" textLength="84" x="573" y="289.0669">searchData()</text><!--MD5=[7de4149de44fb598cb2c1ddc8b88c4f3]
link du to fa--><path d="M596,373.1183 C596,391.3423 596,415.4372 596,428.8603 " fill="none" id="du-to-fa" style="stroke:#A80036;stroke-width:1.0;"/><polygon fill="#A80036" points="596,433.9115,600,424.9115,596,428.9115,592,424.9115,596,433.9115" style="stroke:#A80036;stroke-width:1.0;"/><!--MD5=[28f5c93a0629bba37aa8d1cf5a0c4d2f]
link lgh to ide--><path d="M172,246.101 C172,266.593 172,296.076 172,317.884 " fill="none" id="lgh-to-ide" style="stroke:#A80036;stroke-width:1.0;"/><polygon fill="#A80036" points="172,322.973,176,313.973,172,317.973,168,313.973,172,322.973" style="stroke:#A80036;stroke-width:1.0;"/><text fill="#000000" font-family="sans-serif" font-size="13" lengthAdjust="spacing" textLength="150" x="173" y="289.0669">eintragen in Datenbank</text><!--MD5=[bca0958a79b078520bfc6e2c48c59198]
link ide to fa--><path d="M285.067,373.0001 C392.377,395.778 543.28,427.8094 584.962,436.657 " fill="none" id="ide-to-fa" style="stroke:#A80036;stroke-width:1.0;"/><polygon fill="#A80036" points="590.103,437.7483,582.1301,431.9662,585.212,436.7098,580.4685,439.7917,590.103,437.7483" style="stroke:#A80036;stroke-width:1.0;"/><!--MD5=[761ca4167a52b8332afa0cbccc395f25]
link fa to i--><path d="M601.833,437.9189 C626.873,432.9105 724,409.5792 724,349 C724,123 724,123 724,123 C724,62.961 638.201,42.667 591.1,36.049 " fill="none" id="fa-to-i" style="stroke:#A80036;stroke-width:1.0;"/><polygon fill="#A80036" points="586.112,35.379,594.4991,40.5419,591.0675,36.0449,595.5645,32.6132,586.112,35.379" style="stroke:#A80036;stroke-width:1.0;"/><text fill="#000000" font-family="sans-serif" font-size="13" lengthAdjust="spacing" textLength="128" x="725" y="225.5669">Funktion ausgeführt</text><!--MD5=[2e640bd97a9428cae07ce0cfb4314cef]
@startuml
state "Location gespeichert" as lgs : Speicherort der Daten
state "idle" as i
state active {
    state "Location geholt" as lgh : Speicherort
    state "Informationen gefunden" as ig
    state "Information in Datenbank eingetragen" as ide
    state "Daten gelöscht" as dg
    state "Daten übertragen" as du : an AnalyseClient
    state "Funktion ausgeführt"  as fa <<exitPoint>>
    state "saveData()"  as sad <<entryPoint>>
    state "searchData()"  as sed <<entryPoint>>
    state "deleteData()"  as ded <<entryPoint>>
}

[*] -r-> lgs : setLocation()
lgs -r-> i : Funktionsloop
i - -> sed
i - -> ded
sed - -> ig
ded - -> ig
ig - -> dg : deleteData()
ig - -> du : searchData()
du - -> fa
lgh - -> ide : eintragen in Datenbank
ide - -> fa
fa - -> i : Funktion ausgeführt
@enduml

PlantUML version 1.2021.15beta8(Unknown compile time)
(GPL source distribution)
Java Runtime: Java(TM) SE Runtime Environment
JVM: Java HotSpot(TM) 64-Bit Server VM
Default Encoding: UTF-8
Language: en
Country: US
--></g></svg>