<?xml version="1.0" encoding="UTF-8" standalone="no"?><svg xmlns="http://www.w3.org/2000/svg" xmlns:xlink="http://www.w3.org/1999/xlink" contentScriptType="application/ecmascript" contentStyleType="text/css" height="479px" preserveAspectRatio="none" style="width:883px;height:479px;" version="1.1" viewBox="0 0 883 479" width="883px" zoomAndPan="magnify"><defs><filter height="300%" id="fvdrij0ztdj3n" width="300%" x="-1" y="-1"><feGaussianBlur result="blurOut" stdDeviation="2.0"/><feColorMatrix in="blurOut" result="blurOut2" type="matrix" values="0 0 0 0 0 0 0 0 0 0 0 0 0 0 0 0 0 0 .4 0"/><feOffset dx="4.0" dy="4.0" in="blurOut2" result="blurOut3"/><feBlend in="SourceGraphic" in2="blurOut3" mode="normal"/></filter></defs><g><!--cluster AnalyseClient - CodeCharts - Verlauf--><rect fill="#789DD5" filter="url(#fvdrij0ztdj3n)" height="444" style="stroke: #000000; stroke-width: 1.5;" width="457" x="136" y="24"/><text fill="#000000" font-family="sans-serif" font-size="14" font-weight="bold" lengthAdjust="spacingAndGlyphs" textLength="289" x="220" y="38.9951">AnalyseClient - CodeCharts - Verlauf</text><ellipse cx="364.4998" cy="307.9" fill="#FEFECE" filter="url(#fvdrij0ztdj3n)" rx="212.4998" ry="44.9" style="stroke: #A80036; stroke-width: 1.5;"/><text fill="#000000" font-family="sans-serif" font-size="14" lengthAdjust="spacingAndGlyphs" textLength="135" x="296.9998" y="292.2515">Versuch ausw채hlen</text><line style="stroke: #A80036; stroke-width: 1.0; stroke-dasharray: 1.0,2.0;" x1="161.192" x2="567.8076" y1="295.5533" y2="295.5533"/><text fill="#000000" font-family="sans-serif" font-size="14" lengthAdjust="spacingAndGlyphs" textLength="411" x="158.9998" y="312.5484">der konkrete Versuch in dem CodeCharts verwendet wurde</text><ellipse cx="364.5173" cy="88.2334" fill="#FEFECE" filter="url(#fvdrij0ztdj3n)" rx="93.0173" ry="28.7334" style="stroke: #A80036; stroke-width: 1.5;"/><text fill="#000000" font-family="sans-serif" font-size="14" lengthAdjust="spacingAndGlyphs" textLength="123" x="303.0173" y="82.239">Daten anschauen</text><line style="stroke: #A80036; stroke-width: 1.0; stroke-dasharray: 1.0,2.0;" x1="272.9093" x2="456.1252" y1="85.5407" y2="85.5407"/><text fill="#000000" font-family="sans-serif" font-size="14" lengthAdjust="spacingAndGlyphs" textLength="130" x="299.5173" y="102.5359">Generierter Verlauf</text><ellipse cx="364.5051" cy="197.801" fill="#FEFECE" filter="url(#fvdrij0ztdj3n)" rx="134.5051" ry="29.301" style="stroke: #A80036; stroke-width: 1.5;"/><text fill="#000000" font-family="sans-serif" font-size="14" lengthAdjust="spacingAndGlyphs" textLength="125" x="302.0051" y="187.4572">Analyse anpassen</text><line style="stroke: #A80036; stroke-width: 1.0; stroke-dasharray: 1.0,2.0;" x1="234.9424" x2="494.0678" y1="190.7589" y2="190.7589"/><text fill="#000000" font-family="sans-serif" font-size="14" lengthAdjust="spacingAndGlyphs" textLength="226" x="251.5051" y="207.754">Optionen zur Veranschaulichung</text><ellipse cx="364.3978" cy="419.8796" fill="#FEFECE" filter="url(#fvdrij0ztdj3n)" rx="144.8978" ry="31.3796" style="stroke: #A80036; stroke-width: 1.5;"/><text fill="#000000" font-family="sans-serif" font-size="14" lengthAdjust="spacingAndGlyphs" textLength="79" x="324.8978" y="405.4186">Exportieren</text><line style="stroke: #A80036; stroke-width: 1.0; stroke-dasharray: 1.0,2.0;" x1="229.9719" x2="498.8237" y1="408.7204" y2="408.7204"/><text fill="#000000" font-family="sans-serif" font-size="14" lengthAdjust="spacingAndGlyphs" textLength="268" x="230.3978" y="425.7155">sowohl Rohdaten als auch CodeCharts</text><!--entity f--><ellipse cx="47.5" cy="239.5" fill="#FEFECE" filter="url(#fvdrij0ztdj3n)" rx="8" ry="8" style="stroke: #A80036; stroke-width: 2.0;"/><path d="M47.5,247.5 L47.5,274.5 M34.5,255.5 L60.5,255.5 M47.5,274.5 L34.5,289.5 M47.5,274.5 L60.5,289.5 " fill="none" filter="url(#fvdrij0ztdj3n)" style="stroke: #A80036; stroke-width: 2.0;"/><text fill="#000000" font-family="sans-serif" font-size="14" lengthAdjust="spacingAndGlyphs" textLength="83" x="6" y="309.4951">Forschende</text><!--entity s--><rect fill="#FFFFFF" filter="url(#fvdrij0ztdj3n)" height="36.2969" style="stroke: #000000; stroke-width: 1.5;" width="137" x="735" y="160"/><text fill="#000000" font-family="sans-serif" font-size="14" lengthAdjust="spacingAndGlyphs" textLength="117" x="745" y="182.9951">Speichermedium</text><!--link f to da--><path d="M66.49,229.41 C79.85,203.23 100.51,170.77 128,151 C169.44,121.19 224.1,105.49 270.33,97.22 " fill="none" id="f-da" style="stroke: #A80036; stroke-width: 1.0;"/><polygon fill="#A80036" points="275.35,96.34,265.7966,93.9459,270.4244,97.1991,267.1712,101.8269,275.35,96.34" style="stroke: #A80036; stroke-width: 1.0;"/><!--link f to aa--><path d="M89.08,256.7 C101.48,252.61 115.22,248.35 128,245 C168.43,234.4 213.31,224.89 252.95,217.25 " fill="none" id="f-aa" style="stroke: #A80036; stroke-width: 1.0;"/><polygon fill="#A80036" points="258.26,216.23,248.6675,213.9975,253.3496,217.1721,250.1749,221.8542,258.26,216.23" style="stroke: #A80036; stroke-width: 1.0;"/><!--link f to ex--><path d="M72.39,312.64 C86.13,332.95 105.19,355.96 128,370 C157.09,387.91 191.61,399.47 225.13,406.93 " fill="none" id="f-ex" style="stroke: #A80036; stroke-width: 1.0;"/><polygon fill="#A80036" points="230.07,408,222.1195,402.1871,225.1831,406.9426,220.4276,410.0062,230.07,408" style="stroke: #A80036; stroke-width: 1.0;"/><!--link f to va--><path d="M89.04,275.76 C111.59,278.41 141.48,281.92 173.22,285.65 " fill="none" id="f-va" style="stroke: #A80036; stroke-width: 1.0;"/><polygon fill="#A80036" points="178.33,286.25,169.8615,281.2216,173.3645,285.6633,168.9228,289.1663,178.33,286.25" style="stroke: #A80036; stroke-width: 1.0;"/><!--link va to s--><path d="M500.39,273.4 C533.41,264.52 568.57,254.72 601,245 C650.37,230.2 705.92,211.58 746.17,197.73 " fill="none" id="va-s" style="stroke: #A80036; stroke-width: 1.0; stroke-dasharray: 7.0,7.0;"/><polygon fill="#A80036" points="751,196.06,741.1857,195.2352,746.2769,197.7009,743.8112,202.7921,751,196.06" style="stroke: #A80036; stroke-width: 1.0;"/><text fill="#000000" font-family="sans-serif" font-size="13" lengthAdjust="spacingAndGlyphs" textLength="88" x="613" y="210.0669">Datenabfrage</text><!--link da to s--><path d="M447.03,104.79 C530.07,121.89 657.34,148.11 734.94,164.09 " fill="none" id="da-s" style="stroke: #A80036; stroke-width: 1.0; stroke-dasharray: 7.0,7.0;"/><polygon fill="#A80036" points="442.12,103.78,450.1224,109.5213,447.0162,104.7935,451.744,101.6873,442.12,103.78" style="stroke: #A80036; stroke-width: 1.0;"/><text fill="#000000" font-family="sans-serif" font-size="13" lengthAdjust="spacingAndGlyphs" textLength="94" x="610" y="135.0669">Datenlieferung</text><!--link da to aa--><path d="M364.5,121.98 C364.5,136.77 364.5,153.95 364.5,168.23 " fill="none" id="da-aa" style="stroke: #A80036; stroke-width: 1.0; stroke-dasharray: 7.0,7.0;"/><polygon fill="#A80036" points="364.5,116.65,360.5,125.65,364.5,121.65,368.5,125.65,364.5,116.65" style="stroke: #A80036; stroke-width: 1.0;"/><text fill="#000000" font-family="sans-serif" font-size="13" lengthAdjust="spacingAndGlyphs" textLength="42" x="332" y="147.0669">채ndert</text><!--
@startuml analyse-code_charts
left to right direction

actor Forschende as f

rectangle "AnalyseClient - CodeCharts - Verlauf" #789dd5 {
    usecase va as "Versuch ausw채hlen
    ..
    der konkrete Versuch in dem CodeCharts verwendet wurde"
    usecase da as "Daten anschauen
    ..
    Generierter Verlauf"
    usecase aa as "Analyse anpassen
    ..
    Optionen zur Veranschaulichung"
    usecase ex as "Exportieren
    ..
    sowohl Rohdaten als auch CodeCharts"
}

rectangle Speichermedium as s #FFFFFF

f - -> da
f - -> aa
f - -> ex
f - -> va

va ..> s : Datenabfrage
s .l.> da : Datenlieferung

da <.r. aa : 채ndert

@enduml

PlantUML version 1.2019.06(Fri May 24 17:10:25 UTC 2019)
(GPL source distribution)
Java Runtime: OpenJDK Runtime Environment
JVM: OpenJDK 64-Bit Server VM
Java Version: 11.0.11+9
Operating System: Linux
OS Version: 5.11.0-1021-azure
Default Encoding: UTF-8
Language: en
Country: null
--></g></svg>