<?xml version="1.0" encoding="UTF-8" standalone="no"?><svg xmlns="http://www.w3.org/2000/svg" xmlns:xlink="http://www.w3.org/1999/xlink" contentScriptType="application/ecmascript" contentStyleType="text/css" height="447px" preserveAspectRatio="none" style="width:1118px;height:447px;background:#FFFFFF;" version="1.1" viewBox="0 0 1118 447" width="1118px" zoomAndPan="magnify"><defs><filter height="300%" id="f1ep1105n0vrgo" width="300%" x="-1" y="-1"><feGaussianBlur result="blurOut" stdDeviation="2.0"/><feColorMatrix in="blurOut" result="blurOut2" type="matrix" values="0 0 0 0 0 0 0 0 0 0 0 0 0 0 0 0 0 0 .4 0"/><feOffset dx="4.0" dy="4.0" in="blurOut2" result="blurOut3"/><feBlend in="SourceGraphic" in2="blurOut3" mode="normal"/></filter></defs><g><!--MD5=[0dddb7f964ed21e384072c4693cca302]
cluster z--><rect fill="#789DD5" filter="url(#f1ep1105n0vrgo)" height="428" style="stroke:#000000;stroke-width:1.5;" width="366" x="143" y="7"/><text fill="#000000" font-family="sans-serif" font-size="14" font-weight="bold" lengthAdjust="spacing" textLength="89" x="281.5" y="21.9951">ZoomMaps</text><!--MD5=[03c9795141fffc1586b10a901fd13311]
cluster a--><rect fill="#FFFFFF" filter="url(#f1ep1105n0vrgo)" height="130" style="stroke:#000000;stroke-width:1.5;" width="243" x="716.5" y="305"/><text fill="#000000" font-family="sans-serif" font-size="14" font-weight="bold" lengthAdjust="spacing" textLength="110" x="783" y="319.9951">AnalyseClient</text><!--MD5=[b3179ce4f793cc951a1964cbf548eaa1]
cluster c--><rect fill="#FFFFFF" filter="url(#f1ep1105n0vrgo)" height="213" style="stroke:#000000;stroke-width:1.5;" width="270" x="703" y="52"/><text fill="#000000" font-family="sans-serif" font-size="14" font-weight="bold" lengthAdjust="spacing" textLength="52" x="812" y="66.9951">Config</text><ellipse cx="326.0998" cy="189.22" fill="#FEFECE" filter="url(#f1ep1105n0vrgo)" rx="86.5998" ry="19.72" style="stroke:#A80036;stroke-width:1.5;"/><text fill="#000000" font-family="sans-serif" font-size="14" lengthAdjust="spacing" textLength="134" x="259.0998" y="192.0666">Tutorial anschauen</text><ellipse cx="325.9172" cy="84.1834" fill="#FEFECE" filter="url(#f1ep1105n0vrgo)" rx="158.9172" ry="34.1834" style="stroke:#A80036;stroke-width:1.5;"/><text fill="#000000" font-family="sans-serif" font-size="14" lengthAdjust="spacing" textLength="289" x="181.4172" y="87.0301">Tutorial: zukünftige Sichtbarkeit wählen</text><ellipse cx="325.7532" cy="373.9506" fill="#FEFECE" filter="url(#f1ep1105n0vrgo)" rx="77.7532" ry="17.9506" style="stroke:#A80036;stroke-width:1.5;"/><text fill="#000000" font-family="sans-serif" font-size="14" lengthAdjust="spacing" textLength="113" x="266.6994" y="377.5809">Bild betrachten</text><ellipse cx="325.9511" cy="273.9562" fill="#FEFECE" filter="url(#f1ep1105n0vrgo)" rx="127.4511" ry="30.4562" style="stroke:#A80036;stroke-width:1.5;"/><text fill="#000000" font-family="sans-serif" font-size="14" lengthAdjust="spacing" textLength="172" x="239.9511" y="266.9071">Bildausschnitt anpassen</text><line style="stroke:#A80036;stroke-width:1.0;stroke-dasharray:1.0,2.0;" x1="200.4684" x2="451.4338" y1="270.2089" y2="270.2089"/><text fill="#000000" font-family="sans-serif" font-size="14" lengthAdjust="spacing" textLength="130" x="260.9511" y="287.204">Klicken &amp; Scrollen</text><ellipse cx="837.7599" cy="369.852" fill="#FEFECE" filter="url(#f1ep1105n0vrgo)" rx="97.2599" ry="21.852" style="stroke:#A80036;stroke-width:1.5;"/><text fill="#000000" font-family="sans-serif" font-size="14" lengthAdjust="spacing" textLength="158" x="758.7599" y="372.6987">Ergebnisse anschauen</text><ellipse cx="838.1693" cy="116.1339" fill="#FEFECE" filter="url(#f1ep1105n0vrgo)" rx="93.6693" ry="21.1339" style="stroke:#A80036;stroke-width:1.5;"/><text fill="#000000" font-family="sans-serif" font-size="14" lengthAdjust="spacing" textLength="150" x="763.1693" y="118.9805">Einstellungen setzen</text><ellipse cx="837.9811" cy="197.0962" fill="#FEFECE" filter="url(#f1ep1105n0vrgo)" rx="110.9811" ry="24.5962" style="stroke:#A80036;stroke-width:1.5;"/><text fill="#000000" font-family="sans-serif" font-size="14" lengthAdjust="spacing" textLength="188" x="743.9811" y="199.9429">Tutorialeinstellung ändern</text><!--MD5=[4b52362e67c82d91eba5cb75921775cc]
entity t--><ellipse cx="47" cy="201" fill="#FEFECE" filter="url(#f1ep1105n0vrgo)" rx="8" ry="8" style="stroke:#A80036;stroke-width:1.5;"/><path d="M47,209 L47,236 M34,217 L60,217 M47,236 L34,251 M47,236 L60,251 " fill="none" filter="url(#f1ep1105n0vrgo)" style="stroke:#A80036;stroke-width:1.5;"/><text fill="#000000" font-family="sans-serif" font-size="14" lengthAdjust="spacing" textLength="82" x="6" y="269.4951">Testperson</text><!--MD5=[8f89c3b771be60a8fe1c771d5b27a045]
entity f--><ellipse cx="1069.5" cy="186" fill="#FEFECE" filter="url(#f1ep1105n0vrgo)" rx="8" ry="8" style="stroke:#A80036;stroke-width:1.5;"/><path d="M1069.5,194 L1069.5,221 M1056.5,202 L1082.5,202 M1069.5,221 L1056.5,236 M1069.5,221 L1082.5,236 " fill="none" filter="url(#f1ep1105n0vrgo)" style="stroke:#A80036;stroke-width:1.5;"/><text fill="#000000" font-family="sans-serif" font-size="14" lengthAdjust="spacing" textLength="83" x="1028" y="254.4951">Forschende</text><!--MD5=[4296adf15cee4a0f18a50736f5308ba2]
reverse link tw to td--><path d="M326,123.361 C326,139.015 326,156.334 326,169.25 " fill="none" id="tw-backto-td" style="stroke:#A80036;stroke-width:1.0;stroke-dasharray:7.0,7.0;"/><polygon fill="#A80036" points="326,118.124,322,127.124,326,123.124,330,127.124,326,118.124" style="stroke:#A80036;stroke-width:1.0;"/><text fill="#000000" font-family="sans-serif" font-size="13" lengthAdjust="spacing" textLength="61" x="284" y="148.3169">«include»</text><!--MD5=[08bd92a6b32f273cb4a0066b28bef175]
reverse link ba to bb--><path d="M326,309.961 C326,325.449 326,342.893 326,355.658 " fill="none" id="ba-backto-bb" style="stroke:#A80036;stroke-width:1.0;stroke-dasharray:7.0,7.0;"/><polygon fill="#A80036" points="326,304.794,322,313.794,326,309.794,330,313.794,326,304.794" style="stroke:#A80036;stroke-width:1.0;"/><text fill="#000000" font-family="sans-serif" font-size="13" lengthAdjust="spacing" textLength="61" x="284" y="334.8169">«include»</text><!--MD5=[fd67234e7733f64004cf957abd7060f0]
link t to td--><path d="M88.2782,225.747 C131.717,219.004 201.716,208.138 254.35,199.967 " fill="none" id="t-td" style="stroke:#A80036;stroke-width:1.0;"/><!--MD5=[a47cc61414be02f1a1dc46a9068d5641]
link t to bb--><path d="M75.3453,272.851 C88.9679,290.329 106.839,309.539 127,322 C165.848,346.011 215.584,359.0194 255.489,366.0205 " fill="none" id="t-bb" style="stroke:#A80036;stroke-width:1.0;"/><!--MD5=[050f09feb72fbf87cef13cc5b5044b26]
link t to ba--><path d="M88.2782,238.107 C122.264,243.26 172.508,250.878 217.973,257.772 " fill="none" id="t-ba" style="stroke:#A80036;stroke-width:1.0;"/><!--MD5=[af6959071ebafe7e84c012ab58a7e6fb]
link t to tw--><path d="M81.0708,191.484 C94.1793,177.45 110.145,162.597 127,152 C155.693,133.961 189.754,120.041 221.465,109.633 " fill="none" id="t-tw" style="stroke:#A80036;stroke-width:1.0;"/><!--MD5=[87062a31269c98bfe6fc3d0ae56b2396]
link es to f--><path d="M912.479,128.805 C937.547,134.796 965.232,143.273 989,155 C1002.499,161.66 1015.9,170.843 1027.75,180.101 " fill="none" id="es-f" style="stroke:#A80036;stroke-width:1.0;"/><!--MD5=[138a0e8de6b50cd1dd0c7fc97c7a4d6c]
link ea to f--><path d="M872.018,349.178 C902.575,329.783 949.161,299.897 989,273 C1001.733,264.403 1015.46,254.842 1027.86,246.089 " fill="none" id="ea-f" style="stroke:#A80036;stroke-width:1.0;"/><!--MD5=[2827afe277d74b8b1048bdf68fbae7e3]
reverse link tw to tä--><path d="M442.192,109.523 C538.977,130.968 674.656,161.03 759.114,179.743 " fill="none" id="tw-backto-tä" style="stroke:#A80036;stroke-width:1.0;stroke-dasharray:7.0,7.0;"/><polygon fill="#A80036" points="437.035,108.38,444.9568,114.232,441.9166,109.4615,446.6871,106.4213,437.035,108.38" style="stroke:#A80036;stroke-width:1.0;"/><text fill="#000000" font-family="sans-serif" font-size="13" lengthAdjust="spacing" textLength="68" x="572" y="127.0669">«extends»</text><!--MD5=[63b0b4f2c04a4d4323df6b79656b845a]
link z to a--><path d="M509.3842,427 C510.3286,427 511.2744,427 512.2216,427 C519.7993,427 527.4659,427 535.192,427 C550.6441,427 566.3337,427 582.0231,427 C613.402,427 644.7805,427 674.2579,427 C681.6272,427 688.8777,427 695.9797,427 C699.5307,427 703.0446,427 706.5177,427 C708.2542,427 709.9805,427 711.6961,427 C712.5539,427 713.4091,427 714.2615,427 C714.6877,427 715.1133,427 715.5381,427 " fill="none" id="z-to-a" style="stroke:#A80036;stroke-width:1.0;stroke-dasharray:7.0,7.0;"/><polygon fill="#A80036" points="715.5381,427,706.5381,423,710.5381,427,706.5381,431,715.5381,427" style="stroke:#A80036;stroke-width:1.0;"/><text fill="#000000" font-family="sans-serif" font-size="13" lengthAdjust="spacing" textLength="141" x="535.5" y="423.0669">über Speichermedium</text><!--MD5=[e555bde5371ff03b38ff4a3e0b52fb34]
reverse link z to c--><path d="M509.4434,413.398 C514.7312,411.7596 519.9283,409.9647 525,408 C529.144,406.3945 529.198,404.3013 533,402 C596.031,363.85 670.6595,328.1278 730.2,301.6853 C759.9703,288.464 785.9685,277.5627 804.8591,269.8378 C807.2204,268.8722 809.4706,267.9562 811.6033,267.0916 C812.6697,266.6592 813.7066,266.2397 814.7134,265.8332 C815.2167,265.63 815.7126,265.43 816.2007,265.2333 " fill="none" id="z-backto-c" style="stroke:#A80036;stroke-width:1.0;stroke-dasharray:7.0,7.0;"/><polygon fill="#A80036" points="509.4434,413.398,519.224,414.555,514.2193,411.9182,516.8562,406.9135,509.4434,413.398" style="stroke:#A80036;stroke-width:1.0;"/><text fill="#000000" font-family="sans-serif" font-size="13" lengthAdjust="spacing" textLength="144" x="534" y="324.0669">Versuchseinstellungen</text><!--MD5=[34e87d5c3d93cfc0a0ebea74b2ed8514]
@startuml
left to right direction

actor Testperson as t
actor Forschende as f

rectangle ZoomMaps as z #789dd5 {
    usecase "Tutorial anschauen" as td
    usecase "Tutorial: zukünftige Sichtbarkeit wählen" as tw
    usecase "Bild betrachten" as bb
    usecase ba as "Bildausschnitt anpassen
    ..
    Klicken & Scrollen"
    td .l.> tw : <<include>>
    bb .l.> ba : <<include>>
}

rectangle AnalyseClient as a {
    usecase "Ergebnisse anschauen" as ea
}

rectangle Config as c {
    usecase "Einstellungen setzen" as es
    usecase "Tutorialeinstellung ändern" as tä
}

' Testperson
t - - td
t - - bb
t - - ba
t - - tw

' Forschende
es - - f
ea - - f

' intern
tw <.. tä : <<extends>>
z ..> a : über Speichermedium
z <.. c : Versuchseinstellungen
@enduml

@startuml
left to right direction

actor Testperson as t
actor Forschende as f

rectangle ZoomMaps as z #789dd5 {
    usecase "Tutorial anschauen" as td
    usecase "Tutorial: zukünftige Sichtbarkeit wählen" as tw
    usecase "Bild betrachten" as bb
    usecase ba as "Bildausschnitt anpassen
    ..
    Klicken & Scrollen"
    td .l.> tw : <<include>>
    bb .l.> ba : <<include>>
}

rectangle AnalyseClient as a {
    usecase "Ergebnisse anschauen" as ea
}

rectangle Config as c {
    usecase "Einstellungen setzen" as es
    usecase "Tutorialeinstellung ändern" as tä
}

t - - td
t - - bb
t - - ba
t - - tw

es - - f
ea - - f

tw <.. tä : <<extends>>
z ..> a : über Speichermedium
z <.. c : Versuchseinstellungen
@enduml

PlantUML version 1.2021.15beta6(Unknown compile time)
(GPL source distribution)
Java Runtime: Java(TM) SE Runtime Environment
JVM: Java HotSpot(TM) 64-Bit Server VM
Default Encoding: UTF-8
Language: en
Country: US
--></g></svg>