<?xml version="1.0" encoding="UTF-8" standalone="no"?><svg xmlns="http://www.w3.org/2000/svg" xmlns:xlink="http://www.w3.org/1999/xlink" contentScriptType="application/ecmascript" contentStyleType="text/css" height="587px" preserveAspectRatio="none" style="width:1074px;height:587px;" version="1.1" viewBox="0 0 1074 587" width="1074px" zoomAndPan="magnify"><defs><filter height="300%" id="f1w6du6fmuozty" width="300%" x="-1" y="-1"><feGaussianBlur result="blurOut" stdDeviation="2.0"/><feColorMatrix in="blurOut" result="blurOut2" type="matrix" values="0 0 0 0 0 0 0 0 0 0 0 0 0 0 0 0 0 0 .4 0"/><feOffset dx="4.0" dy="4.0" in="blurOut2" result="blurOut3"/><feBlend in="SourceGraphic" in2="blurOut3" mode="normal"/></filter></defs><g><!--cluster z--><rect fill="#789DD5" filter="url(#f1w6du6fmuozty)" height="382" style="stroke: #000000; stroke-width: 1.5;" width="337" x="141" y="194"/><text fill="#000000" font-family="sans-serif" font-size="14" font-weight="bold" lengthAdjust="spacingAndGlyphs" textLength="86" x="266.5" y="208.9951">ZoomMaps</text><!--cluster a--><rect fill="#FFFFFF" filter="url(#f1w6du6fmuozty)" height="128" style="stroke: #000000; stroke-width: 1.5;" width="233" x="681.5" y="32"/><text fill="#000000" font-family="sans-serif" font-size="14" font-weight="bold" lengthAdjust="spacingAndGlyphs" textLength="107" x="744.5" y="46.9951">AnalyseClient</text><!--cluster c--><rect fill="#FFFFFF" filter="url(#f1w6du6fmuozty)" height="207" style="stroke: #000000; stroke-width: 1.5;" width="252" x="672" y="200"/><text fill="#000000" font-family="sans-serif" font-size="14" font-weight="bold" lengthAdjust="spacingAndGlyphs" textLength="51" x="772.5" y="214.9951">Config</text><ellipse cx="309.5624" cy="275.0125" fill="#FEFECE" filter="url(#f1w6du6fmuozty)" rx="80.5624" ry="18.5125" style="stroke: #A80036; stroke-width: 1.5;"/><text fill="#000000" font-family="sans-serif" font-size="14" lengthAdjust="spacingAndGlyphs" textLength="132" x="243.5624" y="279.6609">Tutorial anschauen</text><ellipse cx="309.4927" cy="359.7985" fill="#FEFECE" filter="url(#f1w6du6fmuozty)" rx="144.4927" ry="31.2985" style="stroke: #A80036; stroke-width: 1.5;"/><text fill="#000000" font-family="sans-serif" font-size="14" lengthAdjust="spacingAndGlyphs" textLength="271" x="173.9927" y="364.447">Tutorial: zukünftige Sichtbarkeit wählen</text><ellipse cx="309.4543" cy="442.7909" fill="#FEFECE" filter="url(#f1w6du6fmuozty)" rx="69.4543" ry="16.2909" style="stroke: #A80036; stroke-width: 1.5;"/><text fill="#000000" font-family="sans-serif" font-size="14" lengthAdjust="spacingAndGlyphs" textLength="105" x="256.9543" y="447.4393">Bild betrachten</text><ellipse cx="309.325" cy="523.1593" fill="#FEFECE" filter="url(#f1w6du6fmuozty)" rx="109.825" ry="28.6593" style="stroke: #A80036; stroke-width: 1.5;"/><text fill="#000000" font-family="sans-serif" font-size="14" lengthAdjust="spacingAndGlyphs" textLength="169" x="224.825" y="520.2579">Bildausschnitt anpassen</text><line style="stroke: #A80036; stroke-width: 1.0; stroke-dasharray: 1.0,2.0;" x1="200.5107" x2="418.1392" y1="523.5596" y2="523.5596"/><text fill="#000000" font-family="sans-serif" font-size="14" lengthAdjust="spacingAndGlyphs" textLength="124" x="247.325" y="540.5547">Klicken &amp; Scrollen</text><ellipse cx="797.8318" cy="95.8664" fill="#FEFECE" filter="url(#f1w6du6fmuozty)" rx="92.3318" ry="20.8664" style="stroke: #A80036; stroke-width: 1.5;"/><text fill="#000000" font-family="sans-serif" font-size="14" lengthAdjust="spacingAndGlyphs" textLength="159" x="718.3318" y="100.5148">Ergebnisse anschauen</text><ellipse cx="798.0998" cy="282.22" fill="#FEFECE" filter="url(#f1w6du6fmuozty)" rx="86.5998" ry="19.72" style="stroke: #A80036; stroke-width: 1.5;"/><text fill="#000000" font-family="sans-serif" font-size="14" lengthAdjust="spacingAndGlyphs" textLength="146" x="725.0998" y="286.8684">Einstellungen setzen</text><ellipse cx="797.7923" cy="359.7585" fill="#FEFECE" filter="url(#f1w6du6fmuozty)" rx="101.7923" ry="22.7585" style="stroke: #A80036; stroke-width: 1.5;"/><text fill="#000000" font-family="sans-serif" font-size="14" lengthAdjust="spacingAndGlyphs" textLength="180" x="707.7923" y="364.4069">Tutorialeinstellung ändern</text><!--entity t--><ellipse cx="46" cy="381.5" fill="#FEFECE" filter="url(#f1w6du6fmuozty)" rx="8" ry="8" style="stroke: #A80036; stroke-width: 2.0;"/><path d="M46,389.5 L46,416.5 M33,397.5 L59,397.5 M46,416.5 L33,431.5 M46,416.5 L59,431.5 " fill="none" filter="url(#f1w6du6fmuozty)" style="stroke: #A80036; stroke-width: 2.0;"/><text fill="#000000" font-family="sans-serif" font-size="14" lengthAdjust="spacingAndGlyphs" textLength="80" x="6" y="451.4951">Testperson</text><!--entity f--><ellipse cx="1020.5" cy="140.5" fill="#FEFECE" filter="url(#f1w6du6fmuozty)" rx="8" ry="8" style="stroke: #A80036; stroke-width: 2.0;"/><path d="M1020.5,148.5 L1020.5,175.5 M1007.5,156.5 L1033.5,156.5 M1020.5,175.5 L1007.5,190.5 M1020.5,175.5 L1033.5,190.5 " fill="none" filter="url(#f1w6du6fmuozty)" style="stroke: #A80036; stroke-width: 2.0;"/><text fill="#000000" font-family="sans-serif" font-size="14" lengthAdjust="spacingAndGlyphs" textLength="83" x="979" y="210.4951">Forschende</text><!--link t to td--><path d="M69.1,371.24 C82.48,349.97 101.52,325.59 125,311 C154.58,292.63 191.59,283.33 224.6,278.73 " fill="none" id="t-td" style="stroke: #A80036; stroke-width: 1.0;"/><polygon fill="#A80036" points="229.87,278.03,220.4224,275.2474,224.9134,278.6871,221.4737,283.178,229.87,278.03" style="stroke: #A80036; stroke-width: 1.0;"/><!--link t to tw--><path d="M86.25,401.51 C95.93,398.86 106.3,396.19 116,394 C139.1,388.79 163.92,383.9 187.79,379.53 " fill="none" id="t-tw" style="stroke: #A80036; stroke-width: 1.0;"/><polygon fill="#A80036" points="192.87,378.61,183.3032,376.2698,187.9493,379.4969,184.7222,384.1429,192.87,378.61" style="stroke: #A80036; stroke-width: 1.0;"/><!--link t to bb--><path d="M86.15,417.49 C127.2,422.2 192.46,429.69 241.68,435.33 " fill="none" id="t-bb" style="stroke: #A80036; stroke-width: 1.0;"/><polygon fill="#A80036" points="246.69,435.91,238.2056,430.9084,241.7227,435.339,237.2921,438.8561,246.69,435.91" style="stroke: #A80036; stroke-width: 1.0;"/><!--link t to ba--><path d="M86.3,450.89 C98.02,460.56 111.39,470.15 125,477 C151.48,490.33 182.11,499.98 210.66,506.89 " fill="none" id="t-ba" style="stroke: #A80036; stroke-width: 1.0;"/><polygon fill="#A80036" points="215.59,508.06,207.7581,502.0883,210.7254,506.9045,205.9092,509.8718,215.59,508.06" style="stroke: #A80036; stroke-width: 1.0;"/><!--link es to f--><path d="M886.94,276.14 C905.23,272.46 923.84,266.76 940,258 C959.66,247.34 977.11,229.97 990.61,213.61 " fill="none" id="es-f" style="stroke: #A80036; stroke-width: 1.0;"/><polygon fill="#A80036" points="881.79,277.12,891.3762,279.3794,886.7031,276.1917,889.8908,271.5185,881.79,277.12" style="stroke: #A80036; stroke-width: 1.0;"/><!--link ea to f--><path d="M886.82,106.04 C904.78,109.62 923.28,114.46 940,121 C953.29,126.2 966.72,133.75 978.67,141.46 " fill="none" id="ea-f" style="stroke: #A80036; stroke-width: 1.0;"/><polygon fill="#A80036" points="881.77,105.06,889.8362,110.7112,886.6773,106.0186,891.3699,102.8596,881.77,105.06" style="stroke: #A80036; stroke-width: 1.0;"/><!--link tw to tä--><path d="M454.16,360 C529.82,360 621.01,360 690.31,360 " fill="none" id="tw-tä" style="stroke: #A80036; stroke-width: 1.0; stroke-dasharray: 7.0,7.0;"/><polygon fill="#A80036" points="695.69,360,686.69,356,690.69,360,686.69,364,695.69,360" style="stroke: #A80036; stroke-width: 1.0;"/><!--link z to a--><path d="M479.0924,197.0879 C479.9875,196.961 480.884,196.8338 481.7821,196.7065 C483.5781,196.4517 485.38,196.1962 487.1871,195.9399 C494.4156,194.9147 501.729,193.8774 509.0991,192.8321 C523.8393,190.7416 538.8059,188.6189 553.7725,186.4963 C613.6388,178.0056 673.5031,169.5153 718.8609,163.082 C724.5307,162.2779 729.9737,161.5059 735.1618,160.77 C736.4588,160.586 737.7399,160.4043 739.0046,160.2249 C739.3208,160.1801 739.6359,160.1354 739.95,160.0908 " fill="none" id="z-a" style="stroke: #A80036; stroke-width: 1.0; stroke-dasharray: 7.0,7.0;"/><polygon fill="#A80036" points="739.95,160.0908,730.4775,157.3944,734.9996,160.793,731.601,165.3151,739.95,160.0908" style="stroke: #A80036; stroke-width: 1.0;"/><text fill="#000000" font-family="sans-serif" font-size="13" lengthAdjust="spacingAndGlyphs" textLength="142" x="504" y="171.0669">über Speichermedium</text><!--link z to c--><path d="M479.0924,223.0785 C479.9875,223.0895 480.884,223.1006 481.7821,223.1117 C483.5781,223.1338 485.38,223.156 487.1871,223.1783 C494.4156,223.2675 501.729,223.3578 509.0991,223.4487 C523.8393,223.6306 538.8059,223.8153 553.7725,224 C583.7056,224.3694 613.6383,224.7388 641.7574,225.0857 C648.7872,225.1725 655.7036,225.2578 662.4783,225.3414 C664.172,225.3623 665.8569,225.3831 667.5324,225.4038 C668.3702,225.4141 669.2056,225.4245 670.0387,225.4347 C670.4552,225.4399 670.8711,225.445 671.2865,225.4501 " fill="none" id="z-c" style="stroke: #A80036; stroke-width: 1.0; stroke-dasharray: 7.0,7.0;"/><polygon fill="#A80036" points="479.0924,223.0785,488.0423,227.1892,484.092,223.1402,488.141,219.1898,479.0924,223.0785" style="stroke: #A80036; stroke-width: 1.0;"/><text fill="#000000" font-family="sans-serif" font-size="13" lengthAdjust="spacingAndGlyphs" textLength="144" x="503" y="220.0669">Versuchseinstellungen</text><!--
@startuml zoommaps
left to right direction

actor Testperson as t
actor Forschende as f

rectangle ZoomMaps as z #789dd5 {
    usecase "Tutorial anschauen" as td
    usecase "Tutorial: zukünftige Sichtbarkeit wählen" as tw
    usecase "Bild betrachten" as bb
    usecase ba as "Bildausschnitt anpassen
    ..
    Klicken & Scrollen"
}

rectangle AnalyseClient as a {
    usecase "Ergebnisse anschauen" as ea
}

rectangle Config as c {
    usecase "Einstellungen setzen" as es
    usecase "Tutorialeinstellung ändern" as tä
}

t - -> td
t - -> tw
t - -> bb
t - -> ba

es <- - f
ea <- - f

tw ..> tä
z .r.> a : über Speichermedium
z <.. c : Versuchseinstellungen

@enduml

PlantUML version 1.2019.06(Fri May 24 17:10:25 UTC 2019)
(GPL source distribution)
Java Runtime: OpenJDK Runtime Environment
JVM: OpenJDK 64-Bit Server VM
Java Version: 11.0.11+9
Operating System: Linux
OS Version: 5.11.0-1021-azure
Default Encoding: UTF-8
Language: en
Country: null
--></g></svg>