<?xml version="1.0" encoding="UTF-8" standalone="no"?><svg xmlns="http://www.w3.org/2000/svg" xmlns:xlink="http://www.w3.org/1999/xlink" contentScriptType="application/ecmascript" contentStyleType="text/css" height="579px" preserveAspectRatio="none" style="width:1118px;height:579px;background:#FFFFFF;" version="1.1" viewBox="0 0 1118 579" width="1118px" zoomAndPan="magnify"><defs><filter height="300%" id="f1ddp9ssjt892x" width="300%" x="-1" y="-1"><feGaussianBlur result="blurOut" stdDeviation="2.0"/><feColorMatrix in="blurOut" result="blurOut2" type="matrix" values="0 0 0 0 0 0 0 0 0 0 0 0 0 0 0 0 0 0 .4 0"/><feOffset dx="4.0" dy="4.0" in="blurOut2" result="blurOut3"/><feBlend in="SourceGraphic" in2="blurOut3" mode="normal"/></filter></defs><g><!--MD5=[0dddb7f964ed21e384072c4693cca302]
cluster z--><rect fill="#789DD5" filter="url(#f1ddp9ssjt892x)" height="397" style="stroke:#000000;stroke-width:1.5;" width="366" x="143" y="170"/><text fill="#000000" font-family="sans-serif" font-size="14" font-weight="bold" lengthAdjust="spacing" textLength="89" x="281.5" y="184.9951">ZoomMaps</text><!--MD5=[03c9795141fffc1586b10a901fd13311]
cluster a--><rect fill="#FFFFFF" filter="url(#f1ddp9ssjt892x)" height="130" style="stroke:#000000;stroke-width:1.5;" width="243" x="716.5" y="7"/><text fill="#000000" font-family="sans-serif" font-size="14" font-weight="bold" lengthAdjust="spacing" textLength="110" x="783" y="21.9951">AnalyseClient</text><!--MD5=[b3179ce4f793cc951a1964cbf548eaa1]
cluster c--><rect fill="#FFFFFF" filter="url(#f1ddp9ssjt892x)" height="213" style="stroke:#000000;stroke-width:1.5;" width="270" x="703" y="177"/><text fill="#000000" font-family="sans-serif" font-size="14" font-weight="bold" lengthAdjust="spacing" textLength="52" x="812" y="191.9951">Config</text><ellipse cx="326.0998" cy="252.22" fill="#FEFECE" filter="url(#f1ddp9ssjt892x)" rx="86.5998" ry="19.72" style="stroke:#A80036;stroke-width:1.5;"/><text fill="#000000" font-family="sans-serif" font-size="14" lengthAdjust="spacing" textLength="134" x="259.0998" y="255.0666">Tutorial anschauen</text><ellipse cx="325.9172" cy="341.1834" fill="#FEFECE" filter="url(#f1ddp9ssjt892x)" rx="158.9172" ry="34.1834" style="stroke:#A80036;stroke-width:1.5;"/><text fill="#000000" font-family="sans-serif" font-size="14" lengthAdjust="spacing" textLength="289" x="181.4172" y="344.0301">Tutorial: zukünftige Sichtbarkeit wählen</text><ellipse cx="325.7532" cy="427.9506" fill="#FEFECE" filter="url(#f1ddp9ssjt892x)" rx="77.7532" ry="17.9506" style="stroke:#A80036;stroke-width:1.5;"/><text fill="#000000" font-family="sans-serif" font-size="14" lengthAdjust="spacing" textLength="113" x="266.6994" y="431.5809">Bild betrachten</text><ellipse cx="325.9511" cy="511.9562" fill="#FEFECE" filter="url(#f1ddp9ssjt892x)" rx="127.4511" ry="30.4562" style="stroke:#A80036;stroke-width:1.5;"/><text fill="#000000" font-family="sans-serif" font-size="14" lengthAdjust="spacing" textLength="172" x="239.9511" y="504.9071">Bildausschnitt anpassen</text><line style="stroke:#A80036;stroke-width:1.0;" x1="200.4684" x2="451.4338" y1="508.2089" y2="508.2089"/><text fill="#000000" font-family="sans-serif" font-size="14" lengthAdjust="spacing" textLength="130" x="260.9511" y="525.204">Klicken &amp; Scrollen</text><ellipse cx="837.7599" cy="71.852" fill="#FEFECE" filter="url(#f1ddp9ssjt892x)" rx="97.2599" ry="21.852" style="stroke:#A80036;stroke-width:1.5;"/><text fill="#000000" font-family="sans-serif" font-size="14" lengthAdjust="spacing" textLength="158" x="758.7599" y="74.6987">Ergebnisse anschauen</text><ellipse cx="838.1693" cy="260.1339" fill="#FEFECE" filter="url(#f1ddp9ssjt892x)" rx="93.6693" ry="21.1339" style="stroke:#A80036;stroke-width:1.5;"/><text fill="#000000" font-family="sans-serif" font-size="14" lengthAdjust="spacing" textLength="150" x="763.1693" y="262.9805">Einstellungen setzen</text><ellipse cx="837.9811" cy="341.0962" fill="#FEFECE" filter="url(#f1ddp9ssjt892x)" rx="110.9811" ry="24.5962" style="stroke:#A80036;stroke-width:1.5;"/><text fill="#000000" font-family="sans-serif" font-size="14" lengthAdjust="spacing" textLength="188" x="743.9811" y="343.9429">Tutorialeinstellung ändern</text><!--MD5=[4b52362e67c82d91eba5cb75921775cc]
entity t--><ellipse cx="47" cy="354" fill="#FEFECE" filter="url(#f1ddp9ssjt892x)" rx="8" ry="8" style="stroke:#A80036;stroke-width:1.5;"/><path d="M47,362 L47,389 M34,370 L60,370 M47,389 L34,404 M47,389 L60,404 " fill="none" filter="url(#f1ddp9ssjt892x)" style="stroke:#A80036;stroke-width:1.5;"/><text fill="#000000" font-family="sans-serif" font-size="14" lengthAdjust="spacing" textLength="82" x="6" y="422.4951">Testperson</text><!--MD5=[8f89c3b771be60a8fe1c771d5b27a045]
entity f--><ellipse cx="1069.5" cy="117" fill="#FEFECE" filter="url(#f1ddp9ssjt892x)" rx="8" ry="8" style="stroke:#A80036;stroke-width:1.5;"/><path d="M1069.5,125 L1069.5,152 M1056.5,133 L1082.5,133 M1069.5,152 L1056.5,167 M1069.5,152 L1082.5,167 " fill="none" filter="url(#f1ddp9ssjt892x)" style="stroke:#A80036;stroke-width:1.5;"/><text fill="#000000" font-family="sans-serif" font-size="14" lengthAdjust="spacing" textLength="83" x="1028" y="185.4951">Forschende</text><!--MD5=[fd67234e7733f64004cf957abd7060f0]
link t to td--><path d="M72.4312,344.133 C86.0907,324.779 104.8345,303.087 127,290 C159.463,270.833 199.656,261.068 235.33,256.186 " fill="none" id="t-to-td" style="stroke:#A80036;stroke-width:1.0;"/><polygon fill="#A80036" points="240.559,255.5,231.1153,252.704,235.6014,256.1501,232.1554,260.6361,240.559,255.5" style="stroke:#A80036;stroke-width:1.0;"/><!--MD5=[af6959071ebafe7e84c012ab58a7e6fb]
link t to tw--><path d="M88.2782,378.602 C116.065,374.188 154.72,368.048 192.745,362.008 " fill="none" id="t-to-tw" style="stroke:#A80036;stroke-width:1.0;"/><polygon fill="#A80036" points="197.862,361.195,188.346,358.6561,192.9239,361.9792,189.6008,366.5571,197.862,361.195" style="stroke:#A80036;stroke-width:1.0;"/><!--MD5=[a47cc61414be02f1a1dc46a9068d5641]
link t to bb--><path d="M88.2782,391.253 C132.104,398.056 202.964,409.056 255.752,417.25 " fill="none" id="t-to-bb" style="stroke:#A80036;stroke-width:1.0;"/><polygon fill="#A80036" points="260.803,418.034,252.5232,412.7007,255.8622,417.267,251.2959,420.606,260.803,418.034" style="stroke:#A80036;stroke-width:1.0;"/><!--MD5=[050f09feb72fbf87cef13cc5b5044b26]
link t to ba--><path d="M80.6414,425.854 C93.7035,439.805 109.749,454.314 127,464 C152.511,478.324 182.207,488.402 210.72,495.4839 " fill="none" id="t-to-ba" style="stroke:#A80036;stroke-width:1.0;"/><polygon fill="#A80036" points="215.656,496.683,207.8543,490.6719,210.7972,495.503,205.9662,498.4459,215.656,496.683" style="stroke:#A80036;stroke-width:1.0;"/><!--MD5=[a125e7a89955503dc6ea76ee0e3a57d8]
reverse link es to f--><path d="M934.388,253.847 C953.257,249.984 972.355,244.045 989,235 C1009.31,223.961 1027.18,205.716 1040.81,188.778 " fill="none" id="es-backto-f" style="stroke:#A80036;stroke-width:1.0;"/><polygon fill="#A80036" points="929.074,254.882,938.6732,257.0856,933.9816,253.9251,937.1421,249.2334,929.074,254.882" style="stroke:#A80036;stroke-width:1.0;"/><!--MD5=[5ee056708a36d949970e390853597e9e]
reverse link ea to f--><path d="M932.015,82.314 C951.232,86.047 971.07,91.117 989,98 C1002.243,103.084 1015.67,110.487 1027.62,118.045 " fill="none" id="ea-backto-f" style="stroke:#A80036;stroke-width:1.0;"/><polygon fill="#A80036" points="926.614,81.297,934.7177,86.8943,931.5275,82.2228,936.199,79.0327,926.614,81.297" style="stroke:#A80036;stroke-width:1.0;"/><!--MD5=[354f39f0528b44ce70835c3195523a3b]
link tw to tä--><path d="M485.223,341 C561.616,341 651.616,341 721.458,341 " fill="none" id="tw-to-tä" style="stroke:#A80036;stroke-width:1.0;stroke-dasharray:7.0,7.0;"/><polygon fill="#A80036" points="726.875,341,717.875,337,721.875,341,717.875,345,726.875,341" style="stroke:#A80036;stroke-width:1.0;"/><!--MD5=[63b0b4f2c04a4d4323df6b79656b845a]
link z to a--><path d="M509.3842,172.6822 C510.3286,172.5563 511.2744,172.4302 512.2216,172.3039 C519.7993,171.2936 527.4659,170.2713 535.192,169.2412 C550.6441,167.1809 566.3337,165.0889 582.0231,162.997 C644.7809,154.6292 707.5369,146.2618 755.0862,139.9218 C761.0298,139.1293 766.7359,138.3685 772.1746,137.6433 C773.5343,137.462 774.8773,137.283 776.2031,137.1062 " fill="none" id="z-to-a" style="stroke:#A80036;stroke-width:1.0;stroke-dasharray:7.0,7.0;"/><polygon fill="#A80036" points="776.2031,137.1062,766.7534,134.3308,771.247,137.767,767.8107,142.2606,776.2031,137.1062" style="stroke:#A80036;stroke-width:1.0;"/><text fill="#000000" font-family="sans-serif" font-size="13" lengthAdjust="spacing" textLength="141" x="535.5" y="147.0669">über Speichermedium</text><!--MD5=[e555bde5371ff03b38ff4a3e0b52fb34]
reverse link z to c--><path d="M509.3842,199.5033 C510.3286,199.5163 511.2744,199.5292 512.2216,199.5423 C519.7993,199.6463 527.4659,199.7515 535.192,199.8576 C550.6441,200.0697 566.3337,200.285 582.0231,200.5004 C613.402,200.9311 644.7805,201.3618 674.2579,201.7664 C681.6272,201.8676 688.8777,201.9671 695.9797,202.0646 C697.7552,202.089 699.5215,202.1132 701.2779,202.1373 C701.7171,202.1433 702.1556,202.1494 702.5935,202.1554 " fill="none" id="z-backto-c" style="stroke:#A80036;stroke-width:1.0;stroke-dasharray:7.0,7.0;"/><polygon fill="#A80036" points="509.3842,199.5033,518.3285,203.6265,514.3838,199.5719,518.4383,195.6272,509.3842,199.5033" style="stroke:#A80036;stroke-width:1.0;"/><text fill="#000000" font-family="sans-serif" font-size="13" lengthAdjust="spacing" textLength="144" x="534" y="196.0669">Versuchseinstellungen</text><!--MD5=[39ed7c47d48b0c22139f4ab78fb2c914]
@startuml
left to right direction

actor Testperson as t
actor Forschende as f

rectangle ZoomMaps as z #789dd5 {
    usecase "Tutorial anschauen" as td
    usecase "Tutorial: zukünftige Sichtbarkeit wählen" as tw
    usecase "Bild betrachten" as bb
    usecase ba as "Bildausschnitt anpassen
    - -
    Klicken & Scrollen"
}

rectangle AnalyseClient as a {
    usecase "Ergebnisse anschauen" as ea
}

rectangle Config as c {
    usecase "Einstellungen setzen" as es
    usecase "Tutorialeinstellung ändern" as tä
}

' Testperson
t - -> td
t - -> tw
t - -> bb
t - -> ba

' Forschende
es <- - f
ea <- - f

' intern
tw ..> tä
z .r.> a : über Speichermedium
z <.. c : Versuchseinstellungen
@enduml

@startuml
left to right direction

actor Testperson as t
actor Forschende as f

rectangle ZoomMaps as z #789dd5 {
    usecase "Tutorial anschauen" as td
    usecase "Tutorial: zukünftige Sichtbarkeit wählen" as tw
    usecase "Bild betrachten" as bb
    usecase ba as "Bildausschnitt anpassen
    - -
    Klicken & Scrollen"
}

rectangle AnalyseClient as a {
    usecase "Ergebnisse anschauen" as ea
}

rectangle Config as c {
    usecase "Einstellungen setzen" as es
    usecase "Tutorialeinstellung ändern" as tä
}

t - -> td
t - -> tw
t - -> bb
t - -> ba

es <- - f
ea <- - f

tw ..> tä
z .r.> a : über Speichermedium
z <.. c : Versuchseinstellungen
@enduml

PlantUML version 1.2021.15beta6(Unknown compile time)
(GPL source distribution)
Java Runtime: Java(TM) SE Runtime Environment
JVM: Java HotSpot(TM) 64-Bit Server VM
Default Encoding: UTF-8
Language: en
Country: US
--></g></svg>