<?xml version="1.0" encoding="UTF-8" standalone="no"?><svg xmlns="http://www.w3.org/2000/svg" xmlns:xlink="http://www.w3.org/1999/xlink" contentScriptType="application/ecmascript" contentStyleType="text/css" height="448px" preserveAspectRatio="none" style="width:1118px;height:448px;background:#FFFFFF;" version="1.1" viewBox="0 0 1118 448" width="1118px" zoomAndPan="magnify"><defs><filter height="300%" id="f16t8z5pgyn5g0" width="300%" x="-1" y="-1"><feGaussianBlur result="blurOut" stdDeviation="2.0"/><feColorMatrix in="blurOut" result="blurOut2" type="matrix" values="0 0 0 0 0 0 0 0 0 0 0 0 0 0 0 0 0 0 .4 0"/><feOffset dx="4.0" dy="4.0" in="blurOut2" result="blurOut3"/><feBlend in="SourceGraphic" in2="blurOut3" mode="normal"/></filter></defs><g><!--MD5=[0dddb7f964ed21e384072c4693cca302]
cluster z--><rect fill="#789DD5" filter="url(#f16t8z5pgyn5g0)" height="429" style="stroke:#000000;stroke-width:1.5;" width="366" x="143" y="7"/><text fill="#000000" font-family="sans-serif" font-size="14" font-weight="bold" lengthAdjust="spacing" textLength="89" x="281.5" y="21.9951">ZoomMaps</text><!--MD5=[03c9795141fffc1586b10a901fd13311]
cluster a--><rect fill="#FFFFFF" filter="url(#f16t8z5pgyn5g0)" height="130" style="stroke:#000000;stroke-width:1.5;" width="243" x="716.5" y="306"/><text fill="#000000" font-family="sans-serif" font-size="14" font-weight="bold" lengthAdjust="spacing" textLength="110" x="783" y="320.9951">AnalyseClient</text><!--MD5=[b3179ce4f793cc951a1964cbf548eaa1]
cluster c--><rect fill="#FFFFFF" filter="url(#f16t8z5pgyn5g0)" height="213" style="stroke:#000000;stroke-width:1.5;" width="270" x="703" y="53"/><text fill="#000000" font-family="sans-serif" font-size="14" font-weight="bold" lengthAdjust="spacing" textLength="52" x="812" y="67.9951">Config</text><ellipse cx="326.0998" cy="70.22" fill="#FEFECE" filter="url(#f16t8z5pgyn5g0)" rx="86.5998" ry="19.72" style="stroke:#A80036;stroke-width:1.5;"/><text fill="#000000" font-family="sans-serif" font-size="14" lengthAdjust="spacing" textLength="134" x="259.0998" y="73.0666">Tutorial anschauen</text><ellipse cx="325.9172" cy="175.1834" fill="#FEFECE" filter="url(#f16t8z5pgyn5g0)" rx="158.9172" ry="34.1834" style="stroke:#A80036;stroke-width:1.5;"/><text fill="#000000" font-family="sans-serif" font-size="14" lengthAdjust="spacing" textLength="289" x="181.4172" y="178.0301">Tutorial: zukünftige Sichtbarkeit wählen</text><ellipse cx="325.7532" cy="261.9506" fill="#FEFECE" filter="url(#f16t8z5pgyn5g0)" rx="77.7532" ry="17.9506" style="stroke:#A80036;stroke-width:1.5;"/><text fill="#000000" font-family="sans-serif" font-size="14" lengthAdjust="spacing" textLength="113" x="266.6994" y="265.5809">Bild betrachten</text><ellipse cx="325.9511" cy="361.9562" fill="#FEFECE" filter="url(#f16t8z5pgyn5g0)" rx="127.4511" ry="30.4562" style="stroke:#A80036;stroke-width:1.5;"/><text fill="#000000" font-family="sans-serif" font-size="14" lengthAdjust="spacing" textLength="172" x="239.9511" y="354.9071">Bildausschnitt anpassen</text><line style="stroke:#A80036;stroke-width:1.0;stroke-dasharray:1.0,2.0;" x1="200.4684" x2="451.4338" y1="358.2089" y2="358.2089"/><text fill="#000000" font-family="sans-serif" font-size="14" lengthAdjust="spacing" textLength="130" x="260.9511" y="375.204">Klicken &amp; Scrollen</text><ellipse cx="837.7599" cy="370.852" fill="#FEFECE" filter="url(#f16t8z5pgyn5g0)" rx="97.2599" ry="21.852" style="stroke:#A80036;stroke-width:1.5;"/><text fill="#000000" font-family="sans-serif" font-size="14" lengthAdjust="spacing" textLength="158" x="758.7599" y="373.6987">Ergebnisse anschauen</text><ellipse cx="838.1693" cy="117.1339" fill="#FEFECE" filter="url(#f16t8z5pgyn5g0)" rx="93.6693" ry="21.1339" style="stroke:#A80036;stroke-width:1.5;"/><text fill="#000000" font-family="sans-serif" font-size="14" lengthAdjust="spacing" textLength="150" x="763.1693" y="119.9805">Einstellungen setzen</text><ellipse cx="837.9811" cy="198.0962" fill="#FEFECE" filter="url(#f16t8z5pgyn5g0)" rx="110.9811" ry="24.5962" style="stroke:#A80036;stroke-width:1.5;"/><text fill="#000000" font-family="sans-serif" font-size="14" lengthAdjust="spacing" textLength="188" x="743.9811" y="200.9429">Tutorialeinstellung ändern</text><!--MD5=[4b52362e67c82d91eba5cb75921775cc]
entity t--><ellipse cx="47" cy="117" fill="#FEFECE" filter="url(#f16t8z5pgyn5g0)" rx="8" ry="8" style="stroke:#A80036;stroke-width:1.5;"/><path d="M47,125 L47,152 M34,133 L60,133 M47,152 L34,167 M47,152 L60,167 " fill="none" filter="url(#f16t8z5pgyn5g0)" style="stroke:#A80036;stroke-width:1.5;"/><text fill="#000000" font-family="sans-serif" font-size="14" lengthAdjust="spacing" textLength="82" x="6" y="185.4951">Testperson</text><!--MD5=[8f89c3b771be60a8fe1c771d5b27a045]
entity f--><ellipse cx="1069.5" cy="187" fill="#FEFECE" filter="url(#f16t8z5pgyn5g0)" rx="8" ry="8" style="stroke:#A80036;stroke-width:1.5;"/><path d="M1069.5,195 L1069.5,222 M1056.5,203 L1082.5,203 M1069.5,222 L1056.5,237 M1069.5,222 L1082.5,237 " fill="none" filter="url(#f16t8z5pgyn5g0)" style="stroke:#A80036;stroke-width:1.5;"/><text fill="#000000" font-family="sans-serif" font-size="14" lengthAdjust="spacing" textLength="83" x="1028" y="255.4951">Forschende</text><!--MD5=[4296adf15cee4a0f18a50736f5308ba2]
reverse link tw to td--><path d="M326,135.645 C326,119.907 326,102.483 326,89.544 " fill="none" id="tw-backto-td" style="stroke:#A80036;stroke-width:1.0;stroke-dasharray:7.0,7.0;"/><polygon fill="#A80036" points="326,140.91,330,131.91,326,135.91,322,131.91,326,140.91" style="stroke:#A80036;stroke-width:1.0;"/><text fill="#000000" font-family="sans-serif" font-size="13" lengthAdjust="spacing" textLength="61" x="284" y="119.8169">«include»</text><!--MD5=[08bd92a6b32f273cb4a0066b28bef175]
reverse link ba to bb--><path d="M326,326.246 C326,310.633 326,292.999 326,280.16 " fill="none" id="ba-backto-bb" style="stroke:#A80036;stroke-width:1.0;stroke-dasharray:7.0,7.0;"/><polygon fill="#A80036" points="326,331.453,330,322.453,326,326.453,322,322.453,326,331.453" style="stroke:#A80036;stroke-width:1.0;"/><text fill="#000000" font-family="sans-serif" font-size="13" lengthAdjust="spacing" textLength="61" x="284" y="310.3169">«include»</text><!--MD5=[fd67234e7733f64004cf957abd7060f0]
link t to td--><path d="M88.0828,134.932 C100.5194,130.98 114.295,126.709 127,123 C172.278,109.783 223.75,96.044 262.863,85.867 " fill="none" id="t-to-td" style="stroke:#A80036;stroke-width:1.0;"/><polygon fill="#A80036" points="268.055,84.518,258.338,82.9117,263.2159,85.7763,260.3513,90.6543,268.055,84.518" style="stroke:#A80036;stroke-width:1.0;"/><!--MD5=[a47cc61414be02f1a1dc46a9068d5641]
link t to bb--><path d="M79.5574,188.624 C92.7164,202.896 109.109,217.682 127,227 C162.704,245.596 206.421,254.54 243.685,258.755 " fill="none" id="t-to-bb" style="stroke:#A80036;stroke-width:1.0;"/><polygon fill="#A80036" points="248.664,259.295,240.1472,254.3489,243.6931,258.7565,239.2855,262.3024,248.664,259.295" style="stroke:#A80036;stroke-width:1.0;"/><!--MD5=[a125e7a89955503dc6ea76ee0e3a57d8]
reverse link es to f--><path d="M917.506,131.032 C941.207,136.936 966.81,145.051 989,156 C1002.499,162.66 1015.9,171.843 1027.75,181.101 " fill="none" id="es-backto-f" style="stroke:#A80036;stroke-width:1.0;"/><polygon fill="#A80036" points="912.479,129.805,920.2757,135.8226,917.3368,130.9891,922.1703,128.0501,912.479,129.805" style="stroke:#A80036;stroke-width:1.0;"/><!--MD5=[5ee056708a36d949970e390853597e9e]
reverse link ea to f--><path d="M876.418,347.383 C906.928,327.988 951.028,299.637 989,274 C1001.733,265.403 1015.46,255.842 1027.86,247.089 " fill="none" id="ea-backto-f" style="stroke:#A80036;stroke-width:1.0;"/><polygon fill="#A80036" points="872.018,350.178,881.7594,348.7274,876.2381,347.4965,877.469,341.9752,872.018,350.178" style="stroke:#A80036;stroke-width:1.0;"/><!--MD5=[2827afe277d74b8b1048bdf68fbae7e3]
reverse link tw to tä--><path d="M486.917,182.212 C565.713,185.766 658.648,189.957 728.955,193.127 " fill="none" id="tw-backto-tä" style="stroke:#A80036;stroke-width:1.0;stroke-dasharray:7.0,7.0;"/><polygon fill="#A80036" points="481.747,181.979,490.5572,186.3813,486.7419,182.2047,490.9184,178.3894,481.747,181.979" style="stroke:#A80036;stroke-width:1.0;"/><text fill="#000000" font-family="sans-serif" font-size="13" lengthAdjust="spacing" textLength="68" x="572" y="181.0669">«extends»</text><!--MD5=[63b0b4f2c04a4d4323df6b79656b845a]
link z to a--><path d="M509.3842,428 C510.3286,428 511.2744,428 512.2216,428 C519.7993,428 527.4659,428 535.192,428 C550.6441,428 566.3337,428 582.0231,428 C613.402,428 644.7805,428 674.2579,428 C681.6272,428 688.8777,428 695.9797,428 C699.5307,428 703.0446,428 706.5177,428 C708.2542,428 709.9805,428 711.6961,428 C712.5539,428 713.4091,428 714.2615,428 C714.6877,428 715.1133,428 715.5381,428 " fill="none" id="z-to-a" style="stroke:#A80036;stroke-width:1.0;stroke-dasharray:7.0,7.0;"/><polygon fill="#A80036" points="715.5381,428,706.5381,424,710.5381,428,706.5381,432,715.5381,428" style="stroke:#A80036;stroke-width:1.0;"/><text fill="#000000" font-family="sans-serif" font-size="13" lengthAdjust="spacing" textLength="141" x="535.5" y="424.0669">über Speichermedium</text><!--MD5=[e555bde5371ff03b38ff4a3e0b52fb34]
reverse link z to c--><path d="M509.4434,414.398 C514.7312,412.7596 519.9283,410.9647 525,409 C529.144,407.3945 529.198,405.3013 533,403 C596.031,364.85 670.6595,329.1278 730.2,302.6853 C759.9703,289.464 785.9685,278.5627 804.8591,270.8378 C807.2204,269.8722 809.4706,268.9562 811.6033,268.0916 C812.6697,267.6592 813.7066,267.2397 814.7134,266.8332 C815.2167,266.63 815.7126,266.43 816.2007,266.2333 " fill="none" id="z-backto-c" style="stroke:#A80036;stroke-width:1.0;stroke-dasharray:7.0,7.0;"/><polygon fill="#A80036" points="509.4434,414.398,519.224,415.555,514.2193,412.9182,516.8562,407.9135,509.4434,414.398" style="stroke:#A80036;stroke-width:1.0;"/><text fill="#000000" font-family="sans-serif" font-size="13" lengthAdjust="spacing" textLength="144" x="534" y="325.0669">Versuchseinstellungen</text><!--MD5=[29a96df22df4c9a6f8afca15a2c8f8a1]
@startuml
left to right direction

actor Testperson as t
actor Forschende as f

rectangle ZoomMaps as z #789dd5 {
    usecase "Tutorial anschauen" as td
    usecase "Tutorial: zukünftige Sichtbarkeit wählen" as tw
    usecase "Bild betrachten" as bb
    usecase ba as "Bildausschnitt anpassen
    ..
    Klicken & Scrollen"
    td .l.> tw : <<include>>
    bb .l.> ba : <<include>>
}

rectangle AnalyseClient as a {
    usecase "Ergebnisse anschauen" as ea
}

rectangle Config as c {
    usecase "Einstellungen setzen" as es
    usecase "Tutorialeinstellung ändern" as tä
}

' Testperson
t - -> td
' t - -> tw
t - -> bb
' t - -> ba

' Forschende
es <- - f
ea <- - f

' intern
tw <.. tä : <<extends>>
z ..> a : über Speichermedium
z <.. c : Versuchseinstellungen
@enduml

@startuml
left to right direction

actor Testperson as t
actor Forschende as f

rectangle ZoomMaps as z #789dd5 {
    usecase "Tutorial anschauen" as td
    usecase "Tutorial: zukünftige Sichtbarkeit wählen" as tw
    usecase "Bild betrachten" as bb
    usecase ba as "Bildausschnitt anpassen
    ..
    Klicken & Scrollen"
    td .l.> tw : <<include>>
    bb .l.> ba : <<include>>
}

rectangle AnalyseClient as a {
    usecase "Ergebnisse anschauen" as ea
}

rectangle Config as c {
    usecase "Einstellungen setzen" as es
    usecase "Tutorialeinstellung ändern" as tä
}

t - -> td
t - -> bb

es <- - f
ea <- - f

tw <.. tä : <<extends>>
z ..> a : über Speichermedium
z <.. c : Versuchseinstellungen
@enduml

PlantUML version 1.2021.15beta6(Unknown compile time)
(GPL source distribution)
Java Runtime: Java(TM) SE Runtime Environment
JVM: Java HotSpot(TM) 64-Bit Server VM
Default Encoding: UTF-8
Language: en
Country: US
--></g></svg>