<?xml version="1.0" encoding="UTF-8" standalone="no"?><svg xmlns="http://www.w3.org/2000/svg" xmlns:xlink="http://www.w3.org/1999/xlink" contentScriptType="application/ecmascript" contentStyleType="text/css" height="1551px" preserveAspectRatio="none" style="width:1759px;height:1551px;background:#FFFFFF;" version="1.1" viewBox="0 0 1759 1551" width="1759px" zoomAndPan="magnify"><defs><filter height="300%" id="fwa2pm6zv6h9i" width="300%" x="-1" y="-1"><feGaussianBlur result="blurOut" stdDeviation="2.0"/><feColorMatrix in="blurOut" result="blurOut2" type="matrix" values="0 0 0 0 0 0 0 0 0 0 0 0 0 0 0 0 0 0 .4 0"/><feOffset dx="4.0" dy="4.0" in="blurOut2" result="blurOut3"/><feBlend in="SourceGraphic" in2="blurOut3" mode="normal"/></filter></defs><g><!--MD5=[f73af55262f8d247b61c1d9315ebf9db]
cluster i--><rect fill="#FEFECE" filter="url(#fwa2pm6zv6h9i)" height="954.5" rx="12.5" ry="12.5" style="stroke:#A80036;stroke-width:1.5;" width="419" x="649" y="130.5"/><rect fill="#FFFFFF" height="922.2031" rx="12.5" ry="12.5" style="stroke:#FFFFFF;stroke-width:1.0;" width="413" x="652" y="159.7969"/><line style="stroke:#A80036;stroke-width:1.5;" x1="649" x2="1068" y1="156.7969" y2="156.7969"/><text fill="#000000" font-family="sans-serif" font-size="14" lengthAdjust="spacing" textLength="38" x="839.5" y="147.4951">Input</text><!--MD5=[03c9795141fffc1586b10a901fd13311]
cluster a--><rect fill="#FEFECE" filter="url(#fwa2pm6zv6h9i)" height="702" rx="12.5" ry="12.5" style="stroke:#A80036;stroke-width:1.5;" width="602" x="7" y="565"/><rect fill="#FFFFFF" height="669.7031" rx="12.5" ry="12.5" style="stroke:#FFFFFF;stroke-width:1.0;" width="596" x="10" y="594.2969"/><line style="stroke:#A80036;stroke-width:1.5;" x1="7" x2="609" y1="591.2969" y2="591.2969"/><text fill="#000000" font-family="sans-serif" font-size="14" lengthAdjust="spacing" textLength="55" x="280.5" y="581.9951">Analyse</text><!--MD5=[681afae6640faca68c2d704cb11e6132]
cluster o--><rect fill="#FEFECE" filter="url(#fwa2pm6zv6h9i)" height="393" rx="12.5" ry="12.5" style="stroke:#A80036;stroke-width:1.5;" width="256" x="649" y="1146"/><rect fill="#FFFFFF" height="360.7031" rx="12.5" ry="12.5" style="stroke:#FFFFFF;stroke-width:1.0;" width="250" x="652" y="1175.2969"/><line style="stroke:#A80036;stroke-width:1.5;" x1="649" x2="905" y1="1172.2969" y2="1172.2969"/><text fill="#000000" font-family="sans-serif" font-size="14" lengthAdjust="spacing" textLength="51" x="751.5" y="1162.9951">Output</text><g id="i.iat"><rect fill="#FEFECE" filter="url(#fwa2pm6zv6h9i)" height="50.2656" rx="12.5" ry="12.5" style="stroke:#A80036;stroke-width:1.5;" width="161" x="721.5" y="363"/><line style="stroke:#A80036;stroke-width:1.5;" x1="721.5" x2="882.5" y1="389.2969" y2="389.2969"/><text fill="#000000" font-family="sans-serif" font-size="14" lengthAdjust="spacing" textLength="136" x="734" y="380.9951">InputAnalyseTypes</text><text fill="#000000" font-family="sans-serif" font-size="12" lengthAdjust="spacing" textLength="141" x="726.5" y="405.4355">Auswahl Analyse Typen</text></g><g id="i.id"><rect fill="#FEFECE" filter="url(#fwa2pm6zv6h9i)" height="50.2656" rx="12.5" ry="12.5" style="stroke:#A80036;stroke-width:1.5;" width="174" x="715" y="612"/><line style="stroke:#A80036;stroke-width:1.5;" x1="715" x2="889" y1="638.2969" y2="638.2969"/><text fill="#000000" font-family="sans-serif" font-size="14" lengthAdjust="spacing" textLength="72" x="766" y="629.9951">InputData</text><text fill="#000000" font-family="sans-serif" font-size="12" lengthAdjust="spacing" textLength="154" x="720" y="654.4355">Eingabe benötigter Daten</text></g><g id="i.wfs"><rect fill="#FEFECE" filter="url(#fwa2pm6zv6h9i)" height="50.2656" rx="12.5" ry="12.5" style="stroke:#A80036;stroke-width:1.5;" width="355" x="681.5" y="868"/><line style="stroke:#A80036;stroke-width:1.5;" x1="681.5" x2="1036.5" y1="894.2969" y2="894.2969"/><text fill="#000000" font-family="sans-serif" font-size="14" lengthAdjust="spacing" textLength="178" x="770" y="885.9951">WaitForSpeichermedium</text><text fill="#000000" font-family="sans-serif" font-size="12" lengthAdjust="spacing" textLength="335" x="686.5" y="910.4355">Benötigte Daten werden vom Speichermedium besorgt</text></g><g id="i.idfc"><rect fill="#FEFECE" filter="url(#fwa2pm6zv6h9i)" height="50.2656" rx="12.5" ry="12.5" style="stroke:#A80036;stroke-width:1.5;" width="264" x="681" y="1011"/><line style="stroke:#A80036;stroke-width:1.5;" x1="681" x2="945" y1="1037.2969" y2="1037.2969"/><text fill="#000000" font-family="sans-serif" font-size="14" lengthAdjust="spacing" textLength="138" x="744" y="1028.9951">InputDataForComp</text><text fill="#000000" font-family="sans-serif" font-size="12" lengthAdjust="spacing" textLength="244" x="686" y="1053.4355">Eingabe benötigter Daten zum Vergleich</text></g><ellipse cx="802" cy="202.5" fill="#000000" filter="url(#fwa2pm6zv6h9i)" rx="10" ry="10" style="stroke:none;stroke-width:1.0;"/><g id="a.d"><rect fill="#FEFECE" filter="url(#fwa2pm6zv6h9i)" height="64.2344" rx="12.5" ry="12.5" style="stroke:#A80036;stroke-width:1.5;" width="202" x="207" y="861"/><line style="stroke:#A80036;stroke-width:1.5;" x1="207" x2="409" y1="887.2969" y2="887.2969"/><text fill="#000000" font-family="sans-serif" font-size="14" lengthAdjust="spacing" textLength="74" x="271" y="878.9951">Diagramm</text><text fill="#000000" font-family="sans-serif" font-size="12" lengthAdjust="spacing" textLength="161" x="212" y="903.4355">Analyse und Erstellung der</text><text fill="#000000" font-family="sans-serif" font-size="12" lengthAdjust="spacing" textLength="182" x="212" y="917.4043">ausgewählten Diagrammtypen</text></g><g id="a.v"><rect fill="#FEFECE" filter="url(#fwa2pm6zv6h9i)" height="50.2656" rx="12.5" ry="12.5" style="stroke:#A80036;stroke-width:1.5;" width="236" x="31" y="1011"/><line style="stroke:#A80036;stroke-width:1.5;" x1="31" x2="267" y1="1037.2969" y2="1037.2969"/><text fill="#000000" font-family="sans-serif" font-size="14" lengthAdjust="spacing" textLength="51" x="123.5" y="1028.9951">Verlauf</text><text fill="#000000" font-family="sans-serif" font-size="12" lengthAdjust="spacing" textLength="216" x="36" y="1053.4355">Analyse und Erstellung des Verlaufs</text></g><g id="a.h"><rect fill="#FEFECE" filter="url(#fwa2pm6zv6h9i)" height="64.2344" rx="12.5" ry="12.5" style="stroke:#A80036;stroke-width:1.5;" width="195" x="381.5" y="1004"/><line style="stroke:#A80036;stroke-width:1.5;" x1="381.5" x2="576.5" y1="1030.2969" y2="1030.2969"/><text fill="#000000" font-family="sans-serif" font-size="14" lengthAdjust="spacing" textLength="66" x="446" y="1021.9951">Heatmap</text><text fill="#000000" font-family="sans-serif" font-size="12" lengthAdjust="spacing" textLength="161" x="386.5" y="1046.4355">Analyse und Erstellung der</text><text fill="#000000" font-family="sans-serif" font-size="12" lengthAdjust="spacing" textLength="175" x="386.5" y="1060.4043">ausgewählten Heatmaptypen</text></g><g id="a.af"><rect fill="#FEFECE" filter="url(#fwa2pm6zv6h9i)" height="50.2656" rx="12.5" ry="12.5" style="stroke:#A80036;stroke-width:1.5;" width="176" x="286" y="1193"/><line style="stroke:#A80036;stroke-width:1.5;" x1="286" x2="462" y1="1219.2969" y2="1219.2969"/><text fill="#000000" font-family="sans-serif" font-size="14" lengthAdjust="spacing" textLength="114" x="317" y="1210.9951">AnalyseFinished</text><text fill="#000000" font-family="sans-serif" font-size="12" lengthAdjust="spacing" textLength="156" x="291" y="1235.4355">Rückgabe der Ergebnisse</text></g><ellipse cx="308" cy="637" fill="#000000" filter="url(#fwa2pm6zv6h9i)" rx="10" ry="10" style="stroke:none;stroke-width:1.0;"/><g id="o.an"><rect fill="#FEFECE" filter="url(#fwa2pm6zv6h9i)" height="50.2656" rx="12.5" ry="12.5" style="stroke:#A80036;stroke-width:1.5;" width="187" x="684.5" y="1338"/><line style="stroke:#A80036;stroke-width:1.5;" x1="684.5" x2="871.5" y1="1364.2969" y2="1364.2969"/><text fill="#000000" font-family="sans-serif" font-size="14" lengthAdjust="spacing" textLength="58" x="749" y="1355.9951">Anzeige</text><text fill="#000000" font-family="sans-serif" font-size="12" lengthAdjust="spacing" textLength="167" x="689.5" y="1380.4355">Ausgabe analysierter Daten</text></g><g id="o.e"><rect fill="#FEFECE" filter="url(#fwa2pm6zv6h9i)" height="50.2656" rx="12.5" ry="12.5" style="stroke:#A80036;stroke-width:1.5;" width="200" x="681" y="1465"/><line style="stroke:#A80036;stroke-width:1.5;" x1="681" x2="881" y1="1491.2969" y2="1491.2969"/><text fill="#000000" font-family="sans-serif" font-size="14" lengthAdjust="spacing" textLength="49" x="756.5" y="1482.9951">Export</text><text fill="#000000" font-family="sans-serif" font-size="12" lengthAdjust="spacing" textLength="180" x="686" y="1507.4355">Export der analysierten Daten</text></g><ellipse cx="734" cy="1218" fill="#000000" filter="url(#fwa2pm6zv6h9i)" rx="10" ry="10" style="stroke:none;stroke-width:1.0;"/><path d="M1092,103 L1092,302.0313 L1750,302.0313 L1750,113 L1740,103 L1092,103 " fill="#FBFB77" filter="url(#fwa2pm6zv6h9i)" style="stroke:#A80036;stroke-width:1.0;"/><path d="M1740,103 L1740,113 L1750,113 L1740,103 " fill="#FBFB77" style="stroke:#A80036;stroke-width:1.0;"/><text fill="#000000" font-family="sans-serif" font-size="13" lengthAdjust="spacing" textLength="83" x="1098" y="120.0669">Bedingungen</text><text fill="#000000" font-family="sans-serif" font-size="10" lengthAdjust="spacing" textLength="7" x="1098" y="132.415">1</text><text fill="#000000" font-family="sans-serif" font-size="13" lengthAdjust="spacing" textLength="146" x="1109" y="137.7075">analysTypes.size == 0</text><text fill="#000000" font-family="sans-serif" font-size="10" lengthAdjust="spacing" textLength="6" x="1098" y="150.0557">2</text><text fill="#000000" font-family="sans-serif" font-size="13" lengthAdjust="spacing" textLength="149" x="1108" y="155.3481">analyseTypes.size != 0</text><text fill="#000000" font-family="sans-serif" font-size="10" lengthAdjust="spacing" textLength="7" x="1098" y="167.6963">3</text><text fill="#000000" font-family="sans-serif" font-size="13" lengthAdjust="spacing" textLength="402" x="1109" y="172.9888">(start &gt; end) OR (start OR end != Date) OR (dataType == null)</text><text fill="#000000" font-family="sans-serif" font-size="10" lengthAdjust="spacing" textLength="7" x="1098" y="185.3369">4</text><text fill="#000000" font-family="sans-serif" font-size="13" lengthAdjust="spacing" textLength="419" x="1109" y="190.6294">(start &lt; end) AND (start AND end = Date) AND (dataType != null)</text><text fill="#000000" font-family="sans-serif" font-size="10" lengthAdjust="spacing" textLength="6" x="1098" y="202.9775">5</text><text fill="#000000" font-family="sans-serif" font-size="13" lengthAdjust="spacing" textLength="79" x="1108" y="208.27">data == null</text><text fill="#000000" font-family="sans-serif" font-size="10" lengthAdjust="spacing" textLength="7" x="1098" y="220.6182">6</text><text fill="#000000" font-family="sans-serif" font-size="13" lengthAdjust="spacing" textLength="562" x="1109" y="225.9106">(data != null) AND (dataForComp == null) AND (analyseTypes contains COMPHEATMAP)</text><text fill="#000000" font-family="sans-serif" font-size="10" lengthAdjust="spacing" textLength="6" x="1098" y="238.2588">7</text><text fill="#000000" font-family="sans-serif" font-size="13" lengthAdjust="spacing" textLength="627" x="1108" y="243.5513">(start &lt; end) AND (start AND end = Date) AND (dataType != null) AND (data.t == dataForComp.t)</text><text fill="#000000" font-family="sans-serif" font-size="10" lengthAdjust="spacing" textLength="7" x="1098" y="255.8994">8</text><text fill="#000000" font-family="sans-serif" font-size="13" lengthAdjust="spacing" textLength="596" x="1109" y="261.1919">(start &gt; end) OR (start OR end != Date) OR (dataType == null) OR (data.t != dataForComp.t)</text><text fill="#000000" font-family="sans-serif" font-size="10" lengthAdjust="spacing" textLength="7" x="1098" y="273.54">9</text><text fill="#000000" font-family="sans-serif" font-size="13" lengthAdjust="spacing" textLength="567" x="1109" y="278.8325">[(analyseTypes contains COMPHEATMAP) AND (data != null) AND (dataForComp != null)]</text><text fill="#000000" font-family="sans-serif" font-size="13" lengthAdjust="spacing" textLength="417" x="1114" y="293.9653">OR [(analyseTypes !contains COMPHEATMAP) AND (data != null)]</text><path d="M1092.5,492 L1092.5,781.8281 L1337.5,781.8281 L1337.5,502 L1327.5,492 L1092.5,492 " fill="#FBFB77" filter="url(#fwa2pm6zv6h9i)" style="stroke:#A80036;stroke-width:1.0;"/><path d="M1327.5,492 L1327.5,502 L1337.5,502 L1327.5,492 " fill="#FBFB77" style="stroke:#A80036;stroke-width:1.0;"/><text fill="#000000" font-family="sans-serif" font-size="13" lengthAdjust="spacing" textLength="83" x="1098.5" y="509.0669">Bedingungen</text><text fill="#000000" font-family="sans-serif" font-size="13" lengthAdjust="spacing" textLength="147" x="1098.5" y="526.7075">analyseTypes contains</text><text fill="#000000" font-family="sans-serif" font-size="10" lengthAdjust="spacing" textLength="6" x="1249.5" y="521.415">x</text><text fill="#000000" font-family="sans-serif" font-size="10" lengthAdjust="spacing" textLength="7" x="1098.5" y="539.0557">1</text><text fill="#000000" font-family="sans-serif" font-size="13" lengthAdjust="spacing" textLength="53" x="1109.5" y="544.3481">R OR VT</text><text fill="#000000" font-family="sans-serif" font-size="10" lengthAdjust="spacing" textLength="6" x="1098.5" y="556.6963">2</text><text fill="#000000" font-family="sans-serif" font-size="13" lengthAdjust="spacing" textLength="117" x="1108.5" y="561.9888">V AND !R AND !VT</text><text fill="#000000" font-family="sans-serif" font-size="10" lengthAdjust="spacing" textLength="7" x="1098.5" y="574.3369">3</text><text fill="#000000" font-family="sans-serif" font-size="13" lengthAdjust="spacing" textLength="213" x="1109.5" y="579.6294">(H OR C) AND !V AND !R AND !VT</text><text fill="#000000" font-family="sans-serif" font-size="10" lengthAdjust="spacing" textLength="7" x="1098.5" y="591.9775">4</text><text fill="#000000" font-family="sans-serif" font-size="13" lengthAdjust="spacing" textLength="105" x="1109.5" y="597.27">!V AND (H OR C)</text><text fill="#000000" font-family="sans-serif" font-size="10" lengthAdjust="spacing" textLength="6" x="1098.5" y="609.6182">5</text><text fill="#000000" font-family="sans-serif" font-size="13" lengthAdjust="spacing" textLength="9" x="1108.5" y="614.9106">V</text><text fill="#000000" font-family="sans-serif" font-size="10" lengthAdjust="spacing" textLength="7" x="1098.5" y="627.2588">6</text><text fill="#000000" font-family="sans-serif" font-size="13" lengthAdjust="spacing" textLength="114" x="1109.5" y="632.5513">!V AND !H AND !C</text><text fill="#000000" font-family="sans-serif" font-size="10" lengthAdjust="spacing" textLength="6" x="1098.5" y="644.8994">7</text><text fill="#000000" font-family="sans-serif" font-size="13" lengthAdjust="spacing" textLength="45" x="1108.5" y="650.1919">H OR C</text><text fill="#000000" font-family="sans-serif" font-size="10" lengthAdjust="spacing" textLength="7" x="1098.5" y="662.54">8</text><text fill="#000000" font-family="sans-serif" font-size="13" lengthAdjust="spacing" textLength="64" x="1109.5" y="667.8325">!H AND !C</text><text fill="#000000" font-family="sans-serif" font-size="13" lengthAdjust="spacing" textLength="0" x="1102.5" y="682.9653"/><text fill="#000000" font-family="sans-serif" font-size="13" lengthAdjust="spacing" textLength="84" x="1098.5" y="698.0981">Abkürzungen</text><text fill="#000000" font-family="sans-serif" font-size="13" lengthAdjust="spacing" textLength="88" x="1098.5" y="713.231">H = HEATMAP</text><text fill="#000000" font-family="sans-serif" font-size="13" lengthAdjust="spacing" textLength="125" x="1098.5" y="728.3638">C = COMPHEATMAP</text><text fill="#000000" font-family="sans-serif" font-size="13" lengthAdjust="spacing" textLength="85" x="1098.5" y="743.4966">V = VERLAUF</text><text fill="#000000" font-family="sans-serif" font-size="13" lengthAdjust="spacing" textLength="135" x="1098.5" y="758.6294">R = RELFRQIMGAREA</text><text fill="#000000" font-family="sans-serif" font-size="13" lengthAdjust="spacing" textLength="135" x="1098.5" y="773.7622">VT = VIEWTIMEDISTR</text><ellipse cx="657" cy="16" fill="#000000" filter="url(#fwa2pm6zv6h9i)" rx="10" ry="10" style="stroke:none;stroke-width:1.0;"/><ellipse cx="939" cy="1490" filter="url(#fwa2pm6zv6h9i)" rx="10" ry="10" style="stroke:#000000;stroke-width:1.0;fill:none;"/><ellipse cx="939.5" cy="1490.5" fill="#000000" rx="6" ry="6" style="stroke:none;stroke-width:1.0;"/><!--MD5=[38d97ee4fedc43325a71df830540c6b3]
link i to GMN221044--><path d="M650.6524,130.136 C650.671,129.9045 650.69,129.673 650.7096,129.4415 C650.7487,128.9785 650.7898,128.5154 650.8329,128.0523 C650.9192,127.1261 651.0136,126.2 651.1165,125.2746 C651.3222,123.4236 651.5618,121.5751 651.8382,119.7338 C652.9436,112.3685 654.6363,105.1171 657.0963,98.2752 C662.0161,84.5913 670.0045,72.545 682.5,64.5 C749.762,21.19 963.719,50.59 1042.5,64.5 C1090.37,72.95 1140.14,86.99 1187.26,102.95 " fill="none" id="i-GMN221044" style="stroke:#A80036;stroke-width:1.0;stroke-dasharray:7.0,7.0;"/><!--MD5=[2be1dd545e3fd123e4d55f36a8c5095d]
link GMN221048 to a--><path d="M1103.63,491.93 C1085.02,475.97 1064.52,462.06 1042.5,452.5 C969.114,420.65 749.554,408.87 682.5,452.5 C646.1055,476.18 625.8467,520.2072 614.6311,559.3145 C613.2292,564.2029 611.9685,569.0144 610.8353,573.6997 C610.2687,576.0424 609.734,578.3535 609.2293,580.6269 C609.1663,580.911 609.1037,581.1946 609.0415,581.4776 " fill="none" id="GMN221048-a" style="stroke:#A80036;stroke-width:1.0;stroke-dasharray:7.0,7.0;"/><!--MD5=[9a30244793a2259a49eab240098fe44a]
link *start*i to iat--><path d="M802,212.6 C802,238.8 802,315.24 802,357.7 " fill="none" id="*start*i-to-iat" style="stroke:#A80036;stroke-width:1.0;"/><polygon fill="#A80036" points="802,362.71,806,353.71,802,357.71,798,353.71,802,362.71" style="stroke:#A80036;stroke-width:1.0;"/><!--MD5=[cb830a1d84e256cf4ed5a3316c57e6b1]
link iat to id--><path d="M802,413.13 C802,458.69 802,557.22 802,606.575 " fill="none" id="iat-to-id" style="stroke:#A80036;stroke-width:1.0;"/><polygon fill="#A80036" points="802,611.769,806,602.769,802,606.769,798,602.769,802,611.769" style="stroke:#A80036;stroke-width:1.0;"/><text fill="#000000" font-family="sans-serif" font-size="13" lengthAdjust="spacing" textLength="120" x="803" y="458.5747">setAnalyseTypes()</text><text fill="#000000" font-family="sans-serif" font-size="10" lengthAdjust="spacing" textLength="6" x="923" y="453.2822">2</text><!--MD5=[87d2d3add0397b147fda21618bd227e7]
link iat to iat--><path d="M882.692,378.02 C902.63,378.74 917.5,382.07 917.5,388 C917.5,393.42 905.076,396.67 887.713,397.73 " fill="none" id="iat-to-iat" style="stroke:#A80036;stroke-width:1.0;"/><polygon fill="#A80036" points="882.692,397.98,891.8749,401.54,887.6861,397.7382,891.488,393.5494,882.692,397.98" style="stroke:#A80036;stroke-width:1.0;"/><text fill="#000000" font-family="sans-serif" font-size="13" lengthAdjust="spacing" textLength="120" x="923.5" y="394.0747">setAnalyseTypes()</text><text fill="#000000" font-family="sans-serif" font-size="10" lengthAdjust="spacing" textLength="7" x="1043.5" y="388.7822">1</text><!--MD5=[4b83921e393c24d4ac3281a9bdc205f8]
link id to wfs--><path d="M792.104,662.253 C778.224,700.251 757.475,775.235 784,831 C790.292,844.229 801.012,855.528 812.409,864.675 " fill="none" id="id-to-wfs" style="stroke:#A80036;stroke-width:1.0;"/><polygon fill="#A80036" points="816.632,867.948,811.9673,859.2739,812.6795,864.8857,807.0676,865.5979,816.632,867.948" style="stroke:#A80036;stroke-width:1.0;"/><text fill="#000000" font-family="sans-serif" font-size="13" lengthAdjust="spacing" textLength="62" x="785" y="827.5747">getData()</text><text fill="#000000" font-family="sans-serif" font-size="10" lengthAdjust="spacing" textLength="7" x="847" y="822.2822">4</text><!--MD5=[89929945027c1254b5c9eb14f5301ee3]
reverse link id to wfs--><path d="M814.654,667.003 C828.73,700.982 850.595,759.342 859,812 C861.955,830.516 861.794,851.75 860.981,867.687 " fill="none" id="id-backto-wfs" style="stroke:#A80036;stroke-width:1.0;"/><polygon fill="#A80036" points="812.637,662.171,812.4145,672.0173,814.5639,666.7848,819.7965,668.9343,812.637,662.171" style="stroke:#A80036;stroke-width:1.0;"/><text fill="#000000" font-family="sans-serif" font-size="10" lengthAdjust="spacing" textLength="6" x="861" y="825.2822">5</text><!--MD5=[887d484d0c4a55d5d70403c9c2359815]
link id to id--><path d="M836.347,611.953 C876.809,593.612 924,601.961 924,637 C924,670.67 880.424,679.695 841.116,664.075 " fill="none" id="id-to-id" style="stroke:#A80036;stroke-width:1.0;"/><polygon fill="#A80036" points="836.347,662.047,843.0653,669.2487,840.9486,664.0028,846.1945,661.8861,836.347,662.047" style="stroke:#A80036;stroke-width:1.0;"/><text fill="#000000" font-family="sans-serif" font-size="13" lengthAdjust="spacing" textLength="62" x="930" y="643.0747">getData()</text><text fill="#000000" font-family="sans-serif" font-size="10" lengthAdjust="spacing" textLength="7" x="992" y="637.7822">3</text><!--MD5=[1ec0fecb88e1bb923c4c80d6b59b072c]
link wfs to idfc--><path d="M834.455,918.177 C825.579,928.581 816.612,941.459 812,955 C806.488,971.184 806.508,990.299 808.014,1005.785 " fill="none" id="wfs-to-idfc" style="stroke:#A80036;stroke-width:1.0;"/><polygon fill="#A80036" points="808.576,1010.889,811.5671,1001.5053,808.0289,1005.919,803.6152,1002.3808,808.576,1010.889" style="stroke:#A80036;stroke-width:1.0;"/><text fill="#000000" font-family="sans-serif" font-size="10" lengthAdjust="spacing" textLength="7" x="813" y="968.2822">6</text><!--MD5=[ccf9d63ff169e8b6d8407325eb649adb]
reverse link wfs to idfc--><path d="M849.458,923.248 C841.028,949.089 828.876,986.338 820.958,1010.606 " fill="none" id="wfs-backto-idfc" style="stroke:#A80036;stroke-width:1.0;"/><polygon fill="#A80036" points="851.092,918.239,844.4967,925.5535,849.5405,922.9922,852.1018,928.036,851.092,918.239" style="stroke:#A80036;stroke-width:1.0;"/><text fill="#000000" font-family="sans-serif" font-size="13" lengthAdjust="spacing" textLength="62" x="840" y="970.5747">getData()</text><text fill="#000000" font-family="sans-serif" font-size="10" lengthAdjust="spacing" textLength="6" x="902" y="965.2822">7</text><!--MD5=[6fc16e54ffcd01d7fa75bb7a173e0446]
link idfc to idfc--><path d="M945.297,1023.972 C965.932,1025.77 980,1029.779 980,1036 C980,1041.686 968.246,1045.525 950.467,1047.516 " fill="none" id="idfc-to-idfc" style="stroke:#A80036;stroke-width:1.0;"/><polygon fill="#A80036" points="945.297,1048.028,954.6483,1051.1187,950.2725,1047.5337,953.8575,1043.1579,945.297,1048.028" style="stroke:#A80036;stroke-width:1.0;"/><text fill="#000000" font-family="sans-serif" font-size="13" lengthAdjust="spacing" textLength="62" x="986" y="1042.0747">getData()</text><text fill="#000000" font-family="sans-serif" font-size="10" lengthAdjust="spacing" textLength="7" x="1048" y="1036.7822">8</text><!--MD5=[88f8dc45122f9216745b8aa7a7fa5b93]
reverse link a to wfs--><path d="M609.0304,699.8084 C609.1511,700.4029 609.2736,700.9999 609.3979,701.5993 C609.6466,702.7979 609.9024,704.0058 610.1658,705.2223 C610.6924,707.6552 611.2489,710.1224 611.8369,712.6181 C621.244,752.55 638.706,799.7915 671,831 C687.779,847.215 708.909,859.12 730.894,867.86 " fill="none" id="a-backto-wfs" style="stroke:#A80036;stroke-width:1.0;"/><polygon fill="#A80036" points="609.0304,699.8084,606.9011,709.4243,610.0252,704.7084,614.7412,707.8325,609.0304,699.8084" style="stroke:#A80036;stroke-width:1.0;"/><text fill="#000000" font-family="sans-serif" font-size="13" lengthAdjust="spacing" textLength="91" x="672" y="827.5747">analyseData()</text><text fill="#000000" font-family="sans-serif" font-size="10" lengthAdjust="spacing" textLength="7" x="763" y="822.2822">9</text><!--MD5=[30aa13a02f41e45672b7a22adfbef821]
link *start*a to d--><path d="M308,647.04 C308,680.153 308,795.991 308,855.741 " fill="none" id="*start*a-to-d" style="stroke:#A80036;stroke-width:1.0;"/><polygon fill="#A80036" points="308,860.994,312,851.994,308,855.994,304,851.994,308,860.994" style="stroke:#A80036;stroke-width:1.0;"/><text fill="#000000" font-family="sans-serif" font-size="10" lengthAdjust="spacing" textLength="7" x="309" y="825.2822">1</text><!--MD5=[f3348e18c7e3719a81a5a0d8086433d8]
link *start*a to v--><path d="M302.362,645.626 C282.347,673.096 214.132,770.173 181,861 C163.092,910.092 154.853,970.783 151.341,1005.974 " fill="none" id="*start*a-to-v" style="stroke:#A80036;stroke-width:1.0;"/><polygon fill="#A80036" points="150.857,1010.976,155.7049,1002.4029,151.3384,1005.9992,147.7421,1001.6327,150.857,1010.976" style="stroke:#A80036;stroke-width:1.0;"/><text fill="#000000" font-family="sans-serif" font-size="10" lengthAdjust="spacing" textLength="6" x="182" y="896.7822">2</text><!--MD5=[db95207bf28f543d414b343538457f44]
link *start*a to h--><path d="M306.508,647.163 C303.085,671.107 296.784,736.818 322,782 C350.288,832.686 392.823,813.371 426,861 C455.16,902.862 468.623,961.184 474.588,998.52 " fill="none" id="*start*a-to-h" style="stroke:#A80036;stroke-width:1.0;"/><polygon fill="#A80036" points="475.415,1003.871,477.995,994.3661,474.6521,998.9295,470.0887,995.5867,475.415,1003.871" style="stroke:#A80036;stroke-width:1.0;"/><text fill="#000000" font-family="sans-serif" font-size="10" lengthAdjust="spacing" textLength="7" x="458" y="896.7822">3</text><!--MD5=[dda5425b0f96e1211a8c645ac6fc55bf]
link d to v--><path d="M272.713,925.292 C244.983,949.883 206.73,983.805 180.131,1007.393 " fill="none" id="d-to-v" style="stroke:#A80036;stroke-width:1.0;"/><polygon fill="#A80036" points="176.294,1010.796,185.6808,1007.8146,180.034,1007.4775,180.3711,1001.8307,176.294,1010.796" style="stroke:#A80036;stroke-width:1.0;"/><text fill="#000000" font-family="sans-serif" font-size="10" lengthAdjust="spacing" textLength="6" x="240" y="968.2822">5</text><!--MD5=[4e8e5b39f36cd5f5306fd02639c5456b]
link d to h--><path d="M345.95,925.292 C372.96,947.563 409.251,977.488 437.109,1000.458 " fill="none" id="d-to-h" style="stroke:#A80036;stroke-width:1.0;"/><polygon fill="#A80036" points="441.156,1003.795,436.7563,994.9835,437.2981,1000.6144,431.6672,1001.1562,441.156,1003.795" style="stroke:#A80036;stroke-width:1.0;"/><text fill="#000000" font-family="sans-serif" font-size="10" lengthAdjust="spacing" textLength="7" x="405" y="968.2822">4</text><!--MD5=[d3fc0927bae555c91b20f5bb7aa5e9fb]
link v to h--><path d="M183.706,1010.933 C226.344,983.286 301.027,945.06 366,964 C391.436,971.415 416.607,986.484 436.713,1000.929 " fill="none" id="v-to-h" style="stroke:#A80036;stroke-width:1.0;"/><polygon fill="#A80036" points="440.925,1003.999,436.0075,995.4657,436.8842,1001.0541,431.2957,1001.9309,440.925,1003.999" style="stroke:#A80036;stroke-width:1.0;"/><text fill="#000000" font-family="sans-serif" font-size="10" lengthAdjust="spacing" textLength="6" x="359" y="968.2822">7</text><!--MD5=[7bd4d9c7e1f9ffd42237630f17acff01]
link d to af--><path d="M314.388,925.264 C327.163,987.785 355.694,1127.411 368.076,1188.01 " fill="none" id="d-to-af" style="stroke:#A80036;stroke-width:1.0;"/><polygon fill="#A80036" points="369.082,1192.93,371.201,1183.3118,368.0819,1188.031,363.3627,1184.9119,369.082,1192.93" style="stroke:#A80036;stroke-width:1.0;"/><text fill="#000000" font-family="sans-serif" font-size="10" lengthAdjust="spacing" textLength="7" x="351" y="1039.7822">6</text><!--MD5=[656d828b4ea4b13be3632561c7451102]
link v to af--><path d="M179.345,1061.276 C221.062,1094.649 295.918,1154.534 339.645,1189.516 " fill="none" id="v-to-af" style="stroke:#A80036;stroke-width:1.0;"/><polygon fill="#A80036" points="343.778,1192.822,339.2501,1184.0757,339.8741,1189.698,334.2517,1190.3219,343.778,1192.822" style="stroke:#A80036;stroke-width:1.0;"/><text fill="#000000" font-family="sans-serif" font-size="10" lengthAdjust="spacing" textLength="7" x="256" y="1119.2822">8</text><!--MD5=[d70b158774ef3cc2b413a61a9daf893b]
link h to af--><path d="M460.71,1068.354 C440.998,1102.147 409.887,1155.479 390.781,1188.233 " fill="none" id="h-to-af" style="stroke:#A80036;stroke-width:1.0;"/><polygon fill="#A80036" points="388.052,1192.911,396.0428,1187.1536,390.572,1188.5925,389.1331,1183.1217,388.052,1192.911" style="stroke:#A80036;stroke-width:1.0;"/><!--MD5=[192a3520ab9f1e6cb113a0aa4651a99b]
link af to o--><path d="M462.161,1218 C494.571,1218 526.9808,1218 559.3904,1218 C575.5952,1218 591.8,1218 608.0047,1218 C616.1071,1218 624.2095,1218 632.3119,1218 C636.3631,1218 640.4142,1218 644.4654,1218 C645.4782,1218 646.491,1218 647.5038,1218 C647.757,1218 648.0102,1218 648.2634,1218 " fill="none" id="af-to-o" style="stroke:#A80036;stroke-width:1.0;"/><polygon fill="#A80036" points="648.2634,1218,639.2634,1214,643.2634,1218,639.2634,1222,648.2634,1218" style="stroke:#A80036;stroke-width:1.0;"/><!--MD5=[1cf5be5e68cceb6ca1843e322d1e9953]
link *start*o to an--><path d="M736.752,1227.945 C743.074,1248.491 758.864,1299.809 768.972,1332.659 " fill="none" id="*start*o-to-an" style="stroke:#A80036;stroke-width:1.0;"/><polygon fill="#A80036" points="770.543,1337.765,771.7173,1327.9864,769.0716,1332.9864,764.0716,1330.3407,770.543,1337.765" style="stroke:#A80036;stroke-width:1.0;"/><text fill="#000000" font-family="sans-serif" font-size="13" lengthAdjust="spacing" textLength="145" x="763" y="1304.0669">displayAnalyzedData()</text><!--MD5=[fead1622040839da3c483f19fd2a788f]
link an to e--><path d="M757.672,1388.016 C748.724,1401.486 741.207,1418.793 746,1435 C748.646,1443.949 753.292,1452.807 758.351,1460.681 " fill="none" id="an-to-e" style="stroke:#A80036;stroke-width:1.0;"/><polygon fill="#A80036" points="761.194,1464.9486,759.5322,1455.241,758.4215,1460.7877,752.8747,1459.677,761.194,1464.9486" style="stroke:#A80036;stroke-width:1.0;"/><text fill="#000000" font-family="sans-serif" font-size="13" lengthAdjust="spacing" textLength="52" x="747" y="1431.0669">export()</text><!--MD5=[347b3168ac464bce199f9061a7d84500]
reverse link an to e--><path d="M794.854,1392.935 C798.617,1400.81 802.064,1409.515 804,1418 C807.632,1433.917 802.117,1451.365 795.579,1464.9815 " fill="none" id="an-backto-e" style="stroke:#A80036;stroke-width:1.0;"/><polygon fill="#A80036" points="792.481,1388.148,792.893,1397.9882,794.7011,1392.6281,800.0612,1394.4362,792.481,1388.148" style="stroke:#A80036;stroke-width:1.0;"/><!--MD5=[5df0f3068207e4bcefa1ee5a2a165869]
link *start to i--><path d="M657,26.15 C657,44.475 657,87.24 657,125.9475 C657,127.1571 657,128.3628 657,129.5636 C657,129.8638 657,130.1637 657,130.4633 " fill="none" id="*start-to-i" style="stroke:#A80036;stroke-width:1.0;"/><polygon fill="#A80036" points="657,130.4633,661,121.4633,657,125.4633,653,121.4633,657,130.4633" style="stroke:#A80036;stroke-width:1.0;"/><text fill="#000000" font-family="sans-serif" font-size="13" lengthAdjust="spacing" textLength="176" x="658" y="69.0669">start Client (showClientGUI)</text><!--MD5=[0726c0ba600b78a6dafcf4d1235b1040]
link an to *end--><path d="M809.042,1388.101 C845,1416.018 902.452,1460.624 927.118,1479.7747 " fill="none" id="an-to-*end" style="stroke:#A80036;stroke-width:1.0;"/><polygon fill="#A80036" points="931.329,1483.0446,926.6723,1474.3662,927.3793,1479.9787,921.7668,1480.6857,931.329,1483.0446" style="stroke:#A80036;stroke-width:1.0;"/><text fill="#000000" font-family="sans-serif" font-size="13" lengthAdjust="spacing" textLength="56" x="869" y="1431.0669">Beenden</text><!--MD5=[bf1fd4f587c920c2b55901352571b0df]
@startuml
note right of i
    Bedingungen
    <sup>1</sup> analysTypes.size == 0
    <sup>2</sup> analyseTypes.size != 0
    <sup>3</sup> (start > end) OR (start OR end != Date) OR (dataType == null)
    <sup>4</sup> (start < end) AND (start AND end = Date) AND (dataType != null)
    <sup>5</sup> data == null
    <sup>6</sup> (data != null) AND (dataForComp == null) AND (analyseTypes contains COMPHEATMAP)
    <sup>7</sup> (start < end) AND (start AND end = Date) AND (dataType != null) AND (data.t == dataForComp.t)
    <sup>8</sup> (start > end) OR (start OR end != Date) OR (dataType == null) OR (data.t != dataForComp.t)
    <sup>9</sup> [(analyseTypes contains COMPHEATMAP) AND (data != null) AND (dataForComp != null)] 
        OR [(analyseTypes !contains COMPHEATMAP) AND (data != null)]
end note

note left of a
    Bedingungen
    analyseTypes contains <sup>x</sup>
    <sup>1</sup> R OR VT
    <sup>2</sup> V AND !R AND !VT
    <sup>3</sup> (H OR C) AND !V AND !R AND !VT
    <sup>4</sup> !V AND (H OR C)
    <sup>5</sup> V
    <sup>6</sup> !V AND !H AND !C
    <sup>7</sup> H OR C
    <sup>8</sup> !H AND !C

    Abkürzungen
    H = HEATMAP
    C = COMPHEATMAP
    V = VERLAUF
    R = RELFRQIMGAREA
    VT = VIEWTIMEDISTR
end note

' Input
state "Input" as i {
    ' States
    state "InputAnalyseTypes" as iat: Auswahl Analyse Typen
    state "InputData" as id: Eingabe benötigter Daten
    state "WaitForSpeichermedium" as wfs: Benötigte Daten werden vom Speichermedium besorgt
    state "InputDataForComp" as idfc: Eingabe benötigter Daten zum Vergleich

    ' Transition
    [*] -d-> iat
    iat -d-> id: setAnalyseTypes()<sup>2</sup>
    iat -r-> iat: setAnalyseTypes()<sup>1</sup>
    id -d-> wfs: getData()<sup>4</sup>
    id -> id: getData()<sup>3</sup>
    wfs -u-> id: <sup>5</sup>
    wfs -d-> idfc: <sup>6</sup>
    idfc -u-> wfs: getData()<sup>7</sup>
    idfc -> idfc: getData()<sup>8</sup>
    wfs -u-> a: analyseData()<sup>9</sup>
}

state "Analyse" as a {
    ' States
    state "Diagramm" as d: Analyse und Erstellung der\nausgewählten Diagrammtypen
    state "Verlauf" as v: Analyse und Erstellung des Verlaufs
    state "Heatmap" as h: Analyse und Erstellung der\nausgewählten Heatmaptypen
    state "AnalyseFinished" as af: Rückgabe der Ergebnisse

    ' Transition
    [*] -d-> d: <sup>1</sup>
    [*] -d-> v: <sup>2</sup>
    [*] -d-> h: <sup>3</sup>
    d -d-> v: <sup>5</sup>
    d -d-> h: <sup>4</sup>
    v -> h: <sup>7</sup>
    d -d-> af: <sup>6</sup>
    v -d-> af: <sup>8</sup>
    h -d-> af
    af -r-> o
}

state "Output" as o {
    ' States
    state "Anzeige" as an: Ausgabe analysierter Daten
    state "Export" as e: Export der analysierten Daten

    ' Transition
    [*] -d-> an: displayAnalyzedData()
    an -> e: export()
    e -u-> an
}

' Transition
[*] -d-> i: start Client (showClientGUI)
an -d-> [*]: Beenden
@enduml

@startuml
note right of i
    Bedingungen
    <sup>1</sup> analysTypes.size == 0
    <sup>2</sup> analyseTypes.size != 0
    <sup>3</sup> (start > end) OR (start OR end != Date) OR (dataType == null)
    <sup>4</sup> (start < end) AND (start AND end = Date) AND (dataType != null)
    <sup>5</sup> data == null
    <sup>6</sup> (data != null) AND (dataForComp == null) AND (analyseTypes contains COMPHEATMAP)
    <sup>7</sup> (start < end) AND (start AND end = Date) AND (dataType != null) AND (data.t == dataForComp.t)
    <sup>8</sup> (start > end) OR (start OR end != Date) OR (dataType == null) OR (data.t != dataForComp.t)
    <sup>9</sup> [(analyseTypes contains COMPHEATMAP) AND (data != null) AND (dataForComp != null)] 
        OR [(analyseTypes !contains COMPHEATMAP) AND (data != null)]
end note

note left of a
    Bedingungen
    analyseTypes contains <sup>x</sup>
    <sup>1</sup> R OR VT
    <sup>2</sup> V AND !R AND !VT
    <sup>3</sup> (H OR C) AND !V AND !R AND !VT
    <sup>4</sup> !V AND (H OR C)
    <sup>5</sup> V
    <sup>6</sup> !V AND !H AND !C
    <sup>7</sup> H OR C
    <sup>8</sup> !H AND !C

    Abkürzungen
    H = HEATMAP
    C = COMPHEATMAP
    V = VERLAUF
    R = RELFRQIMGAREA
    VT = VIEWTIMEDISTR
end note

state "Input" as i {
    state "InputAnalyseTypes" as iat: Auswahl Analyse Typen
    state "InputData" as id: Eingabe benötigter Daten
    state "WaitForSpeichermedium" as wfs: Benötigte Daten werden vom Speichermedium besorgt
    state "InputDataForComp" as idfc: Eingabe benötigter Daten zum Vergleich

    [*] -d-> iat
    iat -d-> id: setAnalyseTypes()<sup>2</sup>
    iat -r-> iat: setAnalyseTypes()<sup>1</sup>
    id -d-> wfs: getData()<sup>4</sup>
    id -> id: getData()<sup>3</sup>
    wfs -u-> id: <sup>5</sup>
    wfs -d-> idfc: <sup>6</sup>
    idfc -u-> wfs: getData()<sup>7</sup>
    idfc -> idfc: getData()<sup>8</sup>
    wfs -u-> a: analyseData()<sup>9</sup>
}

state "Analyse" as a {
    state "Diagramm" as d: Analyse und Erstellung der\nausgewählten Diagrammtypen
    state "Verlauf" as v: Analyse und Erstellung des Verlaufs
    state "Heatmap" as h: Analyse und Erstellung der\nausgewählten Heatmaptypen
    state "AnalyseFinished" as af: Rückgabe der Ergebnisse

    [*] -d-> d: <sup>1</sup>
    [*] -d-> v: <sup>2</sup>
    [*] -d-> h: <sup>3</sup>
    d -d-> v: <sup>5</sup>
    d -d-> h: <sup>4</sup>
    v -> h: <sup>7</sup>
    d -d-> af: <sup>6</sup>
    v -d-> af: <sup>8</sup>
    h -d-> af
    af -r-> o
}

state "Output" as o {
    state "Anzeige" as an: Ausgabe analysierter Daten
    state "Export" as e: Export der analysierten Daten

    [*] -d-> an: displayAnalyzedData()
    an -> e: export()
    e -u-> an
}

[*] -d-> i: start Client (showClientGUI)
an -d-> [*]: Beenden
@enduml

PlantUML version 1.2021.14(Fri Nov 12 16:46:50 UTC 2021)
(GPL source distribution)
Java Runtime: Java(TM) SE Runtime Environment
JVM: Java HotSpot(TM) 64-Bit Server VM
Default Encoding: UTF-8
Language: en
Country: US
--></g></svg>