<?xml version="1.0" encoding="UTF-8" standalone="no"?><svg xmlns="http://www.w3.org/2000/svg" xmlns:xlink="http://www.w3.org/1999/xlink" contentScriptType="application/ecmascript" contentStyleType="text/css" height="612px" preserveAspectRatio="none" style="width:741px;height:612px;background:#FFFFFF;" version="1.1" viewBox="0 0 741 612" width="741px" zoomAndPan="magnify"><defs><filter height="300%" id="fc8asgmc48ezb" width="300%" x="-1" y="-1"><feGaussianBlur result="blurOut" stdDeviation="2.0"/><feColorMatrix in="blurOut" result="blurOut2" type="matrix" values="0 0 0 0 0 0 0 0 0 0 0 0 0 0 0 0 0 0 .4 0"/><feOffset dx="4.0" dy="4.0" in="blurOut2" result="blurOut3"/><feBlend in="SourceGraphic" in2="blurOut3" mode="normal"/></filter></defs><g><!--MD5=[4bae57c2bdf656930f084292efda1199]
cluster State3--><rect fill="#FEFECE" filter="url(#fc8asgmc48ezb)" height="345.5" rx="12.5" ry="12.5" style="stroke:#A80036;stroke-width:1.5;" width="416" x="7" y="255"/><rect fill="#FFFFFF" height="313.2031" rx="12.5" ry="12.5" style="stroke:#FFFFFF;stroke-width:1.0;" width="410" x="10" y="284.2969"/><line style="stroke:#A80036;stroke-width:1.5;" x1="7" x2="423" y1="281.2969" y2="281.2969"/><text fill="#000000" font-family="sans-serif" font-size="14" lengthAdjust="spacing" textLength="49" x="190.5" y="271.9951">State3</text><g id="State3.long1"><rect fill="#FEFECE" filter="url(#fc8asgmc48ezb)" height="50.2656" rx="12.5" ry="12.5" style="stroke:#A80036;stroke-width:1.5;" width="199" x="31.5" y="399.5"/><line style="stroke:#A80036;stroke-width:1.5;" x1="31.5" x2="230.5" y1="425.7969" y2="425.7969"/><text fill="#000000" font-family="sans-serif" font-size="14" lengthAdjust="spacing" textLength="179" x="41.5" y="417.4951">Accumulate Enough Data</text><text fill="#000000" font-family="sans-serif" font-size="12" lengthAdjust="spacing" textLength="60" x="36.5" y="441.9355">Just a test</text></g><ellipse cx="256" cy="309" fill="#000000" filter="url(#fc8asgmc48ezb)" rx="10" ry="10" style="stroke:none;stroke-width:1.0;"/><g id="State3.ProcessData"><rect fill="#FEFECE" filter="url(#fc8asgmc48ezb)" height="50" rx="12.5" ry="12.5" style="stroke:#A80036;stroke-width:1.5;" width="109" x="76.5" y="526.5"/><line style="stroke:#A80036;stroke-width:1.5;" x1="76.5" x2="185.5" y1="552.7969" y2="552.7969"/><text fill="#000000" font-family="sans-serif" font-size="14" lengthAdjust="spacing" textLength="89" x="86.5" y="544.4951">ProcessData</text></g><ellipse cx="124" cy="309" fill="#FEFECE" filter="url(#fc8asgmc48ezb)" rx="11" ry="11" style="stroke:#A80036;stroke-width:1.5;"/><text fill="#000000" font-family="sans-serif" font-size="14" lengthAdjust="spacing" textLength="10" x="119" y="313.8467">H</text><ellipse cx="200" cy="309" fill="#FEFECE" filter="url(#fc8asgmc48ezb)" rx="11" ry="11" style="stroke:#A80036;stroke-width:1.5;"/><text fill="#000000" font-family="sans-serif" font-size="14" lengthAdjust="spacing" textLength="17" x="191.5" y="313.8467">H*</text><ellipse cx="557" cy="32" fill="#000000" filter="url(#fc8asgmc48ezb)" rx="10" ry="10" style="stroke:none;stroke-width:1.0;"/><g id="State1"><rect fill="#FEFECE" filter="url(#fc8asgmc48ezb)" height="50" rx="12.5" ry="12.5" style="stroke:#A80036;stroke-width:1.5;" width="69" x="602.5" y="7"/><line style="stroke:#A80036;stroke-width:1.5;" x1="602.5" x2="671.5" y1="33.2969" y2="33.2969"/><text fill="#000000" font-family="sans-serif" font-size="14" lengthAdjust="spacing" textLength="49" x="612.5" y="24.9951">State1</text></g><g id="State2"><rect fill="#FEFECE" filter="url(#fc8asgmc48ezb)" height="50" rx="12.5" ry="12.5" style="stroke:#A80036;stroke-width:1.5;" width="68" x="354" y="134"/><line style="stroke:#A80036;stroke-width:1.5;" x1="354" x2="422" y1="160.2969" y2="160.2969"/><text fill="#000000" font-family="sans-serif" font-size="14" lengthAdjust="spacing" textLength="48" x="364" y="151.9951">State2</text></g><ellipse cx="567" cy="424.5" filter="url(#fc8asgmc48ezb)" rx="10" ry="10" style="stroke:#000000;stroke-width:1.0;fill:none;"/><ellipse cx="567.5" cy="425" fill="#000000" rx="6" ry="6" style="stroke:none;stroke-width:1.0;"/><!--MD5=[60533a5dc91355c93bf187ba4549d745]
link *start to State1--><path d="M567,32 C577.013,32 587.025,32 597.038,32 " fill="none" id="*start-to-State1" style="stroke:#A80036;stroke-width:1.0;"/><polygon fill="#A80036" points="602.273,32,593.273,28,597.273,32,593.273,36,602.273,32" style="stroke:#A80036;stroke-width:1.0;"/><!--MD5=[dc702cd49c4e27e6abb2620dc4bb28d8]
link State1 to State2--><path d="M602.378,50.381 C556.292,73.516 475.025,114.313 426.882,138.481 " fill="none" id="State1-to-State2" style="stroke:#A80036;stroke-width:1.0;"/><polygon fill="#A80036" points="422.328,140.767,432.166,140.3047,426.7967,138.5241,428.5773,133.1548,422.328,140.767" style="stroke:#A80036;stroke-width:1.0;"/><text fill="#000000" font-family="sans-serif" font-size="13" lengthAdjust="spacing" textLength="70" x="529" y="100.0669">Succeeded</text><!--MD5=[ca1046a354e184ac9d197a073cc82934]
link State1 to *end--><path d="M645.364,57.045 C661.559,106.696 694.315,224.143 679,322.5 C675.627,344.166 677.887,352.532 664,369.5 C641.943,396.45 602.7,412.258 581.519,419.227 " fill="none" id="State1-to-*end" style="stroke:#A80036;stroke-width:1.0;"/><polygon fill="#A80036" points="576.545,420.809,586.3341,421.8922,581.3097,419.2932,583.9088,414.2687,576.545,420.809" style="stroke:#A80036;stroke-width:1.0;"/><text fill="#000000" font-family="sans-serif" font-size="13" lengthAdjust="spacing" textLength="51" x="682" y="227.0669">Aborted</text><!--MD5=[428d136baf6462f9e03ffacdcb621855]
link State2 to State3--><path d="M391.925,184.029 C393.4,197.955 393.9,215.705 390,231 C388.8336,235.5741 387.3339,240.1696 385.5985,244.7141 C384.7309,246.9863 383.8044,249.2459 382.8312,251.4836 C382.3446,252.6025 381.8463,253.7159 381.3379,254.8228 " fill="none" id="State2-to-State3" style="stroke:#A80036;stroke-width:1.0;"/><polygon fill="#A80036" points="381.3379,254.8228,388.7293,248.3138,383.4248,250.2792,381.4595,244.9747,381.3379,254.8228" style="stroke:#A80036;stroke-width:1.0;"/><text fill="#000000" font-family="sans-serif" font-size="13" lengthAdjust="spacing" textLength="70" x="394" y="227.0669">Succeeded</text><!--MD5=[e02c7723171335da44198c95537c2494]
link State3 to State2--><path d="M342.1926,254.8816 C342.1772,254.7108 342.1618,254.5401 342.1464,254.3695 C342.1158,254.0284 342.0853,253.6876 342.0551,253.3474 C341.9947,252.667 341.9353,251.9885 341.8768,251.3127 C341.7599,249.961 341.6472,248.6197 341.5392,247.2934 C341.1075,241.9881 340.753,236.9227 340.5226,232.3927 C340.0616,223.3327 340.0965,216.414 341,214 C344.492,204.67 350.405,195.888 356.88,188.226 " fill="none" id="State3-to-State2" style="stroke:#A80036;stroke-width:1.0;"/><polygon fill="#A80036" points="360.524,184.089,351.5744,188.2005,357.2199,187.8417,357.5787,193.4872,360.524,184.089" style="stroke:#A80036;stroke-width:1.0;"/><text fill="#000000" font-family="sans-serif" font-size="13" lengthAdjust="spacing" textLength="39" x="342" y="227.0669">Pause</text><!--MD5=[37ebb224bae70bf8df0e6bab9d19d55b]
link State2 to *end--><path d="M422.214,173.81 C479.727,199.187 593.734,259.33 637,352.5 C650.953,382.547 604.92,407.35 580.793,417.957 " fill="none" id="State2-to-*end" style="stroke:#A80036;stroke-width:1.0;"/><polygon fill="#A80036" points="576.007,420.001,585.8548,420.143,580.6049,418.0364,582.7115,412.7864,576.007,420.001" style="stroke:#A80036;stroke-width:1.0;"/><text fill="#000000" font-family="sans-serif" font-size="13" lengthAdjust="spacing" textLength="51" x="619" y="313.5669">Aborted</text><!--MD5=[cbbb8dc237c8185397a1ccf2b0af3080]
link *start*State3 to long1--><path d="M247.767,315.336 C236.19,322.99 214.656,337.792 198,352.5 C182.904,365.831 167.387,382.083 155.092,395.673 " fill="none" id="*start*State3-to-long1" style="stroke:#A80036;stroke-width:1.0;"/><polygon fill="#A80036" points="151.713,399.431,160.7053,395.4138,155.0564,395.7133,154.7569,390.0643,151.713,399.431" style="stroke:#A80036;stroke-width:1.0;"/><!--MD5=[cd06514976a2197e7c66cb27013135c0]
link long1 to long1--><path d="M230.714,413.318 C250.985,414.536 265.5,418.264 265.5,424.5 C265.5,430.2 253.372,433.804 235.807,435.312 " fill="none" id="long1-to-long1" style="stroke:#A80036;stroke-width:1.0;"/><polygon fill="#A80036" points="230.714,435.682,239.9796,439.021,235.7009,435.3206,239.4013,431.0419,230.714,435.682" style="stroke:#A80036;stroke-width:1.0;"/><text fill="#000000" font-family="sans-serif" font-size="13" lengthAdjust="spacing" textLength="63" x="271.5" y="429.0669">New Data</text><!--MD5=[02e543224095a440a3409c6f97e15d1f]
link long1 to ProcessData--><path d="M131,449.601 C131,470.093 131,499.576 131,521.384 " fill="none" id="long1-to-ProcessData" style="stroke:#A80036;stroke-width:1.0;"/><polygon fill="#A80036" points="131,526.4727,135,517.4727,131,521.4727,127,517.4727,131,526.4727" style="stroke:#A80036;stroke-width:1.0;"/><text fill="#000000" font-family="sans-serif" font-size="13" lengthAdjust="spacing" textLength="83" x="132" y="492.5669">Enough Data</text><!--MD5=[32b99cb09ddb2e34cecdc56031c89a30]
link State2 to *historical*State3--><path d="M353.839,159.398 C306.384,160.354 220.246,168.807 166,214 C141.439,234.462 130.697,272.211 126.453,293.107 " fill="none" id="State2-to-*historical*State3" style="stroke:#A80036;stroke-width:1.0;"/><polygon fill="#A80036" points="125.509,298.036,131.1299,289.9487,126.4492,293.1252,123.2726,288.4444,125.509,298.036" style="stroke:#A80036;stroke-width:1.0;"/><text fill="#000000" font-family="sans-serif" font-size="13" lengthAdjust="spacing" textLength="53" x="167" y="227.0669">Resume</text><!--MD5=[d4b971cd4def42d8ce43dd558f28840e]
link State2 to *deephistory*State3--><path d="M353.771,166.36 C322.476,173.575 276.28,187.889 244,214 C218.945,234.266 207.423,272.093 202.753,293.054 " fill="none" id="State2-to-*deephistory*State3" style="stroke:#A80036;stroke-width:1.0;"/><polygon fill="#A80036" points="201.71,297.998,207.4826,290.0182,202.7427,293.1058,199.6551,288.3659,201.71,297.998" style="stroke:#A80036;stroke-width:1.0;"/><text fill="#000000" font-family="sans-serif" font-size="13" lengthAdjust="spacing" textLength="87" x="245" y="227.0669">DeepResume</text><!--MD5=[8ec7ebc35d95dc19dc51ed7d52bc84fe]
link State3 to State3--><path d="M406,308.698 C417.876,296.001 441.082,296.102 441.082,309 C441.082,321.898 417.876,321.999 406,309.302 " fill="none" id="State3-to-State3" style="stroke:#A80036;stroke-width:1.0;"/><polygon fill="#A80036" points="406,309.302,409.2266,318.6073,409.4155,312.9536,415.0692,313.1425,406,309.302" style="stroke:#A80036;stroke-width:1.0;"/><text fill="#000000" font-family="sans-serif" font-size="13" lengthAdjust="spacing" textLength="37" x="447.082" y="313.5669">Failed</text><!--MD5=[0ea1e5ee684c4e9667d1229adf70964c]
link State3 to *end--><path d="M423.3741,345.6397 C423.6823,345.7927 423.9903,345.9458 424.2981,346.0989 C424.9136,346.405 425.5281,346.7111 426.1413,347.0172 C427.3678,347.6293 428.5893,348.2411 429.8042,348.852 C432.2339,350.0738 434.637,351.2916 437,352.5 C480.393,374.689 530.785,402.937 554.031,416.112 " fill="none" id="State3-to-*end" style="stroke:#A80036;stroke-width:1.0;"/><polygon fill="#A80036" points="558.568,418.687,552.7159,410.7653,554.2198,416.2186,548.7665,417.7225,558.568,418.687" style="stroke:#A80036;stroke-width:1.0;"/><text fill="#000000" font-family="sans-serif" font-size="13" lengthAdjust="spacing" textLength="158" x="471" y="365.5669">Succeeded / Save Result</text><!--MD5=[0ea1e5ee684c4e9667d1229adf70964c]
link State3 to *end--><path d="M423.1247,397.6291 C423.3792,397.7366 423.6339,397.8436 423.8887,397.9501 C424.9081,398.3764 425.9304,398.7956 426.9551,399.2078 C429.0046,400.0323 431.0641,400.8289 433.1309,401.5986 C437.2646,403.138 441.4277,404.5697 445.5988,405.9014 C453.941,408.5647 462.3153,410.8275 470.5509,412.7496 C503.493,420.4383 534.2145,422.677 551.778,423.3 " fill="none" id="State3-to-*end-1" style="stroke:#A80036;stroke-width:1.0;"/><polygon fill="#A80036" points="556.951,423.45,548.0702,419.192,551.9531,423.3057,547.8393,427.1887,556.951,423.45" style="stroke:#A80036;stroke-width:1.0;"/><text fill="#000000" font-family="sans-serif" font-size="13" lengthAdjust="spacing" textLength="51" x="377" y="365.5669">Aborted</text><!--MD5=[9f31525b447b1a56f1e24ae05b15dceb]
@startuml
[*] -> State1
State1 - -> State2 : Succeeded
State1 - -> [*] : Aborted
State2 - -> State3 : Succeeded
State2 - -> [*] : Aborted
state State3 {
  state "Accumulate Enough Data" as long1
  long1 : Just a test
  [*] - -> long1
  long1 - -> long1 : New Data
  long1 - -> ProcessData : Enough Data
  State2 - -> [H]: Resume
}
State3 - -> State2 : Pause
State2 - -> State3[H*]: DeepResume
State3 - -> State3 : Failed
State3 - -> [*] : Succeeded / Save Result
State3 - -> [*] : Aborted
@enduml

PlantUML version 1.2021.14beta6(Unknown compile time)
(GPL source distribution)
Java Runtime: Java(TM) SE Runtime Environment
JVM: Java HotSpot(TM) 64-Bit Server VM
Default Encoding: UTF-8
Language: en
Country: US
--></g></svg>