<?xml version="1.0" encoding="UTF-8" standalone="no"?><svg xmlns="http://www.w3.org/2000/svg" xmlns:xlink="http://www.w3.org/1999/xlink" contentScriptType="application/ecmascript" contentStyleType="text/css" height="191px" preserveAspectRatio="none" style="width:469px;height:191px;background:#FFFFFF;" version="1.1" viewBox="0 0 469 191" width="469px" zoomAndPan="magnify"><defs><filter height="300%" id="f16i7w85pvpag" width="300%" x="-1" y="-1"><feGaussianBlur result="blurOut" stdDeviation="2.0"/><feColorMatrix in="blurOut" result="blurOut2" type="matrix" values="0 0 0 0 0 0 0 0 0 0 0 0 0 0 0 0 0 0 .4 0"/><feOffset dx="4.0" dy="4.0" in="blurOut2" result="blurOut3"/><feBlend in="SourceGraphic" in2="blurOut3" mode="normal"/></filter></defs><g><!--MD5=[9161b241bc2f71c78a34b2f2572b9fb3]
entity Sarah--><ellipse cx="26" cy="14" fill="#FEFECE" filter="url(#f16i7w85pvpag)" rx="8" ry="8" style="stroke:#A80036;stroke-width:1.5;"/><path d="M26,22 L26,49 M13,30 L39,30 M26,49 L13,64 M26,49 L39,64 " fill="none" filter="url(#f16i7w85pvpag)" style="stroke:#A80036;stroke-width:1.5;"/><text fill="#000000" font-family="sans-serif" font-size="14" lengthAdjust="spacing" textLength="40" x="6" y="82.4951">Sarah</text><!--MD5=[cc9bbcd66294254029bd23dba2ba3dcd]
entity Philip--><ellipse cx="101" cy="14" fill="#FEFECE" filter="url(#f16i7w85pvpag)" rx="8" ry="8" style="stroke:#A80036;stroke-width:1.5;"/><path d="M101,22 L101,49 M88,30 L114,30 M101,49 L88,64 M101,49 L114,64 " fill="none" filter="url(#f16i7w85pvpag)" style="stroke:#A80036;stroke-width:1.5;"/><text fill="#000000" font-family="sans-serif" font-size="14" lengthAdjust="spacing" textLength="40" x="81" y="82.4951">Philip</text><!--MD5=[888bc0be0b95948adb2362740bd45dec]
entity David--><ellipse cx="176" cy="14" fill="#FEFECE" filter="url(#f16i7w85pvpag)" rx="8" ry="8" style="stroke:#A80036;stroke-width:1.5;"/><path d="M176,22 L176,49 M163,30 L189,30 M176,49 L163,64 M176,49 L189,64 " fill="none" filter="url(#f16i7w85pvpag)" style="stroke:#A80036;stroke-width:1.5;"/><text fill="#000000" font-family="sans-serif" font-size="14" lengthAdjust="spacing" textLength="40" x="156" y="82.4951">David</text><!--MD5=[b124d030a68c61a047b033e7d5e5e267]
entity Justin--><ellipse cx="251" cy="14" fill="#FEFECE" filter="url(#f16i7w85pvpag)" rx="8" ry="8" style="stroke:#A80036;stroke-width:1.5;"/><path d="M251,22 L251,49 M238,30 L264,30 M251,49 L238,64 M251,49 L264,64 " fill="none" filter="url(#f16i7w85pvpag)" style="stroke:#A80036;stroke-width:1.5;"/><text fill="#000000" font-family="sans-serif" font-size="14" lengthAdjust="spacing" textLength="39" x="231.5" y="82.4951">Justin</text><!--MD5=[a69ec94f59f863563d51e24b0b96494f]
entity Joni--><ellipse cx="320" cy="14" fill="#FEFECE" filter="url(#f16i7w85pvpag)" rx="8" ry="8" style="stroke:#A80036;stroke-width:1.5;"/><path d="M320,22 L320,49 M307,30 L333,30 M320,49 L307,64 M320,49 L333,64 " fill="none" filter="url(#f16i7w85pvpag)" style="stroke:#A80036;stroke-width:1.5;"/><text fill="#000000" font-family="sans-serif" font-size="14" lengthAdjust="spacing" textLength="26" x="307" y="82.4951">Joni</text><!--MD5=[6fee53c547b9c52cc9e2446c4135b3c1]
entity Nils--><ellipse cx="384" cy="14" fill="#FEFECE" filter="url(#f16i7w85pvpag)" rx="8" ry="8" style="stroke:#A80036;stroke-width:1.5;"/><path d="M384,22 L384,49 M371,30 L397,30 M384,49 L371,64 M384,49 L397,64 " fill="none" filter="url(#f16i7w85pvpag)" style="stroke:#A80036;stroke-width:1.5;"/><text fill="#000000" font-family="sans-serif" font-size="14" lengthAdjust="spacing" textLength="25" x="371.5" y="82.4951">Nils</text><!--MD5=[7ef870909c26b73a32a2c84cfed02fba]
entity Josh--><ellipse cx="448" cy="14" fill="#FEFECE" filter="url(#f16i7w85pvpag)" rx="8" ry="8" style="stroke:#A80036;stroke-width:1.5;"/><path d="M448,22 L448,49 M435,30 L461,30 M448,49 L435,64 M448,49 L461,64 " fill="none" filter="url(#f16i7w85pvpag)" style="stroke:#A80036;stroke-width:1.5;"/><text fill="#000000" font-family="sans-serif" font-size="14" lengthAdjust="spacing" textLength="29" x="433.5" y="82.4951">Josh</text><ellipse cx="250.8073" cy="162.3615" fill="#FEFECE" filter="url(#f16i7w85pvpag)" rx="72.3073" ry="16.8615" style="stroke:#A80036;stroke-width:1.5;"/><text fill="#000000" font-family="sans-serif" font-size="14" lengthAdjust="spacing" textLength="99" x="198.3073" y="166.109">weichware-10</text><!--MD5=[18097fde0ea07475abad7ce41417c552]
link Sarah to w10--><path d="M46.0219,70.722 C51.1597,76.069 56.9557,81.3549 63,85.5 C107.276,115.8638 165.516,137.0215 205.37,149.1664 " fill="none" id="Sarah-w10" style="stroke:#A80036;stroke-width:1.0;stroke-dasharray:7.0,7.0;"/><!--MD5=[70905d4dc123d279b8bdf43cc83fa7ed]
link Philip to w10--><path d="M121.301,69.431 C126.515,74.944 132.275,80.6283 138,85.5 C165.908,109.2496 201.446,132.101 225.144,146.4353 " fill="none" id="Philip-w10" style="stroke:#A80036;stroke-width:1.0;stroke-dasharray:7.0,7.0;"/><!--MD5=[a11ce972e150bec42dc0723fd4b7a3c5]
link David to w10--><path d="M196.099,76.952 C210.417,99.0029 229.086,127.7518 240.548,145.4042 " fill="none" id="David-w10" style="stroke:#A80036;stroke-width:1.0;stroke-dasharray:7.0,7.0;"/><!--MD5=[ef5c16da3921b6e49b12b2c133a7a8e8]
link Justin to w10--><path d="M251,85.7485 C251,106.2383 251,130.0873 251,145.4687 " fill="none" id="Justin-w10" style="stroke:#A80036;stroke-width:1.0;stroke-dasharray:7.0,7.0;"/><!--MD5=[70ddda9c0b0cd05282f6d1b96bae148a]
link Joni to w10--><path d="M305.367,70.495 C291.838,93.1414 272.125,126.1385 260.526,145.5539 " fill="none" id="Joni-w10" style="stroke:#A80036;stroke-width:1.0;stroke-dasharray:7.0,7.0;"/><!--MD5=[1dc9fe44d330339418f7a8ce138608f0]
link Nils to w10--><path d="M369.27,66.108 C364.122,72.592 358.097,79.6172 352,85.5 C327.522,109.1171 295.659,131.9964 274.328,146.3735 " fill="none" id="Nils-w10" style="stroke:#A80036;stroke-width:1.0;stroke-dasharray:7.0,7.0;"/><!--MD5=[895022069ec43d3841ce3e409e83da63]
link Josh to w10--><path d="M433.321,67.727 C428.346,74.014 422.411,80.5168 416,85.5 C378.276,114.8245 327.415,136.0577 292.178,148.5063 " fill="none" id="Josh-w10" style="stroke:#A80036;stroke-width:1.0;stroke-dasharray:7.0,7.0;"/><!--MD5=[c653ee4d77bebb665476ac86abdf324d]
@startuml
actor   Sarah
actor   Philip
actor   David
actor   Justin
actor   Joni
actor   Nils
actor   Josh
"weichware-10" as (w10)
Sarah .. w10
Philip .. w10
David .. w10
Justin .. w10
Joni .. w10
Nils .. w10
Josh .. w10
@enduml

PlantUML version 1.2021.13beta8(Unknown compile time)
(GPL source distribution)
Java Runtime: Java(TM) SE Runtime Environment
JVM: Java HotSpot(TM) 64-Bit Server VM
Default Encoding: UTF-8
Language: en
Country: US
--></g></svg>